<?xml version="1.0" encoding="utf-8"?>
<svg width="221px" height="464px" viewBox="0 0 742 1573" version="1.1" xmlns="http://www.w3.org/2000/svg">
  <title>apple-iphone-5s</title>
  <path d="M 0 1463.556 L 0 108.937 C 0 48.785 48.752 0 108.884 0 L 633.116 0 C 693.242 0 742 48.773 742 108.937 L 742 1463.556 C 742 1523.709 693.248 1572.494 633.116 1572.494 L 108.884 1572.494 C 48.758 1572.494 0 1523.721 0 1463.556 Z M 309.764 129.339 C 307.868 129.339 306.33 130.847 306.33 132.773 L 306.33 139.523 C 306.33 141.416 307.865 142.954 309.732 142.954 L 385.994 142.954 L 428.834 142.954 C 430.731 142.954 432.265 141.449 432.265 139.523 L 432.265 132.773 C 432.265 130.877 430.764 129.339 428.831 129.339 L 309.764 129.339 Z M 369.299 91.898 C 377.758 91.898 384.617 85.042 384.617 76.583 C 384.617 68.127 377.758 61.268 369.299 61.268 C 360.838 61.268 353.981 68.127 353.981 76.583 C 353.981 85.042 360.838 91.898 369.299 91.898 Z M 51.035 217.833 C 47.289 217.833 44.247 220.905 44.247 224.675 L 44.247 1351.224 C 44.247 1355.002 47.307 1358.065 51.035 1358.065 L 690.965 1358.065 C 694.711 1358.065 697.753 1354.993 697.753 1351.224 L 697.753 224.675 C 697.753 220.899 694.693 217.833 690.965 217.833 L 51.035 217.833 Z M 371 1524.843 C 406.714 1524.843 435.67 1495.887 435.67 1460.173 C 435.67 1424.459 406.714 1395.503 371 1395.503 C 335.286 1395.503 306.33 1424.459 306.33 1460.173 C 306.33 1495.887 335.286 1524.843 371 1524.843 Z M 371 1518.034 C 402.956 1518.034 428.864 1492.132 428.864 1460.173 C 428.864 1428.216 402.956 1402.309 371 1402.309 C 339.041 1402.309 313.139 1428.216 313.139 1460.173 C 313.139 1492.132 339.041 1518.034 371 1518.034 Z" id="Apple-iPhone-5S" style="fill: rgb(255, 255, 255);">
    <title>iPhone</title>
  </path>
</svg>