<?xml version="1.0" encoding="UTF-8"?>
<!--Generator: Apple Native CoreSVG 148-->
<!DOCTYPE svg
PUBLIC "-//W3C//DTD SVG 1.1//EN"
       "http://www.w3.org/Graphics/SVG/1.1/DTD/svg11.dtd">
<svg version="1.1" xmlns="http://www.w3.org/2000/svg" xmlns:xlink="http://www.w3.org/1999/xlink" width="3300" height="2200">
 <!--glyph: "uni100362.medium", point size: 100.000000, font version: "Version 16.0d11e1", template writer version: "8"-->
 <g id="Notes">
  <rect height="2200" id="artboard" style="fill:white;opacity:1" width="3300" x="0" y="0"/>
  <line id="" style="fill:none;stroke:black;opacity:1;stroke-width:0.5;" x1="263" x2="3036" y1="292" y2="292"/>
  <text style="stroke:none;fill:black;font-family:-apple-system,&quot;SF Pro Display&quot;,&quot;SF Pro Text&quot;,Helvetica,sans-serif;font-weight:bold;" transform="matrix(1 0 0 1 263 322)">Weight/Scale Variations</text>
  <text style="stroke:none;fill:black;font-family:-apple-system,&quot;SF Pro Display&quot;,&quot;SF Pro Text&quot;,Helvetica,sans-serif;text-anchor:middle;" transform="matrix(1 0 0 1 559.711 322)">Ultralight</text>
  <text style="stroke:none;fill:black;font-family:-apple-system,&quot;SF Pro Display&quot;,&quot;SF Pro Text&quot;,Helvetica,sans-serif;text-anchor:middle;" transform="matrix(1 0 0 1 856.422 322)">Thin</text>
  <text style="stroke:none;fill:black;font-family:-apple-system,&quot;SF Pro Display&quot;,&quot;SF Pro Text&quot;,Helvetica,sans-serif;text-anchor:middle;" transform="matrix(1 0 0 1 1153.13 322)">Light</text>
  <text style="stroke:none;fill:black;font-family:-apple-system,&quot;SF Pro Display&quot;,&quot;SF Pro Text&quot;,Helvetica,sans-serif;text-anchor:middle;" transform="matrix(1 0 0 1 1449.84 322)">Regular</text>
  <text style="stroke:none;fill:black;font-family:-apple-system,&quot;SF Pro Display&quot;,&quot;SF Pro Text&quot;,Helvetica,sans-serif;text-anchor:middle;" transform="matrix(1 0 0 1 1746.56 322)">Medium</text>
  <text style="stroke:none;fill:black;font-family:-apple-system,&quot;SF Pro Display&quot;,&quot;SF Pro Text&quot;,Helvetica,sans-serif;text-anchor:middle;" transform="matrix(1 0 0 1 2043.27 322)">Semibold</text>
  <text style="stroke:none;fill:black;font-family:-apple-system,&quot;SF Pro Display&quot;,&quot;SF Pro Text&quot;,Helvetica,sans-serif;text-anchor:middle;" transform="matrix(1 0 0 1 2339.98 322)">Bold</text>
  <text style="stroke:none;fill:black;font-family:-apple-system,&quot;SF Pro Display&quot;,&quot;SF Pro Text&quot;,Helvetica,sans-serif;text-anchor:middle;" transform="matrix(1 0 0 1 2636.69 322)">Heavy</text>
  <text style="stroke:none;fill:black;font-family:-apple-system,&quot;SF Pro Display&quot;,&quot;SF Pro Text&quot;,Helvetica,sans-serif;text-anchor:middle;" transform="matrix(1 0 0 1 2933.4 322)">Black</text>
  <line id="" style="fill:none;stroke:black;opacity:1;stroke-width:0.5;" x1="263" x2="3036" y1="1903" y2="1903"/>
  <g id="" transform="matrix(1 0 0 1 263 1933)">
   <path d="M 9.24805 0.830078 C 13.5547 0.830078 17.1387 -2.74414 17.1387 -7.05078 C 17.1387 -11.3574 13.5449 -14.9316 9.23828 -14.9316 C 4.94141 -14.9316 1.36719 -11.3574 1.36719 -7.05078 C 1.36719 -2.74414 4.95117 0.830078 9.24805 0.830078 Z M 9.24805 -0.654297 C 5.70312 -0.654297 2.87109 -3.49609 2.87109 -7.05078 C 2.87109 -10.6055 5.69336 -13.4473 9.23828 -13.4473 C 12.793 -13.4473 15.6348 -10.6055 15.6445 -7.05078 C 15.6543 -3.49609 12.8027 -0.654297 9.24805 -0.654297 Z M 9.22852 -3.62305 C 9.69727 -3.62305 9.9707 -3.93555 9.9707 -4.45312 L 9.9707 -6.31836 L 12.002 -6.31836 C 12.5 -6.31836 12.832 -6.57227 12.832 -7.04102 C 12.832 -7.51953 12.5195 -7.7832 12.002 -7.7832 L 9.9707 -7.7832 L 9.9707 -9.81445 C 9.9707 -10.332 9.69727 -10.6543 9.22852 -10.6543 C 8.75977 -10.6543 8.50586 -10.3125 8.50586 -9.81445 L 8.50586 -7.7832 L 6.49414 -7.7832 C 5.97656 -7.7832 5.64453 -7.51953 5.64453 -7.04102 C 5.64453 -6.57227 5.99609 -6.31836 6.49414 -6.31836 L 8.50586 -6.31836 L 8.50586 -4.45312 C 8.50586 -3.95508 8.75977 -3.62305 9.22852 -3.62305 Z"/>
  </g>
  <g id="" transform="matrix(1 0 0 1 281.506 1933)">
   <path d="M 11.709 2.91016 C 17.1582 2.91016 21.6699 -1.61133 21.6699 -7.05078 C 21.6699 -12.5 17.1484 -17.0117 11.6992 -17.0117 C 6.25977 -17.0117 1.74805 -12.5 1.74805 -7.05078 C 1.74805 -1.61133 6.26953 2.91016 11.709 2.91016 Z M 11.709 1.25 C 7.09961 1.25 3.41797 -2.44141 3.41797 -7.05078 C 3.41797 -11.6602 7.08984 -15.3516 11.6992 -15.3516 C 16.3086 -15.3516 20 -11.6602 20.0098 -7.05078 C 20.0195 -2.44141 16.3184 1.25 11.709 1.25 Z M 11.6797 -2.66602 C 12.207 -2.66602 12.5098 -3.01758 12.5098 -3.59375 L 12.5098 -6.23047 L 15.3223 -6.23047 C 15.8691 -6.23047 16.25 -6.51367 16.25 -7.03125 C 16.25 -7.55859 15.8887 -7.86133 15.3223 -7.86133 L 12.5098 -7.86133 L 12.5098 -10.6836 C 12.5098 -11.25 12.207 -11.6113 11.6797 -11.6113 C 11.1621 -11.6113 10.8789 -11.2305 10.8789 -10.6836 L 10.8789 -7.86133 L 8.07617 -7.86133 C 7.50977 -7.86133 7.13867 -7.55859 7.13867 -7.03125 C 7.13867 -6.51367 7.5293 -6.23047 8.07617 -6.23047 L 10.8789 -6.23047 L 10.8789 -3.59375 C 10.8789 -3.03711 11.1621 -2.66602 11.6797 -2.66602 Z"/>
  </g>
  <g id="" transform="matrix(1 0 0 1 304.924 1933)">
   <path d="M 14.9707 5.66406 C 21.9336 5.66406 27.6953 -0.0976562 27.6953 -7.05078 C 27.6953 -14.0137 21.9238 -19.7754 14.9609 -19.7754 C 8.00781 -19.7754 2.25586 -14.0137 2.25586 -7.05078 C 2.25586 -0.0976562 8.01758 5.66406 14.9707 5.66406 Z M 14.9707 3.84766 C 8.93555 3.84766 4.08203 -1.01562 4.08203 -7.05078 C 4.08203 -13.0957 8.92578 -17.9492 14.9609 -17.9492 C 21.0059 -17.9492 25.8594 -13.0957 25.8691 -7.05078 C 25.8789 -1.01562 21.0156 3.84766 14.9707 3.84766 Z M 14.9414 -1.38672 C 15.5176 -1.38672 15.8594 -1.77734 15.8594 -2.38281 L 15.8594 -6.13281 L 19.7754 -6.13281 C 20.3711 -6.13281 20.7812 -6.46484 20.7812 -7.02148 C 20.7812 -7.59766 20.3906 -7.93945 19.7754 -7.93945 L 15.8594 -7.93945 L 15.8594 -11.8652 C 15.8594 -12.4805 15.5176 -12.8711 14.9414 -12.8711 C 14.375 -12.8711 14.0527 -12.4609 14.0527 -11.8652 L 14.0527 -7.93945 L 10.1465 -7.93945 C 9.53125 -7.93945 9.13086 -7.59766 9.13086 -7.02148 C 9.13086 -6.46484 9.55078 -6.13281 10.1465 -6.13281 L 14.0527 -6.13281 L 14.0527 -2.38281 C 14.0527 -1.79688 14.375 -1.38672 14.9414 -1.38672 Z"/>
  </g>
  <text style="stroke:none;fill:black;font-family:-apple-system,&quot;SF Pro Display&quot;,&quot;SF Pro Text&quot;,Helvetica,sans-serif;font-weight:bold;" transform="matrix(1 0 0 1 263 1953)">Design Variations</text>
  <text style="stroke:none;fill:black;font-family:-apple-system,&quot;SF Pro Display&quot;,&quot;SF Pro Text&quot;,Helvetica,sans-serif;" transform="matrix(1 0 0 1 263 1971)">Symbols are supported in up to nine weights and three scales.</text>
  <text style="stroke:none;fill:black;font-family:-apple-system,&quot;SF Pro Display&quot;,&quot;SF Pro Text&quot;,Helvetica,sans-serif;" transform="matrix(1 0 0 1 263 1989)">For optimal layout with text and other symbols, vertically align</text>
  <text style="stroke:none;fill:black;font-family:-apple-system,&quot;SF Pro Display&quot;,&quot;SF Pro Text&quot;,Helvetica,sans-serif;" transform="matrix(1 0 0 1 263 2007)">symbols with the adjacent text.</text>
  <line id="" style="fill:none;stroke:#00AEEF;stroke-width:0.5;opacity:1.0;" x1="776" x2="776" y1="1919" y2="1933"/>
  <g id="" transform="matrix(1 0 0 1 776 1933)">
   <path d="M 3.31055 0.126953 C 3.82812 0.126953 4.08203 -0.0683594 4.26758 -0.605469 L 5.52734 -4.0625 L 11.2891 -4.0625 L 12.5488 -0.605469 C 12.7344 -0.0683594 12.9883 0.126953 13.4961 0.126953 C 14.0137 0.126953 14.3457 -0.185547 14.3457 -0.673828 C 14.3457 -0.839844 14.3164 -0.986328 14.2383 -1.20117 L 9.6582 -13.3887 C 9.43359 -13.9941 9.0332 -14.2871 8.4082 -14.2871 C 7.80273 -14.2871 7.39258 -13.9941 7.17773 -13.3984 L 2.59766 -1.19141 C 2.51953 -0.976562 2.49023 -0.830078 2.49023 -0.664062 C 2.49023 -0.175781 2.80273 0.126953 3.31055 0.126953 Z M 6.00586 -5.53711 L 8.37891 -12.1094 L 8.42773 -12.1094 L 10.8008 -5.53711 Z"/>
  </g>
  <line id="" style="fill:none;stroke:#00AEEF;stroke-width:0.5;opacity:1.0;" x1="792.836" x2="792.836" y1="1919" y2="1933"/>
  <text style="stroke:none;fill:black;font-family:-apple-system,&quot;SF Pro Display&quot;,&quot;SF Pro Text&quot;,Helvetica,sans-serif;font-weight:bold;" transform="matrix(1 0 0 1 776 1953)">Margins</text>
  <text style="stroke:none;fill:black;font-family:-apple-system,&quot;SF Pro Display&quot;,&quot;SF Pro Text&quot;,Helvetica,sans-serif;" transform="matrix(1 0 0 1 776 1971)">Leading and trailing margins on the left and right side of each symbol</text>
  <text style="stroke:none;fill:black;font-family:-apple-system,&quot;SF Pro Display&quot;,&quot;SF Pro Text&quot;,Helvetica,sans-serif;" transform="matrix(1 0 0 1 776 1989)">can be adjusted by modifying the x-location of the margin guidelines.</text>
  <text style="stroke:none;fill:black;font-family:-apple-system,&quot;SF Pro Display&quot;,&quot;SF Pro Text&quot;,Helvetica,sans-serif;" transform="matrix(1 0 0 1 776 2007)">Modifications are automatically applied proportionally to all</text>
  <text style="stroke:none;fill:black;font-family:-apple-system,&quot;SF Pro Display&quot;,&quot;SF Pro Text&quot;,Helvetica,sans-serif;" transform="matrix(1 0 0 1 776 2025)">scales and weights.</text>
  <g id="" transform="matrix(1 0 0 1 1289 1933)">
   <path d="M 2.8418 1.86523 L 4.54102 3.57422 C 5.40039 4.44336 6.38672 4.38477 7.31445 3.35938 L 17.4902 -7.85156 C 17.7539 -7.76367 18.0273 -7.7832 18.3398 -7.8418 L 19.4043 -8.03711 L 20.0684 -7.36328 L 20.0293 -6.80664 C 19.9902 -6.30859 20.1172 -5.92773 20.6055 -5.44922 L 21.3672 -4.70703 C 21.8457 -4.22852 22.4609 -4.19922 22.9297 -4.66797 L 25.8398 -7.58789 C 26.3086 -8.05664 26.2891 -8.65234 25.8105 -9.13086 L 25.0391 -9.89258 C 24.5605 -10.3711 24.1895 -10.5273 23.7109 -10.4883 L 23.1348 -10.4395 L 22.4902 -11.0742 L 22.7344 -12.1973 C 22.8613 -12.7637 22.7051 -13.2031 22.1191 -13.7891 L 19.9219 -15.9766 C 16.582 -19.2969 12.1484 -19.2188 9.25781 -16.3281 C 8.83789 -15.918 8.80859 -15.3418 9.04297 -14.9512 C 9.27734 -14.5898 9.73633 -14.3555 10.3809 -14.5215 C 11.8457 -14.8633 13.3691 -14.9219 14.7949 -13.9844 L 14.209 -12.5293 C 14.0137 -12.0508 13.9844 -11.6504 14.1113 -11.2891 L 3.04688 -0.898438 C 2.06055 0.0195312 1.98242 0.996094 2.8418 1.86523 Z M 10.752 -15.957 C 13.1836 -17.7344 16.4746 -17.4316 18.7012 -15.2051 L 21.1328 -12.793 C 21.3672 -12.5586 21.4062 -12.373 21.3379 -12.0312 L 21.0156 -10.5469 L 22.5195 -9.0625 L 23.5059 -9.12109 C 23.7598 -9.13086 23.8379 -9.11133 24.0332 -8.91602 L 24.6094 -8.33984 L 22.168 -5.89844 L 21.5918 -6.47461 C 21.3965 -6.66992 21.3672 -6.74805 21.377 -7.01172 L 21.4453 -7.98828 L 19.9512 -9.47266 L 18.4277 -9.21875 C 18.1055 -9.15039 17.959 -9.17969 17.7148 -9.41406 L 15.7129 -11.416 C 15.459 -11.6504 15.4297 -11.8164 15.5859 -12.1875 L 16.4648 -14.2773 C 14.9023 -15.7324 12.8711 -16.3574 10.8398 -15.7617 C 10.6836 -15.7227 10.625 -15.8496 10.752 -15.957 Z M 5.27344 2.30469 L 4.10156 1.14258 C 3.63281 0.683594 3.74023 0.341797 4.14062 -0.0195312 L 14.9512 -10.1953 L 16.416 -8.71094 L 6.42578 2.27539 C 6.07422 2.67578 5.74219 2.77344 5.27344 2.30469 Z"/>
  </g>
  <text style="stroke:none;fill:black;font-family:-apple-system,&quot;SF Pro Display&quot;,&quot;SF Pro Text&quot;,Helvetica,sans-serif;font-weight:bold;" transform="matrix(1 0 0 1 1289 1953)">Exporting</text>
  <text style="stroke:none;fill:black;font-family:-apple-system,&quot;SF Pro Display&quot;,&quot;SF Pro Text&quot;,Helvetica,sans-serif;" transform="matrix(1 0 0 1 1289 1971)">Symbols should be outlined when exporting to ensure the</text>
  <text style="stroke:none;fill:black;font-family:-apple-system,&quot;SF Pro Display&quot;,&quot;SF Pro Text&quot;,Helvetica,sans-serif;" transform="matrix(1 0 0 1 1289 1989)">design is preserved when submitting to Xcode.</text>
  <text id="template-version" style="stroke:none;fill:black;font-family:-apple-system,&quot;SF Pro Display&quot;,&quot;SF Pro Text&quot;,Helvetica,sans-serif;text-anchor:end;" transform="matrix(1 0 0 1 3036 1933)">Template v.2.0</text>
  <text style="stroke:none;fill:black;font-family:-apple-system,&quot;SF Pro Display&quot;,&quot;SF Pro Text&quot;,Helvetica,sans-serif;text-anchor:end;" transform="matrix(1 0 0 1 3036 1951)">Requires Xcode 12 or greater</text>
  <text style="stroke:none;fill:black;font-family:-apple-system,&quot;SF Pro Display&quot;,&quot;SF Pro Text&quot;,Helvetica,sans-serif;text-anchor:end;" transform="matrix(1 0 0 1 3036 1969)">Generated from ellipsis.circle.fill</text>
  <text style="stroke:none;fill:black;font-family:-apple-system,&quot;SF Pro Display&quot;,&quot;SF Pro Text&quot;,Helvetica,sans-serif;text-anchor:end;" transform="matrix(1 0 0 1 3036 1987)">Typeset at 100 points</text>
  <text style="stroke:none;fill:black;font-family:-apple-system,&quot;SF Pro Display&quot;,&quot;SF Pro Text&quot;,Helvetica,sans-serif;" transform="matrix(1 0 0 1 263 726)">Small</text>
  <text style="stroke:none;fill:black;font-family:-apple-system,&quot;SF Pro Display&quot;,&quot;SF Pro Text&quot;,Helvetica,sans-serif;" transform="matrix(1 0 0 1 263 1156)">Medium</text>
  <text style="stroke:none;fill:black;font-family:-apple-system,&quot;SF Pro Display&quot;,&quot;SF Pro Text&quot;,Helvetica,sans-serif;" transform="matrix(1 0 0 1 263 1586)">Large</text>
 </g>
 <g id="Guides">
  <g id="H-reference" style="fill:#27AAE1;stroke:none;" transform="matrix(1 0 0 1 339 696)">
   <path d="M 0.976562 0 L 3.66211 0 L 12.9883 -24.4629 L 45.7031 -24.4629 L 55.0781 0 L 57.7148 0 L 30.6152 -70.459 L 28.125 -70.459 Z M 29.2969 -67.1387 L 29.3945 -67.1387 L 44.873 -26.709 L 13.8672 -26.709 Z"/>
  </g>
  <line id="Baseline-S" style="fill:none;stroke:#27AAE1;opacity:1;stroke-width:0.5;" x1="263" x2="3036" y1="696" y2="696"/>
  <line id="Capline-S" style="fill:none;stroke:#27AAE1;opacity:1;stroke-width:0.5;" x1="263" x2="3036" y1="625.541" y2="625.541"/>
  <g id="H-reference" style="fill:#27AAE1;stroke:none;" transform="matrix(1 0 0 1 339 1126)">
   <path d="M 0.976562 0 L 3.66211 0 L 12.9883 -24.4629 L 45.7031 -24.4629 L 55.0781 0 L 57.7148 0 L 30.6152 -70.459 L 28.125 -70.459 Z M 29.2969 -67.1387 L 29.3945 -67.1387 L 44.873 -26.709 L 13.8672 -26.709 Z"/>
  </g>
  <line id="Baseline-M" style="fill:none;stroke:#27AAE1;opacity:1;stroke-width:0.5;" x1="263" x2="3036" y1="1126" y2="1126"/>
  <line id="Capline-M" style="fill:none;stroke:#27AAE1;opacity:1;stroke-width:0.5;" x1="263" x2="3036" y1="1055.54" y2="1055.54"/>
  <g id="H-reference" style="fill:#27AAE1;stroke:none;" transform="matrix(1 0 0 1 339 1556)">
   <path d="M 0.976562 0 L 3.66211 0 L 12.9883 -24.4629 L 45.7031 -24.4629 L 55.0781 0 L 57.7148 0 L 30.6152 -70.459 L 28.125 -70.459 Z M 29.2969 -67.1387 L 29.3945 -67.1387 L 44.873 -26.709 L 13.8672 -26.709 Z"/>
  </g>
  <line id="Baseline-L" style="fill:none;stroke:#27AAE1;opacity:1;stroke-width:0.5;" x1="263" x2="3036" y1="1556" y2="1556"/>
  <line id="Capline-L" style="fill:none;stroke:#27AAE1;opacity:1;stroke-width:0.5;" x1="263" x2="3036" y1="1485.54" y2="1485.54"/>
  <line id="left-margin" style="fill:none;stroke:#00AEEF;stroke-width:0.5;opacity:1.0;" x1="1391.3" x2="1391.3" y1="1030.79" y2="1150.12"/>
  <line id="right-margin" style="fill:none;stroke:#00AEEF;stroke-width:0.5;opacity:1.0;" x1="1508.39" x2="1508.39" y1="1030.79" y2="1150.12"/>
 </g>
 <g id="Symbols">
  <g id="Black-L" transform="matrix(1 0 0 1 2854.05 1556)">
   <path d="M 79.3457 32.8613 C 116.748 32.8613 147.412 2.19727 147.412 -35.2051 C 147.412 -72.6074 116.748 -103.271 79.2969 -103.271 C 41.8945 -103.271 11.2793 -72.6074 11.2793 -35.2051 C 11.2793 2.19727 41.9434 32.8613 79.3457 32.8613 Z M 48.291 -23.8281 C 41.8945 -23.8281 36.8164 -28.9551 36.8164 -35.2539 C 36.8164 -41.6016 41.8945 -46.7285 48.291 -46.7285 C 54.5898 -46.7285 59.668 -41.6016 59.668 -35.2539 C 59.668 -28.9551 54.6387 -23.8281 48.291 -23.8281 Z M 79.1992 -23.8281 C 72.9004 -23.8281 67.7246 -28.9551 67.7246 -35.2539 C 67.7246 -41.6016 72.9004 -46.7285 79.1992 -46.7285 C 85.498 -46.7285 90.625 -41.6016 90.625 -35.2539 C 90.625 -28.9551 85.498 -23.8281 79.1992 -23.8281 Z M 110.059 -23.8281 C 103.76 -23.8281 98.7305 -28.9551 98.7305 -35.2539 C 98.7305 -41.6016 103.76 -46.7285 110.059 -46.7285 C 116.455 -46.7285 121.582 -41.6016 121.582 -35.2539 C 121.582 -28.9551 116.455 -23.8281 110.059 -23.8281 Z"/>
  </g>
  <g id="Heavy-L" transform="matrix(1 0 0 1 2558.39 1556)">
   <path d="M 78.2715 31.7871 C 115.088 31.7871 145.312 1.5625 145.312 -35.2051 C 145.312 -72.0215 115.039 -102.246 78.2715 -102.246 C 41.4551 -102.246 11.2793 -72.0215 11.2793 -35.2051 C 11.2793 1.5625 41.5039 31.7871 78.2715 31.7871 Z M 47.5098 -24.4141 C 41.4551 -24.4141 36.5723 -29.2969 36.5723 -35.3027 C 36.5723 -41.2598 41.4551 -46.1426 47.5098 -46.1426 C 53.4668 -46.1426 58.3008 -41.2598 58.3008 -35.3027 C 58.3008 -29.2969 53.5156 -24.4141 47.5098 -24.4141 Z M 78.1738 -24.4141 C 72.168 -24.4141 67.2852 -29.2969 67.2852 -35.3027 C 67.2852 -41.2598 72.168 -46.1426 78.1738 -46.1426 C 84.1797 -46.1426 89.0625 -41.2598 89.0625 -35.3027 C 89.0625 -29.2969 84.1797 -24.4141 78.1738 -24.4141 Z M 108.838 -24.4141 C 102.832 -24.4141 97.998 -29.2969 97.998 -35.3027 C 97.998 -41.2598 102.832 -46.1426 108.838 -46.1426 C 114.893 -46.1426 119.727 -41.2598 119.727 -35.3027 C 119.727 -29.2969 114.893 -24.4141 108.838 -24.4141 Z"/>
  </g>
  <g id="Bold-L" transform="matrix(1 0 0 1 2262.88 1556)">
   <path d="M 77.0996 30.5664 C 113.232 30.5664 142.92 0.878906 142.92 -35.2539 C 142.92 -71.3379 113.184 -101.074 77.0508 -101.074 C 40.9668 -101.074 11.2793 -71.3379 11.2793 -35.2539 C 11.2793 0.878906 41.0156 30.5664 77.0996 30.5664 Z M 46.582 -25.0488 C 40.918 -25.0488 36.3281 -29.6387 36.3281 -35.3027 C 36.3281 -40.9668 40.918 -45.5566 46.582 -45.5566 C 52.1973 -45.5566 56.7871 -40.9668 56.7871 -35.3027 C 56.7871 -29.6387 52.2461 -25.0488 46.582 -25.0488 Z M 77.002 -25.0488 C 71.3379 -25.0488 66.748 -29.6387 66.748 -35.3027 C 66.748 -40.9668 71.3379 -45.5566 77.002 -45.5566 C 82.666 -45.5566 87.2559 -40.9668 87.2559 -35.3027 C 87.2559 -29.6387 82.666 -25.0488 77.002 -25.0488 Z M 107.422 -25.0488 C 101.758 -25.0488 97.2168 -29.6387 97.2168 -35.3027 C 97.2168 -40.9668 101.758 -45.5566 107.422 -45.5566 C 113.086 -45.5566 117.676 -40.9668 117.676 -35.3027 C 117.676 -29.6387 113.086 -25.0488 107.422 -25.0488 Z"/>
  </g>
  <g id="Semibold-L" transform="matrix(1 0 0 1 1966.97 1556)">
   <path d="M 76.2695 29.7363 C 111.914 29.7363 141.309 0.390625 141.309 -35.2539 C 141.309 -70.8984 111.865 -100.244 76.2695 -100.244 C 40.625 -100.244 11.2793 -70.8984 11.2793 -35.2539 C 11.2793 0.390625 40.6738 29.7363 76.2695 29.7363 Z M 45.9961 -25.4883 C 40.5762 -25.4883 36.1328 -29.8828 36.1328 -35.3027 C 36.1328 -40.7227 40.5762 -45.1172 45.9961 -45.1172 C 51.3672 -45.1172 55.7617 -40.7227 55.7617 -35.3027 C 55.7617 -29.8828 51.3672 -25.4883 45.9961 -25.4883 Z M 76.2207 -25.4883 C 70.752 -25.4883 66.4062 -29.8828 66.4062 -35.3027 C 66.4062 -40.7227 70.752 -45.1172 76.2207 -45.1172 C 81.6406 -45.1172 85.9863 -40.7227 85.9863 -35.3027 C 85.9863 -29.8828 81.6406 -25.4883 76.2207 -25.4883 Z M 106.445 -25.4883 C 101.025 -25.4883 96.6309 -29.8828 96.6309 -35.3027 C 96.6309 -40.7227 101.025 -45.1172 106.445 -45.1172 C 111.816 -45.1172 116.26 -40.7227 116.26 -35.3027 C 116.26 -29.8828 111.816 -25.4883 106.445 -25.4883 Z"/>
  </g>
  <g id="Medium-L" transform="matrix(1 0 0 1 1670.87 1556)">
   <path d="M 75.6836 29.1504 C 110.938 29.1504 140.088 0 140.088 -35.2539 C 140.088 -70.5078 110.889 -99.6582 75.6348 -99.6582 C 40.3809 -99.6582 11.2793 -70.5078 11.2793 -35.2539 C 11.2793 0 40.3809 29.1504 75.6836 29.1504 Z M 45.5078 -25.8301 C 40.2832 -25.8301 35.9863 -30.0781 35.9863 -35.3027 C 35.9863 -40.5273 40.2832 -44.7754 45.5078 -44.7754 C 50.6836 -44.7754 54.9316 -40.5273 54.9316 -35.3027 C 54.9316 -30.0781 50.7324 -25.8301 45.5078 -25.8301 Z M 75.5859 -25.8301 C 70.3613 -25.8301 66.1133 -30.0781 66.1133 -35.3027 C 66.1133 -40.5273 70.3613 -44.7754 75.5859 -44.7754 C 80.8105 -44.7754 85.0586 -40.5273 85.0586 -35.3027 C 85.0586 -30.0781 80.8105 -25.8301 75.5859 -25.8301 Z M 105.713 -25.8301 C 100.439 -25.8301 96.2402 -30.0781 96.2402 -35.3027 C 96.2402 -40.5273 100.439 -44.7754 105.713 -44.7754 C 110.889 -44.7754 115.186 -40.5273 115.186 -35.3027 C 115.186 -30.0781 110.889 -25.8301 105.713 -25.8301 Z"/>
  </g>
  <g id="Regular-L" transform="matrix(1 0 0 1 1374.97 1556)">
   <path d="M 74.8535 28.3203 C 109.668 28.3203 138.477 -0.488281 138.477 -35.2539 C 138.477 -70.0684 109.619 -98.877 74.8047 -98.877 C 40.0391 -98.877 11.2793 -70.0684 11.2793 -35.2539 C 11.2793 -0.488281 40.0879 28.3203 74.8535 28.3203 Z M 44.873 -26.2695 C 39.9414 -26.2695 35.8398 -30.3223 35.8398 -35.3516 C 35.8398 -40.332 39.9414 -44.3848 44.873 -44.3848 C 49.8535 -44.3848 53.9062 -40.332 53.9062 -35.3516 C 53.9062 -30.3223 49.9023 -26.2695 44.873 -26.2695 Z M 74.8047 -26.2695 C 69.7754 -26.2695 65.7715 -30.3223 65.7715 -35.3516 C 65.7715 -40.332 69.7754 -44.3848 74.8047 -44.3848 C 79.7852 -44.3848 83.8379 -40.332 83.8379 -35.3516 C 83.8379 -30.3223 79.7852 -26.2695 74.8047 -26.2695 Z M 104.736 -26.2695 C 99.707 -26.2695 95.6543 -30.3223 95.6543 -35.3516 C 95.6543 -40.332 99.707 -44.3848 104.736 -44.3848 C 109.668 -44.3848 113.77 -40.332 113.77 -35.3516 C 113.77 -30.3223 109.668 -26.2695 104.736 -26.2695 Z"/>
  </g>
  <g id="Light-L" transform="matrix(1 0 0 1 1079.18 1556)">
   <path d="M 73.9258 27.3926 C 108.301 27.3926 136.621 -0.927734 136.621 -35.2539 C 136.621 -69.6289 108.252 -97.9492 73.9258 -97.9492 C 39.5508 -97.9492 11.2793 -69.6289 11.2793 -35.2539 C 11.2793 -0.927734 39.5996 27.3926 73.9258 27.3926 Z M 44.5801 -26.9043 C 39.8926 -26.9043 36.084 -30.6641 36.084 -35.3516 C 36.084 -40.0391 39.8926 -43.7988 44.5801 -43.7988 C 49.1699 -43.7988 52.9785 -40.0391 52.9785 -35.3516 C 52.9785 -30.6641 49.2188 -26.9043 44.5801 -26.9043 Z M 73.9258 -26.9043 C 69.1895 -26.9043 65.4297 -30.6641 65.4297 -35.3516 C 65.4297 -40.0391 69.1895 -43.7988 73.9258 -43.7988 C 78.5645 -43.7988 82.3242 -40.0391 82.3242 -35.3516 C 82.3242 -30.6641 78.5645 -26.9043 73.9258 -26.9043 Z M 103.271 -26.9043 C 98.5352 -26.9043 94.7754 -30.6641 94.7754 -35.3516 C 94.7754 -40.0391 98.5352 -43.7988 103.271 -43.7988 C 107.861 -43.7988 111.67 -40.0391 111.67 -35.3516 C 111.67 -30.6641 107.861 -26.9043 103.271 -26.9043 Z"/>
  </g>
  <g id="Thin-L" transform="matrix(1 0 0 1 783.693 1556)">
   <path d="M 72.7051 26.1719 C 106.494 26.1719 134.18 -1.51367 134.18 -35.2539 C 134.18 -69.043 106.494 -96.7285 72.7051 -96.7285 C 38.9648 -96.7285 11.2793 -69.043 11.2793 -35.2539 C 11.2793 -1.51367 38.9648 26.1719 72.7051 26.1719 Z M 44.1406 -27.7344 C 39.8438 -27.7344 36.4258 -31.1035 36.4258 -35.4004 C 36.4258 -39.6484 39.8438 -43.0176 44.1406 -43.0176 C 48.3398 -43.0176 51.709 -39.6484 51.709 -35.4004 C 51.709 -31.1035 48.3398 -27.7344 44.1406 -27.7344 Z M 72.7051 -27.7344 C 68.4082 -27.7344 65.0391 -31.1035 65.0391 -35.4004 C 65.0391 -39.6484 68.4082 -43.0176 72.7051 -43.0176 C 76.9043 -43.0176 80.3223 -39.6484 80.3223 -35.4004 C 80.3223 -31.1035 76.9043 -27.7344 72.7051 -27.7344 Z M 101.318 -27.7344 C 97.0215 -27.7344 93.6035 -31.1035 93.6035 -35.4004 C 93.6035 -39.6484 97.0215 -43.0176 101.318 -43.0176 C 105.518 -43.0176 108.936 -39.6484 108.936 -35.4004 C 108.936 -31.1035 105.518 -27.7344 101.318 -27.7344 Z"/>
  </g>
  <g id="Ultralight-L" transform="matrix(1 0 0 1 487.616 1556)">
   <path d="M 72.1191 25.5371 C 105.566 25.5371 132.91 -1.80664 132.91 -35.2539 C 132.91 -68.75 105.566 -96.0938 72.1191 -96.0938 C 38.623 -96.0938 11.2793 -68.75 11.2793 -35.2539 C 11.2793 -1.80664 38.623 25.5371 72.1191 25.5371 Z M 43.8965 -28.1738 C 39.7949 -28.1738 36.6211 -31.3477 36.6211 -35.4492 C 36.6211 -39.4531 39.7949 -42.627 43.8965 -42.627 C 47.9004 -42.627 51.0742 -39.4531 51.0742 -35.4492 C 51.0742 -31.3477 47.9004 -28.1738 43.8965 -28.1738 Z M 72.1191 -28.1738 C 68.0176 -28.1738 64.7949 -31.3477 64.7949 -35.4492 C 64.7949 -39.4531 68.0176 -42.627 72.1191 -42.627 C 76.0742 -42.627 79.2969 -39.4531 79.2969 -35.4492 C 79.2969 -31.3477 76.0742 -28.1738 72.1191 -28.1738 Z M 100.293 -28.1738 C 96.2402 -28.1738 93.0176 -31.3477 93.0176 -35.4492 C 93.0176 -39.4531 96.2402 -42.627 100.293 -42.627 C 104.297 -42.627 107.52 -39.4531 107.52 -35.4492 C 107.52 -31.3477 104.297 -28.1738 100.293 -28.1738 Z"/>
  </g>
  <g id="Black-M" transform="matrix(1 0 0 1 2870.97 1126)">
   <path d="M 62.4023 18.457 C 91.9922 18.457 116.113 -5.61523 116.113 -35.2051 C 116.113 -64.7949 91.9922 -88.8672 62.4023 -88.8672 C 32.8125 -88.8672 8.74023 -64.7949 8.74023 -35.2051 C 8.74023 -5.61523 32.8125 18.457 62.4023 18.457 Z M 38.3789 -25.9277 C 33.1055 -25.9277 28.9551 -30.127 28.9551 -35.2539 C 28.9551 -40.3809 33.1055 -44.5801 38.3789 -44.5801 C 43.5059 -44.5801 47.5586 -40.3809 47.5586 -35.2539 C 47.5586 -30.127 43.5059 -25.9277 38.3789 -25.9277 Z M 62.3047 -25.9277 C 57.1777 -25.9277 52.9785 -30.127 52.9785 -35.2539 C 52.9785 -40.3809 57.1777 -44.5801 62.3047 -44.5801 C 67.4316 -44.5801 71.6309 -40.3809 71.6309 -35.2539 C 71.6309 -30.127 67.4316 -25.9277 62.3047 -25.9277 Z M 86.2305 -25.9277 C 81.1035 -25.9277 77.0508 -30.127 77.0508 -35.2539 C 77.0508 -40.3809 81.1035 -44.5801 86.2305 -44.5801 C 91.5039 -44.5801 95.6055 -40.3809 95.6055 -35.2539 C 95.6055 -30.127 91.5039 -25.9277 86.2305 -25.9277 Z"/>
  </g>
  <g id="Heavy-M" transform="matrix(1 0 0 1 2575.19 1126)">
   <path d="M 61.5234 17.5293 C 90.5273 17.5293 114.258 -6.20117 114.258 -35.2051 C 114.258 -64.2578 90.5273 -87.9883 61.4746 -87.9883 C 32.4707 -87.9883 8.74023 -64.2578 8.74023 -35.2051 C 8.74023 -6.20117 32.4707 17.5293 61.5234 17.5293 Z M 37.5488 -26.416 C 32.6172 -26.416 28.6621 -30.3711 28.6621 -35.2539 C 28.6621 -40.1367 32.6172 -44.1406 37.5488 -44.1406 C 42.4316 -44.1406 46.3379 -40.1367 46.3379 -35.2539 C 46.3379 -30.3711 42.4316 -26.416 37.5488 -26.416 Z M 61.377 -26.416 C 56.4941 -26.416 52.5391 -30.3711 52.5391 -35.2539 C 52.5391 -40.1367 56.4941 -44.1406 61.377 -44.1406 C 66.2598 -44.1406 70.2637 -40.1367 70.2637 -35.2539 C 70.2637 -30.3711 66.2598 -26.416 61.377 -26.416 Z M 85.2539 -26.416 C 80.3711 -26.416 76.4648 -30.3711 76.4648 -35.2539 C 76.4648 -40.1367 80.3711 -44.1406 85.2539 -44.1406 C 90.1855 -44.1406 94.1406 -40.1367 94.1406 -35.2539 C 94.1406 -30.3711 90.1855 -26.416 85.2539 -26.416 Z"/>
  </g>
  <g id="Bold-M" transform="matrix(1 0 0 1 2279.5 1126)">
   <path d="M 60.498 16.5039 C 88.8672 16.5039 112.207 -6.83594 112.207 -35.2051 C 112.207 -63.623 88.8672 -86.9629 60.4492 -86.9629 C 32.0312 -86.9629 8.74023 -63.623 8.74023 -35.2051 C 8.74023 -6.83594 32.0801 16.5039 60.498 16.5039 Z M 36.6699 -26.9531 C 32.0312 -26.9531 28.3203 -30.6641 28.3203 -35.2539 C 28.3203 -39.8438 32.0312 -43.6035 36.6699 -43.6035 C 41.2598 -43.6035 44.9219 -39.8438 44.9219 -35.2539 C 44.9219 -30.6641 41.2598 -26.9531 36.6699 -26.9531 Z M 60.4004 -26.9531 C 55.8105 -26.9531 52.0508 -30.6641 52.0508 -35.2539 C 52.0508 -39.8438 55.8105 -43.6035 60.4004 -43.6035 C 64.9902 -43.6035 68.75 -39.8438 68.75 -35.2539 C 68.75 -30.6641 64.9902 -26.9531 60.4004 -26.9531 Z M 84.1309 -26.9531 C 79.541 -26.9531 75.8301 -30.6641 75.8301 -35.2539 C 75.8301 -39.8438 79.541 -43.6035 84.1309 -43.6035 C 88.7695 -43.6035 92.4805 -39.8438 92.4805 -35.2539 C 92.4805 -30.6641 88.7695 -26.9531 84.1309 -26.9531 Z"/>
  </g>
  <g id="Semibold-M" transform="matrix(1 0 0 1 1983.5 1126)">
   <path d="M 59.7656 15.8203 C 87.7441 15.8203 110.791 -7.27539 110.791 -35.2539 C 110.791 -63.2324 87.6953 -86.2793 59.7656 -86.2793 C 31.7871 -86.2793 8.74023 -63.2324 8.74023 -35.2539 C 8.74023 -7.27539 31.7871 15.8203 59.7656 15.8203 Z M 36.084 -27.2949 C 31.6406 -27.2949 28.0762 -30.8594 28.0762 -35.3027 C 28.0762 -39.6973 31.6406 -43.2617 36.084 -43.2617 C 40.4297 -43.2617 43.9941 -39.6973 43.9941 -35.3027 C 43.9941 -30.8594 40.4785 -27.2949 36.084 -27.2949 Z M 59.7168 -27.2949 C 55.3223 -27.2949 51.709 -30.8594 51.709 -35.3027 C 51.709 -39.6973 55.3223 -43.2617 59.7168 -43.2617 C 64.1113 -43.2617 67.6758 -39.6973 67.6758 -35.3027 C 67.6758 -30.8594 64.1113 -27.2949 59.7168 -27.2949 Z M 83.3496 -27.2949 C 78.9551 -27.2949 75.3906 -30.8594 75.3906 -35.3027 C 75.3906 -39.6973 78.9551 -43.2617 83.3496 -43.2617 C 87.7441 -43.2617 91.3574 -39.6973 91.3574 -35.3027 C 91.3574 -30.8594 87.7441 -27.2949 83.3496 -27.2949 Z"/>
  </g>
  <g id="Medium-M" transform="matrix(1 0 0 1 1687.3 1126)">
   <path d="M 59.2285 15.2344 C 86.9141 15.2344 109.766 -7.61719 109.766 -35.2539 C 109.766 -62.8906 86.8652 -85.7422 59.1797 -85.7422 C 31.543 -85.7422 8.74023 -62.8906 8.74023 -35.2539 C 8.74023 -7.61719 31.5918 15.2344 59.2285 15.2344 Z M 35.5957 -27.5879 C 31.3477 -27.5879 27.8809 -31.0059 27.8809 -35.3027 C 27.8809 -39.5508 31.3477 -42.9688 35.5957 -42.9688 C 39.7949 -42.9688 43.2617 -39.5508 43.2617 -35.3027 C 43.2617 -31.0059 39.8438 -27.5879 35.5957 -27.5879 Z M 59.1797 -27.5879 C 54.9316 -27.5879 51.4648 -31.0059 51.4648 -35.3027 C 51.4648 -39.5508 54.9316 -42.9688 59.1797 -42.9688 C 63.4277 -42.9688 66.8945 -39.5508 66.8945 -35.3027 C 66.8945 -31.0059 63.4277 -27.5879 59.1797 -27.5879 Z M 82.7637 -27.5879 C 78.5156 -27.5879 75.0977 -31.0059 75.0977 -35.3027 C 75.0977 -39.5508 78.5156 -42.9688 82.7637 -42.9688 C 87.0117 -42.9688 90.4785 -39.5508 90.4785 -35.3027 C 90.4785 -31.0059 87.0117 -27.5879 82.7637 -27.5879 Z"/>
  </g>
  <g id="Regular-M" transform="matrix(1 0 0 1 1391.3 1126)">
   <path d="M 58.5449 14.5508 C 85.791 14.5508 108.35 -8.05664 108.35 -35.2539 C 108.35 -62.5 85.7422 -85.0586 58.4961 -85.0586 C 31.2988 -85.0586 8.74023 -62.5 8.74023 -35.2539 C 8.74023 -8.05664 31.3477 14.5508 58.5449 14.5508 Z M 35.0098 -27.9297 C 30.957 -27.9297 27.6367 -31.2012 27.6367 -35.3027 C 27.6367 -39.3555 30.957 -42.627 35.0098 -42.627 C 39.0137 -42.627 42.334 -39.3555 42.334 -35.3027 C 42.334 -31.2012 39.0625 -27.9297 35.0098 -27.9297 Z M 58.4961 -27.9297 C 54.4434 -27.9297 51.123 -31.2012 51.123 -35.3027 C 51.123 -39.3555 54.4434 -42.627 58.4961 -42.627 C 62.5488 -42.627 65.8691 -39.3555 65.8691 -35.3027 C 65.8691 -31.2012 62.5488 -27.9297 58.4961 -27.9297 Z M 82.0312 -27.9297 C 77.9297 -27.9297 74.6582 -31.2012 74.6582 -35.3027 C 74.6582 -39.3555 77.9297 -42.627 82.0312 -42.627 C 86.0352 -42.627 89.3555 -39.3555 89.3555 -35.3027 C 89.3555 -31.2012 86.0352 -27.9297 82.0312 -27.9297 Z"/>
  </g>
  <g id="Light-M" transform="matrix(1 0 0 1 1095.42 1126)">
   <path d="M 57.7148 13.7207 C 84.5215 13.7207 106.689 -8.44727 106.689 -35.2539 C 106.689 -62.1094 84.5215 -84.2285 57.666 -84.2285 C 30.8594 -84.2285 8.74023 -62.1094 8.74023 -35.2539 C 8.74023 -8.44727 30.9082 13.7207 57.7148 13.7207 Z M 34.668 -28.5156 C 30.9082 -28.5156 27.8809 -31.543 27.8809 -35.3027 C 27.8809 -39.0625 30.9082 -42.1387 34.668 -42.1387 C 38.4277 -42.1387 41.5039 -39.0625 41.5039 -35.3027 C 41.5039 -31.543 38.4277 -28.5156 34.668 -28.5156 Z M 57.666 -28.5156 C 53.9062 -28.5156 50.8789 -31.543 50.8789 -35.3027 C 50.8789 -39.0625 53.9062 -42.1387 57.666 -42.1387 C 61.4258 -42.1387 64.502 -39.0625 64.502 -35.3027 C 64.502 -31.543 61.4258 -28.5156 57.666 -28.5156 Z M 80.6641 -28.5156 C 76.9043 -28.5156 73.877 -31.543 73.877 -35.3027 C 73.877 -39.0625 76.9043 -42.1387 80.6641 -42.1387 C 84.4238 -42.1387 87.5 -39.0625 87.5 -35.3027 C 87.5 -31.543 84.4238 -28.5156 80.6641 -28.5156 Z"/>
  </g>
  <g id="Thin-M" transform="matrix(1 0 0 1 799.806 1126)">
   <path d="M 56.6406 12.5977 C 82.9102 12.5977 104.492 -8.98438 104.492 -35.2539 C 104.492 -61.5723 82.9102 -83.1543 56.5918 -83.1543 C 30.3223 -83.1543 8.74023 -61.5723 8.74023 -35.2539 C 8.74023 -8.98438 30.3223 12.5977 56.6406 12.5977 Z M 34.2773 -29.248 C 30.9082 -29.248 28.1738 -31.9336 28.1738 -35.3516 C 28.1738 -38.7207 30.9082 -41.4551 34.2773 -41.4551 C 37.6465 -41.4551 40.3809 -38.7207 40.3809 -35.3516 C 40.3809 -31.9336 37.6465 -29.248 34.2773 -29.248 Z M 56.5918 -29.248 C 53.2227 -29.248 50.4883 -31.9336 50.4883 -35.3516 C 50.4883 -38.7207 53.2227 -41.4551 56.5918 -41.4551 C 59.9609 -41.4551 62.6953 -38.7207 62.6953 -35.3516 C 62.6953 -31.9336 59.9609 -29.248 56.5918 -29.248 Z M 78.9551 -29.248 C 75.5371 -29.248 72.8027 -31.9336 72.8027 -35.3516 C 72.8027 -38.7207 75.5371 -41.4551 78.9551 -41.4551 C 82.2754 -41.4551 85.0098 -38.7207 85.0098 -35.3516 C 85.0098 -31.9336 82.2754 -29.248 78.9551 -29.248 Z"/>
  </g>
  <g id="Ultralight-M" transform="matrix(1 0 0 1 503.656 1126)">
   <path d="M 56.0547 12.0605 C 82.0801 12.0605 103.369 -9.22852 103.369 -35.2539 C 103.369 -61.2793 82.0801 -82.5684 56.0547 -82.5684 C 30.0293 -82.5684 8.74023 -61.2793 8.74023 -35.2539 C 8.74023 -9.22852 30.0293 12.0605 56.0547 12.0605 Z M 34.082 -29.6387 C 30.8594 -29.6387 28.3203 -32.1777 28.3203 -35.4004 C 28.3203 -38.5254 30.8594 -41.1133 34.082 -41.1133 C 37.2559 -41.1133 39.7949 -38.5254 39.7949 -35.4004 C 39.7949 -32.1777 37.2559 -29.6387 34.082 -29.6387 Z M 56.0547 -29.6387 C 52.832 -29.6387 50.293 -32.1777 50.293 -35.4004 C 50.293 -38.5254 52.832 -41.1133 56.0547 -41.1133 C 59.2285 -41.1133 61.7676 -38.5254 61.7676 -35.4004 C 61.7676 -32.1777 59.2285 -29.6387 56.0547 -29.6387 Z M 78.0273 -29.6387 C 74.8047 -29.6387 72.2656 -32.1777 72.2656 -35.4004 C 72.2656 -38.5254 74.8047 -41.1133 78.0273 -41.1133 C 81.2012 -41.1133 83.7402 -38.5254 83.7402 -35.4004 C 83.7402 -32.1777 81.2012 -29.6387 78.0273 -29.6387 Z"/>
  </g>
  <g id="Black-S" transform="matrix(1 0 0 1 2884.57 696)">
   <path d="M 48.8281 6.78711 C 71.9727 6.78711 90.8203 -12.0605 90.8203 -35.2051 C 90.8203 -58.3496 71.9727 -77.1973 48.8281 -77.1973 C 25.6836 -77.1973 6.83594 -58.3496 6.83594 -35.2051 C 6.83594 -12.0605 25.6836 6.78711 48.8281 6.78711 Z M 29.9805 -27.9785 C 25.8789 -27.9785 22.6562 -31.25 22.6562 -35.2539 C 22.6562 -39.2578 25.8789 -42.5293 29.9805 -42.5293 C 33.9844 -42.5293 37.1582 -39.2578 37.1582 -35.2539 C 37.1582 -31.25 33.9844 -27.9785 29.9805 -27.9785 Z M 48.7305 -27.9785 C 44.7266 -27.9785 41.4551 -31.25 41.4551 -35.2539 C 41.4551 -39.2578 44.7266 -42.5293 48.7305 -42.5293 C 52.7344 -42.5293 56.0059 -39.2578 56.0059 -35.2539 C 56.0059 -31.25 52.7344 -27.9785 48.7305 -27.9785 Z M 67.4805 -27.9785 C 63.4766 -27.9785 60.3027 -31.25 60.3027 -35.2539 C 60.3027 -39.2578 63.4766 -42.5293 67.4805 -42.5293 C 71.582 -42.5293 74.8047 -39.2578 74.8047 -35.2539 C 74.8047 -31.25 71.582 -27.9785 67.4805 -27.9785 Z"/>
  </g>
  <g id="Heavy-S" transform="matrix(1 0 0 1 2588.47 696)">
   <path d="M 48.2422 6.15234 C 70.9961 6.15234 89.5996 -12.4512 89.5996 -35.2051 C 89.5996 -57.959 70.9961 -76.6113 48.1934 -76.6113 C 25.4395 -76.6113 6.83594 -57.959 6.83594 -35.2051 C 6.83594 -12.4512 25.4395 6.15234 48.2422 6.15234 Z M 29.3945 -28.2715 C 25.4883 -28.2715 22.4121 -31.3965 22.4121 -35.2539 C 22.4121 -39.1113 25.4883 -42.2363 29.3945 -42.2363 C 33.252 -42.2363 36.3281 -39.1113 36.3281 -35.2539 C 36.3281 -31.3965 33.252 -28.2715 29.3945 -28.2715 Z M 48.1445 -28.2715 C 44.2871 -28.2715 41.1621 -31.3965 41.1621 -35.2539 C 41.1621 -39.1113 44.2871 -42.2363 48.1445 -42.2363 C 52.002 -42.2363 55.127 -39.1113 55.127 -35.2539 C 55.127 -31.3965 52.002 -28.2715 48.1445 -28.2715 Z M 66.8457 -28.2715 C 63.0371 -28.2715 59.9609 -31.3965 59.9609 -35.2539 C 59.9609 -39.1113 63.0371 -42.2363 66.8457 -42.2363 C 70.752 -42.2363 73.877 -39.1113 73.877 -35.2539 C 73.877 -31.3965 70.752 -28.2715 66.8457 -28.2715 Z"/>
  </g>
  <g id="Bold-S" transform="matrix(1 0 0 1 2292.44 696)">
   <path d="M 47.5586 5.46875 C 69.873 5.46875 88.2324 -12.8906 88.2324 -35.2539 C 88.2324 -57.5684 69.873 -75.9277 47.5098 -75.9277 C 25.1953 -75.9277 6.83594 -57.5684 6.83594 -35.2539 C 6.83594 -12.8906 25.1953 5.46875 47.5586 5.46875 Z M 28.7598 -28.6133 C 25.0488 -28.6133 22.0703 -31.5918 22.0703 -35.2539 C 22.0703 -38.916 25.0488 -41.8945 28.7598 -41.8945 C 32.4219 -41.8945 35.3516 -38.916 35.3516 -35.2539 C 35.3516 -31.5918 32.4219 -28.6133 28.7598 -28.6133 Z M 47.4609 -28.6133 C 43.7988 -28.6133 40.8203 -31.5918 40.8203 -35.2539 C 40.8203 -38.916 43.7988 -41.8945 47.4609 -41.8945 C 51.123 -41.8945 54.1016 -38.916 54.1016 -35.2539 C 54.1016 -31.5918 51.123 -28.6133 47.4609 -28.6133 Z M 66.1621 -28.6133 C 62.5 -28.6133 59.5703 -31.5918 59.5703 -35.2539 C 59.5703 -38.916 62.5 -41.8945 66.1621 -41.8945 C 69.873 -41.8945 72.8516 -38.916 72.8516 -35.2539 C 72.8516 -31.5918 69.873 -28.6133 66.1621 -28.6133 Z"/>
  </g>
  <g id="Semibold-S" transform="matrix(1 0 0 1 1996.2 696)">
   <path d="M 47.0703 4.98047 C 69.0918 4.98047 87.3047 -13.1836 87.3047 -35.2539 C 87.3047 -57.2754 69.0918 -75.4883 47.0215 -75.4883 C 25 -75.4883 6.83594 -57.2754 6.83594 -35.2539 C 6.83594 -13.1836 25.0488 4.98047 47.0703 4.98047 Z M 28.3203 -28.8574 C 24.7559 -28.8574 21.875 -31.7383 21.875 -35.2539 C 21.875 -38.8184 24.7559 -41.6992 28.3203 -41.6992 C 31.8359 -41.6992 34.7168 -38.8184 34.7168 -35.2539 C 34.7168 -31.7383 31.8359 -28.8574 28.3203 -28.8574 Z M 47.0215 -28.8574 C 43.457 -28.8574 40.5762 -31.7383 40.5762 -35.2539 C 40.5762 -38.8184 43.457 -41.6992 47.0215 -41.6992 C 50.5371 -41.6992 53.418 -38.8184 53.418 -35.2539 C 53.418 -31.7383 50.5371 -28.8574 47.0215 -28.8574 Z M 65.7227 -28.8574 C 62.1582 -28.8574 59.3262 -31.7383 59.3262 -35.2539 C 59.3262 -38.8184 62.1582 -41.6992 65.7227 -41.6992 C 69.2383 -41.6992 72.1191 -38.8184 72.1191 -35.2539 C 72.1191 -31.7383 69.2383 -28.8574 65.7227 -28.8574 Z"/>
  </g>
  <g id="Medium-S" transform="matrix(1 0 0 1 1699.83 696)">
   <path d="M 46.7285 4.63867 C 68.5547 4.63867 86.6211 -13.4277 86.6211 -35.2539 C 86.6211 -57.0801 68.5059 -75.1465 46.6797 -75.1465 C 24.8535 -75.1465 6.83594 -57.0801 6.83594 -35.2539 C 6.83594 -13.4277 24.9023 4.63867 46.7285 4.63867 Z M 27.9785 -29.0039 C 24.5605 -29.0039 21.7285 -31.7871 21.7285 -35.2539 C 21.7285 -38.7207 24.5605 -41.5039 27.9785 -41.5039 C 31.3965 -41.5039 34.2285 -38.7207 34.2285 -35.2539 C 34.2285 -31.7871 31.4453 -29.0039 27.9785 -29.0039 Z M 46.6797 -29.0039 C 43.2129 -29.0039 40.4297 -31.7871 40.4297 -35.2539 C 40.4297 -38.7207 43.2129 -41.5039 46.6797 -41.5039 C 50.0977 -41.5039 52.9297 -38.7207 52.9297 -35.2539 C 52.9297 -31.7871 50.0977 -29.0039 46.6797 -29.0039 Z M 65.332 -29.0039 C 61.9141 -29.0039 59.1309 -31.7871 59.1309 -35.2539 C 59.1309 -38.7207 61.9141 -41.5039 65.332 -41.5039 C 68.7988 -41.5039 71.582 -38.7207 71.582 -35.2539 C 71.582 -31.7871 68.7988 -29.0039 65.332 -29.0039 Z"/>
  </g>
  <g id="Regular-S" transform="matrix(1 0 0 1 1403.58 696)">
   <path d="M 46.2402 4.15039 C 67.7734 4.15039 85.6934 -13.7207 85.6934 -35.2539 C 85.6934 -56.7871 67.7246 -74.6582 46.1914 -74.6582 C 24.707 -74.6582 6.83594 -56.7871 6.83594 -35.2539 C 6.83594 -13.7207 24.7559 4.15039 46.2402 4.15039 Z M 27.5391 -29.248 C 24.2676 -29.248 21.5332 -31.9336 21.5332 -35.2539 C 21.5332 -38.5742 24.2676 -41.2598 27.5391 -41.2598 C 30.8105 -41.2598 33.5449 -38.5742 33.5449 -35.2539 C 33.5449 -31.9336 30.8594 -29.248 27.5391 -29.248 Z M 46.1914 -29.248 C 42.8711 -29.248 40.1855 -31.9336 40.1855 -35.2539 C 40.1855 -38.5742 42.8711 -41.2598 46.1914 -41.2598 C 49.5117 -41.2598 52.2461 -38.5742 52.2461 -35.2539 C 52.2461 -31.9336 49.5117 -29.248 46.1914 -29.248 Z M 64.8926 -29.248 C 61.5723 -29.248 58.8379 -31.9336 58.8379 -35.2539 C 58.8379 -38.5742 61.5723 -41.2598 64.8926 -41.2598 C 68.1641 -41.2598 70.8984 -38.5742 70.8984 -35.2539 C 70.8984 -31.9336 68.1641 -29.248 64.8926 -29.248 Z"/>
  </g>
  <g id="Light-S" transform="matrix(1 0 0 1 1107.6 696)">
   <path d="M 45.5078 3.41797 C 66.6992 3.41797 84.2285 -14.0625 84.2285 -35.2539 C 84.2285 -56.4453 66.6504 -73.9258 45.5078 -73.9258 C 24.3164 -73.9258 6.83594 -56.4453 6.83594 -35.2539 C 6.83594 -14.0625 24.3652 3.41797 45.5078 3.41797 Z M 27.2949 -29.7363 C 24.2188 -29.7363 21.7285 -32.2266 21.7285 -35.3027 C 21.7285 -38.3301 24.2188 -40.8203 27.2949 -40.8203 C 30.3223 -40.8203 32.8125 -38.3301 32.8125 -35.3027 C 32.8125 -32.2266 30.3223 -29.7363 27.2949 -29.7363 Z M 45.5078 -29.7363 C 42.4316 -29.7363 39.9414 -32.2266 39.9414 -35.3027 C 39.9414 -38.3301 42.4316 -40.8203 45.5078 -40.8203 C 48.5352 -40.8203 51.0254 -38.3301 51.0254 -35.3027 C 51.0254 -32.2266 48.5352 -29.7363 45.5078 -29.7363 Z M 63.7207 -29.7363 C 60.6445 -29.7363 58.1543 -32.2266 58.1543 -35.3027 C 58.1543 -38.3301 60.6445 -40.8203 63.7207 -40.8203 C 66.748 -40.8203 69.2383 -38.3301 69.2383 -35.3027 C 69.2383 -32.2266 66.748 -29.7363 63.7207 -29.7363 Z"/>
  </g>
  <g id="Thin-S" transform="matrix(1 0 0 1 811.867 696)">
   <path d="M 44.5801 2.49023 C 65.2832 2.49023 82.2754 -14.5508 82.2754 -35.2539 C 82.2754 -55.957 65.2344 -72.998 44.5312 -72.998 C 23.8281 -72.998 6.83594 -55.957 6.83594 -35.2539 C 6.83594 -14.5508 23.877 2.49023 44.5801 2.49023 Z M 26.9531 -30.3711 C 24.2188 -30.3711 21.9727 -32.5684 21.9727 -35.3027 C 21.9727 -38.0371 24.2188 -40.2344 26.9531 -40.2344 C 29.6387 -40.2344 31.8359 -38.0371 31.8359 -35.3027 C 31.8359 -32.5684 29.6387 -30.3711 26.9531 -30.3711 Z M 44.5312 -30.3711 C 41.7969 -30.3711 39.5996 -32.5684 39.5996 -35.3027 C 39.5996 -38.0371 41.7969 -40.2344 44.5312 -40.2344 C 47.2656 -40.2344 49.4629 -38.0371 49.4629 -35.3027 C 49.4629 -32.5684 47.2656 -30.3711 44.5312 -30.3711 Z M 62.1582 -30.3711 C 59.4238 -30.3711 57.2266 -32.5684 57.2266 -35.3027 C 57.2266 -38.0371 59.4238 -40.2344 62.1582 -40.2344 C 64.8438 -40.2344 67.041 -38.0371 67.041 -35.3027 C 67.041 -32.5684 64.8438 -30.3711 62.1582 -30.3711 Z"/>
  </g>
  <g id="Ultralight-S" transform="matrix(1 0 0 1 515.644 696)">
   <path d="M 44.043 1.95312 C 64.502 1.95312 81.2988 -14.7949 81.2988 -35.2539 C 81.2988 -55.7129 64.502 -72.4609 44.043 -72.4609 C 23.584 -72.4609 6.83594 -55.7129 6.83594 -35.2539 C 6.83594 -14.7949 23.584 1.95312 44.043 1.95312 Z M 26.7578 -30.7129 C 24.1699 -30.7129 22.1191 -32.7637 22.1191 -35.3516 C 22.1191 -37.8906 24.1699 -39.8926 26.7578 -39.8926 C 29.2969 -39.8926 31.2988 -37.8906 31.2988 -35.3516 C 31.2988 -32.7637 29.2969 -30.7129 26.7578 -30.7129 Z M 44.043 -30.7129 C 41.4551 -30.7129 39.4531 -32.7637 39.4531 -35.3516 C 39.4531 -37.8906 41.4551 -39.8926 44.043 -39.8926 C 46.582 -39.8926 48.6328 -37.8906 48.6328 -35.3516 C 48.6328 -32.7637 46.582 -30.7129 44.043 -30.7129 Z M 61.377 -30.7129 C 58.7891 -30.7129 56.7383 -32.7637 56.7383 -35.3516 C 56.7383 -37.8906 58.7891 -39.8926 61.377 -39.8926 C 63.916 -39.8926 65.918 -37.8906 65.918 -35.3516 C 65.918 -32.7637 63.916 -30.7129 61.377 -30.7129 Z"/>
  </g>
 </g>
</svg>
