<?xml version="1.0" encoding="UTF-8"?>
<!--Generator: Apple Native CoreSVG 148-->
<!DOCTYPE svg
PUBLIC "-//W3C//DTD SVG 1.1//EN"
       "http://www.w3.org/Graphics/SVG/1.1/DTD/svg11.dtd">
<svg version="1.1" xmlns="http://www.w3.org/2000/svg" xmlns:xlink="http://www.w3.org/1999/xlink" width="3300" height="2200">
 <!--glyph: "uni1000D0.medium", point size: 100.000000, font version: "Version 16.0d11e1", template writer version: "8"-->
 <g id="Notes">
  <rect height="2200" id="artboard" style="fill:white;opacity:1" width="3300" x="0" y="0"/>
  <line id="" style="fill:none;stroke:black;opacity:1;stroke-width:0.5;" x1="263" x2="3036" y1="292" y2="292"/>
  <text style="stroke:none;fill:black;font-family:-apple-system,&quot;SF Pro Display&quot;,&quot;SF Pro Text&quot;,Helvetica,sans-serif;font-weight:bold;" transform="matrix(1 0 0 1 263 322)">Weight/Scale Variations</text>
  <text style="stroke:none;fill:black;font-family:-apple-system,&quot;SF Pro Display&quot;,&quot;SF Pro Text&quot;,Helvetica,sans-serif;text-anchor:middle;" transform="matrix(1 0 0 1 559.711 322)">Ultralight</text>
  <text style="stroke:none;fill:black;font-family:-apple-system,&quot;SF Pro Display&quot;,&quot;SF Pro Text&quot;,Helvetica,sans-serif;text-anchor:middle;" transform="matrix(1 0 0 1 856.422 322)">Thin</text>
  <text style="stroke:none;fill:black;font-family:-apple-system,&quot;SF Pro Display&quot;,&quot;SF Pro Text&quot;,Helvetica,sans-serif;text-anchor:middle;" transform="matrix(1 0 0 1 1153.13 322)">Light</text>
  <text style="stroke:none;fill:black;font-family:-apple-system,&quot;SF Pro Display&quot;,&quot;SF Pro Text&quot;,Helvetica,sans-serif;text-anchor:middle;" transform="matrix(1 0 0 1 1449.84 322)">Regular</text>
  <text style="stroke:none;fill:black;font-family:-apple-system,&quot;SF Pro Display&quot;,&quot;SF Pro Text&quot;,Helvetica,sans-serif;text-anchor:middle;" transform="matrix(1 0 0 1 1746.56 322)">Medium</text>
  <text style="stroke:none;fill:black;font-family:-apple-system,&quot;SF Pro Display&quot;,&quot;SF Pro Text&quot;,Helvetica,sans-serif;text-anchor:middle;" transform="matrix(1 0 0 1 2043.27 322)">Semibold</text>
  <text style="stroke:none;fill:black;font-family:-apple-system,&quot;SF Pro Display&quot;,&quot;SF Pro Text&quot;,Helvetica,sans-serif;text-anchor:middle;" transform="matrix(1 0 0 1 2339.98 322)">Bold</text>
  <text style="stroke:none;fill:black;font-family:-apple-system,&quot;SF Pro Display&quot;,&quot;SF Pro Text&quot;,Helvetica,sans-serif;text-anchor:middle;" transform="matrix(1 0 0 1 2636.69 322)">Heavy</text>
  <text style="stroke:none;fill:black;font-family:-apple-system,&quot;SF Pro Display&quot;,&quot;SF Pro Text&quot;,Helvetica,sans-serif;text-anchor:middle;" transform="matrix(1 0 0 1 2933.4 322)">Black</text>
  <line id="" style="fill:none;stroke:black;opacity:1;stroke-width:0.5;" x1="263" x2="3036" y1="1903" y2="1903"/>
  <g id="" transform="matrix(1 0 0 1 263 1933)">
   <path d="M 9.24805 0.830078 C 13.5547 0.830078 17.1387 -2.74414 17.1387 -7.05078 C 17.1387 -11.3574 13.5449 -14.9316 9.23828 -14.9316 C 4.94141 -14.9316 1.36719 -11.3574 1.36719 -7.05078 C 1.36719 -2.74414 4.95117 0.830078 9.24805 0.830078 Z M 9.24805 -0.654297 C 5.70312 -0.654297 2.87109 -3.49609 2.87109 -7.05078 C 2.87109 -10.6055 5.69336 -13.4473 9.23828 -13.4473 C 12.793 -13.4473 15.6348 -10.6055 15.6445 -7.05078 C 15.6543 -3.49609 12.8027 -0.654297 9.24805 -0.654297 Z M 9.22852 -3.62305 C 9.69727 -3.62305 9.9707 -3.93555 9.9707 -4.45312 L 9.9707 -6.31836 L 12.002 -6.31836 C 12.5 -6.31836 12.832 -6.57227 12.832 -7.04102 C 12.832 -7.51953 12.5195 -7.7832 12.002 -7.7832 L 9.9707 -7.7832 L 9.9707 -9.81445 C 9.9707 -10.332 9.69727 -10.6543 9.22852 -10.6543 C 8.75977 -10.6543 8.50586 -10.3125 8.50586 -9.81445 L 8.50586 -7.7832 L 6.49414 -7.7832 C 5.97656 -7.7832 5.64453 -7.51953 5.64453 -7.04102 C 5.64453 -6.57227 5.99609 -6.31836 6.49414 -6.31836 L 8.50586 -6.31836 L 8.50586 -4.45312 C 8.50586 -3.95508 8.75977 -3.62305 9.22852 -3.62305 Z"/>
  </g>
  <g id="" transform="matrix(1 0 0 1 281.506 1933)">
   <path d="M 11.709 2.91016 C 17.1582 2.91016 21.6699 -1.61133 21.6699 -7.05078 C 21.6699 -12.5 17.1484 -17.0117 11.6992 -17.0117 C 6.25977 -17.0117 1.74805 -12.5 1.74805 -7.05078 C 1.74805 -1.61133 6.26953 2.91016 11.709 2.91016 Z M 11.709 1.25 C 7.09961 1.25 3.41797 -2.44141 3.41797 -7.05078 C 3.41797 -11.6602 7.08984 -15.3516 11.6992 -15.3516 C 16.3086 -15.3516 20 -11.6602 20.0098 -7.05078 C 20.0195 -2.44141 16.3184 1.25 11.709 1.25 Z M 11.6797 -2.66602 C 12.207 -2.66602 12.5098 -3.01758 12.5098 -3.59375 L 12.5098 -6.23047 L 15.3223 -6.23047 C 15.8691 -6.23047 16.25 -6.51367 16.25 -7.03125 C 16.25 -7.55859 15.8887 -7.86133 15.3223 -7.86133 L 12.5098 -7.86133 L 12.5098 -10.6836 C 12.5098 -11.25 12.207 -11.6113 11.6797 -11.6113 C 11.1621 -11.6113 10.8789 -11.2305 10.8789 -10.6836 L 10.8789 -7.86133 L 8.07617 -7.86133 C 7.50977 -7.86133 7.13867 -7.55859 7.13867 -7.03125 C 7.13867 -6.51367 7.5293 -6.23047 8.07617 -6.23047 L 10.8789 -6.23047 L 10.8789 -3.59375 C 10.8789 -3.03711 11.1621 -2.66602 11.6797 -2.66602 Z"/>
  </g>
  <g id="" transform="matrix(1 0 0 1 304.924 1933)">
   <path d="M 14.9707 5.66406 C 21.9336 5.66406 27.6953 -0.0976562 27.6953 -7.05078 C 27.6953 -14.0137 21.9238 -19.7754 14.9609 -19.7754 C 8.00781 -19.7754 2.25586 -14.0137 2.25586 -7.05078 C 2.25586 -0.0976562 8.01758 5.66406 14.9707 5.66406 Z M 14.9707 3.84766 C 8.93555 3.84766 4.08203 -1.01562 4.08203 -7.05078 C 4.08203 -13.0957 8.92578 -17.9492 14.9609 -17.9492 C 21.0059 -17.9492 25.8594 -13.0957 25.8691 -7.05078 C 25.8789 -1.01562 21.0156 3.84766 14.9707 3.84766 Z M 14.9414 -1.38672 C 15.5176 -1.38672 15.8594 -1.77734 15.8594 -2.38281 L 15.8594 -6.13281 L 19.7754 -6.13281 C 20.3711 -6.13281 20.7812 -6.46484 20.7812 -7.02148 C 20.7812 -7.59766 20.3906 -7.93945 19.7754 -7.93945 L 15.8594 -7.93945 L 15.8594 -11.8652 C 15.8594 -12.4805 15.5176 -12.8711 14.9414 -12.8711 C 14.375 -12.8711 14.0527 -12.4609 14.0527 -11.8652 L 14.0527 -7.93945 L 10.1465 -7.93945 C 9.53125 -7.93945 9.13086 -7.59766 9.13086 -7.02148 C 9.13086 -6.46484 9.55078 -6.13281 10.1465 -6.13281 L 14.0527 -6.13281 L 14.0527 -2.38281 C 14.0527 -1.79688 14.375 -1.38672 14.9414 -1.38672 Z"/>
  </g>
  <text style="stroke:none;fill:black;font-family:-apple-system,&quot;SF Pro Display&quot;,&quot;SF Pro Text&quot;,Helvetica,sans-serif;font-weight:bold;" transform="matrix(1 0 0 1 263 1953)">Design Variations</text>
  <text style="stroke:none;fill:black;font-family:-apple-system,&quot;SF Pro Display&quot;,&quot;SF Pro Text&quot;,Helvetica,sans-serif;" transform="matrix(1 0 0 1 263 1971)">Symbols are supported in up to nine weights and three scales.</text>
  <text style="stroke:none;fill:black;font-family:-apple-system,&quot;SF Pro Display&quot;,&quot;SF Pro Text&quot;,Helvetica,sans-serif;" transform="matrix(1 0 0 1 263 1989)">For optimal layout with text and other symbols, vertically align</text>
  <text style="stroke:none;fill:black;font-family:-apple-system,&quot;SF Pro Display&quot;,&quot;SF Pro Text&quot;,Helvetica,sans-serif;" transform="matrix(1 0 0 1 263 2007)">symbols with the adjacent text.</text>
  <line id="" style="fill:none;stroke:#00AEEF;stroke-width:0.5;opacity:1.0;" x1="776" x2="776" y1="1919" y2="1933"/>
  <g id="" transform="matrix(1 0 0 1 776 1933)">
   <path d="M 3.31055 0.126953 C 3.82812 0.126953 4.08203 -0.0683594 4.26758 -0.605469 L 5.52734 -4.0625 L 11.2891 -4.0625 L 12.5488 -0.605469 C 12.7344 -0.0683594 12.9883 0.126953 13.4961 0.126953 C 14.0137 0.126953 14.3457 -0.185547 14.3457 -0.673828 C 14.3457 -0.839844 14.3164 -0.986328 14.2383 -1.20117 L 9.6582 -13.3887 C 9.43359 -13.9941 9.0332 -14.2871 8.4082 -14.2871 C 7.80273 -14.2871 7.39258 -13.9941 7.17773 -13.3984 L 2.59766 -1.19141 C 2.51953 -0.976562 2.49023 -0.830078 2.49023 -0.664062 C 2.49023 -0.175781 2.80273 0.126953 3.31055 0.126953 Z M 6.00586 -5.53711 L 8.37891 -12.1094 L 8.42773 -12.1094 L 10.8008 -5.53711 Z"/>
  </g>
  <line id="" style="fill:none;stroke:#00AEEF;stroke-width:0.5;opacity:1.0;" x1="792.836" x2="792.836" y1="1919" y2="1933"/>
  <text style="stroke:none;fill:black;font-family:-apple-system,&quot;SF Pro Display&quot;,&quot;SF Pro Text&quot;,Helvetica,sans-serif;font-weight:bold;" transform="matrix(1 0 0 1 776 1953)">Margins</text>
  <text style="stroke:none;fill:black;font-family:-apple-system,&quot;SF Pro Display&quot;,&quot;SF Pro Text&quot;,Helvetica,sans-serif;" transform="matrix(1 0 0 1 776 1971)">Leading and trailing margins on the left and right side of each symbol</text>
  <text style="stroke:none;fill:black;font-family:-apple-system,&quot;SF Pro Display&quot;,&quot;SF Pro Text&quot;,Helvetica,sans-serif;" transform="matrix(1 0 0 1 776 1989)">can be adjusted by modifying the x-location of the margin guidelines.</text>
  <text style="stroke:none;fill:black;font-family:-apple-system,&quot;SF Pro Display&quot;,&quot;SF Pro Text&quot;,Helvetica,sans-serif;" transform="matrix(1 0 0 1 776 2007)">Modifications are automatically applied proportionally to all</text>
  <text style="stroke:none;fill:black;font-family:-apple-system,&quot;SF Pro Display&quot;,&quot;SF Pro Text&quot;,Helvetica,sans-serif;" transform="matrix(1 0 0 1 776 2025)">scales and weights.</text>
  <g id="" transform="matrix(1 0 0 1 1289 1933)">
   <path d="M 2.8418 1.86523 L 4.54102 3.57422 C 5.40039 4.44336 6.38672 4.38477 7.31445 3.35938 L 17.4902 -7.85156 C 17.7539 -7.76367 18.0273 -7.7832 18.3398 -7.8418 L 19.4043 -8.03711 L 20.0684 -7.36328 L 20.0293 -6.80664 C 19.9902 -6.30859 20.1172 -5.92773 20.6055 -5.44922 L 21.3672 -4.70703 C 21.8457 -4.22852 22.4609 -4.19922 22.9297 -4.66797 L 25.8398 -7.58789 C 26.3086 -8.05664 26.2891 -8.65234 25.8105 -9.13086 L 25.0391 -9.89258 C 24.5605 -10.3711 24.1895 -10.5273 23.7109 -10.4883 L 23.1348 -10.4395 L 22.4902 -11.0742 L 22.7344 -12.1973 C 22.8613 -12.7637 22.7051 -13.2031 22.1191 -13.7891 L 19.9219 -15.9766 C 16.582 -19.2969 12.1484 -19.2188 9.25781 -16.3281 C 8.83789 -15.918 8.80859 -15.3418 9.04297 -14.9512 C 9.27734 -14.5898 9.73633 -14.3555 10.3809 -14.5215 C 11.8457 -14.8633 13.3691 -14.9219 14.7949 -13.9844 L 14.209 -12.5293 C 14.0137 -12.0508 13.9844 -11.6504 14.1113 -11.2891 L 3.04688 -0.898438 C 2.06055 0.0195312 1.98242 0.996094 2.8418 1.86523 Z M 10.752 -15.957 C 13.1836 -17.7344 16.4746 -17.4316 18.7012 -15.2051 L 21.1328 -12.793 C 21.3672 -12.5586 21.4062 -12.373 21.3379 -12.0312 L 21.0156 -10.5469 L 22.5195 -9.0625 L 23.5059 -9.12109 C 23.7598 -9.13086 23.8379 -9.11133 24.0332 -8.91602 L 24.6094 -8.33984 L 22.168 -5.89844 L 21.5918 -6.47461 C 21.3965 -6.66992 21.3672 -6.74805 21.377 -7.01172 L 21.4453 -7.98828 L 19.9512 -9.47266 L 18.4277 -9.21875 C 18.1055 -9.15039 17.959 -9.17969 17.7148 -9.41406 L 15.7129 -11.416 C 15.459 -11.6504 15.4297 -11.8164 15.5859 -12.1875 L 16.4648 -14.2773 C 14.9023 -15.7324 12.8711 -16.3574 10.8398 -15.7617 C 10.6836 -15.7227 10.625 -15.8496 10.752 -15.957 Z M 5.27344 2.30469 L 4.10156 1.14258 C 3.63281 0.683594 3.74023 0.341797 4.14062 -0.0195312 L 14.9512 -10.1953 L 16.416 -8.71094 L 6.42578 2.27539 C 6.07422 2.67578 5.74219 2.77344 5.27344 2.30469 Z"/>
  </g>
  <text style="stroke:none;fill:black;font-family:-apple-system,&quot;SF Pro Display&quot;,&quot;SF Pro Text&quot;,Helvetica,sans-serif;font-weight:bold;" transform="matrix(1 0 0 1 1289 1953)">Exporting</text>
  <text style="stroke:none;fill:black;font-family:-apple-system,&quot;SF Pro Display&quot;,&quot;SF Pro Text&quot;,Helvetica,sans-serif;" transform="matrix(1 0 0 1 1289 1971)">Symbols should be outlined when exporting to ensure the</text>
  <text style="stroke:none;fill:black;font-family:-apple-system,&quot;SF Pro Display&quot;,&quot;SF Pro Text&quot;,Helvetica,sans-serif;" transform="matrix(1 0 0 1 1289 1989)">design is preserved when submitting to Xcode.</text>
  <text id="template-version" style="stroke:none;fill:black;font-family:-apple-system,&quot;SF Pro Display&quot;,&quot;SF Pro Text&quot;,Helvetica,sans-serif;text-anchor:end;" transform="matrix(1 0 0 1 3036 1933)">Template v.2.0</text>
  <text style="stroke:none;fill:black;font-family:-apple-system,&quot;SF Pro Display&quot;,&quot;SF Pro Text&quot;,Helvetica,sans-serif;text-anchor:end;" transform="matrix(1 0 0 1 3036 1951)">Requires Xcode 12 or greater</text>
  <text style="stroke:none;fill:black;font-family:-apple-system,&quot;SF Pro Display&quot;,&quot;SF Pro Text&quot;,Helvetica,sans-serif;text-anchor:end;" transform="matrix(1 0 0 1 3036 1969)">Generated from 4.square</text>
  <text style="stroke:none;fill:black;font-family:-apple-system,&quot;SF Pro Display&quot;,&quot;SF Pro Text&quot;,Helvetica,sans-serif;text-anchor:end;" transform="matrix(1 0 0 1 3036 1987)">Typeset at 100 points</text>
  <text style="stroke:none;fill:black;font-family:-apple-system,&quot;SF Pro Display&quot;,&quot;SF Pro Text&quot;,Helvetica,sans-serif;" transform="matrix(1 0 0 1 263 726)">Small</text>
  <text style="stroke:none;fill:black;font-family:-apple-system,&quot;SF Pro Display&quot;,&quot;SF Pro Text&quot;,Helvetica,sans-serif;" transform="matrix(1 0 0 1 263 1156)">Medium</text>
  <text style="stroke:none;fill:black;font-family:-apple-system,&quot;SF Pro Display&quot;,&quot;SF Pro Text&quot;,Helvetica,sans-serif;" transform="matrix(1 0 0 1 263 1586)">Large</text>
 </g>
 <g id="Guides">
  <g id="H-reference" style="fill:#27AAE1;stroke:none;" transform="matrix(1 0 0 1 339 696)">
   <path d="M 0.976562 0 L 3.66211 0 L 12.9883 -24.4629 L 45.7031 -24.4629 L 55.0781 0 L 57.7148 0 L 30.6152 -70.459 L 28.125 -70.459 Z M 29.2969 -67.1387 L 29.3945 -67.1387 L 44.873 -26.709 L 13.8672 -26.709 Z"/>
  </g>
  <line id="Baseline-S" style="fill:none;stroke:#27AAE1;opacity:1;stroke-width:0.5;" x1="263" x2="3036" y1="696" y2="696"/>
  <line id="Capline-S" style="fill:none;stroke:#27AAE1;opacity:1;stroke-width:0.5;" x1="263" x2="3036" y1="625.541" y2="625.541"/>
  <g id="H-reference" style="fill:#27AAE1;stroke:none;" transform="matrix(1 0 0 1 339 1126)">
   <path d="M 0.976562 0 L 3.66211 0 L 12.9883 -24.4629 L 45.7031 -24.4629 L 55.0781 0 L 57.7148 0 L 30.6152 -70.459 L 28.125 -70.459 Z M 29.2969 -67.1387 L 29.3945 -67.1387 L 44.873 -26.709 L 13.8672 -26.709 Z"/>
  </g>
  <line id="Baseline-M" style="fill:none;stroke:#27AAE1;opacity:1;stroke-width:0.5;" x1="263" x2="3036" y1="1126" y2="1126"/>
  <line id="Capline-M" style="fill:none;stroke:#27AAE1;opacity:1;stroke-width:0.5;" x1="263" x2="3036" y1="1055.54" y2="1055.54"/>
  <g id="H-reference" style="fill:#27AAE1;stroke:none;" transform="matrix(1 0 0 1 339 1556)">
   <path d="M 0.976562 0 L 3.66211 0 L 12.9883 -24.4629 L 45.7031 -24.4629 L 55.0781 0 L 57.7148 0 L 30.6152 -70.459 L 28.125 -70.459 Z M 29.2969 -67.1387 L 29.3945 -67.1387 L 44.873 -26.709 L 13.8672 -26.709 Z"/>
  </g>
  <line id="Baseline-L" style="fill:none;stroke:#27AAE1;opacity:1;stroke-width:0.5;" x1="263" x2="3036" y1="1556" y2="1556"/>
  <line id="Capline-L" style="fill:none;stroke:#27AAE1;opacity:1;stroke-width:0.5;" x1="263" x2="3036" y1="1485.54" y2="1485.54"/>
  <line id="left-margin" style="fill:none;stroke:#00AEEF;stroke-width:0.5;opacity:1.0;" x1="1392.45" x2="1392.45" y1="1030.79" y2="1150.12"/>
  <line id="right-margin" style="fill:none;stroke:#00AEEF;stroke-width:0.5;opacity:1.0;" x1="1507.24" x2="1507.24" y1="1030.79" y2="1150.12"/>
 </g>
 <g id="Symbols">
  <g id="Black-L" transform="matrix(1 0 0 1 2855.62 1556)">
   <path d="M 39.9902 26.5137 L 115.576 26.5137 C 130.811 26.5137 139.502 17.8711 139.502 2.68555 L 139.502 -73.0957 C 139.502 -88.2812 130.811 -96.875 115.576 -96.875 L 39.9902 -96.875 C 24.7559 -96.875 16.0645 -88.2812 16.0645 -73.0957 L 16.0645 2.68555 C 16.0645 17.8711 24.7559 26.5137 39.9902 26.5137 Z M 42.6758 6.29883 C 38.4766 6.29883 36.3281 4.39453 36.3281 -0.146484 L 36.3281 -70.2148 C 36.3281 -74.7559 38.4766 -76.6602 42.6758 -76.6602 L 112.842 -76.6602 C 117.09 -76.6602 119.238 -74.7559 119.238 -70.2148 L 119.238 -0.146484 C 119.238 4.39453 117.09 6.29883 112.842 6.29883 Z M 86.1328 -6.5918 C 90.8691 -6.5918 93.8477 -9.32617 93.8477 -14.7461 L 93.8477 -16.1621 L 95.3613 -16.1621 C 100.195 -16.1621 103.223 -18.8477 103.223 -23.1445 C 103.223 -27.4414 100.293 -30.127 95.4102 -30.127 L 93.8477 -30.127 L 93.8477 -52.8809 C 93.8477 -59.4727 88.2324 -64.4043 80.6641 -64.4043 C 72.7051 -64.4043 68.3594 -61.7676 64.0625 -54.4922 C 59.8633 -47.5098 55.6152 -40.4297 52.7832 -34.8633 C 51.1719 -31.3965 50.5859 -28.6133 50.5859 -25.9766 C 50.5859 -19.9707 54.7852 -16.1621 61.4258 -16.1621 L 78.4668 -16.1621 L 78.4668 -14.7461 C 78.4668 -9.32617 81.4941 -6.5918 86.1328 -6.5918 Z M 78.4668 -30.127 L 66.5039 -30.127 L 66.5039 -30.5664 C 69.3359 -36.2793 73.7305 -44.4336 77.8809 -51.8066 L 78.4668 -51.8066 Z"/>
  </g>
  <g id="Heavy-L" transform="matrix(1 0 0 1 2559.93 1556)">
   <path d="M 38.8184 25.4883 L 114.697 25.4883 C 129.346 25.4883 137.451 17.4316 137.451 2.88086 L 137.451 -73.2422 C 137.451 -87.793 129.346 -95.8496 114.697 -95.8496 L 38.8184 -95.8496 C 24.2188 -95.8496 16.0645 -87.793 16.0645 -73.2422 L 16.0645 2.88086 C 16.0645 17.4316 24.2188 25.4883 38.8184 25.4883 Z M 40.918 8.00781 C 36.084 8.00781 33.5938 5.71289 33.5938 0.585938 L 33.5938 -70.9473 C 33.5938 -76.0742 36.084 -78.3691 40.918 -78.3691 L 112.549 -78.3691 C 117.383 -78.3691 119.922 -76.0742 119.922 -70.9473 L 119.922 0.585938 C 119.922 5.71289 117.383 8.00781 112.549 8.00781 Z M 85.0586 -6.64062 C 89.2578 -6.64062 91.8945 -9.08203 91.8945 -13.916 L 91.8945 -16.7969 L 94.3359 -16.7969 C 98.5352 -16.7969 101.172 -19.1895 101.172 -22.998 C 101.172 -26.7578 98.6328 -29.1504 94.3359 -29.1504 L 91.8945 -29.1504 L 91.8945 -54.3457 C 91.8945 -60.2539 86.9629 -64.502 80.2734 -64.502 C 73.291 -64.502 69.4336 -62.207 65.625 -55.8594 C 60.8887 -48.291 55.5664 -39.7461 52.1484 -33.4961 C 50.6836 -30.4688 50.1465 -27.9785 50.1465 -25.5859 C 50.1465 -20.2148 53.8574 -16.7969 59.7656 -16.7969 L 78.2715 -16.7969 L 78.2715 -13.916 C 78.2715 -9.13086 80.9082 -6.64062 85.0586 -6.64062 Z M 78.2715 -29.1504 L 64.209 -29.1504 L 64.209 -29.5898 C 67.4805 -35.8398 73.0957 -45.4102 77.6855 -53.1738 L 78.2715 -53.1738 Z"/>
  </g>
  <g id="Bold-L" transform="matrix(1 0 0 1 2264.37 1556)">
   <path d="M 37.5 24.3652 L 113.721 24.3652 C 127.637 24.3652 135.156 16.8945 135.156 3.07617 L 135.156 -73.3887 C 135.156 -87.207 127.637 -94.7266 113.721 -94.7266 L 37.5 -94.7266 C 23.6328 -94.7266 16.0645 -87.2559 16.0645 -73.3887 L 16.0645 3.07617 C 16.0645 16.8945 23.6328 24.3652 37.5 24.3652 Z M 38.9648 9.91211 C 33.4473 9.91211 30.5176 7.17773 30.5176 1.41602 L 30.5176 -71.7285 C 30.5176 -77.5391 33.4473 -80.2734 38.9648 -80.2734 L 112.256 -80.2734 C 117.725 -80.2734 120.703 -77.5391 120.703 -71.7285 L 120.703 1.41602 C 120.703 7.17773 117.725 9.91211 112.256 9.91211 Z M 83.7891 -6.64062 C 87.4512 -6.64062 89.6973 -8.83789 89.6973 -12.9883 L 89.6973 -17.5293 L 93.1641 -17.5293 C 96.6797 -17.5293 98.9258 -19.5801 98.9258 -22.8027 C 98.9258 -26.0254 96.7285 -28.0762 93.2129 -28.0762 L 89.6973 -28.0762 L 89.6973 -56.0059 C 89.6973 -61.084 85.5957 -64.6484 79.834 -64.6484 C 73.9746 -64.6484 70.6055 -62.6953 67.3828 -57.373 C 62.1094 -49.1699 55.4688 -38.9648 51.4648 -31.9336 C 50.1465 -29.3457 49.6094 -27.2949 49.6094 -25.1465 C 49.6094 -20.5078 52.832 -17.5293 57.9102 -17.5293 L 77.9785 -17.5293 L 77.9785 -12.9883 C 77.9785 -8.88672 80.2734 -6.64062 83.7891 -6.64062 Z M 77.9785 -28.0762 L 61.6211 -28.0762 L 61.6211 -28.5156 C 65.332 -35.3027 72.3633 -46.5332 77.4902 -54.7363 L 77.9785 -54.7363 Z"/>
  </g>
  <g id="Semibold-L" transform="matrix(1 0 0 1 1968.44 1556)">
   <path d="M 36.6211 23.584 L 113.037 23.584 C 126.514 23.584 133.594 16.5039 133.594 3.17383 L 133.594 -73.5352 C 133.594 -86.8164 126.514 -93.9453 113.037 -93.9453 L 36.6211 -93.9453 C 23.1934 -93.9453 16.0645 -86.8652 16.0645 -73.5352 L 16.0645 3.17383 C 16.0645 16.5527 23.1934 23.584 36.6211 23.584 Z M 37.5977 11.2793 C 31.6406 11.2793 28.418 8.20312 28.418 1.95312 L 28.418 -72.3145 C 28.418 -78.5156 31.6406 -81.5918 37.5977 -81.5918 L 112.061 -81.5918 C 117.969 -81.5918 121.24 -78.5156 121.24 -72.3145 L 121.24 1.95312 C 121.24 8.20312 117.969 11.2793 112.061 11.2793 Z M 82.959 -6.68945 C 86.2305 -6.68945 88.1836 -8.69141 88.1836 -12.3535 L 88.1836 -18.0176 L 92.3828 -18.0176 C 95.4102 -18.0176 97.3633 -19.873 97.3633 -22.7051 C 97.3633 -25.4883 95.459 -27.3438 92.3828 -27.3438 L 88.1836 -27.3438 L 88.1836 -57.1777 C 88.1836 -61.6211 84.6191 -64.7949 79.541 -64.7949 C 74.4141 -64.7949 71.4355 -63.0371 68.5547 -58.4473 C 62.8906 -49.7559 55.4199 -38.4277 50.9766 -30.9082 C 49.7559 -28.6133 49.2676 -26.8066 49.2676 -24.8535 C 49.2676 -20.7031 52.1484 -18.0176 56.6406 -18.0176 L 77.832 -18.0176 L 77.832 -12.3535 C 77.832 -8.74023 79.7852 -6.68945 82.959 -6.68945 Z M 77.832 -27.3438 L 59.8633 -27.3438 L 59.8633 -27.7344 C 63.916 -34.9609 71.875 -47.2656 77.3438 -55.8105 L 77.832 -55.8105 Z"/>
  </g>
  <g id="Medium-L" transform="matrix(1 0 0 1 1672.31 1556)">
   <path d="M 35.9375 22.998 L 112.5 22.998 C 125.635 22.998 132.422 16.2109 132.422 3.27148 L 132.422 -73.6328 C 132.422 -86.5234 125.635 -93.3105 112.5 -93.3105 L 35.9375 -93.3105 C 22.9004 -93.3105 16.0645 -86.5723 16.0645 -73.6328 L 16.0645 3.27148 C 16.0645 16.2598 22.9004 22.998 35.9375 22.998 Z M 36.5723 12.2559 C 30.2246 12.2559 26.8066 8.98438 26.8066 2.39258 L 26.8066 -72.7051 C 26.8066 -79.2969 30.2246 -82.6172 36.5723 -82.6172 L 111.865 -82.6172 C 118.115 -82.6172 121.68 -79.2969 121.68 -72.7051 L 121.68 2.39258 C 121.68 8.98438 118.115 12.2559 111.865 12.2559 Z M 82.3242 -6.68945 C 85.2539 -6.68945 87.0117 -8.54492 87.0117 -11.8652 L 87.0117 -18.4082 L 91.7969 -18.4082 C 94.4336 -18.4082 96.1914 -20.0684 96.1914 -22.6074 C 96.1914 -25.0977 94.4824 -26.8066 91.7969 -26.8066 L 87.0117 -26.8066 L 87.0117 -58.0566 C 87.0117 -62.0605 83.8867 -64.8438 79.2969 -64.8438 C 74.7559 -64.8438 72.0703 -63.2812 69.4824 -59.2285 C 63.5254 -50.1953 55.3711 -37.9883 50.6348 -30.0781 C 49.4629 -28.0273 49.0234 -26.416 49.0234 -24.6094 C 49.0234 -20.8496 51.6113 -18.4082 55.7129 -18.4082 L 77.6855 -18.4082 L 77.6855 -11.8652 C 77.6855 -8.59375 79.4434 -6.68945 82.3242 -6.68945 Z M 77.6855 -26.8066 L 58.4961 -26.8066 L 58.4961 -27.1973 C 62.793 -34.668 71.4844 -47.8516 77.2461 -56.6406 L 77.6855 -56.6406 Z"/>
  </g>
  <g id="Regular-L" transform="matrix(1 0 0 1 1376.38 1556)">
   <path d="M 35.0586 22.2168 L 111.816 22.2168 C 124.463 22.2168 130.859 15.8691 130.859 3.41797 L 130.859 -73.7305 C 130.859 -86.1816 124.463 -92.5293 111.816 -92.5293 L 35.0586 -92.5293 C 22.4609 -92.5293 16.0645 -86.2305 16.0645 -73.7305 L 16.0645 3.41797 C 16.0645 15.918 22.4609 22.2168 35.0586 22.2168 Z M 35.2539 13.5742 C 28.418 13.5742 24.707 9.96094 24.707 2.97852 L 24.707 -73.291 C 24.707 -80.2734 28.418 -83.8867 35.2539 -83.8867 L 111.67 -83.8867 C 118.359 -83.8867 122.217 -80.2734 122.217 -73.291 L 122.217 2.97852 C 122.217 9.96094 118.359 13.5742 111.67 13.5742 Z M 81.4941 -6.73828 C 84.0332 -6.73828 85.5469 -8.39844 85.5469 -11.2305 L 85.5469 -18.8965 L 91.0156 -18.8965 C 93.1641 -18.8965 94.6289 -20.3613 94.6289 -22.4609 C 94.6289 -24.6094 93.2129 -26.0742 91.0156 -26.0742 L 85.5469 -26.0742 L 85.5469 -59.1797 C 85.5469 -62.6465 82.9102 -64.9414 79.0039 -64.9414 C 75.1953 -64.9414 72.8516 -63.623 70.6543 -60.2539 C 64.3066 -50.8301 55.3223 -37.5 50.1465 -29.0527 C 49.0723 -27.2949 48.6816 -25.9277 48.6816 -24.3164 C 48.6816 -21.0449 50.8789 -18.8965 54.4434 -18.8965 L 77.4902 -18.8965 L 77.4902 -11.2305 C 77.4902 -8.44727 79.0039 -6.73828 81.4941 -6.73828 Z M 77.4902 -26.0742 L 56.7871 -26.0742 L 56.7871 -26.416 C 61.377 -34.3262 70.9961 -48.584 77.0996 -57.7148 L 77.4902 -57.7148 Z"/>
  </g>
  <g id="Light-L" transform="matrix(1 0 0 1 1080.5 1556)">
   <path d="M 34.0332 21.4355 L 111.23 21.4355 C 123.096 21.4355 129.199 15.2344 129.199 3.56445 L 129.199 -73.8281 C 129.199 -85.5469 123.096 -91.6992 111.23 -91.6992 L 34.0332 -91.6992 C 22.168 -91.6992 16.0645 -85.6445 16.0645 -73.8281 L 16.0645 3.56445 C 16.0645 15.3809 22.168 21.4355 34.0332 21.4355 Z M 34.1797 14.7949 C 26.709 14.7949 22.7051 10.8398 22.7051 3.22266 L 22.7051 -73.4863 C 22.7051 -81.1523 26.709 -85.0586 34.1797 -85.0586 L 111.035 -85.0586 C 118.359 -85.0586 122.559 -81.1523 122.559 -73.4863 L 122.559 3.22266 C 122.559 10.8398 118.359 14.7949 111.035 14.7949 Z M 80.3223 -6.88477 C 82.3242 -6.88477 83.4961 -8.20312 83.4961 -10.3027 L 83.4961 -19.7266 L 89.8438 -19.7266 C 91.5527 -19.7266 92.7246 -20.8984 92.7246 -22.5586 C 92.7246 -24.2188 91.6016 -25.3906 89.8438 -25.3906 L 83.4961 -25.3906 L 83.4961 -59.9121 C 83.4961 -62.6953 81.4453 -64.5508 78.3203 -64.5508 C 75.4395 -64.5508 73.584 -63.4766 71.7773 -60.791 C 65.7227 -51.8066 55.0781 -36.1328 50 -27.7832 C 49.1699 -26.5137 48.8281 -25.3906 48.8281 -24.0723 C 48.8281 -21.4355 50.5859 -19.7266 53.5645 -19.7266 L 77.1973 -19.7266 L 77.1973 -10.3027 C 77.1973 -8.20312 78.418 -6.88477 80.3223 -6.88477 Z M 77.1973 -25.3906 L 55.3223 -25.3906 L 55.3223 -25.7812 C 59.668 -33.0566 71.4355 -50.5371 76.8555 -58.4961 L 77.1973 -58.4961 Z"/>
  </g>
  <g id="Thin-L" transform="matrix(1 0 0 1 784.889 1556)">
   <path d="M 32.666 20.3613 L 110.352 20.3613 C 121.24 20.3613 127.002 14.4531 127.002 3.75977 L 127.002 -73.9746 C 127.002 -84.7168 121.24 -90.5762 110.352 -90.5762 L 32.666 -90.5762 C 21.7773 -90.5762 16.0645 -84.8633 16.0645 -73.9746 L 16.0645 3.75977 C 16.0645 14.6484 21.7773 20.3613 32.666 20.3613 Z M 32.8125 16.4062 C 24.4141 16.4062 19.9707 12.0117 19.9707 3.56445 L 19.9707 -73.7793 C 19.9707 -82.2754 24.4141 -86.6699 32.8125 -86.6699 L 110.205 -86.6699 C 118.359 -86.6699 123.047 -82.2754 123.047 -73.7793 L 123.047 3.56445 C 123.047 12.0117 118.359 16.4062 110.205 16.4062 Z M 78.8086 -7.08008 C 80.0781 -7.08008 80.8105 -7.91016 80.8105 -9.13086 L 80.8105 -20.8008 L 88.3789 -20.8008 C 89.502 -20.8008 90.2344 -21.6309 90.2344 -22.7051 C 90.2344 -23.7305 89.502 -24.5605 88.3789 -24.5605 L 80.8105 -24.5605 L 80.8105 -60.8887 C 80.8105 -62.7441 79.541 -63.9648 77.4414 -63.9648 C 75.6836 -63.9648 74.5605 -63.2812 73.291 -61.4746 C 67.5293 -53.1738 54.7852 -34.2773 49.7559 -26.123 C 49.3164 -25.4395 49.0234 -24.6094 49.0234 -23.7793 C 49.0234 -21.9238 50.1953 -20.8008 52.3438 -20.8008 L 76.8066 -20.8008 L 76.8066 -9.13086 C 76.8066 -7.91016 77.6367 -7.08008 78.8086 -7.08008 Z M 76.8066 -24.5605 L 53.418 -24.5605 L 53.418 -24.9023 C 57.373 -31.4453 71.9727 -53.0762 76.5137 -59.5703 L 76.8066 -59.5703 Z"/>
  </g>
  <g id="Ultralight-L" transform="matrix(1 0 0 1 488.739 1556)">
   <path d="M 31.9824 19.7754 L 109.961 19.7754 C 120.312 19.7754 125.879 14.0625 125.879 3.85742 L 125.879 -74.0723 C 125.879 -84.2773 120.312 -89.9902 109.961 -89.9902 L 31.9824 -89.9902 C 21.582 -89.9902 16.0645 -84.4727 16.0645 -74.0723 L 16.0645 3.85742 C 16.0645 14.2578 21.582 19.7754 31.9824 19.7754 Z M 32.1289 17.2363 C 23.1934 17.2363 18.6035 12.6465 18.6035 3.75977 L 18.6035 -73.9258 C 18.6035 -82.8125 23.1934 -87.4512 32.1289 -87.4512 L 109.766 -87.4512 C 118.359 -87.4512 123.291 -82.8125 123.291 -73.9258 L 123.291 3.75977 C 123.291 12.6465 118.359 17.2363 109.766 17.2363 Z M 78.0273 -7.17773 C 78.9062 -7.17773 79.4434 -7.76367 79.4434 -8.49609 L 79.4434 -21.3867 L 87.5977 -21.3867 C 88.4277 -21.3867 88.9648 -22.0215 88.9648 -22.7539 C 88.9648 -23.4863 88.4277 -24.1211 87.5977 -24.1211 L 79.4434 -24.1211 L 79.4434 -61.4258 C 79.4434 -62.793 78.5645 -63.6719 77.002 -63.6719 C 75.8301 -63.6719 75.0488 -63.2324 74.0234 -61.8164 C 68.5059 -53.8574 54.5898 -33.3984 49.6582 -25.293 C 49.4141 -24.8535 49.1211 -24.2188 49.1211 -23.6328 C 49.1211 -22.2168 50 -21.3867 51.7578 -21.3867 L 76.6113 -21.3867 L 76.6113 -8.49609 C 76.6113 -7.76367 77.2461 -7.17773 78.0273 -7.17773 Z M 76.6113 -24.1211 L 52.4414 -24.1211 L 52.4414 -24.4141 C 56.2012 -30.6152 72.2656 -54.3945 76.3184 -60.1562 L 76.6113 -60.1562 Z"/>
  </g>
  <g id="Black-M" transform="matrix(1 0 0 1 2872.19 1126)">
   <path d="M 31.9824 13.5742 L 90.4297 13.5742 C 102.686 13.5742 109.961 6.29883 109.961 -5.95703 L 109.961 -64.4043 C 109.961 -76.6602 102.686 -83.9355 90.4297 -83.9355 L 31.9824 -83.9355 C 19.7266 -83.9355 12.4512 -76.6602 12.4512 -64.4043 L 12.4512 -5.95703 C 12.4512 6.29883 19.7266 13.5742 31.9824 13.5742 Z M 34.9121 -4.73633 C 32.0801 -4.73633 30.7617 -5.81055 30.7617 -8.88672 L 30.7617 -61.4746 C 30.7617 -64.5508 32.0801 -65.6738 34.9121 -65.6738 L 87.5 -65.6738 C 90.332 -65.6738 91.6504 -64.5508 91.6504 -61.4746 L 91.6504 -8.88672 C 91.6504 -5.81055 90.332 -4.73633 87.5 -4.73633 Z M 67.627 -13.0859 C 71.6309 -13.0859 74.3164 -15.332 74.3164 -19.9707 L 74.3164 -20.0195 L 74.6582 -20.0195 C 79.1016 -20.0195 81.7383 -22.3633 81.7383 -26.123 C 81.7383 -29.8828 79.1504 -32.2266 74.707 -32.2266 L 74.3164 -32.2266 L 74.3164 -47.2656 C 74.3164 -53.0762 69.3359 -57.4219 62.6953 -57.4219 C 55.6641 -57.4219 51.9531 -55.127 48.1934 -48.584 C 45.7031 -44.2383 43.0664 -39.4531 41.6504 -36.084 C 40.3809 -33.1543 39.8926 -30.6152 39.8926 -28.418 C 39.8926 -23.291 43.5059 -20.0195 49.3164 -20.0195 L 60.9863 -20.0195 L 60.9863 -19.9707 C 60.9863 -15.332 63.623 -13.0859 67.627 -13.0859 Z M 60.9863 -32.2266 L 53.8574 -32.2266 L 53.8574 -32.6172 C 55.3711 -35.9863 58.252 -42.0898 60.4492 -46.6309 L 60.9863 -46.6309 Z"/>
  </g>
  <g id="Heavy-M" transform="matrix(1 0 0 1 2576.39 1126)">
   <path d="M 31.0059 12.6465 L 89.6484 12.6465 C 101.416 12.6465 108.154 5.9082 108.154 -5.81055 L 108.154 -64.5508 C 108.154 -76.2695 101.416 -83.0566 89.6484 -83.0566 L 31.0059 -83.0566 C 19.2383 -83.0566 12.4512 -76.3184 12.4512 -64.5508 L 12.4512 -5.81055 C 12.4512 5.9082 19.2383 12.6465 31.0059 12.6465 Z M 33.252 -3.17383 C 29.9316 -3.17383 28.2715 -4.63867 28.2715 -8.1543 L 28.2715 -62.207 C 28.2715 -65.7715 29.9316 -67.2363 33.252 -67.2363 L 87.3535 -67.2363 C 90.6738 -67.2363 92.334 -65.7715 92.334 -62.207 L 92.334 -8.1543 C 92.334 -4.63867 90.6738 -3.17383 87.3535 -3.17383 Z M 66.748 -13.0859 C 70.3613 -13.0859 72.6562 -15.1367 72.6562 -19.3359 L 72.6562 -20.5078 L 73.8281 -20.5078 C 77.6855 -20.5078 79.9805 -22.6074 79.9805 -25.9277 C 79.9805 -29.248 77.7344 -31.3477 73.877 -31.3477 L 72.6562 -31.3477 L 72.6562 -48.7305 C 72.6562 -53.8574 68.3105 -57.666 62.4512 -57.666 C 56.25 -57.666 52.9297 -55.6641 49.5605 -49.9512 C 46.4844 -44.8242 43.0664 -39.0625 41.0156 -34.9609 C 39.7949 -32.3242 39.3555 -30.0781 39.3555 -28.0762 C 39.3555 -23.4375 42.627 -20.5078 47.7539 -20.5078 L 60.791 -20.5078 L 60.791 -19.3359 C 60.791 -15.1367 63.1348 -13.0859 66.748 -13.0859 Z M 60.791 -31.3477 L 51.709 -31.3477 L 51.709 -31.6895 C 53.7598 -35.8398 57.4219 -42.6758 60.3516 -47.9492 L 60.791 -47.9492 Z"/>
  </g>
  <g id="Bold-M" transform="matrix(1 0 0 1 2280.68 1126)">
   <path d="M 29.8828 11.6699 L 88.7207 11.6699 C 99.9512 11.6699 106.152 5.46875 106.152 -5.66406 L 106.152 -64.6973 C 106.152 -75.8789 99.9512 -82.0312 88.7207 -82.0312 L 29.8828 -82.0312 C 18.6523 -82.0312 12.4512 -75.8789 12.4512 -64.6973 L 12.4512 -5.66406 C 12.4512 5.51758 18.6523 11.6699 29.8828 11.6699 Z M 31.3965 -1.41602 C 27.5391 -1.41602 25.5371 -3.27148 25.5371 -7.32422 L 25.5371 -63.0371 C 25.5371 -67.1387 27.5391 -68.9453 31.3965 -68.9453 L 87.207 -68.9453 C 91.0156 -68.9453 93.0664 -67.1387 93.0664 -63.0371 L 93.0664 -7.32422 C 93.0664 -3.27148 91.0156 -1.41602 87.207 -1.41602 Z M 65.7227 -13.0859 C 68.8965 -13.0859 70.8496 -14.9414 70.8496 -18.5547 L 70.8496 -21.0449 L 72.9004 -21.0449 C 76.0742 -21.0449 78.0762 -22.8516 78.0762 -25.6836 C 78.0762 -28.5645 76.123 -30.3711 72.9492 -30.3711 L 70.8496 -30.3711 L 70.8496 -50.3418 C 70.8496 -54.7363 67.1875 -57.959 62.1582 -57.959 C 56.9336 -57.959 54.0039 -56.2012 51.123 -51.4648 C 47.3633 -45.5078 43.0176 -38.623 40.2832 -33.6426 C 39.1602 -31.3477 38.7695 -29.4922 38.7695 -27.6855 C 38.7695 -23.6328 41.5527 -21.0449 45.9961 -21.0449 L 60.5957 -21.0449 L 60.5957 -18.5547 C 60.5957 -14.9414 62.5977 -13.0859 65.7227 -13.0859 Z M 60.5957 -30.3711 L 49.3164 -30.3711 L 49.3164 -30.7129 C 51.9531 -35.5957 56.4941 -43.2617 60.1562 -49.4141 L 60.5957 -49.4141 Z"/>
  </g>
  <g id="Semibold-M" transform="matrix(1 0 0 1 1984.65 1126)">
   <path d="M 29.1016 10.9863 L 88.0859 10.9863 C 98.9746 10.9863 104.785 5.17578 104.785 -5.56641 L 104.785 -64.8438 C 104.785 -75.5859 98.9746 -81.3477 88.0859 -81.3477 L 29.1016 -81.3477 C 18.2617 -81.3477 12.4512 -75.5859 12.4512 -64.8438 L 12.4512 -5.56641 C 12.4512 5.22461 18.2617 10.9863 29.1016 10.9863 Z M 30.127 -0.195312 C 25.8789 -0.195312 23.6328 -2.34375 23.6328 -6.78711 L 23.6328 -63.623 C 23.6328 -68.0664 25.8789 -70.166 30.127 -70.166 L 87.1094 -70.166 C 91.2598 -70.166 93.6035 -68.0664 93.6035 -63.623 L 93.6035 -6.78711 C 93.6035 -2.34375 91.2598 -0.195312 87.1094 -0.195312 Z M 64.9902 -13.0859 C 67.8711 -13.0859 69.6289 -14.7949 69.6289 -18.0664 L 69.6289 -21.4355 L 72.2656 -21.4355 C 75 -21.4355 76.7578 -23.0469 76.7578 -25.5371 C 76.7578 -28.0762 75.0488 -29.6875 72.3145 -29.6875 L 69.6289 -29.6875 L 69.6289 -51.416 C 69.6289 -55.3711 66.4062 -58.1543 61.9629 -58.1543 C 57.373 -58.1543 54.7363 -56.5918 52.2461 -52.4902 C 47.998 -45.9473 43.0176 -38.2812 39.7949 -32.7148 C 38.7207 -30.7129 38.3301 -29.1016 38.3301 -27.3926 C 38.3301 -23.7793 40.8691 -21.4355 44.8242 -21.4355 L 60.4492 -21.4355 L 60.4492 -18.0664 C 60.4492 -14.8438 62.207 -13.0859 64.9902 -13.0859 Z M 60.4492 -29.6875 L 47.7051 -29.6875 L 47.7051 -29.9805 C 50.6836 -35.498 55.8594 -43.7012 60.0586 -50.3906 L 60.4492 -50.3906 Z"/>
  </g>
  <g id="Medium-M" transform="matrix(1 0 0 1 1688.47 1126)">
   <path d="M 28.5156 10.4492 L 87.6465 10.4492 C 98.2422 10.4492 103.711 4.98047 103.711 -5.46875 L 103.711 -64.8926 C 103.711 -75.3418 98.2422 -80.8105 87.6465 -80.8105 L 28.5156 -80.8105 C 17.9688 -80.8105 12.4512 -75.3906 12.4512 -64.8926 L 12.4512 -5.46875 C 12.4512 4.98047 17.9688 10.4492 28.5156 10.4492 Z M 29.1504 0.732422 C 24.6582 0.732422 22.168 -1.61133 22.168 -6.34766 L 22.168 -64.0137 C 22.168 -68.75 24.6582 -71.0938 29.1504 -71.0938 L 87.0117 -71.0938 C 91.4551 -71.0938 93.9941 -68.75 93.9941 -64.0137 L 93.9941 -6.34766 C 93.9941 -1.61133 91.4551 0.732422 87.0117 0.732422 Z M 64.502 -13.0371 C 67.0898 -13.0371 68.6523 -14.6973 68.6523 -17.6758 L 68.6523 -21.7285 L 71.7773 -21.7285 C 74.1699 -21.7285 75.7324 -23.1934 75.7324 -25.4395 C 75.7324 -27.6855 74.2188 -29.1504 71.8262 -29.1504 L 68.6523 -29.1504 L 68.6523 -52.2949 C 68.6523 -55.8105 65.8203 -58.3008 61.7676 -58.3008 C 57.7148 -58.3008 55.3223 -56.8848 53.0273 -53.3203 C 48.4375 -46.2891 43.0176 -38.0371 39.4531 -32.0312 C 38.4277 -30.2246 38.0371 -28.7598 38.0371 -27.1973 C 38.0371 -23.877 40.332 -21.7285 43.8965 -21.7285 L 60.3516 -21.7285 L 60.3516 -17.6758 C 60.3516 -14.7461 61.9629 -13.0371 64.502 -13.0371 Z M 60.3516 -29.1504 L 46.4355 -29.1504 L 46.4355 -29.4922 C 49.7559 -35.3516 55.4199 -44.043 60.0098 -51.1719 L 60.3516 -51.1719 Z"/>
  </g>
  <g id="Regular-M" transform="matrix(1 0 0 1 1392.45 1126)">
   <path d="M 27.7832 9.76562 L 87.0117 9.76562 C 97.2656 9.76562 102.344 4.6875 102.344 -5.37109 L 102.344 -64.9902 C 102.344 -75.0488 97.2656 -80.127 87.0117 -80.127 L 27.7832 -80.127 C 17.5781 -80.127 12.4512 -75.0977 12.4512 -64.9902 L 12.4512 -5.37109 C 12.4512 4.73633 17.5781 9.76562 27.7832 9.76562 Z M 27.8809 1.9043 C 22.998 1.9043 20.3125 -0.683594 20.3125 -5.76172 L 20.3125 -64.5996 C 20.3125 -69.6777 22.998 -72.2656 27.8809 -72.2656 L 86.9141 -72.2656 C 91.748 -72.2656 94.4824 -69.6777 94.4824 -64.5996 L 94.4824 -5.76172 C 94.4824 -0.683594 91.748 1.9043 86.9141 1.9043 Z M 63.7695 -13.0371 C 66.1133 -13.0371 67.4316 -14.5508 67.4316 -17.1387 L 67.4316 -22.1191 L 71.1426 -22.1191 C 73.0957 -22.1191 74.4141 -23.3887 74.4141 -25.293 C 74.4141 -27.1973 73.1445 -28.5156 71.1426 -28.5156 L 67.4316 -28.5156 L 67.4316 -53.3691 C 67.4316 -56.4453 65.0879 -58.4961 61.5723 -58.4961 C 58.1543 -58.4961 56.0547 -57.2754 54.1016 -54.3457 C 49.0723 -46.7285 43.0176 -37.7441 38.9648 -31.1523 C 37.9883 -29.541 37.6465 -28.3691 37.6465 -26.9043 C 37.6465 -24.0234 39.5996 -22.1191 42.7246 -22.1191 L 60.2539 -22.1191 L 60.2539 -17.1387 C 60.2539 -14.5996 61.5723 -13.0371 63.7695 -13.0371 Z M 60.2539 -28.5156 L 44.8242 -28.5156 L 44.8242 -28.8086 C 48.5352 -35.2051 54.7852 -44.4824 59.9121 -52.1973 L 60.2539 -52.1973 Z"/>
  </g>
  <g id="Light-M" transform="matrix(1 0 0 1 1096.47 1126)">
   <path d="M 26.8555 9.0332 L 86.4746 9.0332 C 95.9961 9.0332 100.879 4.15039 100.879 -5.22461 L 100.879 -65.0879 C 100.879 -74.5117 95.9961 -79.3945 86.4746 -79.3945 L 26.8555 -79.3945 C 17.334 -79.3945 12.4512 -74.5605 12.4512 -65.0879 L 12.4512 -5.22461 C 12.4512 4.19922 17.334 9.0332 26.8555 9.0332 Z M 26.9531 2.97852 C 21.4844 2.97852 18.5059 0.0976562 18.5059 -5.56641 L 18.5059 -64.7949 C 18.5059 -70.4102 21.4844 -73.3398 26.9531 -73.3398 L 86.3281 -73.3398 C 91.748 -73.3398 94.8242 -70.4102 94.8242 -64.7949 L 94.8242 -5.56641 C 94.8242 0.0976562 91.748 2.97852 86.3281 2.97852 Z M 62.7441 -13.1836 C 64.5508 -13.1836 65.625 -14.3555 65.625 -16.3574 L 65.625 -22.8516 L 70.166 -22.8516 C 71.6797 -22.8516 72.7051 -23.877 72.7051 -25.3906 C 72.7051 -26.8555 71.6797 -27.9297 70.166 -27.9297 L 65.625 -27.9297 L 65.625 -54.0527 C 65.625 -56.4941 63.7695 -58.1055 60.9863 -58.1055 C 58.3496 -58.1055 56.6895 -57.1777 55.127 -54.7852 C 50.293 -47.6562 42.8223 -36.5234 38.8184 -30.0293 C 38.0859 -28.8086 37.7441 -27.832 37.7441 -26.709 C 37.7441 -24.3652 39.3555 -22.8516 41.8945 -22.8516 L 59.9609 -22.8516 L 59.9609 -16.3574 C 59.9609 -14.4043 61.0352 -13.1836 62.7441 -13.1836 Z M 59.9609 -27.9297 L 43.5059 -27.9297 L 43.5059 -28.1738 C 47.0215 -34.1309 55.1758 -46.1914 59.668 -52.9297 L 59.9609 -52.9297 Z"/>
  </g>
  <g id="Thin-M" transform="matrix(1 0 0 1 800.758 1126)">
   <path d="M 25.6348 8.05664 L 85.7422 8.05664 C 94.3848 8.05664 98.877 3.4668 98.877 -5.0293 L 98.877 -65.2344 C 98.877 -73.7305 94.3848 -78.3691 85.7422 -78.3691 L 25.6348 -78.3691 C 16.9922 -78.3691 12.4512 -73.877 12.4512 -65.2344 L 12.4512 -5.0293 C 12.4512 3.56445 16.9922 8.05664 25.6348 8.05664 Z M 25.7324 4.44336 C 19.3848 4.44336 16.0645 1.12305 16.0645 -5.22461 L 16.0645 -65.0391 C 16.0645 -71.4355 19.3848 -74.7559 25.7324 -74.7559 L 85.5957 -74.7559 C 91.748 -74.7559 95.2637 -71.4355 95.2637 -65.0391 L 95.2637 -5.22461 C 95.2637 1.12305 91.748 4.44336 85.5957 4.44336 Z M 61.4258 -13.3789 C 62.5488 -13.3789 63.2324 -14.1113 63.2324 -15.2832 L 63.2324 -23.8281 L 68.7988 -23.8281 C 69.8242 -23.8281 70.459 -24.5605 70.459 -25.4883 C 70.459 -26.416 69.8242 -27.1484 68.7988 -27.1484 L 63.2324 -27.1484 L 63.2324 -54.9316 C 63.2324 -56.543 62.0605 -57.6172 60.2051 -57.6172 C 58.5938 -57.6172 57.5684 -57.0312 56.4453 -55.4199 C 51.9531 -48.8281 42.5293 -34.9121 38.623 -28.5645 C 38.1836 -27.8809 37.9395 -27.1484 37.9395 -26.416 C 37.9395 -24.8047 39.0137 -23.8281 40.8203 -23.8281 L 59.6191 -23.8281 L 59.6191 -15.2832 C 59.6191 -14.1113 60.3516 -13.3789 61.4258 -13.3789 Z M 59.6191 -27.1484 L 41.7969 -27.1484 L 41.7969 -27.3926 C 44.9707 -32.666 55.6641 -48.5352 59.375 -53.8574 L 59.6191 -53.8574 Z"/>
  </g>
  <g id="Ultralight-M" transform="matrix(1 0 0 1 504.535 1126)">
   <path d="M 25 7.56836 L 85.3516 7.56836 C 93.5059 7.56836 97.9004 3.125 97.9004 -4.98047 L 97.9004 -65.2832 C 97.9004 -73.3887 93.5059 -77.832 85.3516 -77.832 L 25 -77.832 C 16.7969 -77.832 12.4512 -73.4863 12.4512 -65.2832 L 12.4512 -4.98047 C 12.4512 3.22266 16.7969 7.56836 25 7.56836 Z M 25.0977 5.17578 C 18.3594 5.17578 14.8438 1.66016 14.8438 -5.07812 L 14.8438 -65.1855 C 14.8438 -71.9727 18.3594 -75.4395 25.0977 -75.4395 L 85.2051 -75.4395 C 91.748 -75.4395 95.5078 -71.9727 95.5078 -65.1855 L 95.5078 -5.07812 C 95.5078 1.66016 91.748 5.17578 85.2051 5.17578 Z M 60.6934 -13.4766 C 61.4746 -13.4766 61.9629 -14.0137 61.9629 -14.6973 L 61.9629 -24.3164 L 68.1152 -24.3164 C 68.8477 -24.3164 69.3359 -24.9023 69.3359 -25.5371 C 69.3359 -26.2207 68.8477 -26.7578 68.1152 -26.7578 L 61.9629 -26.7578 L 61.9629 -55.3711 C 61.9629 -56.5918 61.1816 -57.373 59.8145 -57.373 C 58.7402 -57.373 58.0078 -56.9336 57.1289 -55.7129 C 52.7832 -49.4629 42.3828 -34.082 38.5254 -27.7832 C 38.2812 -27.3438 38.0371 -26.8066 38.0371 -26.2695 C 38.0371 -25.0488 38.8184 -24.3164 40.2832 -24.3164 L 59.4238 -24.3164 L 59.4238 -14.6973 C 59.4238 -14.0137 60.0098 -13.4766 60.6934 -13.4766 Z M 59.4238 -26.7578 L 40.918 -26.7578 L 40.918 -27.002 C 43.8965 -31.8848 55.9082 -49.707 59.1797 -54.3945 L 59.4238 -54.3945 Z"/>
  </g>
  <g id="Black-S" transform="matrix(1 0 0 1 2885.5 696)">
   <path d="M 25 2.92969 L 70.8008 2.92969 C 80.3711 2.92969 86.0352 -2.73438 86.0352 -12.3047 L 86.0352 -58.1055 C 86.0352 -67.6758 80.3711 -73.3398 70.8008 -73.3398 L 25 -73.3398 C 15.4297 -73.3398 9.76562 -67.6758 9.76562 -58.1055 L 9.76562 -12.3047 C 9.76562 -2.73438 15.4297 2.92969 25 2.92969 Z M 27.2461 -11.2305 C 25 -11.2305 23.9258 -12.1094 23.9258 -14.5508 L 23.9258 -55.8594 C 23.9258 -58.3008 25 -59.1797 27.2461 -59.1797 L 68.5547 -59.1797 C 70.8008 -59.1797 71.875 -58.3008 71.875 -55.8594 L 71.875 -14.5508 C 71.875 -12.1094 70.8008 -11.2305 68.5547 -11.2305 Z M 52.9297 -17.8711 C 56.0547 -17.8711 58.1055 -19.6289 58.1055 -23.2422 L 58.1055 -23.3398 L 58.4473 -23.3398 C 61.8652 -23.3398 63.916 -25.1465 63.916 -28.0762 C 63.916 -31.0059 61.9141 -32.8125 58.4961 -32.8125 L 58.1055 -32.8125 L 58.1055 -44.7754 C 58.1055 -49.2676 54.248 -52.6367 49.1211 -52.6367 C 43.6523 -52.6367 40.7715 -50.8789 37.8418 -45.8008 C 35.8398 -42.334 33.7402 -38.5254 32.5684 -35.8398 C 31.5918 -33.5449 31.2012 -31.5918 31.2012 -29.8828 C 31.2012 -25.8789 34.0332 -23.3398 38.5254 -23.3398 L 47.7539 -23.3398 L 47.7539 -23.2422 C 47.7539 -19.6289 49.8047 -17.8711 52.9297 -17.8711 Z M 47.7539 -32.8125 L 42.041 -32.8125 L 42.041 -33.1055 C 43.2617 -35.8398 45.5566 -40.625 47.3633 -44.2383 L 47.7539 -44.2383 Z"/>
  </g>
  <g id="Heavy-S" transform="matrix(1 0 0 1 2589.4 696)">
   <path d="M 24.3652 2.34375 L 70.2637 2.34375 C 79.541 2.34375 84.8145 -2.97852 84.8145 -12.207 L 84.8145 -58.2031 C 84.8145 -67.4316 79.541 -72.7539 70.2637 -72.7539 L 24.3652 -72.7539 C 15.0879 -72.7539 9.76562 -67.4316 9.76562 -58.2031 L 9.76562 -12.207 C 9.76562 -2.97852 15.0879 2.34375 24.3652 2.34375 Z M 26.0742 -10.1562 C 23.5352 -10.1562 22.2656 -11.2793 22.2656 -14.0137 L 22.2656 -56.3965 C 22.2656 -59.1309 23.5352 -60.2539 26.0742 -60.2539 L 68.5059 -60.2539 C 71.0449 -60.2539 72.3633 -59.1309 72.3633 -56.3965 L 72.3633 -14.0137 C 72.3633 -11.2793 71.0449 -10.1562 68.5059 -10.1562 Z M 52.3438 -17.8711 C 55.2246 -17.8711 57.0801 -19.5312 57.0801 -22.8027 L 57.0801 -23.6328 L 57.9102 -23.6328 C 60.9375 -23.6328 62.793 -25.293 62.793 -27.9297 C 62.793 -30.5664 60.9863 -32.2266 57.959 -32.2266 L 57.0801 -32.2266 L 57.0801 -45.8008 C 57.0801 -49.8535 53.6133 -52.8809 48.9746 -52.8809 C 44.0918 -52.8809 41.4551 -51.2695 38.8184 -46.7773 C 36.3281 -42.6758 33.7402 -38.3301 32.0801 -35.0586 C 31.1523 -32.959 30.7617 -31.25 30.7617 -29.6387 C 30.7617 -25.9766 33.3496 -23.6328 37.4023 -23.6328 L 47.6562 -23.6328 L 47.6562 -22.8027 C 47.6562 -19.5312 49.5117 -17.8711 52.3438 -17.8711 Z M 47.6562 -32.2266 L 40.5762 -32.2266 L 40.5762 -32.4707 C 42.1875 -35.8398 44.873 -40.8691 47.2656 -45.166 L 47.6562 -45.166 Z"/>
  </g>
  <g id="Bold-S" transform="matrix(1 0 0 1 2293.35 696)">
   <path d="M 23.6328 1.66016 L 69.6289 1.66016 C 78.6133 1.66016 83.4961 -3.22266 83.4961 -12.1094 L 83.4961 -58.3008 C 83.4961 -67.1875 78.6133 -72.0703 69.6289 -72.0703 L 23.6328 -72.0703 C 14.6973 -72.0703 9.76562 -67.1875 9.76562 -58.3008 L 9.76562 -12.1094 C 9.76562 -3.22266 14.6973 1.66016 23.6328 1.66016 Z M 24.8047 -8.93555 C 21.9238 -8.93555 20.3613 -10.3516 20.3613 -13.4277 L 20.3613 -56.9824 C 20.3613 -60.0586 21.9238 -61.4746 24.8047 -61.4746 L 68.457 -61.4746 C 71.3379 -61.4746 72.9004 -60.0586 72.9004 -56.9824 L 72.9004 -13.4277 C 72.9004 -10.3516 71.3379 -8.93555 68.457 -8.93555 Z M 51.709 -17.8223 C 54.2969 -17.8223 55.9082 -19.3848 55.9082 -22.3633 L 55.9082 -23.9746 L 57.3242 -23.9746 C 59.9121 -23.9746 61.5234 -25.4395 61.5234 -27.7344 C 61.5234 -30.0293 59.9609 -31.543 57.373 -31.543 L 55.9082 -31.543 L 55.9082 -46.9727 C 55.9082 -50.5371 52.9297 -53.125 48.8281 -53.125 C 44.5801 -53.125 42.1875 -51.709 39.8926 -47.9004 C 36.8164 -43.0664 33.7891 -38.1836 31.5918 -34.2285 C 30.6641 -32.3242 30.3223 -30.8594 30.3223 -29.3457 C 30.3223 -26.0742 32.6172 -23.9746 36.1816 -23.9746 L 47.5586 -23.9746 L 47.5586 -22.3633 C 47.5586 -19.3848 49.1699 -17.8223 51.709 -17.8223 Z M 47.5586 -31.543 L 38.8672 -31.543 L 38.8672 -31.7871 C 41.0156 -35.791 44.1406 -41.1133 47.2168 -46.1914 L 47.5586 -46.1914 Z"/>
  </g>
  <g id="Semibold-S" transform="matrix(1 0 0 1 1997.1 696)">
   <path d="M 23.0957 1.17188 L 69.1895 1.17188 C 77.9297 1.17188 82.5684 -3.36914 82.5684 -12.0117 L 82.5684 -58.3984 C 82.5684 -67.041 77.9297 -71.582 69.1895 -71.582 L 23.0957 -71.582 C 14.4043 -71.582 9.76562 -67.041 9.76562 -58.3984 L 9.76562 -12.0117 C 9.76562 -3.36914 14.4043 1.17188 23.0957 1.17188 Z M 23.877 -8.10547 C 20.752 -8.10547 19.0918 -9.7168 19.0918 -12.9883 L 19.0918 -57.4219 C 19.0918 -60.6934 20.752 -62.3047 23.877 -62.3047 L 68.4082 -62.3047 C 71.5332 -62.3047 73.2422 -60.6934 73.2422 -57.4219 L 73.2422 -12.9883 C 73.2422 -9.7168 71.5332 -8.10547 68.4082 -8.10547 Z M 51.2695 -17.8223 C 53.6621 -17.8223 55.127 -19.2871 55.127 -22.0215 L 55.127 -24.1699 L 56.9336 -24.1699 C 59.1797 -24.1699 60.6445 -25.5371 60.6445 -27.6367 C 60.6445 -29.6875 59.2285 -31.0547 56.9336 -31.0547 L 55.127 -31.0547 L 55.127 -47.7539 C 55.127 -51.0254 52.4414 -53.3203 48.7305 -53.3203 C 44.9219 -53.3203 42.7246 -52.0508 40.625 -48.6328 C 37.207 -43.3105 33.7891 -38.0371 31.2012 -33.6426 C 30.3223 -31.8848 29.9805 -30.5664 29.9805 -29.1504 C 29.9805 -26.1719 32.0801 -24.1699 35.3516 -24.1699 L 47.4609 -24.1699 L 47.4609 -22.0215 C 47.4609 -19.2871 48.9258 -17.8223 51.2695 -17.8223 Z M 47.4609 -31.0547 L 37.7441 -31.0547 L 37.7441 -31.2988 C 40.1855 -35.791 43.6523 -41.3086 47.1191 -46.9238 L 47.4609 -46.9238 Z"/>
  </g>
  <g id="Medium-S" transform="matrix(1 0 0 1 1700.75 696)">
   <path d="M 22.7051 0.830078 L 68.8965 0.830078 C 77.4414 0.830078 81.8359 -3.51562 81.8359 -11.9629 L 81.8359 -58.4473 C 81.8359 -66.8945 77.4414 -71.2402 68.8965 -71.2402 L 22.7051 -71.2402 C 14.209 -71.2402 9.76562 -66.8945 9.76562 -58.4473 L 9.76562 -11.9629 C 9.76562 -3.51562 14.209 0.830078 22.7051 0.830078 Z M 23.1934 -7.4707 C 19.9219 -7.4707 18.0664 -9.22852 18.0664 -12.6953 L 18.0664 -57.7148 C 18.0664 -61.1816 19.9219 -62.9395 23.1934 -62.9395 L 68.4082 -62.9395 C 71.6797 -62.9395 73.5352 -61.1816 73.5352 -57.7148 L 73.5352 -12.6953 C 73.5352 -9.22852 71.6797 -7.4707 68.4082 -7.4707 Z M 50.9277 -17.8223 C 53.1738 -17.8223 54.4922 -19.1895 54.4922 -21.7773 L 54.4922 -24.3652 L 56.6406 -24.3652 C 58.6426 -24.3652 59.9609 -25.5859 59.9609 -27.5391 C 59.9609 -29.4434 58.6914 -30.7129 56.6406 -30.7129 L 54.4922 -30.7129 L 54.4922 -48.3398 C 54.4922 -51.3672 52.0996 -53.4668 48.6328 -53.4668 C 45.166 -53.4668 43.1152 -52.2461 41.1621 -49.2188 C 37.5 -43.5547 33.7891 -37.9395 30.957 -33.1543 C 30.0293 -31.5918 29.7363 -30.3711 29.7363 -29.0039 C 29.7363 -26.2207 31.6895 -24.3652 34.7168 -24.3652 L 47.4121 -24.3652 L 47.4121 -21.7773 C 47.4121 -19.2383 48.7305 -17.8223 50.9277 -17.8223 Z M 47.4121 -30.7129 L 36.8652 -30.7129 L 36.8652 -30.957 C 39.5996 -35.791 43.2617 -41.4551 47.0703 -47.4609 L 47.4121 -47.4609 Z"/>
  </g>
  <g id="Regular-S" transform="matrix(1 0 0 1 1404.51 696)">
   <path d="M 22.2168 0.390625 L 68.457 0.390625 C 76.8066 0.390625 80.9082 -3.71094 80.9082 -11.9141 L 80.9082 -58.4961 C 80.9082 -66.6992 76.8066 -70.8008 68.457 -70.8008 L 22.2168 -70.8008 C 13.916 -70.8008 9.76562 -66.6992 9.76562 -58.4961 L 9.76562 -11.9141 C 9.76562 -3.71094 13.916 0.390625 22.2168 0.390625 Z M 22.3145 -6.68945 C 18.7988 -6.68945 16.7969 -8.54492 16.7969 -12.2559 L 16.7969 -58.1543 C 16.7969 -61.8164 18.7988 -63.7207 22.3145 -63.7207 L 68.3594 -63.7207 C 71.875 -63.7207 73.877 -61.8164 73.877 -58.1543 L 73.877 -12.2559 C 73.877 -8.54492 71.875 -6.68945 68.3594 -6.68945 Z M 50.4883 -17.7734 C 52.5391 -17.7734 53.7109 -19.0918 53.7109 -21.4355 L 53.7109 -24.5605 L 56.25 -24.5605 C 57.959 -24.5605 59.1309 -25.7324 59.1309 -27.3926 C 59.1309 -29.1016 57.959 -30.2246 56.25 -30.2246 L 53.7109 -30.2246 L 53.7109 -49.1211 C 53.7109 -51.8066 51.6113 -53.6621 48.5352 -53.6621 C 45.5078 -53.6621 43.6035 -52.5879 41.8945 -49.9512 C 37.8418 -43.7988 33.7891 -37.793 30.6152 -32.5684 C 29.6875 -31.1523 29.3945 -30.0781 29.3945 -28.8086 C 29.3945 -26.2695 31.1523 -24.5605 33.8379 -24.5605 L 47.3145 -24.5605 L 47.3145 -21.4355 C 47.3145 -19.1406 48.4863 -17.7734 50.4883 -17.7734 Z M 47.3145 -30.2246 L 35.7422 -30.2246 L 35.7422 -30.4688 C 38.7695 -35.7422 42.7246 -41.6504 47.0215 -48.1445 L 47.3145 -48.1445 Z"/>
  </g>
  <g id="Light-S" transform="matrix(1 0 0 1 1108.46 696)">
   <path d="M 21.3867 -0.292969 L 67.9688 -0.292969 C 75.7324 -0.292969 79.5898 -4.15039 79.5898 -11.7676 L 79.5898 -58.5938 C 79.5898 -66.2109 75.7324 -70.1172 67.9688 -70.1172 L 21.3867 -70.1172 C 13.6719 -70.1172 9.76562 -66.2598 9.76562 -58.5938 L 9.76562 -11.7676 C 9.76562 -4.15039 13.6719 -0.292969 21.3867 -0.292969 Z M 21.4844 -5.71289 C 17.4316 -5.71289 15.1855 -7.86133 15.1855 -12.0605 L 15.1855 -58.3008 C 15.1855 -62.5 17.4316 -64.6973 21.4844 -64.6973 L 67.8711 -64.6973 C 71.875 -64.6973 74.1699 -62.5 74.1699 -58.3008 L 74.1699 -12.0605 C 74.1699 -7.86133 71.875 -5.71289 67.8711 -5.71289 Z M 49.5605 -17.9199 C 51.1719 -17.9199 52.0996 -18.9453 52.0996 -20.752 L 52.0996 -25.2441 L 55.3223 -25.2441 C 56.6895 -25.2441 57.6172 -26.1719 57.6172 -27.4902 C 57.6172 -28.8086 56.7383 -29.7363 55.3223 -29.7363 L 52.0996 -29.7363 L 52.0996 -49.707 C 52.0996 -51.8555 50.4395 -53.3203 47.998 -53.3203 C 45.6543 -53.3203 44.1895 -52.4902 42.8223 -50.3906 C 38.916 -44.5801 33.5938 -36.7188 30.4688 -31.5918 C 29.7852 -30.4688 29.541 -29.6387 29.541 -28.6133 C 29.541 -26.5625 30.9082 -25.2441 33.1543 -25.2441 L 47.0703 -25.2441 L 47.0703 -20.752 C 47.0703 -18.9941 48.0469 -17.9199 49.5605 -17.9199 Z M 47.0703 -29.7363 L 34.5703 -29.7363 L 34.5703 -29.9316 C 37.4023 -34.7656 43.0664 -43.1641 46.8262 -48.8281 L 47.0703 -48.8281 Z"/>
  </g>
  <g id="Thin-S" transform="matrix(1 0 0 1 812.599 696)">
   <path d="M 20.3125 -1.12305 L 67.334 -1.12305 C 74.2676 -1.12305 77.8809 -4.78516 77.8809 -11.6211 L 77.8809 -58.6914 C 77.8809 -65.5762 74.2676 -69.2383 67.334 -69.2383 L 20.3125 -69.2383 C 13.3789 -69.2383 9.76562 -65.625 9.76562 -58.6914 L 9.76562 -11.6211 C 9.76562 -4.6875 13.3789 -1.12305 20.3125 -1.12305 Z M 20.4102 -4.44336 C 15.625 -4.44336 13.0859 -6.93359 13.0859 -11.8164 L 13.0859 -58.5449 C 13.0859 -63.3789 15.625 -65.918 20.4102 -65.918 L 67.2363 -65.918 C 71.875 -65.918 74.5605 -63.3789 74.5605 -58.5449 L 74.5605 -11.8164 C 74.5605 -6.93359 71.875 -4.44336 67.2363 -4.44336 Z M 48.3887 -18.0664 C 49.3652 -18.0664 50 -18.75 50 -19.7754 L 50 -26.123 L 54.1504 -26.123 C 55.0293 -26.123 55.6641 -26.709 55.6641 -27.5879 C 55.6641 -28.418 55.0781 -29.0527 54.1504 -29.0527 L 50 -29.0527 L 50 -50.4883 C 50 -51.9043 48.9746 -52.8809 47.3145 -52.8809 C 45.8496 -52.8809 44.9219 -52.3438 43.9941 -50.9277 C 40.3809 -45.6543 33.3496 -35.3027 30.2734 -30.2734 C 29.8828 -29.6387 29.6875 -29.0527 29.6875 -28.3691 C 29.6875 -27.002 30.6152 -26.123 32.1777 -26.123 L 46.7773 -26.123 L 46.7773 -19.7754 C 46.7773 -18.75 47.4121 -18.0664 48.3887 -18.0664 Z M 46.7773 -29.0527 L 33.1055 -29.0527 L 33.1055 -29.248 C 35.5957 -33.4961 43.5059 -45.2148 46.582 -49.6582 L 46.7773 -49.6582 Z"/>
  </g>
  <g id="Ultralight-S" transform="matrix(1 0 0 1 516.352 696)">
   <path d="M 19.7754 -1.5625 L 66.9922 -1.5625 C 73.5352 -1.5625 76.9531 -5.12695 76.9531 -11.5234 L 76.9531 -58.7891 C 76.9531 -65.2344 73.5352 -68.75 66.9922 -68.75 L 19.7754 -68.75 C 13.2324 -68.75 9.76562 -65.2832 9.76562 -58.7891 L 9.76562 -11.5234 C 9.76562 -5.0293 13.2324 -1.5625 19.7754 -1.5625 Z M 19.873 -3.75977 C 14.6484 -3.75977 11.9629 -6.44531 11.9629 -11.6699 L 11.9629 -58.6426 C 11.9629 -63.8672 14.6484 -66.5527 19.873 -66.5527 L 66.8945 -66.5527 C 71.875 -66.5527 74.7559 -63.8672 74.7559 -58.6426 L 74.7559 -11.6699 C 74.7559 -6.44531 71.875 -3.75977 66.8945 -3.75977 Z M 47.7539 -18.1641 C 48.4375 -18.1641 48.877 -18.6523 48.877 -19.2871 L 48.877 -26.5625 L 53.5645 -26.5625 C 54.1992 -26.5625 54.6387 -27.0508 54.6387 -27.6367 C 54.6387 -28.2227 54.1992 -28.7109 53.5645 -28.7109 L 48.877 -28.7109 L 48.877 -50.8789 C 48.877 -51.9531 48.1934 -52.6367 46.9727 -52.6367 C 45.9473 -52.6367 45.3125 -52.2461 44.5801 -51.2207 C 41.1133 -46.1914 33.252 -34.5215 30.1758 -29.5898 C 29.9805 -29.1992 29.7852 -28.7109 29.7852 -28.2715 C 29.7852 -27.1973 30.4688 -26.5625 31.6895 -26.5625 L 46.6309 -26.5625 L 46.6309 -19.2871 C 46.6309 -18.6523 47.0703 -18.1641 47.7539 -18.1641 Z M 46.6309 -28.7109 L 32.3242 -28.7109 L 32.3242 -28.9062 C 34.668 -32.8125 43.75 -46.2402 46.4355 -50.0977 L 46.6309 -50.0977 Z"/>
  </g>
 </g>
</svg>
