<?xml version="1.0" encoding="UTF-8"?>
<!--Generator: Apple Native CoreSVG 148-->
<!DOCTYPE svg
PUBLIC "-//W3C//DTD SVG 1.1//EN"
       "http://www.w3.org/Graphics/SVG/1.1/DTD/svg11.dtd">
<svg version="1.1" xmlns="http://www.w3.org/2000/svg" xmlns:xlink="http://www.w3.org/1999/xlink" width="3300" height="2200">
 <!--glyph: "uni10082A.medium", point size: 100.000000, font version: "Version 16.0d11e1", template writer version: "8"-->
 <g id="Notes">
  <rect height="2200" id="artboard" style="fill:white;opacity:1" width="3300" x="0" y="0"/>
  <line id="" style="fill:none;stroke:black;opacity:1;stroke-width:0.5;" x1="263" x2="3036" y1="292" y2="292"/>
  <text style="stroke:none;fill:black;font-family:-apple-system,&quot;SF Pro Display&quot;,&quot;SF Pro Text&quot;,Helvetica,sans-serif;font-weight:bold;" transform="matrix(1 0 0 1 263 322)">Weight/Scale Variations</text>
  <text style="stroke:none;fill:black;font-family:-apple-system,&quot;SF Pro Display&quot;,&quot;SF Pro Text&quot;,Helvetica,sans-serif;text-anchor:middle;" transform="matrix(1 0 0 1 559.711 322)">Ultralight</text>
  <text style="stroke:none;fill:black;font-family:-apple-system,&quot;SF Pro Display&quot;,&quot;SF Pro Text&quot;,Helvetica,sans-serif;text-anchor:middle;" transform="matrix(1 0 0 1 856.422 322)">Thin</text>
  <text style="stroke:none;fill:black;font-family:-apple-system,&quot;SF Pro Display&quot;,&quot;SF Pro Text&quot;,Helvetica,sans-serif;text-anchor:middle;" transform="matrix(1 0 0 1 1153.13 322)">Light</text>
  <text style="stroke:none;fill:black;font-family:-apple-system,&quot;SF Pro Display&quot;,&quot;SF Pro Text&quot;,Helvetica,sans-serif;text-anchor:middle;" transform="matrix(1 0 0 1 1449.84 322)">Regular</text>
  <text style="stroke:none;fill:black;font-family:-apple-system,&quot;SF Pro Display&quot;,&quot;SF Pro Text&quot;,Helvetica,sans-serif;text-anchor:middle;" transform="matrix(1 0 0 1 1746.56 322)">Medium</text>
  <text style="stroke:none;fill:black;font-family:-apple-system,&quot;SF Pro Display&quot;,&quot;SF Pro Text&quot;,Helvetica,sans-serif;text-anchor:middle;" transform="matrix(1 0 0 1 2043.27 322)">Semibold</text>
  <text style="stroke:none;fill:black;font-family:-apple-system,&quot;SF Pro Display&quot;,&quot;SF Pro Text&quot;,Helvetica,sans-serif;text-anchor:middle;" transform="matrix(1 0 0 1 2339.98 322)">Bold</text>
  <text style="stroke:none;fill:black;font-family:-apple-system,&quot;SF Pro Display&quot;,&quot;SF Pro Text&quot;,Helvetica,sans-serif;text-anchor:middle;" transform="matrix(1 0 0 1 2636.69 322)">Heavy</text>
  <text style="stroke:none;fill:black;font-family:-apple-system,&quot;SF Pro Display&quot;,&quot;SF Pro Text&quot;,Helvetica,sans-serif;text-anchor:middle;" transform="matrix(1 0 0 1 2933.4 322)">Black</text>
  <line id="" style="fill:none;stroke:black;opacity:1;stroke-width:0.5;" x1="263" x2="3036" y1="1903" y2="1903"/>
  <g id="" transform="matrix(1 0 0 1 263 1933)">
   <path d="M 9.24805 0.830078 C 13.5547 0.830078 17.1387 -2.74414 17.1387 -7.05078 C 17.1387 -11.3574 13.5449 -14.9316 9.23828 -14.9316 C 4.94141 -14.9316 1.36719 -11.3574 1.36719 -7.05078 C 1.36719 -2.74414 4.95117 0.830078 9.24805 0.830078 Z M 9.24805 -0.654297 C 5.70312 -0.654297 2.87109 -3.49609 2.87109 -7.05078 C 2.87109 -10.6055 5.69336 -13.4473 9.23828 -13.4473 C 12.793 -13.4473 15.6348 -10.6055 15.6445 -7.05078 C 15.6543 -3.49609 12.8027 -0.654297 9.24805 -0.654297 Z M 9.22852 -3.62305 C 9.69727 -3.62305 9.9707 -3.93555 9.9707 -4.45312 L 9.9707 -6.31836 L 12.002 -6.31836 C 12.5 -6.31836 12.832 -6.57227 12.832 -7.04102 C 12.832 -7.51953 12.5195 -7.7832 12.002 -7.7832 L 9.9707 -7.7832 L 9.9707 -9.81445 C 9.9707 -10.332 9.69727 -10.6543 9.22852 -10.6543 C 8.75977 -10.6543 8.50586 -10.3125 8.50586 -9.81445 L 8.50586 -7.7832 L 6.49414 -7.7832 C 5.97656 -7.7832 5.64453 -7.51953 5.64453 -7.04102 C 5.64453 -6.57227 5.99609 -6.31836 6.49414 -6.31836 L 8.50586 -6.31836 L 8.50586 -4.45312 C 8.50586 -3.95508 8.75977 -3.62305 9.22852 -3.62305 Z"/>
  </g>
  <g id="" transform="matrix(1 0 0 1 281.506 1933)">
   <path d="M 11.709 2.91016 C 17.1582 2.91016 21.6699 -1.61133 21.6699 -7.05078 C 21.6699 -12.5 17.1484 -17.0117 11.6992 -17.0117 C 6.25977 -17.0117 1.74805 -12.5 1.74805 -7.05078 C 1.74805 -1.61133 6.26953 2.91016 11.709 2.91016 Z M 11.709 1.25 C 7.09961 1.25 3.41797 -2.44141 3.41797 -7.05078 C 3.41797 -11.6602 7.08984 -15.3516 11.6992 -15.3516 C 16.3086 -15.3516 20 -11.6602 20.0098 -7.05078 C 20.0195 -2.44141 16.3184 1.25 11.709 1.25 Z M 11.6797 -2.66602 C 12.207 -2.66602 12.5098 -3.01758 12.5098 -3.59375 L 12.5098 -6.23047 L 15.3223 -6.23047 C 15.8691 -6.23047 16.25 -6.51367 16.25 -7.03125 C 16.25 -7.55859 15.8887 -7.86133 15.3223 -7.86133 L 12.5098 -7.86133 L 12.5098 -10.6836 C 12.5098 -11.25 12.207 -11.6113 11.6797 -11.6113 C 11.1621 -11.6113 10.8789 -11.2305 10.8789 -10.6836 L 10.8789 -7.86133 L 8.07617 -7.86133 C 7.50977 -7.86133 7.13867 -7.55859 7.13867 -7.03125 C 7.13867 -6.51367 7.5293 -6.23047 8.07617 -6.23047 L 10.8789 -6.23047 L 10.8789 -3.59375 C 10.8789 -3.03711 11.1621 -2.66602 11.6797 -2.66602 Z"/>
  </g>
  <g id="" transform="matrix(1 0 0 1 304.924 1933)">
   <path d="M 14.9707 5.66406 C 21.9336 5.66406 27.6953 -0.0976562 27.6953 -7.05078 C 27.6953 -14.0137 21.9238 -19.7754 14.9609 -19.7754 C 8.00781 -19.7754 2.25586 -14.0137 2.25586 -7.05078 C 2.25586 -0.0976562 8.01758 5.66406 14.9707 5.66406 Z M 14.9707 3.84766 C 8.93555 3.84766 4.08203 -1.01562 4.08203 -7.05078 C 4.08203 -13.0957 8.92578 -17.9492 14.9609 -17.9492 C 21.0059 -17.9492 25.8594 -13.0957 25.8691 -7.05078 C 25.8789 -1.01562 21.0156 3.84766 14.9707 3.84766 Z M 14.9414 -1.38672 C 15.5176 -1.38672 15.8594 -1.77734 15.8594 -2.38281 L 15.8594 -6.13281 L 19.7754 -6.13281 C 20.3711 -6.13281 20.7812 -6.46484 20.7812 -7.02148 C 20.7812 -7.59766 20.3906 -7.93945 19.7754 -7.93945 L 15.8594 -7.93945 L 15.8594 -11.8652 C 15.8594 -12.4805 15.5176 -12.8711 14.9414 -12.8711 C 14.375 -12.8711 14.0527 -12.4609 14.0527 -11.8652 L 14.0527 -7.93945 L 10.1465 -7.93945 C 9.53125 -7.93945 9.13086 -7.59766 9.13086 -7.02148 C 9.13086 -6.46484 9.55078 -6.13281 10.1465 -6.13281 L 14.0527 -6.13281 L 14.0527 -2.38281 C 14.0527 -1.79688 14.375 -1.38672 14.9414 -1.38672 Z"/>
  </g>
  <text style="stroke:none;fill:black;font-family:-apple-system,&quot;SF Pro Display&quot;,&quot;SF Pro Text&quot;,Helvetica,sans-serif;font-weight:bold;" transform="matrix(1 0 0 1 263 1953)">Design Variations</text>
  <text style="stroke:none;fill:black;font-family:-apple-system,&quot;SF Pro Display&quot;,&quot;SF Pro Text&quot;,Helvetica,sans-serif;" transform="matrix(1 0 0 1 263 1971)">Symbols are supported in up to nine weights and three scales.</text>
  <text style="stroke:none;fill:black;font-family:-apple-system,&quot;SF Pro Display&quot;,&quot;SF Pro Text&quot;,Helvetica,sans-serif;" transform="matrix(1 0 0 1 263 1989)">For optimal layout with text and other symbols, vertically align</text>
  <text style="stroke:none;fill:black;font-family:-apple-system,&quot;SF Pro Display&quot;,&quot;SF Pro Text&quot;,Helvetica,sans-serif;" transform="matrix(1 0 0 1 263 2007)">symbols with the adjacent text.</text>
  <line id="" style="fill:none;stroke:#00AEEF;stroke-width:0.5;opacity:1.0;" x1="776" x2="776" y1="1919" y2="1933"/>
  <g id="" transform="matrix(1 0 0 1 776 1933)">
   <path d="M 3.31055 0.126953 C 3.82812 0.126953 4.08203 -0.0683594 4.26758 -0.605469 L 5.52734 -4.0625 L 11.2891 -4.0625 L 12.5488 -0.605469 C 12.7344 -0.0683594 12.9883 0.126953 13.4961 0.126953 C 14.0137 0.126953 14.3457 -0.185547 14.3457 -0.673828 C 14.3457 -0.839844 14.3164 -0.986328 14.2383 -1.20117 L 9.6582 -13.3887 C 9.43359 -13.9941 9.0332 -14.2871 8.4082 -14.2871 C 7.80273 -14.2871 7.39258 -13.9941 7.17773 -13.3984 L 2.59766 -1.19141 C 2.51953 -0.976562 2.49023 -0.830078 2.49023 -0.664062 C 2.49023 -0.175781 2.80273 0.126953 3.31055 0.126953 Z M 6.00586 -5.53711 L 8.37891 -12.1094 L 8.42773 -12.1094 L 10.8008 -5.53711 Z"/>
  </g>
  <line id="" style="fill:none;stroke:#00AEEF;stroke-width:0.5;opacity:1.0;" x1="792.836" x2="792.836" y1="1919" y2="1933"/>
  <text style="stroke:none;fill:black;font-family:-apple-system,&quot;SF Pro Display&quot;,&quot;SF Pro Text&quot;,Helvetica,sans-serif;font-weight:bold;" transform="matrix(1 0 0 1 776 1953)">Margins</text>
  <text style="stroke:none;fill:black;font-family:-apple-system,&quot;SF Pro Display&quot;,&quot;SF Pro Text&quot;,Helvetica,sans-serif;" transform="matrix(1 0 0 1 776 1971)">Leading and trailing margins on the left and right side of each symbol</text>
  <text style="stroke:none;fill:black;font-family:-apple-system,&quot;SF Pro Display&quot;,&quot;SF Pro Text&quot;,Helvetica,sans-serif;" transform="matrix(1 0 0 1 776 1989)">can be adjusted by modifying the x-location of the margin guidelines.</text>
  <text style="stroke:none;fill:black;font-family:-apple-system,&quot;SF Pro Display&quot;,&quot;SF Pro Text&quot;,Helvetica,sans-serif;" transform="matrix(1 0 0 1 776 2007)">Modifications are automatically applied proportionally to all</text>
  <text style="stroke:none;fill:black;font-family:-apple-system,&quot;SF Pro Display&quot;,&quot;SF Pro Text&quot;,Helvetica,sans-serif;" transform="matrix(1 0 0 1 776 2025)">scales and weights.</text>
  <g id="" transform="matrix(1 0 0 1 1289 1933)">
   <path d="M 2.8418 1.86523 L 4.54102 3.57422 C 5.40039 4.44336 6.38672 4.38477 7.31445 3.35938 L 17.4902 -7.85156 C 17.7539 -7.76367 18.0273 -7.7832 18.3398 -7.8418 L 19.4043 -8.03711 L 20.0684 -7.36328 L 20.0293 -6.80664 C 19.9902 -6.30859 20.1172 -5.92773 20.6055 -5.44922 L 21.3672 -4.70703 C 21.8457 -4.22852 22.4609 -4.19922 22.9297 -4.66797 L 25.8398 -7.58789 C 26.3086 -8.05664 26.2891 -8.65234 25.8105 -9.13086 L 25.0391 -9.89258 C 24.5605 -10.3711 24.1895 -10.5273 23.7109 -10.4883 L 23.1348 -10.4395 L 22.4902 -11.0742 L 22.7344 -12.1973 C 22.8613 -12.7637 22.7051 -13.2031 22.1191 -13.7891 L 19.9219 -15.9766 C 16.582 -19.2969 12.1484 -19.2188 9.25781 -16.3281 C 8.83789 -15.918 8.80859 -15.3418 9.04297 -14.9512 C 9.27734 -14.5898 9.73633 -14.3555 10.3809 -14.5215 C 11.8457 -14.8633 13.3691 -14.9219 14.7949 -13.9844 L 14.209 -12.5293 C 14.0137 -12.0508 13.9844 -11.6504 14.1113 -11.2891 L 3.04688 -0.898438 C 2.06055 0.0195312 1.98242 0.996094 2.8418 1.86523 Z M 10.752 -15.957 C 13.1836 -17.7344 16.4746 -17.4316 18.7012 -15.2051 L 21.1328 -12.793 C 21.3672 -12.5586 21.4062 -12.373 21.3379 -12.0312 L 21.0156 -10.5469 L 22.5195 -9.0625 L 23.5059 -9.12109 C 23.7598 -9.13086 23.8379 -9.11133 24.0332 -8.91602 L 24.6094 -8.33984 L 22.168 -5.89844 L 21.5918 -6.47461 C 21.3965 -6.66992 21.3672 -6.74805 21.377 -7.01172 L 21.4453 -7.98828 L 19.9512 -9.47266 L 18.4277 -9.21875 C 18.1055 -9.15039 17.959 -9.17969 17.7148 -9.41406 L 15.7129 -11.416 C 15.459 -11.6504 15.4297 -11.8164 15.5859 -12.1875 L 16.4648 -14.2773 C 14.9023 -15.7324 12.8711 -16.3574 10.8398 -15.7617 C 10.6836 -15.7227 10.625 -15.8496 10.752 -15.957 Z M 5.27344 2.30469 L 4.10156 1.14258 C 3.63281 0.683594 3.74023 0.341797 4.14062 -0.0195312 L 14.9512 -10.1953 L 16.416 -8.71094 L 6.42578 2.27539 C 6.07422 2.67578 5.74219 2.77344 5.27344 2.30469 Z"/>
  </g>
  <text style="stroke:none;fill:black;font-family:-apple-system,&quot;SF Pro Display&quot;,&quot;SF Pro Text&quot;,Helvetica,sans-serif;font-weight:bold;" transform="matrix(1 0 0 1 1289 1953)">Exporting</text>
  <text style="stroke:none;fill:black;font-family:-apple-system,&quot;SF Pro Display&quot;,&quot;SF Pro Text&quot;,Helvetica,sans-serif;" transform="matrix(1 0 0 1 1289 1971)">Symbols should be outlined when exporting to ensure the</text>
  <text style="stroke:none;fill:black;font-family:-apple-system,&quot;SF Pro Display&quot;,&quot;SF Pro Text&quot;,Helvetica,sans-serif;" transform="matrix(1 0 0 1 1289 1989)">design is preserved when submitting to Xcode.</text>
  <text id="template-version" style="stroke:none;fill:black;font-family:-apple-system,&quot;SF Pro Display&quot;,&quot;SF Pro Text&quot;,Helvetica,sans-serif;text-anchor:end;" transform="matrix(1 0 0 1 3036 1933)">Template v.2.0</text>
  <text style="stroke:none;fill:black;font-family:-apple-system,&quot;SF Pro Display&quot;,&quot;SF Pro Text&quot;,Helvetica,sans-serif;text-anchor:end;" transform="matrix(1 0 0 1 3036 1951)">Requires Xcode 12 or greater</text>
  <text style="stroke:none;fill:black;font-family:-apple-system,&quot;SF Pro Display&quot;,&quot;SF Pro Text&quot;,Helvetica,sans-serif;text-anchor:end;" transform="matrix(1 0 0 1 3036 1969)">Generated from ellipsis.rectangle.fill</text>
  <text style="stroke:none;fill:black;font-family:-apple-system,&quot;SF Pro Display&quot;,&quot;SF Pro Text&quot;,Helvetica,sans-serif;text-anchor:end;" transform="matrix(1 0 0 1 3036 1987)">Typeset at 100 points</text>
  <text style="stroke:none;fill:black;font-family:-apple-system,&quot;SF Pro Display&quot;,&quot;SF Pro Text&quot;,Helvetica,sans-serif;" transform="matrix(1 0 0 1 263 726)">Small</text>
  <text style="stroke:none;fill:black;font-family:-apple-system,&quot;SF Pro Display&quot;,&quot;SF Pro Text&quot;,Helvetica,sans-serif;" transform="matrix(1 0 0 1 263 1156)">Medium</text>
  <text style="stroke:none;fill:black;font-family:-apple-system,&quot;SF Pro Display&quot;,&quot;SF Pro Text&quot;,Helvetica,sans-serif;" transform="matrix(1 0 0 1 263 1586)">Large</text>
 </g>
 <g id="Guides">
  <g id="H-reference" style="fill:#27AAE1;stroke:none;" transform="matrix(1 0 0 1 339 696)">
   <path d="M 0.976562 0 L 3.66211 0 L 12.9883 -24.4629 L 45.7031 -24.4629 L 55.0781 0 L 57.7148 0 L 30.6152 -70.459 L 28.125 -70.459 Z M 29.2969 -67.1387 L 29.3945 -67.1387 L 44.873 -26.709 L 13.8672 -26.709 Z"/>
  </g>
  <line id="Baseline-S" style="fill:none;stroke:#27AAE1;opacity:1;stroke-width:0.5;" x1="263" x2="3036" y1="696" y2="696"/>
  <line id="Capline-S" style="fill:none;stroke:#27AAE1;opacity:1;stroke-width:0.5;" x1="263" x2="3036" y1="625.541" y2="625.541"/>
  <g id="H-reference" style="fill:#27AAE1;stroke:none;" transform="matrix(1 0 0 1 339 1126)">
   <path d="M 0.976562 0 L 3.66211 0 L 12.9883 -24.4629 L 45.7031 -24.4629 L 55.0781 0 L 57.7148 0 L 30.6152 -70.459 L 28.125 -70.459 Z M 29.2969 -67.1387 L 29.3945 -67.1387 L 44.873 -26.709 L 13.8672 -26.709 Z"/>
  </g>
  <line id="Baseline-M" style="fill:none;stroke:#27AAE1;opacity:1;stroke-width:0.5;" x1="263" x2="3036" y1="1126" y2="1126"/>
  <line id="Capline-M" style="fill:none;stroke:#27AAE1;opacity:1;stroke-width:0.5;" x1="263" x2="3036" y1="1055.54" y2="1055.54"/>
  <g id="H-reference" style="fill:#27AAE1;stroke:none;" transform="matrix(1 0 0 1 339 1556)">
   <path d="M 0.976562 0 L 3.66211 0 L 12.9883 -24.4629 L 45.7031 -24.4629 L 55.0781 0 L 57.7148 0 L 30.6152 -70.459 L 28.125 -70.459 Z M 29.2969 -67.1387 L 29.3945 -67.1387 L 44.873 -26.709 L 13.8672 -26.709 Z"/>
  </g>
  <line id="Baseline-L" style="fill:none;stroke:#27AAE1;opacity:1;stroke-width:0.5;" x1="263" x2="3036" y1="1556" y2="1556"/>
  <line id="Capline-L" style="fill:none;stroke:#27AAE1;opacity:1;stroke-width:0.5;" x1="263" x2="3036" y1="1485.54" y2="1485.54"/>
  <line id="left-margin" style="fill:none;stroke:#00AEEF;stroke-width:0.5;opacity:1.0;" x1="1384.51" x2="1384.51" y1="1030.79" y2="1150.12"/>
  <line id="right-margin" style="fill:none;stroke:#00AEEF;stroke-width:0.5;opacity:1.0;" x1="1515.18" x2="1515.18" y1="1030.79" y2="1150.12"/>
 </g>
 <g id="Symbols">
  <g id="Black-L" transform="matrix(1 0 0 1 2838.04 1556)">
   <path d="M 16.0645 -3.71094 C 16.0645 8.39844 23.0957 15.3809 35.4004 15.3809 L 155.322 15.3809 C 167.627 15.3809 174.658 8.39844 174.658 -3.71094 L 174.658 -66.7969 C 174.658 -78.9551 167.627 -85.8887 155.322 -85.8887 L 35.4004 -85.8887 C 23.0957 -85.8887 16.0645 -78.9551 16.0645 -66.7969 Z M 60.0586 -23.8281 C 53.6621 -23.8281 48.584 -28.9551 48.584 -35.2539 C 48.584 -41.6016 53.6621 -46.7285 60.0586 -46.7285 C 66.3574 -46.7285 71.4355 -41.6016 71.4355 -35.2539 C 71.4355 -28.9551 66.3574 -23.8281 60.0586 -23.8281 Z M 95.4102 -23.8281 C 89.1113 -23.8281 83.9844 -28.9551 83.9844 -35.2539 C 83.9844 -41.6016 89.1113 -46.7285 95.4102 -46.7285 C 101.758 -46.7285 106.885 -41.6016 106.885 -35.2539 C 106.885 -28.9551 101.758 -23.8281 95.4102 -23.8281 Z M 130.811 -23.8281 C 124.512 -23.8281 119.434 -28.9551 119.434 -35.2539 C 119.434 -41.6016 124.512 -46.7285 130.811 -46.7285 C 137.207 -46.7285 142.285 -41.6016 142.285 -35.2539 C 142.285 -28.9551 137.207 -23.8281 130.811 -23.8281 Z"/>
  </g>
  <g id="Heavy-L" transform="matrix(1 0 0 1 2544.38 1556)">
   <path d="M 16.0645 -5.12695 C 16.0645 6.73828 22.9004 13.5254 34.9121 13.5254 L 149.658 13.5254 C 161.67 13.5254 168.555 6.73828 168.555 -5.12695 L 168.555 -65.4297 C 168.555 -77.3438 161.67 -84.0332 149.658 -84.0332 L 34.9121 -84.0332 C 22.9004 -84.0332 16.0645 -77.3438 16.0645 -65.4297 Z M 58.1055 -24.4629 C 52.0996 -24.4629 47.2656 -29.2969 47.2656 -35.2539 C 47.2656 -41.2109 52.0996 -46.0938 58.1055 -46.0938 C 64.0625 -46.0938 68.8477 -41.2109 68.8477 -35.2539 C 68.8477 -29.2969 64.0625 -24.4629 58.1055 -24.4629 Z M 92.3828 -24.4629 C 86.4258 -24.4629 81.543 -29.2969 81.543 -35.2539 C 81.543 -41.2109 86.4258 -46.0938 92.3828 -46.0938 C 98.3398 -46.0938 103.174 -41.2109 103.174 -35.2539 C 103.174 -29.2969 98.3398 -24.4629 92.3828 -24.4629 Z M 126.66 -24.4629 C 120.703 -24.4629 115.869 -29.2969 115.869 -35.2539 C 115.869 -41.2109 120.703 -46.0938 126.66 -46.0938 C 132.666 -46.0938 137.5 -41.2109 137.5 -35.2539 C 137.5 -29.2969 132.666 -24.4629 126.66 -24.4629 Z"/>
  </g>
  <g id="Bold-L" transform="matrix(1 0 0 1 2251.09 1556)">
   <path d="M 16.0645 -6.68945 C 16.0645 4.93164 22.7051 11.4258 34.4238 11.4258 L 143.359 11.4258 C 155.078 11.4258 161.719 4.93164 161.719 -6.68945 L 161.719 -63.8672 C 161.719 -75.4883 155.078 -81.9336 143.359 -81.9336 L 34.4238 -81.9336 C 22.7051 -81.9336 16.0645 -75.4883 16.0645 -63.8672 Z M 55.9082 -25.1465 C 50.293 -25.1465 45.8008 -29.6875 45.8008 -35.2539 C 45.8008 -40.8203 50.293 -45.3613 55.9082 -45.3613 C 61.4746 -45.3613 65.9668 -40.8203 65.9668 -35.2539 C 65.9668 -29.6875 61.4746 -25.1465 55.9082 -25.1465 Z M 88.9648 -25.1465 C 83.3496 -25.1465 78.8574 -29.6875 78.8574 -35.2539 C 78.8574 -40.8203 83.3496 -45.3613 88.9648 -45.3613 C 94.5312 -45.3613 99.0723 -40.8203 99.0723 -35.2539 C 99.0723 -29.6875 94.5312 -25.1465 88.9648 -25.1465 Z M 121.973 -25.1465 C 116.406 -25.1465 111.914 -29.6875 111.914 -35.2539 C 111.914 -40.8203 116.406 -45.3613 121.973 -45.3613 C 127.588 -45.3613 132.129 -40.8203 132.129 -35.2539 C 132.129 -29.6875 127.588 -25.1465 121.973 -25.1465 Z"/>
  </g>
  <g id="Semibold-L" transform="matrix(1 0 0 1 1956.74 1556)">
   <path d="M 16.0645 -7.76367 C 16.0645 3.66211 22.5586 10.0098 34.0332 10.0098 L 139.014 10.0098 C 150.488 10.0098 156.982 3.66211 156.982 -7.76367 L 156.982 -62.793 C 156.982 -74.2188 150.488 -80.5176 139.014 -80.5176 L 34.0332 -80.5176 C 22.5586 -80.5176 16.0645 -74.2188 16.0645 -62.793 Z M 54.3945 -25.6348 C 49.0723 -25.6348 44.7754 -29.9316 44.7754 -35.2539 C 44.7754 -40.5762 49.0723 -44.873 54.3945 -44.873 C 59.7168 -44.873 64.0137 -40.5762 64.0137 -35.2539 C 64.0137 -29.9316 59.7168 -25.6348 54.3945 -25.6348 Z M 86.5723 -25.6348 C 81.25 -25.6348 76.9531 -29.9316 76.9531 -35.2539 C 76.9531 -40.5762 81.25 -44.873 86.5723 -44.873 C 91.8945 -44.873 96.1914 -40.5762 96.1914 -35.2539 C 96.1914 -29.9316 91.8945 -25.6348 86.5723 -25.6348 Z M 118.799 -25.6348 C 113.477 -25.6348 109.18 -29.9316 109.18 -35.2539 C 109.18 -40.5762 113.477 -44.873 118.799 -44.873 C 124.121 -44.873 128.418 -40.5762 128.418 -35.2539 C 128.418 -29.9316 124.121 -25.6348 118.799 -25.6348 Z"/>
  </g>
  <g id="Medium-L" transform="matrix(1 0 0 1 1661.81 1556)">
   <path d="M 16.0645 -8.59375 C 16.0645 2.73438 22.4609 8.93555 33.7891 8.93555 L 135.693 8.93555 C 147.021 8.93555 153.418 2.73438 153.418 -8.59375 L 153.418 -61.9629 C 153.418 -73.291 147.021 -79.4434 135.693 -79.4434 L 33.7891 -79.4434 C 22.4609 -79.4434 16.0645 -73.291 16.0645 -61.9629 Z M 53.2715 -26.0254 C 48.1445 -26.0254 43.9941 -30.127 43.9941 -35.2539 C 43.9941 -40.3809 48.1445 -44.4824 53.2715 -44.4824 C 58.3496 -44.4824 62.5 -40.3809 62.5 -35.2539 C 62.5 -30.127 58.3496 -26.0254 53.2715 -26.0254 Z M 84.8145 -26.0254 C 79.6875 -26.0254 75.5371 -30.127 75.5371 -35.2539 C 75.5371 -40.3809 79.6875 -44.4824 84.8145 -44.4824 C 89.8926 -44.4824 94.043 -40.3809 94.043 -35.2539 C 94.043 -30.127 89.8926 -26.0254 84.8145 -26.0254 Z M 116.357 -26.0254 C 111.23 -26.0254 107.08 -30.127 107.08 -35.2539 C 107.08 -40.3809 111.23 -44.4824 116.357 -44.4824 C 121.436 -44.4824 125.586 -40.3809 125.586 -35.2539 C 125.586 -30.127 121.436 -26.0254 116.357 -26.0254 Z"/>
  </g>
  <g id="Regular-L" transform="matrix(1 0 0 1 1367.45 1556)">
   <path d="M 16.0645 -9.66797 C 16.0645 1.46484 22.3145 7.51953 33.4473 7.51953 L 131.396 7.51953 C 142.529 7.51953 148.73 1.46484 148.73 -9.66797 L 148.73 -60.8887 C 148.73 -72.0215 142.529 -78.0273 131.396 -78.0273 L 33.4473 -78.0273 C 22.3145 -78.0273 16.0645 -72.0215 16.0645 -60.8887 Z M 51.8066 -26.4648 C 46.9238 -26.4648 42.9688 -30.4199 42.9688 -35.2539 C 42.9688 -40.0879 46.9238 -44.043 51.8066 -44.043 C 56.6406 -44.043 60.5469 -40.0879 60.5469 -35.2539 C 60.5469 -30.4199 56.6406 -26.4648 51.8066 -26.4648 Z M 82.4707 -26.4648 C 77.5879 -26.4648 73.6816 -30.4199 73.6816 -35.2539 C 73.6816 -40.0879 77.5879 -44.043 82.4707 -44.043 C 87.3047 -44.043 91.2109 -40.0879 91.2109 -35.2539 C 91.2109 -30.4199 87.3047 -26.4648 82.4707 -26.4648 Z M 113.184 -26.4648 C 108.301 -26.4648 104.395 -30.4199 104.395 -35.2539 C 104.395 -40.0879 108.301 -44.043 113.184 -44.043 C 118.018 -44.043 121.924 -40.0879 121.924 -35.2539 C 121.924 -30.4199 118.018 -26.4648 113.184 -26.4648 Z"/>
  </g>
  <g id="Light-L" transform="matrix(1 0 0 1 1073.3 1556)">
   <path d="M 16.0645 -10.1562 C 16.0645 -0.0488281 21.875 5.66406 31.9824 5.66406 L 127.686 5.66406 C 137.793 5.66406 143.604 -0.0488281 143.604 -10.1562 L 143.604 -60.4004 C 143.604 -70.5078 137.793 -76.1719 127.686 -76.1719 L 31.9824 -76.1719 C 21.875 -76.1719 16.0645 -70.5078 16.0645 -60.4004 Z M 50.7812 -27.2461 C 46.2891 -27.2461 42.6758 -30.8105 42.6758 -35.2539 C 42.6758 -39.6973 46.2891 -43.2617 50.7812 -43.2617 C 55.1758 -43.2617 58.7402 -39.6973 58.7402 -35.2539 C 58.7402 -30.8105 55.1758 -27.2461 50.7812 -27.2461 Z M 79.9316 -27.2461 C 75.4395 -27.2461 71.875 -30.8105 71.875 -35.2539 C 71.875 -39.6973 75.4395 -43.2617 79.9316 -43.2617 C 84.3262 -43.2617 87.8906 -39.6973 87.8906 -35.2539 C 87.8906 -30.8105 84.3262 -27.2461 79.9316 -27.2461 Z M 109.033 -27.2461 C 104.59 -27.2461 101.025 -30.8105 101.025 -35.2539 C 101.025 -39.6973 104.59 -43.2617 109.033 -43.2617 C 113.477 -43.2617 117.09 -39.6973 117.09 -35.2539 C 117.09 -30.8105 113.477 -27.2461 109.033 -27.2461 Z"/>
  </g>
  <g id="Thin-L" transform="matrix(1 0 0 1 779.982 1556)">
   <path d="M 16.0645 -10.791 C 16.0645 -2.09961 21.3379 3.17383 30.0781 3.17383 L 122.803 3.17383 C 131.494 3.17383 136.816 -2.09961 136.816 -10.791 L 136.816 -59.7168 C 136.816 -68.457 131.494 -73.7305 122.803 -73.7305 L 30.0781 -73.7305 C 21.3379 -73.7305 16.0645 -68.457 16.0645 -59.7168 Z M 49.4141 -28.2715 C 45.5078 -28.2715 42.334 -31.3477 42.334 -35.2539 C 42.334 -39.1113 45.5078 -42.2363 49.4141 -42.2363 C 53.2715 -42.2363 56.3965 -39.1113 56.3965 -35.2539 C 56.3965 -31.3477 53.2715 -28.2715 49.4141 -28.2715 Z M 76.5137 -28.2715 C 72.6074 -28.2715 69.4824 -31.3477 69.4824 -35.2539 C 69.4824 -39.1113 72.6074 -42.2363 76.5137 -42.2363 C 80.3711 -42.2363 83.4473 -39.1113 83.4473 -35.2539 C 83.4473 -31.3477 80.3711 -28.2715 76.5137 -28.2715 Z M 103.613 -28.2715 C 99.6582 -28.2715 96.582 -31.3477 96.582 -35.2539 C 96.582 -39.1113 99.6582 -42.2363 103.613 -42.2363 C 107.422 -42.2363 110.596 -39.1113 110.596 -35.2539 C 110.596 -31.3477 107.422 -28.2715 103.613 -28.2715 Z"/>
  </g>
  <g id="Ultralight-L" transform="matrix(1 0 0 1 485.028 1556)">
   <path d="M 16.0645 -11.1328 C 16.0645 -3.125 21.0938 1.9043 29.1016 1.9043 L 120.264 1.9043 C 128.32 1.9043 133.301 -3.125 133.301 -11.1328 L 133.301 -59.375 C 133.301 -67.4316 128.32 -72.4609 120.264 -72.4609 L 29.1016 -72.4609 C 21.0938 -72.4609 16.0645 -67.4316 16.0645 -59.375 Z M 48.7305 -28.7598 C 45.0684 -28.7598 42.1387 -31.6406 42.1387 -35.2539 C 42.1387 -38.8184 45.0684 -41.6992 48.7305 -41.6992 C 52.2949 -41.6992 55.1758 -38.8184 55.1758 -35.2539 C 55.1758 -31.6406 52.2949 -28.7598 48.7305 -28.7598 Z M 74.7559 -28.7598 C 71.1426 -28.7598 68.2617 -31.6406 68.2617 -35.2539 C 68.2617 -38.8184 71.1426 -41.6992 74.7559 -41.6992 C 78.3203 -41.6992 81.2012 -38.8184 81.2012 -35.2539 C 81.2012 -31.6406 78.3203 -28.7598 74.7559 -28.7598 Z M 100.781 -28.7598 C 97.168 -28.7598 94.2871 -31.6406 94.2871 -35.2539 C 94.2871 -38.8184 97.168 -41.6992 100.781 -41.6992 C 104.346 -41.6992 107.324 -38.8184 107.324 -35.2539 C 107.324 -31.6406 104.346 -28.7598 100.781 -28.7598 Z"/>
  </g>
  <g id="Black-M" transform="matrix(1 0 0 1 2856.74 1126)">
   <path d="M 12.4512 -9.17969 C 12.4512 -0.0488281 17.9199 5.51758 27.2949 5.51758 L 126.025 5.51758 C 135.352 5.51758 140.869 -0.0488281 140.869 -9.17969 L 140.869 -61.3281 C 140.869 -70.5078 135.352 -76.0254 126.025 -76.0254 L 27.2949 -76.0254 C 17.9199 -76.0254 12.4512 -70.5078 12.4512 -61.3281 Z M 48.6328 -25.9277 C 43.4082 -25.9277 39.3066 -30.127 39.3066 -35.2539 C 39.3066 -40.3809 43.4082 -44.5801 48.6328 -44.5801 C 53.7598 -44.5801 57.8613 -40.3809 57.8613 -35.2539 C 57.8613 -30.127 53.7598 -25.9277 48.6328 -25.9277 Z M 76.709 -25.9277 C 71.582 -25.9277 67.3828 -30.127 67.3828 -35.2539 C 67.3828 -40.3809 71.582 -44.5801 76.709 -44.5801 C 81.8359 -44.5801 86.0352 -40.3809 86.0352 -35.2539 C 86.0352 -30.127 81.8359 -25.9277 76.709 -25.9277 Z M 104.834 -25.9277 C 99.707 -25.9277 95.5566 -30.127 95.5566 -35.2539 C 95.5566 -40.3809 99.707 -44.5801 104.834 -44.5801 C 110.01 -44.5801 114.16 -40.3809 114.16 -35.2539 C 114.16 -30.127 110.01 -25.9277 104.834 -25.9277 Z"/>
  </g>
  <g id="Heavy-M" transform="matrix(1 0 0 1 2562.71 1126)">
   <path d="M 12.4512 -10.5957 C 12.4512 -1.41602 17.8223 3.95508 27.1484 3.95508 L 120.801 3.95508 C 130.127 3.95508 135.498 -1.41602 135.498 -10.5957 L 135.498 -59.9121 C 135.498 -69.1406 130.127 -74.4629 120.801 -74.4629 L 27.1484 -74.4629 C 17.8223 -74.4629 12.4512 -69.1406 12.4512 -59.9121 Z M 46.7285 -26.416 C 41.8457 -26.416 37.9395 -30.4199 37.9395 -35.2539 C 37.9395 -40.1367 41.8457 -44.0918 46.7285 -44.0918 C 51.6113 -44.0918 55.5176 -40.1367 55.5176 -35.2539 C 55.5176 -30.4199 51.6113 -26.416 46.7285 -26.416 Z M 74.0234 -26.416 C 69.1895 -26.416 65.2344 -30.4199 65.2344 -35.2539 C 65.2344 -40.1367 69.1895 -44.0918 74.0234 -44.0918 C 78.9062 -44.0918 82.8613 -40.1367 82.8613 -35.2539 C 82.8613 -30.4199 78.9062 -26.416 74.0234 -26.416 Z M 101.318 -26.416 C 96.4844 -26.416 92.5293 -30.4199 92.5293 -35.2539 C 92.5293 -40.1367 96.4844 -44.0918 101.318 -44.0918 C 106.25 -44.0918 110.156 -40.1367 110.156 -35.2539 C 110.156 -30.4199 106.25 -26.416 101.318 -26.416 Z"/>
  </g>
  <g id="Bold-M" transform="matrix(1 0 0 1 2268.98 1126)">
   <path d="M 12.4512 -12.1582 C 12.4512 -2.97852 17.7246 2.24609 27.002 2.24609 L 114.99 2.24609 C 124.268 2.24609 129.541 -2.97852 129.541 -12.1582 L 129.541 -58.3496 C 129.541 -67.5781 124.268 -72.7051 114.99 -72.7051 L 27.002 -72.7051 C 17.7246 -72.7051 12.4512 -67.5781 12.4512 -58.3496 Z M 44.6777 -27.002 C 40.0879 -27.002 36.377 -30.7129 36.377 -35.2539 C 36.377 -39.8438 40.0879 -43.5547 44.6777 -43.5547 C 49.2188 -43.5547 52.9297 -39.8438 52.9297 -35.2539 C 52.9297 -30.7129 49.2188 -27.002 44.6777 -27.002 Z M 71.0449 -27.002 C 66.5039 -27.002 62.793 -30.7129 62.793 -35.2539 C 62.793 -39.8438 66.5039 -43.5547 71.0449 -43.5547 C 75.5859 -43.5547 79.3457 -39.8438 79.3457 -35.2539 C 79.3457 -30.7129 75.5859 -27.002 71.0449 -27.002 Z M 97.4121 -27.002 C 92.8711 -27.002 89.209 -30.7129 89.209 -35.2539 C 89.209 -39.8438 92.8711 -43.5547 97.4121 -43.5547 C 102.002 -43.5547 105.713 -39.8438 105.713 -35.2539 C 105.713 -30.7129 102.002 -27.002 97.4121 -27.002 Z"/>
  </g>
  <g id="Semibold-M" transform="matrix(1 0 0 1 1974.35 1126)">
   <path d="M 12.4512 -13.2324 C 12.4512 -4.05273 17.627 1.02539 26.9043 1.02539 L 110.938 1.02539 C 120.215 1.02539 125.391 -4.05273 125.391 -13.2324 L 125.391 -57.2754 C 125.391 -66.5039 120.215 -71.5332 110.938 -71.5332 L 26.9043 -71.5332 C 17.627 -71.5332 12.4512 -66.5039 12.4512 -57.2754 Z M 43.2129 -27.3438 C 38.8672 -27.3438 35.3027 -30.9082 35.3027 -35.2539 C 35.3027 -39.5996 38.8672 -43.1641 43.2129 -43.1641 C 47.5586 -43.1641 51.123 -39.5996 51.123 -35.2539 C 51.123 -30.9082 47.5586 -27.3438 43.2129 -27.3438 Z M 68.9941 -27.3438 C 64.6484 -27.3438 61.084 -30.9082 61.084 -35.2539 C 61.084 -39.5996 64.6484 -43.1641 68.9941 -43.1641 C 73.3398 -43.1641 76.8555 -39.5996 76.8555 -35.2539 C 76.8555 -30.9082 73.3398 -27.3438 68.9941 -27.3438 Z M 94.7266 -27.3438 C 90.3809 -27.3438 86.8652 -30.9082 86.8652 -35.2539 C 86.8652 -39.5996 90.3809 -43.1641 94.7266 -43.1641 C 99.1211 -43.1641 102.637 -39.5996 102.637 -35.2539 C 102.637 -30.9082 99.1211 -27.3438 94.7266 -27.3438 Z"/>
  </g>
  <g id="Medium-M" transform="matrix(1 0 0 1 1679.2 1126)">
   <path d="M 12.4512 -14.0625 C 12.4512 -4.83398 17.5781 0.146484 26.8066 0.146484 L 107.91 0.146484 C 117.139 0.146484 122.266 -4.83398 122.266 -14.0625 L 122.266 -56.4453 C 122.266 -65.6738 117.139 -70.6055 107.91 -70.6055 L 26.8066 -70.6055 C 17.5781 -70.6055 12.4512 -65.6738 12.4512 -56.4453 Z M 42.1387 -27.6367 C 37.9395 -27.6367 34.5215 -31.0547 34.5215 -35.2539 C 34.5215 -39.4531 37.9395 -42.8711 42.1387 -42.8711 C 46.3379 -42.8711 49.707 -39.4531 49.707 -35.2539 C 49.707 -31.0547 46.3379 -27.6367 42.1387 -27.6367 Z M 67.4316 -27.6367 C 63.2324 -27.6367 59.8145 -31.0547 59.8145 -35.2539 C 59.8145 -39.4531 63.2324 -42.8711 67.4316 -42.8711 C 71.6309 -42.8711 75.0488 -39.4531 75.0488 -35.2539 C 75.0488 -31.0547 71.6309 -27.6367 67.4316 -27.6367 Z M 92.7246 -27.6367 C 88.5254 -27.6367 85.1074 -31.0547 85.1074 -35.2539 C 85.1074 -39.4531 88.5254 -42.8711 92.7246 -42.8711 C 96.9238 -42.8711 100.342 -39.4531 100.342 -35.2539 C 100.342 -31.0547 96.9238 -27.6367 92.7246 -27.6367 Z"/>
  </g>
  <g id="Regular-M" transform="matrix(1 0 0 1 1384.51 1126)">
   <path d="M 12.4512 -15.1367 C 12.4512 -5.9082 17.5293 -1.02539 26.709 -1.02539 L 103.906 -1.02539 C 113.135 -1.02539 118.213 -5.9082 118.213 -15.1367 L 118.213 -55.4199 C 118.213 -64.5996 113.135 -69.4336 103.906 -69.4336 L 26.709 -69.4336 C 17.5293 -69.4336 12.4512 -64.5996 12.4512 -55.4199 Z M 40.7227 -28.0273 C 36.7188 -28.0273 33.4473 -31.25 33.4473 -35.2539 C 33.4473 -39.2578 36.7188 -42.4805 40.7227 -42.4805 C 44.7266 -42.4805 47.9492 -39.2578 47.9492 -35.2539 C 47.9492 -31.25 44.7266 -28.0273 40.7227 -28.0273 Z M 65.3809 -28.0273 C 61.377 -28.0273 58.1543 -31.25 58.1543 -35.2539 C 58.1543 -39.2578 61.377 -42.4805 65.3809 -42.4805 C 69.3848 -42.4805 72.6074 -39.2578 72.6074 -35.2539 C 72.6074 -31.25 69.3848 -28.0273 65.3809 -28.0273 Z M 90.0391 -28.0273 C 86.0352 -28.0273 82.8125 -31.25 82.8125 -35.2539 C 82.8125 -39.2578 86.0352 -42.4805 90.0391 -42.4805 C 94.043 -42.4805 97.2656 -39.2578 97.2656 -35.2539 C 97.2656 -31.25 94.043 -28.0273 90.0391 -28.0273 Z"/>
  </g>
  <g id="Light-M" transform="matrix(1 0 0 1 1090.12 1126)">
   <path d="M 12.4512 -15.5762 C 12.4512 -7.27539 17.1387 -2.73438 25.4395 -2.73438 L 100.586 -2.73438 C 108.887 -2.73438 113.574 -7.27539 113.574 -15.5762 L 113.574 -54.9316 C 113.574 -63.2324 108.887 -67.7734 100.586 -67.7734 L 25.4395 -67.7734 C 17.1387 -67.7734 12.4512 -63.2324 12.4512 -54.9316 Z M 39.7949 -28.7109 C 36.1816 -28.7109 33.2031 -31.6406 33.2031 -35.2539 C 33.2031 -38.8672 36.1816 -41.7969 39.7949 -41.7969 C 43.4082 -41.7969 46.3379 -38.8672 46.3379 -35.2539 C 46.3379 -31.6406 43.4082 -28.7109 39.7949 -28.7109 Z M 63.0859 -28.7109 C 59.4238 -28.7109 56.543 -31.6406 56.543 -35.2539 C 56.543 -38.8672 59.4238 -41.7969 63.0859 -41.7969 C 66.6992 -41.7969 69.6289 -38.8672 69.6289 -35.2539 C 69.6289 -31.6406 66.6992 -28.7109 63.0859 -28.7109 Z M 86.377 -28.7109 C 82.7148 -28.7109 79.7852 -31.6406 79.7852 -35.2539 C 79.7852 -38.8672 82.7148 -41.7969 86.377 -41.7969 C 89.9414 -41.7969 92.9199 -38.8672 92.9199 -35.2539 C 92.9199 -31.6406 89.9414 -28.7109 86.377 -28.7109 Z"/>
  </g>
  <g id="Thin-M" transform="matrix(1 0 0 1 796.437 1126)">
   <path d="M 12.4512 -16.1621 C 12.4512 -9.08203 16.6504 -4.93164 23.7305 -4.93164 L 96.2402 -4.93164 C 103.271 -4.93164 107.52 -9.08203 107.52 -16.1621 L 107.52 -54.3457 C 107.52 -61.4258 103.271 -65.5762 96.2402 -65.5762 L 23.7305 -65.5762 C 16.6504 -65.5762 12.4512 -61.4258 12.4512 -54.3457 Z M 38.623 -29.5898 C 35.4492 -29.5898 32.9102 -32.1289 32.9102 -35.2539 C 32.9102 -38.3789 35.4492 -40.8691 38.623 -40.8691 C 41.6992 -40.8691 44.1895 -38.3789 44.1895 -35.2539 C 44.1895 -32.1289 41.6992 -29.5898 38.623 -29.5898 Z M 60.0586 -29.5898 C 56.8848 -29.5898 54.3945 -32.1289 54.3945 -35.2539 C 54.3945 -38.3789 56.8848 -40.8691 60.0586 -40.8691 C 63.1348 -40.8691 65.625 -38.3789 65.625 -35.2539 C 65.625 -32.1289 63.1348 -29.5898 60.0586 -29.5898 Z M 81.4453 -29.5898 C 78.3203 -29.5898 75.8301 -32.1289 75.8301 -35.2539 C 75.8301 -38.3789 78.3203 -40.8691 81.4453 -40.8691 C 84.5703 -40.8691 87.1094 -38.3789 87.1094 -35.2539 C 87.1094 -32.1289 84.5703 -29.5898 81.4453 -29.5898 Z"/>
  </g>
  <g id="Ultralight-M" transform="matrix(1 0 0 1 501.288 1126)">
   <path d="M 12.4512 -16.4551 C 12.4512 -10.0098 16.4062 -6.05469 22.8516 -6.05469 L 93.9941 -6.05469 C 100.391 -6.05469 104.395 -10.0098 104.395 -16.4551 L 104.395 -54.0527 C 104.395 -60.498 100.391 -64.4531 93.9941 -64.4531 L 22.8516 -64.4531 C 16.4062 -64.4531 12.4512 -60.498 12.4512 -54.0527 Z M 37.9883 -30.0781 C 35.0586 -30.0781 32.7148 -32.373 32.7148 -35.2539 C 32.7148 -38.0859 35.0586 -40.3809 37.9883 -40.3809 C 40.8203 -40.3809 43.1152 -38.0859 43.1152 -35.2539 C 43.1152 -32.373 40.8203 -30.0781 37.9883 -30.0781 Z M 58.4961 -30.0781 C 55.5664 -30.0781 53.2715 -32.373 53.2715 -35.2539 C 53.2715 -38.0859 55.5664 -40.3809 58.4961 -40.3809 C 61.3281 -40.3809 63.623 -38.0859 63.623 -35.2539 C 63.623 -32.373 61.3281 -30.0781 58.4961 -30.0781 Z M 78.9551 -30.0781 C 76.0742 -30.0781 73.7793 -32.373 73.7793 -35.2539 C 73.7793 -38.0859 76.0742 -40.3809 78.9551 -40.3809 C 81.8359 -40.3809 84.1797 -38.0859 84.1797 -35.2539 C 84.1797 -32.373 81.8359 -30.0781 78.9551 -30.0781 Z"/>
  </g>
  <g id="Black-S" transform="matrix(1 0 0 1 2873.51 696)">
   <path d="M 9.76562 -14.9414 C 9.76562 -7.76367 14.0625 -3.41797 21.3867 -3.41797 L 98.3887 -3.41797 C 105.713 -3.41797 110.01 -7.76367 110.01 -14.9414 L 110.01 -55.5664 C 110.01 -62.793 105.713 -67.0898 98.3887 -67.0898 L 21.3867 -67.0898 C 14.0625 -67.0898 9.76562 -62.793 9.76562 -55.5664 Z M 37.9395 -27.9785 C 33.8867 -27.9785 30.6641 -31.25 30.6641 -35.2539 C 30.6641 -39.2578 33.8867 -42.5293 37.9395 -42.5293 C 41.9434 -42.5293 45.166 -39.2578 45.166 -35.2539 C 45.166 -31.25 41.9434 -27.9785 37.9395 -27.9785 Z M 59.9121 -27.9785 C 55.9082 -27.9785 52.6367 -31.25 52.6367 -35.2539 C 52.6367 -39.2578 55.9082 -42.5293 59.9121 -42.5293 C 63.916 -42.5293 67.1875 -39.2578 67.1875 -35.2539 C 67.1875 -31.25 63.916 -27.9785 59.9121 -27.9785 Z M 81.8848 -27.9785 C 77.8809 -27.9785 74.6582 -31.25 74.6582 -35.2539 C 74.6582 -39.2578 77.8809 -42.5293 81.8848 -42.5293 C 85.9375 -42.5293 89.1602 -39.2578 89.1602 -35.2539 C 89.1602 -31.25 85.9375 -27.9785 81.8848 -27.9785 Z"/>
  </g>
  <g id="Heavy-S" transform="matrix(1 0 0 1 2578.58 696)">
   <path d="M 9.76562 -15.9668 C 9.76562 -8.64258 14.0137 -4.39453 21.4355 -4.39453 L 94.7754 -4.39453 C 102.148 -4.39453 106.445 -8.64258 106.445 -15.9668 L 106.445 -54.541 C 106.445 -61.8652 102.148 -66.0645 94.7754 -66.0645 L 21.4355 -66.0645 C 14.0137 -66.0645 9.76562 -61.8652 9.76562 -54.541 Z M 36.6211 -28.2715 C 32.7148 -28.2715 29.6387 -31.3965 29.6387 -35.2539 C 29.6387 -39.1113 32.7148 -42.2363 36.6211 -42.2363 C 40.4785 -42.2363 43.5547 -39.1113 43.5547 -35.2539 C 43.5547 -31.3965 40.4785 -28.2715 36.6211 -28.2715 Z M 58.1055 -28.2715 C 54.2969 -28.2715 51.1719 -31.3965 51.1719 -35.2539 C 51.1719 -39.1113 54.2969 -42.2363 58.1055 -42.2363 C 61.9629 -42.2363 65.0879 -39.1113 65.0879 -35.2539 C 65.0879 -31.3965 61.9629 -28.2715 58.1055 -28.2715 Z M 79.6387 -28.2715 C 75.7812 -28.2715 72.7051 -31.3965 72.7051 -35.2539 C 72.7051 -39.1113 75.7812 -42.2363 79.6387 -42.2363 C 83.4961 -42.2363 86.6211 -39.1113 86.6211 -35.2539 C 86.6211 -31.3965 83.4961 -28.2715 79.6387 -28.2715 Z"/>
  </g>
  <g id="Bold-S" transform="matrix(1 0 0 1 2283.87 696)">
   <path d="M 9.76562 -17.0898 C 9.76562 -9.66797 13.9648 -5.51758 21.4844 -5.51758 L 90.7227 -5.51758 C 98.1934 -5.51758 102.441 -9.66797 102.441 -17.0898 L 102.441 -53.418 C 102.441 -60.8398 98.1934 -64.9414 90.7227 -64.9414 L 21.4844 -64.9414 C 13.9648 -64.9414 9.76562 -60.8398 9.76562 -53.418 Z M 35.1562 -28.6133 C 31.4453 -28.6133 28.5156 -31.5918 28.5156 -35.2539 C 28.5156 -38.916 31.4453 -41.8945 35.1562 -41.8945 C 38.7695 -41.8945 41.748 -38.916 41.748 -35.2539 C 41.748 -31.5918 38.7695 -28.6133 35.1562 -28.6133 Z M 56.1035 -28.6133 C 52.4414 -28.6133 49.4629 -31.5918 49.4629 -35.2539 C 49.4629 -38.916 52.4414 -41.8945 56.1035 -41.8945 C 59.7656 -41.8945 62.7441 -38.916 62.7441 -35.2539 C 62.7441 -31.5918 59.7656 -28.6133 56.1035 -28.6133 Z M 77.0996 -28.6133 C 73.4375 -28.6133 70.5078 -31.5918 70.5078 -35.2539 C 70.5078 -38.916 73.4375 -41.8945 77.0996 -41.8945 C 80.8105 -41.8945 83.7402 -38.916 83.7402 -35.2539 C 83.7402 -31.5918 80.8105 -28.6133 77.0996 -28.6133 Z"/>
  </g>
  <g id="Semibold-S" transform="matrix(1 0 0 1 1988.55 696)">
   <path d="M 9.76562 -17.8711 C 9.76562 -10.3516 13.9648 -6.29883 21.5332 -6.29883 L 87.8906 -6.29883 C 95.459 -6.29883 99.6582 -10.3516 99.6582 -17.8711 L 99.6582 -52.6367 C 99.6582 -60.1562 95.459 -64.1602 87.8906 -64.1602 L 21.5332 -64.1602 C 13.9648 -64.1602 9.76562 -60.1562 9.76562 -52.6367 Z M 34.1309 -28.8574 C 30.5664 -28.8574 27.6855 -31.7383 27.6855 -35.2539 C 27.6855 -38.7695 30.5664 -41.6504 34.1309 -41.6504 C 37.6465 -41.6504 40.4785 -38.7695 40.4785 -35.2539 C 40.4785 -31.7383 37.6465 -28.8574 34.1309 -28.8574 Z M 54.7363 -28.8574 C 51.2207 -28.8574 48.3398 -31.7383 48.3398 -35.2539 C 48.3398 -38.7695 51.2207 -41.6504 54.7363 -41.6504 C 58.252 -41.6504 61.1328 -38.7695 61.1328 -35.2539 C 61.1328 -31.7383 58.252 -28.8574 54.7363 -28.8574 Z M 75.3906 -28.8574 C 71.8262 -28.8574 68.9941 -31.7383 68.9941 -35.2539 C 68.9941 -38.7695 71.8262 -41.6504 75.3906 -41.6504 C 78.9062 -41.6504 81.7871 -38.7695 81.7871 -35.2539 C 81.7871 -31.7383 78.9062 -28.8574 75.3906 -28.8574 Z"/>
  </g>
  <g id="Medium-S" transform="matrix(1 0 0 1 1692.89 696)">
   <path d="M 9.76562 -18.5059 C 9.76562 -10.8887 13.916 -6.88477 21.5332 -6.88477 L 85.791 -6.88477 C 93.4082 -6.88477 97.5586 -10.8887 97.5586 -18.5059 L 97.5586 -52.002 C 97.5586 -59.6191 93.4082 -63.5742 85.791 -63.5742 L 21.5332 -63.5742 C 13.916 -63.5742 9.76562 -59.6191 9.76562 -52.002 Z M 33.3496 -29.0039 C 29.8828 -29.0039 27.0996 -31.8359 27.0996 -35.2539 C 27.0996 -38.6719 29.8828 -41.5039 33.3496 -41.5039 C 36.7676 -41.5039 39.5508 -38.6719 39.5508 -35.2539 C 39.5508 -31.8359 36.7676 -29.0039 33.3496 -29.0039 Z M 53.7109 -29.0039 C 50.2441 -29.0039 47.4609 -31.8359 47.4609 -35.2539 C 47.4609 -38.6719 50.2441 -41.5039 53.7109 -41.5039 C 57.1289 -41.5039 59.9121 -38.6719 59.9121 -35.2539 C 59.9121 -31.8359 57.1289 -29.0039 53.7109 -29.0039 Z M 74.0234 -29.0039 C 70.6055 -29.0039 67.8223 -31.8359 67.8223 -35.2539 C 67.8223 -38.6719 70.6055 -41.5039 74.0234 -41.5039 C 77.4902 -41.5039 80.2734 -38.6719 80.2734 -35.2539 C 80.2734 -31.8359 77.4902 -29.0039 74.0234 -29.0039 Z"/>
  </g>
  <g id="Regular-S" transform="matrix(1 0 0 1 1397.55 696)">
   <path d="M 9.76562 -19.2383 C 9.76562 -11.5723 13.916 -7.61719 21.582 -7.61719 L 83.0078 -7.61719 C 90.7227 -7.61719 94.8242 -11.5723 94.8242 -19.2383 L 94.8242 -51.2695 C 94.8242 -58.9355 90.7227 -62.8418 83.0078 -62.8418 L 21.582 -62.8418 C 13.916 -62.8418 9.76562 -58.9355 9.76562 -51.2695 Z M 32.3242 -29.248 C 29.0039 -29.248 26.3184 -31.9336 26.3184 -35.2539 C 26.3184 -38.5742 29.0039 -41.2598 32.3242 -41.2598 C 35.6445 -41.2598 38.3301 -38.5742 38.3301 -35.2539 C 38.3301 -31.9336 35.6445 -29.248 32.3242 -29.248 Z M 52.3438 -29.248 C 49.0234 -29.248 46.3379 -31.9336 46.3379 -35.2539 C 46.3379 -38.5742 49.0234 -41.2598 52.3438 -41.2598 C 55.6152 -41.2598 58.3008 -38.5742 58.3008 -35.2539 C 58.3008 -31.9336 55.6152 -29.248 52.3438 -29.248 Z M 72.3145 -29.248 C 68.9941 -29.248 66.3086 -31.9336 66.3086 -35.2539 C 66.3086 -38.5742 68.9941 -41.2598 72.3145 -41.2598 C 75.6348 -41.2598 78.3203 -38.5742 78.3203 -35.2539 C 78.3203 -31.9336 75.6348 -29.248 72.3145 -29.248 Z"/>
  </g>
  <g id="Light-S" transform="matrix(1 0 0 1 1102.86 696)">
   <path d="M 9.76562 -19.6777 C 9.76562 -12.793 13.5742 -9.13086 20.4102 -9.13086 L 80.0781 -9.13086 C 86.9629 -9.13086 90.7715 -12.793 90.7715 -19.6777 L 90.7715 -50.8301 C 90.7715 -57.7148 86.9629 -61.377 80.0781 -61.377 L 20.4102 -61.377 C 13.5742 -61.377 9.76562 -57.7148 9.76562 -50.8301 Z M 31.543 -29.834 C 28.5156 -29.834 26.123 -32.2754 26.123 -35.2539 C 26.123 -38.2324 28.5156 -40.625 31.543 -40.625 C 34.4727 -40.625 36.9141 -38.2324 36.9141 -35.2539 C 36.9141 -32.2754 34.4727 -29.834 31.543 -29.834 Z M 50.293 -29.834 C 47.3145 -29.834 44.873 -32.2754 44.873 -35.2539 C 44.873 -38.2324 47.3145 -40.625 50.293 -40.625 C 53.2715 -40.625 55.6641 -38.2324 55.6641 -35.2539 C 55.6641 -32.2754 53.2715 -29.834 50.293 -29.834 Z M 69.043 -29.834 C 66.0645 -29.834 63.6719 -32.2754 63.6719 -35.2539 C 63.6719 -38.2324 66.0645 -40.625 69.043 -40.625 C 72.0215 -40.625 74.4629 -38.2324 74.4629 -35.2539 C 74.4629 -32.2754 72.0215 -29.834 69.043 -29.834 Z"/>
  </g>
  <g id="Thin-S" transform="matrix(1 0 0 1 808.839 696)">
   <path d="M 9.76562 -20.166 C 9.76562 -14.4043 13.1836 -11.084 18.9453 -11.084 L 76.2207 -11.084 C 81.9824 -11.084 85.4004 -14.4043 85.4004 -20.166 L 85.4004 -50.3418 C 85.4004 -56.1035 81.9824 -59.4238 76.2207 -59.4238 L 18.9453 -59.4238 C 13.1836 -59.4238 9.76562 -56.1035 9.76562 -50.3418 Z M 30.4688 -30.6641 C 27.8809 -30.6641 25.8301 -32.666 25.8301 -35.2539 C 25.8301 -37.793 27.8809 -39.8438 30.4688 -39.8438 C 33.0078 -39.8438 35.0098 -37.793 35.0098 -35.2539 C 35.0098 -32.666 33.0078 -30.6641 30.4688 -30.6641 Z M 47.6074 -30.6641 C 45.0195 -30.6641 43.0176 -32.666 43.0176 -35.2539 C 43.0176 -37.793 45.0195 -39.8438 47.6074 -39.8438 C 50.1465 -39.8438 52.1484 -37.793 52.1484 -35.2539 C 52.1484 -32.666 50.1465 -30.6641 47.6074 -30.6641 Z M 64.7461 -30.6641 C 62.1582 -30.6641 60.1562 -32.666 60.1562 -35.2539 C 60.1562 -37.793 62.1582 -39.8438 64.7461 -39.8438 C 67.2852 -39.8438 69.3359 -37.793 69.3359 -35.2539 C 69.3359 -32.666 67.2852 -30.6641 64.7461 -30.6641 Z"/>
  </g>
  <g id="Ultralight-S" transform="matrix(1 0 0 1 513.52 696)">
   <path d="M 9.76562 -20.459 C 9.76562 -15.2344 12.9395 -12.0605 18.1641 -12.0605 L 74.2188 -12.0605 C 79.4434 -12.0605 82.6172 -15.2344 82.6172 -20.459 L 82.6172 -50.0488 C 82.6172 -55.2734 79.4434 -58.4473 74.2188 -58.4473 L 18.1641 -58.4473 C 12.9395 -58.4473 9.76562 -55.2734 9.76562 -50.0488 Z M 29.9316 -31.0547 C 27.5879 -31.0547 25.6836 -32.9102 25.6836 -35.2539 C 25.6836 -37.5488 27.5879 -39.4043 29.9316 -39.4043 C 32.2266 -39.4043 34.082 -37.5488 34.082 -35.2539 C 34.082 -32.9102 32.2266 -31.0547 29.9316 -31.0547 Z M 46.1914 -31.0547 C 43.8477 -31.0547 42.041 -32.9102 42.041 -35.2539 C 42.041 -37.5488 43.8477 -39.4043 46.1914 -39.4043 C 48.5352 -39.4043 50.3418 -37.5488 50.3418 -35.2539 C 50.3418 -32.9102 48.5352 -31.0547 46.1914 -31.0547 Z M 62.5 -31.0547 C 60.1562 -31.0547 58.3496 -32.9102 58.3496 -35.2539 C 58.3496 -37.5488 60.1562 -39.4043 62.5 -39.4043 C 64.7949 -39.4043 66.6992 -37.5488 66.6992 -35.2539 C 66.6992 -32.9102 64.7949 -31.0547 62.5 -31.0547 Z"/>
  </g>
 </g>
</svg>
