<?xml version="1.0" encoding="utf-8"?>
<svg id="svg2" version="1.1" width="1024px" height="1024px" viewBox="0 0 1024 1024" xmlns="http://www.w3.org/2000/svg">
  <defs>
    <pattern id="pattern-0" x="0" y="0" width="20" height="20" patternUnits="userSpaceOnUse" viewBox="0 0 100 100">
      <path d="M 0 0 L 50 0 L 50 100 L 0 100 Z" style="fill: black;"/>
    </pattern>
  </defs>
  <g id="layer2" style="display: inline; visibility: hidden;" transform="matrix(1, 0, 0, 1, 0, -2.205444)">
    <title>Guides</title>
    <path d="M 354.787 2.91 L 674.379 2.91 C 775.794 2.91 826.502 2.91 881.087 20.17 C 940.684 41.862 987.632 88.809 1009.323 148.406 C 1026.583 202.991 1026.583 253.699 1026.583 355.115 L 1026.583 674.706 C 1026.583 776.122 1026.583 826.829 1009.323 881.414 C 987.632 941.012 940.684 987.959 881.087 1009.651 C 826.502 1026.91 775.794 1026.91 674.379 1026.91 L 354.787 1026.91 C 253.372 1026.91 202.664 1026.91 148.079 1009.651 C 88.482 987.959 41.534 941.012 19.843 881.414 C 2.583 826.829 2.583 776.122 2.583 674.706 L 2.583 355.115 C 2.583 253.699 2.583 202.991 19.843 148.406 C 41.534 88.809 88.482 41.862 148.079 20.17 C 202.664 2.91 253.372 2.91 354.787 2.91 L 354.787 2.91" id="path5" style="stroke-opacity: 1; fill: none; stroke: rgb(0, 0, 0); stroke-width: 2;">
      <title>Shape</title>
    </path>
    <path style="color: rgb(0, 0, 0); stroke-width: 1.00571; stroke-linecap: butt; stroke-linejoin: miter; stroke-miterlimit: 4; stroke-opacity: 1; stroke-dasharray: none; stroke-dashoffset: 0; marker: none; display: inline; overflow: visible; stroke: rgb(0, 0, 0); fill: none;" id="path3129" d="m 600.32144,298.86218 a 138,138 0 1 1 -276,0 138,138 0 1 1 276,0 z" transform="matrix(1.988799,0,0,1.988471,-407.91018,-80.585593)"/>
    <path style="color: rgb(0, 0, 0); stroke-width: 0.620861; stroke-linecap: butt; stroke-linejoin: miter; stroke-miterlimit: 4; stroke-opacity: 1; stroke-dasharray: none; stroke-dashoffset: 0; marker: none; display: inline; overflow: visible; stroke: rgb(0, 0, 0); fill: none;" id="path3129-9" d="m 600.32144,298.86218 a 138,138 0 1 1 -276,0 138,138 0 1 1 276,0 z" transform="matrix(3.2215081,0,0,3.2211587,-977.38931,-448.55899)"/>
    <path style="color: rgb(0, 0, 0); stroke-width: 2; stroke-linecap: butt; stroke-linejoin: miter; stroke-miterlimit: 4; stroke-opacity: 1; stroke-dasharray: none; stroke-dashoffset: 0; marker: none; display: inline; overflow: visible; stroke: rgb(0, 0, 0); fill: none;" d="M 67.351921,69.489974 956.5625,958.70544" id="path4011"/>
    <path style="color: rgb(0, 0, 0); stroke-width: 2; stroke-linecap: butt; stroke-linejoin: miter; stroke-miterlimit: 4; stroke-opacity: 1; stroke-dasharray: none; stroke-dashoffset: 0; marker: none; display: inline; overflow: visible; stroke: rgb(0, 0, 0); fill: none;" d="m 0.99801467,707.31189 1022.00298533,0" id="path4028"/>
    <path style="color: rgb(0, 0, 0); stroke-width: 2; stroke-linecap: butt; stroke-linejoin: miter; stroke-miterlimit: 4; stroke-opacity: 1; stroke-dasharray: none; stroke-dashoffset: 0; marker: none; display: inline; overflow: visible; stroke: rgb(0, 0, 0); fill: none;" d="m 0.99801467,513.69318 1022.00298533,0" id="path4030"/>
    <path style="color: rgb(0, 0, 0); stroke-width: 2; stroke-linecap: butt; stroke-linejoin: miter; stroke-miterlimit: 4; stroke-opacity: 1; stroke-dasharray: none; stroke-dashoffset: 0; marker: none; display: inline; overflow: visible; stroke: rgb(0, 0, 0); fill: none;" d="m 0.99801467,321.0352 1022.00298533,0" id="path4032"/>
    <path style="color: rgb(0, 0, 0); stroke-width: 2; stroke-linecap: butt; stroke-linejoin: miter; stroke-miterlimit: 4; stroke-opacity: 1; stroke-dasharray: none; stroke-dashoffset: 0; marker: none; display: inline; overflow: visible; stroke: rgb(0, 0, 0); fill: none;" d="m 319.08193,1026.2054 0,-1023.9999557" id="path4034"/>
    <path style="color: rgb(0, 0, 0); stroke-width: 2; stroke-linecap: butt; stroke-linejoin: miter; stroke-miterlimit: 4; stroke-opacity: 1; stroke-dasharray: none; stroke-dashoffset: 0; marker: none; display: inline; overflow: visible; stroke: rgb(0, 0, 0); fill: none;" d="m 511.68014,2.2054443 0,1023.9999557" id="path4036"/>
    <path style="color: rgb(0, 0, 0); stroke-width: 2; stroke-linecap: butt; stroke-linejoin: miter; stroke-miterlimit: 4; stroke-opacity: 1; stroke-dasharray: none; stroke-dashoffset: 0; marker: none; display: inline; overflow: visible; stroke: rgb(0, 0, 0); fill: none;" d="m 706.1875,1026.2054 0,-1023.9999557" id="path4038"/>
    <path style="color: rgb(0, 0, 0); stroke-width: 2; stroke-linecap: butt; stroke-linejoin: miter; stroke-miterlimit: 4; stroke-opacity: 1; stroke-dasharray: none; stroke-dashoffset: 0; marker: none; display: inline; overflow: visible; stroke: rgb(0, 0, 0); fill: none;" d="M 67.351921,958.70544 956.5625,69.489974" id="path4001"/>
    <path style="color: rgb(0, 0, 0); stroke-width: 2; stroke-linecap: butt; stroke-linejoin: miter; stroke-miterlimit: 4; stroke-opacity: 1; stroke-dasharray: none; stroke-dashoffset: 0; marker: none; display: inline; overflow: visible; stroke: rgb(0, 0, 0); fill: none;" d="m 956.5625,69.489974 0,889.215466" id="path4003"/>
    <path style="color: rgb(0, 0, 0); stroke-width: 2; stroke-linecap: butt; stroke-linejoin: miter; stroke-miterlimit: 4; stroke-opacity: 1; stroke-dasharray: none; stroke-dashoffset: 0; marker: none; display: inline; overflow: visible; stroke: rgb(0, 0, 0); fill: none;" d="m 67.351921,69.489974 889.210579,0" id="path4009"/>
    <path style="color: rgb(0, 0, 0); stroke-width: 2; stroke-linecap: butt; stroke-linejoin: miter; stroke-miterlimit: 4; stroke-opacity: 1; stroke-dasharray: none; stroke-dashoffset: 0; marker: none; display: inline; overflow: visible; stroke: rgb(0, 0, 0); fill: none;" d="m 67.351921,958.70544 0,-889.215466" id="path4007"/>
    <path style="color: rgb(0, 0, 0); stroke-width: 2; stroke-linecap: butt; stroke-linejoin: miter; stroke-miterlimit: 4; stroke-opacity: 1; stroke-dasharray: none; stroke-dashoffset: 0; marker: none; display: inline; overflow: visible; stroke: rgb(0, 0, 0); fill: none;" d="m 956.5625,958.70544 -889.210579,-3e-5" id="path4005"/>
    <path style="color: rgb(0, 0, 0); stroke-width: 1.42908; stroke-linecap: butt; stroke-linejoin: miter; stroke-miterlimit: 4; stroke-opacity: 1; stroke-dasharray: none; stroke-dashoffset: 0; marker: none; display: inline; overflow: visible; stroke: rgb(0, 0, 0); fill: none;" id="path3129-7" d="m 600.32144,298.86218 a 138,138 0 1 1 -276,0 138,138 0 1 1 276,0 z" transform="matrix(1.4025564,0,0,1.3964479,-135.79717,96.569794)"/>
  </g>
  <g transform="matrix(1.000976, 0, 0, 1, -1050.409668, 30.643002)">
    <title>Icon</title>
    <rect width="1062.962" height="1064" x="1029.405" y="-50.643" style="fill: rgb(255, 255, 255);">
      <title>Background</title>
    </rect>
    <polygon style="fill:#43B05C;" points="1445.714 446.835 1255.783 256.905 1228.567 262.949 1228.567 781.688 1253.889 776.066 1445.714 584.229"/>
    <polygon style="fill:#48A0DC;" points="1341.628 756.559 1445.714 733.433 1445.714 652.473"/>
    <polygon style="fill:#43B05C;" points="1445.714 214.694 1311.614 244.491 1445.714 378.591"/>
    <polygon style="fill:#43B05C;" points="1825.105 204.85 1650.797 262.949 1650.797 379.146"/>
    <polygon style="fill:#48A0DC;" points="1650.797 447.39 1650.797 769.624 1867.943 685.178 1867.943 230.244"/>
    <polygon style="fill:#3D994F;" points="1548.533 481.41 1650.797 379.146 1650.797 262.949 1445.714 214.694 1445.714 378.591"/>
    <polygon style="fill:#3D994F;" points="1445.714 446.835 1445.714 584.229 1514.417 515.538"/>
    <polygon style="fill:#4393BF;" points="1445.714 652.473 1445.714 733.433 1650.797 769.624 1650.797 447.39"/>
    <polygon style="fill:#EFCE4A;" points="1445.714 378.591 1311.614 244.491 1255.783 256.905 1445.714 446.835"/>
    <polygon style="fill:#EFCE4A;" points="1445.714 584.229 1253.889 776.066 1341.628 756.559 1445.714 652.473"/>
    <polygon style="fill:#EFCE4A;" points="1650.797 447.39 1867.943 230.244 1867.943 190.566 1825.105 204.85 1650.797 379.146"/>
    <polygon style="fill:#D6B445;" points="1548.533 481.41 1445.714 378.591 1445.714 446.835 1514.417 515.538 1445.714 584.229 1445.714 652.473 1650.797 447.39 1650.797 379.146"/>
  </g>
</svg>