<?xml version="1.0" encoding="utf-8"?>
<svg viewBox="0 0 20 18.5" xmlns="http://www.w3.org/2000/svg">
  <g id="Medium-M" transform="matrix(0.202371, 0, 0, 0.202371, -2.381423, 16.086918)">
    <path d="M 11.7676 -48.9746 C 11.7676 -28.125 29.2969 -7.51953 56.543 10.0586 C 58.0566 11.0352 59.9121 12.0117 61.1816 12.0117 C 62.4512 12.0117 64.3066 11.0352 65.8203 10.0586 C 93.1152 -7.51953 110.596 -28.125 110.596 -48.9746 C 110.596 -66.9922 98.1445 -79.4922 82.1777 -79.4922 C 72.8516 -79.4922 65.5762 -75.2441 61.1816 -68.7988 C 56.8848 -75.1953 49.5605 -79.4922 40.2344 -79.4922 C 24.2188 -79.4922 11.7676 -66.9922 11.7676 -48.9746 Z M 21.8262 -49.0234 C 21.8262 -61.3281 29.9316 -69.6777 40.8203 -69.6777 C 49.6094 -69.6777 54.541 -64.3555 57.6172 -59.7168 C 58.9844 -57.7148 59.9121 -57.0801 61.1816 -57.0801 C 62.5 -57.0801 63.3301 -57.7637 64.7461 -59.7168 C 68.0664 -64.2578 72.8027 -69.6777 81.543 -69.6777 C 92.4805 -69.6777 100.586 -61.3281 100.586 -49.0234 C 100.586 -31.8359 82.7148 -12.793 62.1094 0.878906 C 61.6699 1.17188 61.377 1.36719 61.1816 1.36719 C 60.9863 1.36719 60.6934 1.17188 60.3027 0.878906 C 39.6973 -12.793 21.8262 -31.8359 21.8262 -49.0234 Z"/>
  </g>
</svg>