<?xml version="1.0" encoding="utf-8"?>
<svg viewBox="0 0 32 32" xmlns="http://www.w3.org/2000/svg">
  <path d="M 6.14 31.026 C 6.73 31.487 7.48 31.329 8.373 30.68 L 15.996 25.075 L 23.632 30.68 C 24.526 31.329 25.261 31.487 25.866 31.026 C 26.457 30.58 26.586 29.845 26.226 28.793 L 23.215 19.83 L 30.909 14.297 C 31.803 13.663 32.163 13 31.932 12.28 C 31.702 11.588 31.024 11.242 29.915 11.257 L 20.477 11.314 L 17.609 2.309 C 17.264 1.242 16.745 0.709 15.996 0.709 C 15.261 0.709 14.742 1.242 14.396 2.309 L 11.529 11.314 L 2.091 11.257 C 0.981 11.242 0.304 11.588 0.073 12.28 C -0.172 13 0.203 13.663 1.096 14.297 L 8.791 19.83 L 5.779 28.793 C 5.419 29.845 5.549 30.58 6.14 31.026 Z M 15.996 22.597 L 15.996 4.211 C 16.039 4.211 16.068 4.24 16.082 4.326 L 18.589 12.669 C 18.777 13.26 19.151 13.505 19.742 13.49 L 28.459 13.332 C 28.546 13.332 28.575 13.332 28.589 13.375 C 28.604 13.418 28.575 13.447 28.517 13.49 L 21.341 18.447 C 20.837 18.793 20.722 19.24 20.924 19.801 L 23.791 28.044 C 23.805 28.13 23.82 28.144 23.791 28.173 C 23.762 28.216 23.719 28.188 23.661 28.144 L 16.73 22.856 C 16.5 22.683 16.255 22.582 15.996 22.597 Z" style="visibility: hidden;">
    <title>Rate</title>
  </path>
  <path d="M 16.007 20.899 C 16.617 20.899 17.127 20.388 17.127 19.793 L 17.127 5.232 L 17.042 3.105 L 18.006 4.112 L 20.147 6.408 C 20.346 6.635 20.643 6.749 20.913 6.749 C 21.508 6.749 21.948 6.323 21.948 5.742 C 21.948 5.444 21.834 5.218 21.622 5.005 L 16.829 0.383 C 16.546 0.099 16.291 0 16.007 0 C 15.724 0 15.468 0.099 15.185 0.383 L 10.393 5.005 C 10.18 5.218 10.052 5.444 10.052 5.742 C 10.052 6.323 10.492 6.749 11.073 6.749 C 11.357 6.749 11.654 6.635 11.853 6.408 L 14.008 4.112 L 14.972 3.105 L 14.873 5.232 L 14.873 19.793 C 14.873 20.388 15.397 20.899 16.007 20.899 Z M 7.869 32 L 24.131 32 C 27.094 32 28.583 30.525 28.583 27.605 L 28.583 13.455 C 28.583 10.534 27.094 9.06 24.131 9.06 L 20.175 9.06 L 20.175 11.342 L 24.089 11.342 C 25.492 11.342 26.3 12.108 26.3 13.583 L 26.3 27.477 C 26.3 28.952 25.492 29.717 24.089 29.717 L 7.897 29.717 C 6.479 29.717 5.7 28.952 5.7 27.477 L 5.7 13.583 C 5.7 12.108 6.479 11.342 7.897 11.342 L 11.825 11.342 L 11.825 9.06 L 7.869 9.06 C 4.906 9.06 3.417 10.534 3.417 13.455 L 3.417 27.605 C 3.417 30.525 4.906 32 7.869 32 Z" style="visibility: hidden;">
    <title>Share</title>
  </path>
  <path d="M 16 32 C 24.753 32 32 24.737 32 16 C 32 7.247 24.737 0 15.984 0 C 7.247 0 0 7.247 0 16 C 0 24.737 7.263 32 16 32 Z M 16 29.333 C 8.596 29.333 2.682 23.404 2.682 16 C 2.682 8.596 8.58 2.667 15.984 2.667 C 23.388 2.667 29.318 8.596 29.333 16 C 29.349 23.404 23.404 29.333 16 29.333 Z M 15.859 10.416 C 17.004 10.416 17.898 9.506 17.898 8.376 C 17.898 7.231 17.004 6.322 15.859 6.322 C 14.729 6.322 13.82 7.231 13.82 8.376 C 13.82 9.506 14.729 10.416 15.859 10.416 Z M 13.255 24.627 L 19.639 24.627 C 20.282 24.627 20.784 24.173 20.784 23.529 C 20.784 22.918 20.282 22.431 19.639 22.431 L 17.694 22.431 L 17.694 14.447 C 17.694 13.6 17.271 13.035 16.471 13.035 L 13.522 13.035 C 12.878 13.035 12.376 13.522 12.376 14.133 C 12.376 14.776 12.878 15.231 13.522 15.231 L 15.2 15.231 L 15.2 22.431 L 13.255 22.431 C 12.612 22.431 12.11 22.918 12.11 23.529 C 12.11 24.173 12.612 24.627 13.255 24.627 Z" style="visibility: hidden;">
    <title>Info</title>
  </path>
  <path d="M 4.966 32 L 27.035 32 C 29.954 32 31.42 30.548 31.42 27.67 L 31.42 13.772 C 31.42 11.761 31.001 10.867 29.674 9.82 L 18.877 1.327 C 17.872 0.517 17.034 0 16 0 C 14.966 0 14.128 0.517 13.123 1.327 L 2.326 9.82 C 0.999 10.867 0.58 11.761 0.58 13.772 L 0.58 27.67 C 0.58 30.562 2.046 32 4.966 32 Z M 18.933 18.605 C 17.956 17.628 17.006 17.237 16.028 17.237 C 15.036 17.237 14.1 17.628 13.123 18.605 L 12.215 19.499 L 3.848 11.23 L 14.324 3.059 C 15.008 2.529 15.385 2.235 16 2.235 C 16.601 2.235 16.992 2.529 17.676 3.059 L 28.18 11.258 L 19.841 19.499 Z M 2.717 27.67 L 2.717 13.395 C 2.717 13.256 2.717 13.13 2.731 13.018 L 10.748 20.938 L 2.87 28.662 C 2.773 28.383 2.717 28.047 2.717 27.67 Z M 29.283 13.395 L 29.283 27.67 C 29.283 28.034 29.227 28.355 29.13 28.634 L 21.308 20.938 L 29.269 13.06 C 29.283 13.158 29.283 13.27 29.283 13.395 Z M 4.882 29.863 C 4.784 29.863 4.686 29.863 4.602 29.849 L 14.338 20.253 C 14.925 19.653 15.469 19.387 16.028 19.387 C 16.573 19.387 17.117 19.653 17.718 20.253 L 27.44 29.849 C 27.342 29.863 27.23 29.863 27.118 29.863 Z" style="visibility: hidden;">
    <title>Report</title>
  </path>
  <path fill-rule="evenodd" d="M 16 0.395 C 7.16 0.395 0 7.555 0 16.395 C 0 23.475 4.58 29.455 10.94 31.575 C 11.74 31.715 12.04 31.235 12.04 30.815 C 12.04 30.435 12.02 29.175 12.02 27.835 C 8 28.575 6.96 26.855 6.64 25.955 C 6.46 25.495 5.68 24.075 5 23.695 C 4.44 23.395 3.64 22.655 4.98 22.635 C 6.24 22.615 7.14 23.795 7.44 24.275 C 8.88 26.695 11.18 26.015 12.1 25.595 C 12.24 24.555 12.66 23.855 13.12 23.455 C 9.56 23.055 5.84 21.675 5.84 15.555 C 5.84 13.815 6.46 12.375 7.48 11.255 C 7.32 10.855 6.76 9.215 7.64 7.015 C 7.64 7.015 8.98 6.595 12.04 8.655 C 13.32 8.295 14.68 8.115 16.04 8.115 C 17.4 8.115 18.76 8.295 20.04 8.655 C 23.1 6.575 24.44 7.015 24.44 7.015 C 25.32 9.215 24.76 10.855 24.6 11.255 C 25.62 12.375 26.24 13.795 26.24 15.555 C 26.24 21.695 22.5 23.055 18.94 23.455 C 19.52 23.955 20.02 24.915 20.02 26.415 C 20.02 28.555 20 30.275 20 30.815 C 20 31.235 20.3 31.735 21.1 31.575 C 27.613 29.376 31.998 23.269 32 16.395 C 32 7.555 24.84 0.395 16 0.395 Z" style="visibility: hidden;">
    <title>Github</title>
  </path>
  <path d="M 3.447 27.328 C 3.447 30.448 4.984 32 8.074 32 L 23.925 32 C 27.014 32 28.552 30.448 28.552 27.328 L 28.552 4.687 C 28.552 1.582 27.014 0 23.925 0 L 8.074 0 C 4.984 0 3.447 1.582 3.447 4.687 Z M 5.85 27.284 L 5.85 4.731 C 5.85 3.239 6.641 2.403 8.193 2.403 L 23.805 2.403 C 25.358 2.403 26.148 3.239 26.148 4.731 L 26.148 27.284 C 26.148 28.776 25.358 29.597 23.805 29.597 L 8.193 29.597 C 6.641 29.597 5.85 28.776 5.85 27.284 Z M 10.357 8.657 L 21.671 8.657 C 22.208 8.657 22.596 8.239 22.596 7.716 C 22.596 7.209 22.208 6.821 21.671 6.821 L 10.357 6.821 C 9.82 6.821 9.417 7.209 9.417 7.716 C 9.417 8.239 9.82 8.657 10.357 8.657 Z M 10.357 13.866 L 21.671 13.866 C 22.208 13.866 22.596 13.448 22.596 12.925 C 22.596 12.418 22.208 12.03 21.671 12.03 L 10.357 12.03 C 9.82 12.03 9.417 12.418 9.417 12.925 C 9.417 13.448 9.82 13.866 10.357 13.866 Z M 10.357 19.075 L 15.716 19.075 C 16.238 19.075 16.641 18.672 16.641 18.164 C 16.641 17.642 16.238 17.239 15.716 17.239 L 10.357 17.239 C 9.82 17.239 9.417 17.642 9.417 18.164 C 9.417 18.672 9.82 19.075 10.357 19.075 Z">
    <title>Privacy policy</title>
  </path>
</svg>