<?xml version="1.0" encoding="utf-8"?>
<svg viewBox="0 0 120 120" width="0px" xmlns="http://www.w3.org/2000/svg">
  <path d="M 27.22 111.4 L 29.884 111.4 C 31.168 111.4 31.93 110.99 32.643 110.007 L 35.403 106.239 L 84.788 106.239 L 87.5 110.007 C 88.213 110.99 88.974 111.4 90.307 111.4 L 92.971 111.4 C 95.159 111.4 96.159 109.516 94.969 107.837 L 85.835 95.1 C 96.635 95.1 103.2 88.628 103.2 79.454 L 103.2 54.429 C 103.2 43.453 101.535 32.15 99.394 24.695 C 97.015 16.014 90.022 10.319 80.554 9.419 C 77.413 9.132 69.087 8.6 60 8.6 C 49.961 8.6 42.539 9.132 39.446 9.419 C 29.932 10.319 22.985 16.014 20.606 24.695 C 18.417 32.15 16.8 43.085 16.8 54.061 L 16.8 79.454 C 16.8 88.628 23.319 95.1 34.261 95.1 L 25.078 107.837 C 23.842 109.557 24.984 111.4 27.22 111.4 Z M 35.355 89.734 C 26.839 89.734 23.033 85.434 23.033 79.454 L 23.033 54.061 C 23.033 43.453 24.651 32.969 26.649 25.883 C 28.456 19.412 33.31 15.398 40.065 14.784 C 43.3 14.456 50.39 13.965 60 13.965 C 68.659 13.965 76.652 14.456 79.887 14.784 C 86.691 15.398 91.544 19.412 93.352 25.883 C 95.349 32.969 96.968 43.822 96.968 54.429 L 96.968 79.454 C 96.968 85.434 93.161 89.734 84.597 89.734 L 35.355 89.734 Z M 47.82 24.736 L 72.132 24.736 C 73.94 24.736 75.082 23.712 75.082 22.198 C 75.082 20.682 73.94 19.74 72.132 19.74 L 47.82 19.74 C 46.061 19.74 44.919 20.682 44.919 22.198 C 44.919 23.712 46.061 24.736 47.82 24.736 Z M 82.029 83.386 C 85.691 83.386 88.594 80.929 88.594 77.693 C 88.594 74.498 85.739 72.082 82.029 72.082 C 78.27 72.082 75.415 74.498 75.415 77.693 C 75.415 80.929 78.27 83.386 82.029 83.386 Z M 37.877 83.345 C 41.588 83.345 44.442 80.969 44.442 77.693 C 44.442 74.457 41.683 72.123 37.877 72.123 C 34.119 72.123 31.406 74.457 31.406 77.693 C 31.406 80.969 34.119 83.345 37.877 83.345 Z M 39.827 100.096 L 43.396 95.1 L 76.794 95.1 L 80.364 100.096 L 39.827 100.096 Z" style="visibility: hidden;">
    <title>Tram-mid</title>
  </path>
  <path d="M 26.563 111.4 L 29.003 111.4 C 30.175 111.4 30.81 111.066 31.445 110.189 L 34.227 106.39 L 85.822 106.39 L 88.604 110.189 C 89.239 111.066 89.874 111.4 91.095 111.4 L 93.486 111.4 C 95.438 111.4 96.22 109.814 95.194 108.393 L 85.969 95.659 C 97.343 95.492 103.2 88.936 103.2 80.335 L 103.2 54.572 C 103.2 42.38 101.15 30.313 98.953 23.13 C 96.757 15.406 90.313 10.354 81.673 9.518 C 77.72 9.143 69.323 8.6 60 8.6 C 50.042 8.6 42.232 9.143 38.279 9.518 C 29.638 10.354 23.244 15.406 20.998 23.13 C 18.85 30.313 16.8 42.129 16.8 54.321 L 16.8 80.335 C 16.8 88.978 22.658 95.533 34.08 95.659 L 24.806 108.393 C 23.732 109.855 24.66 111.4 26.563 111.4 Z M 35.154 91.316 C 25.684 91.316 21.876 86.473 21.876 80.335 L 21.876 54.321 C 21.876 42.338 24.025 30.814 26.026 24.05 C 27.686 18.162 32.323 14.488 38.815 13.82 C 43.208 13.319 50.677 12.942 60 12.942 C 68.64 12.942 76.792 13.319 81.137 13.82 C 87.629 14.488 92.314 18.162 93.974 24.05 C 95.927 30.814 98.124 42.588 98.124 54.572 L 98.124 80.335 C 98.124 86.473 94.316 91.316 84.798 91.316 L 35.154 91.316 Z M 47.26 23.799 L 72.691 23.799 C 74.303 23.799 75.327 22.88 75.327 21.544 C 75.327 20.208 74.303 19.331 72.691 19.331 L 47.26 19.331 C 45.649 19.331 44.673 20.208 44.673 21.544 C 44.673 22.88 45.649 23.799 47.26 23.799 Z M 82.747 84.176 C 86.262 84.176 89.093 81.838 89.093 78.707 C 89.093 75.658 86.359 73.32 82.747 73.32 C 79.135 73.32 76.353 75.658 76.353 78.707 C 76.353 81.838 79.135 84.176 82.747 84.176 Z M 37.204 84.134 C 40.817 84.134 43.55 81.838 43.55 78.707 C 43.55 75.616 40.865 73.362 37.204 73.362 C 33.592 73.362 30.956 75.616 30.956 78.707 C 30.956 81.838 33.592 84.134 37.204 84.134 Z M 38.181 100.961 L 42.036 95.659 L 78.062 95.659 L 81.917 100.961 L 38.181 100.961 Z" style="fill: rgb(255, 0, 0); visibility: hidden;">
    <title>Tram-thin</title>
  </path>
  <path d="M 8.6 42.254 C 8.6 66.202 27.799 89.691 56.756 110.137 C 57.706 110.768 59.024 111.4 59.974 111.4 C 60.923 111.4 62.242 110.768 63.244 110.137 C 92.201 89.691 111.4 66.202 111.4 42.254 C 111.4 22.613 98.952 8.6 82.338 8.6 C 72.791 8.6 64.51 13.941 59.974 22.211 C 55.49 13.998 47.157 8.6 37.61 8.6 C 20.995 8.6 8.6 22.613 8.6 42.254 Z M 15.088 42.254 C 15.088 26.461 24.634 15.721 37.557 15.721 C 47.368 15.721 53.433 22.326 57.073 28.93 C 58.18 30.825 58.919 31.4 59.974 31.4 C 61.029 31.4 61.714 30.768 62.927 28.93 C 66.672 22.383 72.633 15.721 82.39 15.721 C 95.313 15.721 104.86 26.461 104.86 42.254 C 104.86 63.79 84.237 86.533 60.923 103.475 C 60.501 103.762 60.185 103.991 59.974 103.991 C 59.763 103.991 59.499 103.762 59.077 103.475 C 35.764 86.533 15.088 63.79 15.088 42.254 Z" style="visibility: hidden;">
    <title>Heart</title>
  </path>
  <path d="M 55.068 111.392 L 64.932 111.392 C 68.35 111.392 70.889 109.341 71.719 105.972 L 73.867 96.548 L 76.211 95.718 L 84.365 100.796 C 87.295 102.7 90.567 102.261 93.008 99.819 L 99.844 92.983 C 102.334 90.542 102.725 87.271 100.869 84.341 L 95.742 76.187 L 96.572 73.892 L 105.996 71.743 C 109.365 70.913 111.416 68.374 111.416 64.956 L 111.416 55.239 C 111.416 51.821 109.365 49.282 105.996 48.452 L 96.67 46.206 L 95.742 43.911 L 100.918 35.757 C 102.774 32.827 102.383 29.605 99.893 27.114 L 93.057 20.23 C 90.615 17.837 87.393 17.398 84.414 19.253 L 76.26 24.331 L 73.867 23.452 L 71.719 14.028 C 70.889 10.61 68.35 8.608 64.932 8.608 L 55.068 8.608 C 51.602 8.608 49.111 10.61 48.281 14.028 L 46.133 23.452 L 43.692 24.331 L 35.537 19.253 C 32.559 17.398 29.336 17.837 26.943 20.23 L 20.059 27.114 C 17.617 29.605 17.178 32.827 19.082 35.757 L 24.209 43.911 L 23.281 46.206 L 14.004 48.452 C 10.586 49.282 8.584 51.821 8.584 55.239 L 8.584 64.956 C 8.584 68.374 10.635 70.913 14.004 71.743 L 23.379 73.892 L 24.209 76.187 L 19.082 84.341 C 17.227 87.271 17.617 90.542 20.108 92.983 L 26.943 99.819 C 29.385 102.261 32.656 102.7 35.586 100.796 L 43.74 95.718 L 46.133 96.548 L 48.281 105.972 C 49.111 109.341 51.602 111.392 55.068 111.392 Z M 55.703 105.483 C 54.531 105.483 53.897 104.946 53.701 103.872 L 50.869 92.007 C 48.184 91.274 45.645 90.249 43.643 89.126 L 33.291 95.571 C 32.363 96.157 31.484 96.06 30.606 95.23 L 24.697 89.272 C 23.867 88.442 23.77 87.612 24.404 86.636 L 30.801 76.284 C 29.873 74.38 28.701 71.792 28.018 69.107 L 16.104 66.323 C 15.029 66.128 14.443 65.493 14.443 64.321 L 14.443 55.825 C 14.443 54.653 14.981 54.019 16.104 53.774 L 27.969 50.991 C 28.701 48.208 29.922 45.571 30.752 43.765 L 24.356 33.462 C 23.721 32.437 23.77 31.607 24.6 30.776 L 30.557 24.868 C 31.436 24.038 32.266 23.94 33.291 24.526 L 43.545 30.874 C 45.547 29.849 48.281 28.774 50.918 27.993 L 53.701 16.128 C 53.897 15.054 54.531 14.517 55.703 14.517 L 64.297 14.517 C 65.469 14.517 66.104 15.005 66.299 16.128 L 69.131 28.091 C 71.865 28.774 74.307 29.898 76.358 30.923 L 86.66 24.526 C 87.686 23.94 88.516 24.038 89.395 24.868 L 95.352 30.776 C 96.182 31.607 96.231 32.437 95.596 33.462 L 89.199 43.765 C 90.078 45.571 91.299 48.159 92.031 50.991 L 103.897 53.774 C 105.02 54.019 105.508 54.653 105.508 55.825 L 105.508 64.321 C 105.508 65.493 104.971 66.128 103.897 66.323 L 91.983 69.107 C 91.25 71.841 90.176 74.38 89.15 76.284 L 95.547 86.636 C 96.182 87.612 96.084 88.442 95.303 89.272 L 89.346 95.23 C 88.467 96.06 87.588 96.157 86.66 95.571 L 76.309 89.126 C 74.356 90.249 71.865 91.274 69.131 92.007 L 66.299 103.872 C 66.104 104.995 65.469 105.483 64.297 105.483 Z M 60 78.677 C 70.254 78.677 78.652 70.23 78.652 59.976 C 78.652 49.819 70.254 41.421 60 41.421 C 49.795 41.421 41.348 49.819 41.348 59.976 C 41.348 70.23 49.795 78.677 60 78.677 Z M 60 72.817 C 53.018 72.817 47.207 67.007 47.207 59.976 C 47.207 53.042 53.018 47.232 60 47.232 C 66.934 47.232 72.744 53.042 72.744 59.976 C 72.744 66.958 66.934 72.817 60 72.817 Z" style="">
    <title>Gear</title>
  </path>
</svg>