<?xml version="1.0" encoding="UTF-8"?>
<!--Generator: Apple Native CoreSVG 148-->
<!DOCTYPE svg
PUBLIC "-//W3C//DTD SVG 1.1//EN"
       "http://www.w3.org/Graphics/SVG/1.1/DTD/svg11.dtd">
<svg version="1.1" xmlns="http://www.w3.org/2000/svg" xmlns:xlink="http://www.w3.org/1999/xlink" width="3300" height="2200">
 <!--glyph: "uni100748.medium", point size: 100.000000, font version: "Version 16.0d11e1", template writer version: "8"-->
 <g id="Notes">
  <rect height="2200" id="artboard" style="fill:white;opacity:1" width="3300" x="0" y="0"/>
  <line id="" style="fill:none;stroke:black;opacity:1;stroke-width:0.5;" x1="263" x2="3036" y1="292" y2="292"/>
  <text style="stroke:none;fill:black;font-family:-apple-system,&quot;SF Pro Display&quot;,&quot;SF Pro Text&quot;,Helvetica,sans-serif;font-weight:bold;" transform="matrix(1 0 0 1 263 322)">Weight/Scale Variations</text>
  <text style="stroke:none;fill:black;font-family:-apple-system,&quot;SF Pro Display&quot;,&quot;SF Pro Text&quot;,Helvetica,sans-serif;text-anchor:middle;" transform="matrix(1 0 0 1 559.711 322)">Ultralight</text>
  <text style="stroke:none;fill:black;font-family:-apple-system,&quot;SF Pro Display&quot;,&quot;SF Pro Text&quot;,Helvetica,sans-serif;text-anchor:middle;" transform="matrix(1 0 0 1 856.422 322)">Thin</text>
  <text style="stroke:none;fill:black;font-family:-apple-system,&quot;SF Pro Display&quot;,&quot;SF Pro Text&quot;,Helvetica,sans-serif;text-anchor:middle;" transform="matrix(1 0 0 1 1153.13 322)">Light</text>
  <text style="stroke:none;fill:black;font-family:-apple-system,&quot;SF Pro Display&quot;,&quot;SF Pro Text&quot;,Helvetica,sans-serif;text-anchor:middle;" transform="matrix(1 0 0 1 1449.84 322)">Regular</text>
  <text style="stroke:none;fill:black;font-family:-apple-system,&quot;SF Pro Display&quot;,&quot;SF Pro Text&quot;,Helvetica,sans-serif;text-anchor:middle;" transform="matrix(1 0 0 1 1746.56 322)">Medium</text>
  <text style="stroke:none;fill:black;font-family:-apple-system,&quot;SF Pro Display&quot;,&quot;SF Pro Text&quot;,Helvetica,sans-serif;text-anchor:middle;" transform="matrix(1 0 0 1 2043.27 322)">Semibold</text>
  <text style="stroke:none;fill:black;font-family:-apple-system,&quot;SF Pro Display&quot;,&quot;SF Pro Text&quot;,Helvetica,sans-serif;text-anchor:middle;" transform="matrix(1 0 0 1 2339.98 322)">Bold</text>
  <text style="stroke:none;fill:black;font-family:-apple-system,&quot;SF Pro Display&quot;,&quot;SF Pro Text&quot;,Helvetica,sans-serif;text-anchor:middle;" transform="matrix(1 0 0 1 2636.69 322)">Heavy</text>
  <text style="stroke:none;fill:black;font-family:-apple-system,&quot;SF Pro Display&quot;,&quot;SF Pro Text&quot;,Helvetica,sans-serif;text-anchor:middle;" transform="matrix(1 0 0 1 2933.4 322)">Black</text>
  <line id="" style="fill:none;stroke:black;opacity:1;stroke-width:0.5;" x1="263" x2="3036" y1="1903" y2="1903"/>
  <g id="" transform="matrix(1 0 0 1 263 1933)">
   <path d="M 9.24805 0.830078 C 13.5547 0.830078 17.1387 -2.74414 17.1387 -7.05078 C 17.1387 -11.3574 13.5449 -14.9316 9.23828 -14.9316 C 4.94141 -14.9316 1.36719 -11.3574 1.36719 -7.05078 C 1.36719 -2.74414 4.95117 0.830078 9.24805 0.830078 Z M 9.24805 -0.654297 C 5.70312 -0.654297 2.87109 -3.49609 2.87109 -7.05078 C 2.87109 -10.6055 5.69336 -13.4473 9.23828 -13.4473 C 12.793 -13.4473 15.6348 -10.6055 15.6445 -7.05078 C 15.6543 -3.49609 12.8027 -0.654297 9.24805 -0.654297 Z M 9.22852 -3.62305 C 9.69727 -3.62305 9.9707 -3.93555 9.9707 -4.45312 L 9.9707 -6.31836 L 12.002 -6.31836 C 12.5 -6.31836 12.832 -6.57227 12.832 -7.04102 C 12.832 -7.51953 12.5195 -7.7832 12.002 -7.7832 L 9.9707 -7.7832 L 9.9707 -9.81445 C 9.9707 -10.332 9.69727 -10.6543 9.22852 -10.6543 C 8.75977 -10.6543 8.50586 -10.3125 8.50586 -9.81445 L 8.50586 -7.7832 L 6.49414 -7.7832 C 5.97656 -7.7832 5.64453 -7.51953 5.64453 -7.04102 C 5.64453 -6.57227 5.99609 -6.31836 6.49414 -6.31836 L 8.50586 -6.31836 L 8.50586 -4.45312 C 8.50586 -3.95508 8.75977 -3.62305 9.22852 -3.62305 Z"/>
  </g>
  <g id="" transform="matrix(1 0 0 1 281.506 1933)">
   <path d="M 11.709 2.91016 C 17.1582 2.91016 21.6699 -1.61133 21.6699 -7.05078 C 21.6699 -12.5 17.1484 -17.0117 11.6992 -17.0117 C 6.25977 -17.0117 1.74805 -12.5 1.74805 -7.05078 C 1.74805 -1.61133 6.26953 2.91016 11.709 2.91016 Z M 11.709 1.25 C 7.09961 1.25 3.41797 -2.44141 3.41797 -7.05078 C 3.41797 -11.6602 7.08984 -15.3516 11.6992 -15.3516 C 16.3086 -15.3516 20 -11.6602 20.0098 -7.05078 C 20.0195 -2.44141 16.3184 1.25 11.709 1.25 Z M 11.6797 -2.66602 C 12.207 -2.66602 12.5098 -3.01758 12.5098 -3.59375 L 12.5098 -6.23047 L 15.3223 -6.23047 C 15.8691 -6.23047 16.25 -6.51367 16.25 -7.03125 C 16.25 -7.55859 15.8887 -7.86133 15.3223 -7.86133 L 12.5098 -7.86133 L 12.5098 -10.6836 C 12.5098 -11.25 12.207 -11.6113 11.6797 -11.6113 C 11.1621 -11.6113 10.8789 -11.2305 10.8789 -10.6836 L 10.8789 -7.86133 L 8.07617 -7.86133 C 7.50977 -7.86133 7.13867 -7.55859 7.13867 -7.03125 C 7.13867 -6.51367 7.5293 -6.23047 8.07617 -6.23047 L 10.8789 -6.23047 L 10.8789 -3.59375 C 10.8789 -3.03711 11.1621 -2.66602 11.6797 -2.66602 Z"/>
  </g>
  <g id="" transform="matrix(1 0 0 1 304.924 1933)">
   <path d="M 14.9707 5.66406 C 21.9336 5.66406 27.6953 -0.0976562 27.6953 -7.05078 C 27.6953 -14.0137 21.9238 -19.7754 14.9609 -19.7754 C 8.00781 -19.7754 2.25586 -14.0137 2.25586 -7.05078 C 2.25586 -0.0976562 8.01758 5.66406 14.9707 5.66406 Z M 14.9707 3.84766 C 8.93555 3.84766 4.08203 -1.01562 4.08203 -7.05078 C 4.08203 -13.0957 8.92578 -17.9492 14.9609 -17.9492 C 21.0059 -17.9492 25.8594 -13.0957 25.8691 -7.05078 C 25.8789 -1.01562 21.0156 3.84766 14.9707 3.84766 Z M 14.9414 -1.38672 C 15.5176 -1.38672 15.8594 -1.77734 15.8594 -2.38281 L 15.8594 -6.13281 L 19.7754 -6.13281 C 20.3711 -6.13281 20.7812 -6.46484 20.7812 -7.02148 C 20.7812 -7.59766 20.3906 -7.93945 19.7754 -7.93945 L 15.8594 -7.93945 L 15.8594 -11.8652 C 15.8594 -12.4805 15.5176 -12.8711 14.9414 -12.8711 C 14.375 -12.8711 14.0527 -12.4609 14.0527 -11.8652 L 14.0527 -7.93945 L 10.1465 -7.93945 C 9.53125 -7.93945 9.13086 -7.59766 9.13086 -7.02148 C 9.13086 -6.46484 9.55078 -6.13281 10.1465 -6.13281 L 14.0527 -6.13281 L 14.0527 -2.38281 C 14.0527 -1.79688 14.375 -1.38672 14.9414 -1.38672 Z"/>
  </g>
  <text style="stroke:none;fill:black;font-family:-apple-system,&quot;SF Pro Display&quot;,&quot;SF Pro Text&quot;,Helvetica,sans-serif;font-weight:bold;" transform="matrix(1 0 0 1 263 1953)">Design Variations</text>
  <text style="stroke:none;fill:black;font-family:-apple-system,&quot;SF Pro Display&quot;,&quot;SF Pro Text&quot;,Helvetica,sans-serif;" transform="matrix(1 0 0 1 263 1971)">Symbols are supported in up to nine weights and three scales.</text>
  <text style="stroke:none;fill:black;font-family:-apple-system,&quot;SF Pro Display&quot;,&quot;SF Pro Text&quot;,Helvetica,sans-serif;" transform="matrix(1 0 0 1 263 1989)">For optimal layout with text and other symbols, vertically align</text>
  <text style="stroke:none;fill:black;font-family:-apple-system,&quot;SF Pro Display&quot;,&quot;SF Pro Text&quot;,Helvetica,sans-serif;" transform="matrix(1 0 0 1 263 2007)">symbols with the adjacent text.</text>
  <line id="" style="fill:none;stroke:#00AEEF;stroke-width:0.5;opacity:1.0;" x1="776" x2="776" y1="1919" y2="1933"/>
  <g id="" transform="matrix(1 0 0 1 776 1933)">
   <path d="M 3.31055 0.126953 C 3.82812 0.126953 4.08203 -0.0683594 4.26758 -0.605469 L 5.52734 -4.0625 L 11.2891 -4.0625 L 12.5488 -0.605469 C 12.7344 -0.0683594 12.9883 0.126953 13.4961 0.126953 C 14.0137 0.126953 14.3457 -0.185547 14.3457 -0.673828 C 14.3457 -0.839844 14.3164 -0.986328 14.2383 -1.20117 L 9.6582 -13.3887 C 9.43359 -13.9941 9.0332 -14.2871 8.4082 -14.2871 C 7.80273 -14.2871 7.39258 -13.9941 7.17773 -13.3984 L 2.59766 -1.19141 C 2.51953 -0.976562 2.49023 -0.830078 2.49023 -0.664062 C 2.49023 -0.175781 2.80273 0.126953 3.31055 0.126953 Z M 6.00586 -5.53711 L 8.37891 -12.1094 L 8.42773 -12.1094 L 10.8008 -5.53711 Z"/>
  </g>
  <line id="" style="fill:none;stroke:#00AEEF;stroke-width:0.5;opacity:1.0;" x1="792.836" x2="792.836" y1="1919" y2="1933"/>
  <text style="stroke:none;fill:black;font-family:-apple-system,&quot;SF Pro Display&quot;,&quot;SF Pro Text&quot;,Helvetica,sans-serif;font-weight:bold;" transform="matrix(1 0 0 1 776 1953)">Margins</text>
  <text style="stroke:none;fill:black;font-family:-apple-system,&quot;SF Pro Display&quot;,&quot;SF Pro Text&quot;,Helvetica,sans-serif;" transform="matrix(1 0 0 1 776 1971)">Leading and trailing margins on the left and right side of each symbol</text>
  <text style="stroke:none;fill:black;font-family:-apple-system,&quot;SF Pro Display&quot;,&quot;SF Pro Text&quot;,Helvetica,sans-serif;" transform="matrix(1 0 0 1 776 1989)">can be adjusted by modifying the x-location of the margin guidelines.</text>
  <text style="stroke:none;fill:black;font-family:-apple-system,&quot;SF Pro Display&quot;,&quot;SF Pro Text&quot;,Helvetica,sans-serif;" transform="matrix(1 0 0 1 776 2007)">Modifications are automatically applied proportionally to all</text>
  <text style="stroke:none;fill:black;font-family:-apple-system,&quot;SF Pro Display&quot;,&quot;SF Pro Text&quot;,Helvetica,sans-serif;" transform="matrix(1 0 0 1 776 2025)">scales and weights.</text>
  <g id="" transform="matrix(1 0 0 1 1289 1933)">
   <path d="M 2.8418 1.86523 L 4.54102 3.57422 C 5.40039 4.44336 6.38672 4.38477 7.31445 3.35938 L 17.4902 -7.85156 C 17.7539 -7.76367 18.0273 -7.7832 18.3398 -7.8418 L 19.4043 -8.03711 L 20.0684 -7.36328 L 20.0293 -6.80664 C 19.9902 -6.30859 20.1172 -5.92773 20.6055 -5.44922 L 21.3672 -4.70703 C 21.8457 -4.22852 22.4609 -4.19922 22.9297 -4.66797 L 25.8398 -7.58789 C 26.3086 -8.05664 26.2891 -8.65234 25.8105 -9.13086 L 25.0391 -9.89258 C 24.5605 -10.3711 24.1895 -10.5273 23.7109 -10.4883 L 23.1348 -10.4395 L 22.4902 -11.0742 L 22.7344 -12.1973 C 22.8613 -12.7637 22.7051 -13.2031 22.1191 -13.7891 L 19.9219 -15.9766 C 16.582 -19.2969 12.1484 -19.2188 9.25781 -16.3281 C 8.83789 -15.918 8.80859 -15.3418 9.04297 -14.9512 C 9.27734 -14.5898 9.73633 -14.3555 10.3809 -14.5215 C 11.8457 -14.8633 13.3691 -14.9219 14.7949 -13.9844 L 14.209 -12.5293 C 14.0137 -12.0508 13.9844 -11.6504 14.1113 -11.2891 L 3.04688 -0.898438 C 2.06055 0.0195312 1.98242 0.996094 2.8418 1.86523 Z M 10.752 -15.957 C 13.1836 -17.7344 16.4746 -17.4316 18.7012 -15.2051 L 21.1328 -12.793 C 21.3672 -12.5586 21.4062 -12.373 21.3379 -12.0312 L 21.0156 -10.5469 L 22.5195 -9.0625 L 23.5059 -9.12109 C 23.7598 -9.13086 23.8379 -9.11133 24.0332 -8.91602 L 24.6094 -8.33984 L 22.168 -5.89844 L 21.5918 -6.47461 C 21.3965 -6.66992 21.3672 -6.74805 21.377 -7.01172 L 21.4453 -7.98828 L 19.9512 -9.47266 L 18.4277 -9.21875 C 18.1055 -9.15039 17.959 -9.17969 17.7148 -9.41406 L 15.7129 -11.416 C 15.459 -11.6504 15.4297 -11.8164 15.5859 -12.1875 L 16.4648 -14.2773 C 14.9023 -15.7324 12.8711 -16.3574 10.8398 -15.7617 C 10.6836 -15.7227 10.625 -15.8496 10.752 -15.957 Z M 5.27344 2.30469 L 4.10156 1.14258 C 3.63281 0.683594 3.74023 0.341797 4.14062 -0.0195312 L 14.9512 -10.1953 L 16.416 -8.71094 L 6.42578 2.27539 C 6.07422 2.67578 5.74219 2.77344 5.27344 2.30469 Z"/>
  </g>
  <text style="stroke:none;fill:black;font-family:-apple-system,&quot;SF Pro Display&quot;,&quot;SF Pro Text&quot;,Helvetica,sans-serif;font-weight:bold;" transform="matrix(1 0 0 1 1289 1953)">Exporting</text>
  <text style="stroke:none;fill:black;font-family:-apple-system,&quot;SF Pro Display&quot;,&quot;SF Pro Text&quot;,Helvetica,sans-serif;" transform="matrix(1 0 0 1 1289 1971)">Symbols should be outlined when exporting to ensure the</text>
  <text style="stroke:none;fill:black;font-family:-apple-system,&quot;SF Pro Display&quot;,&quot;SF Pro Text&quot;,Helvetica,sans-serif;" transform="matrix(1 0 0 1 1289 1989)">design is preserved when submitting to Xcode.</text>
  <text id="template-version" style="stroke:none;fill:black;font-family:-apple-system,&quot;SF Pro Display&quot;,&quot;SF Pro Text&quot;,Helvetica,sans-serif;text-anchor:end;" transform="matrix(1 0 0 1 3036 1933)">Template v.2.0</text>
  <text style="stroke:none;fill:black;font-family:-apple-system,&quot;SF Pro Display&quot;,&quot;SF Pro Text&quot;,Helvetica,sans-serif;text-anchor:end;" transform="matrix(1 0 0 1 3036 1951)">Requires Xcode 12 or greater</text>
  <text style="stroke:none;fill:black;font-family:-apple-system,&quot;SF Pro Display&quot;,&quot;SF Pro Text&quot;,Helvetica,sans-serif;text-anchor:end;" transform="matrix(1 0 0 1 3036 1969)">Generated from bus</text>
  <text style="stroke:none;fill:black;font-family:-apple-system,&quot;SF Pro Display&quot;,&quot;SF Pro Text&quot;,Helvetica,sans-serif;text-anchor:end;" transform="matrix(1 0 0 1 3036 1987)">Typeset at 100 points</text>
  <text style="stroke:none;fill:black;font-family:-apple-system,&quot;SF Pro Display&quot;,&quot;SF Pro Text&quot;,Helvetica,sans-serif;" transform="matrix(1 0 0 1 263 726)">Small</text>
  <text style="stroke:none;fill:black;font-family:-apple-system,&quot;SF Pro Display&quot;,&quot;SF Pro Text&quot;,Helvetica,sans-serif;" transform="matrix(1 0 0 1 263 1156)">Medium</text>
  <text style="stroke:none;fill:black;font-family:-apple-system,&quot;SF Pro Display&quot;,&quot;SF Pro Text&quot;,Helvetica,sans-serif;" transform="matrix(1 0 0 1 263 1586)">Large</text>
 </g>
 <g id="Guides">
  <g id="H-reference" style="fill:#27AAE1;stroke:none;" transform="matrix(1 0 0 1 339 696)">
   <path d="M 0.976562 0 L 3.66211 0 L 12.9883 -24.4629 L 45.7031 -24.4629 L 55.0781 0 L 57.7148 0 L 30.6152 -70.459 L 28.125 -70.459 Z M 29.2969 -67.1387 L 29.3945 -67.1387 L 44.873 -26.709 L 13.8672 -26.709 Z"/>
  </g>
  <line id="Baseline-S" style="fill:none;stroke:#27AAE1;opacity:1;stroke-width:0.5;" x1="263" x2="3036" y1="696" y2="696"/>
  <line id="Capline-S" style="fill:none;stroke:#27AAE1;opacity:1;stroke-width:0.5;" x1="263" x2="3036" y1="625.541" y2="625.541"/>
  <g id="H-reference" style="fill:#27AAE1;stroke:none;" transform="matrix(1 0 0 1 339 1126)">
   <path d="M 0.976562 0 L 3.66211 0 L 12.9883 -24.4629 L 45.7031 -24.4629 L 55.0781 0 L 57.7148 0 L 30.6152 -70.459 L 28.125 -70.459 Z M 29.2969 -67.1387 L 29.3945 -67.1387 L 44.873 -26.709 L 13.8672 -26.709 Z"/>
  </g>
  <line id="Baseline-M" style="fill:none;stroke:#27AAE1;opacity:1;stroke-width:0.5;" x1="263" x2="3036" y1="1126" y2="1126"/>
  <line id="Capline-M" style="fill:none;stroke:#27AAE1;opacity:1;stroke-width:0.5;" x1="263" x2="3036" y1="1055.54" y2="1055.54"/>
  <g id="H-reference" style="fill:#27AAE1;stroke:none;" transform="matrix(1 0 0 1 339 1556)">
   <path d="M 0.976562 0 L 3.66211 0 L 12.9883 -24.4629 L 45.7031 -24.4629 L 55.0781 0 L 57.7148 0 L 30.6152 -70.459 L 28.125 -70.459 Z M 29.2969 -67.1387 L 29.3945 -67.1387 L 44.873 -26.709 L 13.8672 -26.709 Z"/>
  </g>
  <line id="Baseline-L" style="fill:none;stroke:#27AAE1;opacity:1;stroke-width:0.5;" x1="263" x2="3036" y1="1556" y2="1556"/>
  <line id="Capline-L" style="fill:none;stroke:#27AAE1;opacity:1;stroke-width:0.5;" x1="263" x2="3036" y1="1485.54" y2="1485.54"/>
  <line id="left-margin" style="fill:none;stroke:#00AEEF;stroke-width:0.5;opacity:1.0;" x1="1383.05" x2="1383.05" y1="1030.79" y2="1150.12"/>
  <line id="right-margin" style="fill:none;stroke:#00AEEF;stroke-width:0.5;opacity:1.0;" x1="1516.64" x2="1516.64" y1="1030.79" y2="1150.12"/>
 </g>
 <g id="Symbols">
  <g id="Black-L" transform="matrix(1 0 0 1 2836.16 1556)">
   <path d="M 43.8965 44.4824 L 52.0508 44.4824 C 59.8633 44.4824 63.8672 40.4785 63.8672 32.7637 L 63.8672 24.6582 C 73.5352 25.3418 84.7656 25.5859 97.2168 25.5859 C 109.717 25.5859 120.947 25.293 130.615 24.6582 L 130.615 32.7637 C 130.615 40.4785 134.619 44.4824 142.432 44.4824 L 150.537 44.4824 C 158.35 44.4824 162.354 40.4785 162.354 32.7637 L 162.354 14.5508 C 164.502 11.3281 165.576 7.27539 165.576 2.53906 L 165.576 -43.3594 L 168.555 -43.3594 C 174.121 -43.3594 178.418 -47.2656 178.418 -52.6855 L 178.418 -83.7891 C 178.418 -89.2578 174.121 -93.1152 168.555 -93.1152 L 165.576 -93.1152 L 165.576 -97.7539 C 165.576 -108.887 159.619 -116.162 148.145 -118.018 C 135.742 -119.971 118.018 -120.85 97.2168 -120.85 C 76.4648 -120.85 58.7402 -120.068 46.3379 -118.018 C 34.8633 -116.064 28.9062 -108.74 28.9062 -97.7539 L 28.9062 -93.1152 L 25.9277 -93.1152 C 20.3613 -93.1152 16.0645 -89.2578 16.0645 -83.7891 L 16.0645 -52.6855 C 16.0645 -47.2656 20.3613 -43.3594 25.9277 -43.3594 L 28.9062 -43.3594 L 28.9062 2.53906 C 28.9062 7.22656 29.9805 11.2305 32.1289 14.4531 L 32.1289 32.7637 C 32.1289 40.4785 36.084 44.4824 43.8965 44.4824 Z M 97.2168 9.42383 C 76.416 9.42383 60.5957 8.64258 51.5625 6.93359 C 47.0215 6.05469 45.0684 3.22266 45.0684 -1.85547 L 45.0684 -93.3594 C 45.0684 -98.4375 47.2656 -101.318 51.5625 -102.197 C 60.498 -103.906 76.709 -104.639 97.2168 -104.639 C 117.773 -104.639 133.936 -103.613 142.92 -102.148 C 147.412 -101.367 149.365 -98.584 149.365 -93.3594 L 149.365 -1.85547 C 149.365 3.36914 147.412 6.20117 142.92 6.88477 C 133.887 8.25195 118.066 9.42383 97.2168 9.42383 Z M 58.7402 -24.4629 C 80.5176 -20.5078 114.16 -20.752 135.84 -24.4629 C 140.723 -25.293 143.359 -28.5156 143.359 -33.6914 L 143.359 -86.4746 C 143.359 -92.3828 140.381 -95.9473 134.717 -96.4844 C 113.818 -98.4863 81.1035 -98.4863 59.9121 -96.4844 C 54.248 -95.9473 51.1719 -92.3828 51.1719 -86.4746 L 51.1719 -33.6914 C 51.1719 -28.5156 53.8086 -25.3906 58.7402 -24.4629 Z M 61.6211 1.31836 C 66.4062 1.31836 70.2148 -2.49023 70.2148 -7.27539 C 70.2148 -12.1094 66.4062 -15.8691 61.6211 -15.8691 C 56.7871 -15.8691 53.0273 -12.1094 53.0273 -7.27539 C 53.0273 -2.49023 56.7871 1.31836 61.6211 1.31836 Z M 132.861 1.31836 C 137.646 1.31836 141.455 -2.49023 141.455 -7.27539 C 141.455 -12.1094 137.646 -15.8691 132.861 -15.8691 C 128.027 -15.8691 124.268 -12.1094 124.268 -7.27539 C 124.268 -2.49023 128.027 1.31836 132.861 1.31836 Z M 84.5215 -0.585938 L 111.133 -0.585938 C 115.088 -0.585938 117.969 -3.4668 117.969 -7.37305 C 117.969 -11.377 115.088 -14.1602 111.133 -14.1602 L 84.5215 -14.1602 C 79.3457 -14.1602 76.4648 -11.377 76.4648 -7.37305 C 76.4648 -3.4668 79.3457 -0.585938 84.5215 -0.585938 Z"/>
  </g>
  <g id="Heavy-L" transform="matrix(1 0 0 1 2542.4 1556)">
   <path d="M 42.041 42.7734 L 49.9512 42.7734 C 57.0312 42.7734 60.9375 38.8672 60.9375 31.8848 L 60.9375 23.3398 C 70.7031 24.0234 81.8848 24.3164 94.2871 24.3164 C 106.641 24.3164 117.871 23.9746 127.637 23.291 L 127.637 31.8848 C 127.637 38.8672 131.543 42.7734 138.574 42.7734 L 146.533 42.7734 C 153.613 42.7734 157.471 38.8672 157.471 31.8848 L 157.471 14.3555 C 159.619 11.377 160.693 7.51953 160.693 2.97852 L 160.693 -44.7266 L 163.623 -44.7266 C 168.701 -44.7266 172.51 -48.1445 172.51 -53.0273 L 172.51 -82.8125 C 172.51 -87.6953 168.701 -91.1621 163.623 -91.1621 L 160.693 -91.1621 L 160.693 -96.4844 C 160.693 -106.836 155.029 -113.428 144.385 -115.088 C 131.787 -116.895 114.16 -117.773 94.2871 -117.773 C 74.3652 -117.773 56.7871 -116.992 44.1895 -115.088 C 33.4961 -113.33 27.832 -106.738 27.832 -96.4844 L 27.832 -91.1621 L 24.9023 -91.1621 C 19.8242 -91.1621 16.0645 -87.6953 16.0645 -82.8125 L 16.0645 -53.0273 C 16.0645 -48.1445 19.8242 -44.7266 24.9023 -44.7266 L 27.832 -44.7266 L 27.832 2.97852 C 27.832 7.4707 28.9551 11.2793 31.0547 14.3066 L 31.0547 31.8848 C 31.0547 38.8672 34.9609 42.7734 42.041 42.7734 Z M 94.2871 10.2539 C 74.0723 10.2539 58.3008 9.47266 48.6328 7.8125 C 43.8965 6.98242 41.8945 4.19922 41.8945 -0.830078 L 41.8945 -92.627 C 41.8945 -97.6562 44.1406 -100.488 48.6328 -101.318 C 58.2031 -102.979 74.4629 -103.711 94.2871 -103.711 C 114.014 -103.711 130.273 -102.734 139.941 -101.27 C 144.678 -100.537 146.631 -97.7539 146.631 -92.627 L 146.631 -0.830078 C 146.631 4.29688 144.678 7.08008 139.941 7.8125 C 130.127 9.17969 114.355 10.2539 94.2871 10.2539 Z M 55.2246 -24.0234 C 77.6855 -20.166 110.986 -20.3125 133.398 -24.0234 C 138.086 -24.8047 140.527 -27.7344 140.527 -32.666 L 140.527 -86.084 C 140.527 -91.6504 137.744 -94.9219 132.422 -95.4102 C 110.4 -97.5586 78.5645 -97.6074 56.25 -95.4102 C 50.9766 -94.9219 48.0957 -91.6504 48.0957 -86.084 L 48.0957 -32.666 C 48.0957 -27.7344 50.5371 -24.8535 55.2246 -24.0234 Z M 58.5938 1.5625 C 63.2324 1.5625 66.8457 -2.05078 66.8457 -6.68945 C 66.8457 -11.3281 63.2324 -14.9902 58.5938 -14.9902 C 53.9062 -14.9902 50.293 -11.3281 50.293 -6.68945 C 50.293 -2.05078 53.9062 1.5625 58.5938 1.5625 Z M 129.98 1.5625 C 134.619 1.5625 138.232 -2.05078 138.232 -6.68945 C 138.232 -11.3281 134.619 -14.9902 129.98 -14.9902 C 125.342 -14.9902 121.729 -11.3281 121.729 -6.68945 C 121.729 -2.05078 125.342 1.5625 129.98 1.5625 Z M 81.0059 -0.341797 L 108.398 -0.341797 C 112.158 -0.341797 114.893 -3.07617 114.893 -6.78711 C 114.893 -10.5469 112.158 -13.1836 108.398 -13.1836 L 81.0059 -13.1836 C 76.3184 -13.1836 73.6328 -10.5469 73.6328 -6.78711 C 73.6328 -3.07617 76.3184 -0.341797 81.0059 -0.341797 Z"/>
  </g>
  <g id="Bold-L" transform="matrix(1 0 0 1 2249.01 1556)">
   <path d="M 39.8926 40.8203 L 47.6074 40.8203 C 53.8574 40.8203 57.6172 37.0605 57.6172 30.9082 L 57.6172 21.8262 C 67.5293 22.5098 78.7598 22.8516 90.9668 22.8516 C 103.174 22.8516 114.404 22.5098 124.316 21.8262 L 124.316 30.9082 C 124.316 37.0605 128.076 40.8203 134.326 40.8203 L 142.041 40.8203 C 148.242 40.8203 152.051 37.0605 152.051 30.9082 L 152.051 14.1113 C 154.15 11.377 155.273 7.8125 155.273 3.51562 L 155.273 -46.2402 L 158.154 -46.2402 C 162.646 -46.2402 165.869 -49.1699 165.869 -53.418 L 165.869 -81.7383 C 165.869 -85.9863 162.646 -88.916 158.154 -88.916 L 155.273 -88.916 L 155.273 -95.0195 C 155.273 -104.492 149.951 -110.352 140.137 -111.768 C 127.295 -113.525 109.912 -114.355 90.9668 -114.355 C 72.0215 -114.355 54.5898 -113.525 41.7969 -111.768 C 31.9824 -110.303 26.6602 -104.443 26.6602 -95.0195 L 26.6602 -88.916 L 23.7793 -88.916 C 19.2871 -88.916 16.0645 -85.9863 16.0645 -81.7383 L 16.0645 -53.418 C 16.0645 -49.1699 19.2871 -46.2402 23.7793 -46.2402 L 26.6602 -46.2402 L 26.6602 3.51562 C 26.6602 7.8125 27.7832 11.377 29.8828 14.1113 L 29.8828 30.9082 C 29.8828 37.0605 33.6914 40.8203 39.8926 40.8203 Z M 90.9668 11.1816 C 71.4844 11.1816 55.7617 10.4004 45.3613 8.83789 C 40.332 8.05664 38.3789 5.27344 38.3789 0.341797 L 38.3789 -91.8457 C 38.3789 -96.7773 40.7227 -99.6094 45.3613 -100.342 C 55.6152 -101.904 71.9727 -102.686 90.9668 -102.637 C 109.814 -102.637 126.123 -101.758 136.621 -100.293 C 141.602 -99.6094 143.604 -96.875 143.604 -91.8457 L 143.604 0.341797 C 143.604 5.37109 141.602 8.10547 136.621 8.78906 C 125.977 10.2051 110.254 11.1816 90.9668 11.1816 Z M 51.2695 -23.5352 C 74.5117 -19.7266 107.373 -19.8242 130.713 -23.5352 C 135.107 -24.2188 137.354 -26.9043 137.354 -31.543 L 137.354 -85.5957 C 137.354 -90.7715 134.814 -93.7988 129.883 -94.2871 C 106.543 -96.5332 75.7812 -96.582 52.1973 -94.2871 C 47.2656 -93.7988 44.6289 -90.7715 44.6289 -85.5957 L 44.6289 -31.543 C 44.6289 -26.9043 46.9238 -24.2676 51.2695 -23.5352 Z M 55.1758 1.85547 C 59.668 1.85547 63.0859 -1.5625 63.0859 -6.00586 C 63.0859 -10.498 59.668 -13.9648 55.1758 -13.9648 C 50.7324 -13.9648 47.2656 -10.498 47.2656 -6.00586 C 47.2656 -1.5625 50.7324 1.85547 55.1758 1.85547 Z M 126.758 1.85547 C 131.25 1.85547 134.668 -1.5625 134.668 -6.00586 C 134.668 -10.498 131.25 -13.9648 126.758 -13.9648 C 122.314 -13.9648 118.848 -10.498 118.848 -6.00586 C 118.848 -1.5625 122.314 1.85547 126.758 1.85547 Z M 77.0508 -0.0976562 L 105.371 -0.0976562 C 108.887 -0.0976562 111.426 -2.63672 111.426 -6.10352 C 111.426 -9.66797 108.887 -12.1094 105.371 -12.1094 L 77.0508 -12.1094 C 72.9492 -12.1094 70.4102 -9.66797 70.4102 -6.10352 C 70.4102 -2.63672 72.9492 -0.0976562 77.0508 -0.0976562 Z"/>
  </g>
  <g id="Semibold-L" transform="matrix(1 0 0 1 1954.57 1556)">
   <path d="M 38.4277 39.502 L 45.9961 39.502 C 51.6602 39.502 55.3711 35.791 55.3711 30.2246 L 55.3711 20.8008 C 65.3809 21.5332 76.6113 21.875 88.6719 21.875 C 100.732 21.875 111.963 21.5332 122.021 20.8008 L 122.021 30.2246 C 122.021 35.791 125.732 39.502 131.348 39.502 L 138.916 39.502 C 144.58 39.502 148.291 35.791 148.291 30.2246 L 148.291 13.9648 C 150.391 11.377 151.514 8.00781 151.514 3.85742 L 151.514 -47.2656 L 154.395 -47.2656 C 158.447 -47.2656 161.328 -49.8535 161.328 -53.7109 L 161.328 -80.957 C 161.328 -84.8145 158.447 -87.4023 154.395 -87.4023 L 151.514 -87.4023 L 151.514 -93.9941 C 151.514 -102.93 146.436 -108.252 137.207 -109.473 C 124.268 -111.133 106.934 -112.012 88.6719 -112.012 C 70.3613 -112.012 53.0762 -111.182 40.1367 -109.473 C 30.957 -108.203 25.8789 -102.881 25.8789 -93.9941 L 25.8789 -87.4023 L 22.998 -87.4023 C 18.8965 -87.4023 16.0645 -84.8145 16.0645 -80.957 L 16.0645 -53.7109 C 16.0645 -49.8535 18.8965 -47.2656 22.998 -47.2656 L 25.8789 -47.2656 L 25.8789 3.85742 C 25.8789 8.00781 26.9531 11.377 29.1016 13.916 L 29.1016 30.2246 C 29.1016 35.791 32.8125 39.502 38.4277 39.502 Z M 88.6719 11.8164 C 69.6777 11.8164 54.0039 11.0352 43.0664 9.52148 C 37.8906 8.78906 35.8887 6.05469 35.8887 1.12305 L 35.8887 -91.2598 C 35.8887 -96.1426 38.3301 -98.9746 43.0664 -99.6582 C 53.8086 -101.172 70.2148 -101.953 88.6719 -101.953 C 106.885 -101.904 123.242 -101.074 134.326 -99.6094 C 139.453 -98.9746 141.455 -96.2402 141.455 -91.2598 L 141.455 1.12305 C 141.455 6.05469 139.453 8.83789 134.326 9.47266 C 123.096 10.8887 107.422 11.8164 88.6719 11.8164 Z M 48.5352 -23.1934 C 72.3633 -19.4824 104.932 -19.4824 128.906 -23.1934 C 133.057 -23.8281 135.205 -26.3672 135.205 -30.7617 L 135.205 -85.2539 C 135.205 -90.1855 132.764 -93.0176 128.076 -93.457 C 103.857 -95.8496 73.8281 -95.8496 49.4141 -93.457 C 44.7266 -93.0176 42.2363 -90.1855 42.2363 -85.2539 L 42.2363 -30.7617 C 42.2363 -26.3672 44.3848 -23.8281 48.5352 -23.1934 Z M 52.832 2.09961 C 57.1777 2.09961 60.498 -1.2207 60.498 -5.56641 C 60.498 -9.91211 57.1777 -13.2324 52.832 -13.2324 C 48.4863 -13.2324 45.166 -9.91211 45.166 -5.56641 C 45.166 -1.2207 48.4863 2.09961 52.832 2.09961 Z M 124.561 2.09961 C 128.906 2.09961 132.227 -1.2207 132.227 -5.56641 C 132.227 -9.91211 128.906 -13.2324 124.561 -13.2324 C 120.215 -13.2324 116.895 -9.91211 116.895 -5.56641 C 116.895 -1.2207 120.215 2.09961 124.561 2.09961 Z M 74.3164 0.0488281 L 103.271 0.0488281 C 106.641 0.0488281 109.033 -2.29492 109.033 -5.66406 C 109.033 -9.0332 106.641 -11.3281 103.271 -11.3281 L 74.3164 -11.3281 C 70.6055 -11.3281 68.2129 -9.0332 68.2129 -5.66406 C 68.2129 -2.29492 70.6055 0.0488281 74.3164 0.0488281 Z"/>
  </g>
  <g id="Medium-L" transform="matrix(1 0 0 1 1659.59 1556)">
   <path d="M 37.3535 38.5254 L 44.7754 38.5254 C 50 38.5254 53.6621 34.8633 53.6621 29.6875 L 53.6621 20.0195 C 63.7207 20.752 74.9512 21.0938 86.9141 21.0938 C 98.9258 21.0938 110.156 20.752 120.264 20.0195 L 120.264 29.6875 C 120.264 34.8633 123.926 38.5254 129.15 38.5254 L 136.572 38.5254 C 141.797 38.5254 145.459 34.8145 145.459 29.6875 L 145.459 13.7695 C 147.559 11.377 148.682 8.1543 148.682 4.15039 L 148.682 -48.0469 L 151.562 -48.0469 C 155.273 -48.0469 157.861 -50.3906 157.861 -53.9062 L 157.861 -80.4199 C 157.861 -83.9355 155.273 -86.2793 151.562 -86.2793 L 148.682 -86.2793 L 148.682 -93.2617 C 148.682 -101.709 143.75 -106.641 135.01 -107.764 C 121.924 -109.375 104.688 -110.205 86.9141 -110.205 C 69.1406 -110.205 51.9531 -109.375 38.916 -107.764 C 30.1758 -106.592 25.2441 -101.709 25.2441 -93.2617 L 25.2441 -86.2793 L 22.3633 -86.2793 C 18.6523 -86.2793 16.0645 -83.9355 16.0645 -80.4199 L 16.0645 -53.9062 C 16.0645 -50.3906 18.6523 -48.0469 22.3633 -48.0469 L 25.2441 -48.0469 L 25.2441 4.15039 C 25.2441 8.1543 26.3672 11.377 28.4668 13.7695 L 28.4668 29.6875 C 28.4668 34.8145 32.1289 38.5254 37.3535 38.5254 Z M 86.9141 12.2559 C 68.3105 12.2559 52.6367 11.5234 41.3574 10.0098 C 36.0352 9.32617 34.0332 6.5918 34.0332 1.70898 L 34.0332 -90.8203 C 34.0332 -95.6543 36.5234 -98.4863 41.3574 -99.1211 C 52.4902 -100.635 68.8965 -101.416 86.9141 -101.367 C 104.688 -101.367 121.094 -100.586 132.568 -99.1211 C 137.891 -98.4863 139.893 -95.752 139.893 -90.8203 L 139.893 1.70898 C 139.893 6.64062 137.891 9.375 132.568 10.0098 C 120.898 11.4258 105.273 12.2559 86.9141 12.2559 Z M 46.4844 -22.9004 C 70.7031 -19.2383 103.076 -19.2383 127.49 -22.9004 C 131.494 -23.5352 133.545 -25.9277 133.545 -30.1758 L 133.545 -85.0098 C 133.545 -89.7461 131.25 -92.4316 126.758 -92.8711 C 101.855 -95.3125 72.3633 -95.3125 47.2656 -92.8711 C 42.7734 -92.4316 40.4297 -89.7461 40.4297 -85.0098 L 40.4297 -30.1758 C 40.4297 -25.9277 42.5293 -23.5352 46.4844 -22.9004 Z M 51.0742 2.24609 C 55.3223 2.24609 58.5449 -0.976562 58.5449 -5.22461 C 58.5449 -9.47266 55.3223 -12.6953 51.0742 -12.6953 C 46.8262 -12.6953 43.5547 -9.47266 43.5547 -5.22461 C 43.5547 -0.976562 46.8262 2.24609 51.0742 2.24609 Z M 122.852 2.24609 C 127.1 2.24609 130.371 -0.976562 130.371 -5.22461 C 130.371 -9.47266 127.1 -12.6953 122.852 -12.6953 C 118.604 -12.6953 115.381 -9.47266 115.381 -5.22461 C 115.381 -0.976562 118.604 2.24609 122.852 2.24609 Z M 72.2656 0.195312 L 101.709 0.195312 C 104.932 0.195312 107.227 -2.09961 107.227 -5.32227 C 107.227 -8.54492 104.932 -10.791 101.709 -10.791 L 72.2656 -10.791 C 68.7988 -10.791 66.5527 -8.54492 66.5527 -5.32227 C 66.5527 -2.09961 68.7988 0.195312 72.2656 0.195312 Z"/>
  </g>
  <g id="Regular-L" transform="matrix(1 0 0 1 1365.13 1556)">
   <path d="M 35.8887 37.207 L 43.2129 37.207 C 47.8516 37.207 51.416 33.6426 51.416 29.0527 L 51.416 19.043 C 61.6211 19.7266 72.8516 20.1172 84.668 20.1172 C 96.5332 20.1172 107.764 19.7754 118.018 19.043 L 118.018 29.0527 C 118.018 33.6426 121.582 37.207 126.221 37.207 L 133.545 37.207 C 138.184 37.207 141.748 33.5938 141.748 29.0527 L 141.748 13.5742 C 143.848 11.377 144.971 8.34961 144.971 4.49219 L 144.971 -49.0723 L 147.803 -49.0723 C 151.172 -49.0723 153.369 -51.0742 153.369 -54.1992 L 153.369 -79.6387 C 153.369 -82.7637 151.172 -84.7656 147.803 -84.7656 L 144.971 -84.7656 L 144.971 -92.2363 C 144.971 -100.146 140.283 -104.541 132.129 -105.469 C 118.896 -107.031 101.807 -107.861 84.668 -107.861 C 67.5293 -107.861 50.4395 -107.031 37.3047 -105.469 C 29.1016 -104.541 24.4629 -100.146 24.4629 -92.2363 L 24.4629 -84.7656 L 21.582 -84.7656 C 18.2617 -84.7656 16.0645 -82.7637 16.0645 -79.6387 L 16.0645 -54.1992 C 16.0645 -51.0742 18.2617 -49.0723 21.582 -49.0723 L 24.4629 -49.0723 L 24.4629 4.49219 C 24.4629 8.34961 25.5859 11.377 27.6855 13.5742 L 27.6855 29.0527 C 27.6855 33.5938 31.25 37.207 35.8887 37.207 Z M 84.668 12.8906 C 66.5527 12.8906 50.9277 12.1094 39.1113 10.6934 C 33.6426 10.0098 31.6406 7.37305 31.6406 2.49023 L 31.6406 -90.2832 C 31.6406 -95.0684 34.1309 -97.8516 39.1113 -98.4863 C 50.7324 -99.9023 67.1875 -100.684 84.668 -100.684 C 101.807 -100.635 118.262 -99.9023 130.273 -98.4863 C 135.791 -97.8027 137.793 -95.1172 137.793 -90.2832 L 137.793 2.49023 C 137.793 7.37305 135.791 10.0586 130.273 10.6934 C 118.066 12.1094 102.441 12.8906 84.668 12.8906 Z M 43.7988 -22.5586 C 68.5059 -18.9941 100.635 -18.8965 125.635 -22.5586 C 129.443 -23.1445 131.348 -25.3418 131.348 -29.3945 L 131.348 -84.7168 C 131.348 -89.1602 129.248 -91.6504 125 -92.041 C 99.2188 -94.6289 70.459 -94.6289 44.5312 -92.041 C 40.2832 -91.6504 38.0859 -89.1602 38.0859 -84.7168 L 38.0859 -29.3945 C 38.0859 -25.3418 40.0391 -23.1445 43.7988 -22.5586 Z M 48.7305 2.44141 C 52.8809 2.44141 55.957 -0.634766 55.957 -4.78516 C 55.957 -8.88672 52.8809 -12.0117 48.7305 -12.0117 C 44.6289 -12.0117 41.5039 -8.88672 41.5039 -4.78516 C 41.5039 -0.634766 44.6289 2.44141 48.7305 2.44141 Z M 120.654 2.44141 C 124.805 2.44141 127.93 -0.634766 127.93 -4.78516 C 127.93 -8.88672 124.805 -12.0117 120.654 -12.0117 C 116.553 -12.0117 113.428 -8.88672 113.428 -4.78516 C 113.428 -0.634766 116.553 2.44141 120.654 2.44141 Z M 69.5801 0.341797 L 99.6094 0.341797 C 102.686 0.341797 104.834 -1.75781 104.834 -4.88281 C 104.834 -7.95898 102.686 -10.0098 99.6094 -10.0098 L 69.5801 -10.0098 C 66.5039 -10.0098 64.3555 -7.95898 64.3555 -4.88281 C 64.3555 -1.75781 66.5039 0.341797 69.5801 0.341797 Z"/>
  </g>
  <g id="Light-L" transform="matrix(1 0 0 1 1070.47 1556)">
   <path d="M 35.1562 35.8887 L 42.334 35.8887 C 46.8262 35.8887 50.3418 32.373 50.3418 27.8809 L 50.3418 18.0664 C 60.3027 18.75 71.1914 19.1406 82.6172 19.1406 C 94.043 19.1406 104.98 18.7988 114.99 18.0664 L 114.99 27.8809 C 114.99 32.373 118.506 35.8887 123.047 35.8887 L 130.176 35.8887 C 134.717 35.8887 138.232 32.3242 138.232 27.8809 L 138.232 13.0371 C 140.332 10.9863 141.455 8.05664 141.455 4.24805 L 141.455 -49.8535 L 144.385 -49.8535 C 147.461 -49.8535 149.268 -51.6113 149.268 -54.3945 L 149.268 -79.248 C 149.268 -82.0312 147.461 -83.7891 144.385 -83.7891 L 141.455 -83.7891 L 141.455 -91.748 C 141.455 -99.3652 136.914 -103.369 129.248 -104.248 C 115.967 -105.811 99.4629 -106.592 82.6172 -106.592 C 65.7715 -106.592 49.3164 -105.762 36.084 -104.248 C 28.418 -103.369 23.9258 -99.3652 23.9258 -91.748 L 23.9258 -83.7891 L 20.9961 -83.7891 C 17.8711 -83.7891 16.0645 -82.0312 16.0645 -79.248 L 16.0645 -54.3945 C 16.0645 -51.6113 17.8711 -49.8535 20.9961 -49.8535 L 23.9258 -49.8535 L 23.9258 4.24805 C 23.9258 8.05664 25.0488 10.9863 27.1484 13.0371 L 27.1484 27.8809 C 27.1484 32.3242 30.6152 35.8887 35.1562 35.8887 Z M 82.6172 13.3789 C 65.0391 13.3789 49.5117 12.6465 37.4023 11.1816 C 31.7871 10.4492 29.5898 7.91016 29.5898 3.02734 L 29.5898 -90.5273 C 29.5898 -95.3613 32.0801 -97.998 37.4023 -98.6328 C 49.3652 -100.098 65.4297 -100.928 82.6172 -100.879 C 99.2676 -100.83 115.283 -100.098 127.979 -98.6328 C 133.594 -97.998 135.742 -95.4102 135.742 -90.5273 L 135.742 3.02734 C 135.742 7.91016 133.594 10.498 127.979 11.1816 C 115.186 12.6465 99.6582 13.3789 82.6172 13.3789 Z M 41.6016 -22.2168 C 66.5527 -19.043 98.3887 -18.9941 123.779 -22.2168 C 127.393 -22.7051 129.297 -24.9023 129.297 -28.7109 L 129.297 -85.5469 C 129.297 -89.5996 127.246 -91.9922 123.34 -92.334 C 96.3867 -95.0195 69.3359 -95.0195 42.041 -92.334 C 38.1836 -91.9922 36.084 -89.5996 36.084 -85.5469 L 36.084 -28.7109 C 36.084 -24.9023 37.9883 -22.7051 41.6016 -22.2168 Z M 46.7285 2.05078 C 50.5859 2.05078 53.418 -0.830078 53.418 -4.63867 C 53.418 -8.49609 50.5859 -11.377 46.7285 -11.377 C 42.9199 -11.377 39.9902 -8.49609 39.9902 -4.63867 C 39.9902 -0.830078 42.9199 2.05078 46.7285 2.05078 Z M 118.604 2.05078 C 122.461 2.05078 125.342 -0.830078 125.342 -4.63867 C 125.342 -8.49609 122.461 -11.377 118.604 -11.377 C 114.746 -11.377 111.914 -8.49609 111.914 -4.63867 C 111.914 -0.830078 114.746 2.05078 118.604 2.05078 Z M 67.3828 0.0976562 L 97.6074 0.0976562 C 100.488 0.0976562 102.441 -1.85547 102.441 -4.73633 C 102.441 -7.56836 100.488 -9.52148 97.6074 -9.52148 L 67.3828 -9.52148 C 64.5508 -9.52148 62.5488 -7.56836 62.5488 -4.73633 C 62.5488 -1.85547 64.5508 0.0976562 67.3828 0.0976562 Z"/>
  </g>
  <g id="Thin-L" transform="matrix(1 0 0 1 776.442 1556)">
   <path d="M 34.1797 34.1309 L 41.1621 34.1309 C 45.5078 34.1309 48.9258 30.7129 48.9258 26.3184 L 48.9258 16.7969 C 58.5938 17.4805 69.043 17.8223 79.9316 17.8223 C 90.7715 17.8223 101.27 17.5293 111.035 16.8457 L 111.035 26.3184 C 111.035 30.7129 114.453 34.1309 118.848 34.1309 L 125.781 34.1309 C 130.176 34.1309 133.594 30.6152 133.594 26.3184 L 133.594 12.3047 C 135.645 10.4492 136.816 7.71484 136.816 3.95508 L 136.816 -50.8301 L 139.844 -50.8301 C 142.578 -50.8301 143.896 -52.2949 143.896 -54.6387 L 143.896 -78.7598 C 143.896 -81.1035 142.578 -82.5684 139.844 -82.5684 L 136.816 -82.5684 L 136.816 -91.1133 C 136.816 -98.3398 132.471 -101.807 125.488 -102.637 C 112.061 -104.199 96.3379 -104.932 79.9316 -104.932 C 63.4277 -104.932 47.7539 -104.15 34.5215 -102.637 C 27.4902 -101.807 23.1934 -98.3398 23.1934 -91.1133 L 23.1934 -82.5684 L 20.166 -82.5684 C 17.3828 -82.5684 16.0645 -81.1035 16.0645 -78.7598 L 16.0645 -54.6387 C 16.0645 -52.2949 17.3828 -50.8301 20.166 -50.8301 L 23.1934 -50.8301 L 23.1934 3.95508 C 23.1934 7.71484 24.3164 10.4492 26.416 12.3047 L 26.416 26.3184 C 26.416 30.6152 29.7852 34.1309 34.1797 34.1309 Z M 79.9316 14.0137 C 63.0859 14.0137 47.6074 13.2812 35.1074 11.7676 C 29.248 11.0352 26.9043 8.69141 26.9043 3.71094 L 26.9043 -90.8203 C 26.9043 -95.8008 29.3457 -98.1934 35.1074 -98.877 C 47.5586 -100.391 63.1348 -101.221 79.9316 -101.123 C 95.8496 -101.074 111.377 -100.391 124.902 -98.877 C 130.713 -98.2422 133.057 -95.8008 133.057 -90.8203 L 133.057 3.71094 C 133.057 8.69141 130.713 11.1328 124.902 11.7676 C 111.328 13.2812 95.9473 14.0137 79.9316 14.0137 Z M 38.7207 -21.7773 C 63.8672 -19.1406 95.4102 -19.0918 121.289 -21.7773 C 124.609 -22.168 126.562 -24.3164 126.562 -27.7832 L 126.562 -86.6699 C 126.562 -90.1855 124.609 -92.4316 121.191 -92.7246 C 92.627 -95.5078 67.9199 -95.6055 38.8184 -92.7246 C 35.4004 -92.4316 33.3984 -90.1855 33.3984 -86.6699 L 33.3984 -27.7832 C 33.3984 -24.3164 35.3516 -22.168 38.7207 -21.7773 Z M 44.0918 1.46484 C 47.5586 1.46484 50.0977 -1.02539 50.0977 -4.49219 C 50.0977 -7.95898 47.5586 -10.5469 44.0918 -10.5469 C 40.625 -10.5469 38.0371 -7.95898 38.0371 -4.49219 C 38.0371 -1.02539 40.625 1.46484 44.0918 1.46484 Z M 115.869 1.46484 C 119.336 1.46484 121.924 -1.02539 121.924 -4.49219 C 121.924 -7.95898 119.336 -10.5469 115.869 -10.5469 C 112.402 -10.5469 109.912 -7.95898 109.912 -4.49219 C 109.912 -1.02539 112.402 1.46484 115.869 1.46484 Z M 64.502 -0.195312 L 94.9219 -0.195312 C 97.5098 -0.195312 99.2676 -1.95312 99.2676 -4.54102 C 99.2676 -7.08008 97.5098 -8.83789 94.9219 -8.83789 L 64.502 -8.83789 C 61.9629 -8.83789 60.2051 -7.08008 60.2051 -4.54102 C 60.2051 -1.95312 61.9629 -0.195312 64.502 -0.195312 Z"/>
  </g>
  <g id="Ultralight-L" transform="matrix(1 0 0 1 481.098 1556)">
   <path d="M 33.6914 33.2031 L 40.5273 33.2031 C 44.873 33.2031 48.1934 29.8828 48.1934 25.5371 L 48.1934 16.1621 C 57.7148 16.8457 67.9199 17.1875 78.5156 17.1875 C 89.1113 17.1875 99.4141 16.8457 109.033 16.2109 L 109.033 25.5371 C 109.033 29.8828 112.354 33.2031 116.699 33.2031 L 123.535 33.2031 C 127.832 33.2031 131.201 29.7852 131.201 25.5371 L 131.201 11.9141 C 133.252 10.1562 134.424 7.51953 134.424 3.80859 L 134.424 -51.3672 L 137.5 -51.3672 C 140.088 -51.3672 141.162 -52.6367 141.162 -54.7852 L 141.162 -78.4668 C 141.162 -80.6152 140.088 -81.9336 137.5 -81.9336 L 134.424 -81.9336 L 134.424 -90.7715 C 134.424 -97.8027 130.225 -100.977 123.535 -101.758 C 110.059 -103.369 94.7754 -104.102 78.5156 -104.102 C 62.207 -104.102 46.9727 -103.32 33.6914 -101.758 C 27.002 -100.977 22.8027 -97.8027 22.8027 -90.7715 L 22.8027 -81.9336 L 19.7266 -81.9336 C 17.1387 -81.9336 16.0645 -80.6152 16.0645 -78.4668 L 16.0645 -54.7852 C 16.0645 -52.6367 17.1387 -51.3672 19.7266 -51.3672 L 22.8027 -51.3672 L 22.8027 3.80859 C 22.8027 7.51953 23.9746 10.1562 26.0254 11.9141 L 26.0254 25.5371 C 26.0254 29.7852 29.3457 33.2031 33.6914 33.2031 Z M 78.5156 14.3555 C 62.0605 14.3555 46.6309 13.623 33.9355 12.1094 C 27.9785 11.377 25.5371 9.08203 25.5371 4.05273 L 25.5371 -91.0156 C 25.5371 -95.9961 27.9297 -98.291 33.9355 -99.0234 C 46.6797 -100.586 61.9629 -101.367 78.5156 -101.27 C 94.1406 -101.172 109.326 -100.586 123.291 -99.0234 C 129.248 -98.3887 131.689 -95.9961 131.689 -91.0156 L 131.689 4.05273 C 131.689 9.08203 129.248 11.4258 123.291 12.1094 C 109.375 13.623 94.043 14.3555 78.5156 14.3555 Z M 37.207 -21.582 C 62.5488 -19.1895 93.8965 -19.1406 119.971 -21.582 C 123.242 -21.875 125.146 -24.0234 125.146 -27.3438 L 125.146 -87.2559 C 125.146 -90.4785 123.242 -92.627 120.068 -92.9688 C 90.7227 -95.8008 67.1875 -95.8984 37.1582 -92.9688 C 33.9355 -92.627 32.0312 -90.4785 32.0312 -87.2559 L 32.0312 -27.3438 C 32.0312 -24.0234 33.9844 -21.875 37.207 -21.582 Z M 42.7734 1.17188 C 46.0449 1.17188 48.3887 -1.12305 48.3887 -4.44336 C 48.3887 -7.71484 46.0449 -10.1562 42.7734 -10.1562 C 39.4531 -10.1562 37.0605 -7.71484 37.0605 -4.44336 C 37.0605 -1.12305 39.4531 1.17188 42.7734 1.17188 Z M 114.453 1.17188 C 117.773 1.17188 120.166 -1.12305 120.166 -4.44336 C 120.166 -7.71484 117.773 -10.1562 114.453 -10.1562 C 111.182 -10.1562 108.838 -7.71484 108.838 -4.44336 C 108.838 -1.12305 111.182 1.17188 114.453 1.17188 Z M 63.0371 -0.341797 L 93.5547 -0.341797 C 95.9961 -0.341797 97.6074 -2.00195 97.6074 -4.44336 C 97.6074 -6.83594 95.9961 -8.49609 93.5547 -8.49609 L 63.0371 -8.49609 C 60.5957 -8.49609 58.9844 -6.83594 58.9844 -4.44336 C 58.9844 -2.00195 60.5957 -0.341797 63.0371 -0.341797 Z"/>
  </g>
  <g id="Black-M" transform="matrix(1 0 0 1 2855.15 1126)">
   <path d="M 36.1816 28.125 L 42.6758 28.125 C 49.6582 28.125 52.8809 24.9512 52.8809 18.0176 L 52.8809 12.4512 C 60.1562 12.9395 68.6523 13.1348 78.2715 13.1348 C 87.8418 13.1348 96.3379 12.9395 103.662 12.4512 L 103.662 18.0176 C 103.662 24.9512 106.836 28.125 113.818 28.125 L 120.312 28.125 C 127.295 28.125 130.518 24.9512 130.518 18.0176 L 130.518 3.27148 C 132.178 0.537109 133.008 -2.83203 133.008 -6.73828 L 133.008 -40.1367 L 135.352 -40.1367 C 140.283 -40.1367 144.043 -43.6035 144.043 -48.3887 L 144.043 -73.9746 C 144.043 -78.7598 140.283 -82.2266 135.352 -82.2266 L 133.008 -82.2266 L 133.008 -85.1562 C 133.008 -94.6777 128.027 -101.025 118.359 -102.734 C 108.984 -104.346 95.3613 -105.029 78.2715 -105.029 C 61.1816 -105.029 47.5098 -104.492 38.1348 -102.734 C 28.4668 -100.879 23.5352 -94.5312 23.5352 -85.1562 L 23.5352 -82.2266 L 21.1426 -82.2266 C 16.2109 -82.2266 12.4512 -78.7598 12.4512 -73.9746 L 12.4512 -48.3887 C 12.4512 -43.6035 16.2109 -40.1367 21.1426 -40.1367 L 23.5352 -40.1367 L 23.5352 -6.73828 C 23.5352 -2.88086 24.3652 0.488281 26.0254 3.22266 L 26.0254 18.0176 C 26.0254 24.9512 29.1992 28.125 36.1816 28.125 Z M 78.2715 -1.46484 C 61.5723 -1.46484 49.2676 -2.05078 42.9688 -3.4668 C 39.6973 -4.24805 38.1348 -6.44531 38.1348 -10.498 L 38.1348 -81.3965 C 38.1348 -85.4492 39.6973 -87.6465 42.9688 -88.4277 C 49.3164 -89.8438 61.5723 -90.4297 78.2715 -90.4297 C 94.9707 -90.4297 107.227 -89.5508 113.525 -88.3301 C 116.797 -87.6953 118.359 -85.5957 118.359 -81.3965 L 118.359 -10.498 C 118.359 -6.29883 116.797 -4.10156 113.525 -3.56445 C 107.227 -2.49023 94.9219 -1.46484 78.2715 -1.46484 Z M 49.0723 -27.2949 C 65.1367 -24.3164 91.6016 -24.6582 107.471 -27.2949 C 111.572 -28.0273 113.818 -30.7617 113.818 -35.0098 L 113.818 -75.9766 C 113.818 -80.8105 111.23 -83.7891 106.641 -84.2285 C 91.3574 -85.6934 65.6738 -85.7422 50 -84.2285 C 45.3613 -83.7891 42.7246 -80.8105 42.7246 -75.9766 L 42.7246 -35.0098 C 42.7246 -30.7617 45.0195 -28.0762 49.0723 -27.2949 Z M 50.7812 -7.51953 C 54.5898 -7.51953 57.5684 -10.498 57.5684 -14.3066 C 57.5684 -18.1152 54.5898 -21.1426 50.7812 -21.1426 C 46.9727 -21.1426 43.9941 -18.1152 43.9941 -14.3066 C 43.9941 -10.498 46.9727 -7.51953 50.7812 -7.51953 Z M 105.713 -7.51953 C 109.521 -7.51953 112.549 -10.498 112.549 -14.3066 C 112.549 -18.1152 109.521 -21.1426 105.713 -21.1426 C 101.904 -21.1426 98.9258 -18.1152 98.9258 -14.3066 C 98.9258 -10.498 101.904 -7.51953 105.713 -7.51953 Z M 69.0918 -8.78906 L 88.7207 -8.78906 C 91.9434 -8.78906 94.3359 -11.1816 94.3359 -14.3555 C 94.3359 -17.627 91.9434 -19.9707 88.7207 -19.9707 L 69.0918 -19.9707 C 64.5508 -19.9707 62.1582 -17.627 62.1582 -14.3555 C 62.1582 -11.1816 64.5508 -8.78906 69.0918 -8.78906 Z"/>
  </g>
  <g id="Heavy-M" transform="matrix(1 0 0 1 2561.13 1126)">
   <path d="M 34.3262 26.6113 L 40.625 26.6113 C 46.8262 26.6113 49.9512 23.4863 49.9512 17.334 L 49.9512 11.2793 C 57.373 11.7676 65.9668 11.9629 75.5371 11.9629 C 85.1562 11.9629 93.75 11.7676 101.172 11.2305 L 101.172 17.334 C 101.172 23.4863 104.248 26.6113 110.449 26.6113 L 116.797 26.6113 C 122.998 26.6113 126.123 23.4863 126.123 17.334 L 126.123 3.22266 C 127.734 0.732422 128.613 -2.44141 128.613 -6.15234 L 128.613 -41.4062 L 130.908 -41.4062 C 135.303 -41.4062 138.672 -44.4336 138.672 -48.7305 L 138.672 -72.998 C 138.672 -77.2949 135.303 -80.3223 130.908 -80.3223 L 128.613 -80.3223 L 128.613 -83.8867 C 128.613 -92.627 123.926 -98.3398 114.99 -99.8047 C 105.42 -101.318 91.7969 -102.002 75.5371 -102.002 C 59.3262 -102.002 45.7031 -101.416 36.1328 -99.8047 C 27.1484 -98.2422 22.5098 -92.5293 22.5098 -83.8867 L 22.5098 -80.3223 L 20.166 -80.3223 C 15.7715 -80.3223 12.4512 -77.2949 12.4512 -72.998 L 12.4512 -48.7305 C 12.4512 -44.4336 15.7715 -41.4062 20.166 -41.4062 L 22.5098 -41.4062 L 22.5098 -6.15234 C 22.5098 -2.49023 23.3398 0.683594 25 3.17383 L 25 17.334 C 25 23.4863 28.125 26.6113 34.3262 26.6113 Z M 75.5371 -0.732422 C 59.4238 -0.732422 47.168 -1.26953 40.2344 -2.63672 C 36.7188 -3.32031 35.2051 -5.51758 35.2051 -9.47266 L 35.2051 -80.5664 C 35.2051 -84.5215 36.8652 -86.7188 40.2344 -87.4023 C 47.1191 -88.7695 59.5215 -89.3066 75.5371 -89.3066 C 91.5039 -89.3066 103.955 -88.5254 110.889 -87.3535 C 114.355 -86.7676 115.918 -84.6191 115.918 -80.5664 L 115.918 -9.47266 C 115.918 -5.41992 114.355 -3.22266 110.889 -2.68555 C 103.906 -1.61133 91.6504 -0.732422 75.5371 -0.732422 Z M 45.8008 -26.9043 C 62.5977 -23.9258 88.6719 -24.1699 105.371 -26.9043 C 109.18 -27.5391 111.279 -30.0781 111.279 -34.082 L 111.279 -75.293 C 111.279 -79.834 108.887 -82.6172 104.541 -83.0566 C 88.3301 -84.5703 63.1836 -84.6191 46.6797 -83.0566 C 42.334 -82.6172 39.8926 -79.834 39.8926 -75.293 L 39.8926 -34.082 C 39.8926 -30.0781 41.9922 -27.5879 45.8008 -26.9043 Z M 47.998 -7.08008 C 51.6602 -7.08008 54.5898 -10.0098 54.5898 -13.7207 C 54.5898 -17.3828 51.6602 -20.3125 47.998 -20.3125 C 44.2871 -20.3125 41.4062 -17.3828 41.4062 -13.7207 C 41.4062 -10.0098 44.2871 -7.08008 47.998 -7.08008 Z M 103.125 -7.08008 C 106.836 -7.08008 109.717 -10.0098 109.717 -13.7207 C 109.717 -17.3828 106.836 -20.3125 103.125 -20.3125 C 99.4141 -20.3125 96.5332 -17.3828 96.5332 -13.7207 C 96.5332 -10.0098 99.4141 -7.08008 103.125 -7.08008 Z M 65.8203 -8.49609 L 86.2793 -8.49609 C 89.3555 -8.49609 91.5527 -10.7422 91.5527 -13.7695 C 91.5527 -16.8457 89.3555 -19.043 86.2793 -19.043 L 65.8203 -19.043 C 61.7676 -19.043 59.5215 -16.8457 59.5215 -13.7695 C 59.5215 -10.7422 61.7676 -8.49609 65.8203 -8.49609 Z"/>
  </g>
  <g id="Bold-M" transform="matrix(1 0 0 1 2267.44 1126)">
   <path d="M 32.2266 24.9023 L 38.3301 24.9023 C 43.6523 24.9023 46.6797 21.875 46.6797 16.6504 L 46.6797 9.91211 C 54.248 10.4492 62.9395 10.6934 72.5098 10.6934 C 82.0801 10.6934 90.7715 10.4492 98.3887 9.91211 L 98.3887 16.6504 C 98.3887 21.875 101.416 24.9023 106.738 24.9023 L 112.842 24.9023 C 118.164 24.9023 121.191 21.875 121.191 16.6504 L 121.191 3.17383 C 122.803 0.878906 123.682 -2.05078 123.682 -5.51758 L 123.682 -42.8223 L 125.928 -42.8223 C 129.785 -42.8223 132.617 -45.4102 132.617 -49.0723 L 132.617 -71.9238 C 132.617 -75.6348 129.785 -78.1738 125.928 -78.1738 L 123.682 -78.1738 L 123.682 -82.4219 C 123.682 -90.332 119.336 -95.3125 111.182 -96.5332 C 101.416 -97.9492 87.793 -98.6328 72.5098 -98.6328 C 57.2754 -98.6328 43.6523 -98.0469 33.8379 -96.5332 C 25.7324 -95.2637 21.3867 -90.2832 21.3867 -82.4219 L 21.3867 -78.1738 L 19.1406 -78.1738 C 15.2832 -78.1738 12.4512 -75.6348 12.4512 -71.9238 L 12.4512 -49.0723 C 12.4512 -45.4102 15.2832 -42.8223 19.1406 -42.8223 L 21.3867 -42.8223 L 21.3867 -5.51758 C 21.3867 -2.05078 22.2168 0.830078 23.877 3.125 L 23.877 16.6504 C 23.877 21.875 26.9043 24.9023 32.2266 24.9023 Z M 72.5098 0.146484 C 56.9824 0.146484 44.7754 -0.439453 37.1582 -1.70898 C 33.4473 -2.34375 31.8848 -4.49219 31.8848 -8.39844 L 31.8848 -79.5898 C 31.8848 -83.4473 33.6426 -85.6445 37.1582 -86.2793 C 44.6777 -87.5488 57.3242 -88.1348 72.5098 -88.1348 C 87.6465 -88.1348 100.293 -87.3535 107.91 -86.2305 C 111.621 -85.6934 113.135 -83.5449 113.135 -79.5898 L 113.135 -8.39844 C 113.135 -4.44336 111.621 -2.24609 107.91 -1.70898 C 100.195 -0.634766 87.9883 0.146484 72.5098 0.146484 Z M 42.1387 -26.4648 C 59.7168 -23.4863 85.4492 -23.584 102.979 -26.4648 C 106.543 -27.0508 108.398 -29.2969 108.398 -33.0566 L 108.398 -74.5117 C 108.398 -78.8086 106.299 -81.2988 102.197 -81.6895 C 84.9121 -83.3496 60.4492 -83.3496 42.9688 -81.6895 C 38.916 -81.2988 36.7188 -78.8086 36.7188 -74.5117 L 36.7188 -33.0566 C 36.7188 -29.2969 38.5742 -27.0996 42.1387 -26.4648 Z M 44.8242 -6.64062 C 48.4375 -6.64062 51.2207 -9.42383 51.2207 -12.9883 C 51.2207 -16.6016 48.4375 -19.3848 44.8242 -19.3848 C 41.2598 -19.3848 38.4766 -16.6016 38.4766 -12.9883 C 38.4766 -9.42383 41.2598 -6.64062 44.8242 -6.64062 Z M 100.195 -6.64062 C 103.809 -6.64062 106.592 -9.42383 106.592 -12.9883 C 106.592 -16.6016 103.809 -19.3848 100.195 -19.3848 C 96.6309 -19.3848 93.8477 -16.6016 93.8477 -12.9883 C 93.8477 -9.42383 96.6309 -6.64062 100.195 -6.64062 Z M 62.1094 -8.1543 L 83.5449 -8.1543 C 86.4258 -8.1543 88.4766 -10.2051 88.4766 -13.0859 C 88.4766 -15.9668 86.4258 -17.9688 83.5449 -17.9688 L 62.1094 -17.9688 C 58.5938 -17.9688 56.543 -15.9668 56.543 -13.0859 C 56.543 -10.2051 58.5938 -8.1543 62.1094 -8.1543 Z"/>
  </g>
  <g id="Semibold-M" transform="matrix(1 0 0 1 1972.83 1126)">
   <path d="M 30.7617 23.7305 L 36.7676 23.7305 C 41.4551 23.7305 44.3848 20.8008 44.3848 16.1133 L 44.3848 8.98438 C 52.1484 9.52148 60.9375 9.76562 70.459 9.76562 C 79.9805 9.76562 88.7207 9.52148 96.4844 8.98438 L 96.4844 16.1133 C 96.4844 20.8008 99.4141 23.7305 104.15 23.7305 L 110.107 23.7305 C 114.844 23.7305 117.773 20.8008 117.773 16.1133 L 117.773 3.07617 C 119.434 0.976562 120.264 -1.75781 120.264 -5.07812 L 120.264 -43.7988 L 122.51 -43.7988 C 125.928 -43.7988 128.418 -46.0938 128.418 -49.3652 L 128.418 -71.1914 C 128.418 -74.4629 125.928 -76.709 122.51 -76.709 L 120.264 -76.709 L 120.264 -81.4453 C 120.264 -88.7207 116.162 -93.2617 108.594 -94.2871 C 98.6328 -95.6543 85.0586 -96.2891 70.459 -96.2891 C 55.8105 -96.2891 42.2363 -95.6543 32.2754 -94.2871 C 24.707 -93.2129 20.6055 -88.7207 20.6055 -81.4453 L 20.6055 -76.709 L 18.4082 -76.709 C 14.9414 -76.709 12.4512 -74.4629 12.4512 -71.1914 L 12.4512 -49.3652 C 12.4512 -46.0938 14.9414 -43.7988 18.4082 -43.7988 L 20.6055 -43.7988 L 20.6055 -5.07812 C 20.6055 -1.75781 21.4844 0.976562 23.0957 3.07617 L 23.0957 16.1133 C 23.0957 20.8008 26.0254 23.7305 30.7617 23.7305 Z M 70.459 0.732422 C 55.3223 0.732422 43.1152 0.146484 35.0098 -1.02539 C 31.1523 -1.61133 29.6387 -3.80859 29.6387 -7.61719 L 29.6387 -78.9062 C 29.6387 -82.7148 31.4941 -84.9121 35.0098 -85.498 C 43.0176 -86.6699 55.7617 -87.3047 70.459 -87.3047 C 85.0098 -87.2559 97.7539 -86.5723 105.859 -85.4492 C 109.766 -84.9121 111.279 -82.7637 111.279 -78.9062 L 111.279 -7.61719 C 111.279 -3.75977 109.766 -1.5625 105.859 -1.07422 C 97.6074 0 85.4492 0.732422 70.459 0.732422 Z M 39.5996 -26.1719 C 57.7148 -23.1445 83.1543 -23.1934 101.318 -26.1719 C 104.688 -26.709 106.445 -28.7598 106.445 -32.3242 L 106.445 -74.0234 C 106.445 -78.0762 104.443 -80.3711 100.635 -80.7617 C 82.5684 -82.5195 58.5449 -82.5195 40.3809 -80.7617 C 36.5234 -80.3711 34.5215 -78.0762 34.5215 -74.0234 L 34.5215 -32.3242 C 34.5215 -28.7598 36.2305 -26.709 39.5996 -26.1719 Z M 42.6758 -6.34766 C 46.1914 -6.34766 48.877 -9.0332 48.877 -12.5 C 48.877 -16.0156 46.1914 -18.7012 42.6758 -18.7012 C 39.209 -18.7012 36.4746 -16.0156 36.4746 -12.5 C 36.4746 -9.0332 39.209 -6.34766 42.6758 -6.34766 Z M 98.1934 -6.34766 C 101.709 -6.34766 104.395 -9.0332 104.395 -12.5 C 104.395 -16.0156 101.709 -18.7012 98.1934 -18.7012 C 94.7266 -18.7012 92.041 -16.0156 92.041 -12.5 C 92.041 -9.0332 94.7266 -6.34766 98.1934 -6.34766 Z M 59.5703 -7.91016 L 81.6406 -7.91016 C 84.375 -7.91016 86.3281 -9.86328 86.3281 -12.5977 C 86.3281 -15.3809 84.375 -17.2363 81.6406 -17.2363 L 59.5703 -17.2363 C 56.4453 -17.2363 54.4922 -15.3809 54.4922 -12.5977 C 54.4922 -9.86328 56.4453 -7.91016 59.5703 -7.91016 Z"/>
  </g>
  <g id="Medium-M" transform="matrix(1 0 0 1 1677.68 1126)">
   <path d="M 29.6875 22.8516 L 35.5469 22.8516 C 39.7949 22.8516 42.6758 19.9707 42.6758 15.7227 L 42.6758 8.25195 C 50.5371 8.83789 59.375 9.08203 68.8477 9.08203 C 78.3203 9.08203 87.1582 8.83789 95.0195 8.25195 L 95.0195 15.7227 C 95.0195 19.9707 97.9004 22.8516 102.197 22.8516 L 108.057 22.8516 C 112.305 22.8516 115.186 19.9219 115.186 15.7227 L 115.186 3.02734 C 116.846 1.02539 117.676 -1.5625 117.676 -4.73633 L 117.676 -44.5801 L 119.922 -44.5801 C 123.047 -44.5801 125.293 -46.582 125.293 -49.5605 L 125.293 -70.6055 C 125.293 -73.584 123.047 -75.5859 119.922 -75.5859 L 117.676 -75.5859 L 117.676 -80.7129 C 117.676 -87.5488 113.77 -91.6504 106.592 -92.627 C 96.5332 -93.8965 82.959 -94.5312 68.8477 -94.5312 C 54.7363 -94.5312 41.1621 -93.8965 31.1035 -92.627 C 23.9746 -91.6504 20.0195 -87.5 20.0195 -80.7129 L 20.0195 -75.5859 L 17.8223 -75.5859 C 14.6973 -75.5859 12.4512 -73.584 12.4512 -70.6055 L 12.4512 -49.5605 C 12.4512 -46.582 14.6973 -44.5801 17.8223 -44.5801 L 20.0195 -44.5801 L 20.0195 -4.73633 C 20.0195 -1.5625 20.8984 1.02539 22.5098 2.97852 L 22.5098 15.7227 C 22.5098 19.9219 25.3906 22.8516 29.6875 22.8516 Z M 68.8477 1.2207 C 54.0527 1.2207 41.8945 0.585938 33.3984 -0.537109 C 29.3945 -1.12305 27.9297 -3.27148 27.9297 -7.03125 L 27.9297 -78.418 C 27.9297 -82.1289 29.7852 -84.375 33.3984 -84.9121 C 41.748 -86.0352 54.5898 -86.6699 68.8477 -86.6699 C 83.0078 -86.6211 95.8496 -85.9863 104.297 -84.9121 C 108.301 -84.375 109.814 -82.2266 109.814 -78.418 L 109.814 -7.03125 C 109.814 -3.22266 108.301 -1.07422 104.297 -0.537109 C 95.7031 0.537109 83.4961 1.2207 68.8477 1.2207 Z M 37.6953 -25.9277 C 56.2012 -22.9004 81.4941 -22.9004 100.098 -25.9277 C 103.32 -26.4648 104.932 -28.3691 104.932 -31.7871 L 104.932 -73.6328 C 104.932 -77.4902 103.076 -79.6875 99.4141 -80.0293 C 80.8105 -81.8848 57.0801 -81.8359 38.4277 -80.0293 C 34.7656 -79.6875 32.8613 -77.4902 32.8613 -73.6328 L 32.8613 -31.7871 C 32.8613 -28.3691 34.4727 -26.4648 37.6953 -25.9277 Z M 41.0645 -6.10352 C 44.4824 -6.10352 47.1191 -8.74023 47.1191 -12.1582 C 47.1191 -15.5762 44.4824 -18.2129 41.0645 -18.2129 C 37.5977 -18.2129 34.9609 -15.5762 34.9609 -12.1582 C 34.9609 -8.74023 37.5977 -6.10352 41.0645 -6.10352 Z M 96.6797 -6.10352 C 100.098 -6.10352 102.783 -8.74023 102.783 -12.1582 C 102.783 -15.5762 100.098 -18.2129 96.6797 -18.2129 C 93.2617 -18.2129 90.625 -15.5762 90.625 -12.1582 C 90.625 -8.74023 93.2617 -6.10352 96.6797 -6.10352 Z M 57.666 -7.76367 L 80.2246 -7.76367 C 82.8613 -7.76367 84.7168 -9.61914 84.7168 -12.2559 C 84.7168 -14.8926 82.8613 -16.6992 80.2246 -16.6992 L 57.666 -16.6992 C 54.7852 -16.6992 52.9297 -14.8926 52.9297 -12.2559 C 52.9297 -9.61914 54.7852 -7.76367 57.666 -7.76367 Z"/>
  </g>
  <g id="Regular-M" transform="matrix(1 0 0 1 1383.05 1126)">
   <path d="M 28.2227 21.6797 L 33.9844 21.6797 C 37.6465 21.6797 40.4785 18.8477 40.4785 15.2344 L 40.4785 7.37305 C 48.4863 7.91016 57.373 8.20312 66.7969 8.20312 C 76.2207 8.20312 85.1074 7.91016 93.1641 7.37305 L 93.1641 15.2344 C 93.1641 18.8477 95.9473 21.6797 99.6094 21.6797 L 105.371 21.6797 C 109.033 21.6797 111.865 18.8477 111.865 15.2344 L 111.865 2.88086 C 113.477 1.12305 114.355 -1.26953 114.355 -4.3457 L 114.355 -45.5566 L 116.504 -45.5566 C 119.238 -45.5566 121.143 -47.2168 121.143 -49.8047 L 121.143 -69.873 C 121.143 -72.4609 119.238 -74.1699 116.504 -74.1699 L 114.355 -74.1699 L 114.355 -79.6875 C 114.355 -85.9863 110.645 -89.5996 104.004 -90.3809 C 93.7988 -91.6016 80.2246 -92.2363 66.7969 -92.2363 C 53.3691 -92.2363 39.7461 -91.5527 29.5898 -90.3809 C 22.9492 -89.5996 19.2871 -85.9863 19.2871 -79.6875 L 19.2871 -74.1699 L 17.0898 -74.1699 C 14.3555 -74.1699 12.4512 -72.4609 12.4512 -69.873 L 12.4512 -49.8047 C 12.4512 -47.2168 14.3555 -45.5566 17.0898 -45.5566 L 19.2871 -45.5566 L 19.2871 -4.3457 C 19.2871 -1.26953 20.1172 1.12305 21.7773 2.88086 L 21.7773 15.2344 C 21.7773 18.8477 24.5605 21.6797 28.2227 21.6797 Z M 66.7969 1.80664 C 52.4414 1.80664 40.2832 1.17188 31.2988 0.0976562 C 27.1484 -0.390625 25.6836 -2.53906 25.6836 -6.29883 L 25.6836 -77.7344 C 25.6836 -81.4453 27.6367 -83.6914 31.2988 -84.1309 C 40.0879 -85.2051 53.0762 -85.8398 66.7969 -85.8398 C 80.3711 -85.8398 93.3594 -85.2051 102.295 -84.1309 C 106.445 -83.6426 107.959 -81.4941 107.959 -77.7344 L 107.959 -6.29883 C 107.959 -2.53906 106.445 -0.390625 102.295 0.0976562 C 93.1641 1.17188 81.0059 1.80664 66.7969 1.80664 Z M 35.2051 -25.5859 C 54.248 -22.6074 79.248 -22.5586 98.4375 -25.5859 C 101.514 -26.123 102.979 -27.832 102.979 -31.1035 L 102.979 -73.0957 C 102.979 -76.7578 101.318 -78.7598 97.8027 -79.1016 C 78.5156 -81.0547 55.2246 -81.0059 35.8887 -79.1016 C 32.4219 -78.7598 30.6641 -76.7578 30.6641 -73.0957 L 30.6641 -31.1035 C 30.6641 -27.832 32.1777 -26.123 35.2051 -25.5859 Z M 38.916 -5.76172 C 42.2852 -5.76172 44.8242 -8.34961 44.8242 -11.6699 C 44.8242 -15.0391 42.2852 -17.5781 38.916 -17.5781 C 35.5469 -17.5781 33.0078 -15.0391 33.0078 -11.6699 C 33.0078 -8.34961 35.5469 -5.76172 38.916 -5.76172 Z M 94.6777 -5.76172 C 98.0469 -5.76172 100.635 -8.34961 100.635 -11.6699 C 100.635 -15.0391 98.0469 -17.5781 94.6777 -17.5781 C 91.3574 -17.5781 88.8184 -15.0391 88.8184 -11.6699 C 88.8184 -8.34961 91.3574 -5.76172 94.6777 -5.76172 Z M 55.1758 -7.51953 L 78.3691 -7.51953 C 80.8594 -7.51953 82.6172 -9.27734 82.6172 -11.7676 C 82.6172 -14.3066 80.8594 -16.0156 78.3691 -16.0156 L 55.1758 -16.0156 C 52.6367 -16.0156 50.8789 -14.3066 50.8789 -11.7676 C 50.8789 -9.27734 52.6367 -7.51953 55.1758 -7.51953 Z"/>
  </g>
  <g id="Light-M" transform="matrix(1 0 0 1 1088.14 1126)">
   <path d="M 27.5879 20.459 L 33.2031 20.459 C 36.7676 20.459 39.502 17.7246 39.502 14.209 L 39.502 6.49414 C 47.3145 7.03125 55.9082 7.32422 64.9414 7.32422 C 73.9746 7.32422 82.6172 7.08008 90.4785 6.49414 L 90.4785 14.209 C 90.4785 17.7246 93.2129 20.459 96.7773 20.459 L 102.393 20.459 C 105.957 20.459 108.691 17.6758 108.691 14.209 L 108.691 2.39258 C 110.303 0.78125 111.182 -1.5625 111.182 -4.54102 L 111.182 -46.2402 L 113.428 -46.2402 C 115.918 -46.2402 117.529 -47.7051 117.529 -50 L 117.529 -69.5312 C 117.529 -71.8262 115.918 -73.291 113.428 -73.291 L 111.182 -73.291 L 111.182 -79.248 C 111.182 -85.3027 107.617 -88.5742 101.465 -89.2578 C 91.1621 -90.4785 78.125 -91.1133 64.9414 -91.1133 C 51.7578 -91.1133 38.7207 -90.4785 28.5156 -89.2578 C 22.3633 -88.5742 18.7988 -85.3027 18.7988 -79.248 L 18.7988 -73.291 L 16.5527 -73.291 C 14.0137 -73.291 12.4512 -71.8262 12.4512 -69.5312 L 12.4512 -50 C 12.4512 -47.7051 14.0137 -46.2402 16.5527 -46.2402 L 18.7988 -46.2402 L 18.7988 -4.54102 C 18.7988 -1.5625 19.6289 0.78125 21.2891 2.39258 L 21.2891 14.209 C 21.2891 17.6758 24.0234 20.459 27.5879 20.459 Z M 64.9414 2.24609 C 51.0742 2.24609 39.0137 1.66016 29.7363 0.537109 C 25.4395 0 23.8281 -2.05078 23.8281 -5.81055 L 23.8281 -77.9785 C 23.8281 -81.6895 25.7812 -83.7891 29.7363 -84.2773 C 38.8672 -85.4004 51.5137 -86.0352 64.9414 -86.0352 C 78.0762 -85.9863 90.6738 -85.4004 100.195 -84.2773 C 104.492 -83.7891 106.104 -81.7383 106.104 -77.9785 L 106.104 -5.81055 C 106.104 -2.05078 104.492 0 100.195 0.537109 C 90.5762 1.66016 78.4668 2.24609 64.9414 2.24609 Z M 33.252 -25.293 C 52.4414 -22.6562 77.2461 -22.6074 96.7773 -25.293 C 99.6582 -25.7324 101.123 -27.4414 101.123 -30.4688 L 101.123 -73.877 C 101.123 -77.1973 99.5117 -79.0527 96.3379 -79.3457 C 75.9766 -81.3965 54.248 -81.3965 33.6914 -79.3457 C 30.5176 -79.0527 28.8574 -77.1973 28.8574 -73.877 L 28.8574 -30.4688 C 28.8574 -27.4414 30.3711 -25.7324 33.252 -25.293 Z M 37.1094 -6.15234 C 40.2344 -6.15234 42.5293 -8.49609 42.5293 -11.5723 C 42.5293 -14.6973 40.2344 -17.041 37.1094 -17.041 C 34.0332 -17.041 31.6895 -14.6973 31.6895 -11.5723 C 31.6895 -8.49609 34.0332 -6.15234 37.1094 -6.15234 Z M 92.8223 -6.15234 C 95.9473 -6.15234 98.291 -8.49609 98.291 -11.5723 C 98.291 -14.6973 95.9473 -17.041 92.8223 -17.041 C 89.7461 -17.041 87.4023 -14.6973 87.4023 -11.5723 C 87.4023 -8.49609 89.7461 -6.15234 92.8223 -6.15234 Z M 53.2227 -7.71484 L 76.5625 -7.71484 C 78.8574 -7.71484 80.4688 -9.32617 80.4688 -11.6699 C 80.4688 -13.9648 78.8574 -15.5273 76.5625 -15.5273 L 53.2227 -15.5273 C 50.8789 -15.5273 49.3164 -13.9648 49.3164 -11.6699 C 49.3164 -9.32617 50.8789 -7.71484 53.2227 -7.71484 Z"/>
  </g>
  <g id="Thin-M" transform="matrix(1 0 0 1 793.849 1126)">
   <path d="M 26.709 18.8965 L 32.1289 18.8965 C 35.5469 18.8965 38.2324 16.2109 38.2324 12.8418 L 38.2324 5.37109 C 45.8008 5.9082 53.9551 6.15234 62.5 6.15234 C 71.0449 6.15234 79.2969 5.9082 86.9141 5.37109 L 86.9141 12.8418 C 86.9141 16.2109 89.5996 18.8965 93.0176 18.8965 L 98.4375 18.8965 C 101.855 18.8965 104.541 16.1621 104.541 12.8418 L 104.541 1.75781 C 106.152 0.292969 107.031 -1.85547 107.031 -4.78516 L 107.031 -47.1191 L 109.375 -47.1191 C 111.572 -47.1191 112.695 -48.291 112.695 -50.2441 L 112.695 -69.0918 C 112.695 -70.9961 111.572 -72.168 109.375 -72.168 L 107.031 -72.168 L 107.031 -78.6621 C 107.031 -84.375 103.662 -87.1582 98.0469 -87.793 C 87.6953 -89.0625 75.3418 -89.5996 62.5 -89.5996 C 49.6582 -89.5996 37.3535 -89.0137 27.0996 -87.793 C 21.4844 -87.1582 18.1152 -84.375 18.1152 -78.6621 L 18.1152 -72.168 L 15.7715 -72.168 C 13.5742 -72.168 12.4512 -70.9961 12.4512 -69.0918 L 12.4512 -50.2441 C 12.4512 -48.291 13.5742 -47.1191 15.7715 -47.1191 L 18.1152 -47.1191 L 18.1152 -4.78516 C 18.1152 -1.85547 18.9941 0.292969 20.6055 1.75781 L 20.6055 12.8418 C 20.6055 16.1621 23.291 18.8965 26.709 18.8965 Z M 62.5 2.7832 C 49.3164 2.7832 37.3047 2.24609 27.6855 1.07422 C 23.2422 0.537109 21.4355 -1.36719 21.4355 -5.17578 L 21.4355 -78.2715 C 21.4355 -82.0801 23.3398 -83.9844 27.6855 -84.5215 C 37.2559 -85.6934 49.4629 -86.3281 62.5 -86.2305 C 75.0488 -86.1816 87.1582 -85.6934 97.4609 -84.5215 C 101.904 -84.0332 103.711 -82.0801 103.711 -78.2715 L 103.711 -5.17578 C 103.711 -1.36719 101.904 0.585938 97.4609 1.07422 C 87.1094 2.24609 75.1465 2.7832 62.5 2.7832 Z M 30.6152 -24.9023 C 50.0977 -22.7539 74.6094 -22.7051 94.5312 -24.9023 C 97.168 -25.1953 98.6816 -26.9043 98.6816 -29.6387 L 98.6816 -74.8535 C 98.6816 -77.6855 97.1191 -79.4434 94.3848 -79.7363 C 72.6074 -81.8359 52.9297 -81.8848 30.7617 -79.7363 C 28.0273 -79.4434 26.4648 -77.6855 26.4648 -74.8535 L 26.4648 -29.6387 C 26.4648 -26.9043 27.9785 -25.1953 30.6152 -24.9023 Z M 34.7656 -6.68945 C 37.5488 -6.68945 39.5508 -8.69141 39.5508 -11.4746 C 39.5508 -14.209 37.5488 -16.3086 34.7656 -16.3086 C 31.9824 -16.3086 29.9316 -14.209 29.9316 -11.4746 C 29.9316 -8.69141 31.9824 -6.68945 34.7656 -6.68945 Z M 90.3809 -6.68945 C 93.1641 -6.68945 95.2148 -8.69141 95.2148 -11.4746 C 95.2148 -14.209 93.1641 -16.3086 90.3809 -16.3086 C 87.5977 -16.3086 85.5957 -14.209 85.5957 -11.4746 C 85.5957 -8.69141 87.5977 -6.68945 90.3809 -6.68945 Z M 50.6348 -8.00781 L 74.1699 -8.00781 C 76.2207 -8.00781 77.5879 -9.42383 77.5879 -11.4746 C 77.5879 -13.5254 76.2207 -14.9414 74.1699 -14.9414 L 50.6348 -14.9414 C 48.584 -14.9414 47.168 -13.5254 47.168 -11.4746 C 47.168 -9.42383 48.584 -8.00781 50.6348 -8.00781 Z"/>
  </g>
  <g id="Ultralight-M" transform="matrix(1 0 0 1 498.383 1126)">
   <path d="M 26.2695 18.0664 L 31.5918 18.0664 C 34.9609 18.0664 37.5977 15.4785 37.5977 12.1094 L 37.5977 4.78516 C 44.9707 5.32227 52.9785 5.56641 61.2793 5.56641 C 69.5801 5.56641 77.5879 5.32227 85.1074 4.83398 L 85.1074 12.1094 C 85.1074 15.4785 87.6953 18.0664 91.0645 18.0664 L 96.4355 18.0664 C 99.8047 18.0664 102.393 15.4297 102.393 12.1094 L 102.393 1.41602 C 104.004 0.0488281 104.883 -2.05078 104.883 -4.93164 L 104.883 -47.5586 L 107.275 -47.5586 C 109.326 -47.5586 110.205 -48.6328 110.205 -50.3418 L 110.205 -68.8477 C 110.205 -70.5566 109.326 -71.6309 107.275 -71.6309 L 104.883 -71.6309 L 104.883 -78.3691 C 104.883 -83.8867 101.611 -86.4258 96.3379 -87.0605 C 85.8887 -88.2812 73.9258 -88.8672 61.2793 -88.8672 C 48.584 -88.8672 36.6211 -88.2324 26.3672 -87.0605 C 21.0938 -86.4258 17.7734 -83.8867 17.7734 -78.3691 L 17.7734 -71.6309 L 15.4297 -71.6309 C 13.3789 -71.6309 12.4512 -70.5566 12.4512 -68.8477 L 12.4512 -50.3418 C 12.4512 -48.6328 13.3789 -47.5586 15.4297 -47.5586 L 17.7734 -47.5586 L 17.7734 -4.93164 C 17.7734 -2.05078 18.6523 0.0488281 20.2637 1.41602 L 20.2637 12.1094 C 20.2637 15.4297 22.9004 18.0664 26.2695 18.0664 Z M 61.2793 3.07617 C 48.3887 3.07617 36.4258 2.53906 26.6602 1.36719 C 22.0703 0.78125 20.2148 -1.02539 20.2148 -4.88281 L 20.2148 -78.418 C 20.2148 -82.2754 22.0703 -84.082 26.6602 -84.6191 C 36.4258 -85.8398 48.3887 -86.4258 61.2793 -86.377 C 73.4863 -86.3281 85.3516 -85.8398 96.0449 -84.6191 C 100.586 -84.1309 102.49 -82.2754 102.49 -78.418 L 102.49 -4.88281 C 102.49 -1.02539 100.586 0.830078 96.0449 1.36719 C 85.3516 2.53906 73.4375 3.07617 61.2793 3.07617 Z M 29.2969 -24.707 C 48.877 -22.8027 73.2422 -22.7539 93.3594 -24.707 C 95.9473 -24.9512 97.4121 -26.6602 97.4121 -29.248 L 97.4121 -75.3906 C 97.4121 -77.9785 95.9473 -79.6387 93.4082 -79.8828 C 70.8984 -82.0801 52.2949 -82.1289 29.2969 -79.8828 C 26.7578 -79.6387 25.2441 -77.9785 25.2441 -75.3906 L 25.2441 -29.248 C 25.2441 -26.6602 26.7578 -24.9512 29.2969 -24.707 Z M 33.5449 -6.93359 C 36.1328 -6.93359 37.9883 -8.78906 37.9883 -11.377 C 37.9883 -13.9648 36.1328 -15.918 33.5449 -15.918 C 30.957 -15.918 29.0039 -13.9648 29.0039 -11.377 C 29.0039 -8.78906 30.957 -6.93359 33.5449 -6.93359 Z M 89.1113 -6.93359 C 91.748 -6.93359 93.6523 -8.78906 93.6523 -11.377 C 93.6523 -13.9648 91.748 -15.918 89.1113 -15.918 C 86.5234 -15.918 84.668 -13.9648 84.668 -11.377 C 84.668 -8.78906 86.5234 -6.93359 89.1113 -6.93359 Z M 49.3164 -8.1543 L 72.9492 -8.1543 C 74.8535 -8.1543 76.1719 -9.47266 76.1719 -11.377 C 76.1719 -13.2812 74.8535 -14.5996 72.9492 -14.5996 L 49.3164 -14.5996 C 47.3633 -14.5996 46.0938 -13.2812 46.0938 -11.377 C 46.0938 -9.47266 47.3633 -8.1543 49.3164 -8.1543 Z"/>
  </g>
  <g id="Black-S" transform="matrix(1 0 0 1 2872.27 696)">
   <path d="M 28.2227 14.3066 L 33.3008 14.3066 C 38.7207 14.3066 41.2109 11.8164 41.2109 6.44531 L 41.2109 2.05078 C 46.9238 2.44141 53.6133 2.58789 61.1328 2.58789 C 68.6523 2.58789 75.3418 2.39258 81.0547 2.05078 L 81.0547 6.44531 C 81.0547 11.8164 83.5449 14.3066 88.9648 14.3066 L 94.043 14.3066 C 99.4629 14.3066 101.953 11.8164 101.953 6.44531 L 101.953 -5.0293 C 103.271 -7.17773 103.906 -9.81445 103.906 -12.8418 L 103.906 -39.1602 L 105.762 -39.1602 C 109.57 -39.1602 112.5 -41.8457 112.5 -45.5566 L 112.5 -65.5273 C 112.5 -69.2383 109.57 -71.9238 105.762 -71.9238 L 103.906 -71.9238 L 103.906 -74.2676 C 103.906 -81.6406 100.049 -86.5723 92.5293 -87.8906 C 85.1562 -89.1602 74.4629 -89.6973 61.1328 -89.6973 C 47.8027 -89.6973 37.1094 -89.2578 29.7363 -87.8906 C 22.2168 -86.4746 18.3594 -81.543 18.3594 -74.2676 L 18.3594 -71.9238 L 16.5039 -71.9238 C 12.6953 -71.9238 9.76562 -69.2383 9.76562 -65.5273 L 9.76562 -45.5566 C 9.76562 -41.8457 12.6953 -39.1602 16.5039 -39.1602 L 18.3594 -39.1602 L 18.3594 -12.8418 C 18.3594 -9.86328 18.9941 -7.22656 20.3125 -5.12695 L 20.3125 6.44531 C 20.3125 11.8164 22.8027 14.3066 28.2227 14.3066 Z M 61.1328 -8.74023 C 48.0957 -8.74023 38.4766 -9.17969 33.4961 -10.3027 C 30.9082 -10.8887 29.6875 -12.5977 29.6875 -15.7715 L 29.6875 -71.3379 C 29.6875 -74.5117 30.9082 -76.2207 33.4961 -76.8066 C 38.4766 -77.9297 48.0957 -78.3691 61.1328 -78.3691 C 74.1699 -78.3691 83.7891 -77.6855 88.7695 -76.7578 C 91.3574 -76.2695 92.5781 -74.6094 92.5781 -71.3379 L 92.5781 -15.7715 C 92.5781 -12.5 91.3574 -10.791 88.7695 -10.3516 C 83.7891 -9.52148 74.1699 -8.74023 61.1328 -8.74023 Z M 38.2324 -29.0039 C 50.8789 -26.6602 71.582 -26.9043 84.082 -29.0039 C 87.2559 -29.541 89.0137 -31.6895 89.0137 -35.0098 L 89.0137 -67.0898 C 89.0137 -70.8496 87.0117 -73.1934 83.3984 -73.5352 C 71.3867 -74.6582 51.2695 -74.707 38.9648 -73.5352 C 35.3516 -73.1934 33.3008 -70.8496 33.3008 -67.0898 L 33.3008 -35.0098 C 33.3008 -31.6895 35.0586 -29.5898 38.2324 -29.0039 Z M 39.5996 -13.4766 C 42.5781 -13.4766 44.9219 -15.8203 44.9219 -18.7988 C 44.9219 -21.7773 42.5781 -24.1211 39.5996 -24.1211 C 36.6211 -24.1211 34.2773 -21.7773 34.2773 -18.7988 C 34.2773 -15.8203 36.6211 -13.4766 39.5996 -13.4766 Z M 82.666 -13.4766 C 85.6445 -13.4766 87.9883 -15.8203 87.9883 -18.7988 C 87.9883 -21.7773 85.6445 -24.1211 82.666 -24.1211 C 79.6875 -24.1211 77.3438 -21.7773 77.3438 -18.7988 C 77.3438 -15.8203 79.6875 -13.4766 82.666 -13.4766 Z M 53.9062 -14.502 L 69.3359 -14.502 C 71.875 -14.502 73.7305 -16.3574 73.7305 -18.8477 C 73.7305 -21.3867 71.875 -23.1934 69.3359 -23.1934 L 53.9062 -23.1934 C 50.3906 -23.1934 48.5352 -21.3867 48.5352 -18.8477 C 48.5352 -16.3574 50.3906 -14.502 53.9062 -14.502 Z"/>
  </g>
  <g id="Heavy-S" transform="matrix(1 0 0 1 2577.41 696)">
   <path d="M 26.8555 13.2812 L 31.8359 13.2812 C 36.6699 13.2812 39.0625 10.8398 39.0625 6.05469 L 39.0625 1.2207 C 44.9219 1.61133 51.709 1.80664 59.2773 1.80664 C 66.8457 1.80664 73.6328 1.61133 79.4434 1.2207 L 79.4434 6.05469 C 79.4434 10.8398 81.8848 13.2812 86.7188 13.2812 L 91.6992 13.2812 C 96.4844 13.2812 98.9258 10.8398 98.9258 6.05469 L 98.9258 -5.0293 C 100.244 -7.03125 100.879 -9.47266 100.879 -12.4023 L 100.879 -40.0391 L 102.686 -40.0391 C 106.152 -40.0391 108.789 -42.4316 108.789 -45.8008 L 108.789 -64.8438 C 108.789 -68.1641 106.152 -70.5566 102.686 -70.5566 L 100.879 -70.5566 L 100.879 -73.3398 C 100.879 -80.1758 97.2656 -84.6191 90.2344 -85.791 C 82.7148 -86.9629 71.9727 -87.5 59.2773 -87.5 C 46.582 -87.5 35.8398 -87.0605 28.3203 -85.791 C 21.2891 -84.5703 17.627 -80.0781 17.627 -73.3398 L 17.627 -70.5566 L 15.8203 -70.5566 C 12.4023 -70.5566 9.76562 -68.1641 9.76562 -64.8438 L 9.76562 -45.8008 C 9.76562 -42.4316 12.4023 -40.0391 15.8203 -40.0391 L 17.627 -40.0391 L 17.627 -12.4023 C 17.627 -9.52148 18.3105 -7.08008 19.5801 -5.07812 L 19.5801 6.05469 C 19.5801 10.8398 22.0215 13.2812 26.8555 13.2812 Z M 59.2773 -8.20312 C 46.582 -8.20312 37.0117 -8.64258 31.543 -9.7168 C 28.8086 -10.2539 27.6367 -11.9629 27.6367 -15.0391 L 27.6367 -70.6543 C 27.6367 -73.7305 28.9551 -75.4883 31.543 -76.0254 C 36.9629 -77.0508 46.7285 -77.5391 59.2773 -77.5391 C 71.7773 -77.5391 81.5918 -76.9043 86.9629 -75.9766 C 89.6973 -75.5371 90.918 -73.8281 90.918 -70.6543 L 90.918 -15.0391 C 90.918 -11.8652 89.6973 -10.1562 86.9629 -9.7168 C 81.543 -8.88672 71.9238 -8.20312 59.2773 -8.20312 Z M 35.9375 -28.7109 C 49.1211 -26.3184 69.5801 -26.5137 82.6172 -28.7109 C 85.6445 -29.248 87.2559 -31.2012 87.2559 -34.375 L 87.2559 -66.5039 C 87.2559 -70.0684 85.4004 -72.2656 81.9824 -72.5586 C 69.3359 -73.7793 49.5117 -73.8281 36.6699 -72.5586 C 33.2031 -72.2656 31.2988 -70.0684 31.2988 -66.5039 L 31.2988 -34.375 C 31.2988 -31.2012 32.959 -29.2969 35.9375 -28.7109 Z M 37.6465 -13.1348 C 40.5762 -13.1348 42.8711 -15.4297 42.8711 -18.3105 C 42.8711 -21.2402 40.5762 -23.5352 37.6465 -23.5352 C 34.7168 -23.5352 32.4219 -21.2402 32.4219 -18.3105 C 32.4219 -15.4297 34.7168 -13.1348 37.6465 -13.1348 Z M 80.8594 -13.1348 C 83.7891 -13.1348 86.084 -15.4297 86.084 -18.3105 C 86.084 -21.2402 83.7891 -23.5352 80.8594 -23.5352 C 77.9785 -23.5352 75.6836 -21.2402 75.6836 -18.3105 C 75.6836 -15.4297 77.9785 -13.1348 80.8594 -13.1348 Z M 51.6113 -14.2578 L 67.6758 -14.2578 C 70.1172 -14.2578 71.875 -16.0156 71.875 -18.4082 C 71.875 -20.8008 70.1172 -22.5098 67.6758 -22.5098 L 51.6113 -22.5098 C 48.4375 -22.5098 46.6797 -20.8008 46.6797 -18.4082 C 46.6797 -16.0156 48.4375 -14.2578 51.6113 -14.2578 Z"/>
  </g>
  <g id="Bold-S" transform="matrix(1 0 0 1 2282.8 696)">
   <path d="M 25.3418 12.1094 L 30.1758 12.1094 C 34.3262 12.1094 36.6699 9.76562 36.6699 5.61523 L 36.6699 0.292969 C 42.7246 0.732422 49.6094 0.927734 57.1777 0.927734 C 64.7461 0.927734 71.6797 0.732422 77.6855 0.292969 L 77.6855 5.61523 C 77.6855 9.76562 80.0293 12.1094 84.1797 12.1094 L 89.0137 12.1094 C 93.2129 12.1094 95.5566 9.76562 95.5566 5.61523 L 95.5566 -5.0293 C 96.8262 -6.83594 97.5098 -9.13086 97.5098 -11.8652 L 97.5098 -41.0645 L 99.2676 -41.0645 C 102.295 -41.0645 104.59 -43.1152 104.59 -46.0449 L 104.59 -64.0137 C 104.59 -66.9922 102.295 -69.043 99.2676 -69.043 L 97.5098 -69.043 L 97.5098 -72.2656 C 97.5098 -78.4668 94.0918 -82.4707 87.6465 -83.4473 C 79.9805 -84.5215 69.1895 -85.0586 57.1777 -85.0586 C 45.166 -85.0586 34.375 -84.5703 26.709 -83.4473 C 20.2637 -82.4219 16.8457 -78.418 16.8457 -72.2656 L 16.8457 -69.043 L 15.0879 -69.043 C 12.0605 -69.043 9.76562 -66.9922 9.76562 -64.0137 L 9.76562 -46.0449 C 9.76562 -43.1152 12.0605 -41.0645 15.0879 -41.0645 L 16.8457 -41.0645 L 16.8457 -11.8652 C 16.8457 -9.17969 17.5293 -6.88477 18.7988 -5.07812 L 18.7988 5.61523 C 18.7988 9.76562 21.1914 12.1094 25.3418 12.1094 Z M 57.1777 -7.56836 C 44.9219 -7.56836 35.3027 -8.05664 29.3945 -9.0332 C 26.5137 -9.52148 25.3418 -11.2305 25.3418 -14.2578 L 25.3418 -69.873 C 25.3418 -72.9004 26.7578 -74.6582 29.3945 -75.1465 C 35.2539 -76.123 45.2148 -76.5625 57.1777 -76.5625 C 69.1406 -76.5625 79.1016 -75.9766 84.9609 -75.0977 C 87.8418 -74.6582 89.0137 -72.9492 89.0137 -69.873 L 89.0137 -14.2578 C 89.0137 -11.1816 87.8418 -9.47266 84.9609 -9.0332 C 79.0039 -8.20312 69.4336 -7.56836 57.1777 -7.56836 Z M 33.3984 -28.418 C 47.1191 -25.9766 67.334 -26.0742 81.0059 -28.418 C 83.8379 -28.9062 85.3027 -30.6641 85.3027 -33.6426 L 85.3027 -65.8203 C 85.3027 -69.2383 83.6426 -71.1914 80.3711 -71.4844 C 67.041 -72.8027 47.5098 -72.8027 34.082 -71.4844 C 30.8594 -71.1914 29.1016 -69.2383 29.1016 -65.8203 L 29.1016 -33.6426 C 29.1016 -30.6641 30.5664 -28.9062 33.3984 -28.418 Z M 35.498 -12.7441 C 38.3301 -12.7441 40.5762 -14.9414 40.5762 -17.8223 C 40.5762 -20.6543 38.3301 -22.9004 35.498 -22.9004 C 32.6172 -22.9004 30.3711 -20.6543 30.3711 -17.8223 C 30.3711 -14.9414 32.6172 -12.7441 35.498 -12.7441 Z M 78.9062 -12.7441 C 81.7383 -12.7441 83.9844 -14.9414 83.9844 -17.8223 C 83.9844 -20.6543 81.7383 -22.9004 78.9062 -22.9004 C 76.0254 -22.9004 73.7793 -20.6543 73.7793 -17.8223 C 73.7793 -14.9414 76.0254 -12.7441 78.9062 -12.7441 Z M 49.0234 -13.9648 L 65.8203 -13.9648 C 68.1152 -13.9648 69.7754 -15.625 69.7754 -17.8711 C 69.7754 -20.166 68.1152 -21.7773 65.8203 -21.7773 L 49.0234 -21.7773 C 46.2402 -21.7773 44.5801 -20.166 44.5801 -17.8711 C 44.5801 -15.625 46.2402 -13.9648 49.0234 -13.9648 Z"/>
  </g>
  <g id="Semibold-S" transform="matrix(1 0 0 1 1987.53 696)">
   <path d="M 24.2676 11.3281 L 29.0039 11.3281 C 32.7148 11.3281 35.0586 8.98438 35.0586 5.32227 L 35.0586 -0.341797 C 41.2109 0.0976562 48.1445 0.292969 55.7617 0.292969 C 63.3301 0.292969 70.3125 0.0976562 76.4648 -0.341797 L 76.4648 5.32227 C 76.4648 8.98438 78.7598 11.3281 82.4707 11.3281 L 87.207 11.3281 C 90.918 11.3281 93.2129 8.98438 93.2129 5.32227 L 93.2129 -5.07812 C 94.5312 -6.73828 95.166 -8.93555 95.166 -11.5234 L 95.166 -41.748 L 96.9238 -41.748 C 99.6582 -41.748 101.709 -43.6035 101.709 -46.2402 L 101.709 -63.4766 C 101.709 -66.1621 99.6582 -67.9688 96.9238 -67.9688 L 95.166 -67.9688 L 95.166 -71.5332 C 95.166 -77.3438 91.9434 -80.957 85.8398 -81.8359 C 78.0762 -82.8613 67.2363 -83.3984 55.7617 -83.3984 C 44.2383 -83.3984 33.3984 -82.8613 25.6348 -81.8359 C 19.5312 -80.957 16.3086 -77.2949 16.3086 -71.5332 L 16.3086 -67.9688 L 14.5996 -67.9688 C 11.8164 -67.9688 9.76562 -66.1621 9.76562 -63.4766 L 9.76562 -46.2402 C 9.76562 -43.6035 11.8164 -41.748 14.5996 -41.748 L 16.3086 -41.748 L 16.3086 -11.5234 C 16.3086 -8.93555 16.9922 -6.73828 18.2617 -5.07812 L 18.2617 5.32227 C 18.2617 8.98438 20.5566 11.3281 24.2676 11.3281 Z M 55.7617 -7.17773 C 43.75 -7.17773 34.1797 -7.61719 27.8809 -8.54492 C 24.9023 -9.0332 23.7793 -10.7422 23.7793 -13.7207 L 23.7793 -69.3848 C 23.7793 -72.3145 25.1953 -74.1211 27.8809 -74.5117 C 34.0332 -75.4395 44.1895 -75.9277 55.7617 -75.9277 C 67.2852 -75.9277 77.3926 -75.3906 83.5938 -74.5117 C 86.5723 -74.0723 87.7441 -72.3633 87.7441 -69.3848 L 87.7441 -13.7207 C 87.7441 -10.6934 86.5723 -8.98438 83.5938 -8.59375 C 77.2949 -7.76367 67.7246 -7.17773 55.7617 -7.17773 Z M 31.6406 -28.2227 C 45.752 -25.7324 65.7715 -25.7812 79.8828 -28.2227 C 82.6172 -28.6621 83.9355 -30.2734 83.9355 -33.1543 L 83.9355 -65.332 C 83.9355 -68.6035 82.373 -70.459 79.2969 -70.752 C 65.4785 -72.1191 46.1426 -72.1191 32.3242 -70.752 C 29.1992 -70.459 27.5879 -68.6035 27.5879 -65.332 L 27.5879 -33.1543 C 27.5879 -30.2734 28.9551 -28.6621 31.6406 -28.2227 Z M 33.9844 -12.4512 C 36.8164 -12.4512 38.9648 -14.6484 38.9648 -17.4805 C 38.9648 -20.2637 36.8164 -22.4609 33.9844 -22.4609 C 31.1523 -22.4609 28.9551 -20.2637 28.9551 -17.4805 C 28.9551 -14.6484 31.1523 -12.4512 33.9844 -12.4512 Z M 77.4902 -12.4512 C 80.3223 -12.4512 82.5195 -14.6484 82.5195 -17.4805 C 82.5195 -20.2637 80.3223 -22.4609 77.4902 -22.4609 C 74.707 -22.4609 72.5098 -20.2637 72.5098 -17.4805 C 72.5098 -14.6484 74.707 -12.4512 77.4902 -12.4512 Z M 47.2656 -13.7695 L 64.502 -13.7695 C 66.748 -13.7695 68.3105 -15.332 68.3105 -17.5293 C 68.3105 -19.7754 66.748 -21.2891 64.502 -21.2891 L 47.2656 -21.2891 C 44.7266 -21.2891 43.1641 -19.7754 43.1641 -17.5293 C 43.1641 -15.332 44.7266 -13.7695 47.2656 -13.7695 Z"/>
  </g>
  <g id="Medium-S" transform="matrix(1 0 0 1 1691.89 696)">
   <path d="M 23.4863 10.6934 L 28.1738 10.6934 C 31.543 10.6934 33.7891 8.44727 33.7891 5.12695 L 33.7891 -0.830078 C 40.0391 -0.390625 47.0703 -0.146484 54.6387 -0.146484 C 62.207 -0.146484 69.2383 -0.390625 75.4883 -0.830078 L 75.4883 5.12695 C 75.4883 8.44727 77.7832 10.6934 81.1523 10.6934 L 85.8398 10.6934 C 89.1602 10.6934 91.4551 8.44727 91.4551 5.12695 L 91.4551 -5.07812 C 92.7734 -6.68945 93.4082 -8.74023 93.4082 -11.2793 L 93.4082 -42.2852 L 95.1172 -42.2852 C 97.6562 -42.2852 99.5605 -43.9453 99.5605 -46.3867 L 99.5605 -63.0859 C 99.5605 -65.5273 97.6562 -67.1875 95.1172 -67.1875 L 93.4082 -67.1875 L 93.4082 -70.9961 C 93.4082 -76.4648 90.2832 -79.834 84.5215 -80.5664 C 76.6602 -81.5918 65.7715 -82.1289 54.6387 -82.1289 C 43.5059 -82.1289 32.666 -81.5918 24.8047 -80.5664 C 18.9941 -79.834 15.918 -76.4648 15.918 -70.9961 L 15.918 -67.1875 L 14.209 -67.1875 C 11.6699 -67.1875 9.76562 -65.5273 9.76562 -63.0859 L 9.76562 -46.3867 C 9.76562 -43.9453 11.6699 -42.2852 14.209 -42.2852 L 15.918 -42.2852 L 15.918 -11.2793 C 15.918 -8.74023 16.5527 -6.68945 17.8711 -5.07812 L 17.8711 5.12695 C 17.8711 8.44727 20.1172 10.6934 23.4863 10.6934 Z M 54.6387 -6.83594 C 42.8711 -6.83594 33.3008 -7.32422 26.7578 -8.20312 C 23.6816 -8.64258 22.5586 -10.3516 22.5586 -13.3301 L 22.5586 -68.9453 C 22.5586 -71.875 24.0723 -73.6816 26.7578 -74.0723 C 33.1543 -74.9512 43.3594 -75.4395 54.6387 -75.4395 C 65.918 -75.4395 76.123 -74.9023 82.5195 -74.0723 C 85.6445 -73.6328 86.7188 -71.9238 86.7188 -68.9453 L 86.7188 -13.3301 C 86.7188 -10.3516 85.6445 -8.59375 82.5195 -8.20312 C 75.9766 -7.37305 66.4062 -6.83594 54.6387 -6.83594 Z M 30.2734 -28.0273 C 44.7266 -25.5371 64.5996 -25.5371 79.0527 -28.0273 C 81.6406 -28.5156 82.9102 -29.9805 82.9102 -32.7637 L 82.9102 -64.9902 C 82.9102 -68.1641 81.4453 -69.9219 78.4668 -70.2148 C 64.3066 -71.6309 45.1172 -71.582 30.957 -70.2148 C 27.9297 -69.9219 26.416 -68.1641 26.416 -64.9902 L 26.416 -32.7637 C 26.416 -29.9805 27.6855 -28.5156 30.2734 -28.0273 Z M 32.8613 -12.2559 C 35.6445 -12.2559 37.793 -14.4043 37.793 -17.1875 C 37.793 -19.9707 35.6445 -22.1191 32.8613 -22.1191 C 30.0781 -22.1191 27.8809 -19.9707 27.8809 -17.1875 C 27.8809 -14.4043 30.0781 -12.2559 32.8613 -12.2559 Z M 76.4648 -12.2559 C 79.248 -12.2559 81.3965 -14.4043 81.3965 -17.1875 C 81.3965 -19.9707 79.248 -22.1191 76.4648 -22.1191 C 73.6816 -22.1191 71.5332 -19.9707 71.5332 -17.1875 C 71.5332 -14.4043 73.6816 -12.2559 76.4648 -12.2559 Z M 45.9473 -13.623 L 63.5254 -13.623 C 65.6738 -13.623 67.1875 -15.1367 67.1875 -17.2852 C 67.1875 -19.4336 65.6738 -20.8984 63.5254 -20.8984 L 45.9473 -20.8984 C 43.6035 -20.8984 42.0898 -19.4336 42.0898 -17.2852 C 42.0898 -15.1367 43.6035 -13.623 45.9473 -13.623 Z"/>
  </g>
  <g id="Regular-S" transform="matrix(1 0 0 1 1396.62 696)">
   <path d="M 22.4609 9.91211 L 27.002 9.91211 C 29.9316 9.91211 32.1777 7.66602 32.1777 4.83398 L 32.1777 -1.46484 C 38.5742 -0.976562 45.7031 -0.78125 53.2227 -0.78125 C 60.791 -0.78125 67.8711 -0.976562 74.2676 -1.46484 L 74.2676 4.83398 C 74.2676 7.66602 76.5137 9.91211 79.4434 9.91211 L 84.0332 9.91211 C 86.9141 9.91211 89.1602 7.66602 89.1602 4.83398 L 89.1602 -5.12695 C 90.4297 -6.5918 91.1133 -8.54492 91.1133 -10.9375 L 91.1133 -42.9688 L 92.7734 -42.9688 C 95.0195 -42.9688 96.6797 -44.3848 96.6797 -46.582 L 96.6797 -62.5488 C 96.6797 -64.6973 95.0195 -66.1133 92.7734 -66.1133 L 91.1133 -66.1133 L 91.1133 -70.3125 C 91.1133 -75.3418 88.1348 -78.3691 82.7637 -78.9551 C 74.8047 -79.9316 63.8672 -80.4199 53.2227 -80.4199 C 42.5781 -80.4199 31.6895 -79.8828 23.7305 -78.9551 C 18.3105 -78.3691 15.332 -75.3418 15.332 -70.3125 L 15.332 -66.1133 L 13.6719 -66.1133 C 11.4258 -66.1133 9.76562 -64.6973 9.76562 -62.5488 L 9.76562 -46.582 C 9.76562 -44.3848 11.4258 -42.9688 13.6719 -42.9688 L 15.332 -42.9688 L 15.332 -10.9375 C 15.332 -8.54492 16.0156 -6.5918 17.2852 -5.12695 L 17.2852 4.83398 C 17.2852 7.66602 19.5312 9.91211 22.4609 9.91211 Z M 53.2227 -6.44531 C 41.748 -6.44531 32.1777 -6.93359 25.293 -7.76367 C 22.1191 -8.1543 20.9961 -9.86328 20.9961 -12.793 L 20.9961 -68.457 C 20.9961 -71.2891 22.5586 -73.0957 25.293 -73.4863 C 31.9824 -74.3164 42.334 -74.8047 53.2227 -74.8047 C 64.1113 -74.8047 74.4629 -74.3164 81.1523 -73.4863 C 84.375 -73.0957 85.4492 -71.3379 85.4492 -68.457 L 85.4492 -12.793 C 85.4492 -9.86328 84.375 -8.1543 81.1523 -7.76367 C 74.2676 -6.93359 64.6973 -6.44531 53.2227 -6.44531 Z M 28.5645 -27.832 C 43.3594 -25.293 63.0859 -25.2441 77.9785 -27.832 C 80.4199 -28.2715 81.5918 -29.6387 81.5918 -32.2754 L 81.5918 -64.502 C 81.5918 -67.5781 80.2246 -69.1895 77.3438 -69.4824 C 62.7441 -70.9473 43.75 -70.8984 29.1992 -69.4824 C 26.3184 -69.1895 24.9023 -67.5781 24.9023 -64.502 L 24.9023 -32.2754 C 24.9023 -29.6387 26.0742 -28.2715 28.5645 -27.832 Z M 31.3477 -11.9629 C 34.1309 -11.9629 36.2305 -14.0625 36.2305 -16.8457 C 36.2305 -19.5801 34.1309 -21.6797 31.3477 -21.6797 C 28.6133 -21.6797 26.5137 -19.5801 26.5137 -16.8457 C 26.5137 -14.0625 28.6133 -11.9629 31.3477 -11.9629 Z M 75.0977 -11.9629 C 77.832 -11.9629 79.9805 -14.0625 79.9805 -16.8457 C 79.9805 -19.5801 77.832 -21.6797 75.0977 -21.6797 C 72.3633 -21.6797 70.2637 -19.5801 70.2637 -16.8457 C 70.2637 -14.0625 72.3633 -11.9629 75.0977 -11.9629 Z M 44.1895 -13.4277 L 62.2559 -13.4277 C 64.3555 -13.4277 65.7715 -14.8438 65.7715 -16.9434 C 65.7715 -18.9941 64.3555 -20.4102 62.2559 -20.4102 L 44.1895 -20.4102 C 42.0898 -20.4102 40.6738 -18.9941 40.6738 -16.9434 C 40.6738 -14.8438 42.0898 -13.4277 44.1895 -13.4277 Z"/>
  </g>
  <g id="Light-S" transform="matrix(1 0 0 1 1101.52 696)">
   <path d="M 21.875 8.88672 L 26.3184 8.88672 C 29.1504 8.88672 31.3477 6.68945 31.3477 3.90625 L 31.3477 -2.19727 C 37.5488 -1.75781 44.3848 -1.5625 51.6113 -1.5625 C 58.8379 -1.5625 65.6738 -1.75781 71.9238 -2.19727 L 71.9238 3.90625 C 71.9238 6.68945 74.0723 8.88672 76.9043 8.88672 L 81.3477 8.88672 C 84.1797 8.88672 86.377 6.68945 86.377 3.90625 L 86.377 -5.56641 C 87.6465 -6.88477 88.3301 -8.74023 88.3301 -11.084 L 88.3301 -43.5547 L 90.0391 -43.5547 C 92.0898 -43.5547 93.457 -44.8242 93.457 -46.7285 L 93.457 -62.2559 C 93.457 -64.1602 92.0898 -65.3809 90.0391 -65.3809 L 88.3301 -65.3809 L 88.3301 -69.873 C 88.3301 -74.707 85.498 -77.3926 80.4688 -77.9785 C 72.4609 -78.9551 62.0117 -79.4434 51.6113 -79.4434 C 41.1621 -79.4434 30.7617 -78.9062 22.7539 -77.9785 C 17.7734 -77.3926 14.8926 -74.707 14.8926 -69.873 L 14.8926 -65.3809 L 13.1836 -65.3809 C 11.1328 -65.3809 9.76562 -64.1602 9.76562 -62.2559 L 9.76562 -46.7285 C 9.76562 -44.8242 11.1328 -43.5547 13.1836 -43.5547 L 14.8926 -43.5547 L 14.8926 -11.084 C 14.8926 -8.74023 15.5762 -6.88477 16.8457 -5.56641 L 16.8457 3.90625 C 16.8457 6.68945 19.043 8.88672 21.875 8.88672 Z M 51.6113 -6.05469 C 40.5273 -6.05469 31.0547 -6.49414 23.9258 -7.37305 C 20.6055 -7.8125 19.3848 -9.42383 19.3848 -12.3535 L 19.3848 -68.6523 C 19.3848 -71.5332 20.8984 -73.2422 23.9258 -73.6328 C 30.9082 -74.4629 40.9668 -74.9512 51.6113 -74.9512 C 62.0605 -74.9512 72.0703 -74.4629 79.3457 -73.6328 C 82.6172 -73.2422 83.8379 -71.582 83.8379 -68.6523 L 83.8379 -12.3535 C 83.8379 -9.42383 82.6172 -7.76367 79.3457 -7.37305 C 71.9727 -6.49414 62.4512 -6.05469 51.6113 -6.05469 Z M 26.8066 -27.5879 C 41.7969 -25.3418 61.2793 -25.293 76.4648 -27.5879 C 78.7598 -27.9297 79.9316 -29.2969 79.9316 -31.7383 L 79.9316 -65.1855 C 79.9316 -67.9199 78.6621 -69.4336 76.0742 -69.7266 C 60.498 -71.2402 42.8711 -71.2402 27.2461 -69.7266 C 24.6582 -69.4336 23.3398 -67.9199 23.3398 -65.1855 L 23.3398 -31.7383 C 23.3398 -29.2969 24.5117 -27.9297 26.8066 -27.5879 Z M 29.7852 -12.3047 C 32.3242 -12.3047 34.2285 -14.209 34.2285 -16.748 C 34.2285 -19.2871 32.3242 -21.1914 29.7852 -21.1914 C 27.2461 -21.1914 25.3418 -19.2871 25.3418 -16.748 C 25.3418 -14.209 27.2461 -12.3047 29.7852 -12.3047 Z M 73.4375 -12.3047 C 75.9766 -12.3047 77.9297 -14.209 77.9297 -16.748 C 77.9297 -19.2871 75.9766 -21.1914 73.4375 -21.1914 C 70.9473 -21.1914 69.043 -19.2871 69.043 -16.748 C 69.043 -14.209 70.9473 -12.3047 73.4375 -12.3047 Z M 42.4316 -13.623 L 60.6934 -13.623 C 62.5488 -13.623 63.8672 -14.8926 63.8672 -16.7969 C 63.8672 -18.7012 62.5488 -19.9707 60.6934 -19.9707 L 42.4316 -19.9707 C 40.5762 -19.9707 39.2578 -18.7012 39.2578 -16.7969 C 39.2578 -14.8926 40.5762 -13.623 42.4316 -13.623 Z"/>
  </g>
  <g id="Thin-S" transform="matrix(1 0 0 1 806.935 696)">
   <path d="M 21.0938 7.4707 L 25.3906 7.4707 C 28.125 7.4707 30.2246 5.37109 30.2246 2.68555 L 30.2246 -3.22266 C 36.1816 -2.7832 42.6758 -2.58789 49.4629 -2.58789 C 56.25 -2.58789 62.7441 -2.7832 68.7988 -3.17383 L 68.7988 2.68555 C 68.7988 5.37109 70.8984 7.4707 73.584 7.4707 L 77.8809 7.4707 C 80.6152 7.4707 82.7148 5.32227 82.7148 2.68555 L 82.7148 -6.10352 C 83.9355 -7.32422 84.668 -9.0332 84.668 -11.3281 L 84.668 -44.3848 L 86.4746 -44.3848 C 88.2324 -44.3848 89.209 -45.3613 89.209 -46.9238 L 89.209 -61.8164 C 89.209 -63.4277 88.2324 -64.4043 86.4746 -64.4043 L 84.668 -64.4043 L 84.668 -69.3848 C 84.668 -73.9258 81.9824 -76.1719 77.4902 -76.709 C 69.3848 -77.6855 59.5703 -78.125 49.4629 -78.125 C 39.3066 -78.125 29.541 -77.6367 21.4844 -76.709 C 17.041 -76.1719 14.3555 -73.9258 14.3555 -69.3848 L 14.3555 -64.4043 L 12.5488 -64.4043 C 10.7422 -64.4043 9.76562 -63.4277 9.76562 -61.8164 L 9.76562 -46.9238 C 9.76562 -45.3613 10.7422 -44.3848 12.5488 -44.3848 L 14.3555 -44.3848 L 14.3555 -11.3281 C 14.3555 -9.0332 15.0391 -7.32422 16.3086 -6.10352 L 16.3086 2.68555 C 16.3086 5.32227 18.4082 7.4707 21.0938 7.4707 Z M 49.4629 -5.56641 C 38.9648 -5.56641 29.541 -6.00586 22.1191 -6.88477 C 18.6523 -7.32422 17.2852 -8.83789 17.2852 -11.8164 L 17.2852 -68.8965 C 17.2852 -71.875 18.75 -73.3887 22.1191 -73.7793 C 29.4922 -74.707 39.1602 -75.1953 49.4629 -75.1465 C 59.375 -75.0977 68.9453 -74.707 76.9043 -73.7793 C 80.3711 -73.3887 81.7383 -71.875 81.7383 -68.8965 L 81.7383 -11.8164 C 81.7383 -8.83789 80.3711 -7.27539 76.9043 -6.88477 C 68.8965 -6.00586 59.5215 -5.56641 49.4629 -5.56641 Z M 24.5117 -27.2461 C 39.6973 -25.4395 58.9355 -25.3906 74.5117 -27.2461 C 76.6113 -27.4902 77.7832 -28.8086 77.7832 -31.0059 L 77.7832 -66.0645 C 77.7832 -68.4082 76.5625 -69.7754 74.3164 -70.0195 C 57.5195 -71.6797 41.748 -71.6797 24.6582 -70.0195 C 22.4609 -69.7754 21.1914 -68.4082 21.1914 -66.0645 L 21.1914 -31.0059 C 21.1914 -28.8086 22.3633 -27.4902 24.5117 -27.2461 Z M 27.6855 -12.7441 C 29.9316 -12.7441 31.543 -14.4043 31.543 -16.6504 C 31.543 -18.8477 29.9316 -20.5566 27.6855 -20.5566 C 25.4395 -20.5566 23.7793 -18.8477 23.7793 -16.6504 C 23.7793 -14.4043 25.4395 -12.7441 27.6855 -12.7441 Z M 71.2891 -12.7441 C 73.5352 -12.7441 75.1953 -14.4043 75.1953 -16.6504 C 75.1953 -18.8477 73.5352 -20.5566 71.2891 -20.5566 C 69.043 -20.5566 67.4316 -18.8477 67.4316 -16.6504 C 67.4316 -14.4043 69.043 -12.7441 71.2891 -12.7441 Z M 40.1855 -13.8672 L 58.5449 -13.8672 C 60.2051 -13.8672 61.377 -14.9902 61.377 -16.6504 C 61.377 -18.3105 60.2051 -19.4336 58.5449 -19.4336 L 40.1855 -19.4336 C 38.5254 -19.4336 37.3535 -18.3105 37.3535 -16.6504 C 37.3535 -14.9902 38.5254 -13.8672 40.1855 -13.8672 Z"/>
  </g>
  <g id="Ultralight-S" transform="matrix(1 0 0 1 511.322 696)">
   <path d="M 20.7031 6.73828 L 24.9023 6.73828 C 27.5879 6.73828 29.6387 4.6875 29.6387 2.05078 L 29.6387 -3.71094 C 35.4492 -3.32031 41.7969 -3.125 48.3398 -3.125 C 54.9316 -3.125 61.2793 -3.27148 67.1875 -3.71094 L 67.1875 2.05078 C 67.1875 4.6875 69.2383 6.73828 71.875 6.73828 L 76.0742 6.73828 C 78.7598 6.73828 80.8105 4.63867 80.8105 2.05078 L 80.8105 -6.39648 C 82.0801 -7.51953 82.7637 -9.17969 82.7637 -11.4258 L 82.7637 -44.7754 L 84.6191 -44.7754 C 86.2305 -44.7754 87.0117 -45.6543 87.0117 -47.0215 L 87.0117 -61.6211 C 87.0117 -63.0371 86.2305 -63.8672 84.6191 -63.8672 L 82.7637 -63.8672 L 82.7637 -69.0918 C 82.7637 -73.4863 80.1758 -75.5371 75.9277 -76.0254 C 67.7734 -77.002 58.3008 -77.4414 48.3398 -77.4414 C 38.3301 -77.4414 28.9062 -76.9531 20.8496 -76.0254 C 16.6504 -75.5371 14.0137 -73.4863 14.0137 -69.0918 L 14.0137 -63.8672 L 12.207 -63.8672 C 10.5469 -63.8672 9.76562 -63.0371 9.76562 -61.6211 L 9.76562 -47.0215 C 9.76562 -45.6543 10.5469 -44.7754 12.207 -44.7754 L 14.0137 -44.7754 L 14.0137 -11.4258 C 14.0137 -9.17969 14.7461 -7.51953 15.9668 -6.39648 L 15.9668 2.05078 C 15.9668 4.63867 18.0664 6.73828 20.7031 6.73828 Z M 48.3398 -5.27344 C 38.1836 -5.27344 28.8086 -5.71289 21.1426 -6.64062 C 17.627 -7.08008 16.1621 -8.49609 16.1621 -11.5234 L 16.1621 -68.9941 C 16.1621 -72.0215 17.627 -73.4863 21.1426 -73.9258 C 28.7598 -74.8047 38.1836 -75.293 48.3398 -75.2441 C 57.959 -75.2441 67.3828 -74.8047 75.6348 -73.9258 C 79.1992 -73.5352 80.6152 -72.0215 80.6152 -68.9941 L 80.6152 -11.5234 C 80.6152 -8.49609 79.1992 -7.03125 75.6348 -6.64062 C 67.334 -5.71289 58.0078 -5.27344 48.3398 -5.27344 Z M 23.3398 -27.0508 C 38.623 -25.4883 57.7637 -25.4395 73.4863 -27.0508 C 75.4883 -27.2461 76.6602 -28.5645 76.6602 -30.6641 L 76.6602 -66.5527 C 76.6602 -68.6523 75.4883 -69.9707 73.4375 -70.166 C 56.0059 -71.875 41.1621 -71.9238 23.3398 -70.166 C 21.2891 -69.9707 20.1172 -68.6523 20.1172 -66.5527 L 20.1172 -30.6641 C 20.1172 -28.5645 21.2891 -27.2461 23.3398 -27.0508 Z M 26.6113 -12.9883 C 28.7109 -12.9883 30.1758 -14.502 30.1758 -16.5527 C 30.1758 -18.6523 28.7109 -20.2148 26.6113 -20.2148 C 24.5117 -20.2148 22.998 -18.6523 22.998 -16.5527 C 22.998 -14.502 24.5117 -12.9883 26.6113 -12.9883 Z M 70.166 -12.9883 C 72.2656 -12.9883 73.8281 -14.502 73.8281 -16.5527 C 73.8281 -18.6523 72.2656 -20.2148 70.166 -20.2148 C 68.1152 -20.2148 66.6016 -18.6523 66.6016 -16.5527 C 66.6016 -14.502 68.1152 -12.9883 70.166 -12.9883 Z M 39.0137 -13.9648 L 57.4707 -13.9648 C 59.0332 -13.9648 60.0586 -15.0391 60.0586 -16.5527 C 60.0586 -18.1152 59.0332 -19.1406 57.4707 -19.1406 L 39.0137 -19.1406 C 37.4512 -19.1406 36.4258 -18.1152 36.4258 -16.5527 C 36.4258 -15.0391 37.4512 -13.9648 39.0137 -13.9648 Z"/>
  </g>
 </g>
</svg>
