<?xml version="1.0" encoding="UTF-8"?>
<!--Generator: Apple Native CoreSVG 148-->
<!DOCTYPE svg
PUBLIC "-//W3C//DTD SVG 1.1//EN"
       "http://www.w3.org/Graphics/SVG/1.1/DTD/svg11.dtd">
<svg version="1.1" xmlns="http://www.w3.org/2000/svg" xmlns:xlink="http://www.w3.org/1999/xlink" width="3300" height="2200">
 <!--glyph: "uni100202.medium", point size: 100.000000, font version: "Version 16.0d11e1", template writer version: "8"-->
 <g id="Notes">
  <rect height="2200" id="artboard" style="fill:white;opacity:1" width="3300" x="0" y="0"/>
  <line id="" style="fill:none;stroke:black;opacity:1;stroke-width:0.5;" x1="263" x2="3036" y1="292" y2="292"/>
  <text style="stroke:none;fill:black;font-family:-apple-system,&quot;SF Pro Display&quot;,&quot;SF Pro Text&quot;,Helvetica,sans-serif;font-weight:bold;" transform="matrix(1 0 0 1 263 322)">Weight/Scale Variations</text>
  <text style="stroke:none;fill:black;font-family:-apple-system,&quot;SF Pro Display&quot;,&quot;SF Pro Text&quot;,Helvetica,sans-serif;text-anchor:middle;" transform="matrix(1 0 0 1 559.711 322)">Ultralight</text>
  <text style="stroke:none;fill:black;font-family:-apple-system,&quot;SF Pro Display&quot;,&quot;SF Pro Text&quot;,Helvetica,sans-serif;text-anchor:middle;" transform="matrix(1 0 0 1 856.422 322)">Thin</text>
  <text style="stroke:none;fill:black;font-family:-apple-system,&quot;SF Pro Display&quot;,&quot;SF Pro Text&quot;,Helvetica,sans-serif;text-anchor:middle;" transform="matrix(1 0 0 1 1153.13 322)">Light</text>
  <text style="stroke:none;fill:black;font-family:-apple-system,&quot;SF Pro Display&quot;,&quot;SF Pro Text&quot;,Helvetica,sans-serif;text-anchor:middle;" transform="matrix(1 0 0 1 1449.84 322)">Regular</text>
  <text style="stroke:none;fill:black;font-family:-apple-system,&quot;SF Pro Display&quot;,&quot;SF Pro Text&quot;,Helvetica,sans-serif;text-anchor:middle;" transform="matrix(1 0 0 1 1746.56 322)">Medium</text>
  <text style="stroke:none;fill:black;font-family:-apple-system,&quot;SF Pro Display&quot;,&quot;SF Pro Text&quot;,Helvetica,sans-serif;text-anchor:middle;" transform="matrix(1 0 0 1 2043.27 322)">Semibold</text>
  <text style="stroke:none;fill:black;font-family:-apple-system,&quot;SF Pro Display&quot;,&quot;SF Pro Text&quot;,Helvetica,sans-serif;text-anchor:middle;" transform="matrix(1 0 0 1 2339.98 322)">Bold</text>
  <text style="stroke:none;fill:black;font-family:-apple-system,&quot;SF Pro Display&quot;,&quot;SF Pro Text&quot;,Helvetica,sans-serif;text-anchor:middle;" transform="matrix(1 0 0 1 2636.69 322)">Heavy</text>
  <text style="stroke:none;fill:black;font-family:-apple-system,&quot;SF Pro Display&quot;,&quot;SF Pro Text&quot;,Helvetica,sans-serif;text-anchor:middle;" transform="matrix(1 0 0 1 2933.4 322)">Black</text>
  <line id="" style="fill:none;stroke:black;opacity:1;stroke-width:0.5;" x1="263" x2="3036" y1="1903" y2="1903"/>
  <g id="" transform="matrix(1 0 0 1 263 1933)">
   <path d="M 9.24805 0.830078 C 13.5547 0.830078 17.1387 -2.74414 17.1387 -7.05078 C 17.1387 -11.3574 13.5449 -14.9316 9.23828 -14.9316 C 4.94141 -14.9316 1.36719 -11.3574 1.36719 -7.05078 C 1.36719 -2.74414 4.95117 0.830078 9.24805 0.830078 Z M 9.24805 -0.654297 C 5.70312 -0.654297 2.87109 -3.49609 2.87109 -7.05078 C 2.87109 -10.6055 5.69336 -13.4473 9.23828 -13.4473 C 12.793 -13.4473 15.6348 -10.6055 15.6445 -7.05078 C 15.6543 -3.49609 12.8027 -0.654297 9.24805 -0.654297 Z M 9.22852 -3.62305 C 9.69727 -3.62305 9.9707 -3.93555 9.9707 -4.45312 L 9.9707 -6.31836 L 12.002 -6.31836 C 12.5 -6.31836 12.832 -6.57227 12.832 -7.04102 C 12.832 -7.51953 12.5195 -7.7832 12.002 -7.7832 L 9.9707 -7.7832 L 9.9707 -9.81445 C 9.9707 -10.332 9.69727 -10.6543 9.22852 -10.6543 C 8.75977 -10.6543 8.50586 -10.3125 8.50586 -9.81445 L 8.50586 -7.7832 L 6.49414 -7.7832 C 5.97656 -7.7832 5.64453 -7.51953 5.64453 -7.04102 C 5.64453 -6.57227 5.99609 -6.31836 6.49414 -6.31836 L 8.50586 -6.31836 L 8.50586 -4.45312 C 8.50586 -3.95508 8.75977 -3.62305 9.22852 -3.62305 Z"/>
  </g>
  <g id="" transform="matrix(1 0 0 1 281.506 1933)">
   <path d="M 11.709 2.91016 C 17.1582 2.91016 21.6699 -1.61133 21.6699 -7.05078 C 21.6699 -12.5 17.1484 -17.0117 11.6992 -17.0117 C 6.25977 -17.0117 1.74805 -12.5 1.74805 -7.05078 C 1.74805 -1.61133 6.26953 2.91016 11.709 2.91016 Z M 11.709 1.25 C 7.09961 1.25 3.41797 -2.44141 3.41797 -7.05078 C 3.41797 -11.6602 7.08984 -15.3516 11.6992 -15.3516 C 16.3086 -15.3516 20 -11.6602 20.0098 -7.05078 C 20.0195 -2.44141 16.3184 1.25 11.709 1.25 Z M 11.6797 -2.66602 C 12.207 -2.66602 12.5098 -3.01758 12.5098 -3.59375 L 12.5098 -6.23047 L 15.3223 -6.23047 C 15.8691 -6.23047 16.25 -6.51367 16.25 -7.03125 C 16.25 -7.55859 15.8887 -7.86133 15.3223 -7.86133 L 12.5098 -7.86133 L 12.5098 -10.6836 C 12.5098 -11.25 12.207 -11.6113 11.6797 -11.6113 C 11.1621 -11.6113 10.8789 -11.2305 10.8789 -10.6836 L 10.8789 -7.86133 L 8.07617 -7.86133 C 7.50977 -7.86133 7.13867 -7.55859 7.13867 -7.03125 C 7.13867 -6.51367 7.5293 -6.23047 8.07617 -6.23047 L 10.8789 -6.23047 L 10.8789 -3.59375 C 10.8789 -3.03711 11.1621 -2.66602 11.6797 -2.66602 Z"/>
  </g>
  <g id="" transform="matrix(1 0 0 1 304.924 1933)">
   <path d="M 14.9707 5.66406 C 21.9336 5.66406 27.6953 -0.0976562 27.6953 -7.05078 C 27.6953 -14.0137 21.9238 -19.7754 14.9609 -19.7754 C 8.00781 -19.7754 2.25586 -14.0137 2.25586 -7.05078 C 2.25586 -0.0976562 8.01758 5.66406 14.9707 5.66406 Z M 14.9707 3.84766 C 8.93555 3.84766 4.08203 -1.01562 4.08203 -7.05078 C 4.08203 -13.0957 8.92578 -17.9492 14.9609 -17.9492 C 21.0059 -17.9492 25.8594 -13.0957 25.8691 -7.05078 C 25.8789 -1.01562 21.0156 3.84766 14.9707 3.84766 Z M 14.9414 -1.38672 C 15.5176 -1.38672 15.8594 -1.77734 15.8594 -2.38281 L 15.8594 -6.13281 L 19.7754 -6.13281 C 20.3711 -6.13281 20.7812 -6.46484 20.7812 -7.02148 C 20.7812 -7.59766 20.3906 -7.93945 19.7754 -7.93945 L 15.8594 -7.93945 L 15.8594 -11.8652 C 15.8594 -12.4805 15.5176 -12.8711 14.9414 -12.8711 C 14.375 -12.8711 14.0527 -12.4609 14.0527 -11.8652 L 14.0527 -7.93945 L 10.1465 -7.93945 C 9.53125 -7.93945 9.13086 -7.59766 9.13086 -7.02148 C 9.13086 -6.46484 9.55078 -6.13281 10.1465 -6.13281 L 14.0527 -6.13281 L 14.0527 -2.38281 C 14.0527 -1.79688 14.375 -1.38672 14.9414 -1.38672 Z"/>
  </g>
  <text style="stroke:none;fill:black;font-family:-apple-system,&quot;SF Pro Display&quot;,&quot;SF Pro Text&quot;,Helvetica,sans-serif;font-weight:bold;" transform="matrix(1 0 0 1 263 1953)">Design Variations</text>
  <text style="stroke:none;fill:black;font-family:-apple-system,&quot;SF Pro Display&quot;,&quot;SF Pro Text&quot;,Helvetica,sans-serif;" transform="matrix(1 0 0 1 263 1971)">Symbols are supported in up to nine weights and three scales.</text>
  <text style="stroke:none;fill:black;font-family:-apple-system,&quot;SF Pro Display&quot;,&quot;SF Pro Text&quot;,Helvetica,sans-serif;" transform="matrix(1 0 0 1 263 1989)">For optimal layout with text and other symbols, vertically align</text>
  <text style="stroke:none;fill:black;font-family:-apple-system,&quot;SF Pro Display&quot;,&quot;SF Pro Text&quot;,Helvetica,sans-serif;" transform="matrix(1 0 0 1 263 2007)">symbols with the adjacent text.</text>
  <line id="" style="fill:none;stroke:#00AEEF;stroke-width:0.5;opacity:1.0;" x1="776" x2="776" y1="1919" y2="1933"/>
  <g id="" transform="matrix(1 0 0 1 776 1933)">
   <path d="M 3.31055 0.126953 C 3.82812 0.126953 4.08203 -0.0683594 4.26758 -0.605469 L 5.52734 -4.0625 L 11.2891 -4.0625 L 12.5488 -0.605469 C 12.7344 -0.0683594 12.9883 0.126953 13.4961 0.126953 C 14.0137 0.126953 14.3457 -0.185547 14.3457 -0.673828 C 14.3457 -0.839844 14.3164 -0.986328 14.2383 -1.20117 L 9.6582 -13.3887 C 9.43359 -13.9941 9.0332 -14.2871 8.4082 -14.2871 C 7.80273 -14.2871 7.39258 -13.9941 7.17773 -13.3984 L 2.59766 -1.19141 C 2.51953 -0.976562 2.49023 -0.830078 2.49023 -0.664062 C 2.49023 -0.175781 2.80273 0.126953 3.31055 0.126953 Z M 6.00586 -5.53711 L 8.37891 -12.1094 L 8.42773 -12.1094 L 10.8008 -5.53711 Z"/>
  </g>
  <line id="" style="fill:none;stroke:#00AEEF;stroke-width:0.5;opacity:1.0;" x1="792.836" x2="792.836" y1="1919" y2="1933"/>
  <text style="stroke:none;fill:black;font-family:-apple-system,&quot;SF Pro Display&quot;,&quot;SF Pro Text&quot;,Helvetica,sans-serif;font-weight:bold;" transform="matrix(1 0 0 1 776 1953)">Margins</text>
  <text style="stroke:none;fill:black;font-family:-apple-system,&quot;SF Pro Display&quot;,&quot;SF Pro Text&quot;,Helvetica,sans-serif;" transform="matrix(1 0 0 1 776 1971)">Leading and trailing margins on the left and right side of each symbol</text>
  <text style="stroke:none;fill:black;font-family:-apple-system,&quot;SF Pro Display&quot;,&quot;SF Pro Text&quot;,Helvetica,sans-serif;" transform="matrix(1 0 0 1 776 1989)">can be adjusted by modifying the x-location of the margin guidelines.</text>
  <text style="stroke:none;fill:black;font-family:-apple-system,&quot;SF Pro Display&quot;,&quot;SF Pro Text&quot;,Helvetica,sans-serif;" transform="matrix(1 0 0 1 776 2007)">Modifications are automatically applied proportionally to all</text>
  <text style="stroke:none;fill:black;font-family:-apple-system,&quot;SF Pro Display&quot;,&quot;SF Pro Text&quot;,Helvetica,sans-serif;" transform="matrix(1 0 0 1 776 2025)">scales and weights.</text>
  <g id="" transform="matrix(1 0 0 1 1289 1933)">
   <path d="M 2.8418 1.86523 L 4.54102 3.57422 C 5.40039 4.44336 6.38672 4.38477 7.31445 3.35938 L 17.4902 -7.85156 C 17.7539 -7.76367 18.0273 -7.7832 18.3398 -7.8418 L 19.4043 -8.03711 L 20.0684 -7.36328 L 20.0293 -6.80664 C 19.9902 -6.30859 20.1172 -5.92773 20.6055 -5.44922 L 21.3672 -4.70703 C 21.8457 -4.22852 22.4609 -4.19922 22.9297 -4.66797 L 25.8398 -7.58789 C 26.3086 -8.05664 26.2891 -8.65234 25.8105 -9.13086 L 25.0391 -9.89258 C 24.5605 -10.3711 24.1895 -10.5273 23.7109 -10.4883 L 23.1348 -10.4395 L 22.4902 -11.0742 L 22.7344 -12.1973 C 22.8613 -12.7637 22.7051 -13.2031 22.1191 -13.7891 L 19.9219 -15.9766 C 16.582 -19.2969 12.1484 -19.2188 9.25781 -16.3281 C 8.83789 -15.918 8.80859 -15.3418 9.04297 -14.9512 C 9.27734 -14.5898 9.73633 -14.3555 10.3809 -14.5215 C 11.8457 -14.8633 13.3691 -14.9219 14.7949 -13.9844 L 14.209 -12.5293 C 14.0137 -12.0508 13.9844 -11.6504 14.1113 -11.2891 L 3.04688 -0.898438 C 2.06055 0.0195312 1.98242 0.996094 2.8418 1.86523 Z M 10.752 -15.957 C 13.1836 -17.7344 16.4746 -17.4316 18.7012 -15.2051 L 21.1328 -12.793 C 21.3672 -12.5586 21.4062 -12.373 21.3379 -12.0312 L 21.0156 -10.5469 L 22.5195 -9.0625 L 23.5059 -9.12109 C 23.7598 -9.13086 23.8379 -9.11133 24.0332 -8.91602 L 24.6094 -8.33984 L 22.168 -5.89844 L 21.5918 -6.47461 C 21.3965 -6.66992 21.3672 -6.74805 21.377 -7.01172 L 21.4453 -7.98828 L 19.9512 -9.47266 L 18.4277 -9.21875 C 18.1055 -9.15039 17.959 -9.17969 17.7148 -9.41406 L 15.7129 -11.416 C 15.459 -11.6504 15.4297 -11.8164 15.5859 -12.1875 L 16.4648 -14.2773 C 14.9023 -15.7324 12.8711 -16.3574 10.8398 -15.7617 C 10.6836 -15.7227 10.625 -15.8496 10.752 -15.957 Z M 5.27344 2.30469 L 4.10156 1.14258 C 3.63281 0.683594 3.74023 0.341797 4.14062 -0.0195312 L 14.9512 -10.1953 L 16.416 -8.71094 L 6.42578 2.27539 C 6.07422 2.67578 5.74219 2.77344 5.27344 2.30469 Z"/>
  </g>
  <text style="stroke:none;fill:black;font-family:-apple-system,&quot;SF Pro Display&quot;,&quot;SF Pro Text&quot;,Helvetica,sans-serif;font-weight:bold;" transform="matrix(1 0 0 1 1289 1953)">Exporting</text>
  <text style="stroke:none;fill:black;font-family:-apple-system,&quot;SF Pro Display&quot;,&quot;SF Pro Text&quot;,Helvetica,sans-serif;" transform="matrix(1 0 0 1 1289 1971)">Symbols should be outlined when exporting to ensure the</text>
  <text style="stroke:none;fill:black;font-family:-apple-system,&quot;SF Pro Display&quot;,&quot;SF Pro Text&quot;,Helvetica,sans-serif;" transform="matrix(1 0 0 1 1289 1989)">design is preserved when submitting to Xcode.</text>
  <text id="template-version" style="stroke:none;fill:black;font-family:-apple-system,&quot;SF Pro Display&quot;,&quot;SF Pro Text&quot;,Helvetica,sans-serif;text-anchor:end;" transform="matrix(1 0 0 1 3036 1933)">Template v.2.0</text>
  <text style="stroke:none;fill:black;font-family:-apple-system,&quot;SF Pro Display&quot;,&quot;SF Pro Text&quot;,Helvetica,sans-serif;text-anchor:end;" transform="matrix(1 0 0 1 3036 1951)">Requires Xcode 12 or greater</text>
  <text style="stroke:none;fill:black;font-family:-apple-system,&quot;SF Pro Display&quot;,&quot;SF Pro Text&quot;,Helvetica,sans-serif;text-anchor:end;" transform="matrix(1 0 0 1 3036 1969)">Generated from square.and.arrow.up</text>
  <text style="stroke:none;fill:black;font-family:-apple-system,&quot;SF Pro Display&quot;,&quot;SF Pro Text&quot;,Helvetica,sans-serif;text-anchor:end;" transform="matrix(1 0 0 1 3036 1987)">Typeset at 100 points</text>
  <text style="stroke:none;fill:black;font-family:-apple-system,&quot;SF Pro Display&quot;,&quot;SF Pro Text&quot;,Helvetica,sans-serif;" transform="matrix(1 0 0 1 263 726)">Small</text>
  <text style="stroke:none;fill:black;font-family:-apple-system,&quot;SF Pro Display&quot;,&quot;SF Pro Text&quot;,Helvetica,sans-serif;" transform="matrix(1 0 0 1 263 1156)">Medium</text>
  <text style="stroke:none;fill:black;font-family:-apple-system,&quot;SF Pro Display&quot;,&quot;SF Pro Text&quot;,Helvetica,sans-serif;" transform="matrix(1 0 0 1 263 1586)">Large</text>
 </g>
 <g id="Guides">
  <g id="H-reference" style="fill:#27AAE1;stroke:none;" transform="matrix(1 0 0 1 339 696)">
   <path d="M 0.976562 0 L 3.66211 0 L 12.9883 -24.4629 L 45.7031 -24.4629 L 55.0781 0 L 57.7148 0 L 30.6152 -70.459 L 28.125 -70.459 Z M 29.2969 -67.1387 L 29.3945 -67.1387 L 44.873 -26.709 L 13.8672 -26.709 Z"/>
  </g>
  <line id="Baseline-S" style="fill:none;stroke:#27AAE1;opacity:1;stroke-width:0.5;" x1="263" x2="3036" y1="696" y2="696"/>
  <line id="Capline-S" style="fill:none;stroke:#27AAE1;opacity:1;stroke-width:0.5;" x1="263" x2="3036" y1="625.541" y2="625.541"/>
  <g id="H-reference" style="fill:#27AAE1;stroke:none;" transform="matrix(1 0 0 1 339 1126)">
   <path d="M 0.976562 0 L 3.66211 0 L 12.9883 -24.4629 L 45.7031 -24.4629 L 55.0781 0 L 57.7148 0 L 30.6152 -70.459 L 28.125 -70.459 Z M 29.2969 -67.1387 L 29.3945 -67.1387 L 44.873 -26.709 L 13.8672 -26.709 Z"/>
  </g>
  <line id="Baseline-M" style="fill:none;stroke:#27AAE1;opacity:1;stroke-width:0.5;" x1="263" x2="3036" y1="1126" y2="1126"/>
  <line id="Capline-M" style="fill:none;stroke:#27AAE1;opacity:1;stroke-width:0.5;" x1="263" x2="3036" y1="1055.54" y2="1055.54"/>
  <g id="H-reference" style="fill:#27AAE1;stroke:none;" transform="matrix(1 0 0 1 339 1556)">
   <path d="M 0.976562 0 L 3.66211 0 L 12.9883 -24.4629 L 45.7031 -24.4629 L 55.0781 0 L 57.7148 0 L 30.6152 -70.459 L 28.125 -70.459 Z M 29.2969 -67.1387 L 29.3945 -67.1387 L 44.873 -26.709 L 13.8672 -26.709 Z"/>
  </g>
  <line id="Baseline-L" style="fill:none;stroke:#27AAE1;opacity:1;stroke-width:0.5;" x1="263" x2="3036" y1="1556" y2="1556"/>
  <line id="Capline-L" style="fill:none;stroke:#27AAE1;opacity:1;stroke-width:0.5;" x1="263" x2="3036" y1="1485.54" y2="1485.54"/>
  <line id="left-margin" style="fill:none;stroke:#00AEEF;stroke-width:0.5;opacity:1.0;" x1="1394.06" x2="1394.06" y1="1030.79" y2="1150.12"/>
  <line id="right-margin" style="fill:none;stroke:#00AEEF;stroke-width:0.5;opacity:1.0;" x1="1505.63" x2="1505.63" y1="1030.79" y2="1150.12"/>
 </g>
 <g id="Symbols">
  <g id="Black-L" transform="matrix(1 0 0 1 2856.76 1556)">
   <path d="M 76.6602 -20.2148 C 81.6406 -20.2148 85.498 -24.2676 85.498 -28.9551 L 85.498 -87.7441 L 84.7168 -96.9727 L 87.207 -92.041 L 93.457 -85.3516 C 94.9219 -83.7891 96.9238 -82.8613 99.1211 -82.8613 C 102.979 -82.8613 106.641 -85.791 106.641 -90.0879 C 106.641 -92.2852 105.811 -93.8477 104.346 -95.3125 L 83.8379 -114.941 C 81.4941 -117.188 79.0527 -118.066 76.6602 -118.066 C 74.2676 -118.066 71.875 -117.188 69.5312 -114.941 L 48.9746 -95.3125 C 47.5098 -93.8477 46.6797 -92.2852 46.6797 -90.0879 C 46.6797 -85.791 50.3418 -82.8613 54.1992 -82.8613 C 56.3965 -82.8613 58.3984 -83.7891 59.8633 -85.3516 L 66.1621 -92.041 L 68.6523 -96.9727 L 67.8711 -87.7441 L 67.8711 -28.9551 C 67.8711 -24.2676 71.6797 -20.2148 76.6602 -20.2148 Z M 39.9902 33.1055 L 113.33 33.1055 C 128.564 33.1055 137.207 24.5117 137.207 9.32617 L 137.207 -49.5605 C 137.207 -64.7461 128.564 -73.3398 113.33 -73.3398 L 97.9492 -73.3398 L 97.9492 -53.125 L 110.596 -53.125 C 114.795 -53.125 116.992 -51.2207 116.992 -46.6797 L 116.992 6.44531 C 116.992 10.9863 114.795 12.8906 110.596 12.8906 L 42.6758 12.8906 C 38.4766 12.8906 36.3281 10.9863 36.3281 6.44531 L 36.3281 -46.6797 C 36.3281 -51.2207 38.4766 -53.125 42.6758 -53.125 L 55.7617 -53.125 L 55.7617 -73.3398 L 39.9902 -73.3398 C 24.7559 -73.3398 16.0645 -64.7461 16.0645 -49.5605 L 16.0645 9.32617 C 16.0645 24.5117 24.7559 33.1055 39.9902 33.1055 Z"/>
  </g>
  <g id="Heavy-L" transform="matrix(1 0 0 1 2561.32 1556)">
   <path d="M 75.3906 -19.7266 C 79.7363 -19.7266 83.1543 -23.291 83.1543 -27.3926 L 83.1543 -88.0859 L 82.4707 -97.2656 L 85.5957 -92.2852 L 92.8223 -84.6191 C 94.0918 -83.2031 95.8984 -82.4219 97.8027 -82.4219 C 101.27 -82.4219 104.492 -85.0098 104.492 -88.8184 C 104.492 -90.7715 103.76 -92.1387 102.441 -93.457 L 81.5918 -113.477 C 79.541 -115.479 77.4902 -116.211 75.3906 -116.211 C 73.291 -116.211 71.2402 -115.479 69.2383 -113.477 L 48.3887 -93.457 C 47.0703 -92.1387 46.3379 -90.7715 46.3379 -88.8184 C 46.3379 -85.0098 49.5117 -82.4219 52.9785 -82.4219 C 54.8828 -82.4219 56.6895 -83.2031 58.0078 -84.6191 L 65.2344 -92.2852 L 68.3594 -97.2656 L 67.6758 -88.0859 L 67.6758 -27.3926 C 67.6758 -23.291 71.0449 -19.7266 75.3906 -19.7266 Z M 38.8184 32.5195 L 111.914 32.5195 C 126.562 32.5195 134.668 24.4141 134.668 9.91211 L 134.668 -50.1465 C 134.668 -64.6484 126.562 -72.7539 111.914 -72.7539 L 95.9961 -72.7539 L 95.9961 -55.2734 L 109.814 -55.2734 C 114.6 -55.2734 117.188 -52.9785 117.188 -47.8516 L 117.188 7.61719 C 117.188 12.7441 114.6 15.0391 109.814 15.0391 L 40.918 15.0391 C 36.084 15.0391 33.5938 12.7441 33.5938 7.61719 L 33.5938 -47.8516 C 33.5938 -52.9785 36.084 -55.2734 40.918 -55.2734 L 55.127 -55.2734 L 55.127 -72.7539 L 38.8184 -72.7539 C 24.2188 -72.7539 16.0645 -64.6973 16.0645 -50.1465 L 16.0645 9.91211 C 16.0645 24.4629 24.2188 32.5195 38.8184 32.5195 Z"/>
  </g>
  <g id="Bold-L" transform="matrix(1 0 0 1 2266 1556)">
   <path d="M 73.9746 -19.2383 C 77.6367 -19.2383 80.5664 -22.2168 80.5664 -25.6836 L 80.5664 -88.4277 L 79.9805 -97.6562 L 83.7891 -92.5293 L 92.0898 -83.7891 C 93.1641 -82.5684 94.7266 -81.8848 96.3867 -81.8848 C 99.4141 -81.8848 102.1 -84.1797 102.1 -87.4023 C 102.1 -89.0625 101.465 -90.2832 100.293 -91.4551 L 79.1016 -111.865 C 77.4414 -113.574 75.7324 -114.16 73.9746 -114.16 C 72.2656 -114.16 70.5566 -113.574 68.8965 -111.865 L 47.6562 -91.4551 C 46.5332 -90.2832 45.8984 -89.0625 45.8984 -87.4023 C 45.8984 -84.1797 48.5352 -81.8848 51.5625 -81.8848 C 53.2227 -81.8848 54.7852 -82.5684 55.9082 -83.7891 L 64.1602 -92.5293 L 68.0176 -97.6562 L 67.4316 -88.4277 L 67.4316 -25.6836 C 67.4316 -22.2168 70.3613 -19.2383 73.9746 -19.2383 Z M 37.5 31.8848 L 110.4 31.8848 C 124.365 31.8848 131.885 24.3652 131.885 10.5469 L 131.885 -50.7812 C 131.885 -64.5996 124.365 -72.1191 110.4 -72.1191 L 93.8477 -72.1191 L 93.8477 -57.666 L 108.984 -57.666 C 114.404 -57.666 117.432 -54.9316 117.432 -49.1211 L 117.432 8.88672 C 117.432 14.6484 114.404 17.4316 108.984 17.4316 L 38.9648 17.4316 C 33.4473 17.4316 30.5176 14.6484 30.5176 8.88672 L 30.5176 -49.1211 C 30.5176 -54.9316 33.4473 -57.666 38.9648 -57.666 L 54.3457 -57.666 L 54.3457 -72.1191 L 37.5 -72.1191 C 23.6328 -72.1191 16.0645 -64.6484 16.0645 -50.7812 L 16.0645 10.5469 C 16.0645 24.4141 23.6328 31.8848 37.5 31.8848 Z"/>
  </g>
  <g id="Semibold-L" transform="matrix(1 0 0 1 1970.27 1556)">
   <path d="M 73.0469 -18.8477 C 76.1719 -18.8477 78.7598 -21.4355 78.7598 -24.4629 L 78.7598 -88.6719 L 78.2715 -97.9004 L 82.5684 -92.7246 L 91.5527 -83.252 C 92.5293 -82.1289 93.9453 -81.543 95.3613 -81.543 C 98.0957 -81.543 100.439 -83.5938 100.439 -86.4258 C 100.439 -87.9395 99.8535 -89.0137 98.8281 -90.0391 L 77.3926 -110.791 C 75.9277 -112.207 74.5117 -112.744 73.0469 -112.744 C 71.5332 -112.744 70.1172 -112.207 68.6523 -110.791 L 47.2168 -90.0391 C 46.1914 -89.0137 45.6055 -87.9395 45.6055 -86.4258 C 45.6055 -83.5938 47.9004 -81.543 50.6348 -81.543 C 52.0508 -81.543 53.4668 -82.1289 54.4434 -83.252 L 63.4766 -92.7246 L 67.7734 -97.9004 L 67.2852 -88.6719 L 67.2852 -24.4629 C 67.2852 -21.4355 69.873 -18.8477 73.0469 -18.8477 Z M 36.6211 31.3965 L 109.326 31.3965 C 122.803 31.3965 129.932 24.3164 129.932 10.9863 L 129.932 -51.2695 C 129.932 -64.5508 122.803 -71.6797 109.326 -71.6797 L 92.334 -71.6797 L 92.334 -59.3262 L 108.35 -59.3262 C 114.258 -59.3262 117.578 -56.25 117.578 -50.0488 L 117.578 9.76562 C 117.578 16.0156 114.258 19.043 108.35 19.043 L 37.5977 19.043 C 31.6406 19.043 28.418 16.0156 28.418 9.76562 L 28.418 -50.0488 C 28.418 -56.25 31.6406 -59.3262 37.5977 -59.3262 L 53.8574 -59.3262 L 53.8574 -71.6797 L 36.6211 -71.6797 C 23.1934 -71.6797 16.0645 -64.5996 16.0645 -51.2695 L 16.0645 10.9863 C 16.0645 24.3652 23.1934 31.3965 36.6211 31.3965 Z"/>
  </g>
  <g id="Medium-L" transform="matrix(1 0 0 1 1674.31 1556)">
   <path d="M 72.2656 -18.5547 C 75.0977 -18.5547 77.3926 -20.8496 77.3926 -23.584 L 77.3926 -88.8672 L 76.9531 -98.0957 L 81.6406 -92.8711 L 91.1621 -82.8125 C 92.0898 -81.8359 93.3594 -81.2988 94.5801 -81.2988 C 97.1191 -81.2988 99.1699 -83.1543 99.1699 -85.6934 C 99.1699 -87.0605 98.6328 -88.0371 97.7051 -88.9648 L 76.123 -109.961 C 74.8047 -111.23 73.6328 -111.67 72.2656 -111.67 C 70.9473 -111.67 69.7266 -111.23 68.457 -109.961 L 46.8262 -88.9648 C 45.8984 -88.0371 45.3613 -87.0605 45.3613 -85.6934 C 45.3613 -83.1543 47.3633 -81.2988 49.9023 -81.2988 C 51.1719 -81.2988 52.4902 -81.8359 53.3691 -82.8125 L 62.9395 -92.8711 L 67.5781 -98.0957 L 67.1875 -88.8672 L 67.1875 -23.584 C 67.1875 -20.8496 69.4824 -18.5547 72.2656 -18.5547 Z M 35.9375 31.0547 L 108.545 31.0547 C 121.68 31.0547 128.418 24.2676 128.418 11.3281 L 128.418 -51.6113 C 128.418 -64.5508 121.68 -71.3379 108.545 -71.3379 L 91.2109 -71.3379 L 91.2109 -60.5957 L 107.91 -60.5957 C 114.16 -60.5957 117.725 -57.2754 117.725 -50.7324 L 117.725 10.4492 C 117.725 16.9922 114.16 20.3125 107.91 20.3125 L 36.5723 20.3125 C 30.2246 20.3125 26.8066 16.9922 26.8066 10.4492 L 26.8066 -50.7324 C 26.8066 -57.2754 30.2246 -60.5957 36.5723 -60.5957 L 53.4668 -60.5957 L 53.4668 -71.3379 L 35.9375 -71.3379 C 22.9004 -71.3379 16.0645 -64.5996 16.0645 -51.6113 L 16.0645 11.3281 C 16.0645 24.3164 22.9004 31.0547 35.9375 31.0547 Z"/>
  </g>
  <g id="Regular-L" transform="matrix(1 0 0 1 1378.56 1556)">
   <path d="M 71.3379 -18.2129 C 73.6328 -18.2129 75.5859 -20.1172 75.5859 -22.4121 L 75.5859 -89.0625 L 75.293 -98.3398 L 80.3711 -93.0176 L 90.6738 -82.2754 C 91.4551 -81.3965 92.5781 -80.957 93.6035 -80.957 C 95.8008 -80.957 97.5098 -82.5684 97.5098 -84.7656 C 97.5098 -85.8887 97.0703 -86.7676 96.2402 -87.5977 L 74.4141 -108.838 C 73.3398 -109.912 72.4121 -110.254 71.3379 -110.254 C 70.2148 -110.254 69.2871 -109.912 68.2129 -108.838 L 46.3867 -87.5977 C 45.5566 -86.7676 45.0684 -85.8887 45.0684 -84.7656 C 45.0684 -82.5684 46.7285 -80.957 48.9746 -80.957 C 50 -80.957 51.1719 -81.3965 51.9531 -82.2754 L 62.207 -93.0176 L 67.3828 -98.3398 L 67.041 -89.0625 L 67.041 -22.4121 C 67.041 -20.1172 68.9941 -18.2129 71.3379 -18.2129 Z M 35.0586 30.6152 L 107.52 30.6152 C 120.166 30.6152 126.514 24.2188 126.514 11.7676 L 126.514 -52.0508 C 126.514 -64.502 120.166 -70.8496 107.52 -70.8496 L 89.6973 -70.8496 L 89.6973 -62.207 L 107.324 -62.207 C 114.014 -62.207 117.871 -58.5938 117.871 -51.6113 L 117.871 11.3281 C 117.871 18.3105 114.014 21.9238 107.324 21.9238 L 35.2539 21.9238 C 28.418 21.9238 24.707 18.3105 24.707 11.3281 L 24.707 -51.6113 C 24.707 -58.5938 28.418 -62.207 35.2539 -62.207 L 52.9297 -62.207 L 52.9297 -70.8496 L 35.0586 -70.8496 C 22.4609 -70.8496 16.0645 -64.5508 16.0645 -52.0508 L 16.0645 11.7676 C 16.0645 24.2676 22.4609 30.6152 35.0586 30.6152 Z"/>
  </g>
  <g id="Light-L" transform="matrix(1 0 0 1 1082.77 1556)">
   <path d="M 70.4102 -18.3105 C 72.168 -18.3105 73.6816 -19.7754 73.6816 -21.5332 L 73.6816 -90.918 L 73.4375 -99.9023 L 79.7363 -93.457 L 91.0156 -81.8848 C 91.6016 -81.25 92.5293 -80.8594 93.3105 -80.8594 C 94.9707 -80.8594 96.2891 -82.1289 96.2891 -83.7891 C 96.2891 -84.668 95.9473 -85.3516 95.3125 -85.9863 L 72.7539 -108.203 C 71.9727 -108.984 71.2402 -109.277 70.4102 -109.277 C 69.5801 -109.277 68.7988 -108.984 68.0176 -108.203 L 45.4102 -85.9863 C 44.7754 -85.3516 44.4336 -84.668 44.4336 -83.7891 C 44.4336 -82.1289 45.7031 -80.8594 47.4121 -80.8594 C 48.1934 -80.8594 49.1211 -81.25 49.707 -81.8848 L 60.9863 -93.457 L 67.334 -99.9512 L 67.1387 -90.918 L 67.1387 -21.5332 C 67.1387 -19.7754 68.6035 -18.3105 70.4102 -18.3105 Z M 34.0332 29.7852 L 106.689 29.7852 C 118.555 29.7852 124.658 23.6328 124.658 11.9141 L 124.658 -53.2227 C 124.658 -64.9414 118.555 -71.0938 106.689 -71.0938 L 88.5254 -71.0938 L 88.5254 -64.4531 L 106.543 -64.4531 C 113.818 -64.4531 118.066 -60.5469 118.066 -52.8809 L 118.066 11.5723 C 118.066 19.2383 113.818 23.1445 106.543 23.1445 L 34.1797 23.1445 C 26.709 23.1445 22.7051 19.2383 22.7051 11.5723 L 22.7051 -52.8809 C 22.7051 -60.5469 26.709 -64.4531 34.1797 -64.4531 L 52.2949 -64.4531 L 52.2949 -71.0938 L 34.0332 -71.0938 C 22.168 -71.0938 16.0645 -65.0391 16.0645 -53.2227 L 16.0645 11.9141 C 16.0645 23.7305 22.168 29.7852 34.0332 29.7852 Z"/>
  </g>
  <g id="Thin-L" transform="matrix(1 0 0 1 787.282 1556)">
   <path d="M 69.1895 -18.4082 C 70.2637 -18.4082 71.1426 -19.2871 71.1426 -20.3613 L 71.1426 -93.3594 L 71.0449 -102.002 L 78.9062 -94.043 L 91.5039 -81.3965 C 91.8457 -81.0059 92.4316 -80.7617 92.9199 -80.7617 C 93.8477 -80.7617 94.6777 -81.5918 94.6777 -82.5684 C 94.6777 -83.0566 94.4824 -83.4473 94.0918 -83.8379 L 70.5566 -107.373 C 70.166 -107.812 69.6777 -108.008 69.1895 -108.008 C 68.7012 -108.008 68.2129 -107.812 67.7734 -107.373 L 44.1895 -83.8379 C 43.7988 -83.4473 43.6035 -83.0566 43.6035 -82.5684 C 43.6035 -81.5918 44.3848 -80.7617 45.3613 -80.7617 C 45.8496 -80.7617 46.4355 -81.0059 46.7773 -81.3965 L 59.375 -94.043 L 67.334 -102.1 L 67.2363 -93.3594 L 67.2363 -20.3613 C 67.2363 -19.2871 68.1152 -18.4082 69.1895 -18.4082 Z M 32.666 28.7109 L 105.615 28.7109 C 116.504 28.7109 122.217 22.8516 122.217 12.1094 L 122.217 -54.7852 C 122.217 -65.5273 116.504 -71.3867 105.615 -71.3867 L 87.0117 -71.3867 L 87.0117 -67.4316 L 105.469 -67.4316 C 113.574 -67.4316 118.311 -63.0859 118.311 -54.5898 L 118.311 11.9141 C 118.311 20.4102 113.574 24.7559 105.469 24.7559 L 32.8125 24.7559 C 24.4141 24.7559 19.9707 20.4102 19.9707 11.9141 L 19.9707 -54.5898 C 19.9707 -63.0859 24.4141 -67.4316 32.8125 -67.4316 L 51.416 -67.4316 L 51.416 -71.3867 L 32.666 -71.3867 C 21.7773 -71.3867 16.0645 -65.6738 16.0645 -54.7852 L 16.0645 12.1094 C 16.0645 22.998 21.7773 28.7109 32.666 28.7109 Z"/>
  </g>
  <g id="Ultralight-L" transform="matrix(1 0 0 1 491.205 1556)">
   <path d="M 68.5547 -18.5059 C 69.2383 -18.5059 69.8242 -19.0918 69.8242 -19.7754 L 69.8242 -94.5801 L 69.7754 -103.125 L 78.4668 -94.3848 L 91.748 -81.1523 C 91.9922 -80.9082 92.3828 -80.6641 92.7246 -80.6641 C 93.2617 -80.6641 93.8477 -81.2988 93.8477 -81.9336 C 93.8477 -82.2266 93.75 -82.4707 93.5059 -82.7637 L 69.4336 -106.982 C 69.1895 -107.178 68.8477 -107.324 68.5547 -107.324 C 68.2129 -107.324 67.9199 -107.178 67.6758 -106.982 L 43.5547 -82.7637 C 43.2617 -82.4707 43.1641 -82.2266 43.1641 -81.9336 C 43.1641 -81.2988 43.6523 -80.6641 44.2871 -80.6641 C 44.6289 -80.6641 45.0195 -80.9082 45.3125 -81.1523 L 58.5449 -94.3848 L 67.334 -103.174 L 67.2852 -94.5801 L 67.2852 -19.7754 C 67.2852 -19.0918 67.8223 -18.5059 68.5547 -18.5059 Z M 31.9824 28.1738 L 105.078 28.1738 C 115.43 28.1738 120.947 22.4609 120.947 12.207 L 120.947 -55.6152 C 120.947 -65.8203 115.43 -71.5332 105.078 -71.5332 L 86.2305 -71.5332 L 86.2305 -68.9941 L 104.883 -68.9941 C 113.477 -68.9941 118.408 -64.3555 118.408 -55.4688 L 118.408 12.1094 C 118.408 20.9961 113.477 25.5859 104.883 25.5859 L 32.1289 25.5859 C 23.1934 25.5859 18.6035 20.9961 18.6035 12.1094 L 18.6035 -55.4688 C 18.6035 -64.3555 23.1934 -68.9941 32.1289 -68.9941 L 50.9766 -68.9941 L 50.9766 -71.5332 L 31.9824 -71.5332 C 21.582 -71.5332 16.0645 -65.9668 16.0645 -55.6152 L 16.0645 12.207 C 16.0645 22.6074 21.582 28.1738 31.9824 28.1738 Z"/>
  </g>
  <g id="Black-M" transform="matrix(1 0 0 1 2872.8 1126)">
   <path d="M 60.6445 -24.2676 C 65.0391 -24.2676 68.3594 -27.8809 68.3594 -31.9824 L 68.3594 -76.5137 L 67.6758 -83.4473 L 69.4336 -79.1992 L 73.5352 -74.8535 C 74.8047 -73.5352 76.4648 -72.7051 78.418 -72.7051 C 81.6406 -72.7051 84.9121 -75.1953 84.9121 -78.9062 C 84.9121 -80.8105 84.2285 -82.1289 82.959 -83.3984 L 67.041 -98.584 C 64.9902 -100.586 62.793 -101.367 60.6445 -101.367 C 58.4961 -101.367 56.2988 -100.586 54.1992 -98.584 L 38.3301 -83.3984 C 37.0605 -82.1289 36.377 -80.8105 36.377 -78.9062 C 36.377 -75.1953 39.6484 -72.7051 42.8223 -72.7051 C 44.7754 -72.7051 46.4844 -73.5352 47.7539 -74.8535 L 51.8555 -79.1992 L 53.5645 -83.4473 L 52.8809 -76.5137 L 52.8809 -31.9824 C 52.8809 -27.8809 56.2012 -24.2676 60.6445 -24.2676 Z M 31.9824 18.1152 L 89.209 18.1152 C 101.465 18.1152 108.74 10.8398 108.74 -1.41602 L 108.74 -46.1426 C 108.74 -58.3984 101.465 -65.6738 89.209 -65.6738 L 77.9297 -65.6738 L 77.9297 -47.4121 L 86.2793 -47.4121 C 89.1113 -47.4121 90.4785 -46.2891 90.4785 -43.2129 L 90.4785 -4.3457 C 90.4785 -1.26953 89.1113 -0.146484 86.2793 -0.146484 L 34.9121 -0.146484 C 32.0801 -0.146484 30.7617 -1.26953 30.7617 -4.3457 L 30.7617 -43.2129 C 30.7617 -46.2891 32.0801 -47.4121 34.9121 -47.4121 L 43.7988 -47.4121 L 43.7988 -65.6738 L 31.9824 -65.6738 C 19.7266 -65.6738 12.4512 -58.3984 12.4512 -46.1426 L 12.4512 -1.41602 C 12.4512 10.8398 19.7266 18.1152 31.9824 18.1152 Z"/>
  </g>
  <g id="Heavy-M" transform="matrix(1 0 0 1 2577.22 1126)">
   <path d="M 59.4727 -23.7305 C 63.3789 -23.7305 66.3086 -26.9043 66.3086 -30.5176 L 66.3086 -76.3672 L 65.7227 -83.3984 L 67.8223 -79.3457 L 72.7051 -74.1211 C 73.8281 -72.9492 75.3906 -72.2168 77.0996 -72.2168 C 79.9805 -72.2168 82.8613 -74.5117 82.8613 -77.7832 C 82.8613 -79.4922 82.2266 -80.6641 81.1035 -81.7871 L 65.0879 -97.168 C 63.2324 -98.9746 61.377 -99.6094 59.4727 -99.6094 C 57.6172 -99.6094 55.7129 -98.9746 53.9062 -97.168 L 37.8906 -81.7871 C 36.7676 -80.6641 36.1328 -79.4922 36.1328 -77.7832 C 36.1328 -74.5117 38.9648 -72.2168 41.8945 -72.2168 C 43.6035 -72.2168 45.166 -72.9492 46.2891 -74.1211 L 51.1719 -79.3457 L 53.2715 -83.3984 L 52.6855 -76.3672 L 52.6855 -30.5176 C 52.6855 -26.9043 55.6152 -23.7305 59.4727 -23.7305 Z M 31.0059 17.6758 L 87.9395 17.6758 C 99.707 17.6758 106.494 10.9375 106.494 -0.830078 L 106.494 -46.4844 C 106.494 -58.252 99.707 -64.9902 87.9395 -64.9902 L 76.123 -64.9902 L 76.123 -49.1699 L 85.6934 -49.1699 C 88.9648 -49.1699 90.625 -47.7051 90.625 -44.1406 L 90.625 -3.125 C 90.625 0.390625 88.9648 1.85547 85.6934 1.85547 L 33.252 1.85547 C 29.9316 1.85547 28.2715 0.390625 28.2715 -3.125 L 28.2715 -44.1406 C 28.2715 -47.7051 29.9316 -49.1699 33.252 -49.1699 L 43.2129 -49.1699 L 43.2129 -64.9902 L 31.0059 -64.9902 C 19.2383 -64.9902 12.4512 -58.252 12.4512 -46.4844 L 12.4512 -0.830078 C 12.4512 10.9375 19.2383 17.6758 31.0059 17.6758 Z"/>
  </g>
  <g id="Bold-M" transform="matrix(1 0 0 1 2281.8 1126)">
   <path d="M 58.2031 -23.1445 C 61.4746 -23.1445 64.0137 -25.7812 64.0137 -28.8574 L 64.0137 -76.2207 L 63.5254 -83.3496 L 66.0645 -79.4922 L 71.7773 -73.3398 C 72.7539 -72.3145 74.1211 -71.7285 75.5859 -71.7285 C 78.1738 -71.7285 80.6152 -73.6816 80.6152 -76.5137 C 80.6152 -77.9785 80.0293 -79.0527 79.0527 -80.0293 L 62.8418 -95.6055 C 61.3281 -97.1191 59.7656 -97.6562 58.2031 -97.6562 C 56.6406 -97.6562 55.127 -97.1191 53.6133 -95.6055 L 37.4023 -80.0293 C 36.377 -79.0527 35.8398 -77.9785 35.8398 -76.5137 C 35.8398 -73.6816 38.2324 -71.7285 40.8203 -71.7285 C 42.2852 -71.7285 43.6523 -72.3145 44.6289 -73.3398 L 50.3906 -79.4922 L 52.9297 -83.3496 L 52.3926 -76.2207 L 52.3926 -28.8574 C 52.3926 -25.7812 54.9805 -23.1445 58.2031 -23.1445 Z M 29.8828 17.1875 L 86.5234 17.1875 C 97.7539 17.1875 103.906 10.9863 103.906 -0.146484 L 103.906 -46.875 C 103.906 -58.0078 97.7539 -64.209 86.5234 -64.209 L 74.0723 -64.209 L 74.0723 -51.123 L 84.9609 -51.123 C 88.8184 -51.123 90.8691 -49.2676 90.8691 -45.2148 L 90.8691 -1.80664 C 90.8691 2.24609 88.8184 4.10156 84.9609 4.10156 L 31.3965 4.10156 C 27.5391 4.10156 25.5371 2.24609 25.5371 -1.80664 L 25.5371 -45.2148 C 25.5371 -49.2676 27.5391 -51.123 31.3965 -51.123 L 42.5781 -51.123 L 42.5781 -64.209 L 29.8828 -64.209 C 18.6523 -64.209 12.4512 -58.0566 12.4512 -46.875 L 12.4512 -0.146484 C 12.4512 11.0352 18.6523 17.1875 29.8828 17.1875 Z"/>
  </g>
  <g id="Semibold-M" transform="matrix(1 0 0 1 1985.97 1126)">
   <path d="M 57.3242 -22.7051 C 60.1562 -22.7051 62.4512 -25.0488 62.4512 -27.7344 L 62.4512 -76.123 L 62.0117 -83.3008 L 64.7949 -79.5898 L 71.1914 -72.8027 C 72.0215 -71.875 73.291 -71.3379 74.5117 -71.3379 C 76.9531 -71.3379 79.0039 -73.1445 79.0039 -75.6836 C 79.0039 -76.9531 78.5156 -77.9297 77.6367 -78.8574 L 61.3281 -94.5312 C 59.9609 -95.8496 58.6914 -96.2891 57.3242 -96.2891 C 56.0059 -96.2891 54.6875 -95.8496 53.3691 -94.5312 L 37.0605 -78.8574 C 36.1328 -77.9297 35.6445 -76.9531 35.6445 -75.6836 C 35.6445 -73.1445 37.6953 -71.3379 40.0879 -71.3379 C 41.3574 -71.3379 42.627 -71.875 43.5059 -72.8027 L 49.8535 -79.5898 L 52.6855 -83.3008 L 52.2461 -76.123 L 52.2461 -27.7344 C 52.2461 -25.0488 54.4922 -22.7051 57.3242 -22.7051 Z M 29.1016 16.8457 L 85.498 16.8457 C 96.3867 16.8457 102.148 11.084 102.148 0.292969 L 102.148 -47.1191 C 102.148 -57.9102 96.3867 -63.6719 85.498 -63.6719 L 72.6562 -63.6719 L 72.6562 -52.4902 L 84.4727 -52.4902 C 88.6719 -52.4902 91.0156 -50.3418 91.0156 -45.8984 L 91.0156 -0.878906 C 91.0156 3.51562 88.6719 5.66406 84.4727 5.66406 L 30.127 5.66406 C 25.8789 5.66406 23.6328 3.51562 23.6328 -0.878906 L 23.6328 -45.8984 C 23.6328 -50.3418 25.8789 -52.4902 30.127 -52.4902 L 42.1387 -52.4902 L 42.1387 -63.6719 L 29.1016 -63.6719 C 18.2617 -63.6719 12.4512 -57.9102 12.4512 -47.1191 L 12.4512 0.292969 C 12.4512 11.084 18.2617 16.8457 29.1016 16.8457 Z"/>
  </g>
  <g id="Medium-M" transform="matrix(1 0 0 1 1689.91 1126)">
   <path d="M 56.6895 -22.4121 C 59.1797 -22.4121 61.2305 -24.4629 61.2305 -26.9043 L 61.2305 -76.0254 L 60.8887 -83.252 L 63.8672 -79.6875 L 70.7031 -72.4121 C 71.4844 -71.5332 72.6074 -71.0938 73.7305 -71.0938 C 75.9766 -71.0938 77.832 -72.7051 77.832 -75 C 77.832 -76.2207 77.3438 -77.0996 76.5137 -77.9297 L 60.1562 -93.7012 C 58.9844 -94.873 57.8613 -95.2637 56.6895 -95.2637 C 55.4688 -95.2637 54.3945 -94.873 53.2227 -93.7012 L 36.8164 -77.9297 C 35.9863 -77.0996 35.498 -76.2207 35.498 -75 C 35.498 -72.7051 37.3047 -71.0938 39.5508 -71.0938 C 40.6738 -71.0938 41.8457 -71.5332 42.627 -72.4121 L 49.4629 -79.6875 L 52.4902 -83.3008 L 52.0996 -76.0254 L 52.0996 -26.9043 C 52.0996 -24.4629 54.1504 -22.4121 56.6895 -22.4121 Z M 28.5156 16.6016 L 84.7656 16.6016 C 95.3613 16.6016 100.83 11.1328 100.83 0.683594 L 100.83 -47.3145 C 100.83 -57.7637 95.3613 -63.2324 84.7656 -63.2324 L 71.582 -63.2324 L 71.582 -53.5156 L 84.1309 -53.5156 C 88.5742 -53.5156 91.1133 -51.1719 91.1133 -46.4844 L 91.1133 -0.195312 C 91.1133 4.49219 88.5742 6.83594 84.1309 6.83594 L 29.1504 6.83594 C 24.6582 6.83594 22.168 4.49219 22.168 -0.195312 L 22.168 -46.4844 C 22.168 -51.1719 24.6582 -53.5156 29.1504 -53.5156 L 41.8457 -53.5156 L 41.8457 -63.2324 L 28.5156 -63.2324 C 17.9688 -63.2324 12.4512 -57.8125 12.4512 -47.3145 L 12.4512 0.683594 C 12.4512 11.1328 17.9688 16.6016 28.5156 16.6016 Z"/>
  </g>
  <g id="Regular-M" transform="matrix(1 0 0 1 1394.06 1126)">
   <path d="M 55.8105 -21.9727 C 57.9102 -21.9727 59.668 -23.7305 59.668 -25.7812 L 59.668 -75.9277 L 59.375 -83.252 L 62.6953 -79.7852 L 70.0684 -71.875 C 70.752 -71.0938 71.7773 -70.7031 72.7051 -70.7031 C 74.7559 -70.7031 76.2695 -72.168 76.2695 -74.1699 C 76.2695 -75.1953 75.8789 -75.9766 75.1465 -76.709 L 58.6426 -92.627 C 57.666 -93.6035 56.7871 -93.9453 55.8105 -93.9453 C 54.834 -93.9453 53.9551 -93.6035 52.9785 -92.627 L 36.4746 -76.709 C 35.7422 -75.9766 35.3027 -75.1953 35.3027 -74.1699 C 35.3027 -72.168 36.8164 -70.7031 38.8184 -70.7031 C 39.7949 -70.7031 40.8203 -71.0938 41.5039 -71.875 L 48.9258 -79.7852 L 52.2461 -83.252 L 51.9043 -75.9277 L 51.9043 -25.7812 C 51.9043 -23.7305 53.7109 -21.9727 55.8105 -21.9727 Z M 27.7832 16.2598 L 83.7891 16.2598 C 93.9941 16.2598 99.1211 11.1816 99.1211 1.12305 L 99.1211 -47.6074 C 99.1211 -57.666 93.9941 -62.7441 83.7891 -62.7441 L 70.166 -62.7441 L 70.166 -54.8828 L 83.6426 -54.8828 C 88.4766 -54.8828 91.2598 -52.2461 91.2598 -47.168 L 91.2598 0.683594 C 91.2598 5.76172 88.4766 8.39844 83.6426 8.39844 L 27.8809 8.39844 C 22.998 8.39844 20.3125 5.76172 20.3125 0.683594 L 20.3125 -47.168 C 20.3125 -52.2461 22.998 -54.8828 27.8809 -54.8828 L 41.4062 -54.8828 L 41.4062 -62.7441 L 27.7832 -62.7441 C 17.5781 -62.7441 12.4512 -57.666 12.4512 -47.6074 L 12.4512 1.12305 C 12.4512 11.1816 17.5781 16.2598 27.7832 16.2598 Z"/>
  </g>
  <g id="Light-M" transform="matrix(1 0 0 1 1098.18 1126)">
   <path d="M 54.9805 -22.0703 C 56.5918 -22.0703 57.959 -23.3887 57.959 -25 L 57.959 -77.5879 L 57.7637 -84.668 L 62.1094 -80.1758 L 70.4102 -71.5332 C 70.9473 -70.9473 71.7285 -70.6543 72.4609 -70.6543 C 73.9746 -70.6543 75.1953 -71.7773 75.1953 -73.291 C 75.1953 -74.1211 74.8535 -74.707 74.3164 -75.293 L 57.1289 -92.0898 C 56.3965 -92.8223 55.7617 -93.0664 54.9805 -93.0664 C 54.1992 -93.0664 53.5645 -92.8223 52.832 -92.0898 L 35.6445 -75.293 C 35.0586 -74.707 34.7168 -74.1211 34.7168 -73.291 C 34.7168 -71.7773 35.8887 -70.6543 37.4512 -70.6543 C 38.1836 -70.6543 39.0137 -70.9473 39.5508 -71.5332 L 47.8516 -80.1758 L 52.1973 -84.668 L 52.002 -77.5879 L 52.002 -25 C 52.002 -23.3887 53.3691 -22.0703 54.9805 -22.0703 Z M 26.8555 15.5273 L 83.0566 15.5273 C 92.5781 15.5273 97.4609 10.6445 97.4609 1.26953 L 97.4609 -48.6328 C 97.4609 -58.0566 92.5781 -62.9395 83.0566 -62.9395 L 69.1406 -62.9395 L 69.1406 -56.8848 L 82.9102 -56.8848 C 88.3301 -56.8848 91.4062 -53.9551 91.4062 -48.3398 L 91.4062 0.927734 C 91.4062 6.5918 88.3301 9.47266 82.9102 9.47266 L 26.9531 9.47266 C 21.4844 9.47266 18.5059 6.5918 18.5059 0.927734 L 18.5059 -48.3398 C 18.5059 -53.9551 21.4844 -56.8848 26.9531 -56.8848 L 40.8203 -56.8848 L 40.8203 -62.9395 L 26.8555 -62.9395 C 17.334 -62.9395 12.4512 -58.1055 12.4512 -48.6328 L 12.4512 1.26953 C 12.4512 10.6934 17.334 15.5273 26.8555 15.5273 Z"/>
  </g>
  <g id="Thin-M" transform="matrix(1 0 0 1 802.565 1126)">
   <path d="M 53.9062 -22.168 C 54.8828 -22.168 55.6641 -22.998 55.6641 -23.9746 L 55.6641 -79.7363 L 55.5664 -86.5234 L 61.3281 -80.7129 L 70.8008 -71.0938 C 71.1426 -70.752 71.6797 -70.5078 72.1191 -70.5078 C 72.998 -70.5078 73.7305 -71.2891 73.7305 -72.168 C 73.7305 -72.6562 73.5352 -72.998 73.1934 -73.3887 L 55.1758 -91.3086 C 54.7852 -91.748 54.3457 -91.8945 53.9062 -91.8945 C 53.418 -91.8945 52.9785 -91.748 52.5879 -91.3086 L 34.5215 -73.3887 C 34.1797 -72.998 33.9844 -72.6562 33.9844 -72.168 C 33.9844 -71.2891 34.668 -70.5078 35.5957 -70.5078 C 36.0352 -70.5078 36.5723 -70.752 36.9141 -71.0938 L 46.3867 -80.7129 L 52.1973 -86.5723 L 52.0996 -79.7363 L 52.0996 -23.9746 C 52.0996 -22.998 52.8809 -22.168 53.9062 -22.168 Z M 25.6348 14.5508 L 82.0801 14.5508 C 90.7227 14.5508 95.2637 9.96094 95.2637 1.41602 L 95.2637 -50.0488 C 95.2637 -58.5938 90.7227 -63.1836 82.0801 -63.1836 L 67.7734 -63.1836 L 67.7734 -59.5703 L 81.9824 -59.5703 C 88.0859 -59.5703 91.6016 -56.25 91.6016 -49.8535 L 91.6016 1.2207 C 91.6016 7.61719 88.0859 10.9375 81.9824 10.9375 L 25.7324 10.9375 C 19.3848 10.9375 16.0645 7.61719 16.0645 1.2207 L 16.0645 -49.8535 C 16.0645 -56.25 19.3848 -59.5703 25.7324 -59.5703 L 40.0391 -59.5703 L 40.0391 -63.1836 L 25.6348 -63.1836 C 16.9922 -63.1836 12.4512 -58.6914 12.4512 -50.0488 L 12.4512 1.41602 C 12.4512 10.0586 16.9922 14.5508 25.6348 14.5508 Z"/>
  </g>
  <g id="Ultralight-M" transform="matrix(1 0 0 1 506.415 1126)">
   <path d="M 53.3203 -22.2168 C 54.0039 -22.2168 54.541 -22.8027 54.541 -23.4375 L 54.541 -80.8594 L 54.4434 -87.5 L 60.9375 -80.957 L 71.0449 -70.8984 C 71.2402 -70.6543 71.6309 -70.459 71.9238 -70.459 C 72.4609 -70.459 72.998 -70.9961 72.998 -71.6309 C 72.998 -71.9238 72.9004 -72.168 72.6562 -72.4121 L 54.1504 -90.9668 C 53.9062 -91.1621 53.6133 -91.3086 53.3203 -91.3086 C 53.0273 -91.3086 52.7344 -91.1621 52.4902 -90.9668 L 33.9355 -72.4121 C 33.6914 -72.168 33.5938 -71.9238 33.5938 -71.6309 C 33.5938 -70.9961 34.082 -70.459 34.668 -70.459 C 34.9609 -70.459 35.3027 -70.6543 35.5469 -70.8984 L 45.6543 -80.957 L 52.1973 -87.5488 L 52.1484 -80.8594 L 52.1484 -23.4375 C 52.1484 -22.8027 52.6855 -22.2168 53.3203 -22.2168 Z M 25 14.0625 L 81.5918 14.0625 C 89.7949 14.0625 94.1406 9.57031 94.1406 1.51367 L 94.1406 -50.7812 C 94.1406 -58.8379 89.7949 -63.3301 81.5918 -63.3301 L 67.041 -63.3301 L 67.041 -60.9375 L 81.4453 -60.9375 C 87.9883 -60.9375 91.748 -57.4219 91.748 -50.6348 L 91.748 1.41602 C 91.748 8.1543 87.9883 11.6699 81.4453 11.6699 L 25.0977 11.6699 C 18.3594 11.6699 14.8438 8.1543 14.8438 1.41602 L 14.8438 -50.6348 C 14.8438 -57.4219 18.3594 -60.9375 25.0977 -60.9375 L 39.6484 -60.9375 L 39.6484 -63.3301 L 25 -63.3301 C 16.7969 -63.3301 12.4512 -58.9844 12.4512 -50.7812 L 12.4512 1.51367 C 12.4512 9.7168 16.7969 14.0625 25 14.0625 Z"/>
  </g>
  <g id="Black-S" transform="matrix(1 0 0 1 2885.99 696)">
   <path d="M 47.4121 -26.6113 C 50.8301 -26.6113 53.418 -29.3945 53.418 -32.5684 L 53.418 -67.5293 L 52.8809 -72.998 L 54.248 -69.6777 L 57.5195 -66.2109 C 58.4961 -65.1855 59.8145 -64.5508 61.3281 -64.5508 C 63.8184 -64.5508 66.3574 -66.5039 66.3574 -69.3848 C 66.3574 -70.8496 65.8203 -71.875 64.8438 -72.8516 L 52.3926 -84.7656 C 50.7812 -86.3281 49.0723 -86.9141 47.4121 -86.9141 C 45.752 -86.9141 44.043 -86.3281 42.4316 -84.7656 L 29.9805 -72.8516 C 29.0039 -71.875 28.4668 -70.8496 28.4668 -69.3848 C 28.4668 -66.5039 31.0059 -64.5508 33.4961 -64.5508 C 35.0098 -64.5508 36.3281 -65.1855 37.3047 -66.2109 L 40.5762 -69.6777 L 41.9434 -72.998 L 41.4062 -67.5293 L 41.4062 -32.5684 C 41.4062 -29.3945 43.9941 -26.6113 47.4121 -26.6113 Z M 25 6.54297 L 69.8242 6.54297 C 79.3945 6.54297 85.0586 0.878906 85.0586 -8.69141 L 85.0586 -43.7988 C 85.0586 -53.3691 79.3945 -59.0332 69.8242 -59.0332 L 60.9375 -59.0332 L 60.9375 -44.873 L 67.5781 -44.873 C 69.8242 -44.873 70.8984 -43.9941 70.8984 -41.5527 L 70.8984 -10.9375 C 70.8984 -8.49609 69.8242 -7.61719 67.5781 -7.61719 L 27.2461 -7.61719 C 25 -7.61719 23.9258 -8.49609 23.9258 -10.9375 L 23.9258 -41.5527 C 23.9258 -43.9941 25 -44.873 27.2461 -44.873 L 34.2773 -44.873 L 34.2773 -59.0332 L 25 -59.0332 C 15.4297 -59.0332 9.76562 -53.3691 9.76562 -43.7988 L 9.76562 -8.69141 C 9.76562 0.878906 15.4297 6.54297 25 6.54297 Z"/>
  </g>
  <g id="Heavy-S" transform="matrix(1 0 0 1 2590.06 696)">
   <path d="M 46.6309 -26.1719 C 49.707 -26.1719 52.0508 -28.6621 52.0508 -31.543 L 52.0508 -67.2363 L 51.5625 -72.8027 L 53.0762 -69.7266 L 56.8848 -65.7227 C 57.7637 -64.7461 58.9844 -64.209 60.3516 -64.209 C 62.6465 -64.209 64.9414 -66.0156 64.9414 -68.6035 C 64.9414 -69.9707 64.4043 -70.8984 63.5254 -71.8262 L 51.0254 -83.7402 C 49.6094 -85.1562 48.0957 -85.6934 46.6309 -85.6934 C 45.166 -85.6934 43.6523 -85.1562 42.2363 -83.7402 L 29.7363 -71.8262 C 28.8574 -70.8984 28.3203 -69.9707 28.3203 -68.6035 C 28.3203 -66.0156 30.6152 -64.209 32.9102 -64.209 C 34.2773 -64.209 35.498 -64.7461 36.4258 -65.7227 L 40.1855 -69.7266 L 41.6992 -72.8027 L 41.2109 -67.2363 L 41.2109 -31.543 C 41.2109 -28.6621 43.5547 -26.1719 46.6309 -26.1719 Z M 24.3652 6.29883 L 68.9453 6.29883 C 78.2227 6.29883 83.4961 0.976562 83.4961 -8.25195 L 83.4961 -43.9453 C 83.4961 -53.1738 78.2227 -58.4961 68.9453 -58.4961 L 59.668 -58.4961 L 59.668 -45.9961 L 67.1875 -45.9961 C 69.7266 -45.9961 70.9961 -44.873 70.9961 -42.1387 L 70.9961 -10.0586 C 70.9961 -7.32422 69.7266 -6.20117 67.1875 -6.20117 L 26.0742 -6.20117 C 23.5352 -6.20117 22.2656 -7.32422 22.2656 -10.0586 L 22.2656 -42.1387 C 22.2656 -44.873 23.5352 -45.9961 26.0742 -45.9961 L 33.8867 -45.9961 L 33.8867 -58.4961 L 24.3652 -58.4961 C 15.0879 -58.4961 9.76562 -53.1738 9.76562 -43.9453 L 9.76562 -8.25195 C 9.76562 0.976562 15.0879 6.29883 24.3652 6.29883 Z"/>
  </g>
  <g id="Bold-S" transform="matrix(1 0 0 1 2294.23 696)">
   <path d="M 45.752 -25.7324 C 48.3887 -25.7324 50.4883 -27.8809 50.4883 -30.3711 L 50.4883 -66.9434 L 50.0977 -72.5586 L 51.8066 -69.8242 L 56.1523 -65.1367 C 56.9336 -64.3066 58.0078 -63.8184 59.2285 -63.8184 C 61.377 -63.8184 63.3301 -65.4297 63.3301 -67.7734 C 63.3301 -68.9453 62.8418 -69.8242 62.0605 -70.6543 L 49.5117 -82.6172 C 48.291 -83.8379 47.0215 -84.2773 45.752 -84.2773 C 44.4824 -84.2773 43.2617 -83.8379 41.9922 -82.6172 L 29.4922 -70.6543 C 28.6621 -69.8242 28.2227 -68.9453 28.2227 -67.7734 C 28.2227 -65.4297 30.127 -63.8184 32.2754 -63.8184 C 33.4473 -63.8184 34.6191 -64.3066 35.4004 -65.1367 L 39.6973 -69.8242 L 41.4062 -72.5586 L 41.0156 -66.9434 L 41.0156 -30.3711 C 41.0156 -27.8809 43.1152 -25.7324 45.752 -25.7324 Z M 23.6328 6.00586 L 67.9199 6.00586 C 76.8555 6.00586 81.7383 1.12305 81.7383 -7.76367 L 81.7383 -44.0918 C 81.7383 -52.9785 76.8555 -57.8613 67.9199 -57.8613 L 58.2031 -57.8613 L 58.2031 -47.2656 L 66.748 -47.2656 C 69.6289 -47.2656 71.1426 -45.8496 71.1426 -42.7734 L 71.1426 -9.08203 C 71.1426 -6.00586 69.6289 -4.58984 66.748 -4.58984 L 24.8047 -4.58984 C 21.9238 -4.58984 20.3613 -6.00586 20.3613 -9.08203 L 20.3613 -42.7734 C 20.3613 -45.8496 21.9238 -47.2656 24.8047 -47.2656 L 33.4961 -47.2656 L 33.4961 -57.8613 L 23.6328 -57.8613 C 14.6973 -57.8613 9.76562 -52.9785 9.76562 -44.0918 L 9.76562 -7.76367 C 9.76562 1.12305 14.6973 6.00586 23.6328 6.00586 Z"/>
  </g>
  <g id="Semibold-S" transform="matrix(1 0 0 1 1998.1 696)">
   <path d="M 45.166 -25.3906 C 47.5098 -25.3906 49.4629 -27.3438 49.4629 -29.5898 L 49.4629 -66.6992 L 49.0723 -72.4121 L 50.9277 -69.873 L 55.6152 -64.7949 C 56.3477 -63.9648 57.373 -63.5254 58.4473 -63.5254 C 60.498 -63.5254 62.207 -65.0391 62.207 -67.1875 C 62.207 -68.2617 61.7676 -69.0918 61.0352 -69.8242 L 48.4863 -81.8359 C 47.3633 -82.959 46.2891 -83.3008 45.166 -83.3008 C 44.043 -83.3008 42.9688 -82.959 41.8457 -81.8359 L 29.2969 -69.8242 C 28.5156 -69.0918 28.125 -68.2617 28.125 -67.1875 C 28.125 -65.0391 29.834 -63.5254 31.8359 -63.5254 C 32.9102 -63.5254 33.9844 -63.9648 34.7168 -64.7949 L 39.4043 -69.873 L 41.2598 -72.4121 L 40.8691 -66.6992 L 40.8691 -29.5898 C 40.8691 -27.3438 42.7734 -25.3906 45.166 -25.3906 Z M 23.0957 5.81055 L 67.2363 5.81055 C 75.9277 5.81055 80.5664 1.2207 80.5664 -7.42188 L 80.5664 -44.1895 C 80.5664 -52.832 75.9277 -57.4219 67.2363 -57.4219 L 57.2266 -57.4219 L 57.2266 -48.0957 L 66.4551 -48.0957 C 69.5312 -48.0957 71.2402 -46.5332 71.2402 -43.2617 L 71.2402 -8.39844 C 71.2402 -5.07812 69.5312 -3.51562 66.4551 -3.51562 L 23.877 -3.51562 C 20.752 -3.51562 19.0918 -5.07812 19.0918 -8.39844 L 19.0918 -43.2617 C 19.0918 -46.5332 20.752 -48.0957 23.877 -48.0957 L 33.2031 -48.0957 L 33.2031 -57.4219 L 23.0957 -57.4219 C 14.4043 -57.4219 9.76562 -52.832 9.76562 -44.1895 L 9.76562 -7.42188 C 9.76562 1.2207 14.4043 5.81055 23.0957 5.81055 Z"/>
  </g>
  <g id="Medium-S" transform="matrix(1 0 0 1 1701.85 696)">
   <path d="M 44.7266 -25.1465 C 46.875 -25.1465 48.6328 -26.9043 48.6328 -29.0039 L 48.6328 -66.5527 L 48.291 -72.3145 L 50.2441 -69.873 L 55.2246 -64.502 C 55.9082 -63.7207 56.8848 -63.3301 57.8613 -63.3301 C 59.8145 -63.3301 61.377 -64.7461 61.377 -66.6992 C 61.377 -67.7246 60.9863 -68.5059 60.2539 -69.2383 L 47.6562 -81.25 C 46.6797 -82.2754 45.752 -82.6172 44.7266 -82.6172 C 43.6523 -82.6172 42.7734 -82.2754 41.748 -81.25 L 29.1504 -69.2383 C 28.418 -68.5059 28.0273 -67.7246 28.0273 -66.6992 C 28.0273 -64.7461 29.5898 -63.3301 31.4941 -63.3301 C 32.4707 -63.3301 33.4961 -63.7207 34.1797 -64.502 L 39.1602 -69.873 L 41.1133 -72.3145 L 40.7715 -66.5527 L 40.7715 -29.0039 C 40.7715 -26.9043 42.5293 -25.1465 44.7266 -25.1465 Z M 22.7051 5.66406 L 66.6992 5.66406 C 75.2441 5.66406 79.6387 1.26953 79.6387 -7.12891 L 79.6387 -44.2871 C 79.6387 -52.7344 75.2441 -57.0801 66.6992 -57.0801 L 56.4941 -57.0801 L 56.4941 -48.7793 L 66.2109 -48.7793 C 69.4824 -48.7793 71.3379 -47.0703 71.3379 -43.6035 L 71.3379 -7.86133 C 71.3379 -4.39453 69.4824 -2.68555 66.2109 -2.68555 L 23.1934 -2.68555 C 19.9219 -2.68555 18.0664 -4.39453 18.0664 -7.86133 L 18.0664 -43.6035 C 18.0664 -47.0703 19.9219 -48.7793 23.1934 -48.7793 L 33.0078 -48.7793 L 33.0078 -57.0801 L 22.7051 -57.0801 C 14.209 -57.0801 9.76562 -52.7344 9.76562 -44.2871 L 9.76562 -7.12891 C 9.76562 1.31836 14.209 5.66406 22.7051 5.66406 Z"/>
  </g>
  <g id="Regular-S" transform="matrix(1 0 0 1 1405.73 696)">
   <path d="M 44.0918 -24.8047 C 45.9961 -24.8047 47.6074 -26.3672 47.6074 -28.2227 L 47.6074 -66.3086 L 47.3145 -72.168 L 49.3652 -69.9219 L 54.7363 -64.1113 C 55.3711 -63.4277 56.25 -63.0859 57.0801 -63.0859 C 58.9355 -63.0859 60.3027 -64.3555 60.3027 -66.1133 C 60.3027 -67.0898 59.9121 -67.7734 59.2285 -68.4082 L 46.6309 -80.4688 C 45.752 -81.3477 45.0195 -81.6406 44.0918 -81.6406 C 43.2129 -81.6406 42.4805 -81.3477 41.5527 -80.4688 L 28.9551 -68.4082 C 28.3203 -67.7734 27.9297 -67.0898 27.9297 -66.1133 C 27.9297 -64.3555 29.248 -63.0859 31.1035 -63.0859 C 31.9336 -63.0859 32.8613 -63.4277 33.4961 -64.1113 L 38.8672 -69.9219 L 40.918 -72.168 L 40.625 -66.3086 L 40.625 -28.2227 C 40.625 -26.3672 42.2363 -24.8047 44.0918 -24.8047 Z M 22.2168 5.46875 L 66.0156 5.46875 C 74.3652 5.46875 78.4668 1.36719 78.4668 -6.83594 L 78.4668 -44.3848 C 78.4668 -52.5879 74.3652 -56.6895 66.0156 -56.6895 L 55.5176 -56.6895 L 55.5176 -49.6094 L 65.918 -49.6094 C 69.3848 -49.6094 71.4355 -47.7051 71.4355 -44.043 L 71.4355 -7.17773 C 71.4355 -3.4668 69.3848 -1.61133 65.918 -1.61133 L 22.3145 -1.61133 C 18.7988 -1.61133 16.7969 -3.4668 16.7969 -7.17773 L 16.7969 -44.043 C 16.7969 -47.7051 18.7988 -49.6094 22.3145 -49.6094 L 32.7148 -49.6094 L 32.7148 -56.6895 L 22.2168 -56.6895 C 13.916 -56.6895 9.76562 -52.5879 9.76562 -44.3848 L 9.76562 -6.83594 C 9.76562 1.36719 13.916 5.46875 22.2168 5.46875 Z"/>
  </g>
  <g id="Light-S" transform="matrix(1 0 0 1 1109.75 696)">
   <path d="M 43.3594 -24.9023 C 44.8242 -24.9023 46.0449 -26.0742 46.0449 -27.4902 L 46.0449 -67.7734 L 45.8496 -73.3887 L 48.877 -70.2637 L 55.0293 -63.8184 C 55.5176 -63.2812 56.2012 -62.9883 56.8359 -62.9883 C 58.252 -62.9883 59.3262 -64.0137 59.3262 -65.3809 C 59.3262 -66.1133 59.0332 -66.6504 58.4961 -67.1387 L 45.3125 -79.9805 C 44.6777 -80.6641 44.043 -80.8594 43.3594 -80.8594 C 42.6758 -80.8594 42.0898 -80.6641 41.4062 -79.9805 L 28.2227 -67.1387 C 27.7344 -66.6504 27.4414 -66.1133 27.4414 -65.3809 C 27.4414 -64.0137 28.4668 -62.9883 29.834 -62.9883 C 30.5176 -62.9883 31.25 -63.2812 31.7383 -63.8184 L 37.8906 -70.2637 L 40.918 -73.4375 L 40.6738 -67.7734 L 40.6738 -27.4902 C 40.6738 -26.0742 41.9434 -24.9023 43.3594 -24.9023 Z M 21.3867 4.78516 L 65.332 4.78516 C 73.0957 4.78516 77.002 0.927734 77.002 -6.68945 L 77.002 -45.3613 C 77.002 -52.9297 73.0957 -56.8359 65.332 -56.8359 L 54.5898 -56.8359 L 54.5898 -51.416 L 65.2344 -51.416 C 69.2383 -51.416 71.582 -49.2676 71.582 -45.0684 L 71.582 -6.98242 C 71.582 -2.7832 69.2383 -0.634766 65.2344 -0.634766 L 21.4844 -0.634766 C 17.4316 -0.634766 15.1855 -2.7832 15.1855 -6.98242 L 15.1855 -45.0684 C 15.1855 -49.2676 17.4316 -51.416 21.4844 -51.416 L 32.2266 -51.416 L 32.2266 -56.8359 L 21.3867 -56.8359 C 13.6719 -56.8359 9.76562 -52.9785 9.76562 -45.3613 L 9.76562 -6.68945 C 9.76562 0.927734 13.6719 4.78516 21.3867 4.78516 Z"/>
  </g>
  <g id="Thin-S" transform="matrix(1 0 0 1 814.015 696)">
   <path d="M 42.4316 -25 C 43.3105 -25 44.043 -25.7324 44.043 -26.6113 L 44.043 -69.6777 L 43.9453 -75.0488 L 48.1934 -70.752 L 55.3711 -63.4277 C 55.6641 -63.0859 56.1523 -62.8906 56.543 -62.8906 C 57.373 -62.8906 58.0566 -63.5742 58.0566 -64.4043 C 58.0566 -64.8438 57.8613 -65.1367 57.5684 -65.4785 L 43.6035 -79.3457 C 43.2129 -79.6875 42.8223 -79.834 42.4316 -79.834 C 41.9922 -79.834 41.6016 -79.6875 41.2598 -79.3457 L 27.2461 -65.4785 C 26.9043 -65.1367 26.7578 -64.8438 26.7578 -64.4043 C 26.7578 -63.5742 27.3926 -62.8906 28.2227 -62.8906 C 28.6133 -62.8906 29.1016 -63.0859 29.3945 -63.4277 L 36.6211 -70.752 L 40.8691 -75.0977 L 40.7715 -69.6777 L 40.7715 -26.6113 C 40.7715 -25.7324 41.5039 -25 42.4316 -25 Z M 20.3125 3.95508 L 64.502 3.95508 C 71.4355 3.95508 75.0488 0.292969 75.0488 -6.54297 L 75.0488 -46.582 C 75.0488 -53.418 71.4355 -57.0801 64.502 -57.0801 L 53.3691 -57.0801 L 53.3691 -53.7598 L 64.4043 -53.7598 C 69.0918 -53.7598 71.7285 -51.2695 71.7285 -46.3867 L 71.7285 -6.73828 C 71.7285 -1.85547 69.0918 0.634766 64.4043 0.634766 L 20.4102 0.634766 C 15.625 0.634766 13.0859 -1.85547 13.0859 -6.73828 L 13.0859 -46.3867 C 13.0859 -51.2695 15.625 -53.7598 20.4102 -53.7598 L 31.543 -53.7598 L 31.543 -57.0801 L 20.3125 -57.0801 C 13.3789 -57.0801 9.76562 -53.4668 9.76562 -46.582 L 9.76562 -6.54297 C 9.76562 0.390625 13.3789 3.95508 20.3125 3.95508 Z"/>
  </g>
  <g id="Ultralight-S" transform="matrix(1 0 0 1 517.792 696)">
   <path d="M 41.8945 -25.0488 C 42.5293 -25.0488 43.0176 -25.5371 43.0176 -26.123 L 43.0176 -70.6543 L 42.9688 -75.9277 L 47.8516 -70.9961 L 55.5664 -63.2324 C 55.8105 -62.9883 56.1035 -62.8418 56.3965 -62.8418 C 56.8848 -62.8418 57.373 -63.3301 57.373 -63.8672 C 57.373 -64.1602 57.2754 -64.4043 57.0312 -64.5996 L 42.6758 -79.0039 C 42.4805 -79.1992 42.1875 -79.2969 41.8945 -79.2969 C 41.6504 -79.2969 41.3574 -79.1992 41.1133 -79.0039 L 26.709 -64.5996 C 26.5137 -64.4043 26.416 -64.1602 26.416 -63.8672 C 26.416 -63.3301 26.8555 -62.8418 27.3926 -62.8418 C 27.6855 -62.8418 27.9785 -62.9883 28.2227 -63.2324 L 35.9375 -70.9961 L 40.8691 -75.9766 L 40.8203 -70.6543 L 40.8203 -26.123 C 40.8203 -25.5371 41.3086 -25.0488 41.8945 -25.0488 Z M 19.7754 3.51562 L 64.0625 3.51562 C 70.6055 3.51562 74.0723 -0.0488281 74.0723 -6.44531 L 74.0723 -47.2168 C 74.0723 -53.6621 70.6055 -57.1777 64.0625 -57.1777 L 52.7344 -57.1777 L 52.7344 -54.9805 L 63.9648 -54.9805 C 68.9453 -54.9805 71.875 -52.2949 71.875 -47.1191 L 71.875 -6.5918 C 71.875 -1.36719 68.9453 1.31836 63.9648 1.31836 L 19.873 1.31836 C 14.6484 1.31836 11.9629 -1.36719 11.9629 -6.5918 L 11.9629 -47.1191 C 11.9629 -52.2949 14.6484 -54.9805 19.873 -54.9805 L 31.2012 -54.9805 L 31.2012 -57.1777 L 19.7754 -57.1777 C 13.2324 -57.1777 9.76562 -53.7598 9.76562 -47.2168 L 9.76562 -6.44531 C 9.76562 0.0488281 13.2324 3.51562 19.7754 3.51562 Z"/>
  </g>
 </g>
</svg>
