<?xml version="1.0" encoding="UTF-8"?>
<!--Generator: Apple Native CoreSVG 148-->
<!DOCTYPE svg
PUBLIC "-//W3C//DTD SVG 1.1//EN"
       "http://www.w3.org/Graphics/SVG/1.1/DTD/svg11.dtd">
<svg version="1.1" xmlns="http://www.w3.org/2000/svg" xmlns:xlink="http://www.w3.org/1999/xlink" width="3300" height="2200">
 <!--glyph: "uni100749.medium", point size: 100.000000, font version: "Version 16.0d11e1", template writer version: "8"-->
 <g id="Notes">
  <rect height="2200" id="artboard" style="fill:white;opacity:1" width="3300" x="0" y="0"/>
  <line id="" style="fill:none;stroke:black;opacity:1;stroke-width:0.5;" x1="263" x2="3036" y1="292" y2="292"/>
  <text style="stroke:none;fill:black;font-family:-apple-system,&quot;SF Pro Display&quot;,&quot;SF Pro Text&quot;,Helvetica,sans-serif;font-weight:bold;" transform="matrix(1 0 0 1 263 322)">Weight/Scale Variations</text>
  <text style="stroke:none;fill:black;font-family:-apple-system,&quot;SF Pro Display&quot;,&quot;SF Pro Text&quot;,Helvetica,sans-serif;text-anchor:middle;" transform="matrix(1 0 0 1 559.711 322)">Ultralight</text>
  <text style="stroke:none;fill:black;font-family:-apple-system,&quot;SF Pro Display&quot;,&quot;SF Pro Text&quot;,Helvetica,sans-serif;text-anchor:middle;" transform="matrix(1 0 0 1 856.422 322)">Thin</text>
  <text style="stroke:none;fill:black;font-family:-apple-system,&quot;SF Pro Display&quot;,&quot;SF Pro Text&quot;,Helvetica,sans-serif;text-anchor:middle;" transform="matrix(1 0 0 1 1153.13 322)">Light</text>
  <text style="stroke:none;fill:black;font-family:-apple-system,&quot;SF Pro Display&quot;,&quot;SF Pro Text&quot;,Helvetica,sans-serif;text-anchor:middle;" transform="matrix(1 0 0 1 1449.84 322)">Regular</text>
  <text style="stroke:none;fill:black;font-family:-apple-system,&quot;SF Pro Display&quot;,&quot;SF Pro Text&quot;,Helvetica,sans-serif;text-anchor:middle;" transform="matrix(1 0 0 1 1746.56 322)">Medium</text>
  <text style="stroke:none;fill:black;font-family:-apple-system,&quot;SF Pro Display&quot;,&quot;SF Pro Text&quot;,Helvetica,sans-serif;text-anchor:middle;" transform="matrix(1 0 0 1 2043.27 322)">Semibold</text>
  <text style="stroke:none;fill:black;font-family:-apple-system,&quot;SF Pro Display&quot;,&quot;SF Pro Text&quot;,Helvetica,sans-serif;text-anchor:middle;" transform="matrix(1 0 0 1 2339.98 322)">Bold</text>
  <text style="stroke:none;fill:black;font-family:-apple-system,&quot;SF Pro Display&quot;,&quot;SF Pro Text&quot;,Helvetica,sans-serif;text-anchor:middle;" transform="matrix(1 0 0 1 2636.69 322)">Heavy</text>
  <text style="stroke:none;fill:black;font-family:-apple-system,&quot;SF Pro Display&quot;,&quot;SF Pro Text&quot;,Helvetica,sans-serif;text-anchor:middle;" transform="matrix(1 0 0 1 2933.4 322)">Black</text>
  <line id="" style="fill:none;stroke:black;opacity:1;stroke-width:0.5;" x1="263" x2="3036" y1="1903" y2="1903"/>
  <g id="" transform="matrix(1 0 0 1 263 1933)">
   <path d="M 9.24805 0.830078 C 13.5547 0.830078 17.1387 -2.74414 17.1387 -7.05078 C 17.1387 -11.3574 13.5449 -14.9316 9.23828 -14.9316 C 4.94141 -14.9316 1.36719 -11.3574 1.36719 -7.05078 C 1.36719 -2.74414 4.95117 0.830078 9.24805 0.830078 Z M 9.24805 -0.654297 C 5.70312 -0.654297 2.87109 -3.49609 2.87109 -7.05078 C 2.87109 -10.6055 5.69336 -13.4473 9.23828 -13.4473 C 12.793 -13.4473 15.6348 -10.6055 15.6445 -7.05078 C 15.6543 -3.49609 12.8027 -0.654297 9.24805 -0.654297 Z M 9.22852 -3.62305 C 9.69727 -3.62305 9.9707 -3.93555 9.9707 -4.45312 L 9.9707 -6.31836 L 12.002 -6.31836 C 12.5 -6.31836 12.832 -6.57227 12.832 -7.04102 C 12.832 -7.51953 12.5195 -7.7832 12.002 -7.7832 L 9.9707 -7.7832 L 9.9707 -9.81445 C 9.9707 -10.332 9.69727 -10.6543 9.22852 -10.6543 C 8.75977 -10.6543 8.50586 -10.3125 8.50586 -9.81445 L 8.50586 -7.7832 L 6.49414 -7.7832 C 5.97656 -7.7832 5.64453 -7.51953 5.64453 -7.04102 C 5.64453 -6.57227 5.99609 -6.31836 6.49414 -6.31836 L 8.50586 -6.31836 L 8.50586 -4.45312 C 8.50586 -3.95508 8.75977 -3.62305 9.22852 -3.62305 Z"/>
  </g>
  <g id="" transform="matrix(1 0 0 1 281.506 1933)">
   <path d="M 11.709 2.91016 C 17.1582 2.91016 21.6699 -1.61133 21.6699 -7.05078 C 21.6699 -12.5 17.1484 -17.0117 11.6992 -17.0117 C 6.25977 -17.0117 1.74805 -12.5 1.74805 -7.05078 C 1.74805 -1.61133 6.26953 2.91016 11.709 2.91016 Z M 11.709 1.25 C 7.09961 1.25 3.41797 -2.44141 3.41797 -7.05078 C 3.41797 -11.6602 7.08984 -15.3516 11.6992 -15.3516 C 16.3086 -15.3516 20 -11.6602 20.0098 -7.05078 C 20.0195 -2.44141 16.3184 1.25 11.709 1.25 Z M 11.6797 -2.66602 C 12.207 -2.66602 12.5098 -3.01758 12.5098 -3.59375 L 12.5098 -6.23047 L 15.3223 -6.23047 C 15.8691 -6.23047 16.25 -6.51367 16.25 -7.03125 C 16.25 -7.55859 15.8887 -7.86133 15.3223 -7.86133 L 12.5098 -7.86133 L 12.5098 -10.6836 C 12.5098 -11.25 12.207 -11.6113 11.6797 -11.6113 C 11.1621 -11.6113 10.8789 -11.2305 10.8789 -10.6836 L 10.8789 -7.86133 L 8.07617 -7.86133 C 7.50977 -7.86133 7.13867 -7.55859 7.13867 -7.03125 C 7.13867 -6.51367 7.5293 -6.23047 8.07617 -6.23047 L 10.8789 -6.23047 L 10.8789 -3.59375 C 10.8789 -3.03711 11.1621 -2.66602 11.6797 -2.66602 Z"/>
  </g>
  <g id="" transform="matrix(1 0 0 1 304.924 1933)">
   <path d="M 14.9707 5.66406 C 21.9336 5.66406 27.6953 -0.0976562 27.6953 -7.05078 C 27.6953 -14.0137 21.9238 -19.7754 14.9609 -19.7754 C 8.00781 -19.7754 2.25586 -14.0137 2.25586 -7.05078 C 2.25586 -0.0976562 8.01758 5.66406 14.9707 5.66406 Z M 14.9707 3.84766 C 8.93555 3.84766 4.08203 -1.01562 4.08203 -7.05078 C 4.08203 -13.0957 8.92578 -17.9492 14.9609 -17.9492 C 21.0059 -17.9492 25.8594 -13.0957 25.8691 -7.05078 C 25.8789 -1.01562 21.0156 3.84766 14.9707 3.84766 Z M 14.9414 -1.38672 C 15.5176 -1.38672 15.8594 -1.77734 15.8594 -2.38281 L 15.8594 -6.13281 L 19.7754 -6.13281 C 20.3711 -6.13281 20.7812 -6.46484 20.7812 -7.02148 C 20.7812 -7.59766 20.3906 -7.93945 19.7754 -7.93945 L 15.8594 -7.93945 L 15.8594 -11.8652 C 15.8594 -12.4805 15.5176 -12.8711 14.9414 -12.8711 C 14.375 -12.8711 14.0527 -12.4609 14.0527 -11.8652 L 14.0527 -7.93945 L 10.1465 -7.93945 C 9.53125 -7.93945 9.13086 -7.59766 9.13086 -7.02148 C 9.13086 -6.46484 9.55078 -6.13281 10.1465 -6.13281 L 14.0527 -6.13281 L 14.0527 -2.38281 C 14.0527 -1.79688 14.375 -1.38672 14.9414 -1.38672 Z"/>
  </g>
  <text style="stroke:none;fill:black;font-family:-apple-system,&quot;SF Pro Display&quot;,&quot;SF Pro Text&quot;,Helvetica,sans-serif;font-weight:bold;" transform="matrix(1 0 0 1 263 1953)">Design Variations</text>
  <text style="stroke:none;fill:black;font-family:-apple-system,&quot;SF Pro Display&quot;,&quot;SF Pro Text&quot;,Helvetica,sans-serif;" transform="matrix(1 0 0 1 263 1971)">Symbols are supported in up to nine weights and three scales.</text>
  <text style="stroke:none;fill:black;font-family:-apple-system,&quot;SF Pro Display&quot;,&quot;SF Pro Text&quot;,Helvetica,sans-serif;" transform="matrix(1 0 0 1 263 1989)">For optimal layout with text and other symbols, vertically align</text>
  <text style="stroke:none;fill:black;font-family:-apple-system,&quot;SF Pro Display&quot;,&quot;SF Pro Text&quot;,Helvetica,sans-serif;" transform="matrix(1 0 0 1 263 2007)">symbols with the adjacent text.</text>
  <line id="" style="fill:none;stroke:#00AEEF;stroke-width:0.5;opacity:1.0;" x1="776" x2="776" y1="1919" y2="1933"/>
  <g id="" transform="matrix(1 0 0 1 776 1933)">
   <path d="M 3.31055 0.126953 C 3.82812 0.126953 4.08203 -0.0683594 4.26758 -0.605469 L 5.52734 -4.0625 L 11.2891 -4.0625 L 12.5488 -0.605469 C 12.7344 -0.0683594 12.9883 0.126953 13.4961 0.126953 C 14.0137 0.126953 14.3457 -0.185547 14.3457 -0.673828 C 14.3457 -0.839844 14.3164 -0.986328 14.2383 -1.20117 L 9.6582 -13.3887 C 9.43359 -13.9941 9.0332 -14.2871 8.4082 -14.2871 C 7.80273 -14.2871 7.39258 -13.9941 7.17773 -13.3984 L 2.59766 -1.19141 C 2.51953 -0.976562 2.49023 -0.830078 2.49023 -0.664062 C 2.49023 -0.175781 2.80273 0.126953 3.31055 0.126953 Z M 6.00586 -5.53711 L 8.37891 -12.1094 L 8.42773 -12.1094 L 10.8008 -5.53711 Z"/>
  </g>
  <line id="" style="fill:none;stroke:#00AEEF;stroke-width:0.5;opacity:1.0;" x1="792.836" x2="792.836" y1="1919" y2="1933"/>
  <text style="stroke:none;fill:black;font-family:-apple-system,&quot;SF Pro Display&quot;,&quot;SF Pro Text&quot;,Helvetica,sans-serif;font-weight:bold;" transform="matrix(1 0 0 1 776 1953)">Margins</text>
  <text style="stroke:none;fill:black;font-family:-apple-system,&quot;SF Pro Display&quot;,&quot;SF Pro Text&quot;,Helvetica,sans-serif;" transform="matrix(1 0 0 1 776 1971)">Leading and trailing margins on the left and right side of each symbol</text>
  <text style="stroke:none;fill:black;font-family:-apple-system,&quot;SF Pro Display&quot;,&quot;SF Pro Text&quot;,Helvetica,sans-serif;" transform="matrix(1 0 0 1 776 1989)">can be adjusted by modifying the x-location of the margin guidelines.</text>
  <text style="stroke:none;fill:black;font-family:-apple-system,&quot;SF Pro Display&quot;,&quot;SF Pro Text&quot;,Helvetica,sans-serif;" transform="matrix(1 0 0 1 776 2007)">Modifications are automatically applied proportionally to all</text>
  <text style="stroke:none;fill:black;font-family:-apple-system,&quot;SF Pro Display&quot;,&quot;SF Pro Text&quot;,Helvetica,sans-serif;" transform="matrix(1 0 0 1 776 2025)">scales and weights.</text>
  <g id="" transform="matrix(1 0 0 1 1289 1933)">
   <path d="M 2.8418 1.86523 L 4.54102 3.57422 C 5.40039 4.44336 6.38672 4.38477 7.31445 3.35938 L 17.4902 -7.85156 C 17.7539 -7.76367 18.0273 -7.7832 18.3398 -7.8418 L 19.4043 -8.03711 L 20.0684 -7.36328 L 20.0293 -6.80664 C 19.9902 -6.30859 20.1172 -5.92773 20.6055 -5.44922 L 21.3672 -4.70703 C 21.8457 -4.22852 22.4609 -4.19922 22.9297 -4.66797 L 25.8398 -7.58789 C 26.3086 -8.05664 26.2891 -8.65234 25.8105 -9.13086 L 25.0391 -9.89258 C 24.5605 -10.3711 24.1895 -10.5273 23.7109 -10.4883 L 23.1348 -10.4395 L 22.4902 -11.0742 L 22.7344 -12.1973 C 22.8613 -12.7637 22.7051 -13.2031 22.1191 -13.7891 L 19.9219 -15.9766 C 16.582 -19.2969 12.1484 -19.2188 9.25781 -16.3281 C 8.83789 -15.918 8.80859 -15.3418 9.04297 -14.9512 C 9.27734 -14.5898 9.73633 -14.3555 10.3809 -14.5215 C 11.8457 -14.8633 13.3691 -14.9219 14.7949 -13.9844 L 14.209 -12.5293 C 14.0137 -12.0508 13.9844 -11.6504 14.1113 -11.2891 L 3.04688 -0.898438 C 2.06055 0.0195312 1.98242 0.996094 2.8418 1.86523 Z M 10.752 -15.957 C 13.1836 -17.7344 16.4746 -17.4316 18.7012 -15.2051 L 21.1328 -12.793 C 21.3672 -12.5586 21.4062 -12.373 21.3379 -12.0312 L 21.0156 -10.5469 L 22.5195 -9.0625 L 23.5059 -9.12109 C 23.7598 -9.13086 23.8379 -9.11133 24.0332 -8.91602 L 24.6094 -8.33984 L 22.168 -5.89844 L 21.5918 -6.47461 C 21.3965 -6.66992 21.3672 -6.74805 21.377 -7.01172 L 21.4453 -7.98828 L 19.9512 -9.47266 L 18.4277 -9.21875 C 18.1055 -9.15039 17.959 -9.17969 17.7148 -9.41406 L 15.7129 -11.416 C 15.459 -11.6504 15.4297 -11.8164 15.5859 -12.1875 L 16.4648 -14.2773 C 14.9023 -15.7324 12.8711 -16.3574 10.8398 -15.7617 C 10.6836 -15.7227 10.625 -15.8496 10.752 -15.957 Z M 5.27344 2.30469 L 4.10156 1.14258 C 3.63281 0.683594 3.74023 0.341797 4.14062 -0.0195312 L 14.9512 -10.1953 L 16.416 -8.71094 L 6.42578 2.27539 C 6.07422 2.67578 5.74219 2.77344 5.27344 2.30469 Z"/>
  </g>
  <text style="stroke:none;fill:black;font-family:-apple-system,&quot;SF Pro Display&quot;,&quot;SF Pro Text&quot;,Helvetica,sans-serif;font-weight:bold;" transform="matrix(1 0 0 1 1289 1953)">Exporting</text>
  <text style="stroke:none;fill:black;font-family:-apple-system,&quot;SF Pro Display&quot;,&quot;SF Pro Text&quot;,Helvetica,sans-serif;" transform="matrix(1 0 0 1 1289 1971)">Symbols should be outlined when exporting to ensure the</text>
  <text style="stroke:none;fill:black;font-family:-apple-system,&quot;SF Pro Display&quot;,&quot;SF Pro Text&quot;,Helvetica,sans-serif;" transform="matrix(1 0 0 1 1289 1989)">design is preserved when submitting to Xcode.</text>
  <text id="template-version" style="stroke:none;fill:black;font-family:-apple-system,&quot;SF Pro Display&quot;,&quot;SF Pro Text&quot;,Helvetica,sans-serif;text-anchor:end;" transform="matrix(1 0 0 1 3036 1933)">Template v.2.0</text>
  <text style="stroke:none;fill:black;font-family:-apple-system,&quot;SF Pro Display&quot;,&quot;SF Pro Text&quot;,Helvetica,sans-serif;text-anchor:end;" transform="matrix(1 0 0 1 3036 1951)">Requires Xcode 12 or greater</text>
  <text style="stroke:none;fill:black;font-family:-apple-system,&quot;SF Pro Display&quot;,&quot;SF Pro Text&quot;,Helvetica,sans-serif;text-anchor:end;" transform="matrix(1 0 0 1 3036 1969)">Generated from bus.fill</text>
  <text style="stroke:none;fill:black;font-family:-apple-system,&quot;SF Pro Display&quot;,&quot;SF Pro Text&quot;,Helvetica,sans-serif;text-anchor:end;" transform="matrix(1 0 0 1 3036 1987)">Typeset at 100 points</text>
  <text style="stroke:none;fill:black;font-family:-apple-system,&quot;SF Pro Display&quot;,&quot;SF Pro Text&quot;,Helvetica,sans-serif;" transform="matrix(1 0 0 1 263 726)">Small</text>
  <text style="stroke:none;fill:black;font-family:-apple-system,&quot;SF Pro Display&quot;,&quot;SF Pro Text&quot;,Helvetica,sans-serif;" transform="matrix(1 0 0 1 263 1156)">Medium</text>
  <text style="stroke:none;fill:black;font-family:-apple-system,&quot;SF Pro Display&quot;,&quot;SF Pro Text&quot;,Helvetica,sans-serif;" transform="matrix(1 0 0 1 263 1586)">Large</text>
 </g>
 <g id="Guides">
  <g id="H-reference" style="fill:#27AAE1;stroke:none;" transform="matrix(1 0 0 1 339 696)">
   <path d="M 0.976562 0 L 3.66211 0 L 12.9883 -24.4629 L 45.7031 -24.4629 L 55.0781 0 L 57.7148 0 L 30.6152 -70.459 L 28.125 -70.459 Z M 29.2969 -67.1387 L 29.3945 -67.1387 L 44.873 -26.709 L 13.8672 -26.709 Z"/>
  </g>
  <line id="Baseline-S" style="fill:none;stroke:#27AAE1;opacity:1;stroke-width:0.5;" x1="263" x2="3036" y1="696" y2="696"/>
  <line id="Capline-S" style="fill:none;stroke:#27AAE1;opacity:1;stroke-width:0.5;" x1="263" x2="3036" y1="625.541" y2="625.541"/>
  <g id="H-reference" style="fill:#27AAE1;stroke:none;" transform="matrix(1 0 0 1 339 1126)">
   <path d="M 0.976562 0 L 3.66211 0 L 12.9883 -24.4629 L 45.7031 -24.4629 L 55.0781 0 L 57.7148 0 L 30.6152 -70.459 L 28.125 -70.459 Z M 29.2969 -67.1387 L 29.3945 -67.1387 L 44.873 -26.709 L 13.8672 -26.709 Z"/>
  </g>
  <line id="Baseline-M" style="fill:none;stroke:#27AAE1;opacity:1;stroke-width:0.5;" x1="263" x2="3036" y1="1126" y2="1126"/>
  <line id="Capline-M" style="fill:none;stroke:#27AAE1;opacity:1;stroke-width:0.5;" x1="263" x2="3036" y1="1055.54" y2="1055.54"/>
  <g id="H-reference" style="fill:#27AAE1;stroke:none;" transform="matrix(1 0 0 1 339 1556)">
   <path d="M 0.976562 0 L 3.66211 0 L 12.9883 -24.4629 L 45.7031 -24.4629 L 55.0781 0 L 57.7148 0 L 30.6152 -70.459 L 28.125 -70.459 Z M 29.2969 -67.1387 L 29.3945 -67.1387 L 44.873 -26.709 L 13.8672 -26.709 Z"/>
  </g>
  <line id="Baseline-L" style="fill:none;stroke:#27AAE1;opacity:1;stroke-width:0.5;" x1="263" x2="3036" y1="1556" y2="1556"/>
  <line id="Capline-L" style="fill:none;stroke:#27AAE1;opacity:1;stroke-width:0.5;" x1="263" x2="3036" y1="1485.54" y2="1485.54"/>
  <line id="left-margin" style="fill:none;stroke:#00AEEF;stroke-width:0.5;opacity:1.0;" x1="1384.02" x2="1384.02" y1="1030.79" y2="1150.12"/>
  <line id="right-margin" style="fill:none;stroke:#00AEEF;stroke-width:0.5;opacity:1.0;" x1="1515.66" x2="1515.66" y1="1030.79" y2="1150.12"/>
 </g>
 <g id="Symbols">
  <g id="Black-L" transform="matrix(1 0 0 1 2836.6 1556)">
   <path d="M 40.6738 44.9219 L 48.8281 44.9219 C 56.6406 44.9219 60.6445 40.918 60.6445 33.2031 L 60.6445 24.8535 C 71.4844 25.6348 83.3496 26.0254 96.7773 26.0254 C 110.205 26.0254 122.119 25.6836 132.959 24.8535 L 132.959 33.2031 C 132.959 40.918 136.963 44.9219 144.727 44.9219 L 152.881 44.9219 C 160.693 44.9219 164.697 40.918 164.697 33.2031 L 164.697 -42.9199 L 167.676 -42.9199 C 173.242 -42.9199 177.539 -46.8262 177.539 -52.2461 L 177.539 -82.9102 C 177.539 -88.3789 173.242 -92.2363 167.676 -92.2363 L 164.697 -92.2363 L 164.697 -96.875 C 164.697 -108.008 158.74 -115.332 147.266 -117.139 C 134.717 -119.092 116.943 -119.971 96.7773 -119.971 C 76.4648 -119.971 58.8379 -119.238 46.3379 -117.139 C 34.8633 -115.186 28.9062 -107.861 28.9062 -96.875 L 28.9062 -92.2363 L 25.9277 -92.2363 C 20.3613 -92.2363 16.0645 -88.3789 16.0645 -82.9102 L 16.0645 -52.2461 C 16.0645 -46.8262 20.3613 -42.9199 25.9277 -42.9199 L 28.9062 -42.9199 L 28.9062 33.2031 C 28.9062 40.918 32.9102 44.9219 40.6738 44.9219 Z M 52.2461 -21.3379 C 47.9492 -22.2168 45.9473 -24.9512 45.9473 -30.0293 L 45.9473 -91.6992 C 45.9473 -97.0215 48.0469 -99.8535 52.5879 -100.684 C 71.3867 -104.15 120.947 -103.857 141.016 -100.635 C 145.557 -99.9023 147.656 -97.1191 147.656 -91.6992 L 147.656 -30.0293 C 147.656 -24.8047 145.654 -22.1191 141.357 -21.3867 C 120.459 -17.9199 71.8262 -17.3828 52.2461 -21.3379 Z M 56.7383 9.22852 C 51.8066 9.22852 47.9492 5.37109 47.9492 0.439453 C 47.9492 -4.49219 51.8066 -8.30078 56.7383 -8.30078 C 61.6211 -8.30078 65.4785 -4.49219 65.4785 0.439453 C 65.4785 5.37109 61.6211 9.22852 56.7383 9.22852 Z M 136.865 9.22852 C 131.934 9.22852 128.125 5.37109 128.125 0.439453 C 128.125 -4.49219 131.934 -8.30078 136.865 -8.30078 C 141.797 -8.30078 145.654 -4.49219 145.654 0.439453 C 145.654 5.37109 141.797 9.22852 136.865 9.22852 Z M 83.3496 7.17773 C 79.3457 7.17773 76.4648 4.29688 76.4648 0.341797 C 76.4648 -3.61328 79.3457 -6.44531 83.3496 -6.44531 L 110.254 -6.44531 C 114.209 -6.44531 117.09 -3.61328 117.09 0.341797 C 117.09 4.29688 114.209 7.17773 110.254 7.17773 Z"/>
  </g>
  <g id="Heavy-L" transform="matrix(1 0 0 1 2542.99 1556)">
   <path d="M 38.8184 43.3105 L 46.7285 43.3105 C 53.8086 43.3105 57.7148 39.4043 57.7148 32.4219 L 57.7148 23.6328 C 68.8477 24.4629 80.7617 24.8535 93.7012 24.8535 C 106.592 24.8535 118.604 24.5117 129.736 23.6328 L 129.736 32.4219 C 129.736 39.4043 133.594 43.3105 140.674 43.3105 L 148.633 43.3105 C 155.664 43.3105 159.57 39.4043 159.57 32.4219 L 159.57 -44.1406 L 162.5 -44.1406 C 167.578 -44.1406 171.338 -47.6074 171.338 -52.4414 L 171.338 -81.6895 C 171.338 -86.5723 167.578 -89.9902 162.5 -89.9902 L 159.57 -89.9902 L 159.57 -95.3125 C 159.57 -105.664 153.906 -112.305 143.213 -113.916 C 130.518 -115.771 112.891 -116.65 93.7012 -116.65 C 74.3652 -116.65 56.9336 -115.869 44.1895 -113.916 C 33.4961 -112.207 27.832 -105.566 27.832 -95.3125 L 27.832 -89.9902 L 24.9023 -89.9902 C 19.8242 -89.9902 16.0645 -86.5723 16.0645 -81.6895 L 16.0645 -52.4414 C 16.0645 -47.6074 19.8242 -44.1406 24.9023 -44.1406 L 27.832 -44.1406 L 27.832 32.4219 C 27.832 39.4043 31.7383 43.3105 38.8184 43.3105 Z M 49.8535 -21.2891 C 45.6055 -22.1191 43.6035 -24.7559 43.6035 -29.6387 L 43.6035 -90.1367 C 43.6035 -95.3125 45.752 -98.0469 50.293 -98.8281 C 70.9961 -102.1 115.527 -101.855 137.207 -98.7793 C 141.699 -98.0957 143.848 -95.4102 143.848 -90.1367 L 143.848 -29.6387 C 143.848 -24.6582 141.846 -22.0215 137.598 -21.3379 C 115.479 -17.8223 70.8984 -17.4316 49.8535 -21.2891 Z M 54.248 8.39844 C 49.4629 8.39844 45.752 4.73633 45.752 -0.0976562 C 45.752 -4.88281 49.4629 -8.59375 54.248 -8.59375 C 59.0332 -8.59375 62.7441 -4.88281 62.7441 -0.0976562 C 62.7441 4.73633 59.0332 8.39844 54.248 8.39844 Z M 133.154 8.39844 C 128.369 8.39844 124.658 4.73633 124.658 -0.0976562 C 124.658 -4.88281 128.369 -8.59375 133.154 -8.59375 C 137.939 -8.59375 141.65 -4.88281 141.65 -0.0976562 C 141.65 4.73633 137.939 8.39844 133.154 8.39844 Z M 80.0781 6.25 C 76.3184 6.25 73.6328 3.56445 73.6328 -0.195312 C 73.6328 -3.95508 76.3184 -6.5918 80.0781 -6.5918 L 107.275 -6.5918 C 111.035 -6.5918 113.721 -3.95508 113.721 -0.195312 C 113.721 3.56445 111.035 6.25 107.275 6.25 Z"/>
  </g>
  <g id="Bold-L" transform="matrix(1 0 0 1 2249.72 1556)">
   <path d="M 36.6699 41.5527 L 44.4336 41.5527 C 50.6348 41.5527 54.3945 37.7441 54.3945 31.5918 L 54.3945 22.2656 C 65.8691 23.1445 77.8809 23.5352 90.2344 23.5352 C 102.588 23.5352 114.6 23.1445 126.074 22.2656 L 126.074 31.5918 C 126.074 37.7441 129.883 41.5527 136.084 41.5527 L 143.848 41.5527 C 150.049 41.5527 153.809 37.7441 153.809 31.5918 L 153.809 -45.5078 L 156.738 -45.5078 C 161.23 -45.5078 164.453 -48.4375 164.453 -52.7344 L 164.453 -80.3223 C 164.453 -84.5703 161.23 -87.5 156.738 -87.5 L 153.809 -87.5 L 153.809 -93.6035 C 153.809 -103.076 148.535 -108.936 138.721 -110.352 C 125.732 -112.061 108.398 -112.939 90.2344 -112.939 C 72.0215 -112.939 54.7852 -112.158 41.7969 -110.352 C 31.9824 -108.838 26.6602 -103.027 26.6602 -93.6035 L 26.6602 -87.5 L 23.7793 -87.5 C 19.2871 -87.5 16.0645 -84.5703 16.0645 -80.3223 L 16.0645 -52.7344 C 16.0645 -48.4375 19.2871 -45.5078 23.7793 -45.5078 L 26.6602 -45.5078 L 26.6602 31.5918 C 26.6602 37.7441 30.4688 41.5527 36.6699 41.5527 Z M 47.168 -21.2402 C 43.0176 -22.0215 40.9668 -24.5117 40.9668 -29.1504 L 40.9668 -88.3789 C 40.9668 -93.3594 43.1641 -96.0449 47.7051 -96.7285 C 70.5566 -99.8535 109.473 -99.6582 132.91 -96.6797 C 137.402 -96.0938 139.551 -93.4082 139.551 -88.3789 L 139.551 -29.1504 C 139.551 -24.4629 137.549 -21.9238 133.398 -21.2891 C 109.863 -17.7246 69.8242 -17.4805 47.168 -21.2402 Z M 51.5137 7.51953 C 46.8262 7.51953 43.3105 3.95508 43.3105 -0.683594 C 43.3105 -5.32227 46.8262 -8.88672 51.5137 -8.88672 C 56.1523 -8.88672 59.668 -5.32227 59.668 -0.683594 C 59.668 3.95508 56.1523 7.51953 51.5137 7.51953 Z M 129.004 7.51953 C 124.365 7.51953 120.85 3.95508 120.85 -0.683594 C 120.85 -5.32227 124.365 -8.88672 129.004 -8.88672 C 133.643 -8.88672 137.207 -5.32227 137.207 -0.683594 C 137.207 3.95508 133.643 7.51953 129.004 7.51953 Z M 76.4648 5.22461 C 72.9492 5.22461 70.4102 2.73438 70.4102 -0.78125 C 70.4102 -4.29688 72.9492 -6.73828 76.4648 -6.73828 L 103.955 -6.73828 C 107.471 -6.73828 109.961 -4.29688 109.961 -0.78125 C 109.961 2.73438 107.471 5.22461 103.955 5.22461 Z"/>
  </g>
  <g id="Semibold-L" transform="matrix(1 0 0 1 1955.4 1556)">
   <path d="M 35.2051 40.332 L 42.8223 40.332 C 48.4375 40.332 52.1484 36.6211 52.1484 31.0547 L 52.1484 21.3379 C 63.8184 22.2168 75.8789 22.6074 87.8418 22.6074 C 99.8047 22.6074 111.914 22.2656 123.584 21.3379 L 123.584 31.0547 C 123.584 36.6211 127.295 40.332 132.959 40.332 L 140.527 40.332 C 146.191 40.332 149.902 36.6211 149.902 31.0547 L 149.902 -46.4355 L 152.783 -46.4355 C 156.836 -46.4355 159.668 -49.0723 159.668 -52.8809 L 159.668 -79.3457 C 159.668 -83.2031 156.836 -85.791 152.783 -85.791 L 149.902 -85.791 L 149.902 -92.3828 C 149.902 -101.318 144.824 -106.641 135.596 -107.861 C 122.461 -109.521 105.322 -110.352 87.8418 -110.352 C 70.3613 -110.352 53.3203 -109.57 40.1367 -107.861 C 30.957 -106.592 25.8789 -101.27 25.8789 -92.3828 L 25.8789 -85.791 L 22.998 -85.791 C 18.8965 -85.791 16.0645 -83.2031 16.0645 -79.3457 L 16.0645 -52.8809 C 16.0645 -49.0723 18.8965 -46.4355 22.998 -46.4355 L 25.8789 -46.4355 L 25.8789 31.0547 C 25.8789 36.6211 29.5898 40.332 35.2051 40.332 Z M 45.3125 -21.2402 C 41.2109 -21.9238 39.1602 -24.3652 39.1602 -28.8574 L 39.1602 -87.1582 C 39.1602 -92.041 41.4062 -94.6777 45.8984 -95.2637 C 70.2637 -98.291 105.273 -98.1445 129.932 -95.2637 C 134.424 -94.7266 136.621 -92.0898 136.621 -87.1582 L 136.621 -28.8574 C 136.621 -24.3164 134.57 -21.875 130.518 -21.2402 C 106.055 -17.6758 69.0918 -17.5293 45.3125 -21.2402 Z M 49.6094 6.88477 C 45.0684 6.88477 41.6016 3.4668 41.6016 -1.07422 C 41.6016 -5.61523 45.0684 -9.08203 49.6094 -9.08203 C 54.1504 -9.08203 57.5684 -5.61523 57.5684 -1.07422 C 57.5684 3.4668 54.1504 6.88477 49.6094 6.88477 Z M 126.172 6.88477 C 121.631 6.88477 118.164 3.4668 118.164 -1.07422 C 118.164 -5.61523 121.631 -9.08203 126.172 -9.08203 C 130.713 -9.08203 134.18 -5.61523 134.18 -1.07422 C 134.18 3.4668 130.713 6.88477 126.172 6.88477 Z M 73.9746 4.54102 C 70.6055 4.54102 68.2129 2.14844 68.2129 -1.17188 C 68.2129 -4.54102 70.6055 -6.88477 73.9746 -6.88477 L 101.66 -6.88477 C 105.029 -6.88477 107.373 -4.54102 107.373 -1.17188 C 107.373 2.14844 105.029 4.54102 101.66 4.54102 Z"/>
  </g>
  <g id="Medium-L" transform="matrix(1 0 0 1 1660.47 1556)">
   <path d="M 34.1309 39.4043 L 41.6016 39.4043 C 46.7773 39.4043 50.4395 35.7422 50.4395 30.6152 L 50.4395 20.6055 C 62.3047 21.4844 74.3652 21.9238 86.0352 21.9238 C 97.7051 21.9238 109.814 21.5332 121.729 20.6543 L 121.729 30.6152 C 121.729 35.7422 125.342 39.4043 130.566 39.4043 L 138.037 39.4043 C 143.213 39.4043 146.875 35.7422 146.875 30.6152 L 146.875 -47.168 L 149.756 -47.168 C 153.516 -47.168 156.104 -49.5117 156.104 -53.0273 L 156.104 -78.6133 C 156.104 -82.1289 153.516 -84.4727 149.756 -84.4727 L 146.875 -84.4727 L 146.875 -91.4551 C 146.875 -99.9512 141.992 -104.883 133.252 -105.957 C 120.02 -107.617 102.979 -108.447 86.0352 -108.447 C 69.1406 -108.447 52.1973 -107.617 38.916 -105.957 C 30.1758 -104.834 25.2441 -99.9023 25.2441 -91.4551 L 25.2441 -84.4727 L 22.3633 -84.4727 C 18.6523 -84.4727 16.0645 -82.1289 16.0645 -78.6133 L 16.0645 -53.0273 C 16.0645 -49.5117 18.6523 -47.168 22.3633 -47.168 L 25.2441 -47.168 L 25.2441 30.6152 C 25.2441 35.7422 28.9062 39.4043 34.1309 39.4043 Z M 43.8965 -21.1914 C 39.8438 -21.8262 37.793 -24.2188 37.793 -28.6133 L 37.793 -86.2305 C 37.793 -91.0156 40.0391 -93.6523 44.5312 -94.1895 C 70.0684 -97.0703 102.1 -97.0215 127.686 -94.1895 C 132.178 -93.6523 134.375 -91.0645 134.375 -86.2305 L 134.375 -28.6133 C 134.375 -24.2188 132.373 -21.8262 128.32 -21.2402 C 103.125 -17.627 68.5059 -17.5781 43.8965 -21.1914 Z M 48.1445 6.44531 C 43.7012 6.44531 40.2832 3.07617 40.2832 -1.41602 C 40.2832 -5.85938 43.7012 -9.22852 48.1445 -9.22852 C 52.6367 -9.22852 55.957 -5.85938 55.957 -1.41602 C 55.957 3.07617 52.6367 6.44531 48.1445 6.44531 Z M 123.975 6.44531 C 119.531 6.44531 116.162 3.07617 116.162 -1.41602 C 116.162 -5.85938 119.531 -9.22852 123.975 -9.22852 C 128.467 -9.22852 131.836 -5.85938 131.836 -1.41602 C 131.836 3.07617 128.467 6.44531 123.975 6.44531 Z M 72.0703 4.00391 C 68.7988 4.00391 66.5527 1.75781 66.5527 -1.51367 C 66.5527 -4.73633 68.7988 -6.93359 72.0703 -6.93359 L 99.9023 -6.93359 C 103.174 -6.93359 105.42 -4.73633 105.42 -1.51367 C 105.42 1.75781 103.174 4.00391 99.9023 4.00391 Z"/>
  </g>
  <g id="Regular-L" transform="matrix(1 0 0 1 1366.13 1556)">
   <path d="M 32.666 38.1836 L 39.9902 38.1836 C 44.6289 38.1836 48.1934 34.6191 48.1934 30.0293 L 48.1934 19.7266 C 60.3027 20.6055 72.4121 21.0449 83.6914 21.0449 C 94.9707 21.0449 107.129 20.6543 119.238 19.7266 L 119.238 30.0293 C 119.238 34.6191 122.803 38.1836 127.441 38.1836 L 134.766 38.1836 C 139.404 38.1836 142.969 34.5703 142.969 30.0293 L 142.969 -48.0957 L 145.85 -48.0957 C 149.17 -48.0957 151.367 -50.0977 151.367 -53.2227 L 151.367 -77.6855 C 151.367 -80.7617 149.17 -82.7637 145.85 -82.7637 L 142.969 -82.7637 L 142.969 -90.2832 C 142.969 -98.1934 138.33 -102.539 130.176 -103.516 C 116.748 -105.078 99.9023 -105.908 83.6914 -105.908 C 67.5293 -105.908 50.7324 -105.078 37.3047 -103.516 C 29.1016 -102.539 24.4629 -98.1934 24.4629 -90.2832 L 24.4629 -82.7637 L 21.582 -82.7637 C 18.2617 -82.7637 16.0645 -80.7617 16.0645 -77.6855 L 16.0645 -53.2227 C 16.0645 -50.0977 18.2617 -48.0957 21.582 -48.0957 L 24.4629 -48.0957 L 24.4629 30.0293 C 24.4629 34.5703 28.0273 38.1836 32.666 38.1836 Z M 42.041 -21.1914 C 38.0371 -21.7773 36.0352 -24.0723 36.0352 -28.2715 L 36.0352 -85.0098 C 36.0352 -89.6973 38.2812 -92.2852 42.7734 -92.7734 C 69.7754 -95.5566 97.9492 -95.5078 124.756 -92.7734 C 129.248 -92.2852 131.445 -89.6973 131.445 -85.0098 L 131.445 -28.2715 C 131.445 -24.0723 129.443 -21.7773 125.439 -21.1914 C 99.3164 -17.5781 67.7734 -17.627 42.041 -21.1914 Z M 46.2891 5.81055 C 41.8945 5.81055 38.623 2.58789 38.623 -1.80664 C 38.623 -6.15234 41.8945 -9.47266 46.2891 -9.47266 C 50.6348 -9.47266 53.9062 -6.15234 53.9062 -1.80664 C 53.9062 2.58789 50.6348 5.81055 46.2891 5.81055 Z M 121.191 5.81055 C 116.797 5.81055 113.574 2.58789 113.574 -1.80664 C 113.574 -6.15234 116.797 -9.47266 121.191 -9.47266 C 125.537 -9.47266 128.809 -6.15234 128.809 -1.80664 C 128.809 2.58789 125.537 5.81055 121.191 5.81055 Z M 69.5801 3.32031 C 66.5039 3.32031 64.3555 1.17188 64.3555 -1.9043 C 64.3555 -4.98047 66.5039 -7.08008 69.5801 -7.08008 L 97.6562 -7.08008 C 100.732 -7.08008 102.881 -4.98047 102.881 -1.9043 C 102.881 1.17188 100.732 3.32031 97.6562 3.32031 Z"/>
  </g>
  <g id="Light-L" transform="matrix(1 0 0 1 1071.08 1556)">
   <path d="M 31.9336 36.4746 L 39.1113 36.4746 C 43.6523 36.4746 47.1191 33.0078 47.1191 28.5156 L 47.1191 18.4082 C 58.5938 19.2871 70.459 19.7266 82.0312 19.7266 C 93.5059 19.7266 105.469 19.2871 116.992 18.457 L 116.992 28.5156 C 116.992 33.0078 120.508 36.4746 125 36.4746 L 132.178 36.4746 C 136.719 36.4746 140.186 32.959 140.186 28.5156 L 140.186 -49.2188 L 143.115 -49.2188 C 146.24 -49.2188 148.047 -50.9766 148.047 -53.7598 L 148.047 -78.0273 C 148.047 -80.8105 146.24 -82.5684 143.115 -82.5684 L 140.186 -82.5684 L 140.186 -90.5273 C 140.186 -98.1445 135.693 -102.1 128.027 -103.027 C 114.648 -104.59 98.291 -105.371 82.0312 -105.371 C 65.7715 -105.371 49.4629 -104.59 36.084 -103.027 C 28.418 -102.1 23.9258 -98.1445 23.9258 -90.5273 L 23.9258 -82.5684 L 20.9961 -82.5684 C 17.8711 -82.5684 16.0645 -80.8105 16.0645 -78.0273 L 16.0645 -53.7598 C 16.0645 -50.9766 17.8711 -49.2188 20.9961 -49.2188 L 23.9258 -49.2188 L 23.9258 28.5156 C 23.9258 32.959 27.3926 36.4746 31.9336 36.4746 Z M 40.5273 -21.3867 C 36.7676 -21.8262 34.7656 -24.1211 34.7656 -28.0273 L 34.7656 -85.7422 C 34.7656 -89.9414 36.9141 -92.3828 40.9668 -92.7734 C 68.9453 -95.6055 95.6055 -95.5566 123.193 -92.7734 C 127.246 -92.3828 129.346 -89.9414 129.346 -85.7422 L 129.346 -28.0273 C 129.346 -24.1211 127.393 -21.8262 123.633 -21.3867 C 97.5586 -18.1641 66.0645 -18.2129 40.5273 -21.3867 Z M 45.2148 4.15039 C 41.2109 4.15039 38.2324 1.2207 38.2324 -2.7832 C 38.2324 -6.78711 41.2109 -9.76562 45.2148 -9.76562 C 49.2188 -9.76562 52.1484 -6.78711 52.1484 -2.7832 C 52.1484 1.2207 49.2188 4.15039 45.2148 4.15039 Z M 118.896 4.15039 C 114.941 4.15039 111.963 1.2207 111.963 -2.7832 C 111.963 -6.78711 114.941 -9.76562 118.896 -9.76562 C 122.9 -9.76562 125.879 -6.78711 125.879 -2.7832 C 125.879 1.2207 122.9 4.15039 118.896 4.15039 Z M 67.3828 1.95312 C 64.5508 1.95312 62.5488 0 62.5488 -2.88086 C 62.5488 -5.71289 64.5508 -7.66602 67.3828 -7.66602 L 96.3867 -7.66602 C 99.2188 -7.66602 101.221 -5.71289 101.221 -2.88086 C 101.221 0 99.2188 1.95312 96.3867 1.95312 Z"/>
  </g>
  <g id="Thin-L" transform="matrix(1 0 0 1 776.564 1556)">
   <path d="M 30.957 34.2285 L 37.9395 34.2285 C 42.2852 34.2285 45.7031 30.8594 45.7031 26.4648 L 45.7031 16.6504 C 56.3965 17.5293 67.8711 17.9688 79.7852 17.9688 C 91.6016 17.9688 103.271 17.5293 114.014 16.748 L 114.014 26.4648 C 114.014 30.8594 117.383 34.2285 121.777 34.2285 L 128.76 34.2285 C 133.154 34.2285 136.523 30.7617 136.523 26.4648 L 136.523 -50.7324 L 139.551 -50.7324 C 142.334 -50.7324 143.652 -52.1484 143.652 -54.541 L 143.652 -78.5156 C 143.652 -80.8594 142.334 -82.3242 139.551 -82.3242 L 136.523 -82.3242 L 136.523 -90.8203 C 136.523 -98.0957 132.227 -101.514 125.195 -102.344 C 111.768 -103.955 96.0938 -104.688 79.7852 -104.688 C 63.4277 -104.688 47.8027 -103.906 34.5215 -102.344 C 27.4902 -101.514 23.1934 -98.0957 23.1934 -90.8203 L 23.1934 -82.3242 L 20.166 -82.3242 C 17.3828 -82.3242 16.0645 -80.8594 16.0645 -78.5156 L 16.0645 -54.541 C 16.0645 -52.1484 17.3828 -50.7324 20.166 -50.7324 L 23.1934 -50.7324 L 23.1934 26.4648 C 23.1934 30.7617 26.5625 34.2285 30.957 34.2285 Z M 38.4766 -21.6309 C 35.1074 -21.9727 33.1543 -24.1699 33.1543 -27.6367 L 33.1543 -86.7188 C 33.1543 -90.2832 35.1074 -92.4805 38.5742 -92.8223 C 67.8223 -95.7031 92.4805 -95.6543 121.143 -92.8223 C 124.609 -92.4805 126.562 -90.2832 126.562 -86.7188 L 126.562 -27.6367 C 126.562 -24.1699 124.609 -21.9727 121.24 -21.6309 C 95.2637 -18.8965 63.7695 -18.9941 38.4766 -21.6309 Z M 43.7988 1.9043 C 40.2832 1.9043 37.6953 -0.634766 37.6953 -4.10156 C 37.6953 -7.61719 40.2832 -10.2051 43.7988 -10.2051 C 47.2656 -10.2051 49.8047 -7.61719 49.8047 -4.10156 C 49.8047 -0.634766 47.2656 1.9043 43.7988 1.9043 Z M 115.918 1.9043 C 112.402 1.9043 109.912 -0.634766 109.912 -4.10156 C 109.912 -7.61719 112.402 -10.2051 115.918 -10.2051 C 119.434 -10.2051 122.021 -7.61719 122.021 -4.10156 C 122.021 -0.634766 119.434 1.9043 115.918 1.9043 Z M 64.502 0.195312 C 61.9629 0.195312 60.2051 -1.5625 60.2051 -4.15039 C 60.2051 -6.68945 61.9629 -8.44727 64.502 -8.44727 L 94.6777 -8.44727 C 97.2656 -8.44727 98.9746 -6.68945 98.9746 -4.15039 C 98.9746 -1.5625 97.2656 0.195312 94.6777 0.195312 Z"/>
  </g>
  <g id="Ultralight-L" transform="matrix(1 0 0 1 480.976 1556)">
   <path d="M 30.4688 33.1055 L 37.3047 33.1055 C 41.6504 33.1055 44.9707 29.7363 44.9707 25.4395 L 44.9707 15.7715 C 55.2246 16.6504 66.5527 17.041 78.6621 17.041 C 90.625 17.041 102.148 16.6504 112.451 15.8691 L 112.451 25.4395 C 112.451 29.7363 115.82 33.1055 120.117 33.1055 L 127.002 33.1055 C 131.299 33.1055 134.668 29.6387 134.668 25.4395 L 134.668 -51.4648 L 137.744 -51.4648 C 140.332 -51.4648 141.406 -52.7832 141.406 -54.9316 L 141.406 -78.7109 C 141.406 -80.8594 140.332 -82.1777 137.744 -82.1777 L 134.668 -82.1777 L 134.668 -91.0156 C 134.668 -98.0469 130.469 -101.221 123.779 -102.002 C 110.352 -103.613 94.9707 -104.346 78.6621 -104.346 C 62.207 -104.346 46.9238 -103.516 33.6914 -102.002 C 27.002 -101.221 22.8027 -98.0469 22.8027 -91.0156 L 22.8027 -82.1777 L 19.7266 -82.1777 C 17.1387 -82.1777 16.0645 -80.8594 16.0645 -78.7109 L 16.0645 -54.9316 C 16.0645 -52.7832 17.1387 -51.4648 19.7266 -51.4648 L 22.8027 -51.4648 L 22.8027 25.4395 C 22.8027 29.6387 26.1719 33.1055 30.4688 33.1055 Z M 37.4512 -21.7285 C 34.2285 -22.0215 32.3242 -24.1699 32.3242 -27.4414 L 32.3242 -87.207 C 32.3242 -90.4297 34.1797 -92.5781 37.3535 -92.8711 C 67.2852 -95.752 90.8691 -95.7031 120.117 -92.8711 C 123.242 -92.5781 125.146 -90.4297 125.146 -87.207 L 125.146 -27.4414 C 125.146 -24.1699 123.242 -22.0215 120.02 -21.7285 C 94.043 -19.2871 62.6465 -19.3848 37.4512 -21.7285 Z M 43.0664 0.78125 C 39.7949 0.78125 37.4023 -1.5625 37.4023 -4.78516 C 37.4023 -8.05664 39.7949 -10.4492 43.0664 -10.4492 C 46.2891 -10.4492 48.6328 -8.05664 48.6328 -4.78516 C 48.6328 -1.5625 46.2891 0.78125 43.0664 0.78125 Z M 114.404 0.78125 C 111.133 0.78125 108.838 -1.5625 108.838 -4.78516 C 108.838 -8.05664 111.133 -10.4492 114.404 -10.4492 C 117.676 -10.4492 120.068 -8.05664 120.068 -4.78516 C 120.068 -1.5625 117.676 0.78125 114.404 0.78125 Z M 63.0371 -0.732422 C 60.5957 -0.732422 58.9844 -2.34375 58.9844 -4.78516 C 58.9844 -7.22656 60.5957 -8.83789 63.0371 -8.83789 L 93.7988 -8.83789 C 96.2402 -8.83789 97.8516 -7.22656 97.8516 -4.78516 C 97.8516 -2.34375 96.2402 -0.732422 93.7988 -0.732422 Z"/>
  </g>
  <g id="Black-M" transform="matrix(1 0 0 1 2855.1 1126)">
   <path d="M 33.6914 28.0762 L 40.1855 28.0762 C 47.168 28.0762 50.3906 24.9023 50.3906 17.9688 L 50.3906 12.2559 C 58.0566 12.8418 67.041 13.1348 78.2715 13.1348 C 89.502 13.1348 98.5352 12.8418 106.201 12.2559 L 106.201 17.9688 C 106.201 24.9023 109.375 28.0762 116.357 28.0762 L 122.852 28.0762 C 129.883 28.0762 133.057 24.9023 133.057 17.9688 L 133.057 -40.1855 L 135.449 -40.1855 C 140.332 -40.1855 144.141 -43.6035 144.141 -48.3887 L 144.141 -74.0723 C 144.141 -78.8574 140.332 -82.3242 135.449 -82.3242 L 133.057 -82.3242 L 133.057 -85.2539 C 133.057 -94.7266 128.125 -101.123 118.457 -102.783 C 108.984 -104.395 95.166 -105.078 78.2715 -105.078 C 61.1816 -105.078 47.5098 -104.541 38.1348 -102.783 C 28.4668 -100.928 23.5352 -94.5801 23.5352 -85.2539 L 23.5352 -82.3242 L 21.1426 -82.3242 C 16.2109 -82.3242 12.4512 -78.8574 12.4512 -74.0723 L 12.4512 -48.3887 C 12.4512 -43.6035 16.2109 -40.1855 21.1426 -40.1855 L 23.5352 -40.1855 L 23.5352 17.9688 C 23.5352 24.9023 26.709 28.0762 33.6914 28.0762 Z M 42.9199 -24.6094 C 39.6484 -25.3906 38.0859 -27.5391 38.0859 -31.6406 L 38.0859 -81.543 C 38.0859 -85.5469 39.6484 -87.7441 42.9199 -88.5254 C 55.4199 -91.4062 99.8535 -91.0645 113.672 -88.4277 C 116.943 -87.793 118.506 -85.6934 118.506 -81.543 L 118.506 -31.6406 C 118.506 -27.4414 116.943 -25.2441 113.623 -24.6582 C 99.1211 -22.2168 56.0547 -21.6309 42.9199 -24.6094 Z M 46.7285 -0.585938 C 42.9199 -0.585938 39.8926 -3.56445 39.8926 -7.37305 C 39.8926 -11.1816 42.9199 -14.1602 46.7285 -14.1602 C 50.4883 -14.1602 53.5156 -11.1816 53.5156 -7.37305 C 53.5156 -3.56445 50.4883 -0.585938 46.7285 -0.585938 Z M 109.863 -0.585938 C 106.055 -0.585938 103.076 -3.56445 103.076 -7.37305 C 103.076 -11.1816 106.055 -14.1602 109.863 -14.1602 C 113.672 -14.1602 116.65 -11.1816 116.65 -7.37305 C 116.65 -3.56445 113.672 -0.585938 109.863 -0.585938 Z M 67.8223 -1.85547 C 64.5508 -1.85547 62.1582 -4.24805 62.1582 -7.4707 C 62.1582 -10.6934 64.5508 -13.0371 67.8223 -13.0371 L 88.7695 -13.0371 C 91.9922 -13.0371 94.3848 -10.6934 94.3848 -7.4707 C 94.3848 -4.24805 91.9922 -1.85547 88.7695 -1.85547 Z"/>
  </g>
  <g id="Heavy-M" transform="matrix(1 0 0 1 2561.35 1126)">
   <path d="M 31.8359 26.8066 L 38.1348 26.8066 C 44.3359 26.8066 47.4609 23.7305 47.4609 17.5781 L 47.4609 11.2793 C 55.6152 11.9141 64.7461 12.1582 75.3418 12.1582 C 85.9375 12.1582 95.0684 11.9141 103.223 11.2793 L 103.223 17.5781 C 103.223 23.7305 106.348 26.8066 112.549 26.8066 L 118.896 26.8066 C 125.098 26.8066 128.174 23.7305 128.174 17.5781 L 128.174 -41.2109 L 130.518 -41.2109 C 134.912 -41.2109 138.232 -44.2383 138.232 -48.4863 L 138.232 -72.6074 C 138.232 -76.8555 134.912 -79.9316 130.518 -79.9316 L 128.174 -79.9316 L 128.174 -83.4961 C 128.174 -92.1875 123.535 -97.9492 114.6 -99.4141 C 104.932 -100.928 91.2109 -101.611 75.3418 -101.611 C 59.3262 -101.611 45.752 -101.025 36.1328 -99.4141 C 27.1484 -97.8027 22.5098 -92.0898 22.5098 -83.4961 L 22.5098 -79.9316 L 20.166 -79.9316 C 15.7715 -79.9316 12.4512 -76.8555 12.4512 -72.6074 L 12.4512 -48.4863 C 12.4512 -44.2383 15.7715 -41.2109 20.166 -41.2109 L 22.5098 -41.2109 L 22.5098 17.5781 C 22.5098 23.7305 25.5859 26.8066 31.8359 26.8066 Z M 40.7227 -24.5117 C 37.4023 -25.1953 35.8398 -27.3438 35.8398 -31.25 L 35.8398 -79.5898 C 35.8398 -83.6426 37.4512 -85.791 40.8691 -86.4258 C 55.1758 -89.1602 94.4824 -88.916 109.863 -86.377 C 113.232 -85.8398 114.844 -83.7402 114.844 -79.5898 L 114.844 -31.25 C 114.844 -27.2461 113.281 -25.0977 110.01 -24.5605 C 94.1406 -21.9727 55.4688 -21.5332 40.7227 -24.5117 Z M 44.2871 -1.02539 C 40.5273 -1.02539 37.5977 -3.95508 37.5977 -7.71484 C 37.5977 -11.4746 40.5273 -14.4043 44.2871 -14.4043 C 48.0469 -14.4043 50.9766 -11.4746 50.9766 -7.71484 C 50.9766 -3.95508 48.0469 -1.02539 44.2871 -1.02539 Z M 106.396 -1.02539 C 102.637 -1.02539 99.707 -3.95508 99.707 -7.71484 C 99.707 -11.4746 102.637 -14.4043 106.396 -14.4043 C 110.156 -14.4043 113.086 -11.4746 113.086 -7.71484 C 113.086 -3.95508 110.156 -1.02539 106.396 -1.02539 Z M 64.8438 -2.53906 C 61.7676 -2.53906 59.5215 -4.73633 59.5215 -7.76367 C 59.5215 -10.8398 61.7676 -13.0371 64.8438 -13.0371 L 85.8398 -13.0371 C 88.916 -13.0371 91.1621 -10.8398 91.1621 -7.76367 C 91.1621 -4.73633 88.916 -2.53906 85.8398 -2.53906 Z"/>
  </g>
  <g id="Bold-M" transform="matrix(1 0 0 1 2267.93 1126)">
   <path d="M 29.7363 25.3906 L 35.8398 25.3906 C 41.1621 25.3906 44.1895 22.3633 44.1895 17.0898 L 44.1895 10.1562 C 52.8809 10.8398 62.1582 11.1328 72.0703 11.1328 C 81.9336 11.1328 91.2598 10.8398 99.9512 10.1562 L 99.9512 17.0898 C 99.9512 22.3633 102.93 25.3906 108.252 25.3906 L 114.404 25.3906 C 119.727 25.3906 122.705 22.3633 122.705 17.0898 L 122.705 -42.3828 L 125 -42.3828 C 128.809 -42.3828 131.641 -44.9219 131.641 -48.6328 L 131.641 -70.9961 C 131.641 -74.6582 128.809 -77.2461 125 -77.2461 L 122.705 -77.2461 L 122.705 -81.4941 C 122.705 -89.3555 118.408 -94.3848 110.254 -95.6055 C 100.342 -97.0215 86.7676 -97.7051 72.0703 -97.7051 C 57.2754 -97.7051 43.7988 -97.1191 33.8379 -95.6055 C 25.7324 -94.2871 21.3867 -89.3066 21.3867 -81.4941 L 21.3867 -77.2461 L 19.1406 -77.2461 C 15.2832 -77.2461 12.4512 -74.6582 12.4512 -70.9961 L 12.4512 -48.6328 C 12.4512 -44.9219 15.2832 -42.3828 19.1406 -42.3828 L 21.3867 -42.3828 L 21.3867 17.0898 C 21.3867 22.3633 24.4141 25.3906 29.7363 25.3906 Z M 38.1836 -24.4141 C 34.9121 -25.0488 33.3496 -27.0508 33.3496 -30.8105 L 33.3496 -77.4414 C 33.3496 -81.4453 35.0586 -83.5938 38.5742 -84.1309 C 54.9805 -86.6699 88.5254 -86.4746 105.615 -84.1309 C 109.131 -83.5938 110.791 -81.4941 110.791 -77.4414 L 110.791 -30.8105 C 110.791 -27.002 109.229 -25 105.957 -24.4629 C 88.5254 -21.7285 54.7852 -21.4355 38.1836 -24.4141 Z M 41.6016 -1.51367 C 37.8906 -1.51367 35.0586 -4.39453 35.0586 -8.05664 C 35.0586 -11.7676 37.8906 -14.5996 41.6016 -14.5996 C 45.2637 -14.5996 48.1445 -11.7676 48.1445 -8.05664 C 48.1445 -4.39453 45.2637 -1.51367 41.6016 -1.51367 Z M 102.539 -1.51367 C 98.8281 -1.51367 95.9961 -4.39453 95.9961 -8.05664 C 95.9961 -11.7676 98.8281 -14.5996 102.539 -14.5996 C 106.201 -14.5996 109.082 -11.7676 109.082 -8.05664 C 109.082 -4.39453 106.201 -1.51367 102.539 -1.51367 Z M 61.4746 -3.22266 C 58.5938 -3.22266 56.543 -5.27344 56.543 -8.1543 C 56.543 -11.0352 58.5938 -13.0371 61.4746 -13.0371 L 82.5684 -13.0371 C 85.4492 -13.0371 87.5488 -11.0352 87.5488 -8.1543 C 87.5488 -5.27344 85.4492 -3.22266 82.5684 -3.22266 Z"/>
  </g>
  <g id="Semibold-M" transform="matrix(1 0 0 1 1973.47 1126)">
   <path d="M 28.2715 24.3652 L 34.2773 24.3652 C 38.9648 24.3652 41.8945 21.4355 41.8945 16.7969 L 41.8945 9.42383 C 50.9766 10.0586 60.3516 10.4004 69.7754 10.4004 C 79.1992 10.4004 88.5742 10.1074 97.6562 9.42383 L 97.6562 16.7969 C 97.6562 21.4355 100.586 24.3652 105.322 24.3652 L 111.328 24.3652 C 116.016 24.3652 118.945 21.4355 118.945 16.7969 L 118.945 -43.1641 L 121.191 -43.1641 C 124.609 -43.1641 127.148 -45.4102 127.148 -48.6816 L 127.148 -69.873 C 127.148 -73.1445 124.609 -75.3906 121.191 -75.3906 L 118.945 -75.3906 L 118.945 -80.127 C 118.945 -87.4512 114.844 -91.9434 107.275 -93.0176 C 97.2168 -94.3359 83.6914 -95.0195 69.7754 -95.0195 C 55.8105 -95.0195 42.4316 -94.3848 32.2754 -93.0176 C 24.707 -91.8945 20.6055 -87.4023 20.6055 -80.127 L 20.6055 -75.3906 L 18.4082 -75.3906 C 14.9414 -75.3906 12.4512 -73.1445 12.4512 -69.873 L 12.4512 -48.6816 C 12.4512 -45.4102 14.9414 -43.1641 18.4082 -43.1641 L 20.6055 -43.1641 L 20.6055 16.7969 C 20.6055 21.4355 23.5352 24.3652 28.2715 24.3652 Z M 36.4746 -24.3652 C 33.2031 -24.9512 31.6406 -26.8555 31.6406 -30.5176 L 31.6406 -75.9766 C 31.6406 -79.9316 33.3984 -82.0312 36.9629 -82.5684 C 54.7852 -84.9609 84.4238 -84.8145 102.686 -82.5195 C 106.25 -82.0801 107.959 -79.9805 107.959 -75.9766 L 107.959 -30.5176 C 107.959 -26.8555 106.396 -24.9023 103.125 -24.3652 C 84.7168 -21.5332 54.2969 -21.3379 36.4746 -24.3652 Z M 39.7461 -1.85547 C 36.084 -1.85547 33.252 -4.63867 33.252 -8.30078 C 33.252 -11.9629 36.084 -14.7949 39.7461 -14.7949 C 43.4082 -14.7949 46.1914 -11.9629 46.1914 -8.30078 C 46.1914 -4.63867 43.4082 -1.85547 39.7461 -1.85547 Z M 99.8535 -1.85547 C 96.1914 -1.85547 93.4082 -4.63867 93.4082 -8.30078 C 93.4082 -11.9629 96.1914 -14.7949 99.8535 -14.7949 C 103.516 -14.7949 106.299 -11.9629 106.299 -8.30078 C 106.299 -4.63867 103.516 -1.85547 99.8535 -1.85547 Z M 59.1797 -3.71094 C 56.4453 -3.71094 54.4922 -5.66406 54.4922 -8.39844 C 54.4922 -11.1816 56.4453 -13.0371 59.1797 -13.0371 L 80.3223 -13.0371 C 83.0566 -13.0371 85.0098 -11.1816 85.0098 -8.39844 C 85.0098 -5.66406 83.0566 -3.71094 80.3223 -3.71094 Z"/>
  </g>
  <g id="Medium-M" transform="matrix(1 0 0 1 1678.49 1126)">
   <path d="M 27.1973 23.6328 L 33.0566 23.6328 C 37.3047 23.6328 40.1855 20.752 40.1855 16.5527 L 40.1855 8.83789 C 49.5605 9.52148 58.9844 9.86328 68.0664 9.86328 C 77.1484 9.86328 86.5723 9.57031 95.9473 8.83789 L 95.9473 16.5527 C 95.9473 20.752 98.8281 23.6328 103.076 23.6328 L 108.984 23.6328 C 113.232 23.6328 116.113 20.752 116.113 16.5527 L 116.113 -43.75 L 118.311 -43.75 C 121.436 -43.75 123.682 -45.8008 123.682 -48.7305 L 123.682 -69.043 C 123.682 -72.0215 121.436 -74.0234 118.311 -74.0234 L 116.113 -74.0234 L 116.113 -79.1016 C 116.113 -85.9375 112.207 -90.0879 105.029 -91.0156 C 94.8242 -92.2852 81.3965 -92.9688 68.0664 -92.9688 C 54.7363 -92.9688 41.4062 -92.334 31.1035 -91.0156 C 23.9746 -90.0391 20.0195 -85.9375 20.0195 -79.1016 L 20.0195 -74.0234 L 17.8223 -74.0234 C 14.6973 -74.0234 12.4512 -72.0215 12.4512 -69.043 L 12.4512 -48.7305 C 12.4512 -45.8008 14.6973 -43.75 17.8223 -43.75 L 20.0195 -43.75 L 20.0195 16.5527 C 20.0195 20.752 22.9004 23.6328 27.1973 23.6328 Z M 35.1562 -24.3164 C 31.9336 -24.8535 30.3223 -26.7578 30.3223 -30.3223 L 30.3223 -74.8535 C 30.3223 -78.8086 32.1289 -80.9082 35.7422 -81.3477 C 54.6875 -83.6426 81.2988 -83.5449 100.488 -81.3477 C 104.102 -80.9082 105.859 -78.8086 105.859 -74.8535 L 105.859 -30.3223 C 105.859 -26.709 104.248 -24.8047 101.025 -24.3164 C 81.7871 -21.3867 53.9551 -21.2891 35.1562 -24.3164 Z M 38.3301 -2.14844 C 34.668 -2.14844 31.9336 -4.88281 31.9336 -8.49609 C 31.9336 -12.1582 34.668 -14.8926 38.3301 -14.8926 C 41.9434 -14.8926 44.6777 -12.1582 44.6777 -8.49609 C 44.6777 -4.88281 41.9434 -2.14844 38.3301 -2.14844 Z M 97.8516 -2.14844 C 94.1895 -2.14844 91.4551 -4.88281 91.4551 -8.49609 C 91.4551 -12.1582 94.1895 -14.8926 97.8516 -14.8926 C 101.465 -14.8926 104.248 -12.1582 104.248 -8.49609 C 104.248 -4.88281 101.465 -2.14844 97.8516 -2.14844 Z M 57.4219 -4.10156 C 54.7852 -4.10156 52.9297 -5.95703 52.9297 -8.59375 C 52.9297 -11.2305 54.7852 -13.0371 57.4219 -13.0371 L 78.6133 -13.0371 C 81.25 -13.0371 83.1543 -11.2305 83.1543 -8.59375 C 83.1543 -5.95703 81.25 -4.10156 78.6133 -4.10156 Z"/>
  </g>
  <g id="Regular-M" transform="matrix(1 0 0 1 1384.02 1126)">
   <path d="M 25.7324 22.6562 L 31.4941 22.6562 C 35.1562 22.6562 37.9883 19.8242 37.9883 16.2109 L 37.9883 8.10547 C 47.6562 8.78906 57.2266 9.13086 65.8203 9.13086 C 74.4141 9.13086 83.9844 8.83789 93.7012 8.10547 L 93.7012 16.2109 C 93.7012 19.8242 96.4844 22.6562 100.146 22.6562 L 105.908 22.6562 C 109.57 22.6562 112.402 19.8242 112.402 16.2109 L 112.402 -44.5801 L 114.551 -44.5801 C 117.285 -44.5801 119.189 -46.2402 119.189 -48.8281 L 119.189 -67.9199 C 119.189 -70.5078 117.285 -72.2168 114.551 -72.2168 L 112.402 -72.2168 L 112.402 -77.7344 C 112.402 -84.0332 108.691 -87.6465 102.1 -88.4277 C 91.6992 -89.6484 78.3691 -90.2832 65.8203 -90.2832 C 53.3691 -90.2832 40.0391 -89.6484 29.5898 -88.4277 C 22.9492 -87.6465 19.2871 -84.0332 19.2871 -77.7344 L 19.2871 -72.2168 L 17.0898 -72.2168 C 14.3555 -72.2168 12.4512 -70.5078 12.4512 -67.9199 L 12.4512 -48.8281 C 12.4512 -46.2402 14.3555 -44.5801 17.0898 -44.5801 L 19.2871 -44.5801 L 19.2871 16.2109 C 19.2871 19.8242 22.0703 22.6562 25.7324 22.6562 Z M 33.4473 -24.2188 C 30.2246 -24.7559 28.6133 -26.5625 28.6133 -30.0293 L 28.6133 -73.3887 C 28.6133 -77.2949 30.4688 -79.3945 34.1797 -79.7852 C 54.541 -81.9336 77.2461 -81.9336 97.5586 -79.7852 C 101.318 -79.3945 103.076 -77.2949 103.076 -73.3887 L 103.076 -30.0293 C 103.076 -26.5625 101.514 -24.7559 98.2422 -24.2188 C 77.9785 -21.2402 53.5156 -21.2402 33.4473 -24.2188 Z M 36.4746 -2.44141 C 32.8613 -2.44141 30.1758 -5.17578 30.1758 -8.74023 C 30.1758 -12.3535 32.8613 -15.0391 36.4746 -15.0391 C 40.0879 -15.0391 42.7734 -12.3535 42.7734 -8.74023 C 42.7734 -5.17578 40.0879 -2.44141 36.4746 -2.44141 Z M 95.166 -2.44141 C 91.6016 -2.44141 88.916 -5.17578 88.916 -8.74023 C 88.916 -12.3535 91.6016 -15.0391 95.166 -15.0391 C 98.7793 -15.0391 101.514 -12.3535 101.514 -8.74023 C 101.514 -5.17578 98.7793 -2.44141 95.166 -2.44141 Z M 55.1758 -4.58984 C 52.6367 -4.58984 50.8789 -6.34766 50.8789 -8.83789 C 50.8789 -11.377 52.6367 -13.0859 55.1758 -13.0859 L 76.416 -13.0859 C 78.9062 -13.0859 80.6641 -11.377 80.6641 -8.83789 C 80.6641 -6.34766 78.9062 -4.58984 76.416 -4.58984 Z"/>
  </g>
  <g id="Light-M" transform="matrix(1 0 0 1 1088.8 1126)">
   <path d="M 25.0977 21.0938 L 30.7129 21.0938 C 34.2773 21.0938 37.0117 18.3594 37.0117 14.8438 L 37.0117 6.93359 C 46.1914 7.61719 55.4688 7.95898 64.3066 7.95898 C 73.0957 7.95898 82.4707 7.61719 91.6504 6.93359 L 91.6504 14.8438 C 91.6504 18.3594 94.4336 21.0938 97.998 21.0938 L 103.613 21.0938 C 107.129 21.0938 109.912 18.3594 109.912 14.8438 L 109.912 -45.5566 L 112.158 -45.5566 C 114.648 -45.5566 116.211 -47.0703 116.211 -49.3652 L 116.211 -68.2617 C 116.211 -70.5566 114.648 -72.0215 112.158 -72.0215 L 109.912 -72.0215 L 109.912 -77.9785 C 109.912 -83.9844 106.348 -87.2559 100.146 -87.9883 C 89.7949 -89.209 76.9043 -89.8438 64.3066 -89.8438 C 51.7578 -89.8438 38.916 -89.209 28.5156 -87.9883 C 22.3633 -87.2559 18.7988 -83.9844 18.7988 -77.9785 L 18.7988 -72.0215 L 16.5527 -72.0215 C 14.0137 -72.0215 12.4512 -70.5566 12.4512 -68.2617 L 12.4512 -49.3652 C 12.4512 -47.0703 14.0137 -45.5566 16.5527 -45.5566 L 18.7988 -45.5566 L 18.7988 14.8438 C 18.7988 18.3594 21.5332 21.0938 25.0977 21.0938 Z M 32.0801 -24.4141 C 29.0527 -24.8047 27.4902 -26.6113 27.4902 -29.7852 L 27.4902 -74.0234 C 27.4902 -77.5391 29.248 -79.4922 32.5684 -79.834 C 53.8086 -81.9824 75.1465 -81.9824 96.1914 -79.834 C 99.5117 -79.4922 101.221 -77.5391 101.221 -74.0234 L 101.221 -29.7852 C 101.221 -26.6113 99.6582 -24.8047 96.6309 -24.4141 C 76.416 -21.7285 51.9531 -21.7773 32.0801 -24.4141 Z M 35.498 -3.95508 C 32.2266 -3.95508 29.7852 -6.39648 29.7852 -9.66797 C 29.7852 -12.8906 32.2266 -15.3809 35.498 -15.3809 C 38.7695 -15.3809 41.2109 -12.8906 41.2109 -9.66797 C 41.2109 -6.39648 38.7695 -3.95508 35.498 -3.95508 Z M 93.1641 -3.95508 C 89.8926 -3.95508 87.5 -6.39648 87.5 -9.66797 C 87.5 -12.8906 89.8926 -15.3809 93.1641 -15.3809 C 96.4355 -15.3809 98.877 -12.8906 98.877 -9.66797 C 98.877 -6.39648 96.4355 -3.95508 93.1641 -3.95508 Z M 53.2227 -5.81055 C 50.8789 -5.81055 49.3164 -7.37305 49.3164 -9.7168 C 49.3164 -12.0117 50.8789 -13.623 53.2227 -13.623 L 75.2441 -13.623 C 77.5879 -13.623 79.1504 -12.0117 79.1504 -9.7168 C 79.1504 -7.37305 77.5879 -5.81055 75.2441 -5.81055 Z"/>
  </g>
  <g id="Thin-M" transform="matrix(1 0 0 1 794.044 1126)">
   <path d="M 24.2188 19.0918 L 29.6387 19.0918 C 33.0566 19.0918 35.7422 16.4551 35.7422 13.0371 L 35.7422 5.37109 C 44.1895 6.05469 53.1738 6.34766 62.3047 6.34766 C 71.3867 6.34766 80.5176 6.05469 89.0137 5.41992 L 89.0137 13.0371 C 89.0137 16.4551 91.6504 19.0918 95.0684 19.0918 L 100.537 19.0918 C 103.955 19.0918 106.592 16.4062 106.592 13.0371 L 106.592 -46.9238 L 108.936 -46.9238 C 111.133 -46.9238 112.305 -48.0957 112.305 -50 L 112.305 -68.6523 C 112.305 -70.5566 111.133 -71.7773 108.936 -71.7773 L 106.592 -71.7773 L 106.592 -78.2715 C 106.592 -83.9355 103.223 -86.7188 97.6562 -87.4023 C 87.2559 -88.623 74.9512 -89.209 62.3047 -89.209 C 49.6582 -89.209 37.4023 -88.5742 27.0996 -87.4023 C 21.4844 -86.7188 18.1152 -83.9355 18.1152 -78.2715 L 18.1152 -71.7773 L 15.7715 -71.7773 C 13.5742 -71.7773 12.4512 -70.5566 12.4512 -68.6523 L 12.4512 -50 C 12.4512 -48.0957 13.5742 -46.9238 15.7715 -46.9238 L 18.1152 -46.9238 L 18.1152 13.0371 C 18.1152 16.4062 20.8008 19.0918 24.2188 19.0918 Z M 30.2734 -24.6094 C 27.5391 -24.9023 26.0254 -26.6602 26.0254 -29.4434 L 26.0254 -74.9023 C 26.0254 -77.832 27.5879 -79.5898 30.4199 -79.8828 C 52.7832 -82.0801 72.3633 -82.0312 94.3359 -79.8828 C 97.1191 -79.5898 98.6816 -77.832 98.6816 -74.9023 L 98.6816 -29.4434 C 98.6816 -26.6602 97.168 -24.9023 94.4824 -24.6094 C 74.3164 -22.4121 49.9512 -22.4609 30.2734 -24.6094 Z M 34.2285 -5.95703 C 31.3965 -5.95703 29.2969 -8.00781 29.2969 -10.8398 C 29.2969 -13.6719 31.3965 -15.7715 34.2285 -15.7715 C 37.0605 -15.7715 39.1113 -13.6719 39.1113 -10.8398 C 39.1113 -8.00781 37.0605 -5.95703 34.2285 -5.95703 Z M 90.4785 -5.95703 C 87.6465 -5.95703 85.6445 -8.00781 85.6445 -10.8398 C 85.6445 -13.6719 87.6465 -15.7715 90.4785 -15.7715 C 93.3105 -15.7715 95.4102 -13.6719 95.4102 -10.8398 C 95.4102 -8.00781 93.3105 -5.95703 90.4785 -5.95703 Z M 50.6348 -7.37305 C 48.584 -7.37305 47.168 -8.78906 47.168 -10.8398 C 47.168 -12.8906 48.584 -14.3066 50.6348 -14.3066 L 73.7305 -14.3066 C 75.7812 -14.3066 77.1973 -12.8906 77.1973 -10.8398 C 77.1973 -8.78906 75.7812 -7.37305 73.7305 -7.37305 Z"/>
  </g>
  <g id="Ultralight-M" transform="matrix(1 0 0 1 498.359 1126)">
   <path d="M 23.7793 18.0664 L 29.1016 18.0664 C 32.4707 18.0664 35.1074 15.4297 35.1074 12.1094 L 35.1074 4.54102 C 43.1641 5.22461 52.002 5.56641 61.2793 5.56641 C 70.5078 5.56641 79.4922 5.22461 87.6465 4.63867 L 87.6465 12.1094 C 87.6465 15.4297 90.2344 18.0664 93.6035 18.0664 L 98.9746 18.0664 C 102.295 18.0664 104.932 15.3809 104.932 12.1094 L 104.932 -47.6074 L 107.324 -47.6074 C 109.326 -47.6074 110.254 -48.6328 110.254 -50.3906 L 110.254 -68.8477 C 110.254 -70.6055 109.326 -71.6309 107.324 -71.6309 L 104.932 -71.6309 L 104.932 -78.418 C 104.932 -83.9355 101.611 -86.4746 96.3379 -87.1094 C 85.9375 -88.3301 73.9258 -88.916 61.2793 -88.916 C 48.584 -88.916 36.6211 -88.2812 26.3672 -87.1094 C 21.0938 -86.4746 17.7734 -83.9355 17.7734 -78.418 L 17.7734 -71.6309 L 15.4297 -71.6309 C 13.3789 -71.6309 12.4512 -70.6055 12.4512 -68.8477 L 12.4512 -50.3906 C 12.4512 -48.6328 13.3789 -47.6074 15.4297 -47.6074 L 17.7734 -47.6074 L 17.7734 12.1094 C 17.7734 15.3809 20.4102 18.0664 23.7793 18.0664 Z M 29.3457 -24.7559 C 26.8066 -25 25.293 -26.6602 25.293 -29.248 L 25.293 -75.3906 C 25.293 -77.9785 26.7578 -79.6387 29.2969 -79.8828 C 52.2949 -82.1289 70.8984 -82.0801 93.4082 -79.8828 C 95.9473 -79.6387 97.4121 -77.9785 97.4121 -75.3906 L 97.4121 -29.248 C 97.4121 -26.6602 95.9473 -25 93.3594 -24.7559 C 73.2422 -22.7539 48.877 -22.8027 29.3457 -24.7559 Z M 33.5938 -6.98242 C 31.0059 -6.98242 29.0527 -8.83789 29.0527 -11.4258 C 29.0527 -14.0625 31.0059 -15.9668 33.5938 -15.9668 C 36.1816 -15.9668 38.0371 -14.0625 38.0371 -11.4258 C 38.0371 -8.83789 36.1816 -6.98242 33.5938 -6.98242 Z M 89.1113 -6.98242 C 86.5234 -6.98242 84.668 -8.83789 84.668 -11.4258 C 84.668 -14.0625 86.5234 -15.9668 89.1113 -15.9668 C 91.6992 -15.9668 93.6523 -14.0625 93.6523 -11.4258 C 93.6523 -8.83789 91.6992 -6.98242 89.1113 -6.98242 Z M 49.3164 -8.20312 C 47.3633 -8.20312 46.0938 -9.52148 46.0938 -11.4258 C 46.0938 -13.3789 47.3633 -14.6484 49.3164 -14.6484 L 72.9492 -14.6484 C 74.9023 -14.6484 76.1719 -13.3789 76.1719 -11.4258 C 76.1719 -9.52148 74.9023 -8.20312 72.9492 -8.20312 Z"/>
  </g>
  <g id="Black-S" transform="matrix(1 0 0 1 2872.27 696)">
   <path d="M 26.2695 14.3066 L 31.3477 14.3066 C 36.7676 14.3066 39.2578 11.8164 39.2578 6.44531 L 39.2578 1.9043 C 45.3125 2.39258 52.3926 2.58789 61.1328 2.58789 C 69.873 2.58789 76.9531 2.39258 83.0078 1.9043 L 83.0078 6.44531 C 83.0078 11.8164 85.498 14.3066 90.918 14.3066 L 95.9961 14.3066 C 101.416 14.3066 103.906 11.8164 103.906 6.44531 L 103.906 -39.1602 L 105.762 -39.1602 C 109.57 -39.1602 112.5 -41.8457 112.5 -45.5566 L 112.5 -65.5273 C 112.5 -69.2383 109.57 -71.9238 105.762 -71.9238 L 103.906 -71.9238 L 103.906 -74.2676 C 103.906 -81.6406 100.049 -86.6211 92.5293 -87.8906 C 85.1074 -89.1602 74.2676 -89.6973 61.1328 -89.6973 C 47.8027 -89.6973 37.1094 -89.2578 29.7363 -87.8906 C 22.2168 -86.4746 18.3594 -81.543 18.3594 -74.2676 L 18.3594 -71.9238 L 16.5039 -71.9238 C 12.6953 -71.9238 9.76562 -69.2383 9.76562 -65.5273 L 9.76562 -45.5566 C 9.76562 -41.8457 12.6953 -39.1602 16.5039 -39.1602 L 18.3594 -39.1602 L 18.3594 6.44531 C 18.3594 11.8164 20.8496 14.3066 26.2695 14.3066 Z M 33.4961 -26.9043 C 30.9082 -27.4902 29.6875 -29.1992 29.6875 -32.373 L 29.6875 -71.3379 C 29.6875 -74.5117 30.9082 -76.2207 33.4961 -76.8066 C 43.4082 -79.0527 77.832 -78.8086 88.7695 -76.7578 C 91.3574 -76.2695 92.5781 -74.6094 92.5781 -71.3379 L 92.5781 -32.373 C 92.5781 -29.1016 91.3574 -27.3926 88.7695 -26.9531 C 77.2949 -25 43.8965 -24.5605 33.4961 -26.9043 Z M 36.4258 -8.10547 C 33.4473 -8.10547 31.1035 -10.4492 31.1035 -13.4277 C 31.1035 -16.4062 33.4473 -18.75 36.4258 -18.75 C 39.4043 -18.75 41.748 -16.4062 41.748 -13.4277 C 41.748 -10.4492 39.4043 -8.10547 36.4258 -8.10547 Z M 85.8398 -8.10547 C 82.8613 -8.10547 80.5176 -10.4492 80.5176 -13.4277 C 80.5176 -16.4062 82.8613 -18.75 85.8398 -18.75 C 88.8184 -18.75 91.1621 -16.4062 91.1621 -13.4277 C 91.1621 -10.4492 88.8184 -8.10547 85.8398 -8.10547 Z M 52.9297 -9.13086 C 50.3906 -9.13086 48.5352 -10.9863 48.5352 -13.4766 C 48.5352 -16.0156 50.3906 -17.8223 52.9297 -17.8223 L 69.3359 -17.8223 C 71.875 -17.8223 73.7305 -16.0156 73.7305 -13.4766 C 73.7305 -10.9863 71.875 -9.13086 69.3359 -9.13086 Z"/>
  </g>
  <g id="Heavy-S" transform="matrix(1 0 0 1 2577.63 696)">
   <path d="M 24.9023 13.4766 L 29.8828 13.4766 C 34.7168 13.4766 37.1094 11.084 37.1094 6.29883 L 37.1094 1.26953 C 43.6035 1.80664 50.8301 2.00195 59.0332 2.00195 C 67.2852 2.00195 74.5117 1.80664 80.957 1.26953 L 80.957 6.29883 C 80.957 11.084 83.3984 13.4766 88.2324 13.4766 L 93.2129 13.4766 C 97.998 13.4766 100.439 11.0352 100.439 6.29883 L 100.439 -39.8438 L 102.246 -39.8438 C 105.713 -39.8438 108.35 -42.2363 108.35 -45.5566 L 108.35 -64.4043 C 108.35 -67.7246 105.713 -70.1172 102.246 -70.1172 L 100.439 -70.1172 L 100.439 -72.9004 C 100.439 -79.7363 96.8262 -84.2285 89.7949 -85.3516 C 82.2266 -86.5234 71.3867 -87.0605 59.0332 -87.0605 C 46.582 -87.0605 35.8887 -86.6211 28.3203 -85.3516 C 21.2891 -84.1309 17.627 -79.6387 17.627 -72.9004 L 17.627 -70.1172 L 15.8203 -70.1172 C 12.4023 -70.1172 9.76562 -67.7246 9.76562 -64.4043 L 9.76562 -45.5566 C 9.76562 -42.2363 12.4023 -39.8438 15.8203 -39.8438 L 17.627 -39.8438 L 17.627 6.29883 C 17.627 11.0352 20.0684 13.4766 24.9023 13.4766 Z M 31.9336 -26.8066 C 29.3457 -27.3438 28.125 -29.0039 28.125 -32.1289 L 28.125 -69.7754 C 28.125 -72.998 29.3945 -74.707 32.0801 -75.2441 C 43.3105 -77.3438 73.9746 -77.1484 86.0352 -75.1953 C 88.7207 -74.7559 89.9902 -73.0957 89.9902 -69.7754 L 89.9902 -32.1289 C 89.9902 -28.9551 88.7695 -27.2949 86.1816 -26.8555 C 73.6328 -24.7559 43.6035 -24.4141 31.9336 -26.8066 Z M 34.668 -8.25195 C 31.6895 -8.25195 29.3945 -10.5957 29.3945 -13.5742 C 29.3945 -16.5527 31.6895 -18.8965 34.668 -18.8965 C 37.6465 -18.8965 39.9902 -16.5527 39.9902 -13.5742 C 39.9902 -10.5957 37.6465 -8.25195 34.668 -8.25195 Z M 83.3984 -8.25195 C 80.4199 -8.25195 78.125 -10.5957 78.125 -13.5742 C 78.125 -16.5527 80.4199 -18.8965 83.3984 -18.8965 C 86.377 -18.8965 88.7207 -16.5527 88.7207 -13.5742 C 88.7207 -10.5957 86.377 -8.25195 83.3984 -8.25195 Z M 50.8789 -9.47266 C 48.4375 -9.47266 46.6797 -11.2305 46.6797 -13.623 C 46.6797 -16.0645 48.4375 -17.7734 50.8789 -17.7734 L 67.2363 -17.7734 C 69.6777 -17.7734 71.4355 -16.0645 71.4355 -13.623 C 71.4355 -11.2305 69.6777 -9.47266 67.2363 -9.47266 Z"/>
  </g>
  <g id="Bold-S" transform="matrix(1 0 0 1 2283.26 696)">
   <path d="M 23.3887 12.5977 L 28.2227 12.5977 C 32.373 12.5977 34.7168 10.2051 34.7168 6.10352 L 34.7168 0.585938 C 41.6992 1.12305 49.0234 1.36719 56.7383 1.36719 C 64.4043 1.36719 71.7285 1.12305 78.7109 0.585938 L 78.7109 6.10352 C 78.7109 10.2051 81.0547 12.5977 85.2539 12.5977 L 90.0391 12.5977 C 94.2383 12.5977 96.582 10.2051 96.582 6.10352 L 96.582 -40.625 L 98.3398 -40.625 C 101.367 -40.625 103.662 -42.6758 103.662 -45.6055 L 103.662 -63.1348 C 103.662 -66.0645 101.367 -68.1152 98.3398 -68.1152 L 96.582 -68.1152 L 96.582 -71.3379 C 96.582 -77.5391 93.1641 -81.543 86.7188 -82.5195 C 78.9551 -83.5938 68.2129 -84.1309 56.7383 -84.1309 C 45.166 -84.1309 34.5215 -83.6914 26.709 -82.5195 C 20.2637 -81.4941 16.8457 -77.4902 16.8457 -71.3379 L 16.8457 -68.1152 L 15.0879 -68.1152 C 12.0605 -68.1152 9.76562 -66.0645 9.76562 -63.1348 L 9.76562 -45.6055 C 9.76562 -42.6758 12.0605 -40.625 15.0879 -40.625 L 16.8457 -40.625 L 16.8457 6.10352 C 16.8457 10.2051 19.2383 12.5977 23.3887 12.5977 Z M 30.1758 -26.709 C 27.5879 -27.2461 26.3184 -28.8086 26.3184 -31.8359 L 26.3184 -68.0664 C 26.3184 -71.2891 27.6855 -72.998 30.5176 -73.4863 C 43.2617 -75.4395 69.6777 -75.293 82.959 -73.4375 C 85.791 -73.0469 87.1582 -71.3379 87.1582 -68.0664 L 87.1582 -31.8359 C 87.1582 -28.7598 85.8887 -27.1973 83.252 -26.7578 C 69.5801 -24.5117 43.3105 -24.2676 30.1758 -26.709 Z M 32.7148 -8.44727 C 29.7852 -8.44727 27.4414 -10.7422 27.4414 -13.7207 C 27.4414 -16.6992 29.7852 -18.9941 32.7148 -18.9941 C 35.6934 -18.9941 38.0371 -16.6992 38.0371 -13.7207 C 38.0371 -10.7422 35.6934 -8.44727 32.7148 -8.44727 Z M 80.7129 -8.44727 C 77.7344 -8.44727 75.4395 -10.7422 75.4395 -13.7207 C 75.4395 -16.6992 77.7344 -18.9941 80.7129 -18.9941 C 83.6914 -18.9941 85.9863 -16.6992 85.9863 -13.7207 C 85.9863 -10.7422 83.6914 -8.44727 80.7129 -8.44727 Z M 48.5352 -9.86328 C 46.2402 -9.86328 44.5801 -11.5234 44.5801 -13.8184 C 44.5801 -16.1133 46.2402 -17.7246 48.5352 -17.7246 L 64.8926 -17.7246 C 67.1875 -17.7246 68.8477 -16.1133 68.8477 -13.8184 C 68.8477 -11.5234 67.1875 -9.86328 64.8926 -9.86328 Z"/>
  </g>
  <g id="Semibold-S" transform="matrix(1 0 0 1 1988.16 696)">
   <path d="M 22.3145 11.9629 L 27.0508 11.9629 C 30.7617 11.9629 33.1055 9.61914 33.1055 5.95703 L 33.1055 0.0976562 C 40.3809 0.634766 47.8027 0.878906 55.127 0.878906 C 62.4023 0.878906 69.8242 0.683594 77.1484 0.0976562 L 77.1484 5.95703 C 77.1484 9.61914 79.4434 11.9629 83.1543 11.9629 L 87.8906 11.9629 C 91.6016 11.9629 93.8965 9.61914 93.8965 5.95703 L 93.8965 -41.1133 L 95.6543 -41.1133 C 98.3887 -41.1133 100.439 -42.9688 100.439 -45.6055 L 100.439 -62.207 C 100.439 -64.8926 98.3887 -66.6992 95.6543 -66.6992 L 93.8965 -66.6992 L 93.8965 -70.3125 C 93.8965 -76.0742 90.6738 -79.7363 84.6191 -80.5664 C 76.709 -81.5918 65.9668 -82.1289 55.127 -82.1289 C 44.2383 -82.1289 33.5938 -81.6406 25.6348 -80.5664 C 19.5312 -79.6875 16.3086 -76.0254 16.3086 -70.3125 L 16.3086 -66.6992 L 14.5996 -66.6992 C 11.8164 -66.6992 9.76562 -64.8926 9.76562 -62.207 L 9.76562 -45.6055 C 9.76562 -42.9688 11.8164 -41.1133 14.5996 -41.1133 L 16.3086 -41.1133 L 16.3086 5.95703 C 16.3086 9.61914 18.6035 11.9629 22.3145 11.9629 Z M 29.0039 -26.6602 C 26.3672 -27.1484 25.0977 -28.6621 25.0977 -31.5918 L 25.0977 -66.8945 C 25.0977 -70.1172 26.5137 -71.8262 29.4434 -72.2656 C 43.2129 -74.1211 66.6992 -74.0234 80.8105 -72.2168 C 83.7891 -71.8262 85.1562 -70.166 85.1562 -66.8945 L 85.1562 -31.5918 C 85.1562 -28.6621 83.8867 -27.0996 81.25 -26.6602 C 66.748 -24.3164 43.0664 -24.1699 29.0039 -26.6602 Z M 31.3965 -8.59375 C 28.418 -8.59375 26.123 -10.8887 26.123 -13.8672 C 26.123 -16.8457 28.418 -19.0918 31.3965 -19.0918 C 34.375 -19.0918 36.6699 -16.8457 36.6699 -13.8672 C 36.6699 -10.8887 34.375 -8.59375 31.3965 -8.59375 Z M 78.8086 -8.59375 C 75.8789 -8.59375 73.584 -10.8887 73.584 -13.8672 C 73.584 -16.8457 75.8789 -19.0918 78.8086 -19.0918 C 81.7871 -19.0918 84.082 -16.8457 84.082 -13.8672 C 84.082 -10.8887 81.7871 -8.59375 78.8086 -8.59375 Z M 46.9727 -10.1562 C 44.7266 -10.1562 43.1641 -11.7188 43.1641 -13.916 C 43.1641 -16.1621 44.7266 -17.6758 46.9727 -17.6758 L 63.2324 -17.6758 C 65.4785 -17.6758 67.041 -16.1621 67.041 -13.916 C 67.041 -11.7188 65.4785 -10.1562 63.2324 -10.1562 Z"/>
  </g>
  <g id="Medium-S" transform="matrix(1 0 0 1 1692.65 696)">
   <path d="M 21.5332 11.4746 L 26.2207 11.4746 C 29.5898 11.4746 31.8359 9.17969 31.8359 5.85938 L 31.8359 -0.244141 C 39.4043 0.292969 46.875 0.537109 53.9062 0.537109 C 60.8887 0.537109 68.4082 0.341797 75.9277 -0.244141 L 75.9277 5.85938 C 75.9277 9.17969 78.2227 11.4746 81.5918 11.4746 L 86.2305 11.4746 C 89.5996 11.4746 91.8945 9.17969 91.8945 5.85938 L 91.8945 -41.5527 L 93.6035 -41.5527 C 96.1426 -41.5527 98.0469 -43.1641 98.0469 -45.6055 L 98.0469 -61.5723 C 98.0469 -64.0137 96.1426 -65.6738 93.6035 -65.6738 L 91.8945 -65.6738 L 91.8945 -69.4824 C 91.8945 -74.9512 88.7695 -78.3203 83.0078 -79.0527 C 75 -80.0781 64.3066 -80.5664 53.9062 -80.5664 C 43.5059 -80.5664 32.8613 -80.127 24.8047 -79.0527 C 18.9941 -78.3203 15.918 -74.9512 15.918 -69.4824 L 15.918 -65.6738 L 14.209 -65.6738 C 11.6699 -65.6738 9.76562 -64.0137 9.76562 -61.5723 L 9.76562 -45.6055 C 9.76562 -43.1641 11.6699 -41.5527 14.209 -41.5527 L 15.918 -41.5527 L 15.918 5.85938 C 15.918 9.17969 18.1641 11.4746 21.5332 11.4746 Z M 28.0762 -26.6113 C 25.4395 -27.0508 24.1699 -28.5645 24.1699 -31.4453 L 24.1699 -65.9668 C 24.1699 -69.2383 25.6348 -70.9473 28.6621 -71.3379 C 43.1641 -73.0957 64.4531 -73.0469 79.1992 -71.3379 C 82.2266 -70.9473 83.6426 -69.2871 83.6426 -65.9668 L 83.6426 -31.4453 C 83.6426 -28.5645 82.373 -27.0508 79.7363 -26.6113 C 64.6484 -24.1699 42.9199 -24.1211 28.0762 -26.6113 Z M 30.3711 -8.69141 C 27.3926 -8.69141 25.1465 -10.9863 25.1465 -13.9648 C 25.1465 -16.8945 27.3926 -19.1895 30.3711 -19.1895 C 33.3496 -19.1895 35.6445 -16.8945 35.6445 -13.9648 C 35.6445 -10.9863 33.3496 -8.69141 30.3711 -8.69141 Z M 77.3926 -8.69141 C 74.4141 -8.69141 72.168 -10.9863 72.168 -13.9648 C 72.168 -16.8945 74.4141 -19.1895 77.3926 -19.1895 C 80.3711 -19.1895 82.666 -16.8945 82.666 -13.9648 C 82.666 -10.9863 80.3711 -8.69141 77.3926 -8.69141 Z M 45.752 -10.3516 C 43.6035 -10.3516 42.0898 -11.8652 42.0898 -14.0137 C 42.0898 -16.1621 43.6035 -17.627 45.752 -17.627 L 62.0117 -17.627 C 64.1602 -17.627 65.6738 -16.1621 65.6738 -14.0137 C 65.6738 -11.8652 64.1602 -10.3516 62.0117 -10.3516 Z"/>
  </g>
  <g id="Regular-S" transform="matrix(1 0 0 1 1397.53 696)">
   <path d="M 20.5078 10.8398 L 25.0488 10.8398 C 27.9785 10.8398 30.2246 8.59375 30.2246 5.76172 L 30.2246 -0.732422 C 38.0859 -0.195312 45.6543 0.0976562 52.2949 0.0976562 C 58.9355 0.0976562 66.5039 -0.146484 74.4141 -0.732422 L 74.4141 5.76172 C 74.4141 8.59375 76.6113 10.8398 79.541 10.8398 L 84.1309 10.8398 C 87.0117 10.8398 89.2578 8.59375 89.2578 5.76172 L 89.2578 -42.041 L 90.918 -42.041 C 93.2129 -42.041 94.873 -43.5059 94.873 -45.6543 L 94.873 -60.6934 C 94.873 -62.8418 93.2129 -64.2578 90.918 -64.2578 L 89.2578 -64.2578 L 89.2578 -68.457 C 89.2578 -73.4863 86.3281 -76.5137 80.9082 -77.1484 C 72.8027 -78.0762 62.1094 -78.6133 52.2949 -78.6133 C 42.5781 -78.6133 31.9336 -78.125 23.7305 -77.1484 C 18.3105 -76.5137 15.332 -73.4863 15.332 -68.457 L 15.332 -64.2578 L 13.6719 -64.2578 C 11.4258 -64.2578 9.76562 -62.8418 9.76562 -60.6934 L 9.76562 -45.6543 C 9.76562 -43.5059 11.4258 -42.041 13.6719 -42.041 L 15.332 -42.041 L 15.332 5.76172 C 15.332 8.59375 17.5781 10.8398 20.5078 10.8398 Z M 26.9043 -26.5625 C 24.2188 -26.9531 22.9492 -28.418 22.9492 -31.25 L 22.9492 -64.7949 C 22.9492 -68.1152 24.4629 -69.7754 27.5879 -70.1172 C 43.1152 -71.7773 61.5234 -71.7773 77.1484 -70.1172 C 80.2246 -69.7754 81.6895 -68.1152 81.6895 -64.7949 L 81.6895 -31.25 C 81.6895 -28.418 80.4199 -26.9531 77.7832 -26.5625 C 61.8652 -24.0234 42.6758 -24.0234 26.9043 -26.5625 Z M 29.0527 -8.83789 C 26.0742 -8.83789 23.8281 -11.084 23.8281 -14.0625 C 23.8281 -17.041 26.0742 -19.2871 29.0527 -19.2871 C 32.0312 -19.2871 34.2773 -17.041 34.2773 -14.0625 C 34.2773 -11.084 32.0312 -8.83789 29.0527 -8.83789 Z M 75.5859 -8.83789 C 72.6074 -8.83789 70.3613 -11.084 70.3613 -14.0625 C 70.3613 -17.041 72.6074 -19.2871 75.5859 -19.2871 C 78.5645 -19.2871 80.8105 -17.041 80.8105 -14.0625 C 80.8105 -11.084 78.5645 -8.83789 75.5859 -8.83789 Z M 44.1895 -10.6445 C 42.0898 -10.6445 40.6738 -12.0605 40.6738 -14.1602 C 40.6738 -16.2109 42.0898 -17.627 44.1895 -17.627 L 60.4004 -17.627 C 62.5 -17.627 63.916 -16.2109 63.916 -14.1602 C 63.916 -12.0605 62.5 -10.6445 60.4004 -10.6445 Z"/>
  </g>
  <g id="Light-S" transform="matrix(1 0 0 1 1102.16 696)">
   <path d="M 19.9219 9.52148 L 24.3652 9.52148 C 27.1973 9.52148 29.3945 7.32422 29.3945 4.54102 L 29.3945 -1.75781 C 36.7676 -1.2207 44.1406 -0.927734 50.9766 -0.927734 C 57.7637 -0.927734 65.1855 -1.17188 72.6074 -1.75781 L 72.6074 4.54102 C 72.6074 7.32422 74.8047 9.52148 77.5879 9.52148 L 82.0801 9.52148 C 84.8633 9.52148 87.0605 7.32422 87.0605 4.54102 L 87.0605 -42.9688 L 88.7695 -42.9688 C 90.8691 -42.9688 92.1875 -44.1895 92.1875 -46.0938 L 92.1875 -60.9863 C 92.1875 -62.8906 90.8691 -64.1113 88.7695 -64.1113 L 87.0605 -64.1113 L 87.0605 -68.6523 C 87.0605 -73.4375 84.2285 -76.1719 79.1992 -76.709 C 71.0938 -77.6855 60.8398 -78.1738 50.9766 -78.1738 C 41.1621 -78.1738 30.957 -77.6855 22.7539 -76.709 C 17.7734 -76.1719 14.8926 -73.4375 14.8926 -68.6523 L 14.8926 -64.1113 L 13.1836 -64.1113 C 11.1328 -64.1113 9.76562 -62.8906 9.76562 -60.9863 L 9.76562 -46.0938 C 9.76562 -44.1895 11.1328 -42.9688 13.1836 -42.9688 L 14.8926 -42.9688 L 14.8926 4.54102 C 14.8926 7.32422 17.0898 9.52148 19.9219 9.52148 Z M 25.6836 -26.709 C 23.2422 -27.0508 21.9727 -28.4668 21.9727 -31.0547 L 21.9727 -65.3809 C 21.9727 -68.3105 23.3887 -69.873 26.123 -70.166 C 42.4316 -71.8262 59.668 -71.8262 75.8789 -70.166 C 78.6621 -69.873 80.0293 -68.3105 80.0293 -65.3809 L 80.0293 -31.0547 C 80.0293 -28.4668 78.7598 -27.0508 76.3184 -26.709 C 60.4492 -24.4629 41.3086 -24.4629 25.6836 -26.709 Z M 28.2227 -10.1562 C 25.5371 -10.1562 23.4863 -12.1582 23.4863 -14.8438 C 23.4863 -17.5293 25.5371 -19.5312 28.2227 -19.5312 C 30.8594 -19.5312 32.8613 -17.5293 32.8613 -14.8438 C 32.8613 -12.1582 30.8594 -10.1562 28.2227 -10.1562 Z M 73.7793 -10.1562 C 71.0938 -10.1562 69.0918 -12.1582 69.0918 -14.8438 C 69.0918 -17.5293 71.0938 -19.5312 73.7793 -19.5312 C 76.4648 -19.5312 78.4668 -17.5293 78.4668 -14.8438 C 78.4668 -12.1582 76.4648 -10.1562 73.7793 -10.1562 Z M 42.4316 -11.7188 C 40.5762 -11.7188 39.2578 -13.0371 39.2578 -14.8926 C 39.2578 -16.7969 40.5762 -18.0664 42.4316 -18.0664 L 59.4238 -18.0664 C 61.2793 -18.0664 62.5977 -16.7969 62.5977 -14.8926 C 62.5977 -13.0371 61.2793 -11.7188 59.4238 -11.7188 Z"/>
  </g>
  <g id="Thin-S" transform="matrix(1 0 0 1 807.179 696)">
   <path d="M 19.1406 7.71484 L 23.4375 7.71484 C 26.1719 7.71484 28.2715 5.61523 28.2715 2.92969 L 28.2715 -3.125 C 35.0098 -2.58789 42.0898 -2.34375 49.2188 -2.34375 C 56.2988 -2.34375 63.4766 -2.58789 70.2637 -3.07617 L 70.2637 2.92969 C 70.2637 5.61523 72.3633 7.71484 75.0488 7.71484 L 79.3457 7.71484 C 82.0801 7.71484 84.1797 5.56641 84.1797 2.92969 L 84.1797 -44.1406 L 85.9863 -44.1406 C 87.7441 -44.1406 88.7207 -45.1172 88.7207 -46.6797 L 88.7207 -61.3281 C 88.7207 -62.8906 87.7441 -63.916 85.9863 -63.916 L 84.1797 -63.916 L 84.1797 -68.8965 C 84.1797 -73.4375 81.4941 -75.6836 77.002 -76.2207 C 68.8477 -77.1973 59.082 -77.6367 49.2188 -77.6367 C 39.3066 -77.6367 29.5898 -77.1484 21.4844 -76.2207 C 17.041 -75.6836 14.3555 -73.4375 14.3555 -68.8965 L 14.3555 -63.916 L 12.5488 -63.916 C 10.7422 -63.916 9.76562 -62.8906 9.76562 -61.3281 L 9.76562 -46.6797 C 9.76562 -45.1172 10.7422 -44.1406 12.5488 -44.1406 L 14.3555 -44.1406 L 14.3555 2.92969 C 14.3555 5.56641 16.4551 7.71484 19.1406 7.71484 Z M 24.0723 -26.8555 C 21.875 -27.1484 20.7031 -28.4668 20.7031 -30.7617 L 20.7031 -66.1621 C 20.7031 -68.5547 21.9727 -69.9707 24.2676 -70.166 C 41.5527 -71.9238 57.2266 -71.875 74.2676 -70.166 C 76.5625 -69.9707 77.832 -68.5547 77.832 -66.1621 L 77.832 -30.7617 C 77.832 -28.4668 76.6113 -27.1484 74.4629 -26.8555 C 58.6426 -25.0488 39.502 -25.0977 24.0723 -26.8555 Z M 27.0996 -11.9141 C 24.8047 -11.9141 23.0957 -13.5742 23.0957 -15.8691 C 23.0957 -18.1641 24.8047 -19.873 27.0996 -19.873 C 29.3945 -19.873 31.0547 -18.1641 31.0547 -15.8691 C 31.0547 -13.5742 29.3945 -11.9141 27.0996 -11.9141 Z M 71.4355 -11.9141 C 69.1406 -11.9141 67.4316 -13.5742 67.4316 -15.8691 C 67.4316 -18.1641 69.1406 -19.873 71.4355 -19.873 C 73.7305 -19.873 75.4395 -18.1641 75.4395 -15.8691 C 75.4395 -13.5742 73.7305 -11.9141 71.4355 -11.9141 Z M 40.1855 -13.1348 C 38.5254 -13.1348 37.3535 -14.2578 37.3535 -15.918 C 37.3535 -17.5781 38.5254 -18.7012 40.1855 -18.7012 L 58.0566 -18.7012 C 59.7168 -18.7012 60.8887 -17.5781 60.8887 -15.918 C 60.8887 -14.2578 59.7168 -13.1348 58.0566 -13.1348 Z"/>
  </g>
  <g id="Ultralight-S" transform="matrix(1 0 0 1 511.371 696)">
   <path d="M 18.75 6.78711 L 22.9492 6.78711 C 25.6348 6.78711 27.6855 4.73633 27.6855 2.09961 L 27.6855 -3.85742 C 34.082 -3.32031 41.0645 -3.07617 48.291 -3.07617 C 55.5176 -3.07617 62.5488 -3.32031 69.043 -3.80859 L 69.043 2.09961 C 69.043 4.73633 71.0938 6.78711 73.7305 6.78711 L 77.9785 6.78711 C 80.6152 6.78711 82.666 4.6875 82.666 2.09961 L 82.666 -44.7266 L 84.5215 -44.7266 C 86.1328 -44.7266 86.9141 -45.6055 86.9141 -47.0215 L 86.9141 -61.5234 C 86.9141 -62.9395 86.1328 -63.8184 84.5215 -63.8184 L 82.666 -63.8184 L 82.666 -68.9941 C 82.666 -73.3887 80.0781 -75.4395 75.8301 -75.9277 C 67.6758 -76.9043 58.2031 -77.3438 48.291 -77.3438 C 38.3301 -77.3438 28.9062 -76.8555 20.8496 -75.9277 C 16.6504 -75.4395 14.0137 -73.3887 14.0137 -68.9941 L 14.0137 -63.8184 L 12.207 -63.8184 C 10.5469 -63.8184 9.76562 -62.9395 9.76562 -61.5234 L 9.76562 -47.0215 C 9.76562 -45.6055 10.5469 -44.7266 12.207 -44.7266 L 14.0137 -44.7266 L 14.0137 2.09961 C 14.0137 4.6875 16.1133 6.78711 18.75 6.78711 Z M 23.2422 -27.002 C 21.1914 -27.1973 20.0195 -28.5156 20.0195 -30.6152 L 20.0195 -66.5527 C 20.0195 -68.6523 21.1914 -70.0195 23.291 -70.2148 C 41.1133 -71.9727 55.957 -71.9238 73.4375 -70.2148 C 75.4883 -70.0195 76.6602 -68.6523 76.6602 -66.5527 L 76.6602 -30.6152 C 76.6602 -28.5156 75.4883 -27.1973 73.4863 -27.002 C 57.666 -25.3906 38.5742 -25.4395 23.2422 -27.002 Z M 26.5137 -12.8418 C 24.4141 -12.8418 22.8516 -14.3555 22.8516 -16.4062 C 22.8516 -18.5059 24.4141 -20.0684 26.5137 -20.0684 C 28.6133 -20.0684 30.0781 -18.5059 30.0781 -16.4062 C 30.0781 -14.3555 28.6133 -12.8418 26.5137 -12.8418 Z M 70.2148 -12.8418 C 68.1152 -12.8418 66.6016 -14.3555 66.6016 -16.4062 C 66.6016 -18.5059 68.1152 -20.0684 70.2148 -20.0684 C 72.3145 -20.0684 73.8281 -18.5059 73.8281 -16.4062 C 73.8281 -14.3555 72.3145 -12.8418 70.2148 -12.8418 Z M 39.0137 -13.8672 C 37.4512 -13.8672 36.4258 -14.8926 36.4258 -16.4551 C 36.4258 -17.9688 37.4512 -19.043 39.0137 -19.043 L 57.373 -19.043 C 58.9355 -19.043 59.9609 -17.9688 59.9609 -16.4551 C 59.9609 -14.8926 58.9355 -13.8672 57.373 -13.8672 Z"/>
  </g>
 </g>
</svg>
