<?xml version="1.0" encoding="utf-8"?>
<svg version="1.1" width="3300" height="2200" xmlns="http://www.w3.org/2000/svg">
  <g id="Notes">
    <rect height="2200" id="artboard" style="fill:white;opacity:1" width="3300" x="0" y="0"/>
    <line id="" style="fill:none;stroke:black;opacity:1;stroke-width:0.5;" x1="263" x2="3036" y1="292" y2="292"/>
    <text style="stroke: none; fill: black; font-family: -apple-system, &quot;SF Pro Display&quot;, &quot;SF Pro Text&quot;, Helvetica, sans-serif; font-weight: bold; white-space: pre;" transform="matrix(1 0 0 1 263 322)">Weight/Scale Variations</text>
    <text style="stroke: none; fill: black; font-family: -apple-system, &quot;SF Pro Display&quot;, &quot;SF Pro Text&quot;, Helvetica, sans-serif; text-anchor: middle; white-space: pre;" transform="matrix(1 0 0 1 559.711 322)">Ultralight</text>
    <text style="stroke: none; fill: black; font-family: -apple-system, &quot;SF Pro Display&quot;, &quot;SF Pro Text&quot;, Helvetica, sans-serif; text-anchor: middle; white-space: pre;" transform="matrix(1 0 0 1 856.422 322)">Thin</text>
    <text style="stroke: none; fill: black; font-family: -apple-system, &quot;SF Pro Display&quot;, &quot;SF Pro Text&quot;, Helvetica, sans-serif; text-anchor: middle; white-space: pre;" transform="matrix(1 0 0 1 1153.13 322)">Light</text>
    <text style="stroke: none; fill: black; font-family: -apple-system, &quot;SF Pro Display&quot;, &quot;SF Pro Text&quot;, Helvetica, sans-serif; text-anchor: middle; white-space: pre;" transform="matrix(1 0 0 1 1449.84 322)">Regular</text>
    <text style="stroke: none; fill: black; font-family: -apple-system, &quot;SF Pro Display&quot;, &quot;SF Pro Text&quot;, Helvetica, sans-serif; text-anchor: middle; white-space: pre;" transform="matrix(1 0 0 1 1746.56 322)">Medium</text>
    <text style="stroke: none; fill: black; font-family: -apple-system, &quot;SF Pro Display&quot;, &quot;SF Pro Text&quot;, Helvetica, sans-serif; text-anchor: middle; white-space: pre;" transform="matrix(1 0 0 1 2043.27 322)">Semibold</text>
    <text style="stroke: none; fill: black; font-family: -apple-system, &quot;SF Pro Display&quot;, &quot;SF Pro Text&quot;, Helvetica, sans-serif; text-anchor: middle; white-space: pre;" transform="matrix(1 0 0 1 2339.98 322)">Bold</text>
    <text style="stroke: none; fill: black; font-family: -apple-system, &quot;SF Pro Display&quot;, &quot;SF Pro Text&quot;, Helvetica, sans-serif; text-anchor: middle; white-space: pre;" transform="matrix(1 0 0 1 2636.69 322)">Heavy</text>
    <text style="stroke: none; fill: black; font-family: -apple-system, &quot;SF Pro Display&quot;, &quot;SF Pro Text&quot;, Helvetica, sans-serif; text-anchor: middle; white-space: pre;" transform="matrix(1 0 0 1 2933.4 322)">Black</text>
    <line id="" style="fill:none;stroke:black;opacity:1;stroke-width:0.5;" x1="263" x2="3036" y1="1903" y2="1903"/>
    <g id="" transform="matrix(1 0 0 1 263 1933)">
      <path d="M 9.24805 0.830078 C 13.5547 0.830078 17.1387 -2.74414 17.1387 -7.05078 C 17.1387 -11.3574 13.5449 -14.9316 9.23828 -14.9316 C 4.94141 -14.9316 1.36719 -11.3574 1.36719 -7.05078 C 1.36719 -2.74414 4.95117 0.830078 9.24805 0.830078 Z M 9.24805 -0.654297 C 5.70312 -0.654297 2.87109 -3.49609 2.87109 -7.05078 C 2.87109 -10.6055 5.69336 -13.4473 9.23828 -13.4473 C 12.793 -13.4473 15.6348 -10.6055 15.6445 -7.05078 C 15.6543 -3.49609 12.8027 -0.654297 9.24805 -0.654297 Z M 9.22852 -3.62305 C 9.69727 -3.62305 9.9707 -3.93555 9.9707 -4.45312 L 9.9707 -6.31836 L 12.002 -6.31836 C 12.5 -6.31836 12.832 -6.57227 12.832 -7.04102 C 12.832 -7.51953 12.5195 -7.7832 12.002 -7.7832 L 9.9707 -7.7832 L 9.9707 -9.81445 C 9.9707 -10.332 9.69727 -10.6543 9.22852 -10.6543 C 8.75977 -10.6543 8.50586 -10.3125 8.50586 -9.81445 L 8.50586 -7.7832 L 6.49414 -7.7832 C 5.97656 -7.7832 5.64453 -7.51953 5.64453 -7.04102 C 5.64453 -6.57227 5.99609 -6.31836 6.49414 -6.31836 L 8.50586 -6.31836 L 8.50586 -4.45312 C 8.50586 -3.95508 8.75977 -3.62305 9.22852 -3.62305 Z"/>
    </g>
    <g id="" transform="matrix(1 0 0 1 281.506 1933)">
      <path d="M 11.709 2.91016 C 17.1582 2.91016 21.6699 -1.61133 21.6699 -7.05078 C 21.6699 -12.5 17.1484 -17.0117 11.6992 -17.0117 C 6.25977 -17.0117 1.74805 -12.5 1.74805 -7.05078 C 1.74805 -1.61133 6.26953 2.91016 11.709 2.91016 Z M 11.709 1.25 C 7.09961 1.25 3.41797 -2.44141 3.41797 -7.05078 C 3.41797 -11.6602 7.08984 -15.3516 11.6992 -15.3516 C 16.3086 -15.3516 20 -11.6602 20.0098 -7.05078 C 20.0195 -2.44141 16.3184 1.25 11.709 1.25 Z M 11.6797 -2.66602 C 12.207 -2.66602 12.5098 -3.01758 12.5098 -3.59375 L 12.5098 -6.23047 L 15.3223 -6.23047 C 15.8691 -6.23047 16.25 -6.51367 16.25 -7.03125 C 16.25 -7.55859 15.8887 -7.86133 15.3223 -7.86133 L 12.5098 -7.86133 L 12.5098 -10.6836 C 12.5098 -11.25 12.207 -11.6113 11.6797 -11.6113 C 11.1621 -11.6113 10.8789 -11.2305 10.8789 -10.6836 L 10.8789 -7.86133 L 8.07617 -7.86133 C 7.50977 -7.86133 7.13867 -7.55859 7.13867 -7.03125 C 7.13867 -6.51367 7.5293 -6.23047 8.07617 -6.23047 L 10.8789 -6.23047 L 10.8789 -3.59375 C 10.8789 -3.03711 11.1621 -2.66602 11.6797 -2.66602 Z"/>
    </g>
    <g id="" transform="matrix(1 0 0 1 304.924 1933)">
      <path d="M 14.9707 5.66406 C 21.9336 5.66406 27.6953 -0.0976562 27.6953 -7.05078 C 27.6953 -14.0137 21.9238 -19.7754 14.9609 -19.7754 C 8.00781 -19.7754 2.25586 -14.0137 2.25586 -7.05078 C 2.25586 -0.0976562 8.01758 5.66406 14.9707 5.66406 Z M 14.9707 3.84766 C 8.93555 3.84766 4.08203 -1.01562 4.08203 -7.05078 C 4.08203 -13.0957 8.92578 -17.9492 14.9609 -17.9492 C 21.0059 -17.9492 25.8594 -13.0957 25.8691 -7.05078 C 25.8789 -1.01562 21.0156 3.84766 14.9707 3.84766 Z M 14.9414 -1.38672 C 15.5176 -1.38672 15.8594 -1.77734 15.8594 -2.38281 L 15.8594 -6.13281 L 19.7754 -6.13281 C 20.3711 -6.13281 20.7812 -6.46484 20.7812 -7.02148 C 20.7812 -7.59766 20.3906 -7.93945 19.7754 -7.93945 L 15.8594 -7.93945 L 15.8594 -11.8652 C 15.8594 -12.4805 15.5176 -12.8711 14.9414 -12.8711 C 14.375 -12.8711 14.0527 -12.4609 14.0527 -11.8652 L 14.0527 -7.93945 L 10.1465 -7.93945 C 9.53125 -7.93945 9.13086 -7.59766 9.13086 -7.02148 C 9.13086 -6.46484 9.55078 -6.13281 10.1465 -6.13281 L 14.0527 -6.13281 L 14.0527 -2.38281 C 14.0527 -1.79688 14.375 -1.38672 14.9414 -1.38672 Z"/>
    </g>
    <text style="stroke: none; fill: black; font-family: -apple-system, &quot;SF Pro Display&quot;, &quot;SF Pro Text&quot;, Helvetica, sans-serif; font-weight: bold; white-space: pre;" transform="matrix(1 0 0 1 263 1953)">Design Variations</text>
    <text style="stroke: none; fill: black; font-family: -apple-system, &quot;SF Pro Display&quot;, &quot;SF Pro Text&quot;, Helvetica, sans-serif; white-space: pre;" transform="matrix(1 0 0 1 263 1971)">Symbols are supported in up to nine weights and three scales.</text>
    <text style="stroke: none; fill: black; font-family: -apple-system, &quot;SF Pro Display&quot;, &quot;SF Pro Text&quot;, Helvetica, sans-serif; white-space: pre;" transform="matrix(1 0 0 1 263 1989)">For optimal layout with text and other symbols, vertically align</text>
    <text style="stroke: none; fill: black; font-family: -apple-system, &quot;SF Pro Display&quot;, &quot;SF Pro Text&quot;, Helvetica, sans-serif; white-space: pre;" transform="matrix(1 0 0 1 263 2007)">symbols with the adjacent text.</text>
    <line id="" style="fill:none;stroke:#00AEEF;stroke-width:0.5;opacity:1.0;" x1="776" x2="776" y1="1919" y2="1933"/>
    <g id="" transform="matrix(1 0 0 1 776 1933)">
      <path d="M 3.31055 0.126953 C 3.82812 0.126953 4.08203 -0.0683594 4.26758 -0.605469 L 5.52734 -4.0625 L 11.2891 -4.0625 L 12.5488 -0.605469 C 12.7344 -0.0683594 12.9883 0.126953 13.4961 0.126953 C 14.0137 0.126953 14.3457 -0.185547 14.3457 -0.673828 C 14.3457 -0.839844 14.3164 -0.986328 14.2383 -1.20117 L 9.6582 -13.3887 C 9.43359 -13.9941 9.0332 -14.2871 8.4082 -14.2871 C 7.80273 -14.2871 7.39258 -13.9941 7.17773 -13.3984 L 2.59766 -1.19141 C 2.51953 -0.976562 2.49023 -0.830078 2.49023 -0.664062 C 2.49023 -0.175781 2.80273 0.126953 3.31055 0.126953 Z M 6.00586 -5.53711 L 8.37891 -12.1094 L 8.42773 -12.1094 L 10.8008 -5.53711 Z"/>
    </g>
    <line id="" style="fill:none;stroke:#00AEEF;stroke-width:0.5;opacity:1.0;" x1="792.836" x2="792.836" y1="1919" y2="1933"/>
    <text style="stroke: none; fill: black; font-family: -apple-system, &quot;SF Pro Display&quot;, &quot;SF Pro Text&quot;, Helvetica, sans-serif; font-weight: bold; white-space: pre;" transform="matrix(1 0 0 1 776 1953)">Margins</text>
    <text style="stroke: none; fill: black; font-family: -apple-system, &quot;SF Pro Display&quot;, &quot;SF Pro Text&quot;, Helvetica, sans-serif; white-space: pre;" transform="matrix(1 0 0 1 776 1971)">Leading and trailing margins on the left and right side of each symbol</text>
    <text style="stroke: none; fill: black; font-family: -apple-system, &quot;SF Pro Display&quot;, &quot;SF Pro Text&quot;, Helvetica, sans-serif; white-space: pre;" transform="matrix(1 0 0 1 776 1989)">can be adjusted by modifying the x-location of the margin guidelines.</text>
    <text style="stroke: none; fill: black; font-family: -apple-system, &quot;SF Pro Display&quot;, &quot;SF Pro Text&quot;, Helvetica, sans-serif; white-space: pre;" transform="matrix(1 0 0 1 776 2007)">Modifications are automatically applied proportionally to all</text>
    <text style="stroke: none; fill: black; font-family: -apple-system, &quot;SF Pro Display&quot;, &quot;SF Pro Text&quot;, Helvetica, sans-serif; white-space: pre;" transform="matrix(1 0 0 1 776 2025)">scales and weights.</text>
    <g id="" transform="matrix(1 0 0 1 1289 1933)">
      <path d="M 2.8418 1.86523 L 4.54102 3.57422 C 5.40039 4.44336 6.38672 4.38477 7.31445 3.35938 L 17.4902 -7.85156 C 17.7539 -7.76367 18.0273 -7.7832 18.3398 -7.8418 L 19.4043 -8.03711 L 20.0684 -7.36328 L 20.0293 -6.80664 C 19.9902 -6.30859 20.1172 -5.92773 20.6055 -5.44922 L 21.3672 -4.70703 C 21.8457 -4.22852 22.4609 -4.19922 22.9297 -4.66797 L 25.8398 -7.58789 C 26.3086 -8.05664 26.2891 -8.65234 25.8105 -9.13086 L 25.0391 -9.89258 C 24.5605 -10.3711 24.1895 -10.5273 23.7109 -10.4883 L 23.1348 -10.4395 L 22.4902 -11.0742 L 22.7344 -12.1973 C 22.8613 -12.7637 22.7051 -13.2031 22.1191 -13.7891 L 19.9219 -15.9766 C 16.582 -19.2969 12.1484 -19.2188 9.25781 -16.3281 C 8.83789 -15.918 8.80859 -15.3418 9.04297 -14.9512 C 9.27734 -14.5898 9.73633 -14.3555 10.3809 -14.5215 C 11.8457 -14.8633 13.3691 -14.9219 14.7949 -13.9844 L 14.209 -12.5293 C 14.0137 -12.0508 13.9844 -11.6504 14.1113 -11.2891 L 3.04688 -0.898438 C 2.06055 0.0195312 1.98242 0.996094 2.8418 1.86523 Z M 10.752 -15.957 C 13.1836 -17.7344 16.4746 -17.4316 18.7012 -15.2051 L 21.1328 -12.793 C 21.3672 -12.5586 21.4062 -12.373 21.3379 -12.0312 L 21.0156 -10.5469 L 22.5195 -9.0625 L 23.5059 -9.12109 C 23.7598 -9.13086 23.8379 -9.11133 24.0332 -8.91602 L 24.6094 -8.33984 L 22.168 -5.89844 L 21.5918 -6.47461 C 21.3965 -6.66992 21.3672 -6.74805 21.377 -7.01172 L 21.4453 -7.98828 L 19.9512 -9.47266 L 18.4277 -9.21875 C 18.1055 -9.15039 17.959 -9.17969 17.7148 -9.41406 L 15.7129 -11.416 C 15.459 -11.6504 15.4297 -11.8164 15.5859 -12.1875 L 16.4648 -14.2773 C 14.9023 -15.7324 12.8711 -16.3574 10.8398 -15.7617 C 10.6836 -15.7227 10.625 -15.8496 10.752 -15.957 Z M 5.27344 2.30469 L 4.10156 1.14258 C 3.63281 0.683594 3.74023 0.341797 4.14062 -0.0195312 L 14.9512 -10.1953 L 16.416 -8.71094 L 6.42578 2.27539 C 6.07422 2.67578 5.74219 2.77344 5.27344 2.30469 Z"/>
    </g>
    <text style="stroke: none; fill: black; font-family: -apple-system, &quot;SF Pro Display&quot;, &quot;SF Pro Text&quot;, Helvetica, sans-serif; font-weight: bold; white-space: pre;" transform="matrix(1 0 0 1 1289 1953)">Exporting</text>
    <text style="stroke: none; fill: black; font-family: -apple-system, &quot;SF Pro Display&quot;, &quot;SF Pro Text&quot;, Helvetica, sans-serif; white-space: pre;" transform="matrix(1 0 0 1 1289 1971)">Symbols should be outlined when exporting to ensure the</text>
    <text style="stroke: none; fill: black; font-family: -apple-system, &quot;SF Pro Display&quot;, &quot;SF Pro Text&quot;, Helvetica, sans-serif; white-space: pre;" transform="matrix(1 0 0 1 1289 1989)">design is preserved when submitting to Xcode.</text>
    <text id="template-version" style="stroke: none; fill: black; font-family: -apple-system, &quot;SF Pro Display&quot;, &quot;SF Pro Text&quot;, Helvetica, sans-serif; text-anchor: end; white-space: pre;" transform="matrix(1 0 0 1 3036 1933)">Template v.2.0</text>
    <text style="stroke: none; fill: black; font-family: -apple-system, &quot;SF Pro Display&quot;, &quot;SF Pro Text&quot;, Helvetica, sans-serif; text-anchor: end; white-space: pre;" transform="matrix(1 0 0 1 3036 1951)">Requires Xcode 12 or greater</text>
    <text style="stroke: none; fill: black; font-family: -apple-system, &quot;SF Pro Display&quot;, &quot;SF Pro Text&quot;, Helvetica, sans-serif; text-anchor: end; white-space: pre;" transform="matrix(1 0 0 1 3036 1969)">Generated from tram</text>
    <text style="stroke: none; fill: black; font-family: -apple-system, &quot;SF Pro Display&quot;, &quot;SF Pro Text&quot;, Helvetica, sans-serif; text-anchor: end; white-space: pre;" transform="matrix(1 0 0 1 3036 1987)">Typeset at 100 points</text>
    <text style="stroke: none; fill: black; font-family: -apple-system, &quot;SF Pro Display&quot;, &quot;SF Pro Text&quot;, Helvetica, sans-serif; white-space: pre;" transform="matrix(1 0 0 1 263 726)">Small</text>
    <text style="stroke: none; fill: black; font-family: -apple-system, &quot;SF Pro Display&quot;, &quot;SF Pro Text&quot;, Helvetica, sans-serif; white-space: pre;" transform="matrix(1 0 0 1 263 1156)">Medium</text>
    <text style="stroke: none; fill: black; font-family: -apple-system, &quot;SF Pro Display&quot;, &quot;SF Pro Text&quot;, Helvetica, sans-serif; white-space: pre;" transform="matrix(1 0 0 1 263 1586)">Large</text>
  </g>
  <g id="Guides">
    <g id="H-reference" style="fill:#27AAE1;stroke:none;" transform="matrix(1 0 0 1 339 696)">
      <path d="M 0.976562 0 L 3.66211 0 L 12.9883 -24.4629 L 45.7031 -24.4629 L 55.0781 0 L 57.7148 0 L 30.6152 -70.459 L 28.125 -70.459 Z M 29.2969 -67.1387 L 29.3945 -67.1387 L 44.873 -26.709 L 13.8672 -26.709 Z"/>
    </g>
    <line id="Baseline-S" style="fill:none;stroke:#27AAE1;opacity:1;stroke-width:0.5;" x1="263" x2="3036" y1="696" y2="696"/>
    <line id="Capline-S" style="fill:none;stroke:#27AAE1;opacity:1;stroke-width:0.5;" x1="263" x2="3036" y1="625.541" y2="625.541"/>
    <g id="H-reference" style="fill:#27AAE1;stroke:none;" transform="matrix(1 0 0 1 339 1126)">
      <path d="M 0.976562 0 L 3.66211 0 L 12.9883 -24.4629 L 45.7031 -24.4629 L 55.0781 0 L 57.7148 0 L 30.6152 -70.459 L 28.125 -70.459 Z M 29.2969 -67.1387 L 29.3945 -67.1387 L 44.873 -26.709 L 13.8672 -26.709 Z"/>
    </g>
    <line id="Baseline-M" style="fill:none;stroke:#27AAE1;opacity:1;stroke-width:0.5;" x1="263" x2="3036" y1="1126" y2="1126"/>
    <line id="Capline-M" style="fill:none;stroke:#27AAE1;opacity:1;stroke-width:0.5;" x1="263" x2="3036" y1="1055.54" y2="1055.54"/>
    <g id="H-reference" style="fill:#27AAE1;stroke:none;" transform="matrix(1 0 0 1 339 1556)">
      <path d="M 0.976562 0 L 3.66211 0 L 12.9883 -24.4629 L 45.7031 -24.4629 L 55.0781 0 L 57.7148 0 L 30.6152 -70.459 L 28.125 -70.459 Z M 29.2969 -67.1387 L 29.3945 -67.1387 L 44.873 -26.709 L 13.8672 -26.709 Z"/>
    </g>
    <line id="Baseline-L" style="fill:none;stroke:#27AAE1;opacity:1;stroke-width:0.5;" x1="263" x2="3036" y1="1556" y2="1556"/>
    <line id="Capline-L" style="fill:none;stroke:#27AAE1;opacity:1;stroke-width:0.5;" x1="263" x2="3036" y1="1485.54" y2="1485.54"/>
    <line id="left-margin" style="fill:none;stroke:#00AEEF;stroke-width:0.5;opacity:1.0;" x1="1393.06" x2="1393.06" y1="1030.79" y2="1150.12"/>
    <line id="right-margin" style="fill:none;stroke:#00AEEF;stroke-width:0.5;opacity:1.0;" x1="1506.63" x2="1506.63" y1="1030.79" y2="1150.12"/>
  </g>
  <g id="Symbols">
    <g id="Black-L" transform="matrix(1 0 0 1 2851.47 1556)">
      <path d="M 30.322 54.785 L 35.645 54.785 C 38.428 54.785 40.137 53.809 41.65 51.416 L 44.971 46.094 L 117.139 46.094 L 120.459 51.416 C 121.973 53.809 123.682 54.785 126.514 54.785 L 130.664 54.785 C 135.742 54.785 138.428 49.561 135.693 45.166 L 123.486 25.537 C 138.672 23.828 147.803 13.184 147.803 -3.271 L 147.803 -51.807 C 147.803 -69.971 146.68 -78.857 144.678 -88.477 C 140.43 -110.645 129.98 -121.045 109.521 -124.219 C 102.93 -125.244 93.164 -125.83 81.934 -125.83 C 70.264 -125.83 60.889 -125.244 54.346 -124.219 C 33.887 -121.045 23.389 -110.645 19.141 -88.477 C 17.188 -78.857 16.064 -70.166 16.064 -52.002 L 16.064 -3.271 C 16.064 12.598 24.512 23.047 38.77 25.293 L 25.879 45.996 C 23.633 49.609 25.195 54.785 30.322 54.785 Z M 47.217 9.326 C 37.647 9.326 32.275 3.662 32.275 -5.615 L 32.275 -52.002 C 32.275 -69.971 33.398 -77.148 35.254 -86.816 C 37.842 -100.928 44.141 -106.689 57.227 -108.35 C 62.695 -109.033 71.045 -109.375 81.934 -109.375 C 92.383 -109.375 101.172 -109.033 106.641 -108.35 C 119.727 -106.689 126.025 -100.928 128.613 -86.816 C 130.469 -77.148 131.592 -69.775 131.592 -51.807 L 131.592 -5.615 C 131.592 3.662 126.221 9.326 116.602 9.326 L 47.217 9.326 Z M 65.772 -90.674 L 98.047 -90.674 C 101.465 -90.674 103.955 -93.213 103.955 -96.582 C 103.955 -100.049 101.465 -102.539 98.047 -102.539 L 65.772 -102.539 C 62.402 -102.539 59.961 -100.049 59.961 -96.582 C 59.961 -93.115 62.402 -90.674 65.772 -90.674 Z M 112.305 1.611 C 117.285 1.611 121.191 -2.246 121.191 -7.373 C 121.191 -12.451 117.383 -16.357 112.305 -16.357 C 107.178 -16.357 103.32 -12.451 103.32 -7.373 C 103.32 -2.246 107.178 1.611 112.305 1.611 Z M 51.514 1.611 C 56.592 1.611 60.498 -2.246 60.498 -7.373 C 60.498 -12.5 56.641 -16.309 51.514 -16.309 C 46.436 -16.309 42.627 -12.5 42.627 -7.373 C 42.627 -2.246 46.387 1.611 51.514 1.611 Z M 53.76 31.982 L 57.617 25.781 L 104.541 25.781 L 108.398 31.982 L 53.76 31.982 Z"/>
    </g>
    <g id="Heavy-L" transform="matrix(1 0 0 1 2557.03 1556)">
      <path d="M 30.029 51.904 L 34.863 51.904 C 37.402 51.904 38.916 51.025 40.283 48.877 L 43.652 43.457 L 114.404 43.457 L 117.773 48.877 C 119.141 51.025 120.654 51.904 123.193 51.904 L 127.148 51.904 C 131.641 51.904 133.984 47.315 131.543 43.408 L 119.434 23.877 C 134.424 22.461 143.262 12.061 143.262 -3.711 L 143.262 -49.951 C 143.262 -68.018 141.846 -79.053 139.648 -89.014 C 135.693 -108.838 125.684 -118.701 107.275 -121.387 C 101.123 -122.314 91.113 -122.949 79.688 -122.949 C 67.676 -122.949 58.203 -122.314 52.051 -121.387 C 33.643 -118.701 23.633 -108.838 19.678 -89.014 C 17.481 -79.053 16.064 -68.262 16.064 -50.195 L 16.064 -3.711 C 16.064 11.621 24.414 21.924 38.721 23.731 L 26.074 44.043 C 23.975 47.363 25.488 51.904 30.029 51.904 Z M 45.557 9.766 C 35.4 9.766 30.127 3.76 30.127 -5.469 L 30.127 -50.195 C 30.127 -68.018 31.592 -77.49 33.643 -87.353 C 36.133 -100.342 42.383 -106.104 54.443 -107.617 C 59.815 -108.301 68.457 -108.691 79.688 -108.691 C 90.332 -108.691 99.512 -108.301 104.883 -107.617 C 116.943 -106.104 123.193 -100.342 125.684 -87.353 C 127.734 -77.49 129.199 -67.773 129.199 -49.951 L 129.199 -5.469 C 129.199 3.76 123.926 9.766 113.77 9.766 L 45.557 9.766 Z M 63.477 -90.527 L 95.85 -90.527 C 98.926 -90.527 101.172 -92.773 101.172 -95.898 C 101.172 -99.023 98.926 -101.221 95.85 -101.221 L 63.477 -101.221 C 60.4 -101.221 58.203 -99.023 58.203 -95.898 C 58.203 -92.725 60.4 -90.527 63.477 -90.527 Z M 109.766 1.416 C 114.697 1.416 118.555 -2.393 118.555 -7.422 C 118.555 -12.451 114.795 -16.26 109.766 -16.26 C 104.736 -16.26 100.928 -12.451 100.928 -7.422 C 100.928 -2.393 104.736 1.416 109.766 1.416 Z M 49.512 1.416 C 54.492 1.416 58.35 -2.344 58.35 -7.422 C 58.35 -12.451 54.541 -16.211 49.512 -16.211 C 44.482 -16.211 40.772 -12.451 40.772 -7.422 C 40.772 -2.344 44.482 1.416 49.512 1.416 Z M 51.611 30.615 L 55.713 24.023 L 102.344 24.023 L 106.445 30.615 L 51.611 30.615 Z"/>
    </g>
    <g id="Bold-L" transform="matrix(1 0 0 1 2262.85 1556)">
      <path d="M 29.688 48.682 L 33.984 48.682 C 36.231 48.682 37.5 47.949 38.721 46.045 L 42.139 40.479 L 111.328 40.479 L 114.795 46.045 C 115.967 47.949 117.285 48.682 119.482 48.682 L 123.193 48.682 C 127.051 48.682 129.004 44.824 126.904 41.455 L 114.844 21.973 C 129.688 20.996 138.184 10.791 138.184 -4.199 L 138.184 -47.852 C 138.184 -65.82 136.426 -79.248 134.033 -89.551 C 130.42 -106.787 120.85 -116.016 104.785 -118.213 C 99.121 -118.994 88.77 -119.727 77.148 -119.727 C 64.795 -119.727 55.127 -118.994 49.463 -118.213 C 33.398 -116.016 23.877 -106.787 20.264 -89.551 C 17.871 -79.248 16.064 -66.113 16.064 -48.144 L 16.064 -4.199 C 16.064 10.498 24.268 20.654 38.672 21.924 L 26.27 41.846 C 24.365 44.873 25.83 48.682 29.688 48.682 Z M 43.652 10.254 C 32.91 10.254 27.734 3.906 27.734 -5.371 L 27.734 -48.144 C 27.734 -65.82 29.59 -77.881 31.836 -87.988 C 34.229 -99.658 40.43 -105.42 51.318 -106.738 C 56.592 -107.422 65.576 -107.91 77.148 -107.91 C 87.988 -107.91 97.656 -107.422 102.979 -106.738 C 113.818 -105.42 120.02 -99.658 122.461 -87.988 C 124.658 -77.881 126.514 -65.527 126.514 -47.852 L 126.514 -5.371 C 126.514 3.906 121.338 10.254 110.596 10.254 L 43.652 10.254 Z M 60.889 -90.332 L 93.359 -90.332 C 96.143 -90.332 98.096 -92.334 98.096 -95.068 C 98.096 -97.852 96.143 -99.805 93.359 -99.805 L 60.889 -99.805 C 58.154 -99.805 56.201 -97.852 56.201 -95.068 C 56.201 -92.285 58.154 -90.332 60.889 -90.332 Z M 106.982 1.221 C 111.816 1.221 115.625 -2.539 115.625 -7.471 C 115.625 -12.402 111.914 -16.162 106.982 -16.162 C 102.002 -16.162 98.291 -12.402 98.291 -7.471 C 98.291 -2.539 102.002 1.221 106.982 1.221 Z M 47.266 1.172 C 52.148 1.172 55.908 -2.49 55.908 -7.471 C 55.908 -12.451 52.246 -16.113 47.266 -16.113 C 42.334 -16.113 38.672 -12.451 38.672 -7.471 C 38.672 -2.49 42.285 1.172 47.266 1.172 Z M 49.219 29.102 L 53.613 22.07 L 99.902 22.07 L 104.248 29.102 L 49.219 29.102 Z"/>
    </g>
    <g id="Semibold-L" transform="matrix(1 0 0 1 1967.88 1556)">
      <path d="M 29.492 46.484 L 33.398 46.484 C 35.4 46.484 36.572 45.801 37.598 44.092 L 41.113 38.477 L 109.229 38.477 L 112.744 44.092 C 113.77 45.801 114.941 46.484 116.943 46.484 L 120.459 46.484 C 123.926 46.484 125.537 43.066 123.682 40.088 L 111.67 20.703 C 126.416 19.971 134.717 9.863 134.717 -4.492 L 134.717 -46.387 C 134.717 -64.307 132.666 -79.346 130.127 -89.941 C 126.758 -105.371 117.529 -114.16 103.076 -116.064 C 97.754 -116.748 87.158 -117.48 75.391 -117.48 C 62.793 -117.48 53.027 -116.748 47.705 -116.064 C 33.252 -114.16 24.023 -105.371 20.654 -89.941 C 18.115 -79.346 16.064 -64.648 16.064 -46.728 L 16.064 -4.492 C 16.064 9.717 24.17 19.775 38.672 20.654 L 26.367 40.381 C 24.658 43.115 26.074 46.484 29.492 46.484 Z M 42.383 10.596 C 31.201 10.596 26.123 4.004 26.123 -5.273 L 26.123 -46.728 C 26.123 -64.356 28.223 -78.174 30.566 -88.379 C 32.91 -99.17 39.111 -104.98 49.121 -106.152 C 54.395 -106.836 63.574 -107.373 75.391 -107.373 C 86.426 -107.373 96.387 -106.836 101.611 -106.152 C 111.67 -104.98 117.871 -99.17 120.215 -88.379 C 122.559 -78.174 124.658 -63.965 124.658 -46.387 L 124.658 -5.273 C 124.658 4.004 119.58 10.596 108.398 10.596 L 42.383 10.596 Z M 59.131 -90.234 L 91.65 -90.234 C 94.19 -90.234 95.947 -91.992 95.947 -94.531 C 95.947 -97.07 94.19 -98.828 91.65 -98.828 L 59.131 -98.828 C 56.592 -98.828 54.834 -97.07 54.834 -94.531 C 54.834 -91.992 56.592 -90.234 59.131 -90.234 Z M 105.029 1.025 C 109.814 1.025 113.574 -2.637 113.574 -7.52 C 113.574 -12.402 109.912 -16.064 105.029 -16.064 C 100.146 -16.064 96.436 -12.402 96.436 -7.52 C 96.436 -2.637 100.146 1.025 105.029 1.025 Z M 45.703 1.025 C 50.537 1.025 54.248 -2.588 54.248 -7.52 C 54.248 -12.451 50.635 -16.064 45.703 -16.064 C 40.82 -16.064 37.207 -12.451 37.207 -7.52 C 37.207 -2.588 40.82 1.025 45.703 1.025 Z M 47.559 28.076 L 52.148 20.752 L 98.193 20.752 L 102.783 28.076 L 47.559 28.076 Z"/>
    </g>
    <g id="Medium-L" transform="matrix(1 0 0 1 1672.48 1556)">
      <path d="M 29.346 44.775 L 32.959 44.775 C 34.815 44.775 35.84 44.19 36.816 42.627 L 40.332 36.914 L 107.617 36.914 L 111.133 42.627 C 112.109 44.19 113.184 44.775 114.99 44.775 L 118.408 44.775 C 121.533 44.775 122.949 41.748 121.289 39.063 L 109.277 19.678 C 123.926 19.19 132.08 9.18 132.08 -4.736 L 132.08 -45.264 C 132.08 -63.135 129.834 -79.443 127.197 -90.283 C 123.975 -104.346 115.039 -112.793 101.758 -114.404 C 96.68 -115.039 85.938 -115.82 74.072 -115.82 C 61.279 -115.82 51.465 -115.039 46.387 -114.404 C 33.106 -112.793 24.17 -104.346 20.947 -90.283 C 18.262 -79.443 16.064 -63.574 16.064 -45.654 L 16.064 -4.736 C 16.064 9.131 24.121 19.092 38.672 19.678 L 26.514 39.209 C 24.902 41.797 26.221 44.775 29.346 44.775 Z M 41.357 10.889 C 29.883 10.889 24.854 4.053 24.854 -5.176 L 24.854 -45.654 C 24.854 -63.184 27.148 -78.369 29.639 -88.721 C 31.934 -98.828 38.086 -104.639 47.51 -105.713 C 52.734 -106.396 62.061 -106.982 74.072 -106.982 C 85.205 -106.982 95.41 -106.396 100.635 -105.713 C 110.01 -104.639 116.211 -98.828 118.506 -88.721 C 120.947 -78.369 123.291 -62.793 123.291 -45.264 L 123.291 -5.176 C 123.291 4.053 118.213 10.889 106.738 10.889 L 41.357 10.889 Z M 57.813 -90.137 L 90.332 -90.137 C 92.725 -90.137 94.336 -91.748 94.336 -94.141 C 94.336 -96.484 92.725 -98.047 90.332 -98.047 L 57.813 -98.047 C 55.42 -98.047 53.809 -96.484 53.809 -94.141 C 53.809 -91.748 55.42 -90.137 57.813 -90.137 Z M 103.564 0.928 C 108.301 0.928 112.012 -2.734 112.012 -7.568 C 112.012 -12.402 108.35 -16.016 103.564 -16.016 C 98.731 -16.016 95.02 -12.402 95.02 -7.568 C 95.02 -2.734 98.731 0.928 103.564 0.928 Z M 44.531 0.879 C 49.316 0.879 53.027 -2.686 53.027 -7.568 C 53.027 -12.402 49.414 -15.967 44.531 -15.967 C 39.697 -15.967 36.133 -12.402 36.133 -7.568 C 36.133 -2.686 39.697 0.879 44.531 0.879 Z M 46.338 27.295 L 51.025 19.727 L 96.924 19.727 L 101.611 27.295 L 46.338 27.295 Z"/>
    </g>
    <g id="Regular-L" transform="matrix(1 0 0 1 1377.51 1556)">
      <path d="M 29.102 42.578 L 32.373 42.578 C 33.984 42.578 34.863 42.09 35.742 40.723 L 39.356 34.912 L 105.518 34.912 L 109.131 40.723 C 109.961 42.09 110.84 42.578 112.451 42.578 L 115.723 42.578 C 118.408 42.578 119.531 40.039 118.115 37.744 L 106.152 18.359 C 120.752 18.164 128.613 8.301 128.613 -5.078 L 128.613 -43.848 C 128.613 -61.67 126.172 -79.59 123.34 -90.625 C 120.361 -102.93 111.719 -110.986 100.049 -112.256 C 95.313 -112.793 84.375 -113.623 72.363 -113.623 C 59.326 -113.623 49.365 -112.793 44.629 -112.256 C 32.959 -110.986 24.316 -102.93 21.338 -90.625 C 18.506 -79.59 16.064 -62.109 16.064 -44.287 L 16.064 -5.078 C 16.064 8.301 23.975 18.262 38.672 18.359 L 26.611 37.744 C 25.147 40.088 26.465 42.578 29.102 42.578 Z M 40.088 11.231 C 28.174 11.231 23.242 4.15 23.242 -5.078 L 23.242 -44.287 C 23.242 -61.719 25.781 -78.613 28.369 -89.111 C 30.615 -98.389 36.768 -104.15 45.361 -105.176 C 50.537 -105.811 60.059 -106.445 72.363 -106.445 C 83.594 -106.445 94.141 -105.811 99.316 -105.176 C 107.91 -104.15 114.062 -98.389 116.309 -89.111 C 118.896 -78.613 121.436 -61.279 121.436 -43.848 L 121.436 -5.078 C 121.436 4.15 116.504 11.231 104.59 11.231 L 40.088 11.231 Z M 56.055 -89.99 L 88.672 -89.99 C 90.82 -89.99 92.188 -91.455 92.188 -93.603 C 92.188 -95.703 90.82 -97.07 88.672 -97.07 L 56.055 -97.07 C 53.857 -97.07 52.49 -95.703 52.49 -93.603 C 52.49 -91.455 53.857 -89.99 56.055 -89.99 Z M 101.66 0.781 C 106.299 0.781 110.01 -2.832 110.01 -7.617 C 110.01 -12.353 106.396 -15.967 101.66 -15.967 C 96.875 -15.967 93.213 -12.353 93.213 -7.617 C 93.213 -2.832 96.875 0.781 101.66 0.781 Z M 42.969 0.732 C 47.754 0.732 51.367 -2.783 51.367 -7.617 C 51.367 -12.402 47.852 -15.918 42.969 -15.918 C 38.184 -15.918 34.717 -12.402 34.717 -7.617 C 34.717 -2.783 38.184 0.732 42.969 0.732 Z M 44.678 26.27 L 49.609 18.359 L 95.264 18.359 L 100.146 26.27 L 44.678 26.27 Z"/>
    </g>
    <g id="Light-L" transform="matrix(1 0 0 1 1082.04 1556)">
      <path d="M 28.125 41.406 L 31.006 41.406 C 32.471 41.406 33.203 40.967 33.936 39.795 L 37.549 33.984 L 104.736 33.984 L 108.301 39.795 C 109.033 40.967 109.766 41.406 111.23 41.406 L 114.111 41.406 C 116.406 41.406 117.334 39.307 116.113 37.354 L 104.297 18.262 C 119.141 18.018 126.123 8.154 126.123 -4.346 L 126.123 -43.408 C 126.123 -62.549 123.242 -81.201 120.459 -91.699 C 117.725 -102.49 109.961 -109.57 99.512 -110.742 C 93.897 -111.426 83.106 -112.207 71.094 -112.207 C 58.447 -112.207 48.291 -111.426 42.676 -110.742 C 32.227 -109.57 24.463 -102.49 21.729 -91.699 C 18.945 -81.201 16.064 -62.793 16.064 -43.701 L 16.064 -4.346 C 16.064 8.154 23.047 18.066 37.94 18.262 L 26.074 37.354 C 24.805 39.356 25.83 41.406 28.125 41.406 Z M 39.307 12.598 C 26.611 12.598 21.777 4.98 21.777 -4.346 L 21.777 -43.701 C 21.777 -62.646 24.902 -80.615 27.393 -90.576 C 29.395 -98.828 35.205 -104.15 43.262 -105.176 C 49.658 -106.006 59.473 -106.494 71.094 -106.494 C 82.08 -106.494 92.529 -106.006 98.877 -105.176 C 106.934 -104.15 112.744 -98.828 114.795 -90.576 C 117.285 -80.615 120.41 -62.353 120.41 -43.408 L 120.41 -4.346 C 120.41 4.98 115.576 12.598 102.832 12.598 L 39.307 12.598 Z M 54.492 -90.234 L 87.647 -90.234 C 89.6 -90.234 90.772 -91.504 90.772 -93.408 C 90.772 -95.215 89.6 -96.484 87.647 -96.484 L 54.492 -96.484 C 52.588 -96.484 51.367 -95.215 51.367 -93.408 C 51.367 -91.504 52.588 -90.234 54.492 -90.234 Z M 100.537 1.318 C 104.98 1.318 108.447 -2.1 108.447 -6.641 C 108.447 -11.133 105.078 -14.502 100.537 -14.502 C 96.045 -14.502 92.578 -11.133 92.578 -6.641 C 92.578 -2.1 96.045 1.318 100.537 1.318 Z M 41.65 1.27 C 46.143 1.27 49.609 -2.051 49.609 -6.641 C 49.609 -11.133 46.191 -14.502 41.65 -14.502 C 37.109 -14.502 33.789 -11.133 33.789 -6.641 C 33.789 -2.051 37.109 1.27 41.65 1.27 Z M 42.188 26.514 L 47.315 18.262 L 94.922 18.262 L 100.049 26.514 L 42.188 26.514 Z"/>
    </g>
    <g id="Thin-L" transform="matrix(1 0 0 1 787.013 1556)">
      <path d="M 26.807 39.844 L 29.248 39.844 C 30.42 39.844 30.957 39.502 31.592 38.574 L 35.156 32.813 L 103.662 32.813 L 107.227 38.574 C 107.812 39.502 108.35 39.844 109.57 39.844 L 112.012 39.844 C 113.77 39.844 114.404 38.33 113.428 36.865 L 101.807 18.164 C 116.943 17.822 122.754 8.008 122.754 -3.369 L 122.754 -42.871 C 122.754 -63.672 119.385 -83.301 116.65 -93.066 C 114.209 -101.855 107.568 -107.666 98.779 -108.74 C 91.992 -109.57 81.397 -110.303 69.434 -110.303 C 57.324 -110.303 46.826 -109.57 40.088 -108.74 C 31.299 -107.666 24.609 -101.855 22.217 -93.066 C 19.482 -83.301 16.064 -63.721 16.064 -42.969 L 16.064 -3.369 C 16.064 8.008 21.875 17.822 36.963 18.164 L 25.342 36.865 C 24.365 38.33 25.049 39.844 26.807 39.844 Z M 38.281 14.404 C 24.512 14.404 19.775 6.104 19.775 -3.369 L 19.775 -42.969 C 19.775 -63.818 23.682 -83.252 26.074 -92.48 C 27.832 -99.463 33.154 -104.102 40.527 -105.176 C 48.486 -106.299 58.643 -106.592 69.434 -106.592 C 80.029 -106.592 90.381 -106.299 98.34 -105.176 C 105.664 -104.102 111.035 -99.463 112.793 -92.48 C 115.137 -83.252 119.043 -63.769 119.043 -42.871 L 119.043 -3.369 C 119.043 6.104 114.355 14.404 100.537 14.404 L 38.281 14.404 Z M 52.49 -90.527 L 86.377 -90.527 C 87.988 -90.527 88.916 -91.602 88.916 -93.164 C 88.916 -94.629 87.988 -95.703 86.377 -95.703 L 52.49 -95.703 C 50.879 -95.703 49.902 -94.629 49.902 -93.164 C 49.902 -91.602 50.879 -90.527 52.49 -90.527 Z M 99.121 2.002 C 103.223 2.002 106.445 -1.123 106.445 -5.322 C 106.445 -9.473 103.32 -12.598 99.121 -12.598 C 94.922 -12.598 91.748 -9.473 91.748 -5.322 C 91.748 -1.123 94.922 2.002 99.121 2.002 Z M 39.844 2.002 C 44.043 2.002 47.266 -1.123 47.266 -5.322 C 47.266 -9.473 44.043 -12.598 39.844 -12.598 C 35.645 -12.598 32.568 -9.473 32.568 -5.322 C 32.568 -1.123 35.645 2.002 39.844 2.002 Z M 38.867 26.807 L 44.287 18.164 L 94.531 18.164 L 99.902 26.807 L 38.867 26.807 Z"/>
    </g>
    <g id="Ultralight-L" transform="matrix(1 0 0 1 491.132 1556)">
      <path d="M 26.123 39.063 L 28.32 39.063 C 29.395 39.063 29.834 38.77 30.371 37.94 L 33.887 32.227 L 103.125 32.227 L 106.689 37.94 C 107.178 38.77 107.617 39.063 108.691 39.063 L 110.938 39.063 C 112.402 39.063 112.891 37.842 112.061 36.572 L 100.537 18.066 C 115.869 17.725 121.094 7.91 121.094 -2.881 L 121.094 -42.627 C 121.094 -64.258 117.383 -84.375 114.697 -93.75 C 112.451 -101.562 106.348 -106.689 98.389 -107.715 C 91.016 -108.643 80.566 -109.375 68.555 -109.375 C 56.738 -109.375 46.094 -108.643 38.77 -107.715 C 30.811 -106.689 24.707 -101.562 22.461 -93.75 C 19.727 -84.375 16.064 -64.209 16.064 -42.578 L 16.064 -2.881 C 16.064 7.91 21.289 17.676 36.475 18.066 L 24.951 36.572 C 24.17 37.842 24.609 39.063 26.123 39.063 Z M 37.744 15.381 C 23.438 15.381 18.799 6.641 18.799 -2.881 L 18.799 -42.578 C 18.799 -64.453 23.096 -84.57 25.391 -93.506 C 27.002 -99.756 32.129 -104.102 39.111 -105.176 C 47.852 -106.445 58.252 -106.641 68.555 -106.641 C 79.004 -106.641 89.258 -106.445 98.047 -105.176 C 105.029 -104.102 110.107 -99.756 111.768 -93.506 C 114.062 -84.57 118.359 -64.502 118.359 -42.627 L 118.359 -2.881 C 118.359 6.641 113.721 15.381 99.365 15.381 L 37.744 15.381 Z M 51.416 -90.674 L 85.693 -90.674 C 87.158 -90.674 87.988 -91.65 87.988 -93.018 C 87.988 -94.287 87.158 -95.312 85.693 -95.312 L 51.416 -95.312 C 50 -95.312 49.17 -94.287 49.17 -93.018 C 49.17 -91.65 50 -90.674 51.416 -90.674 Z M 38.965 2.393 C 42.969 2.393 46.045 -0.635 46.045 -4.639 C 46.045 -8.643 42.969 -11.621 38.965 -11.621 C 34.912 -11.621 31.934 -8.643 31.934 -4.639 C 31.934 -0.635 34.912 2.393 38.965 2.393 Z M 98.389 2.393 C 102.344 2.393 105.371 -0.586 105.371 -4.639 C 105.371 -8.643 102.393 -11.621 98.389 -11.621 C 94.385 -11.621 91.309 -8.643 91.309 -4.639 C 91.309 -0.586 94.385 2.393 98.389 2.393 Z M 37.207 26.953 L 42.725 18.115 L 94.336 18.115 L 99.854 26.953 L 37.207 26.953 Z"/>
    </g>
    <g id="Black-M" transform="matrix(1 0 0 1 2867.53 1126)">
      <path d="M 23.34 37.793 L 27.93 37.793 C 30.371 37.793 31.885 36.914 33.203 34.863 L 35.693 30.859 L 94.043 30.859 L 96.533 34.863 C 97.852 36.914 99.365 37.793 101.807 37.793 L 105.127 37.793 C 109.668 37.793 112.109 33.154 109.668 29.248 L 100.195 14.014 C 112.256 12.305 119.287 3.809 119.287 -9.521 L 119.287 -50.391 C 119.287 -65.234 118.604 -69.629 117.383 -76.367 C 113.818 -95.898 105.566 -104.199 87.598 -107.178 C 81.445 -108.203 74.316 -108.545 65.869 -108.545 C 57.471 -108.545 50.293 -108.203 44.141 -107.178 C 26.172 -104.199 17.92 -95.898 14.356 -76.367 C 13.135 -69.629 12.451 -65.234 12.451 -50.391 L 12.451 -9.521 C 12.451 3.125 18.799 11.426 29.736 13.721 L 19.531 30.127 C 17.627 33.154 18.799 37.793 23.34 37.793 Z M 38.477 -0.537 C 31.348 -0.537 27.1 -4.834 27.1 -12.06 L 27.1 -50.391 C 27.1 -65.234 27.832 -68.262 28.955 -75.293 C 30.957 -87.207 35.693 -91.406 47.022 -92.92 C 52.002 -93.555 58.203 -93.652 65.869 -93.652 C 73.584 -93.652 79.736 -93.555 84.717 -92.92 C 96.045 -91.406 100.781 -87.207 102.783 -75.293 C 103.906 -68.262 104.639 -65.234 104.639 -50.391 L 104.639 -12.06 C 104.639 -4.834 100.439 -0.537 93.262 -0.537 L 38.477 -0.537 Z M 53.272 -78.564 L 78.467 -78.564 C 81.348 -78.564 83.545 -80.762 83.545 -83.643 C 83.545 -86.572 81.348 -88.769 78.467 -88.769 L 53.272 -88.769 C 50.391 -88.769 48.242 -86.572 48.242 -83.643 C 48.242 -80.664 50.391 -78.564 53.272 -78.564 Z M 41.895 -6.104 C 45.85 -6.104 48.828 -9.082 48.828 -13.037 C 48.828 -16.943 45.85 -19.922 41.895 -19.922 C 38.037 -19.922 35.059 -16.943 35.059 -13.037 C 35.059 -9.082 37.988 -6.104 41.895 -6.104 Z M 89.844 -6.104 C 93.701 -6.104 96.68 -9.082 96.68 -13.037 C 96.68 -16.943 93.75 -19.922 89.844 -19.922 C 85.938 -19.922 82.91 -16.943 82.91 -13.037 C 82.91 -9.082 85.938 -6.104 89.844 -6.104 Z M 43.213 18.799 L 45.947 14.356 L 83.789 14.356 L 86.572 18.799 L 43.213 18.799 Z"/>
    </g>
    <g id="Heavy-M" transform="matrix(1 0 0 1 2572.97 1126)">
      <path d="M 23.291 34.961 L 27.441 34.961 C 29.639 34.961 30.957 34.18 32.178 32.324 L 34.717 28.223 L 91.26 28.223 L 93.799 32.324 C 95.02 34.18 96.338 34.961 98.535 34.961 L 101.709 34.961 C 105.713 34.961 107.812 30.859 105.664 27.441 L 96.24 12.256 C 108.105 10.84 114.99 2.588 114.99 -10.156 L 114.99 -48.437 C 114.99 -62.891 114.111 -69.434 112.646 -76.66 C 109.326 -94.043 101.367 -101.953 85.303 -104.492 C 79.834 -105.371 72.412 -105.762 63.721 -105.762 C 54.834 -105.762 47.607 -105.371 42.139 -104.492 C 26.123 -101.953 18.115 -94.043 14.795 -76.66 C 13.379 -69.434 12.451 -62.988 12.451 -48.535 L 12.451 -10.156 C 12.451 2.1 18.848 10.205 29.834 12.061 L 19.873 28.125 C 18.115 30.859 19.287 34.961 23.291 34.961 Z M 36.816 -0.391 C 29.297 -0.391 25.147 -4.883 25.147 -12.109 L 25.147 -48.535 C 25.147 -62.891 26.074 -68.164 27.441 -75.488 C 29.443 -86.426 34.229 -90.771 44.482 -92.09 C 49.072 -92.676 55.518 -92.92 63.721 -92.92 C 71.68 -92.92 78.369 -92.676 82.959 -92.09 C 93.262 -90.771 98.047 -86.426 100 -75.488 C 101.367 -68.164 102.295 -62.793 102.295 -48.437 L 102.295 -12.109 C 102.295 -4.883 98.145 -0.391 90.625 -0.391 L 36.816 -0.391 Z M 51.172 -78.32 L 76.318 -78.32 C 78.955 -78.32 80.908 -80.273 80.908 -82.91 C 80.908 -85.596 78.955 -87.549 76.318 -87.549 L 51.172 -87.549 C 48.535 -87.549 46.631 -85.596 46.631 -82.91 C 46.631 -80.225 48.535 -78.32 51.172 -78.32 Z M 87.354 -6.445 C 91.211 -6.445 94.19 -9.424 94.19 -13.33 C 94.19 -17.236 91.26 -20.215 87.354 -20.215 C 83.447 -20.215 80.469 -17.236 80.469 -13.33 C 80.469 -9.424 83.447 -6.445 87.354 -6.445 Z M 40.039 -6.494 C 43.945 -6.494 46.924 -9.424 46.924 -13.33 C 46.924 -17.236 43.994 -20.215 40.039 -20.215 C 36.182 -20.215 33.252 -17.236 33.252 -13.33 C 33.252 -9.424 36.133 -6.494 40.039 -6.494 Z M 41.504 17.285 L 44.482 12.451 L 81.494 12.451 L 84.473 17.285 L 41.504 17.285 Z"/>
    </g>
    <g id="Bold-M" transform="matrix(1 0 0 1 2278.65 1126)">
      <path d="M 23.242 31.787 L 26.904 31.787 C 28.809 31.787 29.932 31.104 30.957 29.492 L 33.594 25.244 L 88.135 25.244 L 90.772 29.492 C 91.797 31.104 92.92 31.787 94.873 31.787 L 97.852 31.787 C 101.27 31.787 103.027 28.32 101.172 25.391 L 91.797 10.254 C 103.418 9.229 110.205 1.221 110.205 -10.889 L 110.205 -46.289 C 110.205 -60.254 109.033 -69.189 107.324 -77.002 C 104.297 -91.943 96.582 -99.463 82.715 -101.465 C 78.076 -102.148 70.215 -102.686 61.328 -102.686 C 51.953 -102.686 44.58 -102.148 39.941 -101.465 C 26.074 -99.463 18.359 -91.943 15.332 -77.002 C 13.623 -69.189 12.451 -60.449 12.451 -46.484 L 12.451 -10.889 C 12.451 0.879 18.897 8.838 29.981 10.156 L 20.215 25.83 C 18.652 28.369 19.824 31.787 23.242 31.787 Z M 35.01 -0.293 C 27.051 -0.293 22.949 -4.98 22.949 -12.158 L 22.949 -46.484 C 22.949 -60.254 24.17 -68.018 25.781 -75.732 C 27.686 -85.547 32.52 -90.039 41.699 -91.162 C 45.85 -91.699 52.539 -92.041 61.328 -92.041 C 69.629 -92.041 76.807 -91.699 80.957 -91.162 C 90.088 -90.039 94.971 -85.547 96.875 -75.732 C 98.486 -68.018 99.707 -60.01 99.707 -46.289 L 99.707 -12.158 C 99.707 -4.98 95.606 -0.293 87.647 -0.293 L 35.01 -0.293 Z M 48.779 -78.027 L 73.877 -78.027 C 76.221 -78.027 77.93 -79.736 77.93 -82.08 C 77.93 -84.473 76.221 -86.133 73.877 -86.133 L 48.779 -86.133 C 46.436 -86.133 44.775 -84.473 44.775 -82.08 C 44.775 -79.736 46.436 -78.027 48.779 -78.027 Z M 84.619 -6.885 C 88.428 -6.885 91.406 -9.814 91.406 -13.721 C 91.406 -17.578 88.477 -20.508 84.619 -20.508 C 80.713 -20.508 77.783 -17.578 77.783 -13.721 C 77.783 -9.814 80.713 -6.885 84.619 -6.885 Z M 37.988 -6.885 C 41.846 -6.885 44.824 -9.814 44.824 -13.721 C 44.824 -17.627 41.895 -20.508 37.988 -20.508 C 34.131 -20.508 31.25 -17.627 31.25 -13.721 C 31.25 -9.814 34.082 -6.885 37.988 -6.885 Z M 39.648 15.527 L 42.871 10.352 L 78.906 10.352 L 82.129 15.527 L 39.648 15.527 Z"/>
    </g>
    <g id="Semibold-M" transform="matrix(1 0 0 1 1983.6 1126)">
      <path d="M 23.193 29.59 L 26.514 29.59 C 28.223 29.59 29.248 29.004 30.127 27.539 L 32.861 23.193 L 85.986 23.193 L 88.672 27.539 C 89.6 29.004 90.625 29.59 92.334 29.59 L 95.215 29.59 C 98.242 29.59 99.707 26.563 98.096 23.975 L 88.721 8.838 C 100.146 8.154 106.885 0.244 106.885 -11.377 L 106.885 -44.775 C 106.885 -58.398 105.518 -68.994 103.662 -77.197 C 100.83 -90.478 93.311 -97.754 80.957 -99.414 C 76.807 -99.951 68.701 -100.537 59.668 -100.537 C 49.951 -100.537 42.529 -99.951 38.379 -99.414 C 26.025 -97.754 18.506 -90.478 15.723 -77.197 C 13.818 -68.994 12.451 -58.691 12.451 -45.068 L 12.451 -11.377 C 12.451 0.049 18.994 7.91 30.127 8.838 L 20.508 24.268 C 19.043 26.611 20.215 29.59 23.193 29.59 Z M 33.74 -0.195 C 25.488 -0.195 21.484 -5.078 21.484 -12.207 L 21.484 -45.068 C 21.484 -58.447 22.852 -67.92 24.609 -75.879 C 26.514 -84.961 31.397 -89.551 39.746 -90.527 C 43.604 -91.016 50.488 -91.455 59.668 -91.455 C 68.164 -91.455 75.781 -91.016 79.59 -90.527 C 87.94 -89.551 92.822 -84.961 94.727 -75.879 C 96.484 -67.92 97.852 -58.105 97.852 -44.775 L 97.852 -12.207 C 97.852 -5.078 93.848 -0.195 85.596 -0.195 L 33.74 -0.195 Z M 47.168 -77.881 L 72.168 -77.881 C 74.365 -77.881 75.83 -79.394 75.83 -81.543 C 75.83 -83.691 74.365 -85.205 72.168 -85.205 L 47.168 -85.205 C 44.971 -85.205 43.506 -83.691 43.506 -81.543 C 43.506 -79.346 44.971 -77.881 47.168 -77.881 Z M 82.715 -7.129 C 86.523 -7.129 89.502 -10.059 89.502 -13.965 C 89.502 -17.822 86.572 -20.752 82.715 -20.752 C 78.857 -20.752 75.879 -17.822 75.879 -13.965 C 75.879 -10.059 78.857 -7.129 82.715 -7.129 Z M 36.572 -7.178 C 40.43 -7.178 43.359 -10.059 43.359 -13.965 C 43.359 -17.822 40.479 -20.703 36.572 -20.703 C 32.715 -20.703 29.834 -17.822 29.834 -13.965 C 29.834 -10.059 32.715 -7.178 36.572 -7.178 Z M 38.33 14.356 L 41.699 8.887 L 77.1 8.887 L 80.518 14.356 L 38.33 14.356 Z"/>
    </g>
    <g id="Medium-M" transform="matrix(1 0 0 1 1688.13 1126)">
      <path d="M 23.145 27.93 L 26.221 27.93 C 27.783 27.93 28.711 27.393 29.541 26.074 L 32.275 21.631 L 84.375 21.631 L 87.109 26.074 C 87.94 27.393 88.818 27.93 90.381 27.93 L 93.213 27.93 C 95.898 27.93 97.168 25.244 95.752 22.949 L 86.377 7.764 C 97.705 7.324 104.395 -0.488 104.395 -11.768 L 104.395 -43.603 C 104.395 -57.031 102.881 -68.896 100.83 -77.393 C 98.193 -89.404 90.869 -96.435 79.59 -97.852 C 75.879 -98.291 67.578 -98.926 58.398 -98.926 C 48.438 -98.926 40.918 -98.291 37.207 -97.852 C 25.977 -96.435 18.604 -89.404 15.967 -77.393 C 13.916 -68.896 12.451 -57.373 12.451 -43.994 L 12.451 -11.768 C 12.451 -0.537 19.043 7.227 30.225 7.764 L 20.703 23.096 C 19.336 25.293 20.508 27.93 23.145 27.93 Z M 32.764 -0.098 C 24.316 -0.098 20.313 -5.127 20.313 -12.256 L 20.313 -43.994 C 20.313 -57.031 21.826 -67.822 23.731 -75.977 C 25.586 -84.473 30.518 -89.16 38.281 -90.039 C 41.895 -90.478 48.926 -90.967 58.398 -90.967 C 67.09 -90.967 74.951 -90.478 78.565 -90.039 C 86.328 -89.16 91.26 -84.473 93.115 -75.977 C 95.02 -67.822 96.484 -56.689 96.484 -43.603 L 96.484 -12.256 C 96.484 -5.127 92.529 -0.098 84.082 -0.098 L 32.764 -0.098 Z M 45.898 -77.734 L 70.898 -77.734 C 72.949 -77.734 74.268 -79.102 74.268 -81.103 C 74.268 -83.105 72.949 -84.473 70.898 -84.473 L 45.898 -84.473 C 43.897 -84.473 42.578 -83.105 42.578 -81.103 C 42.578 -79.102 43.897 -77.734 45.898 -77.734 Z M 81.299 -7.373 C 85.059 -7.373 88.037 -10.303 88.037 -14.16 C 88.037 -17.969 85.107 -20.898 81.299 -20.898 C 77.393 -20.898 74.463 -17.969 74.463 -14.16 C 74.463 -10.303 77.393 -7.373 81.299 -7.373 Z M 35.498 -7.422 C 39.307 -7.422 42.236 -10.254 42.236 -14.16 C 42.236 -18.018 39.404 -20.85 35.498 -20.85 C 31.641 -20.85 28.809 -18.018 28.809 -14.16 C 28.809 -10.254 31.641 -7.422 35.498 -7.422 Z M 37.354 13.477 L 40.869 7.813 L 75.781 7.813 L 79.248 13.477 L 37.354 13.477 Z"/>
    </g>
    <g id="Regular-M" transform="matrix(1 0 0 1 1393.06 1126)">
      <path d="M 23.145 25.781 L 25.879 25.781 C 27.197 25.781 27.979 25.293 28.711 24.121 L 31.543 19.629 L 82.227 19.629 L 85.01 24.121 C 85.742 25.293 86.523 25.781 87.891 25.781 L 90.625 25.781 C 92.871 25.781 93.897 23.535 92.676 21.533 L 83.301 6.348 C 94.385 6.348 101.123 -1.367 101.123 -12.305 L 101.123 -42.139 C 101.123 -55.225 99.414 -68.701 97.217 -77.588 C 94.775 -87.939 87.598 -94.727 77.881 -95.801 C 74.658 -96.143 66.113 -96.777 56.787 -96.777 C 46.484 -96.777 38.867 -96.143 35.693 -95.801 C 25.928 -94.727 18.799 -87.939 16.357 -77.588 C 14.111 -68.701 12.451 -55.664 12.451 -42.578 L 12.451 -12.305 C 12.451 -1.367 19.141 6.348 30.371 6.348 L 20.947 21.533 C 19.678 23.584 20.85 25.781 23.145 25.781 Z M 31.494 -0.049 C 22.754 -0.049 18.848 -5.176 18.848 -12.305 L 18.848 -42.578 C 18.848 -55.225 20.508 -67.725 22.559 -76.172 C 24.414 -83.887 29.395 -88.672 36.328 -89.404 C 39.648 -89.795 46.924 -90.381 56.787 -90.381 C 65.674 -90.381 73.877 -89.795 77.197 -89.404 C 84.18 -88.672 89.16 -83.887 91.016 -76.172 C 93.066 -67.725 94.727 -54.785 94.727 -42.139 L 94.727 -12.305 C 94.727 -5.176 90.82 -0.049 82.031 -0.049 L 31.494 -0.049 Z M 44.287 -77.539 L 69.238 -77.539 C 71.094 -77.539 72.266 -78.76 72.266 -80.566 C 72.266 -82.373 71.094 -83.496 69.238 -83.496 L 44.287 -83.496 C 42.481 -83.496 41.309 -82.373 41.309 -80.566 C 41.309 -78.76 42.481 -77.539 44.287 -77.539 Z M 79.395 -7.617 C 83.154 -7.617 86.133 -10.547 86.133 -14.404 C 86.133 -18.213 83.203 -21.094 79.395 -21.094 C 75.537 -21.094 72.607 -18.213 72.607 -14.404 C 72.607 -10.547 75.537 -7.617 79.395 -7.617 Z M 34.082 -7.666 C 37.891 -7.666 40.82 -10.498 40.82 -14.404 C 40.82 -18.262 37.988 -21.045 34.082 -21.045 C 30.225 -21.045 27.441 -18.262 27.441 -14.404 C 27.441 -10.498 30.225 -7.666 34.082 -7.666 Z M 36.084 12.305 L 39.746 6.348 L 74.023 6.348 L 77.686 12.305 L 36.084 12.305 Z"/>
    </g>
    <g id="Light-M" transform="matrix(1 0 0 1 1097.47 1126)">
      <path d="M 22.217 24.707 L 24.658 24.707 C 25.83 24.707 26.465 24.316 27.1 23.291 L 29.883 18.848 L 81.494 18.848 L 84.277 23.291 C 84.912 24.316 85.547 24.707 86.768 24.707 L 89.16 24.707 C 91.113 24.707 91.895 22.852 90.869 21.191 L 81.641 6.299 C 93.018 6.104 98.877 -1.562 98.877 -11.621 L 98.877 -41.748 C 98.877 -56.006 96.826 -70.117 94.629 -78.516 C 92.432 -87.549 85.986 -93.457 77.344 -94.434 C 73.389 -94.873 64.99 -95.508 55.664 -95.508 C 45.703 -95.508 37.891 -94.873 33.936 -94.434 C 25.293 -93.457 18.897 -87.549 16.65 -78.516 C 14.502 -70.117 12.451 -56.299 12.451 -42.041 L 12.451 -11.621 C 12.451 -1.514 18.311 6.152 29.736 6.299 L 20.459 21.191 C 19.385 22.9 20.313 24.707 22.217 24.707 Z M 30.811 1.221 C 21.338 1.221 17.529 -4.443 17.529 -11.621 L 17.529 -42.041 C 17.529 -56.055 19.678 -69.531 21.68 -77.441 C 23.34 -84.326 27.979 -88.623 34.473 -89.404 C 38.867 -89.99 46.338 -90.43 55.664 -90.43 C 64.307 -90.43 72.461 -89.99 76.807 -89.404 C 83.301 -88.623 87.988 -84.326 89.648 -77.441 C 91.602 -69.531 93.799 -55.762 93.799 -41.748 L 93.799 -11.621 C 93.799 -4.443 89.99 1.221 80.469 1.221 L 30.811 1.221 Z M 42.92 -77.734 L 68.359 -77.734 C 69.971 -77.734 70.996 -78.809 70.996 -80.371 C 70.996 -81.934 69.971 -82.959 68.359 -82.959 L 42.92 -82.959 C 41.309 -82.959 40.332 -81.934 40.332 -80.371 C 40.332 -78.809 41.309 -77.734 42.92 -77.734 Z M 78.418 -7.129 C 81.934 -7.129 84.766 -9.863 84.766 -13.525 C 84.766 -17.09 82.031 -19.824 78.418 -19.824 C 74.805 -19.824 72.022 -17.09 72.022 -13.525 C 72.022 -9.863 74.805 -7.129 78.418 -7.129 Z M 32.861 -7.178 C 36.475 -7.178 39.209 -9.863 39.209 -13.525 C 39.209 -17.139 36.523 -19.775 32.861 -19.775 C 29.248 -19.775 26.611 -17.139 26.611 -13.525 C 26.611 -9.863 29.248 -7.178 32.861 -7.178 Z M 33.838 12.5 L 37.695 6.299 L 73.731 6.299 L 77.588 12.5 L 33.838 12.5 Z"/>
    </g>
    <g id="Thin-M" transform="matrix(1 0 0 1 802.272 1126)">
      <path d="M 21.045 23.291 L 23.047 23.291 C 24.023 23.291 24.463 22.998 25 22.217 L 27.734 17.773 L 80.566 17.773 L 83.35 22.217 C 83.838 22.998 84.277 23.291 85.254 23.291 L 87.256 23.291 C 88.721 23.291 89.307 21.973 88.477 20.752 L 79.443 6.152 C 91.113 5.957 95.85 -1.709 95.85 -10.742 L 95.85 -41.26 C 95.85 -57.031 93.359 -72.021 91.211 -79.736 C 89.258 -87.012 83.887 -91.797 76.709 -92.627 C 71.729 -93.262 63.477 -93.848 54.15 -93.848 C 44.678 -93.848 36.621 -93.262 31.641 -92.627 C 24.463 -91.797 19.043 -87.012 17.09 -79.736 C 14.99 -72.021 12.451 -57.129 12.451 -41.357 L 12.451 -10.742 C 12.451 -1.709 17.188 5.908 28.857 6.152 L 19.824 20.752 C 18.994 22.022 19.58 23.291 21.045 23.291 Z M 29.883 2.832 C 19.434 2.832 15.772 -3.418 15.772 -10.742 L 15.772 -41.357 C 15.772 -57.129 18.652 -71.875 20.508 -79.199 C 21.924 -84.863 26.172 -88.623 31.982 -89.404 C 37.793 -90.234 45.654 -90.527 54.15 -90.527 C 62.5 -90.527 70.508 -90.234 76.318 -89.404 C 82.178 -88.623 86.426 -84.863 87.842 -79.199 C 89.697 -71.875 92.578 -57.031 92.578 -41.26 L 92.578 -10.742 C 92.578 -3.418 88.867 2.832 78.418 2.832 L 29.883 2.832 Z M 41.113 -78.027 L 67.236 -78.027 C 68.555 -78.027 69.336 -78.906 69.336 -80.176 C 69.336 -81.396 68.555 -82.275 67.236 -82.275 L 41.113 -82.275 C 39.795 -82.275 39.014 -81.396 39.014 -80.176 C 39.014 -78.906 39.795 -78.027 41.113 -78.027 Z M 77.148 -6.494 C 80.371 -6.494 82.91 -8.984 82.91 -12.305 C 82.91 -15.625 80.42 -18.115 77.148 -18.115 C 73.828 -18.115 71.289 -15.625 71.289 -12.305 C 71.289 -8.984 73.828 -6.494 77.148 -6.494 Z M 31.299 -6.543 C 34.57 -6.543 37.109 -8.984 37.109 -12.305 C 37.109 -15.625 34.619 -18.115 31.299 -18.115 C 27.979 -18.115 25.488 -15.625 25.488 -12.305 C 25.488 -8.984 27.979 -6.543 31.299 -6.543 Z M 30.859 12.793 L 34.961 6.152 L 73.34 6.152 L 77.441 12.793 L 30.859 12.793 Z"/>
    </g>
    <g id="Ultralight-M" transform="matrix(1 0 0 1 506.318 1126)">
      <path d="M 20.459 22.559 L 22.217 22.559 C 23.096 22.559 23.438 22.315 23.877 21.68 L 26.66 17.236 L 80.078 17.236 L 82.861 21.68 C 83.252 22.315 83.643 22.559 84.522 22.559 L 86.279 22.559 C 87.5 22.559 87.94 21.533 87.256 20.508 L 78.32 6.104 C 90.137 5.859 94.336 -1.758 94.336 -10.303 L 94.336 -41.016 C 94.336 -57.568 91.602 -72.998 89.453 -80.371 C 87.647 -86.719 82.813 -90.918 76.367 -91.699 C 70.85 -92.383 62.695 -92.969 53.418 -92.969 C 44.141 -92.969 35.938 -92.383 30.42 -91.699 C 24.023 -90.918 19.141 -86.719 17.334 -80.371 C 15.234 -72.998 12.451 -57.568 12.451 -41.016 L 12.451 -10.303 C 12.451 -1.758 16.65 5.811 28.418 6.104 L 19.482 20.508 C 18.799 21.533 19.238 22.559 20.459 22.559 Z M 29.443 3.711 C 18.457 3.711 14.893 -2.93 14.893 -10.303 L 14.893 -41.016 C 14.893 -57.666 18.066 -73.047 19.873 -80.078 C 21.191 -85.156 25.195 -88.623 30.713 -89.404 C 37.256 -90.381 45.264 -90.527 53.418 -90.527 C 61.572 -90.527 69.531 -90.381 76.074 -89.404 C 81.592 -88.623 85.596 -85.156 86.914 -80.078 C 88.721 -73.047 91.943 -57.666 91.943 -41.016 L 91.943 -10.303 C 91.943 -2.93 88.33 3.711 77.393 3.711 L 29.443 3.711 Z M 40.186 -78.174 L 66.602 -78.174 C 67.773 -78.174 68.457 -78.955 68.457 -80.078 C 68.457 -81.103 67.773 -81.934 66.602 -81.934 L 40.186 -81.934 C 39.014 -81.934 38.33 -81.103 38.33 -80.078 C 38.33 -78.955 39.014 -78.174 40.186 -78.174 Z M 30.469 -6.201 C 33.643 -6.201 36.035 -8.545 36.035 -11.719 C 36.035 -14.893 33.643 -17.236 30.469 -17.236 C 27.295 -17.236 24.951 -14.893 24.951 -11.719 C 24.951 -8.545 27.295 -6.201 30.469 -6.201 Z M 76.465 -6.201 C 79.59 -6.201 81.982 -8.545 81.982 -11.719 C 81.982 -14.893 79.639 -17.236 76.465 -17.236 C 73.291 -17.236 70.898 -14.893 70.898 -11.719 C 70.898 -8.545 73.291 -6.201 76.465 -6.201 Z M 29.346 12.94 L 33.594 6.104 L 73.145 6.104 L 77.393 12.94 L 29.346 12.94 Z"/>
    </g>
    <g id="Black-S" transform="matrix(1 0 0 1 2881.94 696)">
      <path d="M 18.311 21.777 L 21.875 21.777 C 23.779 21.777 24.951 21.094 25.977 19.482 L 27.93 16.357 L 73.486 16.357 L 75.44 19.482 C 76.465 21.094 77.637 21.777 79.541 21.777 L 82.129 21.777 C 85.645 21.777 87.549 18.164 85.645 15.137 L 78.223 3.223 C 87.647 1.904 93.164 -4.736 93.164 -15.137 L 93.164 -46.973 C 93.164 -58.545 92.627 -62.158 91.65 -67.48 C 88.867 -82.617 82.422 -89.111 68.457 -91.406 C 63.721 -92.187 58.106 -92.48 51.465 -92.48 C 44.824 -92.48 39.209 -92.187 34.473 -91.406 C 20.508 -89.111 14.063 -82.617 11.279 -67.48 C 10.303 -62.158 9.766 -58.545 9.766 -46.973 L 9.766 -15.137 C 9.766 -5.273 14.746 1.221 23.34 2.979 L 15.332 15.82 C 13.867 18.164 14.795 21.777 18.311 21.777 Z M 30.029 -8.057 C 24.414 -8.057 21.094 -11.426 21.094 -17.09 L 21.094 -46.973 C 21.094 -58.545 21.68 -61.084 22.607 -66.602 C 24.17 -75.879 27.881 -79.199 36.67 -80.371 C 40.527 -80.859 45.41 -80.957 51.465 -80.957 C 57.52 -80.957 62.402 -80.859 66.26 -80.371 C 75.049 -79.199 78.76 -75.879 80.322 -66.602 C 81.25 -61.084 81.836 -58.545 81.836 -46.973 L 81.836 -17.09 C 81.836 -11.426 78.516 -8.057 72.9 -8.057 L 30.029 -8.057 Z M 41.602 -69.141 L 61.328 -69.141 C 63.574 -69.141 65.283 -70.85 65.283 -73.096 C 65.283 -75.391 63.574 -77.1 61.328 -77.1 L 41.602 -77.1 C 39.356 -77.1 37.695 -75.391 37.695 -73.096 C 37.695 -70.801 39.356 -69.141 41.602 -69.141 Z M 32.715 -12.451 C 35.791 -12.451 38.135 -14.795 38.135 -17.871 C 38.135 -20.947 35.791 -23.291 32.715 -23.291 C 29.688 -23.291 27.344 -20.947 27.344 -17.871 C 27.344 -14.795 29.639 -12.451 32.715 -12.451 Z M 70.215 -12.451 C 73.242 -12.451 75.586 -14.795 75.586 -17.871 C 75.586 -20.947 73.291 -23.291 70.215 -23.291 C 67.139 -23.291 64.795 -20.947 64.795 -17.871 C 64.795 -14.795 67.139 -12.451 70.215 -12.451 Z M 33.74 6.982 L 35.938 3.467 L 65.479 3.467 L 67.676 6.982 L 33.74 6.982 Z"/>
    </g>
    <g id="Heavy-S" transform="matrix(1 0 0 1 2586.74 696)">
      <path d="M 18.359 19.727 L 21.631 19.727 C 23.34 19.727 24.414 19.092 25.342 17.627 L 27.344 14.404 L 71.436 14.404 L 73.438 17.627 C 74.365 19.092 75.44 19.727 77.148 19.727 L 79.688 19.727 C 82.813 19.727 84.473 16.504 82.764 13.77 L 75.391 1.855 C 84.619 0.781 90.137 -5.664 90.137 -15.723 L 90.137 -45.508 C 90.137 -56.641 89.453 -61.816 88.281 -67.578 C 85.693 -81.25 79.346 -87.549 66.748 -89.502 C 62.647 -90.137 56.738 -90.478 49.951 -90.478 C 42.92 -90.478 37.256 -90.137 33.154 -89.502 C 20.557 -87.549 14.209 -81.25 11.621 -67.578 C 10.449 -61.816 9.766 -56.738 9.766 -45.605 L 9.766 -15.723 C 9.766 -6.055 14.844 0.293 23.486 1.709 L 15.625 14.307 C 14.258 16.504 15.234 19.727 18.359 19.727 Z M 28.857 -8.105 C 23.047 -8.105 19.775 -11.572 19.775 -17.187 L 19.775 -45.605 C 19.775 -56.641 20.459 -60.791 21.533 -66.602 C 23.096 -75.244 26.904 -78.711 34.961 -79.736 C 38.379 -80.176 43.408 -80.371 49.951 -80.371 C 56.25 -80.371 61.523 -80.176 64.941 -79.736 C 72.998 -78.711 76.807 -75.244 78.369 -66.602 C 79.443 -60.791 80.127 -56.543 80.127 -45.508 L 80.127 -17.187 C 80.127 -11.572 76.856 -8.105 71.045 -8.105 L 28.857 -8.105 Z M 40.137 -68.945 L 59.766 -68.945 C 61.816 -68.945 63.379 -70.459 63.379 -72.559 C 63.379 -74.658 61.816 -76.221 59.766 -76.221 L 40.137 -76.221 C 38.037 -76.221 36.572 -74.658 36.572 -72.559 C 36.572 -70.459 38.037 -68.945 40.137 -68.945 Z M 68.457 -12.793 C 71.484 -12.793 73.828 -15.137 73.828 -18.213 C 73.828 -21.289 71.533 -23.633 68.457 -23.633 C 65.332 -23.633 62.988 -21.289 62.988 -18.213 C 62.988 -15.137 65.332 -12.793 68.457 -12.793 Z M 31.445 -12.793 C 34.522 -12.793 36.865 -15.137 36.865 -18.213 C 36.865 -21.289 34.522 -23.633 31.445 -23.633 C 28.369 -23.633 26.074 -21.289 26.074 -18.213 C 26.074 -15.137 28.369 -12.793 31.445 -12.793 Z M 32.715 5.762 L 35.059 2.051 L 63.721 2.051 L 66.065 5.762 L 32.715 5.762 Z"/>
    </g>
    <g id="Bold-S" transform="matrix(1 0 0 1 2291.74 696)">
      <path d="M 18.457 17.432 L 21.387 17.432 C 22.9 17.432 23.828 16.895 24.609 15.576 L 26.709 12.256 L 69.141 12.256 L 71.191 15.576 C 72.022 16.895 72.949 17.432 74.463 17.432 L 76.904 17.432 C 79.639 17.432 81.055 14.648 79.59 12.256 L 72.168 0.342 C 81.25 -0.439 86.719 -6.738 86.719 -16.357 L 86.719 -43.896 C 86.719 -54.541 85.889 -61.475 84.522 -67.725 C 82.129 -79.687 75.928 -85.791 64.844 -87.353 C 61.426 -87.891 55.225 -88.281 48.242 -88.281 C 40.82 -88.281 35.059 -87.891 31.641 -87.353 C 20.557 -85.791 14.356 -79.687 11.963 -67.725 C 10.596 -61.475 9.766 -54.736 9.766 -44.092 L 9.766 -16.357 C 9.766 -6.934 14.99 -0.732 23.682 0.293 L 16.016 12.598 C 14.746 14.648 15.723 17.432 18.457 17.432 Z M 27.539 -8.154 C 21.484 -8.154 18.262 -11.719 18.262 -17.334 L 18.262 -44.092 C 18.262 -54.541 19.092 -60.449 20.361 -66.65 C 21.924 -74.512 25.781 -78.125 33.057 -79.053 C 35.986 -79.394 41.211 -79.687 48.242 -79.687 C 54.834 -79.687 60.498 -79.394 63.477 -79.053 C 70.703 -78.125 74.609 -74.512 76.123 -66.65 C 77.441 -60.449 78.272 -54.346 78.272 -43.896 L 78.272 -17.334 C 78.272 -11.719 75.049 -8.154 68.994 -8.154 L 27.539 -8.154 Z M 38.477 -68.701 L 58.008 -68.701 C 59.912 -68.701 61.279 -70.068 61.279 -71.973 C 61.279 -73.877 59.912 -75.195 58.008 -75.195 L 38.477 -75.195 C 36.621 -75.195 35.254 -73.877 35.254 -71.973 C 35.254 -70.068 36.621 -68.701 38.477 -68.701 Z M 66.455 -13.135 C 69.482 -13.135 71.875 -15.478 71.875 -18.603 C 71.875 -21.68 69.531 -24.023 66.455 -24.023 C 63.33 -24.023 60.986 -21.68 60.986 -18.603 C 60.986 -15.478 63.33 -13.135 66.455 -13.135 Z M 30.029 -13.184 C 33.106 -13.184 35.449 -15.478 35.449 -18.603 C 35.449 -21.728 33.154 -24.023 30.029 -24.023 C 26.904 -24.023 24.609 -21.728 24.609 -18.603 C 24.609 -15.478 26.904 -13.184 30.029 -13.184 Z M 31.543 4.443 L 34.033 0.439 L 61.816 0.439 L 64.307 4.443 L 31.543 4.443 Z"/>
    </g>
    <g id="Semibold-S" transform="matrix(1 0 0 1 1996.17 696)">
      <path d="M 18.506 15.82 L 21.191 15.82 C 22.559 15.82 23.389 15.381 24.121 14.16 L 26.27 10.742 L 67.529 10.742 L 69.678 14.16 C 70.41 15.381 71.24 15.82 72.607 15.82 L 75 15.82 C 77.441 15.82 78.662 13.379 77.344 11.231 L 69.971 -0.732 C 78.857 -1.221 84.424 -7.422 84.424 -16.797 L 84.424 -42.773 C 84.424 -53.076 83.447 -61.23 81.934 -67.822 C 79.688 -78.613 73.584 -84.57 63.525 -85.889 C 60.596 -86.279 54.199 -86.768 47.07 -86.768 C 39.356 -86.768 33.594 -86.279 30.615 -85.889 C 20.606 -84.57 14.453 -78.613 12.207 -67.822 C 10.693 -61.23 9.766 -53.369 9.766 -43.066 L 9.766 -16.797 C 9.766 -7.568 15.137 -1.416 23.828 -0.732 L 16.26 11.475 C 15.039 13.379 16.016 15.82 18.506 15.82 Z M 26.611 -8.203 C 20.41 -8.203 17.236 -11.865 17.236 -17.432 L 17.236 -43.066 C 17.236 -53.076 18.115 -60.254 19.531 -66.65 C 21.094 -74.023 25.049 -77.783 31.69 -78.516 C 34.326 -78.857 39.697 -79.248 47.07 -79.248 C 53.857 -79.248 59.815 -78.857 62.451 -78.516 C 69.141 -77.783 73.096 -74.023 74.609 -66.65 C 76.025 -60.254 76.953 -52.783 76.953 -42.773 L 76.953 -17.432 C 76.953 -11.865 73.779 -8.203 67.529 -8.203 L 26.611 -8.203 Z M 37.354 -68.555 L 56.787 -68.555 C 58.545 -68.555 59.766 -69.775 59.766 -71.533 C 59.766 -73.34 58.545 -74.512 56.787 -74.512 L 37.354 -74.512 C 35.596 -74.512 34.375 -73.34 34.375 -71.533 C 34.375 -69.775 35.596 -68.555 37.354 -68.555 Z M 65.088 -13.379 C 68.115 -13.379 70.508 -15.771 70.508 -18.896 C 70.508 -21.973 68.164 -24.316 65.088 -24.316 C 61.963 -24.316 59.619 -21.973 59.619 -18.896 C 59.619 -15.771 61.963 -13.379 65.088 -13.379 Z M 29.004 -13.428 C 32.129 -13.428 34.473 -15.723 34.473 -18.896 C 34.473 -21.973 32.178 -24.268 29.004 -24.268 C 25.928 -24.268 23.633 -21.973 23.633 -18.896 C 23.633 -15.723 25.928 -13.428 29.004 -13.428 Z M 30.762 3.516 L 33.35 -0.684 L 60.449 -0.684 L 63.037 3.516 L 30.762 3.516 Z"/>
    </g>
    <g id="Medium-S" transform="matrix(1 0 0 1 1700.36 696)">
      <path d="M 18.506 14.648 L 21.045 14.648 C 22.315 14.648 23.096 14.209 23.779 13.086 L 25.928 9.619 L 66.357 9.619 L 68.506 13.086 C 69.19 14.209 69.971 14.648 71.24 14.648 L 73.584 14.648 C 75.83 14.648 76.904 12.402 75.684 10.449 L 68.311 -1.514 C 77.1 -1.855 82.617 -8.008 82.617 -17.139 L 82.617 -41.943 C 82.617 -51.953 81.592 -61.035 79.981 -67.871 C 77.832 -77.783 71.777 -83.643 62.549 -84.766 C 59.961 -85.107 53.418 -85.596 46.191 -85.596 C 38.232 -85.596 32.422 -85.107 29.834 -84.766 C 20.606 -83.643 14.551 -77.783 12.402 -67.871 C 10.791 -61.035 9.766 -52.295 9.766 -42.285 L 9.766 -17.139 C 9.766 -8.057 15.234 -1.904 23.975 -1.514 L 16.406 10.547 C 15.283 12.451 16.309 14.648 18.506 14.648 Z M 25.928 -8.203 C 19.58 -8.203 16.455 -11.914 16.455 -17.48 L 16.455 -42.285 C 16.455 -51.953 17.432 -60.059 18.945 -66.65 C 20.459 -73.633 24.463 -77.49 30.713 -78.174 C 33.106 -78.418 38.525 -78.857 46.191 -78.857 C 53.076 -78.857 59.277 -78.418 61.67 -78.174 C 67.92 -77.49 71.924 -73.633 73.486 -66.65 C 75 -60.059 75.977 -51.611 75.977 -41.943 L 75.977 -17.48 C 75.977 -11.914 72.803 -8.203 66.455 -8.203 L 25.928 -8.203 Z M 36.523 -68.457 L 55.908 -68.457 C 57.568 -68.457 58.691 -69.58 58.691 -71.24 C 58.691 -72.9 57.568 -73.975 55.908 -73.975 L 36.523 -73.975 C 34.863 -73.975 33.74 -72.9 33.74 -71.24 C 33.74 -69.58 34.863 -68.457 36.523 -68.457 Z M 64.063 -13.574 C 67.09 -13.574 69.482 -15.967 69.482 -19.092 C 69.482 -22.168 67.139 -24.512 64.063 -24.512 C 60.938 -24.512 58.545 -22.168 58.545 -19.092 C 58.545 -15.967 60.938 -13.574 64.063 -13.574 Z M 28.272 -13.623 C 31.348 -13.623 33.74 -15.918 33.74 -19.092 C 33.74 -22.217 31.445 -24.512 28.272 -24.512 C 25.147 -24.512 22.852 -22.217 22.852 -19.092 C 22.852 -15.918 25.147 -13.623 28.272 -13.623 Z M 30.127 2.783 L 32.813 -1.514 L 59.424 -1.514 L 62.109 2.783 L 30.127 2.783 Z"/>
    </g>
    <g id="Regular-S" transform="matrix(1 0 0 1 1404.8 696)">
      <path d="M 18.555 13.086 L 20.85 13.086 C 22.022 13.086 22.656 12.695 23.291 11.67 L 25.488 8.105 L 64.795 8.105 L 66.992 11.67 C 67.578 12.695 68.262 13.086 69.385 13.086 L 71.68 13.086 C 73.633 13.086 74.561 11.133 73.486 9.424 L 66.113 -2.588 C 74.658 -2.588 80.322 -8.643 80.322 -17.578 L 80.322 -40.82 C 80.322 -50.488 79.199 -60.791 77.441 -67.969 C 75.391 -76.758 69.434 -82.471 61.231 -83.35 C 59.131 -83.545 52.344 -84.082 45.02 -84.082 C 36.816 -84.082 30.957 -83.545 28.809 -83.35 C 20.654 -82.471 14.648 -76.758 12.647 -67.969 C 10.889 -60.791 9.766 -50.928 9.766 -41.211 L 9.766 -17.578 C 9.766 -8.643 15.43 -2.588 24.121 -2.588 L 16.65 9.424 C 15.576 11.182 16.602 13.086 18.555 13.086 Z M 25.049 -8.252 C 18.506 -8.252 15.43 -12.06 15.43 -17.578 L 15.43 -41.211 C 15.43 -50.537 16.455 -59.863 18.115 -66.65 C 19.678 -73.144 23.731 -77.1 29.395 -77.685 C 31.445 -77.93 37.012 -78.418 45.02 -78.418 C 52.148 -78.418 58.594 -77.93 60.693 -77.685 C 66.357 -77.1 70.41 -73.144 71.973 -66.65 C 73.584 -59.863 74.658 -50.098 74.658 -40.82 L 74.658 -17.578 C 74.658 -12.06 71.533 -8.252 65.039 -8.252 L 25.049 -8.252 Z M 35.4 -68.31 L 54.688 -68.31 C 56.25 -68.31 57.227 -69.287 57.227 -70.801 C 57.227 -72.363 56.25 -73.291 54.688 -73.291 L 35.4 -73.291 C 33.838 -73.291 32.861 -72.363 32.861 -70.801 C 32.861 -69.287 33.838 -68.31 35.4 -68.31 Z M 62.695 -13.818 C 65.723 -13.818 68.164 -16.211 68.164 -19.336 C 68.164 -22.412 65.772 -24.805 62.695 -24.805 C 59.57 -24.805 57.178 -22.412 57.178 -19.336 C 57.178 -16.211 59.57 -13.818 62.695 -13.818 Z M 27.295 -13.867 C 30.371 -13.867 32.764 -16.162 32.764 -19.336 C 32.764 -22.461 30.469 -24.756 27.295 -24.756 C 24.17 -24.756 21.875 -22.461 21.875 -19.336 C 21.875 -16.162 24.17 -13.867 27.295 -13.867 Z M 29.346 1.904 L 32.129 -2.588 L 58.106 -2.588 L 60.889 1.904 L 29.346 1.904 Z"/>
    </g>
    <g id="Light-S" transform="matrix(1 0 0 1 1109.09 696)">
      <path d="M 17.773 12.109 L 19.775 12.109 C 20.801 12.109 21.338 11.816 21.875 10.938 L 24.072 7.422 L 64.16 7.422 L 66.309 10.938 C 66.846 11.816 67.432 12.109 68.408 12.109 L 70.41 12.109 C 72.07 12.109 72.803 10.547 71.924 9.131 L 64.6 -2.686 C 73.389 -2.686 78.32 -8.74 78.32 -16.992 L 78.32 -40.478 C 78.32 -51.221 76.856 -62.012 75.147 -68.799 C 73.34 -76.367 68.018 -81.348 60.791 -82.129 C 58.008 -82.471 51.367 -82.959 44.043 -82.959 C 36.084 -82.959 30.078 -82.471 27.295 -82.129 C 20.068 -81.348 14.746 -76.367 12.94 -68.799 C 11.231 -62.012 9.766 -51.465 9.766 -40.771 L 9.766 -16.992 C 9.766 -8.789 14.648 -2.734 23.535 -2.686 L 16.211 9.131 C 15.332 10.596 16.113 12.109 17.773 12.109 Z M 24.414 -7.178 C 17.285 -7.178 14.258 -11.377 14.258 -16.992 L 14.258 -40.771 C 14.258 -51.221 15.772 -61.426 17.334 -67.822 C 18.701 -73.535 22.461 -77.1 27.734 -77.685 C 30.762 -78.076 36.523 -78.467 44.043 -78.467 C 50.928 -78.467 57.324 -78.076 60.352 -77.685 C 65.625 -77.1 69.385 -73.535 70.752 -67.822 C 72.315 -61.426 73.828 -50.928 73.828 -40.478 L 73.828 -16.992 C 73.828 -11.377 70.801 -7.178 63.672 -7.178 L 24.414 -7.178 Z M 34.18 -68.457 L 53.906 -68.457 C 55.273 -68.457 56.104 -69.336 56.104 -70.654 C 56.104 -71.973 55.273 -72.852 53.906 -72.852 L 34.18 -72.852 C 32.813 -72.852 31.982 -71.973 31.982 -70.654 C 31.982 -69.336 32.813 -68.457 34.18 -68.457 Z M 61.816 -13.428 C 64.697 -13.428 66.943 -15.625 66.943 -18.555 C 66.943 -21.435 64.746 -23.633 61.816 -23.633 C 58.887 -23.633 56.69 -21.435 56.69 -18.555 C 56.69 -15.625 58.887 -13.428 61.816 -13.428 Z M 26.221 -13.428 C 29.15 -13.428 31.348 -15.576 31.348 -18.555 C 31.348 -21.484 29.199 -23.633 26.221 -23.633 C 23.291 -23.633 21.143 -21.484 21.143 -18.555 C 21.143 -15.576 23.291 -13.428 26.221 -13.428 Z M 27.393 2.1 L 30.322 -2.686 L 57.861 -2.686 L 60.84 2.1 L 27.393 2.1 Z"/>
    </g>
    <g id="Thin-S" transform="matrix(1 0 0 1 813.698 696)">
      <path d="M 16.748 10.889 L 18.359 10.889 C 19.19 10.889 19.58 10.645 19.971 10.01 L 22.168 6.494 L 63.33 6.494 L 65.479 10.01 C 65.918 10.645 66.309 10.889 67.09 10.889 L 68.75 10.889 C 69.971 10.889 70.459 9.766 69.775 8.691 L 62.647 -2.783 C 71.777 -2.93 75.684 -8.936 75.684 -16.211 L 75.684 -40.088 C 75.684 -52.1 73.828 -63.672 72.119 -69.873 C 70.557 -75.879 66.113 -79.834 60.254 -80.566 C 56.494 -81.006 50 -81.445 42.725 -81.445 C 35.205 -81.445 28.955 -81.006 25.244 -80.566 C 19.336 -79.834 14.893 -75.879 13.33 -69.873 C 11.621 -63.672 9.766 -52.197 9.766 -40.185 L 9.766 -16.211 C 9.766 -8.936 13.672 -2.93 22.803 -2.783 L 15.674 8.691 C 14.99 9.766 15.479 10.889 16.748 10.889 Z M 23.633 -5.713 C 15.625 -5.713 12.695 -10.498 12.695 -16.211 L 12.695 -40.185 C 12.695 -52.197 14.795 -63.477 16.309 -69.336 C 17.432 -74.023 20.85 -77.051 25.537 -77.685 C 29.834 -78.271 35.889 -78.516 42.725 -78.516 C 49.316 -78.516 55.615 -78.271 59.912 -77.685 C 64.6 -77.051 68.018 -74.023 69.19 -69.336 C 70.654 -63.477 72.754 -52.051 72.754 -40.088 L 72.754 -16.211 C 72.754 -10.498 69.873 -5.713 61.865 -5.713 L 23.633 -5.713 Z M 32.568 -68.701 L 52.881 -68.701 C 54.004 -68.701 54.639 -69.434 54.639 -70.508 C 54.639 -71.484 54.004 -72.217 52.881 -72.217 L 32.568 -72.217 C 31.494 -72.217 30.811 -71.484 30.811 -70.508 C 30.811 -69.434 31.494 -68.701 32.568 -68.701 Z M 60.693 -12.842 C 63.281 -12.842 65.332 -14.844 65.332 -17.529 C 65.332 -20.166 63.33 -22.168 60.693 -22.168 C 58.008 -22.168 56.006 -20.166 56.006 -17.529 C 56.006 -14.844 58.008 -12.842 60.693 -12.842 Z M 24.805 -12.891 C 27.49 -12.891 29.492 -14.844 29.492 -17.529 C 29.492 -20.166 27.49 -22.119 24.805 -22.119 C 22.168 -22.119 20.215 -20.166 20.215 -17.529 C 20.215 -14.844 22.168 -12.891 24.805 -12.891 Z M 24.756 2.344 L 27.93 -2.783 L 57.568 -2.783 L 60.742 2.344 L 24.756 2.344 Z"/>
    </g>
    <g id="Ultralight-S" transform="matrix(1 0 0 1 517.67 696)">
      <path d="M 16.211 10.254 L 17.627 10.254 C 18.359 10.254 18.652 10.059 19.043 9.473 L 21.191 6.006 L 62.891 6.006 L 65.039 9.473 C 65.381 10.059 65.723 10.254 66.406 10.254 L 67.871 10.254 C 68.897 10.254 69.287 9.375 68.701 8.496 L 61.67 -2.832 C 70.898 -3.027 74.316 -8.984 74.316 -15.82 L 74.316 -39.844 C 74.316 -52.588 72.217 -64.551 70.557 -70.41 C 69.141 -75.635 65.186 -79.102 59.912 -79.736 C 55.762 -80.273 49.316 -80.713 42.041 -80.713 C 34.717 -80.713 28.369 -80.273 24.17 -79.736 C 18.945 -79.102 14.99 -75.635 13.525 -70.41 C 11.865 -64.551 9.766 -52.588 9.766 -39.844 L 9.766 -15.82 C 9.766 -8.984 13.232 -3.027 22.412 -2.832 L 15.332 8.496 C 14.795 9.375 15.186 10.254 16.211 10.254 Z M 23.193 -4.98 C 14.746 -4.98 11.914 -10.059 11.914 -15.82 L 11.914 -39.844 C 11.914 -52.685 14.307 -64.551 15.772 -70.117 C 16.797 -74.268 20.02 -77.051 24.414 -77.685 C 29.346 -78.369 35.596 -78.564 42.041 -78.564 C 48.486 -78.564 54.736 -78.369 59.668 -77.685 C 64.063 -77.051 67.285 -74.268 68.359 -70.117 C 69.775 -64.551 72.217 -52.637 72.217 -39.844 L 72.217 -15.82 C 72.217 -10.059 69.336 -4.98 60.889 -4.98 L 23.193 -4.98 Z M 31.738 -68.799 L 52.344 -68.799 C 53.32 -68.799 53.906 -69.482 53.906 -70.361 C 53.906 -71.24 53.32 -71.875 52.344 -71.875 L 31.738 -71.875 C 30.762 -71.875 30.225 -71.24 30.225 -70.361 C 30.225 -69.482 30.762 -68.799 31.738 -68.799 Z M 60.107 -12.549 C 62.549 -12.549 64.502 -14.453 64.502 -16.992 C 64.502 -19.482 62.598 -21.387 60.107 -21.387 C 57.568 -21.387 55.664 -19.482 55.664 -16.992 C 55.664 -14.453 57.568 -12.549 60.107 -12.549 Z M 24.072 -12.549 C 26.611 -12.549 28.516 -14.453 28.516 -16.992 C 28.516 -19.482 26.611 -21.387 24.072 -21.387 C 21.582 -21.387 19.678 -19.482 19.678 -16.992 C 19.678 -14.453 21.582 -12.549 24.072 -12.549 Z M 23.389 2.441 L 26.66 -2.832 L 57.373 -2.832 L 60.645 2.441 L 23.389 2.441 Z"/>
    </g>
  </g>
</svg>