<?xml version="1.0" encoding="UTF-8"?>
<!--Generator: Apple Native CoreSVG 148-->
<!DOCTYPE svg
PUBLIC "-//W3C//DTD SVG 1.1//EN"
       "http://www.w3.org/Graphics/SVG/1.1/DTD/svg11.dtd">
<svg version="1.1" xmlns="http://www.w3.org/2000/svg" xmlns:xlink="http://www.w3.org/1999/xlink" width="3300" height="2200">
 <!--glyph: "uni100361.medium", point size: 100.000000, font version: "Version 16.0d11e1", template writer version: "8"-->
 <g id="Notes">
  <rect height="2200" id="artboard" style="fill:white;opacity:1" width="3300" x="0" y="0"/>
  <line id="" style="fill:none;stroke:black;opacity:1;stroke-width:0.5;" x1="263" x2="3036" y1="292" y2="292"/>
  <text style="stroke:none;fill:black;font-family:-apple-system,&quot;SF Pro Display&quot;,&quot;SF Pro Text&quot;,Helvetica,sans-serif;font-weight:bold;" transform="matrix(1 0 0 1 263 322)">Weight/Scale Variations</text>
  <text style="stroke:none;fill:black;font-family:-apple-system,&quot;SF Pro Display&quot;,&quot;SF Pro Text&quot;,Helvetica,sans-serif;text-anchor:middle;" transform="matrix(1 0 0 1 559.711 322)">Ultralight</text>
  <text style="stroke:none;fill:black;font-family:-apple-system,&quot;SF Pro Display&quot;,&quot;SF Pro Text&quot;,Helvetica,sans-serif;text-anchor:middle;" transform="matrix(1 0 0 1 856.422 322)">Thin</text>
  <text style="stroke:none;fill:black;font-family:-apple-system,&quot;SF Pro Display&quot;,&quot;SF Pro Text&quot;,Helvetica,sans-serif;text-anchor:middle;" transform="matrix(1 0 0 1 1153.13 322)">Light</text>
  <text style="stroke:none;fill:black;font-family:-apple-system,&quot;SF Pro Display&quot;,&quot;SF Pro Text&quot;,Helvetica,sans-serif;text-anchor:middle;" transform="matrix(1 0 0 1 1449.84 322)">Regular</text>
  <text style="stroke:none;fill:black;font-family:-apple-system,&quot;SF Pro Display&quot;,&quot;SF Pro Text&quot;,Helvetica,sans-serif;text-anchor:middle;" transform="matrix(1 0 0 1 1746.56 322)">Medium</text>
  <text style="stroke:none;fill:black;font-family:-apple-system,&quot;SF Pro Display&quot;,&quot;SF Pro Text&quot;,Helvetica,sans-serif;text-anchor:middle;" transform="matrix(1 0 0 1 2043.27 322)">Semibold</text>
  <text style="stroke:none;fill:black;font-family:-apple-system,&quot;SF Pro Display&quot;,&quot;SF Pro Text&quot;,Helvetica,sans-serif;text-anchor:middle;" transform="matrix(1 0 0 1 2339.98 322)">Bold</text>
  <text style="stroke:none;fill:black;font-family:-apple-system,&quot;SF Pro Display&quot;,&quot;SF Pro Text&quot;,Helvetica,sans-serif;text-anchor:middle;" transform="matrix(1 0 0 1 2636.69 322)">Heavy</text>
  <text style="stroke:none;fill:black;font-family:-apple-system,&quot;SF Pro Display&quot;,&quot;SF Pro Text&quot;,Helvetica,sans-serif;text-anchor:middle;" transform="matrix(1 0 0 1 2933.4 322)">Black</text>
  <line id="" style="fill:none;stroke:black;opacity:1;stroke-width:0.5;" x1="263" x2="3036" y1="1903" y2="1903"/>
  <g id="" transform="matrix(1 0 0 1 263 1933)">
   <path d="M 9.24805 0.830078 C 13.5547 0.830078 17.1387 -2.74414 17.1387 -7.05078 C 17.1387 -11.3574 13.5449 -14.9316 9.23828 -14.9316 C 4.94141 -14.9316 1.36719 -11.3574 1.36719 -7.05078 C 1.36719 -2.74414 4.95117 0.830078 9.24805 0.830078 Z M 9.24805 -0.654297 C 5.70312 -0.654297 2.87109 -3.49609 2.87109 -7.05078 C 2.87109 -10.6055 5.69336 -13.4473 9.23828 -13.4473 C 12.793 -13.4473 15.6348 -10.6055 15.6445 -7.05078 C 15.6543 -3.49609 12.8027 -0.654297 9.24805 -0.654297 Z M 9.22852 -3.62305 C 9.69727 -3.62305 9.9707 -3.93555 9.9707 -4.45312 L 9.9707 -6.31836 L 12.002 -6.31836 C 12.5 -6.31836 12.832 -6.57227 12.832 -7.04102 C 12.832 -7.51953 12.5195 -7.7832 12.002 -7.7832 L 9.9707 -7.7832 L 9.9707 -9.81445 C 9.9707 -10.332 9.69727 -10.6543 9.22852 -10.6543 C 8.75977 -10.6543 8.50586 -10.3125 8.50586 -9.81445 L 8.50586 -7.7832 L 6.49414 -7.7832 C 5.97656 -7.7832 5.64453 -7.51953 5.64453 -7.04102 C 5.64453 -6.57227 5.99609 -6.31836 6.49414 -6.31836 L 8.50586 -6.31836 L 8.50586 -4.45312 C 8.50586 -3.95508 8.75977 -3.62305 9.22852 -3.62305 Z"/>
  </g>
  <g id="" transform="matrix(1 0 0 1 281.506 1933)">
   <path d="M 11.709 2.91016 C 17.1582 2.91016 21.6699 -1.61133 21.6699 -7.05078 C 21.6699 -12.5 17.1484 -17.0117 11.6992 -17.0117 C 6.25977 -17.0117 1.74805 -12.5 1.74805 -7.05078 C 1.74805 -1.61133 6.26953 2.91016 11.709 2.91016 Z M 11.709 1.25 C 7.09961 1.25 3.41797 -2.44141 3.41797 -7.05078 C 3.41797 -11.6602 7.08984 -15.3516 11.6992 -15.3516 C 16.3086 -15.3516 20 -11.6602 20.0098 -7.05078 C 20.0195 -2.44141 16.3184 1.25 11.709 1.25 Z M 11.6797 -2.66602 C 12.207 -2.66602 12.5098 -3.01758 12.5098 -3.59375 L 12.5098 -6.23047 L 15.3223 -6.23047 C 15.8691 -6.23047 16.25 -6.51367 16.25 -7.03125 C 16.25 -7.55859 15.8887 -7.86133 15.3223 -7.86133 L 12.5098 -7.86133 L 12.5098 -10.6836 C 12.5098 -11.25 12.207 -11.6113 11.6797 -11.6113 C 11.1621 -11.6113 10.8789 -11.2305 10.8789 -10.6836 L 10.8789 -7.86133 L 8.07617 -7.86133 C 7.50977 -7.86133 7.13867 -7.55859 7.13867 -7.03125 C 7.13867 -6.51367 7.5293 -6.23047 8.07617 -6.23047 L 10.8789 -6.23047 L 10.8789 -3.59375 C 10.8789 -3.03711 11.1621 -2.66602 11.6797 -2.66602 Z"/>
  </g>
  <g id="" transform="matrix(1 0 0 1 304.924 1933)">
   <path d="M 14.9707 5.66406 C 21.9336 5.66406 27.6953 -0.0976562 27.6953 -7.05078 C 27.6953 -14.0137 21.9238 -19.7754 14.9609 -19.7754 C 8.00781 -19.7754 2.25586 -14.0137 2.25586 -7.05078 C 2.25586 -0.0976562 8.01758 5.66406 14.9707 5.66406 Z M 14.9707 3.84766 C 8.93555 3.84766 4.08203 -1.01562 4.08203 -7.05078 C 4.08203 -13.0957 8.92578 -17.9492 14.9609 -17.9492 C 21.0059 -17.9492 25.8594 -13.0957 25.8691 -7.05078 C 25.8789 -1.01562 21.0156 3.84766 14.9707 3.84766 Z M 14.9414 -1.38672 C 15.5176 -1.38672 15.8594 -1.77734 15.8594 -2.38281 L 15.8594 -6.13281 L 19.7754 -6.13281 C 20.3711 -6.13281 20.7812 -6.46484 20.7812 -7.02148 C 20.7812 -7.59766 20.3906 -7.93945 19.7754 -7.93945 L 15.8594 -7.93945 L 15.8594 -11.8652 C 15.8594 -12.4805 15.5176 -12.8711 14.9414 -12.8711 C 14.375 -12.8711 14.0527 -12.4609 14.0527 -11.8652 L 14.0527 -7.93945 L 10.1465 -7.93945 C 9.53125 -7.93945 9.13086 -7.59766 9.13086 -7.02148 C 9.13086 -6.46484 9.55078 -6.13281 10.1465 -6.13281 L 14.0527 -6.13281 L 14.0527 -2.38281 C 14.0527 -1.79688 14.375 -1.38672 14.9414 -1.38672 Z"/>
  </g>
  <text style="stroke:none;fill:black;font-family:-apple-system,&quot;SF Pro Display&quot;,&quot;SF Pro Text&quot;,Helvetica,sans-serif;font-weight:bold;" transform="matrix(1 0 0 1 263 1953)">Design Variations</text>
  <text style="stroke:none;fill:black;font-family:-apple-system,&quot;SF Pro Display&quot;,&quot;SF Pro Text&quot;,Helvetica,sans-serif;" transform="matrix(1 0 0 1 263 1971)">Symbols are supported in up to nine weights and three scales.</text>
  <text style="stroke:none;fill:black;font-family:-apple-system,&quot;SF Pro Display&quot;,&quot;SF Pro Text&quot;,Helvetica,sans-serif;" transform="matrix(1 0 0 1 263 1989)">For optimal layout with text and other symbols, vertically align</text>
  <text style="stroke:none;fill:black;font-family:-apple-system,&quot;SF Pro Display&quot;,&quot;SF Pro Text&quot;,Helvetica,sans-serif;" transform="matrix(1 0 0 1 263 2007)">symbols with the adjacent text.</text>
  <line id="" style="fill:none;stroke:#00AEEF;stroke-width:0.5;opacity:1.0;" x1="776" x2="776" y1="1919" y2="1933"/>
  <g id="" transform="matrix(1 0 0 1 776 1933)">
   <path d="M 3.31055 0.126953 C 3.82812 0.126953 4.08203 -0.0683594 4.26758 -0.605469 L 5.52734 -4.0625 L 11.2891 -4.0625 L 12.5488 -0.605469 C 12.7344 -0.0683594 12.9883 0.126953 13.4961 0.126953 C 14.0137 0.126953 14.3457 -0.185547 14.3457 -0.673828 C 14.3457 -0.839844 14.3164 -0.986328 14.2383 -1.20117 L 9.6582 -13.3887 C 9.43359 -13.9941 9.0332 -14.2871 8.4082 -14.2871 C 7.80273 -14.2871 7.39258 -13.9941 7.17773 -13.3984 L 2.59766 -1.19141 C 2.51953 -0.976562 2.49023 -0.830078 2.49023 -0.664062 C 2.49023 -0.175781 2.80273 0.126953 3.31055 0.126953 Z M 6.00586 -5.53711 L 8.37891 -12.1094 L 8.42773 -12.1094 L 10.8008 -5.53711 Z"/>
  </g>
  <line id="" style="fill:none;stroke:#00AEEF;stroke-width:0.5;opacity:1.0;" x1="792.836" x2="792.836" y1="1919" y2="1933"/>
  <text style="stroke:none;fill:black;font-family:-apple-system,&quot;SF Pro Display&quot;,&quot;SF Pro Text&quot;,Helvetica,sans-serif;font-weight:bold;" transform="matrix(1 0 0 1 776 1953)">Margins</text>
  <text style="stroke:none;fill:black;font-family:-apple-system,&quot;SF Pro Display&quot;,&quot;SF Pro Text&quot;,Helvetica,sans-serif;" transform="matrix(1 0 0 1 776 1971)">Leading and trailing margins on the left and right side of each symbol</text>
  <text style="stroke:none;fill:black;font-family:-apple-system,&quot;SF Pro Display&quot;,&quot;SF Pro Text&quot;,Helvetica,sans-serif;" transform="matrix(1 0 0 1 776 1989)">can be adjusted by modifying the x-location of the margin guidelines.</text>
  <text style="stroke:none;fill:black;font-family:-apple-system,&quot;SF Pro Display&quot;,&quot;SF Pro Text&quot;,Helvetica,sans-serif;" transform="matrix(1 0 0 1 776 2007)">Modifications are automatically applied proportionally to all</text>
  <text style="stroke:none;fill:black;font-family:-apple-system,&quot;SF Pro Display&quot;,&quot;SF Pro Text&quot;,Helvetica,sans-serif;" transform="matrix(1 0 0 1 776 2025)">scales and weights.</text>
  <g id="" transform="matrix(1 0 0 1 1289 1933)">
   <path d="M 2.8418 1.86523 L 4.54102 3.57422 C 5.40039 4.44336 6.38672 4.38477 7.31445 3.35938 L 17.4902 -7.85156 C 17.7539 -7.76367 18.0273 -7.7832 18.3398 -7.8418 L 19.4043 -8.03711 L 20.0684 -7.36328 L 20.0293 -6.80664 C 19.9902 -6.30859 20.1172 -5.92773 20.6055 -5.44922 L 21.3672 -4.70703 C 21.8457 -4.22852 22.4609 -4.19922 22.9297 -4.66797 L 25.8398 -7.58789 C 26.3086 -8.05664 26.2891 -8.65234 25.8105 -9.13086 L 25.0391 -9.89258 C 24.5605 -10.3711 24.1895 -10.5273 23.7109 -10.4883 L 23.1348 -10.4395 L 22.4902 -11.0742 L 22.7344 -12.1973 C 22.8613 -12.7637 22.7051 -13.2031 22.1191 -13.7891 L 19.9219 -15.9766 C 16.582 -19.2969 12.1484 -19.2188 9.25781 -16.3281 C 8.83789 -15.918 8.80859 -15.3418 9.04297 -14.9512 C 9.27734 -14.5898 9.73633 -14.3555 10.3809 -14.5215 C 11.8457 -14.8633 13.3691 -14.9219 14.7949 -13.9844 L 14.209 -12.5293 C 14.0137 -12.0508 13.9844 -11.6504 14.1113 -11.2891 L 3.04688 -0.898438 C 2.06055 0.0195312 1.98242 0.996094 2.8418 1.86523 Z M 10.752 -15.957 C 13.1836 -17.7344 16.4746 -17.4316 18.7012 -15.2051 L 21.1328 -12.793 C 21.3672 -12.5586 21.4062 -12.373 21.3379 -12.0312 L 21.0156 -10.5469 L 22.5195 -9.0625 L 23.5059 -9.12109 C 23.7598 -9.13086 23.8379 -9.11133 24.0332 -8.91602 L 24.6094 -8.33984 L 22.168 -5.89844 L 21.5918 -6.47461 C 21.3965 -6.66992 21.3672 -6.74805 21.377 -7.01172 L 21.4453 -7.98828 L 19.9512 -9.47266 L 18.4277 -9.21875 C 18.1055 -9.15039 17.959 -9.17969 17.7148 -9.41406 L 15.7129 -11.416 C 15.459 -11.6504 15.4297 -11.8164 15.5859 -12.1875 L 16.4648 -14.2773 C 14.9023 -15.7324 12.8711 -16.3574 10.8398 -15.7617 C 10.6836 -15.7227 10.625 -15.8496 10.752 -15.957 Z M 5.27344 2.30469 L 4.10156 1.14258 C 3.63281 0.683594 3.74023 0.341797 4.14062 -0.0195312 L 14.9512 -10.1953 L 16.416 -8.71094 L 6.42578 2.27539 C 6.07422 2.67578 5.74219 2.77344 5.27344 2.30469 Z"/>
  </g>
  <text style="stroke:none;fill:black;font-family:-apple-system,&quot;SF Pro Display&quot;,&quot;SF Pro Text&quot;,Helvetica,sans-serif;font-weight:bold;" transform="matrix(1 0 0 1 1289 1953)">Exporting</text>
  <text style="stroke:none;fill:black;font-family:-apple-system,&quot;SF Pro Display&quot;,&quot;SF Pro Text&quot;,Helvetica,sans-serif;" transform="matrix(1 0 0 1 1289 1971)">Symbols should be outlined when exporting to ensure the</text>
  <text style="stroke:none;fill:black;font-family:-apple-system,&quot;SF Pro Display&quot;,&quot;SF Pro Text&quot;,Helvetica,sans-serif;" transform="matrix(1 0 0 1 1289 1989)">design is preserved when submitting to Xcode.</text>
  <text id="template-version" style="stroke:none;fill:black;font-family:-apple-system,&quot;SF Pro Display&quot;,&quot;SF Pro Text&quot;,Helvetica,sans-serif;text-anchor:end;" transform="matrix(1 0 0 1 3036 1933)">Template v.2.0</text>
  <text style="stroke:none;fill:black;font-family:-apple-system,&quot;SF Pro Display&quot;,&quot;SF Pro Text&quot;,Helvetica,sans-serif;text-anchor:end;" transform="matrix(1 0 0 1 3036 1951)">Requires Xcode 12 or greater</text>
  <text style="stroke:none;fill:black;font-family:-apple-system,&quot;SF Pro Display&quot;,&quot;SF Pro Text&quot;,Helvetica,sans-serif;text-anchor:end;" transform="matrix(1 0 0 1 3036 1969)">Generated from ellipsis.circle</text>
  <text style="stroke:none;fill:black;font-family:-apple-system,&quot;SF Pro Display&quot;,&quot;SF Pro Text&quot;,Helvetica,sans-serif;text-anchor:end;" transform="matrix(1 0 0 1 3036 1987)">Typeset at 100 points</text>
  <text style="stroke:none;fill:black;font-family:-apple-system,&quot;SF Pro Display&quot;,&quot;SF Pro Text&quot;,Helvetica,sans-serif;" transform="matrix(1 0 0 1 263 726)">Small</text>
  <text style="stroke:none;fill:black;font-family:-apple-system,&quot;SF Pro Display&quot;,&quot;SF Pro Text&quot;,Helvetica,sans-serif;" transform="matrix(1 0 0 1 263 1156)">Medium</text>
  <text style="stroke:none;fill:black;font-family:-apple-system,&quot;SF Pro Display&quot;,&quot;SF Pro Text&quot;,Helvetica,sans-serif;" transform="matrix(1 0 0 1 263 1586)">Large</text>
 </g>
 <g id="Guides">
  <g id="H-reference" style="fill:#27AAE1;stroke:none;" transform="matrix(1 0 0 1 339 696)">
   <path d="M 0.976562 0 L 3.66211 0 L 12.9883 -24.4629 L 45.7031 -24.4629 L 55.0781 0 L 57.7148 0 L 30.6152 -70.459 L 28.125 -70.459 Z M 29.2969 -67.1387 L 29.3945 -67.1387 L 44.873 -26.709 L 13.8672 -26.709 Z"/>
  </g>
  <line id="Baseline-S" style="fill:none;stroke:#27AAE1;opacity:1;stroke-width:0.5;" x1="263" x2="3036" y1="696" y2="696"/>
  <line id="Capline-S" style="fill:none;stroke:#27AAE1;opacity:1;stroke-width:0.5;" x1="263" x2="3036" y1="625.541" y2="625.541"/>
  <g id="H-reference" style="fill:#27AAE1;stroke:none;" transform="matrix(1 0 0 1 339 1126)">
   <path d="M 0.976562 0 L 3.66211 0 L 12.9883 -24.4629 L 45.7031 -24.4629 L 55.0781 0 L 57.7148 0 L 30.6152 -70.459 L 28.125 -70.459 Z M 29.2969 -67.1387 L 29.3945 -67.1387 L 44.873 -26.709 L 13.8672 -26.709 Z"/>
  </g>
  <line id="Baseline-M" style="fill:none;stroke:#27AAE1;opacity:1;stroke-width:0.5;" x1="263" x2="3036" y1="1126" y2="1126"/>
  <line id="Capline-M" style="fill:none;stroke:#27AAE1;opacity:1;stroke-width:0.5;" x1="263" x2="3036" y1="1055.54" y2="1055.54"/>
  <g id="H-reference" style="fill:#27AAE1;stroke:none;" transform="matrix(1 0 0 1 339 1556)">
   <path d="M 0.976562 0 L 3.66211 0 L 12.9883 -24.4629 L 45.7031 -24.4629 L 55.0781 0 L 57.7148 0 L 30.6152 -70.459 L 28.125 -70.459 Z M 29.2969 -67.1387 L 29.3945 -67.1387 L 44.873 -26.709 L 13.8672 -26.709 Z"/>
  </g>
  <line id="Baseline-L" style="fill:none;stroke:#27AAE1;opacity:1;stroke-width:0.5;" x1="263" x2="3036" y1="1556" y2="1556"/>
  <line id="Capline-L" style="fill:none;stroke:#27AAE1;opacity:1;stroke-width:0.5;" x1="263" x2="3036" y1="1485.54" y2="1485.54"/>
  <line id="left-margin" style="fill:none;stroke:#00AEEF;stroke-width:0.5;opacity:1.0;" x1="1391.3" x2="1391.3" y1="1030.79" y2="1150.12"/>
  <line id="right-margin" style="fill:none;stroke:#00AEEF;stroke-width:0.5;opacity:1.0;" x1="1508.39" x2="1508.39" y1="1030.79" y2="1150.12"/>
 </g>
 <g id="Symbols">
  <g id="Black-L" transform="matrix(1 0 0 1 2854.05 1556)">
   <path d="M 79.3457 32.8613 C 116.748 32.8613 147.412 2.19727 147.412 -35.2051 C 147.412 -72.6074 116.748 -103.271 79.2969 -103.271 C 41.8945 -103.271 11.2793 -72.6074 11.2793 -35.2051 C 11.2793 2.19727 41.9434 32.8613 79.3457 32.8613 Z M 79.3457 12.4023 C 52.9785 12.4023 31.7383 -8.83789 31.7383 -35.2051 C 31.7383 -61.5723 52.9297 -82.8125 79.2969 -82.8125 C 105.664 -82.8125 126.953 -61.5723 126.953 -35.2051 C 127.002 -8.83789 105.713 12.4023 79.3457 12.4023 Z M 50.293 -24.5605 C 56.1523 -24.5605 60.9375 -29.3945 60.9375 -35.2539 C 60.9375 -41.1621 56.1523 -45.9473 50.293 -45.9473 C 44.3359 -45.9473 39.5996 -41.1621 39.5996 -35.2539 C 39.5996 -29.3945 44.3359 -24.5605 50.293 -24.5605 Z M 79.1992 -24.5605 C 85.1074 -24.5605 89.8926 -29.3945 89.8926 -35.2539 C 89.8926 -41.1621 85.1074 -45.9473 79.1992 -45.9473 C 73.291 -45.9473 68.5059 -41.1621 68.5059 -35.2539 C 68.5059 -29.3945 73.291 -24.5605 79.1992 -24.5605 Z M 108.105 -24.5605 C 114.062 -24.5605 118.799 -29.3945 118.799 -35.2539 C 118.799 -41.1621 114.062 -45.9473 108.105 -45.9473 C 102.197 -45.9473 97.4609 -41.1621 97.4609 -35.2539 C 97.4609 -29.3945 102.197 -24.5605 108.105 -24.5605 Z"/>
  </g>
  <g id="Heavy-L" transform="matrix(1 0 0 1 2558.39 1556)">
   <path d="M 78.2715 31.7871 C 115.088 31.7871 145.312 1.5625 145.312 -35.2051 C 145.312 -72.0215 115.039 -102.246 78.2715 -102.246 C 41.4551 -102.246 11.2793 -72.0215 11.2793 -35.2051 C 11.2793 1.5625 41.5039 31.7871 78.2715 31.7871 Z M 78.2715 14.0137 C 51.0254 14.0137 29.0527 -7.95898 29.0527 -35.2051 C 29.0527 -62.5 50.9766 -84.4727 78.2715 -84.4727 C 105.518 -84.4727 127.49 -62.5 127.539 -35.2051 C 127.539 -7.95898 105.566 14.0137 78.2715 14.0137 Z M 49.1699 -25 C 54.834 -25 59.375 -29.6387 59.375 -35.2539 C 59.375 -40.918 54.7852 -45.5078 49.1699 -45.5078 C 43.5059 -45.5078 38.916 -40.918 38.916 -35.2539 C 38.916 -29.6387 43.5059 -25 49.1699 -25 Z M 78.1738 -25 C 83.7891 -25 88.4277 -29.6387 88.4277 -35.2539 C 88.4277 -40.918 83.7891 -45.5078 78.1738 -45.5078 C 72.5098 -45.5078 67.9199 -40.918 67.9199 -35.2539 C 67.9199 -29.6387 72.5098 -25 78.1738 -25 Z M 107.129 -25 C 112.842 -25 117.383 -29.6387 117.383 -35.2539 C 117.383 -40.918 112.842 -45.5078 107.129 -45.5078 C 101.465 -45.5078 96.9238 -40.918 96.9238 -35.2539 C 96.9238 -29.6387 101.465 -25 107.129 -25 Z"/>
  </g>
  <g id="Bold-L" transform="matrix(1 0 0 1 2262.88 1556)">
   <path d="M 77.0996 30.5664 C 113.232 30.5664 142.92 0.878906 142.92 -35.2539 C 142.92 -71.3379 113.184 -101.074 77.0508 -101.074 C 40.9668 -101.074 11.2793 -71.3379 11.2793 -35.2539 C 11.2793 0.878906 41.0156 30.5664 77.0996 30.5664 Z M 77.0996 15.8203 C 48.8281 15.8203 26.0742 -6.98242 26.0742 -35.2539 C 26.0742 -63.5254 48.7793 -86.2793 77.0508 -86.2793 C 105.371 -86.2793 128.125 -63.5254 128.174 -35.2539 C 128.174 -6.98242 105.371 15.8203 77.0996 15.8203 Z M 47.9492 -25.4883 C 53.3203 -25.4883 57.666 -29.8828 57.666 -35.2539 C 57.666 -40.625 53.2715 -45.0195 47.9492 -45.0195 C 42.5293 -45.0195 38.1836 -40.625 38.1836 -35.2539 C 38.1836 -29.8828 42.5293 -25.4883 47.9492 -25.4883 Z M 77.002 -25.4883 C 82.373 -25.4883 86.7676 -29.8828 86.7676 -35.2539 C 86.7676 -40.625 82.373 -45.0195 77.002 -45.0195 C 71.6309 -45.0195 67.2363 -40.625 67.2363 -35.2539 C 67.2363 -29.8828 71.6309 -25.4883 77.002 -25.4883 Z M 106.055 -25.4883 C 111.426 -25.4883 115.771 -29.8828 115.771 -35.2539 C 115.771 -40.625 111.426 -45.0195 106.055 -45.0195 C 100.684 -45.0195 96.3379 -40.625 96.3379 -35.2539 C 96.3379 -29.8828 100.684 -25.4883 106.055 -25.4883 Z"/>
  </g>
  <g id="Semibold-L" transform="matrix(1 0 0 1 1966.97 1556)">
   <path d="M 76.2695 29.7363 C 111.914 29.7363 141.309 0.390625 141.309 -35.2539 C 141.309 -70.8984 111.865 -100.244 76.2695 -100.244 C 40.625 -100.244 11.2793 -70.8984 11.2793 -35.2539 C 11.2793 0.390625 40.6738 29.7363 76.2695 29.7363 Z M 76.2695 17.041 C 47.3145 17.041 24.0234 -6.25 24.0234 -35.2539 C 24.0234 -64.209 47.2656 -87.5488 76.2695 -87.5488 C 105.225 -87.5488 128.564 -64.209 128.613 -35.2539 C 128.662 -6.25 105.273 17.041 76.2695 17.041 Z M 47.1191 -25.8789 C 52.2949 -25.8789 56.4941 -30.0781 56.4941 -35.2539 C 56.4941 -40.4297 52.2461 -44.6777 47.1191 -44.6777 C 41.8945 -44.6777 37.6953 -40.4297 37.6953 -35.2539 C 37.6953 -30.0781 41.8945 -25.8789 47.1191 -25.8789 Z M 76.2207 -25.8789 C 81.3965 -25.8789 85.5957 -30.0781 85.5957 -35.2539 C 85.5957 -40.4297 81.3965 -44.6777 76.2207 -44.6777 C 70.9961 -44.6777 66.7969 -40.4297 66.7969 -35.2539 C 66.7969 -30.0781 70.9961 -25.8789 76.2207 -25.8789 Z M 105.322 -25.8789 C 110.498 -25.8789 114.697 -30.0781 114.697 -35.2539 C 114.697 -40.4297 110.498 -44.6777 105.322 -44.6777 C 100.098 -44.6777 95.8984 -40.4297 95.8984 -35.2539 C 95.8984 -30.0781 100.098 -25.8789 105.322 -25.8789 Z"/>
  </g>
  <g id="Medium-L" transform="matrix(1 0 0 1 1670.87 1556)">
   <path d="M 75.6836 29.1504 C 110.938 29.1504 140.088 0 140.088 -35.2539 C 140.088 -70.5078 110.889 -99.6582 75.6348 -99.6582 C 40.3809 -99.6582 11.2793 -70.5078 11.2793 -35.2539 C 11.2793 0 40.3809 29.1504 75.6836 29.1504 Z M 75.6836 18.0176 C 46.1426 18.0176 22.4609 -5.76172 22.4609 -35.2539 C 22.4609 -64.7461 46.1426 -88.5254 75.6348 -88.5254 C 105.127 -88.5254 128.906 -64.7461 128.906 -35.2539 C 128.955 -5.76172 105.176 18.0176 75.6836 18.0176 Z M 46.4844 -26.123 C 51.5137 -26.123 55.5664 -30.2246 55.5664 -35.2539 C 55.5664 -40.2832 51.4648 -44.3848 46.4844 -44.3848 C 41.4062 -44.3848 37.3047 -40.2832 37.3047 -35.2539 C 37.3047 -30.2246 41.4062 -26.123 46.4844 -26.123 Z M 75.5859 -26.123 C 80.6152 -26.123 84.7168 -30.2246 84.7168 -35.2539 C 84.7168 -40.2832 80.6152 -44.3848 75.5859 -44.3848 C 70.5566 -44.3848 66.4551 -40.2832 66.4551 -35.2539 C 66.4551 -30.2246 70.5566 -26.123 75.5859 -26.123 Z M 104.736 -26.123 C 109.766 -26.123 113.867 -30.2246 113.867 -35.2539 C 113.867 -40.2832 109.766 -44.3848 104.736 -44.3848 C 99.6582 -44.3848 95.6055 -40.2832 95.6055 -35.2539 C 95.6055 -30.2246 99.6582 -26.123 104.736 -26.123 Z"/>
  </g>
  <g id="Regular-L" transform="matrix(1 0 0 1 1374.97 1556)">
   <path d="M 74.8535 28.3203 C 109.668 28.3203 138.477 -0.488281 138.477 -35.2539 C 138.477 -70.0684 109.619 -98.877 74.8047 -98.877 C 40.0391 -98.877 11.2793 -70.0684 11.2793 -35.2539 C 11.2793 -0.488281 40.0879 28.3203 74.8535 28.3203 Z M 74.8535 19.2383 C 44.6777 19.2383 20.4102 -5.07812 20.4102 -35.2539 C 20.4102 -65.4785 44.6289 -89.7461 74.8047 -89.7461 C 105.029 -89.7461 129.297 -65.4785 129.346 -35.2539 C 129.395 -5.07812 105.078 19.2383 74.8535 19.2383 Z M 45.6543 -26.4648 C 50.4883 -26.4648 54.3945 -30.4199 54.3945 -35.2539 C 54.3945 -40.0879 50.4395 -44.043 45.6543 -44.043 C 40.7715 -44.043 36.8164 -40.0879 36.8164 -35.2539 C 36.8164 -30.4199 40.7715 -26.4648 45.6543 -26.4648 Z M 74.8047 -26.4648 C 79.6387 -26.4648 83.5938 -30.4199 83.5938 -35.2539 C 83.5938 -40.0879 79.6387 -44.043 74.8047 -44.043 C 69.9219 -44.043 66.0156 -40.0879 66.0156 -35.2539 C 66.0156 -30.4199 69.9219 -26.4648 74.8047 -26.4648 Z M 104.004 -26.4648 C 108.838 -26.4648 112.793 -30.4199 112.793 -35.2539 C 112.793 -40.0879 108.838 -44.043 104.004 -44.043 C 99.1211 -44.043 95.166 -40.0879 95.166 -35.2539 C 95.166 -30.4199 99.1211 -26.4648 104.004 -26.4648 Z"/>
  </g>
  <g id="Light-L" transform="matrix(1 0 0 1 1079.18 1556)">
   <path d="M 73.9258 27.3926 C 108.301 27.3926 136.621 -0.927734 136.621 -35.2539 C 136.621 -69.6289 108.252 -97.9492 73.9258 -97.9492 C 39.5508 -97.9492 11.2793 -69.6289 11.2793 -35.2539 C 11.2793 -0.927734 39.5996 27.3926 73.9258 27.3926 Z M 73.9258 20.5078 C 43.1152 20.5078 18.2129 -4.44336 18.2129 -35.2539 C 18.2129 -66.1133 43.0664 -91.0156 73.9258 -91.0156 C 104.736 -91.0156 129.688 -66.1133 129.736 -35.2539 C 129.736 -4.44336 104.785 20.5078 73.9258 20.5078 Z M 45.0195 -26.9531 C 49.6094 -26.9531 53.2715 -30.6641 53.2715 -35.2539 C 53.2715 -39.8438 49.5605 -43.5547 45.0195 -43.5547 C 40.4297 -43.5547 36.7188 -39.8438 36.7188 -35.2539 C 36.7188 -30.6641 40.4297 -26.9531 45.0195 -26.9531 Z M 73.9258 -26.9531 C 78.4668 -26.9531 82.1777 -30.6641 82.1777 -35.2539 C 82.1777 -39.8438 78.4668 -43.5547 73.9258 -43.5547 C 69.2871 -43.5547 65.5762 -39.8438 65.5762 -35.2539 C 65.5762 -30.6641 69.2871 -26.9531 73.9258 -26.9531 Z M 102.783 -26.9531 C 107.373 -26.9531 111.035 -30.6641 111.035 -35.2539 C 111.035 -39.8438 107.373 -43.5547 102.783 -43.5547 C 98.1934 -43.5547 94.4824 -39.8438 94.4824 -35.2539 C 94.4824 -30.6641 98.1934 -26.9531 102.783 -26.9531 Z"/>
  </g>
  <g id="Thin-L" transform="matrix(1 0 0 1 783.693 1556)">
   <path d="M 72.7051 26.1719 C 106.494 26.1719 134.18 -1.51367 134.18 -35.2539 C 134.18 -69.043 106.494 -96.7285 72.7051 -96.7285 C 38.9648 -96.7285 11.2793 -69.043 11.2793 -35.2539 C 11.2793 -1.51367 38.9648 26.1719 72.7051 26.1719 Z M 72.7051 22.168 C 41.0156 22.168 15.2832 -3.56445 15.2832 -35.2539 C 15.2832 -66.9922 41.0156 -92.7246 72.7051 -92.7246 C 104.395 -92.7246 130.176 -66.9922 130.176 -35.2539 C 130.176 -3.56445 104.443 22.168 72.7051 22.168 Z M 44.2383 -27.6367 C 48.4375 -27.6367 51.8066 -31.0059 51.8066 -35.2539 C 51.8066 -39.4531 48.3887 -42.8711 44.2383 -42.8711 C 39.9414 -42.8711 36.5723 -39.4531 36.5723 -35.2539 C 36.5723 -31.0059 39.9414 -27.6367 44.2383 -27.6367 Z M 72.7051 -27.6367 C 76.9043 -27.6367 80.2734 -31.0059 80.2734 -35.2539 C 80.2734 -39.4531 76.9043 -42.8711 72.7051 -42.8711 C 68.457 -42.8711 65.0391 -39.4531 65.0391 -35.2539 C 65.0391 -31.0059 68.457 -27.6367 72.7051 -27.6367 Z M 101.221 -27.6367 C 105.42 -27.6367 108.789 -31.0059 108.789 -35.2539 C 108.789 -39.4531 105.42 -42.8711 101.221 -42.8711 C 96.9238 -42.8711 93.5547 -39.4531 93.5547 -35.2539 C 93.5547 -31.0059 96.9238 -27.6367 101.221 -27.6367 Z"/>
  </g>
  <g id="Ultralight-L" transform="matrix(1 0 0 1 487.616 1556)">
   <path d="M 72.1191 25.5371 C 105.566 25.5371 132.91 -1.80664 132.91 -35.2539 C 132.91 -68.75 105.566 -96.0938 72.1191 -96.0938 C 38.623 -96.0938 11.2793 -68.75 11.2793 -35.2539 C 11.2793 -1.80664 38.623 25.5371 72.1191 25.5371 Z M 72.1191 23.0469 C 39.9414 23.0469 13.7695 -3.125 13.7695 -35.2539 C 13.7695 -67.4316 39.9414 -93.6035 72.1191 -93.6035 C 104.248 -93.6035 130.42 -67.4316 130.42 -35.2539 C 130.42 -3.125 104.248 23.0469 72.1191 23.0469 Z M 43.7988 -27.9297 C 47.8027 -27.9297 51.0254 -31.1523 51.0254 -35.2539 C 51.0254 -39.2578 47.8027 -42.4805 43.7988 -42.4805 C 39.6973 -42.4805 36.4746 -39.2578 36.4746 -35.2539 C 36.4746 -31.1523 39.6973 -27.9297 43.7988 -27.9297 Z M 72.1191 -27.9297 C 76.123 -27.9297 79.3457 -31.1523 79.3457 -35.2539 C 79.3457 -39.2578 76.123 -42.4805 72.1191 -42.4805 C 68.0176 -42.4805 64.7949 -39.2578 64.7949 -35.2539 C 64.7949 -31.1523 68.0176 -27.9297 72.1191 -27.9297 Z M 100.391 -27.9297 C 104.395 -27.9297 107.617 -31.1523 107.617 -35.2539 C 107.617 -39.2578 104.395 -42.4805 100.391 -42.4805 C 96.2891 -42.4805 93.0664 -39.2578 93.0664 -35.2539 C 93.0664 -31.1523 96.2891 -27.9297 100.391 -27.9297 Z"/>
  </g>
  <g id="Black-M" transform="matrix(1 0 0 1 2870.97 1126)">
   <path d="M 62.4023 18.457 C 91.9922 18.457 116.113 -5.61523 116.113 -35.2051 C 116.113 -64.7949 91.9922 -88.8672 62.4023 -88.8672 C 32.8125 -88.8672 8.74023 -64.7949 8.74023 -35.2051 C 8.74023 -5.61523 32.8125 18.457 62.4023 18.457 Z M 62.4023 0.195312 C 42.8711 0.195312 27.002 -15.625 27.002 -35.2051 C 27.002 -54.7363 42.8711 -70.6055 62.4023 -70.6055 C 81.9824 -70.6055 97.8027 -54.7363 97.8027 -35.2051 C 97.8027 -15.625 81.9824 0.195312 62.4023 0.195312 Z M 40.1367 -26.6113 C 44.873 -26.6113 48.6816 -30.5176 48.6816 -35.2539 C 48.6816 -39.9902 44.873 -43.8965 40.1367 -43.8965 C 35.3027 -43.8965 31.4941 -39.9902 31.4941 -35.2539 C 31.4941 -30.5176 35.3027 -26.6113 40.1367 -26.6113 Z M 62.3047 -26.6113 C 67.041 -26.6113 70.8984 -30.5176 70.8984 -35.2539 C 70.8984 -39.9902 67.041 -43.8965 62.3047 -43.8965 C 57.5195 -43.8965 53.6621 -39.9902 53.6621 -35.2539 C 53.6621 -30.5176 57.5195 -26.6113 62.3047 -26.6113 Z M 84.4727 -26.6113 C 89.2578 -26.6113 93.0664 -30.5176 93.0664 -35.2539 C 93.0664 -39.9902 89.2578 -43.8965 84.4727 -43.8965 C 79.6875 -43.8965 75.8789 -39.9902 75.8789 -35.2539 C 75.8789 -30.5176 79.6875 -26.6113 84.4727 -26.6113 Z"/>
  </g>
  <g id="Heavy-M" transform="matrix(1 0 0 1 2575.19 1126)">
   <path d="M 61.5234 17.5293 C 90.5273 17.5293 114.258 -6.20117 114.258 -35.2051 C 114.258 -64.2578 90.5273 -87.9883 61.4746 -87.9883 C 32.4707 -87.9883 8.74023 -64.2578 8.74023 -35.2051 C 8.74023 -6.20117 32.4707 17.5293 61.5234 17.5293 Z M 61.5234 1.61133 C 41.1133 1.61133 24.6582 -14.8438 24.6582 -35.2051 C 24.6582 -55.6152 41.1133 -72.0703 61.4746 -72.0703 C 81.8848 -72.0703 98.3398 -55.6152 98.3398 -35.2051 C 98.3398 -14.8438 81.8848 1.61133 61.5234 1.61133 Z M 39.0625 -27.002 C 43.6523 -27.002 47.3145 -30.7129 47.3145 -35.2539 C 47.3145 -39.7949 43.6035 -43.5059 39.0625 -43.5059 C 34.4727 -43.5059 30.8105 -39.7949 30.8105 -35.2539 C 30.8105 -30.7129 34.4727 -27.002 39.0625 -27.002 Z M 61.377 -27.002 C 65.9668 -27.002 69.6777 -30.7129 69.6777 -35.2539 C 69.6777 -39.7949 65.9668 -43.5059 61.377 -43.5059 C 56.8359 -43.5059 53.125 -39.7949 53.125 -35.2539 C 53.125 -30.7129 56.8359 -27.002 61.377 -27.002 Z M 83.6914 -27.002 C 88.3301 -27.002 91.9922 -30.7129 91.9922 -35.2539 C 91.9922 -39.7949 88.3301 -43.5059 83.6914 -43.5059 C 79.1504 -43.5059 75.4883 -39.7949 75.4883 -35.2539 C 75.4883 -30.7129 79.1504 -27.002 83.6914 -27.002 Z"/>
  </g>
  <g id="Bold-M" transform="matrix(1 0 0 1 2279.5 1126)">
   <path d="M 60.498 16.5039 C 88.8672 16.5039 112.207 -6.83594 112.207 -35.2051 C 112.207 -63.623 88.8672 -86.9629 60.4492 -86.9629 C 32.0312 -86.9629 8.74023 -63.623 8.74023 -35.2051 C 8.74023 -6.83594 32.0801 16.5039 60.498 16.5039 Z M 60.498 3.22266 C 39.1602 3.22266 22.0703 -13.916 22.0703 -35.2051 C 22.0703 -56.543 39.1602 -73.6816 60.4492 -73.6816 C 81.7383 -73.6816 98.9258 -56.543 98.9258 -35.2051 C 98.9746 -13.916 81.7871 3.22266 60.498 3.22266 Z M 37.9395 -27.3926 C 42.2363 -27.3926 45.752 -30.9082 45.752 -35.2539 C 45.752 -39.5996 42.2363 -43.1152 37.9395 -43.1152 C 33.5449 -43.1152 30.0293 -39.5996 30.0293 -35.2539 C 30.0293 -30.9082 33.5449 -27.3926 37.9395 -27.3926 Z M 60.4004 -27.3926 C 64.7461 -27.3926 68.2617 -30.9082 68.2617 -35.2539 C 68.2617 -39.5996 64.7461 -43.1152 60.4004 -43.1152 C 56.0547 -43.1152 52.5391 -39.5996 52.5391 -35.2539 C 52.5391 -30.9082 56.0547 -27.3926 60.4004 -27.3926 Z M 82.8613 -27.3926 C 87.2559 -27.3926 90.7227 -30.9082 90.7227 -35.2539 C 90.7227 -39.5996 87.2559 -43.1152 82.8613 -43.1152 C 78.5156 -43.1152 75.0488 -39.5996 75.0488 -35.2539 C 75.0488 -30.9082 78.5156 -27.3926 82.8613 -27.3926 Z"/>
  </g>
  <g id="Semibold-M" transform="matrix(1 0 0 1 1983.5 1126)">
   <path d="M 59.7656 15.8203 C 87.7441 15.8203 110.791 -7.27539 110.791 -35.2539 C 110.791 -63.2324 87.6953 -86.2793 59.7656 -86.2793 C 31.7871 -86.2793 8.74023 -63.2324 8.74023 -35.2539 C 8.74023 -7.27539 31.7871 15.8203 59.7656 15.8203 Z M 59.7656 4.3457 C 37.8418 4.3457 20.2637 -13.3301 20.2637 -35.2539 C 20.2637 -57.1777 37.793 -74.8047 59.7656 -74.8047 C 81.6895 -74.8047 99.3164 -57.1777 99.3652 -35.2539 C 99.3652 -13.3301 81.6895 4.3457 59.7656 4.3457 Z M 37.1094 -27.6855 C 41.3086 -27.6855 44.6777 -31.0547 44.6777 -35.2539 C 44.6777 -39.4531 41.2598 -42.8711 37.1094 -42.8711 C 32.9102 -42.8711 29.541 -39.4531 29.541 -35.2539 C 29.541 -31.0547 32.9102 -27.6855 37.1094 -27.6855 Z M 59.7168 -27.6855 C 63.8672 -27.6855 67.2852 -31.0547 67.2852 -35.2539 C 67.2852 -39.4531 63.8672 -42.8711 59.7168 -42.8711 C 55.5176 -42.8711 52.0996 -39.4531 52.0996 -35.2539 C 52.0996 -31.0547 55.5176 -27.6855 59.7168 -27.6855 Z M 82.2754 -27.6855 C 86.4746 -27.6855 89.8926 -31.0547 89.8926 -35.2539 C 89.8926 -39.4531 86.4746 -42.8711 82.2754 -42.8711 C 78.125 -42.8711 74.707 -39.4531 74.707 -35.2539 C 74.707 -31.0547 78.125 -27.6855 82.2754 -27.6855 Z"/>
  </g>
  <g id="Medium-M" transform="matrix(1 0 0 1 1687.3 1126)">
   <path d="M 59.2285 15.2344 C 86.9141 15.2344 109.766 -7.61719 109.766 -35.2539 C 109.766 -62.8906 86.8652 -85.7422 59.1797 -85.7422 C 31.543 -85.7422 8.74023 -62.8906 8.74023 -35.2539 C 8.74023 -7.61719 31.5918 15.2344 59.2285 15.2344 Z M 59.2285 5.17578 C 36.8164 5.17578 18.8965 -12.8418 18.8965 -35.2539 C 18.8965 -57.666 36.8164 -75.6348 59.1797 -75.6348 C 81.5918 -75.6348 99.6094 -57.666 99.6582 -35.2539 C 99.707 -12.8418 81.6406 5.17578 59.2285 5.17578 Z M 36.5234 -27.8809 C 40.5762 -27.8809 43.8965 -31.2012 43.8965 -35.2539 C 43.8965 -39.3066 40.5273 -42.627 36.5234 -42.627 C 32.4219 -42.627 29.1016 -39.3066 29.1016 -35.2539 C 29.1016 -31.2012 32.4219 -27.8809 36.5234 -27.8809 Z M 59.1797 -27.8809 C 63.2324 -27.8809 66.5527 -31.2012 66.5527 -35.2539 C 66.5527 -39.3066 63.2324 -42.627 59.1797 -42.627 C 55.127 -42.627 51.8066 -39.3066 51.8066 -35.2539 C 51.8066 -31.2012 55.127 -27.8809 59.1797 -27.8809 Z M 81.8359 -27.8809 C 85.9375 -27.8809 89.209 -31.2012 89.209 -35.2539 C 89.209 -39.3066 85.9375 -42.627 81.8359 -42.627 C 77.7832 -42.627 74.4629 -39.3066 74.4629 -35.2539 C 74.4629 -31.2012 77.7832 -27.8809 81.8359 -27.8809 Z"/>
  </g>
  <g id="Regular-M" transform="matrix(1 0 0 1 1391.3 1126)">
   <path d="M 58.5449 14.5508 C 85.791 14.5508 108.35 -8.05664 108.35 -35.2539 C 108.35 -62.5 85.7422 -85.0586 58.4961 -85.0586 C 31.2988 -85.0586 8.74023 -62.5 8.74023 -35.2539 C 8.74023 -8.05664 31.3477 14.5508 58.5449 14.5508 Z M 58.5449 6.25 C 35.498 6.25 17.0898 -12.207 17.0898 -35.2539 C 17.0898 -58.3008 35.4492 -76.7578 58.4961 -76.7578 C 81.543 -76.7578 100 -58.3008 100.049 -35.2539 C 100.098 -12.207 81.5918 6.25 58.5449 6.25 Z M 35.7422 -28.125 C 39.6484 -28.125 42.8223 -31.3477 42.8223 -35.2539 C 42.8223 -39.1602 39.5996 -42.3828 35.7422 -42.3828 C 31.7871 -42.3828 28.6133 -39.1602 28.6133 -35.2539 C 28.6133 -31.3477 31.7871 -28.125 35.7422 -28.125 Z M 58.4961 -28.125 C 62.4023 -28.125 65.625 -31.3477 65.625 -35.2539 C 65.625 -39.1602 62.4023 -42.3828 58.4961 -42.3828 C 54.5898 -42.3828 51.3672 -39.1602 51.3672 -35.2539 C 51.3672 -31.3477 54.5898 -28.125 58.4961 -28.125 Z M 81.2988 -28.125 C 85.2051 -28.125 88.3789 -31.3477 88.3789 -35.2539 C 88.3789 -39.1602 85.2051 -42.3828 81.2988 -42.3828 C 77.3438 -42.3828 74.1699 -39.1602 74.1699 -35.2539 C 74.1699 -31.3477 77.3438 -28.125 81.2988 -28.125 Z"/>
  </g>
  <g id="Light-M" transform="matrix(1 0 0 1 1095.42 1126)">
   <path d="M 57.7148 13.7207 C 84.5215 13.7207 106.689 -8.44727 106.689 -35.2539 C 106.689 -62.1094 84.5215 -84.2285 57.666 -84.2285 C 30.8594 -84.2285 8.74023 -62.1094 8.74023 -35.2539 C 8.74023 -8.44727 30.9082 13.7207 57.7148 13.7207 Z M 57.7148 7.37305 C 34.082 7.37305 15.0879 -11.6699 15.0879 -35.2539 C 15.0879 -58.8867 34.082 -77.9297 57.666 -77.9297 C 81.2988 -77.9297 100.342 -58.8867 100.391 -35.2539 C 100.391 -11.6699 81.3477 7.37305 57.7148 7.37305 Z M 35.1562 -28.6133 C 38.8184 -28.6133 41.7969 -31.5918 41.7969 -35.2539 C 41.7969 -38.916 38.8184 -41.8945 35.1562 -41.8945 C 31.4941 -41.8945 28.5156 -38.916 28.5156 -35.2539 C 28.5156 -31.5918 31.4941 -28.6133 35.1562 -28.6133 Z M 57.666 -28.6133 C 61.3281 -28.6133 64.3066 -31.5918 64.3066 -35.2539 C 64.3066 -38.916 61.3281 -41.8945 57.666 -41.8945 C 54.0039 -41.8945 51.0254 -38.916 51.0254 -35.2539 C 51.0254 -31.5918 54.0039 -28.6133 57.666 -28.6133 Z M 80.2246 -28.6133 C 83.8867 -28.6133 86.8652 -31.5918 86.8652 -35.2539 C 86.8652 -38.916 83.8867 -41.8945 80.2246 -41.8945 C 76.5137 -41.8945 73.5352 -38.916 73.5352 -35.2539 C 73.5352 -31.5918 76.5137 -28.6133 80.2246 -28.6133 Z"/>
  </g>
  <g id="Thin-M" transform="matrix(1 0 0 1 799.806 1126)">
   <path d="M 56.6406 12.5977 C 82.9102 12.5977 104.492 -8.98438 104.492 -35.2539 C 104.492 -61.5723 82.9102 -83.1543 56.5918 -83.1543 C 30.3223 -83.1543 8.74023 -61.5723 8.74023 -35.2539 C 8.74023 -8.98438 30.3223 12.5977 56.6406 12.5977 Z M 56.6406 8.88672 C 32.2266 8.88672 12.4512 -10.8887 12.4512 -35.2539 C 12.4512 -59.6191 32.2266 -79.4434 56.5918 -79.4434 C 81.0059 -79.4434 100.781 -59.6191 100.781 -35.2539 C 100.781 -10.8887 81.0059 8.88672 56.6406 8.88672 Z M 34.4727 -29.1992 C 37.793 -29.1992 40.4785 -31.8848 40.4785 -35.2539 C 40.4785 -38.5742 37.793 -41.2598 34.4727 -41.2598 C 31.0547 -41.2598 28.3691 -38.5742 28.3691 -35.2539 C 28.3691 -31.8848 31.0547 -29.1992 34.4727 -29.1992 Z M 56.5918 -29.1992 C 59.9609 -29.1992 62.6465 -31.8848 62.6465 -35.2539 C 62.6465 -38.5742 59.9609 -41.2598 56.5918 -41.2598 C 53.2227 -41.2598 50.5371 -38.5742 50.5371 -35.2539 C 50.5371 -31.8848 53.2227 -29.1992 56.5918 -29.1992 Z M 78.7598 -29.1992 C 82.1289 -29.1992 84.8145 -31.8848 84.8145 -35.2539 C 84.8145 -38.5742 82.1289 -41.2598 78.7598 -41.2598 C 75.3906 -41.2598 72.7051 -38.5742 72.7051 -35.2539 C 72.7051 -31.8848 75.3906 -29.1992 78.7598 -29.1992 Z"/>
  </g>
  <g id="Ultralight-M" transform="matrix(1 0 0 1 503.656 1126)">
   <path d="M 56.0547 12.0605 C 82.0801 12.0605 103.369 -9.22852 103.369 -35.2539 C 103.369 -61.2793 82.0801 -82.5684 56.0547 -82.5684 C 30.0293 -82.5684 8.74023 -61.2793 8.74023 -35.2539 C 8.74023 -9.22852 30.0293 12.0605 56.0547 12.0605 Z M 56.0547 9.66797 C 31.2988 9.66797 11.1328 -10.498 11.1328 -35.2539 C 11.1328 -60.0586 31.2988 -80.1758 56.0547 -80.1758 C 80.8594 -80.1758 100.977 -60.0586 100.977 -35.2539 C 100.977 -10.498 80.8594 9.66797 56.0547 9.66797 Z M 34.082 -29.4922 C 37.2559 -29.4922 39.7949 -32.0312 39.7949 -35.2539 C 39.7949 -38.4277 37.2559 -40.9668 34.082 -40.9668 C 30.8594 -40.9668 28.3203 -38.4277 28.3203 -35.2539 C 28.3203 -32.0312 30.8594 -29.4922 34.082 -29.4922 Z M 56.0547 -29.4922 C 59.2285 -29.4922 61.7676 -32.0312 61.7676 -35.2539 C 61.7676 -38.4277 59.2285 -40.9668 56.0547 -40.9668 C 52.832 -40.9668 50.293 -38.4277 50.293 -35.2539 C 50.293 -32.0312 52.832 -29.4922 56.0547 -29.4922 Z M 78.0273 -29.4922 C 81.2012 -29.4922 83.7402 -32.0312 83.7402 -35.2539 C 83.7402 -38.4277 81.2012 -40.9668 78.0273 -40.9668 C 74.8047 -40.9668 72.2656 -38.4277 72.2656 -35.2539 C 72.2656 -32.0312 74.8047 -29.4922 78.0273 -29.4922 Z"/>
  </g>
  <g id="Black-S" transform="matrix(1 0 0 1 2884.57 696)">
   <path d="M 48.8281 6.78711 C 71.9727 6.78711 90.8203 -12.0605 90.8203 -35.2051 C 90.8203 -58.3496 71.9727 -77.1973 48.8281 -77.1973 C 25.6836 -77.1973 6.83594 -58.3496 6.83594 -35.2051 C 6.83594 -12.0605 25.6836 6.78711 48.8281 6.78711 Z M 48.8281 -7.37305 C 33.4473 -7.37305 20.9961 -19.8242 20.9961 -35.2051 C 20.9961 -50.5859 33.4473 -63.0371 48.8281 -63.0371 C 64.209 -63.0371 76.6602 -50.5859 76.6602 -35.2051 C 76.6602 -19.8242 64.209 -7.37305 48.8281 -7.37305 Z M 31.3477 -28.5156 C 35.0586 -28.5156 38.0371 -31.543 38.0371 -35.2539 C 38.0371 -38.9648 35.0586 -41.9922 31.3477 -41.9922 C 27.5879 -41.9922 24.6094 -38.9648 24.6094 -35.2539 C 24.6094 -31.543 27.5879 -28.5156 31.3477 -28.5156 Z M 48.7305 -28.5156 C 52.4414 -28.5156 55.4688 -31.543 55.4688 -35.2539 C 55.4688 -38.9648 52.4414 -41.9922 48.7305 -41.9922 C 45.0195 -41.9922 41.9922 -38.9648 41.9922 -35.2539 C 41.9922 -31.543 45.0195 -28.5156 48.7305 -28.5156 Z M 66.1133 -28.5156 C 69.873 -28.5156 72.8516 -31.543 72.8516 -35.2539 C 72.8516 -38.9648 69.873 -41.9922 66.1133 -41.9922 C 62.4023 -41.9922 59.4238 -38.9648 59.4238 -35.2539 C 59.4238 -31.543 62.4023 -28.5156 66.1133 -28.5156 Z"/>
  </g>
  <g id="Heavy-S" transform="matrix(1 0 0 1 2588.47 696)">
   <path d="M 48.2422 6.15234 C 70.9961 6.15234 89.5996 -12.4512 89.5996 -35.2051 C 89.5996 -57.959 70.9961 -76.6113 48.1934 -76.6113 C 25.4395 -76.6113 6.83594 -57.959 6.83594 -35.2051 C 6.83594 -12.4512 25.4395 6.15234 48.2422 6.15234 Z M 48.2422 -6.39648 C 32.2754 -6.39648 19.4336 -19.2871 19.4336 -35.2051 C 19.4336 -51.1719 32.2754 -64.0137 48.1934 -64.0137 C 64.1602 -64.0137 77.002 -51.1719 77.0508 -35.2051 C 77.0508 -19.2871 64.1602 -6.39648 48.2422 -6.39648 Z M 30.6152 -28.7598 C 34.1797 -28.7598 37.1094 -31.6895 37.1094 -35.2539 C 37.1094 -38.8184 34.1797 -41.748 30.6152 -41.748 C 27.002 -41.748 24.1211 -38.8184 24.1211 -35.2539 C 24.1211 -31.6895 27.002 -28.7598 30.6152 -28.7598 Z M 48.1445 -28.7598 C 51.709 -28.7598 54.6387 -31.6895 54.6387 -35.2539 C 54.6387 -38.8184 51.709 -41.748 48.1445 -41.748 C 44.5312 -41.748 41.6016 -38.8184 41.6016 -35.2539 C 41.6016 -31.6895 44.5312 -28.7598 48.1445 -28.7598 Z M 65.6738 -28.7598 C 69.2871 -28.7598 72.168 -31.6895 72.168 -35.2539 C 72.168 -38.8184 69.2871 -41.748 65.6738 -41.748 C 62.0605 -41.748 59.1797 -38.8184 59.1797 -35.2539 C 59.1797 -31.6895 62.0605 -28.7598 65.6738 -28.7598 Z"/>
  </g>
  <g id="Bold-S" transform="matrix(1 0 0 1 2292.44 696)">
   <path d="M 47.5586 5.46875 C 69.873 5.46875 88.2324 -12.8906 88.2324 -35.2539 C 88.2324 -57.5684 69.873 -75.9277 47.5098 -75.9277 C 25.1953 -75.9277 6.83594 -57.5684 6.83594 -35.2539 C 6.83594 -12.8906 25.1953 5.46875 47.5586 5.46875 Z M 47.5586 -5.32227 C 30.957 -5.32227 17.6758 -18.6523 17.6758 -35.2539 C 17.6758 -51.8066 30.957 -65.1367 47.5098 -65.1367 C 64.1113 -65.1367 77.4414 -51.8066 77.4414 -35.2539 C 77.4414 -18.6523 64.1113 -5.32227 47.5586 -5.32227 Z M 29.7852 -29.0039 C 33.252 -29.0039 36.0352 -31.7871 36.0352 -35.2539 C 36.0352 -38.7207 33.2031 -41.5039 29.7852 -41.5039 C 26.3184 -41.5039 23.5352 -38.7207 23.5352 -35.2539 C 23.5352 -31.7871 26.3184 -29.0039 29.7852 -29.0039 Z M 47.4609 -29.0039 C 50.9277 -29.0039 53.7109 -31.7871 53.7109 -35.2539 C 53.7109 -38.7207 50.9277 -41.5039 47.4609 -41.5039 C 44.043 -41.5039 41.2109 -38.7207 41.2109 -35.2539 C 41.2109 -31.7871 44.043 -29.0039 47.4609 -29.0039 Z M 65.1367 -29.0039 C 68.6035 -29.0039 71.4355 -31.7871 71.4355 -35.2539 C 71.4355 -38.7207 68.6035 -41.5039 65.1367 -41.5039 C 61.7188 -41.5039 58.9355 -38.7207 58.9355 -35.2539 C 58.9355 -31.7871 61.7188 -29.0039 65.1367 -29.0039 Z"/>
  </g>
  <g id="Semibold-S" transform="matrix(1 0 0 1 1996.2 696)">
   <path d="M 47.0703 4.98047 C 69.0918 4.98047 87.3047 -13.1836 87.3047 -35.2539 C 87.3047 -57.2754 69.0918 -75.4883 47.0215 -75.4883 C 25 -75.4883 6.83594 -57.2754 6.83594 -35.2539 C 6.83594 -13.1836 25.0488 4.98047 47.0703 4.98047 Z M 47.0703 -4.58984 C 30.0781 -4.58984 16.4551 -18.2129 16.4551 -35.2539 C 16.4551 -52.2461 30.0293 -65.8691 47.0215 -65.8691 C 64.0625 -65.8691 77.6855 -52.2461 77.7344 -35.2539 C 77.7344 -18.2129 64.0625 -4.58984 47.0703 -4.58984 Z M 29.248 -29.1504 C 32.5684 -29.1504 35.3027 -31.8848 35.3027 -35.2539 C 35.3027 -38.623 32.5684 -41.3574 29.248 -41.3574 C 25.8789 -41.3574 23.1445 -38.623 23.1445 -35.2539 C 23.1445 -31.8848 25.8789 -29.1504 29.248 -29.1504 Z M 47.0215 -29.1504 C 50.3418 -29.1504 53.125 -31.8848 53.125 -35.2539 C 53.125 -38.623 50.3418 -41.3574 47.0215 -41.3574 C 43.6523 -41.3574 40.918 -38.623 40.918 -35.2539 C 40.918 -31.8848 43.6523 -29.1504 47.0215 -29.1504 Z M 64.7949 -29.1504 C 68.1641 -29.1504 70.8984 -31.8848 70.8984 -35.2539 C 70.8984 -38.623 68.1641 -41.3574 64.7949 -41.3574 C 61.4258 -41.3574 58.7402 -38.623 58.7402 -35.2539 C 58.7402 -31.8848 61.4258 -29.1504 64.7949 -29.1504 Z"/>
  </g>
  <g id="Medium-S" transform="matrix(1 0 0 1 1699.83 696)">
   <path d="M 46.7285 4.63867 C 68.5547 4.63867 86.6211 -13.4277 86.6211 -35.2539 C 86.6211 -57.0801 68.5059 -75.1465 46.6797 -75.1465 C 24.8535 -75.1465 6.83594 -57.0801 6.83594 -35.2539 C 6.83594 -13.4277 24.9023 4.63867 46.7285 4.63867 Z M 46.7285 -4.00391 C 29.3945 -4.00391 15.5273 -17.9199 15.5273 -35.2539 C 15.5273 -52.5879 29.3457 -66.4551 46.6797 -66.4551 C 64.0137 -66.4551 77.8809 -52.5879 77.9297 -35.2539 C 77.9785 -17.9199 64.0625 -4.00391 46.7285 -4.00391 Z M 28.8086 -29.2969 C 32.0801 -29.2969 34.7656 -31.9824 34.7656 -35.2539 C 34.7656 -38.5254 32.0312 -41.2109 28.8086 -41.2109 C 25.4883 -41.2109 22.8516 -38.5254 22.8516 -35.2539 C 22.8516 -31.9824 25.4883 -29.2969 28.8086 -29.2969 Z M 46.6797 -29.2969 C 49.9512 -29.2969 52.6367 -31.9824 52.6367 -35.2539 C 52.6367 -38.5254 49.9512 -41.2109 46.6797 -41.2109 C 43.4082 -41.2109 40.7227 -38.5254 40.7227 -35.2539 C 40.7227 -31.9824 43.4082 -29.2969 46.6797 -29.2969 Z M 64.5508 -29.2969 C 67.8223 -29.2969 70.5078 -31.9824 70.5078 -35.2539 C 70.5078 -38.5254 67.8223 -41.2109 64.5508 -41.2109 C 61.2305 -41.2109 58.5938 -38.5254 58.5938 -35.2539 C 58.5938 -31.9824 61.2305 -29.2969 64.5508 -29.2969 Z"/>
  </g>
  <g id="Regular-S" transform="matrix(1 0 0 1 1403.58 696)">
   <path d="M 46.2402 4.15039 C 67.7734 4.15039 85.6934 -13.7207 85.6934 -35.2539 C 85.6934 -56.7871 67.7246 -74.6582 46.1914 -74.6582 C 24.707 -74.6582 6.83594 -56.7871 6.83594 -35.2539 C 6.83594 -13.7207 24.7559 4.15039 46.2402 4.15039 Z M 46.2402 -3.27148 C 28.5156 -3.27148 14.3555 -17.4805 14.3555 -35.2539 C 14.3555 -53.0273 28.4668 -67.2363 46.1914 -67.2363 C 63.9648 -67.2363 78.1738 -53.0273 78.2227 -35.2539 C 78.2715 -17.4805 64.0137 -3.27148 46.2402 -3.27148 Z M 28.2227 -29.4434 C 31.3965 -29.4434 34.0332 -32.0801 34.0332 -35.2539 C 34.0332 -38.4277 31.3965 -41.0645 28.2227 -41.0645 C 25.0488 -41.0645 22.4609 -38.4277 22.4609 -35.2539 C 22.4609 -32.0801 25.0488 -29.4434 28.2227 -29.4434 Z M 46.1914 -29.4434 C 49.4141 -29.4434 52.002 -32.0801 52.002 -35.2539 C 52.002 -38.4277 49.4141 -41.0645 46.1914 -41.0645 C 43.0176 -41.0645 40.4297 -38.4277 40.4297 -35.2539 C 40.4297 -32.0801 43.0176 -29.4434 46.1914 -29.4434 Z M 64.209 -29.4434 C 67.3828 -29.4434 69.9707 -32.0801 69.9707 -35.2539 C 69.9707 -38.4277 67.3828 -41.0645 64.209 -41.0645 C 60.9863 -41.0645 58.3984 -38.4277 58.3984 -35.2539 C 58.3984 -32.0801 60.9863 -29.4434 64.209 -29.4434 Z"/>
  </g>
  <g id="Light-S" transform="matrix(1 0 0 1 1107.6 696)">
   <path d="M 45.5078 3.41797 C 66.6992 3.41797 84.2285 -14.0625 84.2285 -35.2539 C 84.2285 -56.4453 66.6504 -73.9258 45.5078 -73.9258 C 24.3164 -73.9258 6.83594 -56.4453 6.83594 -35.2539 C 6.83594 -14.0625 24.3652 3.41797 45.5078 3.41797 Z M 45.5078 -2.29492 C 27.2461 -2.29492 12.5977 -16.9922 12.5977 -35.2539 C 12.5977 -53.5156 27.1973 -68.2129 45.5078 -68.2129 C 63.7695 -68.2129 78.4668 -53.5156 78.5156 -35.2539 C 78.5156 -16.9922 63.8184 -2.29492 45.5078 -2.29492 Z M 27.7344 -29.8828 C 30.7129 -29.8828 33.1055 -32.2754 33.1055 -35.2539 C 33.1055 -38.2324 30.6641 -40.625 27.7344 -40.625 C 24.7559 -40.625 22.3633 -38.2324 22.3633 -35.2539 C 22.3633 -32.2754 24.7559 -29.8828 27.7344 -29.8828 Z M 45.5078 -29.8828 C 48.4375 -29.8828 50.8789 -32.2754 50.8789 -35.2539 C 50.8789 -38.2324 48.4375 -40.625 45.5078 -40.625 C 42.5293 -40.625 40.0879 -38.2324 40.0879 -35.2539 C 40.0879 -32.2754 42.5293 -29.8828 45.5078 -29.8828 Z M 63.2324 -29.8828 C 66.2109 -29.8828 68.6035 -32.2754 68.6035 -35.2539 C 68.6035 -38.2324 66.2109 -40.625 63.2324 -40.625 C 60.2539 -40.625 57.8613 -38.2324 57.8613 -35.2539 C 57.8613 -32.2754 60.2539 -29.8828 63.2324 -29.8828 Z"/>
  </g>
  <g id="Thin-S" transform="matrix(1 0 0 1 811.867 696)">
   <path d="M 44.5801 2.49023 C 65.2832 2.49023 82.2754 -14.5508 82.2754 -35.2539 C 82.2754 -55.957 65.2344 -72.998 44.5312 -72.998 C 23.8281 -72.998 6.83594 -55.957 6.83594 -35.2539 C 6.83594 -14.5508 23.877 2.49023 44.5801 2.49023 Z M 44.5801 -0.927734 C 25.5859 -0.927734 10.2539 -16.3086 10.2539 -35.2539 C 10.2539 -54.1992 25.5859 -69.5801 44.5312 -69.5801 C 63.5254 -69.5801 78.8574 -54.1992 78.8574 -35.2539 C 78.8574 -16.3086 63.5254 -0.927734 44.5801 -0.927734 Z M 27.0996 -30.3711 C 29.7852 -30.3711 31.9336 -32.5195 31.9336 -35.2539 C 31.9336 -37.9395 29.7852 -40.0879 27.0996 -40.0879 C 24.4141 -40.0879 22.2656 -37.9395 22.2656 -35.2539 C 22.2656 -32.5195 24.4141 -30.3711 27.0996 -30.3711 Z M 44.5312 -30.3711 C 47.2168 -30.3711 49.3652 -32.5195 49.3652 -35.2539 C 49.3652 -37.9395 47.2168 -40.0879 44.5312 -40.0879 C 41.8457 -40.0879 39.6973 -37.9395 39.6973 -35.2539 C 39.6973 -32.5195 41.8457 -30.3711 44.5312 -30.3711 Z M 61.9629 -30.3711 C 64.6484 -30.3711 66.7969 -32.5195 66.7969 -35.2539 C 66.7969 -37.9395 64.6484 -40.0879 61.9629 -40.0879 C 59.2773 -40.0879 57.1289 -37.9395 57.1289 -35.2539 C 57.1289 -32.5195 59.2773 -30.3711 61.9629 -30.3711 Z"/>
  </g>
  <g id="Ultralight-S" transform="matrix(1 0 0 1 515.644 696)">
   <path d="M 44.043 1.95312 C 64.502 1.95312 81.2988 -14.7949 81.2988 -35.2539 C 81.2988 -55.7129 64.502 -72.4609 44.043 -72.4609 C 23.584 -72.4609 6.83594 -55.7129 6.83594 -35.2539 C 6.83594 -14.7949 23.584 1.95312 44.043 1.95312 Z M 44.043 -0.244141 C 24.7559 -0.244141 9.08203 -15.9668 9.08203 -35.2539 C 9.08203 -54.541 24.7559 -70.2637 44.043 -70.2637 C 63.3789 -70.2637 79.0527 -54.541 79.0527 -35.2539 C 79.0527 -15.9668 63.3789 -0.244141 44.043 -0.244141 Z M 26.8066 -30.6641 C 29.2969 -30.6641 31.3477 -32.666 31.3477 -35.2539 C 31.3477 -37.793 29.2969 -39.7949 26.8066 -39.7949 C 24.2188 -39.7949 22.168 -37.793 22.168 -35.2539 C 22.168 -32.666 24.2188 -30.6641 26.8066 -30.6641 Z M 44.043 -30.6641 C 46.582 -30.6641 48.6328 -32.666 48.6328 -35.2539 C 48.6328 -37.793 46.582 -39.7949 44.043 -39.7949 C 41.5039 -39.7949 39.4531 -37.793 39.4531 -35.2539 C 39.4531 -32.666 41.5039 -30.6641 44.043 -30.6641 Z M 61.3281 -30.6641 C 63.8672 -30.6641 65.8691 -32.666 65.8691 -35.2539 C 65.8691 -37.793 63.8672 -39.7949 61.3281 -39.7949 C 58.7402 -39.7949 56.7383 -37.793 56.7383 -35.2539 C 56.7383 -32.666 58.7402 -30.6641 61.3281 -30.6641 Z"/>
  </g>
 </g>
</svg>
