<?xml version="1.0" encoding="UTF-8"?>
<!--Generator: Apple Native CoreSVG 148-->
<!DOCTYPE svg
PUBLIC "-//W3C//DTD SVG 1.1//EN"
       "http://www.w3.org/Graphics/SVG/1.1/DTD/svg11.dtd">
<svg version="1.1" xmlns="http://www.w3.org/2000/svg" xmlns:xlink="http://www.w3.org/1999/xlink" width="3300" height="2200">
 <!--glyph: "uni100746.medium", point size: 100.000000, font version: "Version 16.0d11e1", template writer version: "8"-->
 <g id="Notes">
  <rect height="2200" id="artboard" style="fill:white;opacity:1" width="3300" x="0" y="0"/>
  <line id="" style="fill:none;stroke:black;opacity:1;stroke-width:0.5;" x1="263" x2="3036" y1="292" y2="292"/>
  <text style="stroke:none;fill:black;font-family:-apple-system,&quot;SF Pro Display&quot;,&quot;SF Pro Text&quot;,Helvetica,sans-serif;font-weight:bold;" transform="matrix(1 0 0 1 263 322)">Weight/Scale Variations</text>
  <text style="stroke:none;fill:black;font-family:-apple-system,&quot;SF Pro Display&quot;,&quot;SF Pro Text&quot;,Helvetica,sans-serif;text-anchor:middle;" transform="matrix(1 0 0 1 559.711 322)">Ultralight</text>
  <text style="stroke:none;fill:black;font-family:-apple-system,&quot;SF Pro Display&quot;,&quot;SF Pro Text&quot;,Helvetica,sans-serif;text-anchor:middle;" transform="matrix(1 0 0 1 856.422 322)">Thin</text>
  <text style="stroke:none;fill:black;font-family:-apple-system,&quot;SF Pro Display&quot;,&quot;SF Pro Text&quot;,Helvetica,sans-serif;text-anchor:middle;" transform="matrix(1 0 0 1 1153.13 322)">Light</text>
  <text style="stroke:none;fill:black;font-family:-apple-system,&quot;SF Pro Display&quot;,&quot;SF Pro Text&quot;,Helvetica,sans-serif;text-anchor:middle;" transform="matrix(1 0 0 1 1449.84 322)">Regular</text>
  <text style="stroke:none;fill:black;font-family:-apple-system,&quot;SF Pro Display&quot;,&quot;SF Pro Text&quot;,Helvetica,sans-serif;text-anchor:middle;" transform="matrix(1 0 0 1 1746.56 322)">Medium</text>
  <text style="stroke:none;fill:black;font-family:-apple-system,&quot;SF Pro Display&quot;,&quot;SF Pro Text&quot;,Helvetica,sans-serif;text-anchor:middle;" transform="matrix(1 0 0 1 2043.27 322)">Semibold</text>
  <text style="stroke:none;fill:black;font-family:-apple-system,&quot;SF Pro Display&quot;,&quot;SF Pro Text&quot;,Helvetica,sans-serif;text-anchor:middle;" transform="matrix(1 0 0 1 2339.98 322)">Bold</text>
  <text style="stroke:none;fill:black;font-family:-apple-system,&quot;SF Pro Display&quot;,&quot;SF Pro Text&quot;,Helvetica,sans-serif;text-anchor:middle;" transform="matrix(1 0 0 1 2636.69 322)">Heavy</text>
  <text style="stroke:none;fill:black;font-family:-apple-system,&quot;SF Pro Display&quot;,&quot;SF Pro Text&quot;,Helvetica,sans-serif;text-anchor:middle;" transform="matrix(1 0 0 1 2933.4 322)">Black</text>
  <line id="" style="fill:none;stroke:black;opacity:1;stroke-width:0.5;" x1="263" x2="3036" y1="1903" y2="1903"/>
  <g id="" transform="matrix(1 0 0 1 263 1933)">
   <path d="M 9.24805 0.830078 C 13.5547 0.830078 17.1387 -2.74414 17.1387 -7.05078 C 17.1387 -11.3574 13.5449 -14.9316 9.23828 -14.9316 C 4.94141 -14.9316 1.36719 -11.3574 1.36719 -7.05078 C 1.36719 -2.74414 4.95117 0.830078 9.24805 0.830078 Z M 9.24805 -0.654297 C 5.70312 -0.654297 2.87109 -3.49609 2.87109 -7.05078 C 2.87109 -10.6055 5.69336 -13.4473 9.23828 -13.4473 C 12.793 -13.4473 15.6348 -10.6055 15.6445 -7.05078 C 15.6543 -3.49609 12.8027 -0.654297 9.24805 -0.654297 Z M 9.22852 -3.62305 C 9.69727 -3.62305 9.9707 -3.93555 9.9707 -4.45312 L 9.9707 -6.31836 L 12.002 -6.31836 C 12.5 -6.31836 12.832 -6.57227 12.832 -7.04102 C 12.832 -7.51953 12.5195 -7.7832 12.002 -7.7832 L 9.9707 -7.7832 L 9.9707 -9.81445 C 9.9707 -10.332 9.69727 -10.6543 9.22852 -10.6543 C 8.75977 -10.6543 8.50586 -10.3125 8.50586 -9.81445 L 8.50586 -7.7832 L 6.49414 -7.7832 C 5.97656 -7.7832 5.64453 -7.51953 5.64453 -7.04102 C 5.64453 -6.57227 5.99609 -6.31836 6.49414 -6.31836 L 8.50586 -6.31836 L 8.50586 -4.45312 C 8.50586 -3.95508 8.75977 -3.62305 9.22852 -3.62305 Z"/>
  </g>
  <g id="" transform="matrix(1 0 0 1 281.506 1933)">
   <path d="M 11.709 2.91016 C 17.1582 2.91016 21.6699 -1.61133 21.6699 -7.05078 C 21.6699 -12.5 17.1484 -17.0117 11.6992 -17.0117 C 6.25977 -17.0117 1.74805 -12.5 1.74805 -7.05078 C 1.74805 -1.61133 6.26953 2.91016 11.709 2.91016 Z M 11.709 1.25 C 7.09961 1.25 3.41797 -2.44141 3.41797 -7.05078 C 3.41797 -11.6602 7.08984 -15.3516 11.6992 -15.3516 C 16.3086 -15.3516 20 -11.6602 20.0098 -7.05078 C 20.0195 -2.44141 16.3184 1.25 11.709 1.25 Z M 11.6797 -2.66602 C 12.207 -2.66602 12.5098 -3.01758 12.5098 -3.59375 L 12.5098 -6.23047 L 15.3223 -6.23047 C 15.8691 -6.23047 16.25 -6.51367 16.25 -7.03125 C 16.25 -7.55859 15.8887 -7.86133 15.3223 -7.86133 L 12.5098 -7.86133 L 12.5098 -10.6836 C 12.5098 -11.25 12.207 -11.6113 11.6797 -11.6113 C 11.1621 -11.6113 10.8789 -11.2305 10.8789 -10.6836 L 10.8789 -7.86133 L 8.07617 -7.86133 C 7.50977 -7.86133 7.13867 -7.55859 7.13867 -7.03125 C 7.13867 -6.51367 7.5293 -6.23047 8.07617 -6.23047 L 10.8789 -6.23047 L 10.8789 -3.59375 C 10.8789 -3.03711 11.1621 -2.66602 11.6797 -2.66602 Z"/>
  </g>
  <g id="" transform="matrix(1 0 0 1 304.924 1933)">
   <path d="M 14.9707 5.66406 C 21.9336 5.66406 27.6953 -0.0976562 27.6953 -7.05078 C 27.6953 -14.0137 21.9238 -19.7754 14.9609 -19.7754 C 8.00781 -19.7754 2.25586 -14.0137 2.25586 -7.05078 C 2.25586 -0.0976562 8.01758 5.66406 14.9707 5.66406 Z M 14.9707 3.84766 C 8.93555 3.84766 4.08203 -1.01562 4.08203 -7.05078 C 4.08203 -13.0957 8.92578 -17.9492 14.9609 -17.9492 C 21.0059 -17.9492 25.8594 -13.0957 25.8691 -7.05078 C 25.8789 -1.01562 21.0156 3.84766 14.9707 3.84766 Z M 14.9414 -1.38672 C 15.5176 -1.38672 15.8594 -1.77734 15.8594 -2.38281 L 15.8594 -6.13281 L 19.7754 -6.13281 C 20.3711 -6.13281 20.7812 -6.46484 20.7812 -7.02148 C 20.7812 -7.59766 20.3906 -7.93945 19.7754 -7.93945 L 15.8594 -7.93945 L 15.8594 -11.8652 C 15.8594 -12.4805 15.5176 -12.8711 14.9414 -12.8711 C 14.375 -12.8711 14.0527 -12.4609 14.0527 -11.8652 L 14.0527 -7.93945 L 10.1465 -7.93945 C 9.53125 -7.93945 9.13086 -7.59766 9.13086 -7.02148 C 9.13086 -6.46484 9.55078 -6.13281 10.1465 -6.13281 L 14.0527 -6.13281 L 14.0527 -2.38281 C 14.0527 -1.79688 14.375 -1.38672 14.9414 -1.38672 Z"/>
  </g>
  <text style="stroke:none;fill:black;font-family:-apple-system,&quot;SF Pro Display&quot;,&quot;SF Pro Text&quot;,Helvetica,sans-serif;font-weight:bold;" transform="matrix(1 0 0 1 263 1953)">Design Variations</text>
  <text style="stroke:none;fill:black;font-family:-apple-system,&quot;SF Pro Display&quot;,&quot;SF Pro Text&quot;,Helvetica,sans-serif;" transform="matrix(1 0 0 1 263 1971)">Symbols are supported in up to nine weights and three scales.</text>
  <text style="stroke:none;fill:black;font-family:-apple-system,&quot;SF Pro Display&quot;,&quot;SF Pro Text&quot;,Helvetica,sans-serif;" transform="matrix(1 0 0 1 263 1989)">For optimal layout with text and other symbols, vertically align</text>
  <text style="stroke:none;fill:black;font-family:-apple-system,&quot;SF Pro Display&quot;,&quot;SF Pro Text&quot;,Helvetica,sans-serif;" transform="matrix(1 0 0 1 263 2007)">symbols with the adjacent text.</text>
  <line id="" style="fill:none;stroke:#00AEEF;stroke-width:0.5;opacity:1.0;" x1="776" x2="776" y1="1919" y2="1933"/>
  <g id="" transform="matrix(1 0 0 1 776 1933)">
   <path d="M 3.31055 0.126953 C 3.82812 0.126953 4.08203 -0.0683594 4.26758 -0.605469 L 5.52734 -4.0625 L 11.2891 -4.0625 L 12.5488 -0.605469 C 12.7344 -0.0683594 12.9883 0.126953 13.4961 0.126953 C 14.0137 0.126953 14.3457 -0.185547 14.3457 -0.673828 C 14.3457 -0.839844 14.3164 -0.986328 14.2383 -1.20117 L 9.6582 -13.3887 C 9.43359 -13.9941 9.0332 -14.2871 8.4082 -14.2871 C 7.80273 -14.2871 7.39258 -13.9941 7.17773 -13.3984 L 2.59766 -1.19141 C 2.51953 -0.976562 2.49023 -0.830078 2.49023 -0.664062 C 2.49023 -0.175781 2.80273 0.126953 3.31055 0.126953 Z M 6.00586 -5.53711 L 8.37891 -12.1094 L 8.42773 -12.1094 L 10.8008 -5.53711 Z"/>
  </g>
  <line id="" style="fill:none;stroke:#00AEEF;stroke-width:0.5;opacity:1.0;" x1="792.836" x2="792.836" y1="1919" y2="1933"/>
  <text style="stroke:none;fill:black;font-family:-apple-system,&quot;SF Pro Display&quot;,&quot;SF Pro Text&quot;,Helvetica,sans-serif;font-weight:bold;" transform="matrix(1 0 0 1 776 1953)">Margins</text>
  <text style="stroke:none;fill:black;font-family:-apple-system,&quot;SF Pro Display&quot;,&quot;SF Pro Text&quot;,Helvetica,sans-serif;" transform="matrix(1 0 0 1 776 1971)">Leading and trailing margins on the left and right side of each symbol</text>
  <text style="stroke:none;fill:black;font-family:-apple-system,&quot;SF Pro Display&quot;,&quot;SF Pro Text&quot;,Helvetica,sans-serif;" transform="matrix(1 0 0 1 776 1989)">can be adjusted by modifying the x-location of the margin guidelines.</text>
  <text style="stroke:none;fill:black;font-family:-apple-system,&quot;SF Pro Display&quot;,&quot;SF Pro Text&quot;,Helvetica,sans-serif;" transform="matrix(1 0 0 1 776 2007)">Modifications are automatically applied proportionally to all</text>
  <text style="stroke:none;fill:black;font-family:-apple-system,&quot;SF Pro Display&quot;,&quot;SF Pro Text&quot;,Helvetica,sans-serif;" transform="matrix(1 0 0 1 776 2025)">scales and weights.</text>
  <g id="" transform="matrix(1 0 0 1 1289 1933)">
   <path d="M 2.8418 1.86523 L 4.54102 3.57422 C 5.40039 4.44336 6.38672 4.38477 7.31445 3.35938 L 17.4902 -7.85156 C 17.7539 -7.76367 18.0273 -7.7832 18.3398 -7.8418 L 19.4043 -8.03711 L 20.0684 -7.36328 L 20.0293 -6.80664 C 19.9902 -6.30859 20.1172 -5.92773 20.6055 -5.44922 L 21.3672 -4.70703 C 21.8457 -4.22852 22.4609 -4.19922 22.9297 -4.66797 L 25.8398 -7.58789 C 26.3086 -8.05664 26.2891 -8.65234 25.8105 -9.13086 L 25.0391 -9.89258 C 24.5605 -10.3711 24.1895 -10.5273 23.7109 -10.4883 L 23.1348 -10.4395 L 22.4902 -11.0742 L 22.7344 -12.1973 C 22.8613 -12.7637 22.7051 -13.2031 22.1191 -13.7891 L 19.9219 -15.9766 C 16.582 -19.2969 12.1484 -19.2188 9.25781 -16.3281 C 8.83789 -15.918 8.80859 -15.3418 9.04297 -14.9512 C 9.27734 -14.5898 9.73633 -14.3555 10.3809 -14.5215 C 11.8457 -14.8633 13.3691 -14.9219 14.7949 -13.9844 L 14.209 -12.5293 C 14.0137 -12.0508 13.9844 -11.6504 14.1113 -11.2891 L 3.04688 -0.898438 C 2.06055 0.0195312 1.98242 0.996094 2.8418 1.86523 Z M 10.752 -15.957 C 13.1836 -17.7344 16.4746 -17.4316 18.7012 -15.2051 L 21.1328 -12.793 C 21.3672 -12.5586 21.4062 -12.373 21.3379 -12.0312 L 21.0156 -10.5469 L 22.5195 -9.0625 L 23.5059 -9.12109 C 23.7598 -9.13086 23.8379 -9.11133 24.0332 -8.91602 L 24.6094 -8.33984 L 22.168 -5.89844 L 21.5918 -6.47461 C 21.3965 -6.66992 21.3672 -6.74805 21.377 -7.01172 L 21.4453 -7.98828 L 19.9512 -9.47266 L 18.4277 -9.21875 C 18.1055 -9.15039 17.959 -9.17969 17.7148 -9.41406 L 15.7129 -11.416 C 15.459 -11.6504 15.4297 -11.8164 15.5859 -12.1875 L 16.4648 -14.2773 C 14.9023 -15.7324 12.8711 -16.3574 10.8398 -15.7617 C 10.6836 -15.7227 10.625 -15.8496 10.752 -15.957 Z M 5.27344 2.30469 L 4.10156 1.14258 C 3.63281 0.683594 3.74023 0.341797 4.14062 -0.0195312 L 14.9512 -10.1953 L 16.416 -8.71094 L 6.42578 2.27539 C 6.07422 2.67578 5.74219 2.77344 5.27344 2.30469 Z"/>
  </g>
  <text style="stroke:none;fill:black;font-family:-apple-system,&quot;SF Pro Display&quot;,&quot;SF Pro Text&quot;,Helvetica,sans-serif;font-weight:bold;" transform="matrix(1 0 0 1 1289 1953)">Exporting</text>
  <text style="stroke:none;fill:black;font-family:-apple-system,&quot;SF Pro Display&quot;,&quot;SF Pro Text&quot;,Helvetica,sans-serif;" transform="matrix(1 0 0 1 1289 1971)">Symbols should be outlined when exporting to ensure the</text>
  <text style="stroke:none;fill:black;font-family:-apple-system,&quot;SF Pro Display&quot;,&quot;SF Pro Text&quot;,Helvetica,sans-serif;" transform="matrix(1 0 0 1 1289 1989)">design is preserved when submitting to Xcode.</text>
  <text id="template-version" style="stroke:none;fill:black;font-family:-apple-system,&quot;SF Pro Display&quot;,&quot;SF Pro Text&quot;,Helvetica,sans-serif;text-anchor:end;" transform="matrix(1 0 0 1 3036 1933)">Template v.2.0</text>
  <text style="stroke:none;fill:black;font-family:-apple-system,&quot;SF Pro Display&quot;,&quot;SF Pro Text&quot;,Helvetica,sans-serif;text-anchor:end;" transform="matrix(1 0 0 1 3036 1951)">Requires Xcode 12 or greater</text>
  <text style="stroke:none;fill:black;font-family:-apple-system,&quot;SF Pro Display&quot;,&quot;SF Pro Text&quot;,Helvetica,sans-serif;text-anchor:end;" transform="matrix(1 0 0 1 3036 1969)">Generated from tram</text>
  <text style="stroke:none;fill:black;font-family:-apple-system,&quot;SF Pro Display&quot;,&quot;SF Pro Text&quot;,Helvetica,sans-serif;text-anchor:end;" transform="matrix(1 0 0 1 3036 1987)">Typeset at 100 points</text>
  <text style="stroke:none;fill:black;font-family:-apple-system,&quot;SF Pro Display&quot;,&quot;SF Pro Text&quot;,Helvetica,sans-serif;" transform="matrix(1 0 0 1 263 726)">Small</text>
  <text style="stroke:none;fill:black;font-family:-apple-system,&quot;SF Pro Display&quot;,&quot;SF Pro Text&quot;,Helvetica,sans-serif;" transform="matrix(1 0 0 1 263 1156)">Medium</text>
  <text style="stroke:none;fill:black;font-family:-apple-system,&quot;SF Pro Display&quot;,&quot;SF Pro Text&quot;,Helvetica,sans-serif;" transform="matrix(1 0 0 1 263 1586)">Large</text>
 </g>
 <g id="Guides">
  <g id="H-reference" style="fill:#27AAE1;stroke:none;" transform="matrix(1 0 0 1 339 696)">
   <path d="M 0.976562 0 L 3.66211 0 L 12.9883 -24.4629 L 45.7031 -24.4629 L 55.0781 0 L 57.7148 0 L 30.6152 -70.459 L 28.125 -70.459 Z M 29.2969 -67.1387 L 29.3945 -67.1387 L 44.873 -26.709 L 13.8672 -26.709 Z"/>
  </g>
  <line id="Baseline-S" style="fill:none;stroke:#27AAE1;opacity:1;stroke-width:0.5;" x1="263" x2="3036" y1="696" y2="696"/>
  <line id="Capline-S" style="fill:none;stroke:#27AAE1;opacity:1;stroke-width:0.5;" x1="263" x2="3036" y1="625.541" y2="625.541"/>
  <g id="H-reference" style="fill:#27AAE1;stroke:none;" transform="matrix(1 0 0 1 339 1126)">
   <path d="M 0.976562 0 L 3.66211 0 L 12.9883 -24.4629 L 45.7031 -24.4629 L 55.0781 0 L 57.7148 0 L 30.6152 -70.459 L 28.125 -70.459 Z M 29.2969 -67.1387 L 29.3945 -67.1387 L 44.873 -26.709 L 13.8672 -26.709 Z"/>
  </g>
  <line id="Baseline-M" style="fill:none;stroke:#27AAE1;opacity:1;stroke-width:0.5;" x1="263" x2="3036" y1="1126" y2="1126"/>
  <line id="Capline-M" style="fill:none;stroke:#27AAE1;opacity:1;stroke-width:0.5;" x1="263" x2="3036" y1="1055.54" y2="1055.54"/>
  <g id="H-reference" style="fill:#27AAE1;stroke:none;" transform="matrix(1 0 0 1 339 1556)">
   <path d="M 0.976562 0 L 3.66211 0 L 12.9883 -24.4629 L 45.7031 -24.4629 L 55.0781 0 L 57.7148 0 L 30.6152 -70.459 L 28.125 -70.459 Z M 29.2969 -67.1387 L 29.3945 -67.1387 L 44.873 -26.709 L 13.8672 -26.709 Z"/>
  </g>
  <line id="Baseline-L" style="fill:none;stroke:#27AAE1;opacity:1;stroke-width:0.5;" x1="263" x2="3036" y1="1556" y2="1556"/>
  <line id="Capline-L" style="fill:none;stroke:#27AAE1;opacity:1;stroke-width:0.5;" x1="263" x2="3036" y1="1485.54" y2="1485.54"/>
  <line id="left-margin" style="fill:none;stroke:#00AEEF;stroke-width:0.5;opacity:1.0;" x1="1393.06" x2="1393.06" y1="1030.79" y2="1150.12"/>
  <line id="right-margin" style="fill:none;stroke:#00AEEF;stroke-width:0.5;opacity:1.0;" x1="1506.63" x2="1506.63" y1="1030.79" y2="1150.12"/>
 </g>
 <g id="Symbols">
  <g id="Black-L" transform="matrix(1 0 0 1 2851.47 1556)">
   <path d="M 30.3223 54.7852 L 35.6445 54.7852 C 38.4277 54.7852 40.1367 53.8086 41.6504 51.416 L 44.9707 46.0938 L 117.139 46.0938 L 120.459 51.416 C 121.973 53.8086 123.682 54.7852 126.514 54.7852 L 130.664 54.7852 C 135.742 54.7852 138.428 49.5605 135.693 45.166 L 123.486 25.5371 C 138.672 23.8281 147.803 13.1836 147.803 -3.27148 L 147.803 -51.8066 C 147.803 -69.9707 146.68 -78.8574 144.678 -88.4766 C 140.43 -110.645 129.98 -121.045 109.521 -124.219 C 102.93 -125.244 93.1641 -125.83 81.9336 -125.83 C 70.2637 -125.83 60.8887 -125.244 54.3457 -124.219 C 33.8867 -121.045 23.3887 -110.645 19.1406 -88.4766 C 17.1875 -78.8574 16.0645 -70.166 16.0645 -52.002 L 16.0645 -3.27148 C 16.0645 12.5977 24.5117 23.0469 38.7695 25.293 L 25.8789 45.9961 C 23.6328 49.6094 25.1953 54.7852 30.3223 54.7852 Z M 47.2168 9.32617 C 37.6465 9.32617 32.2754 3.66211 32.2754 -5.61523 L 32.2754 -52.002 C 32.2754 -69.9707 33.3984 -77.1484 35.2539 -86.8164 C 37.8418 -100.928 44.1406 -106.689 57.2266 -108.35 C 62.6953 -109.033 71.0449 -109.375 81.9336 -109.375 C 92.3828 -109.375 101.172 -109.033 106.641 -108.35 C 119.727 -106.689 126.025 -100.928 128.613 -86.8164 C 130.469 -77.1484 131.592 -69.7754 131.592 -51.8066 L 131.592 -5.61523 C 131.592 3.66211 126.221 9.32617 116.602 9.32617 Z M 65.7715 -90.6738 L 98.0469 -90.6738 C 101.465 -90.6738 103.955 -93.2129 103.955 -96.582 C 103.955 -100.049 101.465 -102.539 98.0469 -102.539 L 65.7715 -102.539 C 62.4023 -102.539 59.9609 -100.049 59.9609 -96.582 C 59.9609 -93.1152 62.4023 -90.6738 65.7715 -90.6738 Z M 81.9336 -23.9258 C 97.9492 -24.0234 109.424 -24.6094 115.82 -25.3906 C 120.264 -25.9277 122.656 -29.0527 122.656 -33.3008 L 122.656 -49.8535 C 122.656 -61.5723 121.338 -72.6562 120.752 -75.9277 C 120.166 -79.541 117.578 -82.1289 114.014 -82.5684 C 107.422 -83.3984 97.998 -83.8379 81.9336 -83.9844 C 65.6738 -83.8379 56.3477 -83.3984 49.8047 -82.5684 C 46.2402 -82.1289 43.7012 -79.541 43.1152 -75.9277 C 42.5293 -72.6562 41.2109 -61.5723 41.2109 -49.8535 L 41.2109 -33.3008 C 41.2109 -29.0527 43.6035 -25.9277 48.0469 -25.3906 C 54.3457 -24.6094 65.7715 -24.0234 81.9336 -23.9258 Z M 112.305 1.61133 C 117.285 1.61133 121.191 -2.24609 121.191 -7.37305 C 121.191 -12.4512 117.383 -16.3574 112.305 -16.3574 C 107.178 -16.3574 103.32 -12.4512 103.32 -7.37305 C 103.32 -2.24609 107.178 1.61133 112.305 1.61133 Z M 51.5137 1.61133 C 56.5918 1.61133 60.498 -2.24609 60.498 -7.37305 C 60.498 -12.5 56.6406 -16.3086 51.5137 -16.3086 C 46.4355 -16.3086 42.627 -12.5 42.627 -7.37305 C 42.627 -2.24609 46.3867 1.61133 51.5137 1.61133 Z M 53.7598 31.9824 L 57.6172 25.7812 L 104.541 25.7812 L 108.398 31.9824 Z"/>
  </g>
  <g id="Heavy-L" transform="matrix(1 0 0 1 2557.03 1556)">
   <path d="M 30.0293 51.9043 L 34.8633 51.9043 C 37.4023 51.9043 38.916 51.0254 40.2832 48.877 L 43.6523 43.457 L 114.404 43.457 L 117.773 48.877 C 119.141 51.0254 120.654 51.9043 123.193 51.9043 L 127.148 51.9043 C 131.641 51.9043 133.984 47.3145 131.543 43.4082 L 119.434 23.877 C 134.424 22.4609 143.262 12.0605 143.262 -3.71094 L 143.262 -49.9512 C 143.262 -68.0176 141.846 -79.0527 139.648 -89.0137 C 135.693 -108.838 125.684 -118.701 107.275 -121.387 C 101.123 -122.314 91.1133 -122.949 79.6875 -122.949 C 67.6758 -122.949 58.2031 -122.314 52.0508 -121.387 C 33.6426 -118.701 23.6328 -108.838 19.6777 -89.0137 C 17.4805 -79.0527 16.0645 -68.2617 16.0645 -50.1953 L 16.0645 -3.71094 C 16.0645 11.6211 24.4141 21.9238 38.7207 23.7305 L 26.0742 44.043 C 23.9746 47.3633 25.4883 51.9043 30.0293 51.9043 Z M 45.5566 9.76562 C 35.4004 9.76562 30.127 3.75977 30.127 -5.46875 L 30.127 -50.1953 C 30.127 -68.0176 31.5918 -77.4902 33.6426 -87.3535 C 36.1328 -100.342 42.3828 -106.104 54.4434 -107.617 C 59.8145 -108.301 68.457 -108.691 79.6875 -108.691 C 90.332 -108.691 99.5117 -108.301 104.883 -107.617 C 116.943 -106.104 123.193 -100.342 125.684 -87.3535 C 127.734 -77.4902 129.199 -67.7734 129.199 -49.9512 L 129.199 -5.46875 C 129.199 3.75977 123.926 9.76562 113.77 9.76562 Z M 63.4766 -90.5273 L 95.8496 -90.5273 C 98.9258 -90.5273 101.172 -92.7734 101.172 -95.8984 C 101.172 -99.0234 98.9258 -101.221 95.8496 -101.221 L 63.4766 -101.221 C 60.4004 -101.221 58.2031 -99.0234 58.2031 -95.8984 C 58.2031 -92.7246 60.4004 -90.5273 63.4766 -90.5273 Z M 79.6875 -24.1211 C 95.459 -24.1699 107.031 -24.8047 113.574 -25.5859 C 117.871 -26.0742 120.117 -29.0527 120.117 -33.2031 L 120.117 -49.3164 C 120.117 -61.1816 118.799 -72.0215 118.066 -75.7812 C 117.48 -79.248 115.039 -81.7383 111.621 -82.1777 C 104.932 -82.959 95.8496 -83.3984 79.6875 -83.5449 C 63.3301 -83.3984 54.3457 -82.959 47.6562 -82.1777 C 44.2383 -81.7383 41.8457 -79.248 41.2598 -75.7812 C 40.5273 -72.0215 39.209 -61.1816 39.209 -49.3164 L 39.209 -33.2031 C 39.209 -29.0527 41.4551 -26.0742 45.752 -25.5859 C 52.2461 -24.8047 63.7695 -24.1699 79.6875 -24.1211 Z M 109.766 1.41602 C 114.697 1.41602 118.555 -2.39258 118.555 -7.42188 C 118.555 -12.4512 114.795 -16.2598 109.766 -16.2598 C 104.736 -16.2598 100.928 -12.4512 100.928 -7.42188 C 100.928 -2.39258 104.736 1.41602 109.766 1.41602 Z M 49.5117 1.41602 C 54.4922 1.41602 58.3496 -2.34375 58.3496 -7.42188 C 58.3496 -12.4512 54.541 -16.2109 49.5117 -16.2109 C 44.4824 -16.2109 40.7715 -12.4512 40.7715 -7.42188 C 40.7715 -2.34375 44.4824 1.41602 49.5117 1.41602 Z M 51.6113 30.6152 L 55.7129 24.0234 L 102.344 24.0234 L 106.445 30.6152 Z"/>
  </g>
  <g id="Bold-L" transform="matrix(1 0 0 1 2262.85 1556)">
   <path d="M 29.6875 48.6816 L 33.9844 48.6816 C 36.2305 48.6816 37.5 47.9492 38.7207 46.0449 L 42.1387 40.4785 L 111.328 40.4785 L 114.795 46.0449 C 115.967 47.9492 117.285 48.6816 119.482 48.6816 L 123.193 48.6816 C 127.051 48.6816 129.004 44.8242 126.904 41.4551 L 114.844 21.9727 C 129.688 20.9961 138.184 10.791 138.184 -4.19922 L 138.184 -47.8516 C 138.184 -65.8203 136.426 -79.248 134.033 -89.5508 C 130.42 -106.787 120.85 -116.016 104.785 -118.213 C 99.1211 -118.994 88.7695 -119.727 77.1484 -119.727 C 64.7949 -119.727 55.127 -118.994 49.4629 -118.213 C 33.3984 -116.016 23.877 -106.787 20.2637 -89.5508 C 17.8711 -79.248 16.0645 -66.1133 16.0645 -48.1445 L 16.0645 -4.19922 C 16.0645 10.498 24.2676 20.6543 38.6719 21.9238 L 26.2695 41.8457 C 24.3652 44.873 25.8301 48.6816 29.6875 48.6816 Z M 43.6523 10.2539 C 32.9102 10.2539 27.7344 3.90625 27.7344 -5.37109 L 27.7344 -48.1445 C 27.7344 -65.8203 29.5898 -77.8809 31.8359 -87.9883 C 34.2285 -99.6582 40.4297 -105.42 51.3184 -106.738 C 56.5918 -107.422 65.5762 -107.91 77.1484 -107.91 C 87.9883 -107.91 97.6562 -107.422 102.979 -106.738 C 113.818 -105.42 120.02 -99.6582 122.461 -87.9883 C 124.658 -77.8809 126.514 -65.5273 126.514 -47.8516 L 126.514 -5.37109 C 126.514 3.90625 121.338 10.2539 110.596 10.2539 Z M 60.8887 -90.332 L 93.3594 -90.332 C 96.1426 -90.332 98.0957 -92.334 98.0957 -95.0684 C 98.0957 -97.8516 96.1426 -99.8047 93.3594 -99.8047 L 60.8887 -99.8047 C 58.1543 -99.8047 56.2012 -97.8516 56.2012 -95.0684 C 56.2012 -92.2852 58.1543 -90.332 60.8887 -90.332 Z M 77.1484 -24.2676 C 92.7246 -24.3652 104.297 -24.9512 111.035 -25.7324 C 115.234 -26.2207 117.285 -29.0527 117.285 -33.0566 L 117.285 -48.7305 C 117.285 -60.7422 115.967 -71.3379 115.088 -75.6348 C 114.453 -78.9551 112.207 -81.2988 108.887 -81.6895 C 102.148 -82.5195 93.5059 -82.959 77.1484 -83.0566 C 60.6445 -82.959 52.0508 -82.5195 45.166 -81.6895 C 41.9434 -81.2988 39.7461 -78.9551 39.1602 -75.6348 C 38.2812 -71.3379 36.9629 -60.7422 36.9629 -48.7305 L 36.9629 -33.0566 C 36.9629 -29.0527 39.0137 -26.2207 43.2129 -25.7324 C 49.9023 -24.9512 61.4746 -24.3652 77.1484 -24.2676 Z M 106.982 1.2207 C 111.816 1.2207 115.625 -2.53906 115.625 -7.4707 C 115.625 -12.4023 111.914 -16.1621 106.982 -16.1621 C 102.002 -16.1621 98.291 -12.4023 98.291 -7.4707 C 98.291 -2.53906 102.002 1.2207 106.982 1.2207 Z M 47.2656 1.17188 C 52.1484 1.17188 55.9082 -2.49023 55.9082 -7.4707 C 55.9082 -12.4512 52.2461 -16.1133 47.2656 -16.1133 C 42.334 -16.1133 38.6719 -12.4512 38.6719 -7.4707 C 38.6719 -2.49023 42.2852 1.17188 47.2656 1.17188 Z M 49.2188 29.1016 L 53.6133 22.0703 L 99.9023 22.0703 L 104.248 29.1016 Z"/>
  </g>
  <g id="Semibold-L" transform="matrix(1 0 0 1 1967.88 1556)">
   <path d="M 29.4922 46.4844 L 33.3984 46.4844 C 35.4004 46.4844 36.5723 45.8008 37.5977 44.0918 L 41.1133 38.4766 L 109.229 38.4766 L 112.744 44.0918 C 113.77 45.8008 114.941 46.4844 116.943 46.4844 L 120.459 46.4844 C 123.926 46.4844 125.537 43.0664 123.682 40.0879 L 111.67 20.7031 C 126.416 19.9707 134.717 9.86328 134.717 -4.49219 L 134.717 -46.3867 C 134.717 -64.3066 132.666 -79.3457 130.127 -89.9414 C 126.758 -105.371 117.529 -114.16 103.076 -116.064 C 97.7539 -116.748 87.1582 -117.48 75.3906 -117.48 C 62.793 -117.48 53.0273 -116.748 47.7051 -116.064 C 33.252 -114.16 24.0234 -105.371 20.6543 -89.9414 C 18.1152 -79.3457 16.0645 -64.6484 16.0645 -46.7285 L 16.0645 -4.49219 C 16.0645 9.7168 24.1699 19.7754 38.6719 20.6543 L 26.3672 40.3809 C 24.6582 43.1152 26.0742 46.4844 29.4922 46.4844 Z M 42.3828 10.5957 C 31.2012 10.5957 26.123 4.00391 26.123 -5.27344 L 26.123 -46.7285 C 26.123 -64.3555 28.2227 -78.1738 30.5664 -88.3789 C 32.9102 -99.1699 39.1113 -104.98 49.1211 -106.152 C 54.3945 -106.836 63.5742 -107.373 75.3906 -107.373 C 86.4258 -107.373 96.3867 -106.836 101.611 -106.152 C 111.67 -104.98 117.871 -99.1699 120.215 -88.3789 C 122.559 -78.1738 124.658 -63.9648 124.658 -46.3867 L 124.658 -5.27344 C 124.658 4.00391 119.58 10.5957 108.398 10.5957 Z M 59.1309 -90.2344 L 91.6504 -90.2344 C 94.1895 -90.2344 95.9473 -91.9922 95.9473 -94.5312 C 95.9473 -97.0703 94.1895 -98.8281 91.6504 -98.8281 L 59.1309 -98.8281 C 56.5918 -98.8281 54.834 -97.0703 54.834 -94.5312 C 54.834 -91.9922 56.5918 -90.2344 59.1309 -90.2344 Z M 75.3906 -24.4141 C 90.7715 -24.5117 102.441 -25.0977 109.277 -25.8789 C 113.379 -26.3672 115.332 -29.1016 115.332 -33.0078 L 115.332 -48.3398 C 115.332 -60.4004 114.014 -70.8984 113.037 -75.5371 C 112.402 -78.7109 110.254 -80.957 107.031 -81.3477 C 100.244 -82.1777 91.8457 -82.6172 75.3906 -82.7148 C 58.8379 -82.6172 50.4883 -82.1777 43.5059 -81.3477 C 40.3809 -80.957 38.3301 -78.7109 37.6953 -75.5371 C 36.7188 -70.8984 35.4004 -60.4004 35.4004 -48.3398 L 35.4004 -33.0078 C 35.4004 -29.1016 37.3535 -26.3672 41.4551 -25.8789 C 48.291 -25.0977 59.9121 -24.5117 75.3906 -24.4141 Z M 105.029 1.02539 C 109.814 1.02539 113.574 -2.63672 113.574 -7.51953 C 113.574 -12.4023 109.912 -16.0645 105.029 -16.0645 C 100.146 -16.0645 96.4355 -12.4023 96.4355 -7.51953 C 96.4355 -2.63672 100.146 1.02539 105.029 1.02539 Z M 45.7031 1.02539 C 50.5371 1.02539 54.248 -2.58789 54.248 -7.51953 C 54.248 -12.4512 50.6348 -16.0645 45.7031 -16.0645 C 40.8203 -16.0645 37.207 -12.4512 37.207 -7.51953 C 37.207 -2.58789 40.8203 1.02539 45.7031 1.02539 Z M 47.5586 28.0762 L 52.1484 20.752 L 98.1934 20.752 L 102.783 28.0762 Z"/>
  </g>
  <g id="Medium-L" transform="matrix(1 0 0 1 1672.48 1556)">
   <path d="M 29.3457 44.7754 L 32.959 44.7754 C 34.8145 44.7754 35.8398 44.1895 36.8164 42.627 L 40.332 36.9141 L 107.617 36.9141 L 111.133 42.627 C 112.109 44.1895 113.184 44.7754 114.99 44.7754 L 118.408 44.7754 C 121.533 44.7754 122.949 41.748 121.289 39.0625 L 109.277 19.6777 C 123.926 19.1895 132.08 9.17969 132.08 -4.73633 L 132.08 -45.2637 C 132.08 -63.1348 129.834 -79.4434 127.197 -90.2832 C 123.975 -104.346 115.039 -112.793 101.758 -114.404 C 96.6797 -115.039 85.9375 -115.82 74.0723 -115.82 C 61.2793 -115.82 51.4648 -115.039 46.3867 -114.404 C 33.1055 -112.793 24.1699 -104.346 20.9473 -90.2832 C 18.2617 -79.4434 16.0645 -63.5742 16.0645 -45.6543 L 16.0645 -4.73633 C 16.0645 9.13086 24.1211 19.0918 38.6719 19.6777 L 26.5137 39.209 C 24.9023 41.7969 26.2207 44.7754 29.3457 44.7754 Z M 41.3574 10.8887 C 29.8828 10.8887 24.8535 4.05273 24.8535 -5.17578 L 24.8535 -45.6543 C 24.8535 -63.1836 27.1484 -78.3691 29.6387 -88.7207 C 31.9336 -98.8281 38.0859 -104.639 47.5098 -105.713 C 52.7344 -106.396 62.0605 -106.982 74.0723 -106.982 C 85.2051 -106.982 95.4102 -106.396 100.635 -105.713 C 110.01 -104.639 116.211 -98.8281 118.506 -88.7207 C 120.947 -78.3691 123.291 -62.793 123.291 -45.2637 L 123.291 -5.17578 C 123.291 4.05273 118.213 10.8887 106.738 10.8887 Z M 57.8125 -90.1367 L 90.332 -90.1367 C 92.7246 -90.1367 94.3359 -91.748 94.3359 -94.1406 C 94.3359 -96.4844 92.7246 -98.0469 90.332 -98.0469 L 57.8125 -98.0469 C 55.4199 -98.0469 53.8086 -96.4844 53.8086 -94.1406 C 53.8086 -91.748 55.4199 -90.1367 57.8125 -90.1367 Z M 74.0723 -24.5117 C 89.3555 -24.6094 101.025 -25.1953 107.959 -25.9766 C 112.012 -26.4648 113.818 -29.1016 113.818 -32.9102 L 113.818 -48.0469 C 113.818 -60.2051 112.5 -70.5078 111.475 -75.4395 C 110.84 -78.5645 108.789 -80.7617 105.615 -81.1035 C 98.7793 -81.8848 90.625 -82.373 74.0723 -82.4707 C 57.4219 -82.373 49.2676 -81.8848 42.1875 -81.1035 C 39.209 -80.7617 37.2559 -78.5645 36.6211 -75.4395 C 35.5469 -70.5078 34.2285 -60.2051 34.2285 -48.0469 L 34.2285 -32.9102 C 34.2285 -29.1016 36.084 -26.4648 40.0879 -25.9766 C 47.0703 -25.1953 58.6914 -24.6094 74.0723 -24.5117 Z M 103.564 0.927734 C 108.301 0.927734 112.012 -2.73438 112.012 -7.56836 C 112.012 -12.4023 108.35 -16.0156 103.564 -16.0156 C 98.7305 -16.0156 95.0195 -12.4023 95.0195 -7.56836 C 95.0195 -2.73438 98.7305 0.927734 103.564 0.927734 Z M 44.5312 0.878906 C 49.3164 0.878906 53.0273 -2.68555 53.0273 -7.56836 C 53.0273 -12.4023 49.4141 -15.9668 44.5312 -15.9668 C 39.6973 -15.9668 36.1328 -12.4023 36.1328 -7.56836 C 36.1328 -2.68555 39.6973 0.878906 44.5312 0.878906 Z M 46.3379 27.2949 L 51.0254 19.7266 L 96.9238 19.7266 L 101.611 27.2949 Z"/>
  </g>
  <g id="Regular-L" transform="matrix(1 0 0 1 1377.51 1556)">
   <path d="M 29.1016 42.5781 L 32.373 42.5781 C 33.9844 42.5781 34.8633 42.0898 35.7422 40.7227 L 39.3555 34.9121 L 105.518 34.9121 L 109.131 40.7227 C 109.961 42.0898 110.84 42.5781 112.451 42.5781 L 115.723 42.5781 C 118.408 42.5781 119.531 40.0391 118.115 37.7441 L 106.152 18.3594 C 120.752 18.1641 128.613 8.30078 128.613 -5.07812 L 128.613 -43.8477 C 128.613 -61.6699 126.172 -79.5898 123.34 -90.625 C 120.361 -102.93 111.719 -110.986 100.049 -112.256 C 95.3125 -112.793 84.375 -113.623 72.3633 -113.623 C 59.3262 -113.623 49.3652 -112.793 44.6289 -112.256 C 32.959 -110.986 24.3164 -102.93 21.3379 -90.625 C 18.5059 -79.5898 16.0645 -62.1094 16.0645 -44.2871 L 16.0645 -5.07812 C 16.0645 8.30078 23.9746 18.2617 38.6719 18.3594 L 26.6113 37.7441 C 25.1465 40.0879 26.4648 42.5781 29.1016 42.5781 Z M 40.0879 11.2305 C 28.1738 11.2305 23.2422 4.15039 23.2422 -5.07812 L 23.2422 -44.2871 C 23.2422 -61.7188 25.7812 -78.6133 28.3691 -89.1113 C 30.6152 -98.3887 36.7676 -104.15 45.3613 -105.176 C 50.5371 -105.811 60.0586 -106.445 72.3633 -106.445 C 83.5938 -106.445 94.1406 -105.811 99.3164 -105.176 C 107.91 -104.15 114.062 -98.3887 116.309 -89.1113 C 118.896 -78.6133 121.436 -61.2793 121.436 -43.8477 L 121.436 -5.07812 C 121.436 4.15039 116.504 11.2305 104.59 11.2305 Z M 56.0547 -89.9902 L 88.6719 -89.9902 C 90.8203 -89.9902 92.1875 -91.4551 92.1875 -93.6035 C 92.1875 -95.7031 90.8203 -97.0703 88.6719 -97.0703 L 56.0547 -97.0703 C 53.8574 -97.0703 52.4902 -95.7031 52.4902 -93.6035 C 52.4902 -91.4551 53.8574 -89.9902 56.0547 -89.9902 Z M 72.3633 -24.6094 C 87.4512 -24.707 99.1699 -25.293 106.25 -26.123 C 110.205 -26.5625 111.914 -29.1016 111.914 -32.8125 L 111.914 -47.6562 C 111.914 -59.8633 110.596 -70.0684 109.424 -75.3418 C 108.789 -78.3203 106.836 -80.4199 103.809 -80.8105 C 96.875 -81.5918 88.9648 -82.0801 72.3633 -82.1289 C 55.6152 -82.0801 47.7539 -81.5918 40.5273 -80.7617 C 37.6465 -80.4199 35.8398 -78.3203 35.1562 -75.3418 C 34.0332 -70.0684 32.7148 -59.8633 32.7148 -47.6562 L 32.7148 -32.8125 C 32.7148 -29.1016 34.4238 -26.5625 38.3789 -26.123 C 45.459 -25.293 57.1777 -24.707 72.3633 -24.6094 Z M 101.66 0.78125 C 106.299 0.78125 110.01 -2.83203 110.01 -7.61719 C 110.01 -12.3535 106.396 -15.9668 101.66 -15.9668 C 96.875 -15.9668 93.2129 -12.3535 93.2129 -7.61719 C 93.2129 -2.83203 96.875 0.78125 101.66 0.78125 Z M 42.9688 0.732422 C 47.7539 0.732422 51.3672 -2.7832 51.3672 -7.61719 C 51.3672 -12.4023 47.8516 -15.918 42.9688 -15.918 C 38.1836 -15.918 34.7168 -12.4023 34.7168 -7.61719 C 34.7168 -2.7832 38.1836 0.732422 42.9688 0.732422 Z M 44.6777 26.2695 L 49.6094 18.3594 L 95.2637 18.3594 L 100.146 26.2695 Z"/>
  </g>
  <g id="Light-L" transform="matrix(1 0 0 1 1082.04 1556)">
   <path d="M 28.125 41.4062 L 31.0059 41.4062 C 32.4707 41.4062 33.2031 40.9668 33.9355 39.7949 L 37.5488 33.9844 L 104.736 33.9844 L 108.301 39.7949 C 109.033 40.9668 109.766 41.4062 111.23 41.4062 L 114.111 41.4062 C 116.406 41.4062 117.334 39.3066 116.113 37.3535 L 104.297 18.2617 C 119.141 18.0176 126.123 8.1543 126.123 -4.3457 L 126.123 -43.4082 C 126.123 -62.5488 123.242 -81.2012 120.459 -91.6992 C 117.725 -102.49 109.961 -109.57 99.5117 -110.742 C 93.8965 -111.426 83.1055 -112.207 71.0938 -112.207 C 58.4473 -112.207 48.291 -111.426 42.6758 -110.742 C 32.2266 -109.57 24.4629 -102.49 21.7285 -91.6992 C 18.9453 -81.2012 16.0645 -62.793 16.0645 -43.7012 L 16.0645 -4.3457 C 16.0645 8.1543 23.0469 18.0664 37.9395 18.2617 L 26.0742 37.3535 C 24.8047 39.3555 25.8301 41.4062 28.125 41.4062 Z M 39.3066 12.5977 C 26.6113 12.5977 21.7773 4.98047 21.7773 -4.3457 L 21.7773 -43.7012 C 21.7773 -62.6465 24.9023 -80.6152 27.3926 -90.5762 C 29.3945 -98.8281 35.2051 -104.15 43.2617 -105.176 C 49.6582 -106.006 59.4727 -106.494 71.0938 -106.494 C 82.0801 -106.494 92.5293 -106.006 98.877 -105.176 C 106.934 -104.15 112.744 -98.8281 114.795 -90.5762 C 117.285 -80.6152 120.41 -62.3535 120.41 -43.4082 L 120.41 -4.3457 C 120.41 4.98047 115.576 12.5977 102.832 12.5977 Z M 54.4922 -90.2344 L 87.6465 -90.2344 C 89.5996 -90.2344 90.7715 -91.5039 90.7715 -93.4082 C 90.7715 -95.2148 89.5996 -96.4844 87.6465 -96.4844 L 54.4922 -96.4844 C 52.5879 -96.4844 51.3672 -95.2148 51.3672 -93.4082 C 51.3672 -91.5039 52.5879 -90.2344 54.4922 -90.2344 Z M 71.0938 -22.998 C 85.2539 -23.0469 96.3379 -23.584 103.809 -24.3164 C 107.959 -24.7559 110.01 -27.4414 110.01 -31.4453 L 110.01 -46.6797 C 110.01 -58.252 108.74 -68.2617 107.471 -74.6582 C 106.836 -77.9297 104.59 -80.1758 101.221 -80.5664 C 94.3848 -81.2988 85.9375 -81.7871 71.0938 -81.7871 C 56.1035 -81.7871 47.7051 -81.2988 40.332 -80.5176 C 37.2559 -80.1758 35.2051 -77.9297 34.5703 -74.6582 C 33.3008 -68.2617 32.0312 -58.252 32.0312 -46.6797 L 32.0312 -31.4453 C 32.0312 -27.4414 34.1309 -24.7559 38.2324 -24.3164 C 45.7031 -23.584 56.8359 -23.0469 71.0938 -22.998 Z M 100.537 1.31836 C 104.98 1.31836 108.447 -2.09961 108.447 -6.64062 C 108.447 -11.1328 105.078 -14.502 100.537 -14.502 C 96.0449 -14.502 92.5781 -11.1328 92.5781 -6.64062 C 92.5781 -2.09961 96.0449 1.31836 100.537 1.31836 Z M 41.6504 1.26953 C 46.1426 1.26953 49.6094 -2.05078 49.6094 -6.64062 C 49.6094 -11.1328 46.1914 -14.502 41.6504 -14.502 C 37.1094 -14.502 33.7891 -11.1328 33.7891 -6.64062 C 33.7891 -2.05078 37.1094 1.26953 41.6504 1.26953 Z M 42.1875 26.5137 L 47.3145 18.2617 L 94.9219 18.2617 L 100.049 26.5137 Z"/>
  </g>
  <g id="Thin-L" transform="matrix(1 0 0 1 787.013 1556)">
   <path d="M 26.8066 39.8438 L 29.248 39.8438 C 30.4199 39.8438 30.957 39.502 31.5918 38.5742 L 35.1562 32.8125 L 103.662 32.8125 L 107.227 38.5742 C 107.812 39.502 108.35 39.8438 109.57 39.8438 L 112.012 39.8438 C 113.77 39.8438 114.404 38.3301 113.428 36.8652 L 101.807 18.1641 C 116.943 17.8223 122.754 8.00781 122.754 -3.36914 L 122.754 -42.8711 C 122.754 -63.6719 119.385 -83.3008 116.65 -93.0664 C 114.209 -101.855 107.568 -107.666 98.7793 -108.74 C 91.9922 -109.57 81.3965 -110.303 69.4336 -110.303 C 57.3242 -110.303 46.8262 -109.57 40.0879 -108.74 C 31.2988 -107.666 24.6094 -101.855 22.2168 -93.0664 C 19.4824 -83.3008 16.0645 -63.7207 16.0645 -42.9688 L 16.0645 -3.36914 C 16.0645 8.00781 21.875 17.8223 36.9629 18.1641 L 25.3418 36.8652 C 24.3652 38.3301 25.0488 39.8438 26.8066 39.8438 Z M 38.2812 14.4043 C 24.5117 14.4043 19.7754 6.10352 19.7754 -3.36914 L 19.7754 -42.9688 C 19.7754 -63.8184 23.6816 -83.252 26.0742 -92.4805 C 27.832 -99.4629 33.1543 -104.102 40.5273 -105.176 C 48.4863 -106.299 58.6426 -106.592 69.4336 -106.592 C 80.0293 -106.592 90.3809 -106.299 98.3398 -105.176 C 105.664 -104.102 111.035 -99.4629 112.793 -92.4805 C 115.137 -83.252 119.043 -63.7695 119.043 -42.8711 L 119.043 -3.36914 C 119.043 6.10352 114.355 14.4043 100.537 14.4043 Z M 52.4902 -90.5273 L 86.377 -90.5273 C 87.9883 -90.5273 88.916 -91.6016 88.916 -93.1641 C 88.916 -94.6289 87.9883 -95.7031 86.377 -95.7031 L 52.4902 -95.7031 C 50.8789 -95.7031 49.9023 -94.6289 49.9023 -93.1641 C 49.9023 -91.6016 50.8789 -90.5273 52.4902 -90.5273 Z M 69.4336 -20.8008 C 82.3242 -20.8984 92.627 -21.3379 100.635 -21.9727 C 104.98 -22.3633 107.52 -25.2441 107.52 -29.5898 L 107.52 -45.4102 C 107.52 -56.1035 106.348 -65.918 104.883 -73.7305 C 104.248 -77.3926 101.611 -79.834 97.8516 -80.2246 C 91.0645 -80.9082 81.9336 -81.3965 69.4336 -81.3965 C 56.7383 -81.3965 47.6074 -80.9082 40.0879 -80.1758 C 36.7676 -79.834 34.4238 -77.3926 33.7891 -73.7305 C 32.3242 -65.918 31.1523 -56.1035 31.1523 -45.4102 L 31.1523 -29.5898 C 31.1523 -25.2441 33.6914 -22.3633 38.0859 -21.9727 C 46.0449 -21.3379 56.3965 -20.8984 69.4336 -20.8008 Z M 99.1211 2.00195 C 103.223 2.00195 106.445 -1.12305 106.445 -5.32227 C 106.445 -9.47266 103.32 -12.5977 99.1211 -12.5977 C 94.9219 -12.5977 91.748 -9.47266 91.748 -5.32227 C 91.748 -1.12305 94.9219 2.00195 99.1211 2.00195 Z M 39.8438 2.00195 C 44.043 2.00195 47.2656 -1.12305 47.2656 -5.32227 C 47.2656 -9.47266 44.043 -12.5977 39.8438 -12.5977 C 35.6445 -12.5977 32.5684 -9.47266 32.5684 -5.32227 C 32.5684 -1.12305 35.6445 2.00195 39.8438 2.00195 Z M 38.8672 26.8066 L 44.2871 18.1641 L 94.5312 18.1641 L 99.9023 26.8066 Z"/>
  </g>
  <g id="Ultralight-L" transform="matrix(1 0 0 1 491.132 1556)">
   <path d="M 26.123 39.0625 L 28.3203 39.0625 C 29.3945 39.0625 29.834 38.7695 30.3711 37.9395 L 33.8867 32.2266 L 103.125 32.2266 L 106.689 37.9395 C 107.178 38.7695 107.617 39.0625 108.691 39.0625 L 110.938 39.0625 C 112.402 39.0625 112.891 37.8418 112.061 36.5723 L 100.537 18.0664 C 115.869 17.7246 121.094 7.91016 121.094 -2.88086 L 121.094 -42.627 C 121.094 -64.2578 117.383 -84.375 114.697 -93.75 C 112.451 -101.562 106.348 -106.689 98.3887 -107.715 C 91.0156 -108.643 80.5664 -109.375 68.5547 -109.375 C 56.7383 -109.375 46.0938 -108.643 38.7695 -107.715 C 30.8105 -106.689 24.707 -101.562 22.4609 -93.75 C 19.7266 -84.375 16.0645 -64.209 16.0645 -42.5781 L 16.0645 -2.88086 C 16.0645 7.91016 21.2891 17.6758 36.4746 18.0664 L 24.9512 36.5723 C 24.1699 37.8418 24.6094 39.0625 26.123 39.0625 Z M 37.7441 15.3809 C 23.4375 15.3809 18.7988 6.64062 18.7988 -2.88086 L 18.7988 -42.5781 C 18.7988 -64.4531 23.0957 -84.5703 25.3906 -93.5059 C 27.002 -99.7559 32.1289 -104.102 39.1113 -105.176 C 47.8516 -106.445 58.252 -106.641 68.5547 -106.641 C 79.0039 -106.641 89.2578 -106.445 98.0469 -105.176 C 105.029 -104.102 110.107 -99.7559 111.768 -93.5059 C 114.062 -84.5703 118.359 -64.502 118.359 -42.627 L 118.359 -2.88086 C 118.359 6.64062 113.721 15.3809 99.3652 15.3809 Z M 51.416 -90.6738 L 85.6934 -90.6738 C 87.1582 -90.6738 87.9883 -91.6504 87.9883 -93.0176 C 87.9883 -94.2871 87.1582 -95.3125 85.6934 -95.3125 L 51.416 -95.3125 C 50 -95.3125 49.1699 -94.2871 49.1699 -93.0176 C 49.1699 -91.6504 50 -90.6738 51.416 -90.6738 Z M 68.5547 -19.6777 C 80.8105 -19.7754 90.7227 -20.166 98.9746 -20.8008 C 103.467 -21.1914 106.25 -24.1211 106.25 -28.6133 L 106.25 -44.7754 C 106.25 -54.9805 105.127 -64.6973 103.564 -73.2422 C 102.93 -77.0996 100.098 -79.6387 96.1426 -80.0781 C 89.4043 -80.7129 79.8828 -81.1523 68.5547 -81.1523 C 57.0801 -81.1523 47.5586 -80.7129 39.9902 -79.9805 C 36.5234 -79.6387 34.0332 -77.0996 33.3984 -73.2422 C 31.8359 -64.6973 30.7129 -54.9805 30.7129 -44.7754 L 30.7129 -28.6133 C 30.7129 -24.1211 33.4961 -21.1914 37.9883 -20.8008 C 46.2402 -20.166 56.1523 -19.7754 68.5547 -19.6777 Z M 38.9648 2.39258 C 42.9688 2.39258 46.0449 -0.634766 46.0449 -4.63867 C 46.0449 -8.64258 42.9688 -11.6211 38.9648 -11.6211 C 34.9121 -11.6211 31.9336 -8.64258 31.9336 -4.63867 C 31.9336 -0.634766 34.9121 2.39258 38.9648 2.39258 Z M 98.3887 2.39258 C 102.344 2.39258 105.371 -0.585938 105.371 -4.63867 C 105.371 -8.64258 102.393 -11.6211 98.3887 -11.6211 C 94.3848 -11.6211 91.3086 -8.64258 91.3086 -4.63867 C 91.3086 -0.585938 94.3848 2.39258 98.3887 2.39258 Z M 37.207 26.9531 L 42.7246 18.1152 L 94.3359 18.1152 L 99.8535 26.9531 Z"/>
  </g>
  <g id="Black-M" transform="matrix(1 0 0 1 2867.53 1126)">
   <path d="M 23.3398 37.793 L 27.9297 37.793 C 30.3711 37.793 31.8848 36.9141 33.2031 34.8633 L 35.6934 30.8594 L 94.043 30.8594 L 96.5332 34.8633 C 97.8516 36.9141 99.3652 37.793 101.807 37.793 L 105.127 37.793 C 109.668 37.793 112.109 33.1543 109.668 29.248 L 100.195 14.0137 C 112.256 12.3047 119.287 3.80859 119.287 -9.52148 L 119.287 -50.3906 C 119.287 -65.2344 118.604 -69.6289 117.383 -76.3672 C 113.818 -95.8984 105.566 -104.199 87.5977 -107.178 C 81.4453 -108.203 74.3164 -108.545 65.8691 -108.545 C 57.4707 -108.545 50.293 -108.203 44.1406 -107.178 C 26.1719 -104.199 17.9199 -95.8984 14.3555 -76.3672 C 13.1348 -69.6289 12.4512 -65.2344 12.4512 -50.3906 L 12.4512 -9.52148 C 12.4512 3.125 18.7988 11.4258 29.7363 13.7207 L 19.5312 30.127 C 17.627 33.1543 18.7988 37.793 23.3398 37.793 Z M 38.4766 -0.537109 C 31.3477 -0.537109 27.0996 -4.83398 27.0996 -12.0605 L 27.0996 -50.3906 C 27.0996 -65.2344 27.832 -68.2617 28.9551 -75.293 C 30.957 -87.207 35.6934 -91.4062 47.0215 -92.9199 C 52.002 -93.5547 58.2031 -93.6523 65.8691 -93.6523 C 73.584 -93.6523 79.7363 -93.5547 84.7168 -92.9199 C 96.0449 -91.4062 100.781 -87.207 102.783 -75.293 C 103.906 -68.2617 104.639 -65.2344 104.639 -50.3906 L 104.639 -12.0605 C 104.639 -4.83398 100.439 -0.537109 93.2617 -0.537109 Z M 53.2715 -78.5645 L 78.4668 -78.5645 C 81.3477 -78.5645 83.5449 -80.7617 83.5449 -83.6426 C 83.5449 -86.5723 81.3477 -88.7695 78.4668 -88.7695 L 53.2715 -88.7695 C 50.3906 -88.7695 48.2422 -86.5723 48.2422 -83.6426 C 48.2422 -80.6641 50.3906 -78.5645 53.2715 -78.5645 Z M 65.8691 -25.3906 C 78.0762 -25.4395 86.5723 -25.8789 91.5039 -26.416 C 95.2148 -26.8555 97.4609 -29.4922 97.4609 -33.1543 L 97.4609 -46.7285 C 97.4609 -55.3223 96.4844 -64.1113 96.0938 -66.6016 C 95.6543 -69.7266 93.3594 -72.0215 90.2832 -72.3633 C 85.3027 -72.998 77.1973 -73.291 65.8691 -73.4375 C 54.3457 -73.291 46.3867 -72.998 41.5039 -72.3633 C 38.3789 -72.0215 36.084 -69.7266 35.6445 -66.6016 C 35.2539 -64.1113 34.2773 -55.3223 34.2773 -46.7285 L 34.2773 -33.1543 C 34.2773 -29.4922 36.5234 -26.8555 40.2344 -26.416 C 45.1172 -25.8789 53.5645 -25.4395 65.8691 -25.3906 Z M 41.8945 -6.10352 C 45.8496 -6.10352 48.8281 -9.08203 48.8281 -13.0371 C 48.8281 -16.9434 45.8496 -19.9219 41.8945 -19.9219 C 38.0371 -19.9219 35.0586 -16.9434 35.0586 -13.0371 C 35.0586 -9.08203 37.9883 -6.10352 41.8945 -6.10352 Z M 89.8438 -6.10352 C 93.7012 -6.10352 96.6797 -9.08203 96.6797 -13.0371 C 96.6797 -16.9434 93.75 -19.9219 89.8438 -19.9219 C 85.9375 -19.9219 82.9102 -16.9434 82.9102 -13.0371 C 82.9102 -9.08203 85.9375 -6.10352 89.8438 -6.10352 Z M 43.2129 18.7988 L 45.9473 14.3555 L 83.7891 14.3555 L 86.5723 18.7988 Z"/>
  </g>
  <g id="Heavy-M" transform="matrix(1 0 0 1 2572.97 1126)">
   <path d="M 23.291 34.9609 L 27.4414 34.9609 C 29.6387 34.9609 30.957 34.1797 32.1777 32.3242 L 34.7168 28.2227 L 91.2598 28.2227 L 93.7988 32.3242 C 95.0195 34.1797 96.3379 34.9609 98.5352 34.9609 L 101.709 34.9609 C 105.713 34.9609 107.812 30.8594 105.664 27.4414 L 96.2402 12.2559 C 108.105 10.8398 114.99 2.58789 114.99 -10.1562 L 114.99 -48.4375 C 114.99 -62.8906 114.111 -69.4336 112.646 -76.6602 C 109.326 -94.043 101.367 -101.953 85.3027 -104.492 C 79.834 -105.371 72.4121 -105.762 63.7207 -105.762 C 54.834 -105.762 47.6074 -105.371 42.1387 -104.492 C 26.123 -101.953 18.1152 -94.043 14.7949 -76.6602 C 13.3789 -69.4336 12.4512 -62.9883 12.4512 -48.5352 L 12.4512 -10.1562 C 12.4512 2.09961 18.8477 10.2051 29.834 12.0605 L 19.873 28.125 C 18.1152 30.8594 19.2871 34.9609 23.291 34.9609 Z M 36.8164 -0.390625 C 29.2969 -0.390625 25.1465 -4.88281 25.1465 -12.1094 L 25.1465 -48.5352 C 25.1465 -62.8906 26.0742 -68.1641 27.4414 -75.4883 C 29.4434 -86.4258 34.2285 -90.7715 44.4824 -92.0898 C 49.0723 -92.6758 55.5176 -92.9199 63.7207 -92.9199 C 71.6797 -92.9199 78.3691 -92.6758 82.959 -92.0898 C 93.2617 -90.7715 98.0469 -86.4258 100 -75.4883 C 101.367 -68.1641 102.295 -62.793 102.295 -48.4375 L 102.295 -12.1094 C 102.295 -4.88281 98.1445 -0.390625 90.625 -0.390625 Z M 51.1719 -78.3203 L 76.3184 -78.3203 C 78.9551 -78.3203 80.9082 -80.2734 80.9082 -82.9102 C 80.9082 -85.5957 78.9551 -87.5488 76.3184 -87.5488 L 51.1719 -87.5488 C 48.5352 -87.5488 46.6309 -85.5957 46.6309 -82.9102 C 46.6309 -80.2246 48.5352 -78.3203 51.1719 -78.3203 Z M 63.7207 -25.9766 C 75.9277 -26.0742 84.668 -26.5137 89.6484 -27.0996 C 93.1641 -27.4902 95.166 -29.9805 95.166 -33.3984 L 95.166 -46.4355 C 95.166 -55.2734 94.1895 -63.916 93.7012 -66.6016 C 93.2617 -69.5312 91.1621 -71.6309 88.2812 -71.9727 C 83.2031 -72.6074 75.6348 -72.9492 63.7207 -73.0469 C 51.6602 -72.9492 44.1895 -72.6074 39.1113 -71.9727 C 36.2793 -71.6309 34.1797 -69.5312 33.7402 -66.6016 C 33.252 -63.916 32.2754 -55.2734 32.2754 -46.4355 L 32.2754 -33.3984 C 32.2754 -29.9805 34.2773 -27.4902 37.793 -27.0996 C 42.7246 -26.5137 51.416 -26.0742 63.7207 -25.9766 Z M 87.3535 -6.44531 C 91.2109 -6.44531 94.1895 -9.42383 94.1895 -13.3301 C 94.1895 -17.2363 91.2598 -20.2148 87.3535 -20.2148 C 83.4473 -20.2148 80.4688 -17.2363 80.4688 -13.3301 C 80.4688 -9.42383 83.4473 -6.44531 87.3535 -6.44531 Z M 40.0391 -6.49414 C 43.9453 -6.49414 46.9238 -9.42383 46.9238 -13.3301 C 46.9238 -17.2363 43.9941 -20.2148 40.0391 -20.2148 C 36.1816 -20.2148 33.252 -17.2363 33.252 -13.3301 C 33.252 -9.42383 36.1328 -6.49414 40.0391 -6.49414 Z M 41.5039 17.2852 L 44.4824 12.4512 L 81.4941 12.4512 L 84.4727 17.2852 Z"/>
  </g>
  <g id="Bold-M" transform="matrix(1 0 0 1 2278.65 1126)">
   <path d="M 23.2422 31.7871 L 26.9043 31.7871 C 28.8086 31.7871 29.9316 31.1035 30.957 29.4922 L 33.5938 25.2441 L 88.1348 25.2441 L 90.7715 29.4922 C 91.7969 31.1035 92.9199 31.7871 94.873 31.7871 L 97.8516 31.7871 C 101.27 31.7871 103.027 28.3203 101.172 25.3906 L 91.7969 10.2539 C 103.418 9.22852 110.205 1.2207 110.205 -10.8887 L 110.205 -46.2891 C 110.205 -60.2539 109.033 -69.1895 107.324 -77.002 C 104.297 -91.9434 96.582 -99.4629 82.7148 -101.465 C 78.0762 -102.148 70.2148 -102.686 61.3281 -102.686 C 51.9531 -102.686 44.5801 -102.148 39.9414 -101.465 C 26.0742 -99.4629 18.3594 -91.9434 15.332 -77.002 C 13.623 -69.1895 12.4512 -60.4492 12.4512 -46.4844 L 12.4512 -10.8887 C 12.4512 0.878906 18.8965 8.83789 29.9805 10.1562 L 20.2148 25.8301 C 18.6523 28.3691 19.8242 31.7871 23.2422 31.7871 Z M 35.0098 -0.292969 C 27.0508 -0.292969 22.9492 -4.98047 22.9492 -12.1582 L 22.9492 -46.4844 C 22.9492 -60.2539 24.1699 -68.0176 25.7812 -75.7324 C 27.6855 -85.5469 32.5195 -90.0391 41.6992 -91.1621 C 45.8496 -91.6992 52.5391 -92.041 61.3281 -92.041 C 69.6289 -92.041 76.8066 -91.6992 80.957 -91.1621 C 90.0879 -90.0391 94.9707 -85.5469 96.875 -75.7324 C 98.4863 -68.0176 99.707 -60.0098 99.707 -46.2891 L 99.707 -12.1582 C 99.707 -4.98047 95.6055 -0.292969 87.6465 -0.292969 Z M 48.7793 -78.0273 L 73.877 -78.0273 C 76.2207 -78.0273 77.9297 -79.7363 77.9297 -82.0801 C 77.9297 -84.4727 76.2207 -86.1328 73.877 -86.1328 L 48.7793 -86.1328 C 46.4355 -86.1328 44.7754 -84.4727 44.7754 -82.0801 C 44.7754 -79.7363 46.4355 -78.0273 48.7793 -78.0273 Z M 61.3281 -26.6602 C 73.5352 -26.709 82.5195 -27.1973 87.5977 -27.7832 C 90.918 -28.2227 92.627 -30.4688 92.627 -33.6426 L 92.627 -46.0938 C 92.627 -55.2734 91.6016 -63.6719 91.0156 -66.6504 C 90.5762 -69.2871 88.7207 -71.1914 86.084 -71.5332 C 80.9082 -72.168 73.9258 -72.5098 61.3281 -72.6074 C 48.584 -72.5098 41.6992 -72.168 36.4746 -71.5332 C 33.8867 -71.1914 32.0801 -69.2871 31.5918 -66.6504 C 31.0547 -63.6719 29.9805 -55.2734 29.9805 -46.0938 L 29.9805 -33.6426 C 29.9805 -30.4688 31.6895 -28.2227 35.0098 -27.7832 C 40.0879 -27.1973 49.0234 -26.709 61.3281 -26.6602 Z M 84.6191 -6.88477 C 88.4277 -6.88477 91.4062 -9.81445 91.4062 -13.7207 C 91.4062 -17.5781 88.4766 -20.5078 84.6191 -20.5078 C 80.7129 -20.5078 77.7832 -17.5781 77.7832 -13.7207 C 77.7832 -9.81445 80.7129 -6.88477 84.6191 -6.88477 Z M 37.9883 -6.88477 C 41.8457 -6.88477 44.8242 -9.81445 44.8242 -13.7207 C 44.8242 -17.627 41.8945 -20.5078 37.9883 -20.5078 C 34.1309 -20.5078 31.25 -17.627 31.25 -13.7207 C 31.25 -9.81445 34.082 -6.88477 37.9883 -6.88477 Z M 39.6484 15.5273 L 42.8711 10.3516 L 78.9062 10.3516 L 82.1289 15.5273 Z"/>
  </g>
  <g id="Semibold-M" transform="matrix(1 0 0 1 1983.6 1126)">
   <path d="M 23.1934 29.5898 L 26.5137 29.5898 C 28.2227 29.5898 29.248 29.0039 30.127 27.5391 L 32.8613 23.1934 L 85.9863 23.1934 L 88.6719 27.5391 C 89.5996 29.0039 90.625 29.5898 92.334 29.5898 L 95.2148 29.5898 C 98.2422 29.5898 99.707 26.5625 98.0957 23.9746 L 88.7207 8.83789 C 100.146 8.1543 106.885 0.244141 106.885 -11.377 L 106.885 -44.7754 C 106.885 -58.3984 105.518 -68.9941 103.662 -77.1973 C 100.83 -90.4785 93.3105 -97.7539 80.957 -99.4141 C 76.8066 -99.9512 68.7012 -100.537 59.668 -100.537 C 49.9512 -100.537 42.5293 -99.9512 38.3789 -99.4141 C 26.0254 -97.7539 18.5059 -90.4785 15.7227 -77.1973 C 13.8184 -68.9941 12.4512 -58.6914 12.4512 -45.0684 L 12.4512 -11.377 C 12.4512 0.0488281 18.9941 7.91016 30.127 8.83789 L 20.5078 24.2676 C 19.043 26.6113 20.2148 29.5898 23.1934 29.5898 Z M 33.7402 -0.195312 C 25.4883 -0.195312 21.4844 -5.07812 21.4844 -12.207 L 21.4844 -45.0684 C 21.4844 -58.4473 22.8516 -67.9199 24.6094 -75.8789 C 26.5137 -84.9609 31.3965 -89.5508 39.7461 -90.5273 C 43.6035 -91.0156 50.4883 -91.4551 59.668 -91.4551 C 68.1641 -91.4551 75.7812 -91.0156 79.5898 -90.5273 C 87.9395 -89.5508 92.8223 -84.9609 94.7266 -75.8789 C 96.4844 -67.9199 97.8516 -58.1055 97.8516 -44.7754 L 97.8516 -12.207 C 97.8516 -5.07812 93.8477 -0.195312 85.5957 -0.195312 Z M 47.168 -77.8809 L 72.168 -77.8809 C 74.3652 -77.8809 75.8301 -79.3945 75.8301 -81.543 C 75.8301 -83.6914 74.3652 -85.2051 72.168 -85.2051 L 47.168 -85.2051 C 44.9707 -85.2051 43.5059 -83.6914 43.5059 -81.543 C 43.5059 -79.3457 44.9707 -77.8809 47.168 -77.8809 Z M 59.668 -27.1484 C 71.9238 -27.1973 81.0547 -27.6855 86.1816 -28.3203 C 89.3555 -28.6621 90.8691 -30.8105 90.8691 -33.8379 L 90.8691 -45.8496 C 90.8691 -55.2734 89.8438 -63.5254 89.1602 -66.6992 C 88.6719 -69.1406 87.0117 -70.8984 84.5703 -71.1914 C 79.2969 -71.875 72.7539 -72.2168 59.668 -72.2656 C 46.4844 -72.2168 39.9902 -71.875 34.668 -71.1914 C 32.2266 -70.8984 30.6152 -69.1406 30.1758 -66.6992 C 29.4922 -63.5254 28.4668 -55.2734 28.4668 -45.8496 L 28.4668 -33.8379 C 28.4668 -30.8105 29.9316 -28.6621 33.1055 -28.3203 C 38.2812 -27.6855 47.3633 -27.1973 59.668 -27.1484 Z M 82.7148 -7.12891 C 86.5234 -7.12891 89.502 -10.0586 89.502 -13.9648 C 89.502 -17.8223 86.5723 -20.752 82.7148 -20.752 C 78.8574 -20.752 75.8789 -17.8223 75.8789 -13.9648 C 75.8789 -10.0586 78.8574 -7.12891 82.7148 -7.12891 Z M 36.5723 -7.17773 C 40.4297 -7.17773 43.3594 -10.0586 43.3594 -13.9648 C 43.3594 -17.8223 40.4785 -20.7031 36.5723 -20.7031 C 32.7148 -20.7031 29.834 -17.8223 29.834 -13.9648 C 29.834 -10.0586 32.7148 -7.17773 36.5723 -7.17773 Z M 38.3301 14.3555 L 41.6992 8.88672 L 77.0996 8.88672 L 80.5176 14.3555 Z"/>
  </g>
  <g id="Medium-M" transform="matrix(1 0 0 1 1688.13 1126)">
   <path d="M 23.1445 27.9297 L 26.2207 27.9297 C 27.7832 27.9297 28.7109 27.3926 29.541 26.0742 L 32.2754 21.6309 L 84.375 21.6309 L 87.1094 26.0742 C 87.9395 27.3926 88.8184 27.9297 90.3809 27.9297 L 93.2129 27.9297 C 95.8984 27.9297 97.168 25.2441 95.752 22.9492 L 86.377 7.76367 C 97.7051 7.32422 104.395 -0.488281 104.395 -11.7676 L 104.395 -43.6035 C 104.395 -57.0312 102.881 -68.8965 100.83 -77.3926 C 98.1934 -89.4043 90.8691 -96.4355 79.5898 -97.8516 C 75.8789 -98.291 67.5781 -98.9258 58.3984 -98.9258 C 48.4375 -98.9258 40.918 -98.291 37.207 -97.8516 C 25.9766 -96.4355 18.6035 -89.4043 15.9668 -77.3926 C 13.916 -68.8965 12.4512 -57.373 12.4512 -43.9941 L 12.4512 -11.7676 C 12.4512 -0.537109 19.043 7.22656 30.2246 7.76367 L 20.7031 23.0957 C 19.3359 25.293 20.5078 27.9297 23.1445 27.9297 Z M 32.7637 -0.0976562 C 24.3164 -0.0976562 20.3125 -5.12695 20.3125 -12.2559 L 20.3125 -43.9941 C 20.3125 -57.0312 21.8262 -67.8223 23.7305 -75.9766 C 25.5859 -84.4727 30.5176 -89.1602 38.2812 -90.0391 C 41.8945 -90.4785 48.9258 -90.9668 58.3984 -90.9668 C 67.0898 -90.9668 74.9512 -90.4785 78.5645 -90.0391 C 86.3281 -89.1602 91.2598 -84.4727 93.1152 -75.9766 C 95.0195 -67.8223 96.4844 -56.6895 96.4844 -43.6035 L 96.4844 -12.2559 C 96.4844 -5.12695 92.5293 -0.0976562 84.082 -0.0976562 Z M 45.8984 -77.7344 L 70.8984 -77.7344 C 72.9492 -77.7344 74.2676 -79.1016 74.2676 -81.1035 C 74.2676 -83.1055 72.9492 -84.4727 70.8984 -84.4727 L 45.8984 -84.4727 C 43.8965 -84.4727 42.5781 -83.1055 42.5781 -81.1035 C 42.5781 -79.1016 43.8965 -77.7344 45.8984 -77.7344 Z M 58.3984 -27.4902 C 70.6543 -27.5391 79.9316 -28.0273 85.1074 -28.6621 C 88.1836 -29.0527 89.5508 -31.1035 89.5508 -33.9844 L 89.5508 -45.6543 C 89.5508 -55.2734 88.4766 -63.3789 87.7441 -66.6992 C 87.2559 -69.043 85.7422 -70.7031 83.3984 -70.9961 C 78.0762 -71.6309 71.875 -71.9727 58.3984 -72.0215 C 44.9219 -71.9727 38.7207 -71.6309 33.3008 -70.9473 C 31.0059 -70.7031 29.541 -69.043 29.0527 -66.6992 C 28.3203 -63.3789 27.2949 -55.2734 27.2949 -45.6543 L 27.2949 -33.9844 C 27.2949 -31.1035 28.6133 -29.0527 31.6895 -28.6621 C 36.8652 -28.0273 46.1426 -27.5391 58.3984 -27.4902 Z M 81.2988 -7.37305 C 85.0586 -7.37305 88.0371 -10.3027 88.0371 -14.1602 C 88.0371 -17.9688 85.1074 -20.8984 81.2988 -20.8984 C 77.3926 -20.8984 74.4629 -17.9688 74.4629 -14.1602 C 74.4629 -10.3027 77.3926 -7.37305 81.2988 -7.37305 Z M 35.498 -7.42188 C 39.3066 -7.42188 42.2363 -10.2539 42.2363 -14.1602 C 42.2363 -18.0176 39.4043 -20.8496 35.498 -20.8496 C 31.6406 -20.8496 28.8086 -18.0176 28.8086 -14.1602 C 28.8086 -10.2539 31.6406 -7.42188 35.498 -7.42188 Z M 37.3535 13.4766 L 40.8691 7.8125 L 75.7812 7.8125 L 79.248 13.4766 Z"/>
  </g>
  <g id="Regular-M" transform="matrix(1 0 0 1 1393.06 1126)">
   <path d="M 23.1445 25.7812 L 25.8789 25.7812 C 27.1973 25.7812 27.9785 25.293 28.7109 24.1211 L 31.543 19.6289 L 82.2266 19.6289 L 85.0098 24.1211 C 85.7422 25.293 86.5234 25.7812 87.8906 25.7812 L 90.625 25.7812 C 92.8711 25.7812 93.8965 23.5352 92.6758 21.5332 L 83.3008 6.34766 C 94.3848 6.34766 101.123 -1.36719 101.123 -12.3047 L 101.123 -42.1387 C 101.123 -55.2246 99.4141 -68.7012 97.2168 -77.5879 C 94.7754 -87.9395 87.5977 -94.7266 77.8809 -95.8008 C 74.6582 -96.1426 66.1133 -96.7773 56.7871 -96.7773 C 46.4844 -96.7773 38.8672 -96.1426 35.6934 -95.8008 C 25.9277 -94.7266 18.7988 -87.9395 16.3574 -77.5879 C 14.1113 -68.7012 12.4512 -55.6641 12.4512 -42.5781 L 12.4512 -12.3047 C 12.4512 -1.36719 19.1406 6.34766 30.3711 6.34766 L 20.9473 21.5332 C 19.6777 23.584 20.8496 25.7812 23.1445 25.7812 Z M 31.4941 -0.0488281 C 22.7539 -0.0488281 18.8477 -5.17578 18.8477 -12.3047 L 18.8477 -42.5781 C 18.8477 -55.2246 20.5078 -67.7246 22.5586 -76.1719 C 24.4141 -83.8867 29.3945 -88.6719 36.3281 -89.4043 C 39.6484 -89.7949 46.9238 -90.3809 56.7871 -90.3809 C 65.6738 -90.3809 73.877 -89.7949 77.1973 -89.4043 C 84.1797 -88.6719 89.1602 -83.8867 91.0156 -76.1719 C 93.0664 -67.7246 94.7266 -54.7852 94.7266 -42.1387 L 94.7266 -12.3047 C 94.7266 -5.17578 90.8203 -0.0488281 82.0312 -0.0488281 Z M 44.2871 -77.5391 L 69.2383 -77.5391 C 71.0938 -77.5391 72.2656 -78.7598 72.2656 -80.5664 C 72.2656 -82.373 71.0938 -83.4961 69.2383 -83.4961 L 44.2871 -83.4961 C 42.4805 -83.4961 41.3086 -82.373 41.3086 -80.5664 C 41.3086 -78.7598 42.4805 -77.5391 44.2871 -77.5391 Z M 56.7871 -27.9297 C 69.043 -28.0273 78.4668 -28.5156 83.7402 -29.1504 C 86.6699 -29.541 87.793 -31.4453 87.793 -34.1797 L 87.793 -45.4102 C 87.793 -55.2734 86.7188 -63.2324 85.9375 -66.6992 C 85.4492 -68.8477 84.082 -70.4102 81.8848 -70.6543 C 76.5137 -71.3379 70.7031 -71.6797 56.7871 -71.7285 C 42.8223 -71.6797 37.0117 -71.3379 31.4941 -70.6543 C 29.3945 -70.4102 28.0762 -68.8477 27.5879 -66.6992 C 26.8066 -63.2324 25.7324 -55.2734 25.7324 -45.4102 L 25.7324 -34.1797 C 25.7324 -31.4453 26.8555 -29.541 29.7852 -29.1504 C 35.0586 -28.5156 44.4824 -28.0273 56.7871 -27.9297 Z M 79.3945 -7.61719 C 83.1543 -7.61719 86.1328 -10.5469 86.1328 -14.4043 C 86.1328 -18.2129 83.2031 -21.0938 79.3945 -21.0938 C 75.5371 -21.0938 72.6074 -18.2129 72.6074 -14.4043 C 72.6074 -10.5469 75.5371 -7.61719 79.3945 -7.61719 Z M 34.082 -7.66602 C 37.8906 -7.66602 40.8203 -10.498 40.8203 -14.4043 C 40.8203 -18.2617 37.9883 -21.0449 34.082 -21.0449 C 30.2246 -21.0449 27.4414 -18.2617 27.4414 -14.4043 C 27.4414 -10.498 30.2246 -7.66602 34.082 -7.66602 Z M 36.084 12.3047 L 39.7461 6.34766 L 74.0234 6.34766 L 77.6855 12.3047 Z"/>
  </g>
  <g id="Light-M" transform="matrix(1 0 0 1 1097.47 1126)">
   <path d="M 22.2168 24.707 L 24.6582 24.707 C 25.8301 24.707 26.4648 24.3164 27.0996 23.291 L 29.8828 18.8477 L 81.4941 18.8477 L 84.2773 23.291 C 84.9121 24.3164 85.5469 24.707 86.7676 24.707 L 89.1602 24.707 C 91.1133 24.707 91.8945 22.8516 90.8691 21.1914 L 81.6406 6.29883 C 93.0176 6.10352 98.877 -1.5625 98.877 -11.6211 L 98.877 -41.748 C 98.877 -56.0059 96.8262 -70.1172 94.6289 -78.5156 C 92.4316 -87.5488 85.9863 -93.457 77.3438 -94.4336 C 73.3887 -94.873 64.9902 -95.5078 55.6641 -95.5078 C 45.7031 -95.5078 37.8906 -94.873 33.9355 -94.4336 C 25.293 -93.457 18.8965 -87.5488 16.6504 -78.5156 C 14.502 -70.1172 12.4512 -56.2988 12.4512 -42.041 L 12.4512 -11.6211 C 12.4512 -1.51367 18.3105 6.15234 29.7363 6.29883 L 20.459 21.1914 C 19.3848 22.9004 20.3125 24.707 22.2168 24.707 Z M 30.8105 1.2207 C 21.3379 1.2207 17.5293 -4.44336 17.5293 -11.6211 L 17.5293 -42.041 C 17.5293 -56.0547 19.6777 -69.5312 21.6797 -77.4414 C 23.3398 -84.3262 27.9785 -88.623 34.4727 -89.4043 C 38.8672 -89.9902 46.3379 -90.4297 55.6641 -90.4297 C 64.3066 -90.4297 72.4609 -89.9902 76.8066 -89.4043 C 83.3008 -88.623 87.9883 -84.3262 89.6484 -77.4414 C 91.6016 -69.5312 93.7988 -55.7617 93.7988 -41.748 L 93.7988 -11.6211 C 93.7988 -4.44336 89.9902 1.2207 80.4688 1.2207 Z M 42.9199 -77.7344 L 68.3594 -77.7344 C 69.9707 -77.7344 70.9961 -78.8086 70.9961 -80.3711 C 70.9961 -81.9336 69.9707 -82.959 68.3594 -82.959 L 42.9199 -82.959 C 41.3086 -82.959 40.332 -81.9336 40.332 -80.3711 C 40.332 -78.8086 41.3086 -77.7344 42.9199 -77.7344 Z M 55.6641 -26.4648 C 67.041 -26.5137 75.9277 -26.9531 81.543 -27.5879 C 84.668 -27.9297 86.084 -29.9316 86.084 -32.9102 L 86.084 -44.5312 C 86.084 -53.8086 85.1074 -61.6211 84.1797 -66.1133 C 83.6914 -68.5059 82.0801 -70.166 79.5898 -70.459 C 74.2676 -71.0449 67.9688 -71.4355 55.6641 -71.4355 C 43.2617 -71.4355 36.9629 -71.0449 31.3477 -70.4102 C 29.0527 -70.166 27.5879 -68.5059 27.0508 -66.1133 C 26.123 -61.6211 25.1465 -53.8086 25.1465 -44.5312 L 25.1465 -32.9102 C 25.1465 -29.9316 26.5625 -27.9297 29.6875 -27.5879 C 35.3027 -26.9531 44.1895 -26.5137 55.6641 -26.4648 Z M 78.418 -7.12891 C 81.9336 -7.12891 84.7656 -9.86328 84.7656 -13.5254 C 84.7656 -17.0898 82.0312 -19.8242 78.418 -19.8242 C 74.8047 -19.8242 72.0215 -17.0898 72.0215 -13.5254 C 72.0215 -9.86328 74.8047 -7.12891 78.418 -7.12891 Z M 32.8613 -7.17773 C 36.4746 -7.17773 39.209 -9.86328 39.209 -13.5254 C 39.209 -17.1387 36.5234 -19.7754 32.8613 -19.7754 C 29.248 -19.7754 26.6113 -17.1387 26.6113 -13.5254 C 26.6113 -9.86328 29.248 -7.17773 32.8613 -7.17773 Z M 33.8379 12.5 L 37.6953 6.29883 L 73.7305 6.29883 L 77.5879 12.5 Z"/>
  </g>
  <g id="Thin-M" transform="matrix(1 0 0 1 802.272 1126)">
   <path d="M 21.0449 23.291 L 23.0469 23.291 C 24.0234 23.291 24.4629 22.998 25 22.2168 L 27.7344 17.7734 L 80.5664 17.7734 L 83.3496 22.2168 C 83.8379 22.998 84.2773 23.291 85.2539 23.291 L 87.2559 23.291 C 88.7207 23.291 89.3066 21.9727 88.4766 20.752 L 79.4434 6.15234 C 91.1133 5.95703 95.8496 -1.70898 95.8496 -10.7422 L 95.8496 -41.2598 C 95.8496 -57.0312 93.3594 -72.0215 91.2109 -79.7363 C 89.2578 -87.0117 83.8867 -91.7969 76.709 -92.627 C 71.7285 -93.2617 63.4766 -93.8477 54.1504 -93.8477 C 44.6777 -93.8477 36.6211 -93.2617 31.6406 -92.627 C 24.4629 -91.7969 19.043 -87.0117 17.0898 -79.7363 C 14.9902 -72.0215 12.4512 -57.1289 12.4512 -41.3574 L 12.4512 -10.7422 C 12.4512 -1.70898 17.1875 5.9082 28.8574 6.15234 L 19.8242 20.752 C 18.9941 22.0215 19.5801 23.291 21.0449 23.291 Z M 29.8828 2.83203 C 19.4336 2.83203 15.7715 -3.41797 15.7715 -10.7422 L 15.7715 -41.3574 C 15.7715 -57.1289 18.6523 -71.875 20.5078 -79.1992 C 21.9238 -84.8633 26.1719 -88.623 31.9824 -89.4043 C 37.793 -90.2344 45.6543 -90.5273 54.1504 -90.5273 C 62.5 -90.5273 70.5078 -90.2344 76.3184 -89.4043 C 82.1777 -88.623 86.4258 -84.8633 87.8418 -79.1992 C 89.6973 -71.875 92.5781 -57.0312 92.5781 -41.2598 L 92.5781 -10.7422 C 92.5781 -3.41797 88.8672 2.83203 78.418 2.83203 Z M 41.1133 -78.0273 L 67.2363 -78.0273 C 68.5547 -78.0273 69.3359 -78.9062 69.3359 -80.1758 C 69.3359 -81.3965 68.5547 -82.2754 67.2363 -82.2754 L 41.1133 -82.2754 C 39.7949 -82.2754 39.0137 -81.3965 39.0137 -80.1758 C 39.0137 -78.9062 39.7949 -78.0273 41.1133 -78.0273 Z M 54.1504 -24.5117 C 64.4043 -24.6094 72.6074 -24.9512 78.6621 -25.4883 C 81.9824 -25.7812 83.8867 -27.9785 83.8867 -31.25 L 83.8867 -43.4082 C 83.8867 -51.8555 82.959 -59.5215 81.8359 -65.2344 C 81.3477 -68.0176 79.3945 -69.873 76.5625 -70.166 C 71.2891 -70.7031 64.3555 -71.0938 54.1504 -71.0938 C 43.8477 -71.0938 36.9141 -70.7031 31.1035 -70.1172 C 28.6133 -69.873 26.8555 -68.0176 26.3672 -65.2344 C 25.2441 -59.5215 24.3652 -51.8555 24.3652 -43.4082 L 24.3652 -31.25 C 24.3652 -27.9785 26.2207 -25.7812 29.541 -25.4883 C 35.5957 -24.9512 43.7988 -24.6094 54.1504 -24.5117 Z M 77.1484 -6.49414 C 80.3711 -6.49414 82.9102 -8.98438 82.9102 -12.3047 C 82.9102 -15.625 80.4199 -18.1152 77.1484 -18.1152 C 73.8281 -18.1152 71.2891 -15.625 71.2891 -12.3047 C 71.2891 -8.98438 73.8281 -6.49414 77.1484 -6.49414 Z M 31.2988 -6.54297 C 34.5703 -6.54297 37.1094 -8.98438 37.1094 -12.3047 C 37.1094 -15.625 34.6191 -18.1152 31.2988 -18.1152 C 27.9785 -18.1152 25.4883 -15.625 25.4883 -12.3047 C 25.4883 -8.98438 27.9785 -6.54297 31.2988 -6.54297 Z M 30.8594 12.793 L 34.9609 6.15234 L 73.3398 6.15234 L 77.4414 12.793 Z"/>
  </g>
  <g id="Ultralight-M" transform="matrix(1 0 0 1 506.318 1126)">
   <path d="M 20.459 22.5586 L 22.2168 22.5586 C 23.0957 22.5586 23.4375 22.3145 23.877 21.6797 L 26.6602 17.2363 L 80.0781 17.2363 L 82.8613 21.6797 C 83.252 22.3145 83.6426 22.5586 84.5215 22.5586 L 86.2793 22.5586 C 87.5 22.5586 87.9395 21.5332 87.2559 20.5078 L 78.3203 6.10352 C 90.1367 5.85938 94.3359 -1.75781 94.3359 -10.3027 L 94.3359 -41.0156 C 94.3359 -57.5684 91.6016 -72.998 89.4531 -80.3711 C 87.6465 -86.7188 82.8125 -90.918 76.3672 -91.6992 C 70.8496 -92.3828 62.6953 -92.9688 53.418 -92.9688 C 44.1406 -92.9688 35.9375 -92.3828 30.4199 -91.6992 C 24.0234 -90.918 19.1406 -86.7188 17.334 -80.3711 C 15.2344 -72.998 12.4512 -57.5684 12.4512 -41.0156 L 12.4512 -10.3027 C 12.4512 -1.75781 16.6504 5.81055 28.418 6.10352 L 19.4824 20.5078 C 18.7988 21.5332 19.2383 22.5586 20.459 22.5586 Z M 29.4434 3.71094 C 18.457 3.71094 14.8926 -2.92969 14.8926 -10.3027 L 14.8926 -41.0156 C 14.8926 -57.666 18.0664 -73.0469 19.873 -80.0781 C 21.1914 -85.1562 25.1953 -88.623 30.7129 -89.4043 C 37.2559 -90.3809 45.2637 -90.5273 53.418 -90.5273 C 61.5723 -90.5273 69.5312 -90.3809 76.0742 -89.4043 C 81.5918 -88.623 85.5957 -85.1562 86.9141 -80.0781 C 88.7207 -73.0469 91.9434 -57.666 91.9434 -41.0156 L 91.9434 -10.3027 C 91.9434 -2.92969 88.3301 3.71094 77.3926 3.71094 Z M 40.1855 -78.1738 L 66.6016 -78.1738 C 67.7734 -78.1738 68.457 -78.9551 68.457 -80.0781 C 68.457 -81.1035 67.7734 -81.9336 66.6016 -81.9336 L 40.1855 -81.9336 C 39.0137 -81.9336 38.3301 -81.1035 38.3301 -80.0781 C 38.3301 -78.9551 39.0137 -78.1738 40.1855 -78.1738 Z M 53.418 -23.5352 C 63.0859 -23.584 70.8984 -23.877 77.1973 -24.4141 C 80.6641 -24.707 82.7148 -26.9531 82.7148 -30.3711 L 82.7148 -42.8223 C 82.7148 -50.8789 81.8359 -58.3984 80.6641 -64.8438 C 80.1758 -67.7734 78.0273 -69.7266 75 -70.0195 C 69.7754 -70.5078 62.5488 -70.8984 53.418 -70.8984 C 44.1406 -70.8984 36.8652 -70.5078 31.0059 -69.9707 C 28.3691 -69.7266 26.5137 -67.7734 26.0254 -64.8438 C 24.8047 -58.3984 23.9258 -50.8789 23.9258 -42.8223 L 23.9258 -30.3711 C 23.9258 -26.9531 26.0254 -24.707 29.4434 -24.4141 C 35.791 -23.877 43.6035 -23.584 53.418 -23.5352 Z M 30.4688 -6.20117 C 33.6426 -6.20117 36.0352 -8.54492 36.0352 -11.7188 C 36.0352 -14.8926 33.6426 -17.2363 30.4688 -17.2363 C 27.2949 -17.2363 24.9512 -14.8926 24.9512 -11.7188 C 24.9512 -8.54492 27.2949 -6.20117 30.4688 -6.20117 Z M 76.4648 -6.20117 C 79.5898 -6.20117 81.9824 -8.54492 81.9824 -11.7188 C 81.9824 -14.8926 79.6387 -17.2363 76.4648 -17.2363 C 73.291 -17.2363 70.8984 -14.8926 70.8984 -11.7188 C 70.8984 -8.54492 73.291 -6.20117 76.4648 -6.20117 Z M 29.3457 12.9395 L 33.5938 6.10352 L 73.1445 6.10352 L 77.3926 12.9395 Z"/>
  </g>
  <g id="Black-S" transform="matrix(1 0 0 1 2881.94 696)">
   <path d="M 18.3105 21.7773 L 21.875 21.7773 C 23.7793 21.7773 24.9512 21.0938 25.9766 19.4824 L 27.9297 16.3574 L 73.4863 16.3574 L 75.4395 19.4824 C 76.4648 21.0938 77.6367 21.7773 79.541 21.7773 L 82.1289 21.7773 C 85.6445 21.7773 87.5488 18.1641 85.6445 15.1367 L 78.2227 3.22266 C 87.6465 1.9043 93.1641 -4.73633 93.1641 -15.1367 L 93.1641 -46.9727 C 93.1641 -58.5449 92.627 -62.1582 91.6504 -67.4805 C 88.8672 -82.6172 82.4219 -89.1113 68.457 -91.4062 C 63.7207 -92.1875 58.1055 -92.4805 51.4648 -92.4805 C 44.8242 -92.4805 39.209 -92.1875 34.4727 -91.4062 C 20.5078 -89.1113 14.0625 -82.6172 11.2793 -67.4805 C 10.3027 -62.1582 9.76562 -58.5449 9.76562 -46.9727 L 9.76562 -15.1367 C 9.76562 -5.27344 14.7461 1.2207 23.3398 2.97852 L 15.332 15.8203 C 13.8672 18.1641 14.7949 21.7773 18.3105 21.7773 Z M 30.0293 -8.05664 C 24.4141 -8.05664 21.0938 -11.4258 21.0938 -17.0898 L 21.0938 -46.9727 C 21.0938 -58.5449 21.6797 -61.084 22.6074 -66.6016 C 24.1699 -75.8789 27.8809 -79.1992 36.6699 -80.3711 C 40.5273 -80.8594 45.4102 -80.957 51.4648 -80.957 C 57.5195 -80.957 62.4023 -80.8594 66.2598 -80.3711 C 75.0488 -79.1992 78.7598 -75.8789 80.3223 -66.6016 C 81.25 -61.084 81.8359 -58.5449 81.8359 -46.9727 L 81.8359 -17.0898 C 81.8359 -11.4258 78.5156 -8.05664 72.9004 -8.05664 Z M 41.6016 -69.1406 L 61.3281 -69.1406 C 63.5742 -69.1406 65.2832 -70.8496 65.2832 -73.0957 C 65.2832 -75.3906 63.5742 -77.0996 61.3281 -77.0996 L 41.6016 -77.0996 C 39.3555 -77.0996 37.6953 -75.3906 37.6953 -73.0957 C 37.6953 -70.8008 39.3555 -69.1406 41.6016 -69.1406 Z M 51.4648 -27.5879 C 61.0352 -27.6367 67.7246 -27.9785 71.582 -28.418 C 74.4629 -28.7598 76.2207 -30.8105 76.2207 -33.6426 L 76.2207 -44.2383 C 76.2207 -50.9766 75.4395 -57.8613 75.1465 -59.8145 C 74.8047 -62.2559 72.998 -64.0137 70.6055 -64.3066 C 66.6992 -64.7949 60.4004 -65.0391 51.4648 -65.1367 C 42.3828 -65.0391 36.1816 -64.7949 32.3242 -64.3066 C 29.9316 -64.0137 28.125 -62.2559 27.7832 -59.8145 C 27.4902 -57.8613 26.709 -50.9766 26.709 -44.2383 L 26.709 -33.6426 C 26.709 -30.8105 28.4668 -28.7598 31.3477 -28.418 C 35.1562 -27.9785 41.7969 -27.6367 51.4648 -27.5879 Z M 32.7148 -12.4512 C 35.791 -12.4512 38.1348 -14.7949 38.1348 -17.8711 C 38.1348 -20.9473 35.791 -23.291 32.7148 -23.291 C 29.6875 -23.291 27.3438 -20.9473 27.3438 -17.8711 C 27.3438 -14.7949 29.6387 -12.4512 32.7148 -12.4512 Z M 70.2148 -12.4512 C 73.2422 -12.4512 75.5859 -14.7949 75.5859 -17.8711 C 75.5859 -20.9473 73.291 -23.291 70.2148 -23.291 C 67.1387 -23.291 64.7949 -20.9473 64.7949 -17.8711 C 64.7949 -14.7949 67.1387 -12.4512 70.2148 -12.4512 Z M 33.7402 6.98242 L 35.9375 3.4668 L 65.4785 3.4668 L 67.6758 6.98242 Z"/>
  </g>
  <g id="Heavy-S" transform="matrix(1 0 0 1 2586.74 696)">
   <path d="M 18.3594 19.7266 L 21.6309 19.7266 C 23.3398 19.7266 24.4141 19.0918 25.3418 17.627 L 27.3438 14.4043 L 71.4355 14.4043 L 73.4375 17.627 C 74.3652 19.0918 75.4395 19.7266 77.1484 19.7266 L 79.6875 19.7266 C 82.8125 19.7266 84.4727 16.5039 82.7637 13.7695 L 75.3906 1.85547 C 84.6191 0.78125 90.1367 -5.66406 90.1367 -15.7227 L 90.1367 -45.5078 C 90.1367 -56.6406 89.4531 -61.8164 88.2812 -67.5781 C 85.6934 -81.25 79.3457 -87.5488 66.748 -89.502 C 62.6465 -90.1367 56.7383 -90.4785 49.9512 -90.4785 C 42.9199 -90.4785 37.2559 -90.1367 33.1543 -89.502 C 20.5566 -87.5488 14.209 -81.25 11.6211 -67.5781 C 10.4492 -61.8164 9.76562 -56.7383 9.76562 -45.6055 L 9.76562 -15.7227 C 9.76562 -6.05469 14.8438 0.292969 23.4863 1.70898 L 15.625 14.3066 C 14.2578 16.5039 15.2344 19.7266 18.3594 19.7266 Z M 28.8574 -8.10547 C 23.0469 -8.10547 19.7754 -11.5723 19.7754 -17.1875 L 19.7754 -45.6055 C 19.7754 -56.6406 20.459 -60.791 21.5332 -66.6016 C 23.0957 -75.2441 26.9043 -78.7109 34.9609 -79.7363 C 38.3789 -80.1758 43.4082 -80.3711 49.9512 -80.3711 C 56.25 -80.3711 61.5234 -80.1758 64.9414 -79.7363 C 72.998 -78.7109 76.8066 -75.2441 78.3691 -66.6016 C 79.4434 -60.791 80.127 -56.543 80.127 -45.5078 L 80.127 -17.1875 C 80.127 -11.5723 76.8555 -8.10547 71.0449 -8.10547 Z M 40.1367 -68.9453 L 59.7656 -68.9453 C 61.8164 -68.9453 63.3789 -70.459 63.3789 -72.5586 C 63.3789 -74.6582 61.8164 -76.2207 59.7656 -76.2207 L 40.1367 -76.2207 C 38.0371 -76.2207 36.5723 -74.6582 36.5723 -72.5586 C 36.5723 -70.459 38.0371 -68.9453 40.1367 -68.9453 Z M 49.9512 -28.2227 C 59.6191 -28.2715 66.5527 -28.6133 70.4102 -29.1016 C 73.1445 -29.3945 74.6582 -31.2988 74.6582 -33.9844 L 74.6582 -44.0918 C 74.6582 -51.123 73.877 -57.8613 73.4863 -59.9121 C 73.1445 -62.1582 71.5332 -63.7695 69.3359 -64.0137 C 65.3809 -64.502 59.5215 -64.7949 49.9512 -64.8438 C 40.2344 -64.7949 34.5215 -64.502 30.5664 -64.0137 C 28.3203 -63.7695 26.7578 -62.1582 26.416 -59.9121 C 26.0254 -57.8613 25.2441 -51.123 25.2441 -44.0918 L 25.2441 -33.9844 C 25.2441 -31.2988 26.7578 -29.3945 29.4922 -29.1016 C 33.3008 -28.6133 40.1855 -28.2715 49.9512 -28.2227 Z M 68.457 -12.793 C 71.4844 -12.793 73.8281 -15.1367 73.8281 -18.2129 C 73.8281 -21.2891 71.5332 -23.6328 68.457 -23.6328 C 65.332 -23.6328 62.9883 -21.2891 62.9883 -18.2129 C 62.9883 -15.1367 65.332 -12.793 68.457 -12.793 Z M 31.4453 -12.793 C 34.5215 -12.793 36.8652 -15.1367 36.8652 -18.2129 C 36.8652 -21.2891 34.5215 -23.6328 31.4453 -23.6328 C 28.3691 -23.6328 26.0742 -21.2891 26.0742 -18.2129 C 26.0742 -15.1367 28.3691 -12.793 31.4453 -12.793 Z M 32.7148 5.76172 L 35.0586 2.05078 L 63.7207 2.05078 L 66.0645 5.76172 Z"/>
  </g>
  <g id="Bold-S" transform="matrix(1 0 0 1 2291.74 696)">
   <path d="M 18.457 17.4316 L 21.3867 17.4316 C 22.9004 17.4316 23.8281 16.8945 24.6094 15.5762 L 26.709 12.2559 L 69.1406 12.2559 L 71.1914 15.5762 C 72.0215 16.8945 72.9492 17.4316 74.4629 17.4316 L 76.9043 17.4316 C 79.6387 17.4316 81.0547 14.6484 79.5898 12.2559 L 72.168 0.341797 C 81.25 -0.439453 86.7188 -6.73828 86.7188 -16.3574 L 86.7188 -43.8965 C 86.7188 -54.541 85.8887 -61.4746 84.5215 -67.7246 C 82.1289 -79.6875 75.9277 -85.791 64.8438 -87.3535 C 61.4258 -87.8906 55.2246 -88.2812 48.2422 -88.2812 C 40.8203 -88.2812 35.0586 -87.8906 31.6406 -87.3535 C 20.5566 -85.791 14.3555 -79.6875 11.9629 -67.7246 C 10.5957 -61.4746 9.76562 -54.7363 9.76562 -44.0918 L 9.76562 -16.3574 C 9.76562 -6.93359 14.9902 -0.732422 23.6816 0.292969 L 16.0156 12.5977 C 14.7461 14.6484 15.7227 17.4316 18.457 17.4316 Z M 27.5391 -8.1543 C 21.4844 -8.1543 18.2617 -11.7188 18.2617 -17.334 L 18.2617 -44.0918 C 18.2617 -54.541 19.0918 -60.4492 20.3613 -66.6504 C 21.9238 -74.5117 25.7812 -78.125 33.0566 -79.0527 C 35.9863 -79.3945 41.2109 -79.6875 48.2422 -79.6875 C 54.834 -79.6875 60.498 -79.3945 63.4766 -79.0527 C 70.7031 -78.125 74.6094 -74.5117 76.123 -66.6504 C 77.4414 -60.4492 78.2715 -54.3457 78.2715 -43.8965 L 78.2715 -17.334 C 78.2715 -11.7188 75.0488 -8.1543 68.9941 -8.1543 Z M 38.4766 -68.7012 L 58.0078 -68.7012 C 59.9121 -68.7012 61.2793 -70.0684 61.2793 -71.9727 C 61.2793 -73.877 59.9121 -75.1953 58.0078 -75.1953 L 38.4766 -75.1953 C 36.6211 -75.1953 35.2539 -73.877 35.2539 -71.9727 C 35.2539 -70.0684 36.6211 -68.7012 38.4766 -68.7012 Z M 48.2422 -28.9062 C 58.0566 -28.9551 65.2344 -29.3457 69.1406 -29.834 C 71.6797 -30.127 72.9004 -31.8848 72.9004 -34.3262 L 72.9004 -43.9453 C 72.9004 -51.3184 72.0703 -57.9102 71.6797 -60.0098 C 71.2891 -62.0117 69.9219 -63.4766 67.9199 -63.7207 C 63.8672 -64.209 58.5449 -64.502 48.2422 -64.5508 C 37.8906 -64.502 32.6172 -64.209 28.5645 -63.7207 C 26.5625 -63.4766 25.1953 -62.0117 24.8535 -60.0098 C 24.4141 -57.9102 23.584 -51.3184 23.584 -43.9453 L 23.584 -34.3262 C 23.584 -31.8848 24.8535 -30.127 27.3926 -29.834 C 31.25 -29.3457 38.4277 -28.9551 48.2422 -28.9062 Z M 66.4551 -13.1348 C 69.4824 -13.1348 71.875 -15.4785 71.875 -18.6035 C 71.875 -21.6797 69.5312 -24.0234 66.4551 -24.0234 C 63.3301 -24.0234 60.9863 -21.6797 60.9863 -18.6035 C 60.9863 -15.4785 63.3301 -13.1348 66.4551 -13.1348 Z M 30.0293 -13.1836 C 33.1055 -13.1836 35.4492 -15.4785 35.4492 -18.6035 C 35.4492 -21.7285 33.1543 -24.0234 30.0293 -24.0234 C 26.9043 -24.0234 24.6094 -21.7285 24.6094 -18.6035 C 24.6094 -15.4785 26.9043 -13.1836 30.0293 -13.1836 Z M 31.543 4.44336 L 34.0332 0.439453 L 61.8164 0.439453 L 64.3066 4.44336 Z"/>
  </g>
  <g id="Semibold-S" transform="matrix(1 0 0 1 1996.17 696)">
   <path d="M 18.5059 15.8203 L 21.1914 15.8203 C 22.5586 15.8203 23.3887 15.3809 24.1211 14.1602 L 26.2695 10.7422 L 67.5293 10.7422 L 69.6777 14.1602 C 70.4102 15.3809 71.2402 15.8203 72.6074 15.8203 L 75 15.8203 C 77.4414 15.8203 78.6621 13.3789 77.3438 11.2305 L 69.9707 -0.732422 C 78.8574 -1.2207 84.4238 -7.42188 84.4238 -16.7969 L 84.4238 -42.7734 C 84.4238 -53.0762 83.4473 -61.2305 81.9336 -67.8223 C 79.6875 -78.6133 73.584 -84.5703 63.5254 -85.8887 C 60.5957 -86.2793 54.1992 -86.7676 47.0703 -86.7676 C 39.3555 -86.7676 33.5938 -86.2793 30.6152 -85.8887 C 20.6055 -84.5703 14.4531 -78.6133 12.207 -67.8223 C 10.6934 -61.2305 9.76562 -53.3691 9.76562 -43.0664 L 9.76562 -16.7969 C 9.76562 -7.56836 15.1367 -1.41602 23.8281 -0.732422 L 16.2598 11.4746 C 15.0391 13.3789 16.0156 15.8203 18.5059 15.8203 Z M 26.6113 -8.20312 C 20.4102 -8.20312 17.2363 -11.8652 17.2363 -17.4316 L 17.2363 -43.0664 C 17.2363 -53.0762 18.1152 -60.2539 19.5312 -66.6504 C 21.0938 -74.0234 25.0488 -77.7832 31.6895 -78.5156 C 34.3262 -78.8574 39.6973 -79.248 47.0703 -79.248 C 53.8574 -79.248 59.8145 -78.8574 62.4512 -78.5156 C 69.1406 -77.7832 73.0957 -74.0234 74.6094 -66.6504 C 76.0254 -60.2539 76.9531 -52.7832 76.9531 -42.7734 L 76.9531 -17.4316 C 76.9531 -11.8652 73.7793 -8.20312 67.5293 -8.20312 Z M 37.3535 -68.5547 L 56.7871 -68.5547 C 58.5449 -68.5547 59.7656 -69.7754 59.7656 -71.5332 C 59.7656 -73.3398 58.5449 -74.5117 56.7871 -74.5117 L 37.3535 -74.5117 C 35.5957 -74.5117 34.375 -73.3398 34.375 -71.5332 C 34.375 -69.7754 35.5957 -68.5547 37.3535 -68.5547 Z M 47.0703 -29.3945 C 56.9824 -29.4434 64.3066 -29.834 68.2129 -30.3711 C 70.6543 -30.6641 71.7285 -32.2754 71.7285 -34.5703 L 71.7285 -43.7988 C 71.7285 -51.416 70.8496 -57.9102 70.4102 -60.0586 C 70.0195 -61.9141 68.7988 -63.2324 66.9434 -63.4766 C 62.8418 -64.0137 57.8613 -64.2578 47.0703 -64.3555 C 36.2305 -64.2578 31.2988 -64.0137 27.1973 -63.4766 C 25.3418 -63.2324 24.1211 -61.9141 23.7793 -60.0586 C 23.291 -57.9102 22.4609 -51.416 22.4609 -43.7988 L 22.4609 -34.5703 C 22.4609 -32.2754 23.4863 -30.6641 25.9277 -30.3711 C 29.834 -29.834 37.1582 -29.4434 47.0703 -29.3945 Z M 65.0879 -13.3789 C 68.1152 -13.3789 70.5078 -15.7715 70.5078 -18.8965 C 70.5078 -21.9727 68.1641 -24.3164 65.0879 -24.3164 C 61.9629 -24.3164 59.6191 -21.9727 59.6191 -18.8965 C 59.6191 -15.7715 61.9629 -13.3789 65.0879 -13.3789 Z M 29.0039 -13.4277 C 32.1289 -13.4277 34.4727 -15.7227 34.4727 -18.8965 C 34.4727 -21.9727 32.1777 -24.2676 29.0039 -24.2676 C 25.9277 -24.2676 23.6328 -21.9727 23.6328 -18.8965 C 23.6328 -15.7227 25.9277 -13.4277 29.0039 -13.4277 Z M 30.7617 3.51562 L 33.3496 -0.683594 L 60.4492 -0.683594 L 63.0371 3.51562 Z"/>
  </g>
  <g id="Medium-S" transform="matrix(1 0 0 1 1700.36 696)">
   <path d="M 18.5059 14.6484 L 21.0449 14.6484 C 22.3145 14.6484 23.0957 14.209 23.7793 13.0859 L 25.9277 9.61914 L 66.3574 9.61914 L 68.5059 13.0859 C 69.1895 14.209 69.9707 14.6484 71.2402 14.6484 L 73.584 14.6484 C 75.8301 14.6484 76.9043 12.4023 75.6836 10.4492 L 68.3105 -1.51367 C 77.0996 -1.85547 82.6172 -8.00781 82.6172 -17.1387 L 82.6172 -41.9434 C 82.6172 -51.9531 81.5918 -61.0352 79.9805 -67.8711 C 77.832 -77.7832 71.7773 -83.6426 62.5488 -84.7656 C 59.9609 -85.1074 53.418 -85.5957 46.1914 -85.5957 C 38.2324 -85.5957 32.4219 -85.1074 29.834 -84.7656 C 20.6055 -83.6426 14.5508 -77.7832 12.4023 -67.8711 C 10.791 -61.0352 9.76562 -52.2949 9.76562 -42.2852 L 9.76562 -17.1387 C 9.76562 -8.05664 15.2344 -1.9043 23.9746 -1.51367 L 16.4062 10.5469 C 15.2832 12.4512 16.3086 14.6484 18.5059 14.6484 Z M 25.9277 -8.20312 C 19.5801 -8.20312 16.4551 -11.9141 16.4551 -17.4805 L 16.4551 -42.2852 C 16.4551 -51.9531 17.4316 -60.0586 18.9453 -66.6504 C 20.459 -73.6328 24.4629 -77.4902 30.7129 -78.1738 C 33.1055 -78.418 38.5254 -78.8574 46.1914 -78.8574 C 53.0762 -78.8574 59.2773 -78.418 61.6699 -78.1738 C 67.9199 -77.4902 71.9238 -73.6328 73.4863 -66.6504 C 75 -60.0586 75.9766 -51.6113 75.9766 -41.9434 L 75.9766 -17.4805 C 75.9766 -11.9141 72.8027 -8.20312 66.4551 -8.20312 Z M 36.5234 -68.457 L 55.9082 -68.457 C 57.5684 -68.457 58.6914 -69.5801 58.6914 -71.2402 C 58.6914 -72.9004 57.5684 -73.9746 55.9082 -73.9746 L 36.5234 -73.9746 C 34.8633 -73.9746 33.7402 -72.9004 33.7402 -71.2402 C 33.7402 -69.5801 34.8633 -68.457 36.5234 -68.457 Z M 46.1914 -29.7852 C 56.1523 -29.834 63.623 -30.2246 67.5293 -30.7617 C 69.873 -31.0547 70.8008 -32.5684 70.8008 -34.7656 L 70.8008 -43.75 C 70.8008 -51.5137 69.9707 -57.959 69.4336 -60.1562 C 69.043 -61.8652 67.9688 -63.0859 66.2109 -63.3301 C 62.0605 -63.8184 57.373 -64.1113 46.1914 -64.1602 C 35.0098 -64.1113 30.3223 -63.8184 26.123 -63.3301 C 24.4141 -63.0859 23.3398 -61.8652 22.9492 -60.1562 C 22.4609 -57.959 21.582 -51.5137 21.582 -43.75 L 21.582 -34.7656 C 21.582 -32.5684 22.5098 -31.0547 24.8535 -30.7617 C 28.7598 -30.2246 36.2305 -29.834 46.1914 -29.7852 Z M 64.0625 -13.5742 C 67.0898 -13.5742 69.4824 -15.9668 69.4824 -19.0918 C 69.4824 -22.168 67.1387 -24.5117 64.0625 -24.5117 C 60.9375 -24.5117 58.5449 -22.168 58.5449 -19.0918 C 58.5449 -15.9668 60.9375 -13.5742 64.0625 -13.5742 Z M 28.2715 -13.623 C 31.3477 -13.623 33.7402 -15.918 33.7402 -19.0918 C 33.7402 -22.2168 31.4453 -24.5117 28.2715 -24.5117 C 25.1465 -24.5117 22.8516 -22.2168 22.8516 -19.0918 C 22.8516 -15.918 25.1465 -13.623 28.2715 -13.623 Z M 30.127 2.7832 L 32.8125 -1.51367 L 59.4238 -1.51367 L 62.1094 2.7832 Z"/>
  </g>
  <g id="Regular-S" transform="matrix(1 0 0 1 1404.8 696)">
   <path d="M 18.5547 13.0859 L 20.8496 13.0859 C 22.0215 13.0859 22.6562 12.6953 23.291 11.6699 L 25.4883 8.10547 L 64.7949 8.10547 L 66.9922 11.6699 C 67.5781 12.6953 68.2617 13.0859 69.3848 13.0859 L 71.6797 13.0859 C 73.6328 13.0859 74.5605 11.1328 73.4863 9.42383 L 66.1133 -2.58789 C 74.6582 -2.58789 80.3223 -8.64258 80.3223 -17.5781 L 80.3223 -40.8203 C 80.3223 -50.4883 79.1992 -60.791 77.4414 -67.9688 C 75.3906 -76.7578 69.4336 -82.4707 61.2305 -83.3496 C 59.1309 -83.5449 52.3438 -84.082 45.0195 -84.082 C 36.8164 -84.082 30.957 -83.5449 28.8086 -83.3496 C 20.6543 -82.4707 14.6484 -76.7578 12.6465 -67.9688 C 10.8887 -60.791 9.76562 -50.9277 9.76562 -41.2109 L 9.76562 -17.5781 C 9.76562 -8.64258 15.4297 -2.58789 24.1211 -2.58789 L 16.6504 9.42383 C 15.5762 11.1816 16.6016 13.0859 18.5547 13.0859 Z M 25.0488 -8.25195 C 18.5059 -8.25195 15.4297 -12.0605 15.4297 -17.5781 L 15.4297 -41.2109 C 15.4297 -50.5371 16.4551 -59.8633 18.1152 -66.6504 C 19.6777 -73.1445 23.7305 -77.0996 29.3945 -77.6855 C 31.4453 -77.9297 37.0117 -78.418 45.0195 -78.418 C 52.1484 -78.418 58.5938 -77.9297 60.6934 -77.6855 C 66.3574 -77.0996 70.4102 -73.1445 71.9727 -66.6504 C 73.584 -59.8633 74.6582 -50.0977 74.6582 -40.8203 L 74.6582 -17.5781 C 74.6582 -12.0605 71.5332 -8.25195 65.0391 -8.25195 Z M 35.4004 -68.3105 L 54.6875 -68.3105 C 56.25 -68.3105 57.2266 -69.2871 57.2266 -70.8008 C 57.2266 -72.3633 56.25 -73.291 54.6875 -73.291 L 35.4004 -73.291 C 33.8379 -73.291 32.8613 -72.3633 32.8613 -70.8008 C 32.8613 -69.2871 33.8379 -68.3105 35.4004 -68.3105 Z M 45.0195 -30.2246 C 55.0781 -30.2734 62.6953 -30.7129 66.6504 -31.25 C 68.8965 -31.543 69.6289 -32.959 69.6289 -35.0098 L 69.6289 -43.6035 C 69.6289 -51.6113 68.75 -57.959 68.1641 -60.2051 C 67.7734 -61.7676 66.8945 -62.8906 65.2832 -63.0859 C 61.0352 -63.623 56.6895 -63.916 45.0195 -63.9648 C 33.3496 -63.916 29.0527 -63.623 24.7559 -63.0859 C 23.1934 -62.8906 22.2656 -61.7676 21.875 -60.2051 C 21.3379 -57.959 20.459 -51.6113 20.459 -43.6035 L 20.459 -35.0098 C 20.459 -32.959 21.1914 -31.543 23.4375 -31.25 C 27.3926 -30.7129 35.0098 -30.2734 45.0195 -30.2246 Z M 62.6953 -13.8184 C 65.7227 -13.8184 68.1641 -16.2109 68.1641 -19.3359 C 68.1641 -22.4121 65.7715 -24.8047 62.6953 -24.8047 C 59.5703 -24.8047 57.1777 -22.4121 57.1777 -19.3359 C 57.1777 -16.2109 59.5703 -13.8184 62.6953 -13.8184 Z M 27.2949 -13.8672 C 30.3711 -13.8672 32.7637 -16.1621 32.7637 -19.3359 C 32.7637 -22.4609 30.4688 -24.7559 27.2949 -24.7559 C 24.1699 -24.7559 21.875 -22.4609 21.875 -19.3359 C 21.875 -16.1621 24.1699 -13.8672 27.2949 -13.8672 Z M 29.3457 1.9043 L 32.1289 -2.58789 L 58.1055 -2.58789 L 60.8887 1.9043 Z"/>
  </g>
  <g id="Light-S" transform="matrix(1 0 0 1 1109.09 696)">
   <path d="M 17.7734 12.1094 L 19.7754 12.1094 C 20.8008 12.1094 21.3379 11.8164 21.875 10.9375 L 24.0723 7.42188 L 64.1602 7.42188 L 66.3086 10.9375 C 66.8457 11.8164 67.4316 12.1094 68.4082 12.1094 L 70.4102 12.1094 C 72.0703 12.1094 72.8027 10.5469 71.9238 9.13086 L 64.5996 -2.68555 C 73.3887 -2.68555 78.3203 -8.74023 78.3203 -16.9922 L 78.3203 -40.4785 C 78.3203 -51.2207 76.8555 -62.0117 75.1465 -68.7988 C 73.3398 -76.3672 68.0176 -81.3477 60.791 -82.1289 C 58.0078 -82.4707 51.3672 -82.959 44.043 -82.959 C 36.084 -82.959 30.0781 -82.4707 27.2949 -82.1289 C 20.0684 -81.3477 14.7461 -76.3672 12.9395 -68.7988 C 11.2305 -62.0117 9.76562 -51.4648 9.76562 -40.7715 L 9.76562 -16.9922 C 9.76562 -8.78906 14.6484 -2.73438 23.5352 -2.68555 L 16.2109 9.13086 C 15.332 10.5957 16.1133 12.1094 17.7734 12.1094 Z M 24.4141 -7.17773 C 17.2852 -7.17773 14.2578 -11.377 14.2578 -16.9922 L 14.2578 -40.7715 C 14.2578 -51.2207 15.7715 -61.4258 17.334 -67.8223 C 18.7012 -73.5352 22.4609 -77.0996 27.7344 -77.6855 C 30.7617 -78.0762 36.5234 -78.4668 44.043 -78.4668 C 50.9277 -78.4668 57.3242 -78.0762 60.3516 -77.6855 C 65.625 -77.0996 69.3848 -73.5352 70.752 -67.8223 C 72.3145 -61.4258 73.8281 -50.9277 73.8281 -40.4785 L 73.8281 -16.9922 C 73.8281 -11.377 70.8008 -7.17773 63.6719 -7.17773 Z M 34.1797 -68.457 L 53.9062 -68.457 C 55.2734 -68.457 56.1035 -69.3359 56.1035 -70.6543 C 56.1035 -71.9727 55.2734 -72.8516 53.9062 -72.8516 L 34.1797 -72.8516 C 32.8125 -72.8516 31.9824 -71.9727 31.9824 -70.6543 C 31.9824 -69.3359 32.8125 -68.457 34.1797 -68.457 Z M 44.043 -28.9551 C 53.3203 -29.0039 60.4492 -29.3457 64.7461 -29.834 C 67.0898 -30.127 68.1152 -31.6406 68.1152 -33.8867 L 68.1152 -42.8711 C 68.1152 -50.3418 67.2852 -56.543 66.6504 -59.668 C 66.2598 -61.4258 65.0879 -62.6953 63.2324 -62.8906 C 59.0332 -63.3789 54.2969 -63.6719 44.043 -63.7207 C 33.7402 -63.6719 29.0039 -63.3789 24.6094 -62.8906 C 22.9004 -62.6953 21.8262 -61.4258 21.4355 -59.668 C 20.752 -56.543 19.9219 -50.3418 19.9219 -42.8711 L 19.9219 -33.8867 C 19.9219 -31.6406 20.9473 -30.127 23.3398 -29.834 C 27.5879 -29.3457 34.7656 -29.0039 44.043 -28.9551 Z M 61.8164 -13.4277 C 64.6973 -13.4277 66.9434 -15.625 66.9434 -18.5547 C 66.9434 -21.4355 64.7461 -23.6328 61.8164 -23.6328 C 58.8867 -23.6328 56.6895 -21.4355 56.6895 -18.5547 C 56.6895 -15.625 58.8867 -13.4277 61.8164 -13.4277 Z M 26.2207 -13.4277 C 29.1504 -13.4277 31.3477 -15.5762 31.3477 -18.5547 C 31.3477 -21.4844 29.1992 -23.6328 26.2207 -23.6328 C 23.291 -23.6328 21.1426 -21.4844 21.1426 -18.5547 C 21.1426 -15.5762 23.291 -13.4277 26.2207 -13.4277 Z M 27.3926 2.09961 L 30.3223 -2.68555 L 57.8613 -2.68555 L 60.8398 2.09961 Z"/>
  </g>
  <g id="Thin-S" transform="matrix(1 0 0 1 813.698 696)">
   <path d="M 16.748 10.8887 L 18.3594 10.8887 C 19.1895 10.8887 19.5801 10.6445 19.9707 10.0098 L 22.168 6.49414 L 63.3301 6.49414 L 65.4785 10.0098 C 65.918 10.6445 66.3086 10.8887 67.0898 10.8887 L 68.75 10.8887 C 69.9707 10.8887 70.459 9.76562 69.7754 8.69141 L 62.6465 -2.7832 C 71.7773 -2.92969 75.6836 -8.93555 75.6836 -16.2109 L 75.6836 -40.0879 C 75.6836 -52.0996 73.8281 -63.6719 72.1191 -69.873 C 70.5566 -75.8789 66.1133 -79.834 60.2539 -80.5664 C 56.4941 -81.0059 50 -81.4453 42.7246 -81.4453 C 35.2051 -81.4453 28.9551 -81.0059 25.2441 -80.5664 C 19.3359 -79.834 14.8926 -75.8789 13.3301 -69.873 C 11.6211 -63.6719 9.76562 -52.1973 9.76562 -40.1855 L 9.76562 -16.2109 C 9.76562 -8.93555 13.6719 -2.92969 22.8027 -2.7832 L 15.6738 8.69141 C 14.9902 9.76562 15.4785 10.8887 16.748 10.8887 Z M 23.6328 -5.71289 C 15.625 -5.71289 12.6953 -10.498 12.6953 -16.2109 L 12.6953 -40.1855 C 12.6953 -52.1973 14.7949 -63.4766 16.3086 -69.3359 C 17.4316 -74.0234 20.8496 -77.0508 25.5371 -77.6855 C 29.834 -78.2715 35.8887 -78.5156 42.7246 -78.5156 C 49.3164 -78.5156 55.6152 -78.2715 59.9121 -77.6855 C 64.5996 -77.0508 68.0176 -74.0234 69.1895 -69.3359 C 70.6543 -63.4766 72.7539 -52.0508 72.7539 -40.0879 L 72.7539 -16.2109 C 72.7539 -10.498 69.873 -5.71289 61.8652 -5.71289 Z M 32.5684 -68.7012 L 52.8809 -68.7012 C 54.0039 -68.7012 54.6387 -69.4336 54.6387 -70.5078 C 54.6387 -71.4844 54.0039 -72.2168 52.8809 -72.2168 L 32.5684 -72.2168 C 31.4941 -72.2168 30.8105 -71.4844 30.8105 -70.5078 C 30.8105 -69.4336 31.4941 -68.7012 32.5684 -68.7012 Z M 42.7246 -27.1973 C 50.9766 -27.2461 57.5195 -27.5391 62.207 -27.9785 C 64.7461 -28.2227 66.1621 -29.9316 66.1621 -32.4219 L 66.1621 -41.8457 C 66.1621 -48.6328 65.4297 -54.6387 64.5996 -58.9355 C 64.209 -61.0352 62.7441 -62.4512 60.5957 -62.6465 C 56.4453 -63.0859 51.123 -63.3789 42.7246 -63.3789 C 34.2285 -63.3789 28.9551 -63.0859 24.4629 -62.6465 C 22.5098 -62.4512 21.1914 -61.0352 20.8008 -58.9355 C 19.9707 -54.6387 19.2383 -48.6328 19.2383 -41.8457 L 19.2383 -32.4219 C 19.2383 -29.9316 20.6055 -28.2227 23.1934 -27.9785 C 27.832 -27.5391 34.4238 -27.2461 42.7246 -27.1973 Z M 60.6934 -12.8418 C 63.2812 -12.8418 65.332 -14.8438 65.332 -17.5293 C 65.332 -20.166 63.3301 -22.168 60.6934 -22.168 C 58.0078 -22.168 56.0059 -20.166 56.0059 -17.5293 C 56.0059 -14.8438 58.0078 -12.8418 60.6934 -12.8418 Z M 24.8047 -12.8906 C 27.4902 -12.8906 29.4922 -14.8438 29.4922 -17.5293 C 29.4922 -20.166 27.4902 -22.1191 24.8047 -22.1191 C 22.168 -22.1191 20.2148 -20.166 20.2148 -17.5293 C 20.2148 -14.8438 22.168 -12.8906 24.8047 -12.8906 Z M 24.7559 2.34375 L 27.9297 -2.7832 L 57.5684 -2.7832 L 60.7422 2.34375 Z"/>
  </g>
  <g id="Ultralight-S" transform="matrix(1 0 0 1 517.67 696)">
   <path d="M 16.2109 10.2539 L 17.627 10.2539 C 18.3594 10.2539 18.6523 10.0586 19.043 9.47266 L 21.1914 6.00586 L 62.8906 6.00586 L 65.0391 9.47266 C 65.3809 10.0586 65.7227 10.2539 66.4062 10.2539 L 67.8711 10.2539 C 68.8965 10.2539 69.2871 9.375 68.7012 8.49609 L 61.6699 -2.83203 C 70.8984 -3.02734 74.3164 -8.98438 74.3164 -15.8203 L 74.3164 -39.8438 C 74.3164 -52.5879 72.2168 -64.5508 70.5566 -70.4102 C 69.1406 -75.6348 65.1855 -79.1016 59.9121 -79.7363 C 55.7617 -80.2734 49.3164 -80.7129 42.041 -80.7129 C 34.7168 -80.7129 28.3691 -80.2734 24.1699 -79.7363 C 18.9453 -79.1016 14.9902 -75.6348 13.5254 -70.4102 C 11.8652 -64.5508 9.76562 -52.5879 9.76562 -39.8438 L 9.76562 -15.8203 C 9.76562 -8.98438 13.2324 -3.02734 22.4121 -2.83203 L 15.332 8.49609 C 14.7949 9.375 15.1855 10.2539 16.2109 10.2539 Z M 23.1934 -4.98047 C 14.7461 -4.98047 11.9141 -10.0586 11.9141 -15.8203 L 11.9141 -39.8438 C 11.9141 -52.6855 14.3066 -64.5508 15.7715 -70.1172 C 16.7969 -74.2676 20.0195 -77.0508 24.4141 -77.6855 C 29.3457 -78.3691 35.5957 -78.5645 42.041 -78.5645 C 48.4863 -78.5645 54.7363 -78.3691 59.668 -77.6855 C 64.0625 -77.0508 67.2852 -74.2676 68.3594 -70.1172 C 69.7754 -64.5508 72.2168 -52.6367 72.2168 -39.8438 L 72.2168 -15.8203 C 72.2168 -10.0586 69.3359 -4.98047 60.8887 -4.98047 Z M 31.7383 -68.7988 L 52.3438 -68.7988 C 53.3203 -68.7988 53.9062 -69.4824 53.9062 -70.3613 C 53.9062 -71.2402 53.3203 -71.875 52.3438 -71.875 L 31.7383 -71.875 C 30.7617 -71.875 30.2246 -71.2402 30.2246 -70.3613 C 30.2246 -69.4824 30.7617 -68.7988 31.7383 -68.7988 Z M 42.041 -26.3184 C 49.8047 -26.3672 56.0059 -26.6113 60.8887 -27.002 C 63.5742 -27.2949 65.1367 -29.0039 65.1367 -31.6895 L 65.1367 -41.3086 C 65.1367 -47.7539 64.4531 -53.7109 63.5254 -58.5449 C 63.1348 -60.791 61.5234 -62.3047 59.1797 -62.5488 C 55.0781 -62.9395 49.5117 -63.2324 42.041 -63.2324 C 34.5215 -63.2324 28.9062 -62.9395 24.3164 -62.5 C 22.3145 -62.3047 20.8496 -60.791 20.459 -58.5449 C 19.5801 -53.7109 18.8965 -47.7539 18.8965 -41.3086 L 18.8965 -31.6895 C 18.8965 -29.0039 20.459 -27.2949 23.0957 -27.002 C 27.9785 -26.6113 34.2285 -26.3672 42.041 -26.3184 Z M 60.1074 -12.5488 C 62.5488 -12.5488 64.502 -14.4531 64.502 -16.9922 C 64.502 -19.4824 62.5977 -21.3867 60.1074 -21.3867 C 57.5684 -21.3867 55.6641 -19.4824 55.6641 -16.9922 C 55.6641 -14.4531 57.5684 -12.5488 60.1074 -12.5488 Z M 24.0723 -12.5488 C 26.6113 -12.5488 28.5156 -14.4531 28.5156 -16.9922 C 28.5156 -19.4824 26.6113 -21.3867 24.0723 -21.3867 C 21.582 -21.3867 19.6777 -19.4824 19.6777 -16.9922 C 19.6777 -14.4531 21.582 -12.5488 24.0723 -12.5488 Z M 23.3887 2.44141 L 26.6602 -2.83203 L 57.373 -2.83203 L 60.6445 2.44141 Z"/>
  </g>
 </g>
</svg>
