<?xml version="1.0" encoding="UTF-8"?>
<!--Generator: Apple Native CoreSVG 148-->
<!DOCTYPE svg
PUBLIC "-//W3C//DTD SVG 1.1//EN"
       "http://www.w3.org/Graphics/SVG/1.1/DTD/svg11.dtd">
<svg version="1.1" xmlns="http://www.w3.org/2000/svg" xmlns:xlink="http://www.w3.org/1999/xlink" width="3300" height="2200">
 <!--glyph: "uni1000D1.medium", point size: 100.000000, font version: "Version 16.0d11e1", template writer version: "8"-->
 <g id="Notes">
  <rect height="2200" id="artboard" style="fill:white;opacity:1" width="3300" x="0" y="0"/>
  <line id="" style="fill:none;stroke:black;opacity:1;stroke-width:0.5;" x1="263" x2="3036" y1="292" y2="292"/>
  <text style="stroke:none;fill:black;font-family:-apple-system,&quot;SF Pro Display&quot;,&quot;SF Pro Text&quot;,Helvetica,sans-serif;font-weight:bold;" transform="matrix(1 0 0 1 263 322)">Weight/Scale Variations</text>
  <text style="stroke:none;fill:black;font-family:-apple-system,&quot;SF Pro Display&quot;,&quot;SF Pro Text&quot;,Helvetica,sans-serif;text-anchor:middle;" transform="matrix(1 0 0 1 559.711 322)">Ultralight</text>
  <text style="stroke:none;fill:black;font-family:-apple-system,&quot;SF Pro Display&quot;,&quot;SF Pro Text&quot;,Helvetica,sans-serif;text-anchor:middle;" transform="matrix(1 0 0 1 856.422 322)">Thin</text>
  <text style="stroke:none;fill:black;font-family:-apple-system,&quot;SF Pro Display&quot;,&quot;SF Pro Text&quot;,Helvetica,sans-serif;text-anchor:middle;" transform="matrix(1 0 0 1 1153.13 322)">Light</text>
  <text style="stroke:none;fill:black;font-family:-apple-system,&quot;SF Pro Display&quot;,&quot;SF Pro Text&quot;,Helvetica,sans-serif;text-anchor:middle;" transform="matrix(1 0 0 1 1449.84 322)">Regular</text>
  <text style="stroke:none;fill:black;font-family:-apple-system,&quot;SF Pro Display&quot;,&quot;SF Pro Text&quot;,Helvetica,sans-serif;text-anchor:middle;" transform="matrix(1 0 0 1 1746.56 322)">Medium</text>
  <text style="stroke:none;fill:black;font-family:-apple-system,&quot;SF Pro Display&quot;,&quot;SF Pro Text&quot;,Helvetica,sans-serif;text-anchor:middle;" transform="matrix(1 0 0 1 2043.27 322)">Semibold</text>
  <text style="stroke:none;fill:black;font-family:-apple-system,&quot;SF Pro Display&quot;,&quot;SF Pro Text&quot;,Helvetica,sans-serif;text-anchor:middle;" transform="matrix(1 0 0 1 2339.98 322)">Bold</text>
  <text style="stroke:none;fill:black;font-family:-apple-system,&quot;SF Pro Display&quot;,&quot;SF Pro Text&quot;,Helvetica,sans-serif;text-anchor:middle;" transform="matrix(1 0 0 1 2636.69 322)">Heavy</text>
  <text style="stroke:none;fill:black;font-family:-apple-system,&quot;SF Pro Display&quot;,&quot;SF Pro Text&quot;,Helvetica,sans-serif;text-anchor:middle;" transform="matrix(1 0 0 1 2933.4 322)">Black</text>
  <line id="" style="fill:none;stroke:black;opacity:1;stroke-width:0.5;" x1="263" x2="3036" y1="1903" y2="1903"/>
  <g id="" transform="matrix(1 0 0 1 263 1933)">
   <path d="M 9.24805 0.830078 C 13.5547 0.830078 17.1387 -2.74414 17.1387 -7.05078 C 17.1387 -11.3574 13.5449 -14.9316 9.23828 -14.9316 C 4.94141 -14.9316 1.36719 -11.3574 1.36719 -7.05078 C 1.36719 -2.74414 4.95117 0.830078 9.24805 0.830078 Z M 9.24805 -0.654297 C 5.70312 -0.654297 2.87109 -3.49609 2.87109 -7.05078 C 2.87109 -10.6055 5.69336 -13.4473 9.23828 -13.4473 C 12.793 -13.4473 15.6348 -10.6055 15.6445 -7.05078 C 15.6543 -3.49609 12.8027 -0.654297 9.24805 -0.654297 Z M 9.22852 -3.62305 C 9.69727 -3.62305 9.9707 -3.93555 9.9707 -4.45312 L 9.9707 -6.31836 L 12.002 -6.31836 C 12.5 -6.31836 12.832 -6.57227 12.832 -7.04102 C 12.832 -7.51953 12.5195 -7.7832 12.002 -7.7832 L 9.9707 -7.7832 L 9.9707 -9.81445 C 9.9707 -10.332 9.69727 -10.6543 9.22852 -10.6543 C 8.75977 -10.6543 8.50586 -10.3125 8.50586 -9.81445 L 8.50586 -7.7832 L 6.49414 -7.7832 C 5.97656 -7.7832 5.64453 -7.51953 5.64453 -7.04102 C 5.64453 -6.57227 5.99609 -6.31836 6.49414 -6.31836 L 8.50586 -6.31836 L 8.50586 -4.45312 C 8.50586 -3.95508 8.75977 -3.62305 9.22852 -3.62305 Z"/>
  </g>
  <g id="" transform="matrix(1 0 0 1 281.506 1933)">
   <path d="M 11.709 2.91016 C 17.1582 2.91016 21.6699 -1.61133 21.6699 -7.05078 C 21.6699 -12.5 17.1484 -17.0117 11.6992 -17.0117 C 6.25977 -17.0117 1.74805 -12.5 1.74805 -7.05078 C 1.74805 -1.61133 6.26953 2.91016 11.709 2.91016 Z M 11.709 1.25 C 7.09961 1.25 3.41797 -2.44141 3.41797 -7.05078 C 3.41797 -11.6602 7.08984 -15.3516 11.6992 -15.3516 C 16.3086 -15.3516 20 -11.6602 20.0098 -7.05078 C 20.0195 -2.44141 16.3184 1.25 11.709 1.25 Z M 11.6797 -2.66602 C 12.207 -2.66602 12.5098 -3.01758 12.5098 -3.59375 L 12.5098 -6.23047 L 15.3223 -6.23047 C 15.8691 -6.23047 16.25 -6.51367 16.25 -7.03125 C 16.25 -7.55859 15.8887 -7.86133 15.3223 -7.86133 L 12.5098 -7.86133 L 12.5098 -10.6836 C 12.5098 -11.25 12.207 -11.6113 11.6797 -11.6113 C 11.1621 -11.6113 10.8789 -11.2305 10.8789 -10.6836 L 10.8789 -7.86133 L 8.07617 -7.86133 C 7.50977 -7.86133 7.13867 -7.55859 7.13867 -7.03125 C 7.13867 -6.51367 7.5293 -6.23047 8.07617 -6.23047 L 10.8789 -6.23047 L 10.8789 -3.59375 C 10.8789 -3.03711 11.1621 -2.66602 11.6797 -2.66602 Z"/>
  </g>
  <g id="" transform="matrix(1 0 0 1 304.924 1933)">
   <path d="M 14.9707 5.66406 C 21.9336 5.66406 27.6953 -0.0976562 27.6953 -7.05078 C 27.6953 -14.0137 21.9238 -19.7754 14.9609 -19.7754 C 8.00781 -19.7754 2.25586 -14.0137 2.25586 -7.05078 C 2.25586 -0.0976562 8.01758 5.66406 14.9707 5.66406 Z M 14.9707 3.84766 C 8.93555 3.84766 4.08203 -1.01562 4.08203 -7.05078 C 4.08203 -13.0957 8.92578 -17.9492 14.9609 -17.9492 C 21.0059 -17.9492 25.8594 -13.0957 25.8691 -7.05078 C 25.8789 -1.01562 21.0156 3.84766 14.9707 3.84766 Z M 14.9414 -1.38672 C 15.5176 -1.38672 15.8594 -1.77734 15.8594 -2.38281 L 15.8594 -6.13281 L 19.7754 -6.13281 C 20.3711 -6.13281 20.7812 -6.46484 20.7812 -7.02148 C 20.7812 -7.59766 20.3906 -7.93945 19.7754 -7.93945 L 15.8594 -7.93945 L 15.8594 -11.8652 C 15.8594 -12.4805 15.5176 -12.8711 14.9414 -12.8711 C 14.375 -12.8711 14.0527 -12.4609 14.0527 -11.8652 L 14.0527 -7.93945 L 10.1465 -7.93945 C 9.53125 -7.93945 9.13086 -7.59766 9.13086 -7.02148 C 9.13086 -6.46484 9.55078 -6.13281 10.1465 -6.13281 L 14.0527 -6.13281 L 14.0527 -2.38281 C 14.0527 -1.79688 14.375 -1.38672 14.9414 -1.38672 Z"/>
  </g>
  <text style="stroke:none;fill:black;font-family:-apple-system,&quot;SF Pro Display&quot;,&quot;SF Pro Text&quot;,Helvetica,sans-serif;font-weight:bold;" transform="matrix(1 0 0 1 263 1953)">Design Variations</text>
  <text style="stroke:none;fill:black;font-family:-apple-system,&quot;SF Pro Display&quot;,&quot;SF Pro Text&quot;,Helvetica,sans-serif;" transform="matrix(1 0 0 1 263 1971)">Symbols are supported in up to nine weights and three scales.</text>
  <text style="stroke:none;fill:black;font-family:-apple-system,&quot;SF Pro Display&quot;,&quot;SF Pro Text&quot;,Helvetica,sans-serif;" transform="matrix(1 0 0 1 263 1989)">For optimal layout with text and other symbols, vertically align</text>
  <text style="stroke:none;fill:black;font-family:-apple-system,&quot;SF Pro Display&quot;,&quot;SF Pro Text&quot;,Helvetica,sans-serif;" transform="matrix(1 0 0 1 263 2007)">symbols with the adjacent text.</text>
  <line id="" style="fill:none;stroke:#00AEEF;stroke-width:0.5;opacity:1.0;" x1="776" x2="776" y1="1919" y2="1933"/>
  <g id="" transform="matrix(1 0 0 1 776 1933)">
   <path d="M 3.31055 0.126953 C 3.82812 0.126953 4.08203 -0.0683594 4.26758 -0.605469 L 5.52734 -4.0625 L 11.2891 -4.0625 L 12.5488 -0.605469 C 12.7344 -0.0683594 12.9883 0.126953 13.4961 0.126953 C 14.0137 0.126953 14.3457 -0.185547 14.3457 -0.673828 C 14.3457 -0.839844 14.3164 -0.986328 14.2383 -1.20117 L 9.6582 -13.3887 C 9.43359 -13.9941 9.0332 -14.2871 8.4082 -14.2871 C 7.80273 -14.2871 7.39258 -13.9941 7.17773 -13.3984 L 2.59766 -1.19141 C 2.51953 -0.976562 2.49023 -0.830078 2.49023 -0.664062 C 2.49023 -0.175781 2.80273 0.126953 3.31055 0.126953 Z M 6.00586 -5.53711 L 8.37891 -12.1094 L 8.42773 -12.1094 L 10.8008 -5.53711 Z"/>
  </g>
  <line id="" style="fill:none;stroke:#00AEEF;stroke-width:0.5;opacity:1.0;" x1="792.836" x2="792.836" y1="1919" y2="1933"/>
  <text style="stroke:none;fill:black;font-family:-apple-system,&quot;SF Pro Display&quot;,&quot;SF Pro Text&quot;,Helvetica,sans-serif;font-weight:bold;" transform="matrix(1 0 0 1 776 1953)">Margins</text>
  <text style="stroke:none;fill:black;font-family:-apple-system,&quot;SF Pro Display&quot;,&quot;SF Pro Text&quot;,Helvetica,sans-serif;" transform="matrix(1 0 0 1 776 1971)">Leading and trailing margins on the left and right side of each symbol</text>
  <text style="stroke:none;fill:black;font-family:-apple-system,&quot;SF Pro Display&quot;,&quot;SF Pro Text&quot;,Helvetica,sans-serif;" transform="matrix(1 0 0 1 776 1989)">can be adjusted by modifying the x-location of the margin guidelines.</text>
  <text style="stroke:none;fill:black;font-family:-apple-system,&quot;SF Pro Display&quot;,&quot;SF Pro Text&quot;,Helvetica,sans-serif;" transform="matrix(1 0 0 1 776 2007)">Modifications are automatically applied proportionally to all</text>
  <text style="stroke:none;fill:black;font-family:-apple-system,&quot;SF Pro Display&quot;,&quot;SF Pro Text&quot;,Helvetica,sans-serif;" transform="matrix(1 0 0 1 776 2025)">scales and weights.</text>
  <g id="" transform="matrix(1 0 0 1 1289 1933)">
   <path d="M 2.8418 1.86523 L 4.54102 3.57422 C 5.40039 4.44336 6.38672 4.38477 7.31445 3.35938 L 17.4902 -7.85156 C 17.7539 -7.76367 18.0273 -7.7832 18.3398 -7.8418 L 19.4043 -8.03711 L 20.0684 -7.36328 L 20.0293 -6.80664 C 19.9902 -6.30859 20.1172 -5.92773 20.6055 -5.44922 L 21.3672 -4.70703 C 21.8457 -4.22852 22.4609 -4.19922 22.9297 -4.66797 L 25.8398 -7.58789 C 26.3086 -8.05664 26.2891 -8.65234 25.8105 -9.13086 L 25.0391 -9.89258 C 24.5605 -10.3711 24.1895 -10.5273 23.7109 -10.4883 L 23.1348 -10.4395 L 22.4902 -11.0742 L 22.7344 -12.1973 C 22.8613 -12.7637 22.7051 -13.2031 22.1191 -13.7891 L 19.9219 -15.9766 C 16.582 -19.2969 12.1484 -19.2188 9.25781 -16.3281 C 8.83789 -15.918 8.80859 -15.3418 9.04297 -14.9512 C 9.27734 -14.5898 9.73633 -14.3555 10.3809 -14.5215 C 11.8457 -14.8633 13.3691 -14.9219 14.7949 -13.9844 L 14.209 -12.5293 C 14.0137 -12.0508 13.9844 -11.6504 14.1113 -11.2891 L 3.04688 -0.898438 C 2.06055 0.0195312 1.98242 0.996094 2.8418 1.86523 Z M 10.752 -15.957 C 13.1836 -17.7344 16.4746 -17.4316 18.7012 -15.2051 L 21.1328 -12.793 C 21.3672 -12.5586 21.4062 -12.373 21.3379 -12.0312 L 21.0156 -10.5469 L 22.5195 -9.0625 L 23.5059 -9.12109 C 23.7598 -9.13086 23.8379 -9.11133 24.0332 -8.91602 L 24.6094 -8.33984 L 22.168 -5.89844 L 21.5918 -6.47461 C 21.3965 -6.66992 21.3672 -6.74805 21.377 -7.01172 L 21.4453 -7.98828 L 19.9512 -9.47266 L 18.4277 -9.21875 C 18.1055 -9.15039 17.959 -9.17969 17.7148 -9.41406 L 15.7129 -11.416 C 15.459 -11.6504 15.4297 -11.8164 15.5859 -12.1875 L 16.4648 -14.2773 C 14.9023 -15.7324 12.8711 -16.3574 10.8398 -15.7617 C 10.6836 -15.7227 10.625 -15.8496 10.752 -15.957 Z M 5.27344 2.30469 L 4.10156 1.14258 C 3.63281 0.683594 3.74023 0.341797 4.14062 -0.0195312 L 14.9512 -10.1953 L 16.416 -8.71094 L 6.42578 2.27539 C 6.07422 2.67578 5.74219 2.77344 5.27344 2.30469 Z"/>
  </g>
  <text style="stroke:none;fill:black;font-family:-apple-system,&quot;SF Pro Display&quot;,&quot;SF Pro Text&quot;,Helvetica,sans-serif;font-weight:bold;" transform="matrix(1 0 0 1 1289 1953)">Exporting</text>
  <text style="stroke:none;fill:black;font-family:-apple-system,&quot;SF Pro Display&quot;,&quot;SF Pro Text&quot;,Helvetica,sans-serif;" transform="matrix(1 0 0 1 1289 1971)">Symbols should be outlined when exporting to ensure the</text>
  <text style="stroke:none;fill:black;font-family:-apple-system,&quot;SF Pro Display&quot;,&quot;SF Pro Text&quot;,Helvetica,sans-serif;" transform="matrix(1 0 0 1 1289 1989)">design is preserved when submitting to Xcode.</text>
  <text id="template-version" style="stroke:none;fill:black;font-family:-apple-system,&quot;SF Pro Display&quot;,&quot;SF Pro Text&quot;,Helvetica,sans-serif;text-anchor:end;" transform="matrix(1 0 0 1 3036 1933)">Template v.2.0</text>
  <text style="stroke:none;fill:black;font-family:-apple-system,&quot;SF Pro Display&quot;,&quot;SF Pro Text&quot;,Helvetica,sans-serif;text-anchor:end;" transform="matrix(1 0 0 1 3036 1951)">Requires Xcode 12 or greater</text>
  <text style="stroke:none;fill:black;font-family:-apple-system,&quot;SF Pro Display&quot;,&quot;SF Pro Text&quot;,Helvetica,sans-serif;text-anchor:end;" transform="matrix(1 0 0 1 3036 1969)">Generated from 4.square.fill</text>
  <text style="stroke:none;fill:black;font-family:-apple-system,&quot;SF Pro Display&quot;,&quot;SF Pro Text&quot;,Helvetica,sans-serif;text-anchor:end;" transform="matrix(1 0 0 1 3036 1987)">Typeset at 100 points</text>
  <text style="stroke:none;fill:black;font-family:-apple-system,&quot;SF Pro Display&quot;,&quot;SF Pro Text&quot;,Helvetica,sans-serif;" transform="matrix(1 0 0 1 263 726)">Small</text>
  <text style="stroke:none;fill:black;font-family:-apple-system,&quot;SF Pro Display&quot;,&quot;SF Pro Text&quot;,Helvetica,sans-serif;" transform="matrix(1 0 0 1 263 1156)">Medium</text>
  <text style="stroke:none;fill:black;font-family:-apple-system,&quot;SF Pro Display&quot;,&quot;SF Pro Text&quot;,Helvetica,sans-serif;" transform="matrix(1 0 0 1 263 1586)">Large</text>
 </g>
 <g id="Guides">
  <g id="H-reference" style="fill:#27AAE1;stroke:none;" transform="matrix(1 0 0 1 339 696)">
   <path d="M 0.976562 0 L 3.66211 0 L 12.9883 -24.4629 L 45.7031 -24.4629 L 55.0781 0 L 57.7148 0 L 30.6152 -70.459 L 28.125 -70.459 Z M 29.2969 -67.1387 L 29.3945 -67.1387 L 44.873 -26.709 L 13.8672 -26.709 Z"/>
  </g>
  <line id="Baseline-S" style="fill:none;stroke:#27AAE1;opacity:1;stroke-width:0.5;" x1="263" x2="3036" y1="696" y2="696"/>
  <line id="Capline-S" style="fill:none;stroke:#27AAE1;opacity:1;stroke-width:0.5;" x1="263" x2="3036" y1="625.541" y2="625.541"/>
  <g id="H-reference" style="fill:#27AAE1;stroke:none;" transform="matrix(1 0 0 1 339 1126)">
   <path d="M 0.976562 0 L 3.66211 0 L 12.9883 -24.4629 L 45.7031 -24.4629 L 55.0781 0 L 57.7148 0 L 30.6152 -70.459 L 28.125 -70.459 Z M 29.2969 -67.1387 L 29.3945 -67.1387 L 44.873 -26.709 L 13.8672 -26.709 Z"/>
  </g>
  <line id="Baseline-M" style="fill:none;stroke:#27AAE1;opacity:1;stroke-width:0.5;" x1="263" x2="3036" y1="1126" y2="1126"/>
  <line id="Capline-M" style="fill:none;stroke:#27AAE1;opacity:1;stroke-width:0.5;" x1="263" x2="3036" y1="1055.54" y2="1055.54"/>
  <g id="H-reference" style="fill:#27AAE1;stroke:none;" transform="matrix(1 0 0 1 339 1556)">
   <path d="M 0.976562 0 L 3.66211 0 L 12.9883 -24.4629 L 45.7031 -24.4629 L 55.0781 0 L 57.7148 0 L 30.6152 -70.459 L 28.125 -70.459 Z M 29.2969 -67.1387 L 29.3945 -67.1387 L 44.873 -26.709 L 13.8672 -26.709 Z"/>
  </g>
  <line id="Baseline-L" style="fill:none;stroke:#27AAE1;opacity:1;stroke-width:0.5;" x1="263" x2="3036" y1="1556" y2="1556"/>
  <line id="Capline-L" style="fill:none;stroke:#27AAE1;opacity:1;stroke-width:0.5;" x1="263" x2="3036" y1="1485.54" y2="1485.54"/>
  <line id="left-margin" style="fill:none;stroke:#00AEEF;stroke-width:0.5;opacity:1.0;" x1="1392.45" x2="1392.45" y1="1030.79" y2="1150.12"/>
  <line id="right-margin" style="fill:none;stroke:#00AEEF;stroke-width:0.5;opacity:1.0;" x1="1507.24" x2="1507.24" y1="1030.79" y2="1150.12"/>
 </g>
 <g id="Symbols">
  <g id="Black-L" transform="matrix(1 0 0 1 2855.62 1556)">
   <path d="M 39.9902 26.5137 L 115.576 26.5137 C 130.811 26.5137 139.502 17.8711 139.502 2.68555 L 139.502 -73.0957 C 139.502 -88.2812 130.811 -96.875 115.576 -96.875 L 39.9902 -96.875 C 24.7559 -96.875 16.0645 -88.2812 16.0645 -73.0957 L 16.0645 2.68555 C 16.0645 17.8711 24.7559 26.5137 39.9902 26.5137 Z M 87.2559 -4.58984 C 82.2754 -4.58984 79.0039 -7.51953 79.0039 -13.2812 L 79.0039 -14.7949 L 60.8398 -14.7949 C 53.7109 -14.7949 49.2188 -18.8965 49.2188 -25.293 C 49.2188 -28.125 49.8535 -31.1523 51.5625 -34.8633 C 54.5898 -40.7715 59.0332 -48.3398 63.623 -55.8105 C 68.2129 -63.623 72.8027 -66.4062 81.4453 -66.4062 C 89.502 -66.4062 95.6055 -61.1328 95.6055 -54.0527 L 95.6055 -29.7852 L 97.168 -29.7852 C 102.441 -29.7852 105.566 -26.9043 105.566 -22.2656 C 105.566 -17.6758 102.344 -14.7949 97.1191 -14.7949 L 95.6055 -14.7949 L 95.6055 -13.2812 C 95.6055 -7.4707 92.334 -4.58984 87.2559 -4.58984 Z M 79.0039 -29.7852 L 79.0039 -52.8809 L 78.418 -52.8809 C 74.0234 -45.0684 69.3359 -36.3281 66.3086 -30.2734 L 66.3086 -29.7852 Z"/>
  </g>
  <g id="Heavy-L" transform="matrix(1 0 0 1 2559.93 1556)">
   <path d="M 38.8184 25.4883 L 114.697 25.4883 C 129.346 25.4883 137.451 17.4316 137.451 2.88086 L 137.451 -73.2422 C 137.451 -87.793 129.346 -95.8496 114.697 -95.8496 L 38.8184 -95.8496 C 24.2188 -95.8496 16.0645 -87.793 16.0645 -73.2422 L 16.0645 2.88086 C 16.0645 17.4316 24.2188 25.4883 38.8184 25.4883 Z M 85.9375 -4.88281 C 81.543 -4.88281 78.6621 -7.56836 78.6621 -12.6953 L 78.6621 -15.6738 L 59.2285 -15.6738 C 52.8809 -15.6738 48.9258 -19.2871 48.9258 -25 C 48.9258 -27.5391 49.5117 -30.2246 51.0742 -33.4473 C 54.6387 -39.9902 60.2051 -49.0234 65.2344 -56.9824 C 69.2871 -63.7695 73.3887 -66.2598 80.8594 -66.2598 C 88.0371 -66.2598 93.3105 -61.6211 93.3105 -55.3711 L 93.3105 -28.8574 L 95.8008 -28.8574 C 100.391 -28.8574 103.125 -26.3184 103.125 -22.2656 C 103.125 -18.2129 100.293 -15.6738 95.752 -15.6738 L 93.3105 -15.6738 L 93.3105 -12.6953 C 93.3105 -7.51953 90.4297 -4.88281 85.9375 -4.88281 Z M 78.6621 -28.8574 L 78.6621 -54.1504 L 78.125 -54.1504 C 73.291 -45.9473 67.3828 -35.8398 63.9648 -29.2969 L 63.9648 -28.8574 Z"/>
  </g>
  <g id="Bold-L" transform="matrix(1 0 0 1 2264.37 1556)">
   <path d="M 37.5 24.3652 L 113.721 24.3652 C 127.637 24.3652 135.156 16.8945 135.156 3.07617 L 135.156 -73.3887 C 135.156 -87.207 127.637 -94.7266 113.721 -94.7266 L 37.5 -94.7266 C 23.6328 -94.7266 16.0645 -87.2559 16.0645 -73.3887 L 16.0645 3.07617 C 16.0645 16.8945 23.6328 24.3652 37.5 24.3652 Z M 84.4727 -5.27344 C 80.7129 -5.27344 78.2715 -7.61719 78.2715 -11.9629 L 78.2715 -16.6016 L 57.373 -16.6016 C 52.002 -16.6016 48.6328 -19.7754 48.6328 -24.6582 C 48.6328 -26.9043 49.1211 -29.1504 50.5371 -31.9336 C 54.6875 -39.1602 61.5234 -49.707 67.041 -58.3496 C 70.5078 -63.9648 74.0234 -66.0645 80.2734 -66.0645 C 86.3281 -66.0645 90.7227 -62.207 90.7227 -56.8848 L 90.7227 -27.832 L 94.2871 -27.832 C 98.0469 -27.832 100.391 -25.6348 100.391 -22.2168 C 100.391 -18.7988 97.998 -16.6016 94.2871 -16.6016 L 90.7227 -16.6016 L 90.7227 -11.9629 C 90.7227 -7.61719 88.3301 -5.27344 84.4727 -5.27344 Z M 78.2715 -27.832 L 78.2715 -55.5176 L 77.7832 -55.5176 C 72.4609 -46.9727 65.2344 -35.3516 61.3281 -28.2715 L 61.3281 -27.832 Z"/>
  </g>
  <g id="Semibold-L" transform="matrix(1 0 0 1 1968.44 1556)">
   <path d="M 36.6211 23.584 L 113.037 23.584 C 126.514 23.584 133.594 16.5039 133.594 3.17383 L 133.594 -73.5352 C 133.594 -86.8164 126.514 -93.9453 113.037 -93.9453 L 36.6211 -93.9453 C 23.1934 -93.9453 16.0645 -86.8652 16.0645 -73.5352 L 16.0645 3.17383 C 16.0645 16.5527 23.1934 23.584 36.6211 23.584 Z M 83.4473 -5.51758 C 80.127 -5.51758 78.0273 -7.66602 78.0273 -11.4746 L 78.0273 -17.2852 L 56.1523 -17.2852 C 51.3672 -17.2852 48.3887 -20.0684 48.3887 -24.4141 C 48.3887 -26.4648 48.877 -28.418 50.1953 -30.8594 C 54.7363 -38.5742 62.4023 -50.2441 68.3105 -59.2285 C 71.3379 -64.0625 74.4629 -65.918 79.834 -65.918 C 85.1562 -65.918 88.9648 -62.5977 88.9648 -57.9102 L 88.9648 -27.0996 L 93.2617 -27.0996 C 96.4844 -27.0996 98.4863 -25.1465 98.4863 -22.168 C 98.4863 -19.2383 96.4355 -17.2852 93.2617 -17.2852 L 88.9648 -17.2852 L 88.9648 -11.4746 C 88.9648 -7.61719 86.8652 -5.51758 83.4473 -5.51758 Z M 78.0273 -27.0996 L 78.0273 -56.4941 L 77.5391 -56.4941 C 71.875 -47.6562 63.7207 -34.9609 59.5215 -27.5391 L 59.5215 -27.0996 Z"/>
  </g>
  <g id="Medium-L" transform="matrix(1 0 0 1 1672.31 1556)">
   <path d="M 35.9375 22.998 L 112.5 22.998 C 125.635 22.998 132.422 16.2109 132.422 3.27148 L 132.422 -73.6328 C 132.422 -86.5234 125.635 -93.3105 112.5 -93.3105 L 35.9375 -93.3105 C 22.9004 -93.3105 16.0645 -86.5723 16.0645 -73.6328 L 16.0645 3.27148 C 16.0645 16.2598 22.9004 22.998 35.9375 22.998 Z M 82.666 -5.71289 C 79.6875 -5.71289 77.832 -7.71484 77.832 -11.1328 L 77.832 -17.7734 L 55.1758 -17.7734 C 50.9277 -17.7734 48.2422 -20.3125 48.2422 -24.2676 C 48.2422 -26.123 48.6816 -27.832 49.9023 -30.0293 C 54.7852 -38.1348 63.0859 -50.5859 69.2383 -59.9609 C 71.9238 -64.1602 74.8047 -65.8203 79.4922 -65.8203 C 84.2773 -65.8203 87.6465 -62.8906 87.6465 -58.6914 L 87.6465 -26.5625 L 92.4805 -26.5625 C 95.2637 -26.5625 97.0215 -24.8047 97.0215 -22.168 C 97.0215 -19.5312 95.2148 -17.7734 92.4805 -17.7734 L 87.6465 -17.7734 L 87.6465 -11.1328 C 87.6465 -7.66602 85.791 -5.71289 82.666 -5.71289 Z M 77.832 -26.5625 L 77.832 -57.2266 L 77.3926 -57.2266 C 71.4844 -48.1445 62.5977 -34.668 58.1543 -26.9531 L 58.1543 -26.5625 Z"/>
  </g>
  <g id="Regular-L" transform="matrix(1 0 0 1 1376.38 1556)">
   <path d="M 35.0586 22.2168 L 111.816 22.2168 C 124.463 22.2168 130.859 15.8691 130.859 3.41797 L 130.859 -73.7305 C 130.859 -86.1816 124.463 -92.5293 111.816 -92.5293 L 35.0586 -92.5293 C 22.4609 -92.5293 16.0645 -86.2305 16.0645 -73.7305 L 16.0645 3.41797 C 16.0645 15.918 22.4609 22.2168 35.0586 22.2168 Z M 81.6895 -6.00586 C 79.1016 -6.00586 77.5391 -7.76367 77.5391 -10.6445 L 77.5391 -18.457 L 53.9551 -18.457 C 50.293 -18.457 47.998 -20.6543 47.998 -24.0234 C 47.998 -25.6836 48.4375 -27.0996 49.5605 -28.9551 C 54.834 -37.5977 63.9648 -51.123 70.5078 -60.8398 C 72.7539 -64.3066 75.1953 -65.6738 79.1016 -65.6738 C 83.1543 -65.6738 85.8887 -63.2812 85.8887 -59.7168 L 85.8887 -25.8789 L 91.4551 -25.8789 C 93.7012 -25.8789 95.166 -24.3652 95.166 -22.1191 C 95.166 -19.9707 93.6523 -18.457 91.4551 -18.457 L 85.8887 -18.457 L 85.8887 -10.6445 C 85.8887 -7.71484 84.3262 -6.00586 81.6895 -6.00586 Z M 77.5391 -25.8789 L 77.5391 -58.2031 L 77.1484 -58.2031 C 70.8984 -48.8281 61.1328 -34.3262 56.3965 -26.2207 L 56.3965 -25.8789 Z"/>
  </g>
  <g id="Light-L" transform="matrix(1 0 0 1 1080.5 1556)">
   <path d="M 34.0332 21.4355 L 111.23 21.4355 C 123.096 21.4355 129.199 15.2344 129.199 3.56445 L 129.199 -73.8281 C 129.199 -85.5469 123.096 -91.6992 111.23 -91.6992 L 34.0332 -91.6992 C 22.168 -91.6992 16.0645 -85.6445 16.0645 -73.8281 L 16.0645 3.56445 C 16.0645 15.3809 22.168 21.4355 34.0332 21.4355 Z M 80.4688 -6.39648 C 78.5156 -6.39648 77.2461 -7.76367 77.2461 -9.96094 L 77.2461 -19.4336 L 53.2227 -19.4336 C 50.2441 -19.4336 48.3887 -21.1914 48.3887 -23.9258 C 48.3887 -25.1953 48.7793 -26.3672 49.6094 -27.7344 C 54.7852 -36.1816 65.4785 -52.002 71.6797 -61.1328 C 73.5352 -63.916 75.4395 -64.9902 78.3691 -64.9902 C 81.6406 -64.9902 83.7402 -63.0859 83.7402 -60.2539 L 83.7402 -25.293 L 90.1367 -25.293 C 91.8945 -25.293 93.0664 -24.0723 93.0664 -22.3633 C 93.0664 -20.6543 91.8945 -19.4336 90.1367 -19.4336 L 83.7402 -19.4336 L 83.7402 -9.96094 C 83.7402 -7.76367 82.5195 -6.39648 80.4688 -6.39648 Z M 77.2461 -25.293 L 77.2461 -58.8379 L 76.8555 -58.8379 C 71.3867 -50.6836 59.5215 -33.0566 55.0781 -25.6348 L 55.0781 -25.293 Z"/>
  </g>
  <g id="Thin-L" transform="matrix(1 0 0 1 784.889 1556)">
   <path d="M 32.666 20.3613 L 110.352 20.3613 C 121.24 20.3613 127.002 14.4531 127.002 3.75977 L 127.002 -73.9746 C 127.002 -84.7168 121.24 -90.5762 110.352 -90.5762 L 32.666 -90.5762 C 21.7773 -90.5762 16.0645 -84.8633 16.0645 -73.9746 L 16.0645 3.75977 C 16.0645 14.6484 21.7773 20.3613 32.666 20.3613 Z M 78.8574 -6.98242 C 77.6855 -6.98242 76.8066 -7.8125 76.8066 -9.0332 L 76.8066 -20.752 L 52.2949 -20.752 C 50.1465 -20.752 48.9258 -21.875 48.9258 -23.7305 C 48.9258 -24.5605 49.2676 -25.3906 49.6582 -26.123 C 54.6875 -34.3262 67.4805 -53.2227 73.2422 -61.5234 C 74.5117 -63.3789 75.6836 -64.0625 77.4414 -64.0625 C 79.5898 -64.0625 80.8594 -62.8418 80.8594 -60.9863 L 80.8594 -24.5117 L 88.4277 -24.5117 C 89.5508 -24.5117 90.332 -23.6816 90.332 -22.6562 C 90.332 -21.582 89.5508 -20.752 88.4277 -20.752 L 80.8594 -20.752 L 80.8594 -9.0332 C 80.8594 -7.8125 80.0781 -6.98242 78.8574 -6.98242 Z M 76.8066 -24.5117 L 76.8066 -59.668 L 76.5137 -59.668 C 71.9727 -53.125 57.3242 -31.4453 53.3691 -24.8535 L 53.3691 -24.5117 Z"/>
  </g>
  <g id="Ultralight-L" transform="matrix(1 0 0 1 488.739 1556)">
   <path d="M 31.9824 19.7754 L 109.961 19.7754 C 120.312 19.7754 125.879 14.0625 125.879 3.85742 L 125.879 -74.0723 C 125.879 -84.2773 120.312 -89.9902 109.961 -89.9902 L 31.9824 -89.9902 C 21.582 -89.9902 16.0645 -84.4727 16.0645 -74.0723 L 16.0645 3.85742 C 16.0645 14.2578 21.582 19.7754 31.9824 19.7754 Z M 78.0273 -7.27539 C 77.2461 -7.27539 76.6113 -7.86133 76.6113 -8.59375 L 76.6113 -21.4355 L 51.8066 -21.4355 C 50.0977 -21.4355 49.1699 -22.2656 49.1699 -23.6328 C 49.1699 -24.2676 49.5117 -24.9023 49.707 -25.293 C 54.6875 -33.3496 68.5547 -53.8086 74.0723 -61.7676 C 75.0488 -63.1348 75.8301 -63.5742 76.9531 -63.5742 C 78.5645 -63.5742 79.3945 -62.6953 79.3945 -61.3281 L 79.3945 -24.1211 L 87.5488 -24.1211 C 88.3789 -24.1211 88.916 -23.5352 88.916 -22.8027 C 88.916 -22.0703 88.3789 -21.4355 87.5488 -21.4355 L 79.3945 -21.4355 L 79.3945 -8.59375 C 79.3945 -7.86133 78.8574 -7.27539 78.0273 -7.27539 Z M 76.6113 -24.1211 L 76.6113 -60.1074 L 76.3184 -60.1074 C 72.2656 -54.3945 56.25 -30.6152 52.4902 -24.4629 L 52.4902 -24.1211 Z"/>
  </g>
  <g id="Black-M" transform="matrix(1 0 0 1 2872.19 1126)">
   <path d="M 31.9824 13.5742 L 90.4297 13.5742 C 102.686 13.5742 109.961 6.29883 109.961 -5.95703 L 109.961 -64.4043 C 109.961 -76.6602 102.686 -83.9355 90.4297 -83.9355 L 31.9824 -83.9355 C 19.7266 -83.9355 12.4512 -76.6602 12.4512 -64.4043 L 12.4512 -5.95703 C 12.4512 6.29883 19.7266 13.5742 31.9824 13.5742 Z M 68.75 -11.2305 C 64.4531 -11.2305 61.5234 -13.6719 61.5234 -18.7012 L 61.5234 -18.75 L 48.9258 -18.75 C 42.6758 -18.75 38.7695 -22.2656 38.7695 -27.8809 C 38.7695 -30.2734 39.2578 -32.959 40.625 -36.1816 C 42.1875 -39.7461 45.0195 -45.0195 47.7539 -49.707 C 51.8066 -56.7871 55.8105 -59.2285 63.4766 -59.2285 C 70.6055 -59.2285 76.0254 -54.541 76.0254 -48.291 L 76.0254 -31.9824 L 76.416 -31.9824 C 81.25 -31.9824 83.9844 -29.4434 83.9844 -25.3418 C 83.9844 -21.2891 81.1523 -18.75 76.3672 -18.75 L 76.0254 -18.75 L 76.0254 -18.7012 C 76.0254 -13.6719 73.0957 -11.2305 68.75 -11.2305 Z M 61.5234 -31.9824 L 61.5234 -47.5586 L 61.0352 -47.5586 C 58.6426 -42.6758 55.4688 -36.084 53.8574 -32.3242 L 53.8574 -31.9824 Z"/>
  </g>
  <g id="Heavy-M" transform="matrix(1 0 0 1 2576.39 1126)">
   <path d="M 31.0059 12.6465 L 89.6484 12.6465 C 101.416 12.6465 108.154 5.9082 108.154 -5.81055 L 108.154 -64.5508 C 108.154 -76.2695 101.416 -83.0566 89.6484 -83.0566 L 31.0059 -83.0566 C 19.2383 -83.0566 12.4512 -76.3184 12.4512 -64.5508 L 12.4512 -5.81055 C 12.4512 5.9082 19.2383 12.6465 31.0059 12.6465 Z M 67.627 -11.5234 C 63.7695 -11.5234 61.2305 -13.7207 61.2305 -18.2129 L 61.2305 -19.4336 L 47.3633 -19.4336 C 41.7969 -19.4336 38.3301 -22.6074 38.3301 -27.5879 C 38.3301 -29.7363 38.8184 -32.1289 40.0879 -34.9609 C 42.2852 -39.3066 45.8984 -45.5078 49.2188 -50.9277 C 52.7832 -57.0801 56.3477 -59.2285 63.0371 -59.2285 C 69.3359 -59.2285 74.0723 -55.127 74.0723 -49.6094 L 74.0723 -31.1035 L 75.293 -31.1035 C 79.4434 -31.1035 81.8848 -28.8574 81.8848 -25.2441 C 81.8848 -21.6797 79.3945 -19.4336 75.2441 -19.4336 L 74.0723 -19.4336 L 74.0723 -18.2129 C 74.0723 -13.7207 71.5332 -11.5234 67.627 -11.5234 Z M 61.2305 -31.1035 L 61.2305 -48.7793 L 60.791 -48.7793 C 57.7148 -43.1641 53.8086 -35.8887 51.6602 -31.4453 L 51.6602 -31.1035 Z"/>
  </g>
  <g id="Bold-M" transform="matrix(1 0 0 1 2280.68 1126)">
   <path d="M 29.8828 11.6699 L 88.7207 11.6699 C 99.9512 11.6699 106.152 5.46875 106.152 -5.66406 L 106.152 -64.6973 C 106.152 -75.8789 99.9512 -82.0312 88.7207 -82.0312 L 29.8828 -82.0312 C 18.6523 -82.0312 12.4512 -75.8789 12.4512 -64.6973 L 12.4512 -5.66406 C 12.4512 5.51758 18.6523 11.6699 29.8828 11.6699 Z M 66.3574 -11.7676 C 63.0371 -11.7676 60.8887 -13.8184 60.8887 -17.627 L 60.8887 -20.2148 L 45.6055 -20.2148 C 40.8203 -20.2148 37.8906 -22.9492 37.8906 -27.2461 C 37.8906 -29.1992 38.2812 -31.1523 39.502 -33.5938 C 42.334 -38.8184 46.875 -45.9961 50.8301 -52.3438 C 53.9062 -57.373 56.9824 -59.2285 62.5977 -59.2285 C 67.9688 -59.2285 71.875 -55.8105 71.875 -51.123 L 71.875 -30.127 L 74.0234 -30.127 C 77.4414 -30.127 79.4922 -28.2227 79.4922 -25.1465 C 79.4922 -22.1191 77.3926 -20.2148 73.9746 -20.2148 L 71.875 -20.2148 L 71.875 -17.627 C 71.875 -13.7695 69.7754 -11.7676 66.3574 -11.7676 Z M 60.8887 -30.127 L 60.8887 -50.0977 L 60.498 -50.0977 C 56.6406 -43.7012 51.9043 -35.6445 49.1211 -30.4688 L 49.1211 -30.127 Z"/>
  </g>
  <g id="Semibold-M" transform="matrix(1 0 0 1 1984.65 1126)">
   <path d="M 29.1016 10.9863 L 88.0859 10.9863 C 98.9746 10.9863 104.785 5.17578 104.785 -5.56641 L 104.785 -64.8438 C 104.785 -75.5859 98.9746 -81.3477 88.0859 -81.3477 L 29.1016 -81.3477 C 18.2617 -81.3477 12.4512 -75.5859 12.4512 -64.8438 L 12.4512 -5.56641 C 12.4512 5.22461 18.2617 10.9863 29.1016 10.9863 Z M 65.5273 -11.9629 C 62.5488 -11.9629 60.6934 -13.8184 60.6934 -17.2363 L 60.6934 -20.752 L 44.3848 -20.752 C 40.1855 -20.752 37.5488 -23.1934 37.5488 -27.002 C 37.5488 -28.8086 37.9395 -30.5176 39.1113 -32.666 C 42.4316 -38.4766 47.5586 -46.3867 52.002 -53.2715 C 54.6387 -57.6172 57.4219 -59.2285 62.2559 -59.2285 C 66.9922 -59.2285 70.4102 -56.25 70.4102 -52.1484 L 70.4102 -29.4434 L 73.1445 -29.4434 C 76.0254 -29.4434 77.832 -27.7344 77.832 -25.0977 C 77.832 -22.4609 75.9766 -20.752 73.0957 -20.752 L 70.4102 -20.752 L 70.4102 -17.2363 C 70.4102 -13.8184 68.5547 -11.9629 65.5273 -11.9629 Z M 60.6934 -29.4434 L 60.6934 -51.0254 L 60.3027 -51.0254 C 55.957 -44.043 50.5859 -35.498 47.4121 -29.7852 L 47.4121 -29.4434 Z"/>
  </g>
  <g id="Medium-M" transform="matrix(1 0 0 1 1688.47 1126)">
   <path d="M 28.5156 10.4492 L 87.6465 10.4492 C 98.2422 10.4492 103.711 4.98047 103.711 -5.46875 L 103.711 -64.8926 C 103.711 -75.3418 98.2422 -80.8105 87.6465 -80.8105 L 28.5156 -80.8105 C 17.9688 -80.8105 12.4512 -75.3906 12.4512 -64.8926 L 12.4512 -5.46875 C 12.4512 4.98047 17.9688 10.4492 28.5156 10.4492 Z M 64.8438 -12.1094 C 62.1582 -12.1094 60.498 -13.8672 60.498 -16.9434 L 60.498 -21.1426 L 43.457 -21.1426 C 39.6973 -21.1426 37.3047 -23.3887 37.3047 -26.8555 C 37.3047 -28.5156 37.6953 -30.0293 38.7695 -31.9824 C 42.4805 -38.1836 48.0469 -46.6797 52.832 -54.0039 C 55.2246 -57.7637 57.7637 -59.2285 62.0117 -59.2285 C 66.2598 -59.2285 69.2871 -56.5918 69.2871 -52.8809 L 69.2871 -28.9551 L 72.4609 -28.9551 C 75 -28.9551 76.5625 -27.3926 76.5625 -25.0488 C 76.5625 -22.7051 74.9512 -21.1426 72.4609 -21.1426 L 69.2871 -21.1426 L 69.2871 -16.9434 C 69.2871 -13.8184 67.627 -12.1094 64.8438 -12.1094 Z M 60.498 -28.9551 L 60.498 -51.7578 L 60.1562 -51.7578 C 55.3711 -44.3359 49.6094 -35.4004 46.1426 -29.248 L 46.1426 -28.9551 Z"/>
  </g>
  <g id="Regular-M" transform="matrix(1 0 0 1 1392.45 1126)">
   <path d="M 27.7832 9.76562 L 87.0117 9.76562 C 97.2656 9.76562 102.344 4.6875 102.344 -5.37109 L 102.344 -64.9902 C 102.344 -75.0488 97.2656 -80.127 87.0117 -80.127 L 27.7832 -80.127 C 17.5781 -80.127 12.4512 -75.0977 12.4512 -64.9902 L 12.4512 -5.37109 C 12.4512 4.73633 17.5781 9.76562 27.7832 9.76562 Z M 63.9648 -12.3047 C 61.6699 -12.3047 60.3027 -13.916 60.3027 -16.5527 L 60.3027 -21.6797 L 42.2363 -21.6797 C 39.0137 -21.6797 37.0117 -23.6328 37.0117 -26.6113 C 37.0117 -28.125 37.3535 -29.3457 38.3789 -31.0547 C 42.5293 -37.8418 48.7305 -47.0215 53.9551 -54.9316 C 55.957 -57.959 58.1543 -59.2285 61.6699 -59.2285 C 65.332 -59.2285 67.7734 -57.0801 67.7734 -53.9062 L 67.7734 -28.3203 L 71.582 -28.3203 C 73.6328 -28.3203 74.9512 -26.9531 74.9512 -24.9512 C 74.9512 -22.998 73.584 -21.6797 71.582 -21.6797 L 67.7734 -21.6797 L 67.7734 -16.5527 C 67.7734 -13.8672 66.4062 -12.3047 63.9648 -12.3047 Z M 60.3027 -28.3203 L 60.3027 -52.6855 L 59.9609 -52.6855 C 54.6875 -44.7266 48.291 -35.2051 44.4336 -28.6133 L 44.4336 -28.3203 Z"/>
  </g>
  <g id="Light-M" transform="matrix(1 0 0 1 1096.47 1126)">
   <path d="M 26.8555 9.0332 L 86.4746 9.0332 C 95.9961 9.0332 100.879 4.15039 100.879 -5.22461 L 100.879 -65.0879 C 100.879 -74.5117 95.9961 -79.3945 86.4746 -79.3945 L 26.8555 -79.3945 C 17.334 -79.3945 12.4512 -74.5605 12.4512 -65.0879 L 12.4512 -5.22461 C 12.4512 4.19922 17.334 9.0332 26.8555 9.0332 Z M 62.8906 -12.6953 C 61.1328 -12.6953 60.0098 -13.9648 60.0098 -15.9668 L 60.0098 -22.5586 L 41.6016 -22.5586 C 38.9648 -22.5586 37.3535 -24.1211 37.3535 -26.5137 C 37.3535 -27.6855 37.6465 -28.7109 38.4277 -29.9805 C 42.4805 -36.5723 50.0977 -47.8516 55.0293 -55.1758 C 56.6406 -57.6172 58.3496 -58.5938 61.0352 -58.5938 C 63.916 -58.5938 65.8691 -56.8848 65.8691 -54.3945 L 65.8691 -27.7832 L 70.459 -27.7832 C 72.0215 -27.7832 73.0469 -26.709 73.0469 -25.1465 C 73.0469 -23.6328 71.9727 -22.5586 70.459 -22.5586 L 65.8691 -22.5586 L 65.8691 -15.9668 C 65.8691 -13.916 64.7461 -12.6953 62.8906 -12.6953 Z M 60.0098 -27.7832 L 60.0098 -53.2227 L 59.668 -53.2227 C 55.0781 -46.3867 46.8262 -34.1309 43.2617 -28.0762 L 43.2617 -27.7832 Z"/>
  </g>
  <g id="Thin-M" transform="matrix(1 0 0 1 800.758 1126)">
   <path d="M 25.6348 8.05664 L 85.7422 8.05664 C 94.3848 8.05664 98.877 3.4668 98.877 -5.0293 L 98.877 -65.2344 C 98.877 -73.7305 94.3848 -78.3691 85.7422 -78.3691 L 25.6348 -78.3691 C 16.9922 -78.3691 12.4512 -73.877 12.4512 -65.2344 L 12.4512 -5.0293 C 12.4512 3.56445 16.9922 8.05664 25.6348 8.05664 Z M 61.4258 -13.2324 C 60.3516 -13.2324 59.6191 -13.9648 59.6191 -15.1367 L 59.6191 -23.7305 L 40.7227 -23.7305 C 38.8672 -23.7305 37.793 -24.7559 37.793 -26.3672 C 37.793 -27.0996 38.0859 -27.832 38.4766 -28.5156 C 42.4316 -34.9121 51.9043 -48.9258 56.4453 -55.5176 C 57.5195 -57.1777 58.5938 -57.7637 60.2051 -57.7637 C 62.1094 -57.7637 63.2812 -56.6895 63.2812 -55.0293 L 63.2812 -27.0996 L 68.8965 -27.0996 C 69.9219 -27.0996 70.6055 -26.3672 70.6055 -25.3906 C 70.6055 -24.4629 69.9219 -23.7305 68.8965 -23.7305 L 63.2812 -23.7305 L 63.2812 -15.1367 C 63.2812 -13.9648 62.5977 -13.2324 61.4258 -13.2324 Z M 59.6191 -27.0996 L 59.6191 -54.0039 L 59.375 -54.0039 C 55.6641 -48.584 44.9219 -32.666 41.748 -27.3438 L 41.748 -27.0996 Z"/>
  </g>
  <g id="Ultralight-M" transform="matrix(1 0 0 1 504.535 1126)">
   <path d="M 25 7.56836 L 85.3516 7.56836 C 93.5059 7.56836 97.9004 3.125 97.9004 -4.98047 L 97.9004 -65.2832 C 97.9004 -73.3887 93.5059 -77.832 85.3516 -77.832 L 25 -77.832 C 16.7969 -77.832 12.4512 -73.4863 12.4512 -65.2832 L 12.4512 -4.98047 C 12.4512 3.22266 16.7969 7.56836 25 7.56836 Z M 60.6934 -13.4766 C 60.0098 -13.4766 59.4238 -14.0137 59.4238 -14.7461 L 59.4238 -24.3652 L 40.2832 -24.3652 C 38.8184 -24.3652 38.0371 -25.0488 38.0371 -26.2695 C 38.0371 -26.8066 38.2812 -27.3926 38.5254 -27.7832 C 42.3828 -34.082 52.7832 -49.4629 57.1289 -55.7129 C 58.0078 -56.9336 58.7402 -57.373 59.8145 -57.373 C 61.1816 -57.373 61.9629 -56.543 61.9629 -55.3711 L 61.9629 -26.7578 L 68.1152 -26.7578 C 68.8477 -26.7578 69.3359 -26.2207 69.3359 -25.5371 C 69.3359 -24.9023 68.8477 -24.3652 68.1152 -24.3652 L 61.9629 -24.3652 L 61.9629 -14.7461 C 61.9629 -14.0137 61.4746 -13.4766 60.6934 -13.4766 Z M 59.4238 -26.7578 L 59.4238 -54.3457 L 59.1797 -54.3457 C 55.9082 -49.707 43.8965 -31.8848 40.9668 -27.002 L 40.9668 -26.7578 Z"/>
  </g>
  <g id="Black-S" transform="matrix(1 0 0 1 2885.5 696)">
   <path d="M 25 2.92969 L 70.8008 2.92969 C 80.3711 2.92969 86.0352 -2.73438 86.0352 -12.3047 L 86.0352 -58.1055 C 86.0352 -67.6758 80.3711 -73.3398 70.8008 -73.3398 L 25 -73.3398 C 15.4297 -73.3398 9.76562 -67.6758 9.76562 -58.1055 L 9.76562 -12.3047 C 9.76562 -2.73438 15.4297 2.92969 25 2.92969 Z M 53.8086 -16.4551 C 50.4395 -16.4551 48.1934 -18.3594 48.1934 -22.2656 L 48.1934 -22.3633 L 38.2324 -22.3633 C 33.3496 -22.3633 30.3223 -25.0977 30.3223 -29.4434 C 30.3223 -31.2988 30.7129 -33.3984 31.7871 -35.8887 C 33.0566 -38.7695 35.3027 -42.9199 37.5 -46.6797 C 40.6738 -52.1484 43.75 -54.0527 49.707 -54.0527 C 55.2246 -54.0527 59.4238 -50.3906 59.4238 -45.5566 L 59.4238 -32.6172 L 59.8145 -32.6172 C 63.5254 -32.6172 65.6738 -30.6641 65.6738 -27.4902 C 65.6738 -24.3164 63.4766 -22.3633 59.7656 -22.3633 L 59.4238 -22.3633 L 59.4238 -22.2656 C 59.4238 -18.3594 57.1777 -16.4551 53.8086 -16.4551 Z M 48.1934 -32.6172 L 48.1934 -44.9707 L 47.8027 -44.9707 C 45.8496 -41.0645 43.3594 -35.8887 42.041 -32.9102 L 42.041 -32.6172 Z"/>
  </g>
  <g id="Heavy-S" transform="matrix(1 0 0 1 2589.4 696)">
   <path d="M 24.3652 2.34375 L 70.2637 2.34375 C 79.541 2.34375 84.8145 -2.97852 84.8145 -12.207 L 84.8145 -58.2031 C 84.8145 -67.4316 79.541 -72.7539 70.2637 -72.7539 L 24.3652 -72.7539 C 15.0879 -72.7539 9.76562 -67.4316 9.76562 -58.2031 L 9.76562 -12.207 C 9.76562 -2.97852 15.0879 2.34375 24.3652 2.34375 Z M 53.0762 -16.6016 C 50 -16.6016 47.998 -18.4082 47.998 -21.9238 L 47.998 -22.8027 L 37.1094 -22.8027 C 32.7148 -22.8027 29.9805 -25.293 29.9805 -29.248 C 29.9805 -30.957 30.3223 -32.8125 31.3965 -35.1074 C 33.1055 -38.5742 35.8398 -43.2129 38.5254 -47.6074 C 41.3574 -52.3926 44.1406 -54.1016 49.4629 -54.1016 C 54.4434 -54.1016 58.1543 -50.8789 58.1543 -46.5332 L 58.1543 -32.0312 L 59.082 -32.0312 C 62.3047 -32.0312 64.2578 -30.2246 64.2578 -27.3926 C 64.2578 -24.5605 62.2559 -22.8027 59.0332 -22.8027 L 58.1543 -22.8027 L 58.1543 -21.9238 C 58.1543 -18.4082 56.1523 -16.6016 53.0762 -16.6016 Z M 47.998 -32.0312 L 47.998 -45.8496 L 47.6562 -45.8496 C 45.0684 -41.2598 42.2363 -35.8398 40.4785 -32.2754 L 40.4785 -32.0312 Z"/>
  </g>
  <g id="Bold-S" transform="matrix(1 0 0 1 2293.35 696)">
   <path d="M 23.6328 1.66016 L 69.6289 1.66016 C 78.6133 1.66016 83.4961 -3.22266 83.4961 -12.1094 L 83.4961 -58.3008 C 83.4961 -67.1875 78.6133 -72.0703 69.6289 -72.0703 L 23.6328 -72.0703 C 14.6973 -72.0703 9.76562 -67.1875 9.76562 -58.3008 L 9.76562 -12.1094 C 9.76562 -3.22266 14.6973 1.66016 23.6328 1.66016 Z M 52.2461 -16.7969 C 49.5117 -16.7969 47.8027 -18.457 47.8027 -21.582 L 47.8027 -23.2422 L 35.791 -23.2422 C 31.9824 -23.2422 29.5898 -25.4883 29.5898 -29.0039 C 29.5898 -30.5664 29.8828 -32.1777 30.9082 -34.1797 C 33.2031 -38.3301 36.4258 -43.5059 39.6484 -48.584 C 42.0898 -52.6855 44.6289 -54.1992 49.1699 -54.1992 C 53.5156 -54.1992 56.7383 -51.416 56.7383 -47.6074 L 56.7383 -31.3477 L 58.252 -31.3477 C 60.9863 -31.3477 62.6465 -29.7852 62.6465 -27.2949 C 62.6465 -24.8535 60.9375 -23.2422 58.2031 -23.2422 L 56.7383 -23.2422 L 56.7383 -21.582 C 56.7383 -18.4082 54.9805 -16.7969 52.2461 -16.7969 Z M 47.8027 -31.3477 L 47.8027 -46.7773 L 47.4609 -46.7773 C 44.2383 -41.4551 40.9668 -35.8398 38.7207 -31.5918 L 38.7207 -31.3477 Z"/>
  </g>
  <g id="Semibold-S" transform="matrix(1 0 0 1 1997.1 696)">
   <path d="M 23.0957 1.17188 L 69.1895 1.17188 C 77.9297 1.17188 82.5684 -3.36914 82.5684 -12.0117 L 82.5684 -58.3984 C 82.5684 -67.041 77.9297 -71.582 69.1895 -71.582 L 23.0957 -71.582 C 14.4043 -71.582 9.76562 -67.041 9.76562 -58.3984 L 9.76562 -12.0117 C 9.76562 -3.36914 14.4043 1.17188 23.0957 1.17188 Z M 51.6602 -16.8945 C 49.1699 -16.8945 47.6074 -18.457 47.6074 -21.3379 L 47.6074 -23.584 L 34.9121 -23.584 C 31.4941 -23.584 29.2969 -25.6348 29.2969 -28.8086 C 29.2969 -30.3223 29.5898 -31.7383 30.6152 -33.5938 C 33.252 -38.1836 36.8164 -43.7012 40.4297 -49.3164 C 42.627 -52.8809 44.9219 -54.248 48.9746 -54.248 C 52.9297 -54.248 55.7617 -51.7578 55.7617 -48.3398 L 55.7617 -30.8594 L 57.666 -30.8594 C 60.0586 -30.8594 61.5234 -29.4434 61.5234 -27.1973 C 61.5234 -25 60.0098 -23.584 57.666 -23.584 L 55.7617 -23.584 L 55.7617 -21.3379 C 55.7617 -18.4082 54.1992 -16.8945 51.6602 -16.8945 Z M 47.6074 -30.8594 L 47.6074 -47.4609 L 47.3145 -47.4609 C 43.6523 -41.6016 40.0879 -35.791 37.5 -31.1035 L 37.5 -30.8594 Z"/>
  </g>
  <g id="Medium-S" transform="matrix(1 0 0 1 1700.75 696)">
   <path d="M 22.7051 0.830078 L 68.8965 0.830078 C 77.4414 0.830078 81.8359 -3.51562 81.8359 -11.9629 L 81.8359 -58.4473 C 81.8359 -66.8945 77.4414 -71.2402 68.8965 -71.2402 L 22.7051 -71.2402 C 14.209 -71.2402 9.76562 -66.8945 9.76562 -58.4473 L 9.76562 -11.9629 C 9.76562 -3.51562 14.209 0.830078 22.7051 0.830078 Z M 51.2207 -16.9922 C 48.9258 -16.9922 47.5098 -18.5059 47.5098 -21.1426 L 47.5098 -23.8281 L 34.2773 -23.8281 C 31.1035 -23.8281 29.1016 -25.7812 29.1016 -28.7109 C 29.1016 -30.127 29.3945 -31.3965 30.3711 -33.1055 C 33.3008 -38.0371 37.1094 -43.8477 41.0156 -49.8535 C 43.0176 -53.0273 45.166 -54.2969 48.8281 -54.2969 C 52.4414 -54.2969 55.0293 -52.0508 55.0293 -48.877 L 55.0293 -30.5176 L 57.2266 -30.5176 C 59.375 -30.5176 60.6934 -29.1992 60.6934 -27.1484 C 60.6934 -25.1465 59.3262 -23.8281 57.2266 -23.8281 L 55.0293 -23.8281 L 55.0293 -21.1426 C 55.0293 -18.457 53.6133 -16.9922 51.2207 -16.9922 Z M 47.5098 -30.5176 L 47.5098 -47.9492 L 47.2168 -47.9492 C 43.2129 -41.6992 39.4043 -35.791 36.5723 -30.7617 L 36.5723 -30.5176 Z"/>
  </g>
  <g id="Regular-S" transform="matrix(1 0 0 1 1404.51 696)">
   <path d="M 22.2168 0.390625 L 68.457 0.390625 C 76.8066 0.390625 80.9082 -3.71094 80.9082 -11.9141 L 80.9082 -58.4961 C 80.9082 -66.6992 76.8066 -70.8008 68.457 -70.8008 L 22.2168 -70.8008 C 13.916 -70.8008 9.76562 -66.6992 9.76562 -58.4961 L 9.76562 -11.9141 C 9.76562 -3.71094 13.916 0.390625 22.2168 0.390625 Z M 50.6836 -17.0898 C 48.584 -17.0898 47.3633 -18.5059 47.3633 -20.8984 L 47.3633 -24.1699 L 33.3984 -24.1699 C 30.6152 -24.1699 28.8086 -25.9277 28.8086 -28.5645 C 28.8086 -29.8828 29.1016 -30.957 30.0293 -32.5195 C 33.3496 -37.8906 37.5 -44.0918 41.748 -50.5371 C 43.5059 -53.2227 45.5078 -54.3457 48.6328 -54.3457 C 51.8555 -54.3457 54.0527 -52.3926 54.0527 -49.6582 L 54.0527 -30.0293 L 56.6406 -30.0293 C 58.4473 -30.0293 59.6191 -28.8574 59.6191 -27.0996 C 59.6191 -25.3418 58.3984 -24.1699 56.6406 -24.1699 L 54.0527 -24.1699 L 54.0527 -20.8984 C 54.0527 -18.457 52.832 -17.0898 50.6836 -17.0898 Z M 47.3633 -30.0293 L 47.3633 -48.6328 L 47.0703 -48.6328 C 42.627 -41.8457 38.5254 -35.7422 35.3516 -30.2734 L 35.3516 -30.0293 Z"/>
  </g>
  <g id="Light-S" transform="matrix(1 0 0 1 1108.46 696)">
   <path d="M 21.3867 -0.292969 L 67.9688 -0.292969 C 75.7324 -0.292969 79.5898 -4.15039 79.5898 -11.7676 L 79.5898 -58.5938 C 79.5898 -66.2109 75.7324 -70.1172 67.9688 -70.1172 L 21.3867 -70.1172 C 13.6719 -70.1172 9.76562 -66.2598 9.76562 -58.5938 L 9.76562 -11.7676 C 9.76562 -4.15039 13.6719 -0.292969 21.3867 -0.292969 Z M 49.707 -17.4316 C 48.0957 -17.4316 47.1191 -18.5547 47.1191 -20.3613 L 47.1191 -24.9512 L 32.8125 -24.9512 C 30.5664 -24.9512 29.1016 -26.3184 29.1016 -28.4668 C 29.1016 -29.4922 29.3945 -30.3711 30.0781 -31.543 C 33.3008 -36.7676 38.7207 -44.7754 42.7246 -50.7812 C 44.0918 -52.9297 45.6543 -53.8086 48.0957 -53.8086 C 50.6348 -53.8086 52.3438 -52.2461 52.3438 -50.0488 L 52.3438 -29.5898 L 55.6152 -29.5898 C 57.0312 -29.5898 57.959 -28.6621 57.959 -27.2461 C 57.959 -25.8789 56.9824 -24.9512 55.6152 -24.9512 L 52.3438 -24.9512 L 52.3438 -20.3613 C 52.3438 -18.5059 51.3672 -17.4316 49.707 -17.4316 Z M 47.1191 -29.5898 L 47.1191 -49.1211 L 46.875 -49.1211 C 43.0176 -43.3105 37.2559 -34.7656 34.3262 -29.834 L 34.3262 -29.5898 Z"/>
  </g>
  <g id="Thin-S" transform="matrix(1 0 0 1 812.599 696)">
   <path d="M 20.3125 -1.12305 L 67.334 -1.12305 C 74.2676 -1.12305 77.8809 -4.78516 77.8809 -11.6211 L 77.8809 -58.6914 C 77.8809 -65.5762 74.2676 -69.2383 67.334 -69.2383 L 20.3125 -69.2383 C 13.3789 -69.2383 9.76562 -65.625 9.76562 -58.6914 L 9.76562 -11.6211 C 9.76562 -4.6875 13.3789 -1.12305 20.3125 -1.12305 Z M 48.4375 -17.8711 C 47.4609 -17.8711 46.7773 -18.5547 46.7773 -19.6289 L 46.7773 -25.9766 L 32.0801 -25.9766 C 30.4688 -25.9766 29.541 -26.9043 29.541 -28.3203 C 29.541 -29.0039 29.7363 -29.5898 30.127 -30.2734 C 33.252 -35.3027 40.2832 -45.752 43.9453 -51.0742 C 44.9219 -52.4902 45.8496 -53.0762 47.3633 -53.0762 C 49.0234 -53.0762 50.0488 -52.0996 50.0488 -50.6348 L 50.0488 -29.0039 L 54.2969 -29.0039 C 55.1758 -29.0039 55.7617 -28.3691 55.7617 -27.4902 C 55.7617 -26.6113 55.1758 -25.9766 54.2969 -25.9766 L 50.0488 -25.9766 L 50.0488 -19.6289 C 50.0488 -18.5547 49.4629 -17.8711 48.4375 -17.8711 Z M 46.7773 -29.0039 L 46.7773 -49.7559 L 46.582 -49.7559 C 43.5059 -45.2637 35.5469 -33.4961 33.0078 -29.1992 L 33.0078 -29.0039 Z"/>
  </g>
  <g id="Ultralight-S" transform="matrix(1 0 0 1 516.352 696)">
   <path d="M 19.7754 -1.5625 L 66.9922 -1.5625 C 73.5352 -1.5625 76.9531 -5.12695 76.9531 -11.5234 L 76.9531 -58.7891 C 76.9531 -65.2344 73.5352 -68.75 66.9922 -68.75 L 19.7754 -68.75 C 13.2324 -68.75 9.76562 -65.2832 9.76562 -58.7891 L 9.76562 -11.5234 C 9.76562 -5.0293 13.2324 -1.5625 19.7754 -1.5625 Z M 47.7539 -18.1152 C 47.1191 -18.1152 46.6309 -18.6035 46.6309 -19.2871 L 46.6309 -26.5137 L 31.6895 -26.5137 C 30.4199 -26.5137 29.7363 -27.1973 29.7363 -28.2227 C 29.7363 -28.7109 29.9316 -29.1992 30.1758 -29.5898 C 33.2031 -34.5703 41.1133 -46.2402 44.5801 -51.2207 C 45.3125 -52.2949 45.9473 -52.6855 46.9727 -52.6855 C 48.1934 -52.6855 48.877 -51.9531 48.877 -50.9277 L 48.877 -28.6621 L 53.5645 -28.6621 C 54.1992 -28.6621 54.6387 -28.2227 54.6387 -27.5879 C 54.6387 -27.002 54.1992 -26.5137 53.5645 -26.5137 L 48.877 -26.5137 L 48.877 -19.2871 C 48.877 -18.6035 48.4863 -18.1152 47.7539 -18.1152 Z M 46.6309 -28.6621 L 46.6309 -50.0977 L 46.4355 -50.0977 C 43.75 -46.2402 34.668 -32.8125 32.2754 -28.8574 L 32.2754 -28.6621 Z"/>
  </g>
 </g>
</svg>
